<svg width="26" height="34" viewBox="0 0 26 34" fill="none" xmlns="http://www.w3.org/2000/svg">
<path d="M4.36584 7.18188V7.18188C4.36584 6.1736 5.23167 5.38299 6.2358 5.47436L8.37223 5.66877C9.0776 5.73296 9.75815 5.39071 10.1272 4.78618V4.78618C10.4648 4.23323 11.0659 3.89593 11.7138 3.89593H11.8652C12.8463 3.89593 13.7003 3.22536 13.9331 2.27225L14.1097 1.54883" stroke="#686E79" stroke-width="2" stroke-linecap="round" stroke-linejoin="round"/>
<path d="M25 15.6313V32.9999H1.5V19.8561L13.5366 15.6313V19.3867L25 15.6313Z" stroke="#686E79" stroke-width="2" stroke-linecap="round" stroke-linejoin="round"/>
<path d="M20.9878 32.5306V27.9587C20.9878 26.8542 20.0924 25.9587 18.9878 25.9587H17.2561C16.1515 25.9587 15.2561 26.8542 15.2561 27.9587V32.5306" stroke="#686E79" stroke-width="2"/>
<path d="M2.07312 19.387L2.64629 9.99854H5.51214L6.08532 17.9787" stroke="#686E79" stroke-width="2" stroke-linecap="round" stroke-linejoin="round"/>
</svg>
