<svg width="31" height="31" viewBox="0 0 31 31" fill="none" xmlns="http://www.w3.org/2000/svg">
<rect x="16" y="16" width="14" height="14" rx="2" stroke="#686E79" stroke-width="2"/>
<path d="M21 16L21 22L23 20.7783L25 22V16" stroke="#686E79" stroke-width="2" stroke-linecap="round" stroke-linejoin="round"/>
<path d="M1 1L5.09893 5.09893M5.09893 5.09893L9.19786 1M5.09893 5.09893V12.1257" stroke="#686E79" stroke-width="2" stroke-linecap="round"/>
<path d="M3.34229 6.85571H6.85566" stroke="#686E79" stroke-width="2" stroke-linecap="round"/>
<path d="M3.34229 10.3691H6.85566" stroke="#686E79" stroke-width="2" stroke-linecap="round"/>
<path d="M11.2861 22.6552C8.69888 22.6552 6.60156 20.5579 6.60156 17.9707" stroke="#686E79" stroke-width="2" stroke-linecap="round"/>
<path d="M18.3129 9.77263C18.3129 7.18545 16.2156 5.08813 13.6284 5.08813" stroke="#686E79" stroke-width="2" stroke-linecap="round"/>
<path d="M20.6551 8.01611L18.8984 10.3584L15.9706 9.7728" stroke="#686E79" stroke-width="2" stroke-linecap="round" stroke-linejoin="round"/>
<path d="M4.13011 18.8359L6.16898 16.7347L8.99919 17.6859" stroke="#686E79" stroke-width="2" stroke-linecap="round" stroke-linejoin="round"/>
</svg>
