<svg width="33" height="33" viewBox="0 0 33 33" fill="none" xmlns="http://www.w3.org/2000/svg">
<path d="M17.4981 16.2477H11.4145L7.48594 20.2811C6.80169 20.9827 5.60799 20.5015 5.60799 19.5245V16.2477H4.55284C2.85395 16.2477 1.47693 14.8785 1.47693 13.1892V4.58824C1.47693 2.89899 2.85395 1.52979 4.55284 1.52979H17.496C19.1949 1.52979 20.5719 2.89899 20.5719 4.58824V13.1892C20.5719 14.8785 19.1949 16.2477 17.496 16.2477H17.4981Z" stroke="#686E79" stroke-width="2" stroke-linecap="round" stroke-linejoin="round"/>
<path d="M12.3722 16.4894V24.0454C12.3722 25.7347 13.7556 27.1039 15.4624 27.1039H21.5743L25.5211 31.1373C26.2085 31.8389 27.4077 31.3577 27.4077 30.3807V27.1039H28.4678C30.1746 27.1039 31.558 25.7347 31.558 24.0454V15.4444C31.558 13.7552 30.1746 12.386 28.4678 12.386H20.8654" stroke="#686E79" stroke-width="2" stroke-linecap="round" stroke-linejoin="round"/>
<path d="M17.2556 21.1206C17.8819 21.1206 18.3896 20.6158 18.3896 19.9931C18.3896 19.3703 17.8819 18.8655 17.2556 18.8655C16.6293 18.8655 16.1216 19.3703 16.1216 19.9931C16.1216 20.6158 16.6293 21.1206 17.2556 21.1206Z" fill="#686E79"/>
<path d="M21.9494 21.1162C22.5757 21.1162 23.0835 20.6114 23.0835 19.9887C23.0835 19.3659 22.5757 18.8611 21.9494 18.8611C21.3231 18.8611 20.8154 19.3659 20.8154 19.9887C20.8154 20.6114 21.3231 21.1162 21.9494 21.1162Z" fill="#686E79"/>
<path d="M26.6433 21.1206C27.2696 21.1206 27.7773 20.6158 27.7773 19.9931C27.7773 19.3703 27.2696 18.8655 26.6433 18.8655C26.017 18.8655 25.5093 19.3703 25.5093 19.9931C25.5093 20.6158 26.017 21.1206 26.6433 21.1206Z" fill="#686E79"/>
<path d="M11.6549 10.2483H10.2962C10.2999 9.91955 10.3218 9.63467 10.3619 9.39361C10.4021 9.14891 10.4733 8.92977 10.5756 8.73619C10.6779 8.54262 10.8167 8.3527 10.992 8.16643C11.1235 8.01668 11.2403 7.87424 11.3426 7.7391C11.4449 7.60031 11.527 7.4597 11.5891 7.31726C11.6512 7.17116 11.6823 7.01046 11.6823 6.83515C11.6823 6.62696 11.6585 6.4553 11.611 6.32017C11.5672 6.18503 11.5015 6.08276 11.4138 6.01337C11.3262 5.94397 11.2148 5.90928 11.0796 5.90928C10.9847 5.90928 10.8897 5.94215 10.7948 6.00789C10.6998 6.07363 10.6194 6.17407 10.5537 6.30921C10.488 6.44435 10.4551 6.62148 10.4551 6.84062H8.91014C8.91745 6.33295 9.01606 5.91476 9.20598 5.58604C9.3959 5.25733 9.65339 5.01445 9.97845 4.8574C10.3072 4.6967 10.6742 4.61635 11.0796 4.61635C11.5289 4.61635 11.9124 4.70035 12.2301 4.86836C12.5515 5.03271 12.7981 5.2756 12.9697 5.597C13.1414 5.91476 13.2272 6.30373 13.2272 6.76393C13.2272 7.08168 13.1706 7.36291 13.0574 7.60762C12.9478 7.85232 12.8054 8.0806 12.6301 8.29243C12.4584 8.50062 12.274 8.71793 12.0767 8.94437C11.9124 9.13064 11.8028 9.32422 11.748 9.5251C11.6932 9.72598 11.6622 9.96703 11.6549 10.2483ZM10.1592 11.9302C10.1592 11.6928 10.2341 11.4937 10.3839 11.333C10.5373 11.1687 10.7436 11.0865 11.0029 11.0865C11.2586 11.0865 11.4613 11.1687 11.611 11.333C11.7608 11.4937 11.8357 11.6928 11.8357 11.9302C11.8357 12.1639 11.7608 12.363 11.611 12.5273C11.4613 12.688 11.2586 12.7684 11.0029 12.7684C10.7436 12.7684 10.5373 12.688 10.3839 12.5273C10.2341 12.363 10.1592 12.1639 10.1592 11.9302Z" fill="#686E79"/>
</svg>
