<svg width="33" height="32" viewBox="0 0 33 32" fill="none" xmlns="http://www.w3.org/2000/svg">
<path d="M15.1305 1.90796H13.8591C12.3754 1.90796 11.172 3.08824 11.172 4.5435V13.7393C11.172 15.1946 12.3754 16.3749 13.8591 16.3749H23.8434L28.4692 19.9313L28.3898 16.3749C29.8736 16.3749 31.077 15.1946 31.077 13.7393V4.5435C31.077 3.08824 29.8736 1.90796 28.3898 1.90796H19.1528" stroke="#686E79" stroke-width="2" stroke-linecap="round" stroke-linejoin="round"/>
<path d="M21.8254 16.3722V23.9027C21.8254 25.3579 20.622 26.5382 19.1383 26.5382H9.15669L4.53089 30.0946L4.61024 26.5382C3.12649 26.5382 1.9231 25.3579 1.9231 23.9027V14.7068C1.9231 13.2516 3.12649 12.0713 4.61024 12.0713H10.688" stroke="#686E79" stroke-width="2" stroke-linecap="round" stroke-linejoin="round"/>
<path d="M18 12C20.4197 10.9903 20.909 7.09802 21 6" stroke="#686E79" stroke-width="2" stroke-linecap="round" stroke-linejoin="round"/>
<path d="M24 12C21.5803 10.9903 21.091 7.09802 21 6" stroke="#686E79" stroke-width="2" stroke-linecap="round" stroke-linejoin="round"/>
<path d="M9 23L12.0235 16L15 23" stroke="#686E79" stroke-width="2" stroke-linecap="round" stroke-linejoin="round"/>
<path d="M10 21H14" stroke="#686E79" stroke-width="2" stroke-linecap="round" stroke-linejoin="round"/>
</svg>
