<svg width="60" height="66" viewBox="0 0 60 66" fill="none" xmlns="http://www.w3.org/2000/svg">
<path d="M5.85165 55.2117H34.7642C36.9873 55.2117 38.7914 57.0548 38.7914 59.3258V63.3018C38.7914 63.7735 38.4154 64.1577 37.9537 64.1577H2.66222C2.20047 64.1577 1.82446 63.7735 1.82446 63.3018V59.3258C1.82446 57.0548 3.62861 55.2117 5.85165 55.2117Z" stroke="white" stroke-width="2" stroke-linecap="round" stroke-linejoin="round"/>
<path d="M14.5922 55.2116C14.203 54.376 13.9854 53.4393 13.9854 52.452C13.9854 48.8972 16.8087 46.0129 20.2883 46.0129C23.768 46.0129 26.5913 48.8972 26.5913 52.452C26.5913 53.4393 26.3736 54.376 25.9844 55.2116" stroke="white" stroke-width="2" stroke-linecap="round" stroke-linejoin="round"/>
<path d="M8.99492 54.8274C8.8399 54.0592 8.76074 53.2674 8.76074 52.4553C8.76074 45.9522 13.9225 40.679 20.2882 40.679C26.6538 40.679 31.8156 45.9522 31.8156 52.4553C31.8156 53.2674 31.7365 54.0625 31.5814 54.8274" stroke="white" stroke-width="2" stroke-linecap="round" stroke-linejoin="round"/>
<path d="M24.2066 41.1339L12.2867 22.9522C10.8882 20.8193 8.18361 20.0376 5.90121 21.1057C3.48029 22.2378 2.3094 25.0749 3.20983 27.6324L9.94489 46.798" stroke="white" stroke-width="2" stroke-linecap="round" stroke-linejoin="round"/>
<path d="M8.20992 28.4006C9.40306 28.4006 10.3703 27.4125 10.3703 26.1936C10.3703 24.9747 9.40306 23.9866 8.20992 23.9866C7.01679 23.9866 6.04956 24.9747 6.04956 26.1936C6.04956 27.4125 7.01679 28.4006 8.20992 28.4006Z" stroke="white" stroke-width="2" stroke-linecap="round" stroke-linejoin="round"/>
<path d="M10.0801 20.6307L31.1791 3.12281C33.5571 1.14829 37.0467 1.49535 39.0125 3.89779C41.0046 6.3373 40.6715 9.96286 38.2704 11.9812L17.2142 29.6845" stroke="white" stroke-width="2" stroke-linecap="round" stroke-linejoin="round"/>
<path d="M34.5565 9.96946C35.777 9.96946 36.7664 8.95871 36.7664 7.7119C36.7664 6.46509 35.777 5.45435 34.5565 5.45435C33.3361 5.45435 32.3467 6.46509 32.3467 7.7119C32.3467 8.95871 33.3361 9.96946 34.5565 9.96946Z" stroke="white" stroke-width="2" stroke-linecap="round" stroke-linejoin="round"/>
<path d="M40.312 7.71191L52.7894 16.0851C54.9399 17.5272 55.5434 20.4789 54.1384 22.6825C52.7366 24.8794 49.8638 25.5095 47.7035 24.0944L34.3059 15.3202" stroke="white" stroke-width="2" stroke-linecap="round" stroke-linejoin="round"/>
<path d="M54.2341 24.7279L54.1417 27.9121C54.0956 29.7147 52.6245 31.1367 50.86 31.0861C49.0954 31.0389 47.7035 29.5362 47.753 27.7335L47.8453 24.5493" stroke="white" stroke-width="2" stroke-linecap="round" stroke-linejoin="round"/>
<path d="M53.2148 30.1191L56.1569 34.2198C56.4405 34.614 56.4208 35.1565 56.1107 35.5305L53.4193 38.7518" stroke="white" stroke-width="2" stroke-linecap="round" stroke-linejoin="round"/>
<path d="M48.4587 29.9775L45.0087 33.6469C44.6756 34.0007 44.6261 34.5398 44.8867 34.9543L47.1361 38.5124" stroke="white" stroke-width="2" stroke-linecap="round" stroke-linejoin="round"/>
<path d="M57.2652 51.1985H44.5999C44.099 51.1985 43.6929 51.6133 43.6929 52.1251V63.113C43.6929 63.6247 44.099 64.0396 44.5999 64.0396H57.2652C57.7662 64.0396 58.1723 63.6247 58.1723 63.113V52.1251C58.1723 51.6133 57.7662 51.1985 57.2652 51.1985Z" stroke="white" stroke-width="2" stroke-linecap="round" stroke-linejoin="round"/>
<path d="M47.8486 51.1985H53.8911V55.781C53.8911 56.3268 53.4557 56.7716 52.9214 56.7716H48.8183C48.284 56.7716 47.8486 56.3268 47.8486 55.781V51.1985Z" stroke="white" stroke-width="2" stroke-linecap="round" stroke-linejoin="round"/>
</svg>
