<svg width="63" height="64" viewBox="0 0 63 64" fill="none" xmlns="http://www.w3.org/2000/svg">
<g clip-path="url(#clip0_4271_13425)">
<path d="M55.3001 59.21C59.0401 58.87 61.9801 55.73 61.9801 51.9C61.9801 48.35 59.4601 45.38 56.1001 44.71C55.4601 41.31 52.4801 38.74 48.8901 38.74C45.9501 38.74 43.4201 40.48 42.2501 42.98C41.7601 42.84 41.2501 42.76 40.7101 42.76C37.6901 42.76 35.2501 45.17 35.1701 48.17C35.1701 48.17 35.1701 48.17 35.1601 48.17C32.1001 48.17 29.6201 50.65 29.6201 53.71C29.6201 56.39 31.5201 58.62 34.0501 59.14" stroke="white" stroke-width="2" stroke-miterlimit="10" stroke-linecap="round" stroke-linejoin="round"/>
<path d="M37.6504 56.0401V59.6101C37.6504 59.8501 37.8404 60.0501 38.0904 60.0501H53.3204C53.5604 60.0501 53.7604 59.8601 53.7604 59.6101V56.0401C53.7604 55.8001 53.5704 55.6001 53.3204 55.6001H38.0804C37.8404 55.6101 37.6504 55.8001 37.6504 56.0401ZM40.1604 58.9401H39.1904V56.5701H40.1604V58.9401ZM42.1804 58.9401H41.2104V56.5701H42.1804V58.9401ZM51.1004 58.9401C50.4504 58.9401 49.9204 58.4101 49.9204 57.7601C49.9204 57.1101 50.4504 56.5801 51.1004 56.5801C51.7504 56.5801 52.2804 57.1101 52.2804 57.7601C52.2804 58.4101 51.7504 58.9401 51.1004 58.9401Z" fill="#F7941D"/>
<path d="M37.6504 50.8899V54.4599C37.6504 54.6999 37.8404 54.9 38.0904 54.9H53.3204C53.5604 54.9 53.7604 54.7099 53.7604 54.4599V50.8899C53.7604 50.6499 53.5704 50.45 53.3204 50.45H38.0804C37.8404 50.46 37.6504 50.6499 37.6504 50.8899ZM40.1604 53.79H39.1904V51.4199H40.1604V53.79ZM42.1804 53.79H41.2104V51.4199H42.1804V53.79ZM51.1004 53.79C50.4504 53.79 49.9204 53.26 49.9204 52.61C49.9204 51.96 50.4504 51.43 51.1004 51.43C51.7504 51.43 52.2804 51.96 52.2804 52.61C52.2804 53.26 51.7504 53.79 51.1004 53.79Z" fill="#F7941D"/>
<path d="M44.92 32.14V12.47V8.12C44.92 4.19 41.73 1 37.8 1H13.2L1 12.4V55.55C1 59.48 4.19 62.67 8.12 62.67H28.55" stroke="white" stroke-width="2" stroke-miterlimit="10" stroke-linecap="round" stroke-linejoin="round"/>
<path d="M0.919922 13.5701H13.1999V1.34009" stroke="white" stroke-width="2" stroke-miterlimit="10"/>
<path d="M27.8098 26.3701C26.9798 26.3701 26.2998 25.6901 26.2998 24.8601V21.8701C26.2998 21.0401 26.9798 20.3601 27.8098 20.3601H30.7998" stroke="#F7941D" stroke-width="2" stroke-miterlimit="10" stroke-linecap="round" stroke-linejoin="round"/>
<path d="M29.7197 24.0402L31.7097 25.3602L35.0797 22.7102" stroke="#F7941D" stroke-width="2" stroke-miterlimit="10" stroke-linecap="round" stroke-linejoin="round"/>
<path d="M27.8098 36.2402C26.9798 36.2402 26.2998 35.5602 26.2998 34.7302V31.7402C26.2998 30.9102 26.9798 30.2302 27.8098 30.2302H30.7998" stroke="#F7941D" stroke-width="2" stroke-miterlimit="10" stroke-linecap="round" stroke-linejoin="round"/>
<path d="M29.7197 33.9101L31.7097 35.2301L35.0797 32.5801" stroke="#F7941D" stroke-width="2" stroke-miterlimit="10" stroke-linecap="round" stroke-linejoin="round"/>
<path d="M22.92 21.9702H10.75" stroke="white" stroke-width="1.8" stroke-miterlimit="10" stroke-linecap="round"/>
<path d="M22.9197 24.6201H18.2197" stroke="white" stroke-width="1.8" stroke-miterlimit="10" stroke-linecap="round"/>
<path d="M22.92 31.9102H10.75" stroke="white" stroke-width="1.8" stroke-miterlimit="10" stroke-linecap="round"/>
<path d="M22.9197 34.5601H18.2197" stroke="white" stroke-width="1.8" stroke-miterlimit="10" stroke-linecap="round"/>
</g>
<defs>
<clipPath id="clip0_4271_13425">
<rect width="62.97" height="63.66" fill="white"/>
</clipPath>
</defs>
</svg>
