<svg width="34" height="22" viewBox="0 0 34 22" fill="none" xmlns="http://www.w3.org/2000/svg">
<path d="M11.1233 18.0253H20.439L22.6616 3.2322C22.7932 2.34034 22.1401 1.53394 21.2896 1.53394H3.89343" stroke="#686E79" stroke-width="2" stroke-miterlimit="10" stroke-linecap="round" stroke-linejoin="round"/>
<path d="M3.95923 18.0254H5.68568" stroke="#686E79" stroke-width="2" stroke-miterlimit="10" stroke-linecap="round" stroke-linejoin="round"/>
<path d="M8.52587 20.4659C10.0022 20.4659 11.1991 19.2035 11.1991 17.6462C11.1991 16.0889 10.0022 14.8264 8.52587 14.8264C7.0495 14.8264 5.85266 16.0889 5.85266 17.6462C5.85266 19.2035 7.0495 20.4659 8.52587 20.4659Z" stroke="#686E79" stroke-width="2" stroke-miterlimit="10" stroke-linecap="round" stroke-linejoin="round"/>
<path d="M25.9524 20.4659C27.4288 20.4659 28.6256 19.2035 28.6256 17.6462C28.6256 16.0889 27.4288 14.8264 25.9524 14.8264C24.476 14.8264 23.2792 16.0889 23.2792 17.6462C23.2792 19.2035 24.476 20.4659 25.9524 20.4659Z" stroke="#686E79" stroke-width="2" stroke-miterlimit="10" stroke-linecap="round" stroke-linejoin="round"/>
<path d="M28.5852 18.0254H30.9293C31.7951 18.0254 32.4937 17.2885 32.4937 16.3752V11.0935C32.4937 10.8853 32.4482 10.677 32.3621 10.4901L29.4965 4.24707H22.6869" stroke="#686E79" stroke-width="2" stroke-miterlimit="10" stroke-linecap="round" stroke-linejoin="round"/>
<path d="M20.439 18.0254H22.7527" stroke="#686E79" stroke-width="2" stroke-miterlimit="10" stroke-linecap="round" stroke-linejoin="round"/>
</svg>
