<svg width="55" height="65" viewBox="0 0 55 65" fill="none" xmlns="http://www.w3.org/2000/svg">
<g clip-path="url(#clip0_4271_13364)">
<path d="M45.68 48.78V41.2V12.66V8.24C45.68 4.24 42.44 1 38.44 1H13.41L1 12.6V56.49C1 60.49 4.24 63.73 8.24 63.73H33.82" stroke="white" stroke-width="2" stroke-miterlimit="10" stroke-linecap="round" stroke-linejoin="round"/>
<path d="M0.919922 13.7901H13.4099V1.34009" stroke="white" stroke-width="2" stroke-miterlimit="10"/>
<path d="M28.2695 33.7101C27.4195 33.7101 26.7295 33.0201 26.7295 32.1701V29.1201C26.7295 28.2701 27.4195 27.5801 28.2695 27.5801H31.3195" stroke="#F7941D" stroke-width="2" stroke-miterlimit="10" stroke-linecap="round" stroke-linejoin="round"/>
<path d="M30.2197 31.35L32.2497 32.68L35.6697 29.99" stroke="#F7941D" stroke-width="2" stroke-miterlimit="10" stroke-linecap="round" stroke-linejoin="round"/>
<path d="M28.2695 43.7601C27.4195 43.7601 26.7295 43.0701 26.7295 42.2201V39.1701C26.7295 38.3201 27.4195 37.6301 28.2695 37.6301H31.3195" stroke="#F7941D" stroke-width="2" stroke-miterlimit="10" stroke-linecap="round" stroke-linejoin="round"/>
<path d="M30.2197 41.39L32.2497 42.73L35.6697 40.03" stroke="#F7941D" stroke-width="2" stroke-miterlimit="10" stroke-linecap="round" stroke-linejoin="round"/>
<path d="M23.2999 29.24H10.9199" stroke="white" stroke-width="1.8" stroke-miterlimit="10" stroke-linecap="round"/>
<path d="M23.2995 31.9302H18.5195" stroke="white" stroke-width="1.8" stroke-miterlimit="10" stroke-linecap="round"/>
<path d="M23.2999 39.3501H10.9199" stroke="white" stroke-width="1.8" stroke-miterlimit="10" stroke-linecap="round"/>
<path d="M23.2995 42.05H18.5195" stroke="white" stroke-width="1.8" stroke-miterlimit="10" stroke-linecap="round"/>
<path d="M33.8203 56.6001L41.0603 62.0501L53.2803 51.0801" stroke="white" stroke-width="3" stroke-miterlimit="10" stroke-linecap="round" stroke-linejoin="round"/>
</g>
<defs>
<clipPath id="clip0_4271_13364">
<rect width="54.78" height="64.73" fill="white"/>
</clipPath>
</defs>
</svg>
