<svg width="64" height="38" viewBox="0 0 64 38" fill="none" xmlns="http://www.w3.org/2000/svg">
<g clip-path="url(#clip0_4543_13311)">
<path d="M16.4812 35.0911C16.35 34.5927 16.1181 34.3283 15.6036 34.369C15.0489 34.4096 14.8875 33.9825 14.8774 33.5654C14.8471 31.8465 14.8572 30.1275 14.8673 28.4086C14.8673 27.8898 15.1598 27.5949 15.6742 27.5949C18.5489 27.5847 21.4136 27.5847 24.2883 27.5949C24.843 27.5949 25.0851 28.0424 25.0952 28.5205C25.1255 30.1987 25.1255 31.877 25.0952 33.5553C25.0851 34.0537 24.8632 34.4402 24.258 34.3893C24.0058 34.369 23.7537 34.4198 23.5116 34.3791C22.9467 34.2978 22.7047 34.6029 22.5231 35.1522C23.4309 35.0301 24.3589 35.437 25.1154 34.786C25.4079 34.5419 25.6903 34.0943 25.7004 33.7383C25.7609 31.8973 25.7407 30.0462 25.7105 28.2052C25.7105 27.9509 25.5592 27.6254 25.3776 27.4525C25.0649 27.1473 24.9641 26.832 24.9641 26.4048C24.9842 24.0146 24.9641 21.6243 24.9742 19.2341C24.9842 17.922 25.0145 16.62 24.137 15.2978C25.6601 15.6232 27.1025 15.5927 28.2624 16.498C29.0895 17.1489 29.2307 18.1559 29.3316 19.112C29.5535 21.2378 29.6947 23.3636 29.846 25.4894C29.9267 26.6489 29.9368 27.8186 29.9772 28.9883C30.0276 30.5547 30.078 32.1211 30.0982 33.6875C30.1184 35.1115 30.0982 36.5354 30.0982 37.9899C23.9756 37.9899 18.0144 37.9899 11.8716 37.9899C11.8716 36.5863 11.8816 35.203 11.8716 33.8095C11.8413 30.6259 11.801 27.4525 11.7404 24.2689C11.7203 23.211 11.6194 22.1532 11.5589 21.0344C11.3269 21.0344 11.0848 21.0446 10.8427 21.0344C9.31963 20.953 7.79654 20.9225 6.27345 20.7699C4.92184 20.6275 4.22585 19.6409 3.89299 18.4407C2.98519 15.1655 2.07739 11.8904 1.28054 8.59487C0.756036 6.39787 0.382829 4.16018 0.0297947 1.93267C-0.111419 1.01725 0.251702 0.417142 1.06872 0.132345C1.80505 -0.121937 2.71285 -0.0914233 3.11632 0.905365C3.63074 2.17678 4.04429 3.48888 4.4982 4.78063C5.54721 7.81168 6.60631 10.8529 7.63515 13.8941C7.96801 14.8706 8.68417 15.2774 9.60206 15.369C10.9133 15.491 12.2347 15.6131 13.5459 15.6131C14.3327 15.6131 15.1094 15.3893 15.9869 15.2469C15.1497 16.7014 15.3918 18.2474 15.3716 19.763C15.3515 21.9905 15.3616 24.2078 15.3716 26.4353C15.3716 26.7507 15.3212 26.9439 14.9984 27.1066C14.4739 27.3813 14.2117 27.8288 14.2318 28.4798C14.2722 30.036 14.3125 31.5922 14.2218 33.1382C14.131 34.8063 15.0791 35.2946 16.4812 35.0911ZM19.5576 35.6404C21.111 35.8641 22.6341 34.0638 22.624 32.5992C22.624 30.9412 21.1412 29.4359 19.5475 29.4664C17.6916 29.5071 16.4005 30.87 16.4106 32.6297C16.4307 34.2469 17.621 35.6811 19.5576 35.6404ZM22.2608 29.4257C22.9367 29.4257 23.5721 29.4257 24.1975 29.4257C24.2883 28.2153 24.2782 28.2153 23.5116 28.2052C22.1801 28.2052 22.1802 28.2052 22.2608 29.4257Z" fill="white"/>
<path d="M59.1785 30.5955C59.1785 31.2058 59.1785 31.694 59.1785 32.2229C57.9176 32.4874 56.6669 32.7416 55.4161 32.9959C53.1668 33.4536 50.9175 33.9317 48.648 34.3182C48.1638 34.3996 47.599 34.2368 47.1148 34.0741C44.9058 33.3112 42.717 32.4975 40.508 31.7245C40.2659 31.6432 39.9432 31.6635 39.7011 31.755C38.2184 32.3145 36.7457 32.8942 35.2226 33.4943C35.2226 32.5179 35.2226 31.6228 35.2226 30.6057C34.8998 30.8396 34.6578 31.043 34.3955 31.216C33.2154 31.9686 31.8234 31.6737 31.1375 30.4022C30.27 28.7952 30.1894 27.9001 31.43 26.4151C32.7413 24.8385 33.992 23.201 35.2226 21.5634C35.3941 21.3396 35.3537 20.9226 35.3336 20.6073C35.3033 20.1089 35.4042 19.8749 35.9892 19.7427C37.8451 19.3054 39.6708 18.7459 41.5167 18.2577C41.7991 18.1865 42.1723 18.2069 42.4346 18.3289C43.8165 18.99 45.1983 19.6715 46.5399 20.414C47.1955 20.77 47.831 20.7904 48.537 20.6276C51.9161 19.8241 55.3052 19.0511 58.6842 18.2577C58.8154 18.2272 58.9465 18.1763 59.1785 18.095C59.1785 19.0104 59.2289 19.8648 59.1583 20.6988C59.1079 21.3803 59.3903 21.8584 59.7938 22.3567C61.0546 23.9231 62.3255 25.4895 63.5057 27.1169C64.595 28.6121 63.7074 31.1142 61.9422 31.633C61.1656 31.8669 60.4797 31.4702 59.8341 31.0736C59.6526 30.9617 59.471 30.8091 59.1785 30.5955ZM58.0488 19.5393C57.847 19.5393 57.6957 19.5088 57.5646 19.5393C54.4781 20.2716 51.3916 21.004 48.3151 21.7465C47.7301 21.8889 47.2056 21.899 46.6306 21.5736C45.5312 20.9429 44.341 20.4649 43.2415 19.8444C42.4043 19.3664 41.6478 19.1528 40.6694 19.5088C39.3077 19.997 37.8754 20.3123 36.4128 20.7192C36.4128 22.2143 36.4128 23.6587 36.4128 25.1539C36.6953 25.0216 36.9575 24.8691 37.2399 24.747C38.6016 24.1672 39.7616 23.1501 41.2847 22.8857C41.8395 22.7839 42.2934 22.9162 42.596 23.3027C42.9187 23.7095 43.181 24.269 42.828 24.7877C42.5153 25.2556 42.1522 25.7438 41.6983 26.0693C40.0541 27.2695 38.3596 28.4188 36.6852 29.5885C36.5641 29.6801 36.3725 29.8021 36.3624 29.914C36.3321 30.5853 36.3523 31.2566 36.3523 31.9686C37.2904 31.5923 38.2284 31.2261 39.1564 30.8498C39.6809 30.6362 40.1752 30.3921 40.7804 30.6362C42.3135 31.2363 43.8568 31.8059 45.4102 32.3551C46.9433 32.9044 48.416 33.5045 50.1711 33.0366C52.491 32.4162 54.8715 32.0703 57.2317 31.6025C57.4839 31.5516 57.7764 31.5211 57.9782 31.3685C58.2707 31.1448 58.0589 29.8021 57.726 29.5784C56.2332 28.5409 54.7303 27.5136 53.2475 26.466C52.7633 26.1201 52.2994 25.7336 51.8858 25.3064C51.3512 24.7673 51.2806 24.096 51.7143 23.4451C52.0472 22.9365 52.5616 22.6721 53.187 22.9365C54.1755 23.3535 55.1741 23.7502 56.1424 24.2283C56.798 24.5537 57.4032 24.9911 58.0488 25.398C58.0488 23.4146 58.0488 21.5125 58.0488 19.5393ZM35.4143 25.4692C35.3638 25.4285 35.3235 25.398 35.273 25.3573C34.6981 25.7641 34.103 26.171 33.5482 26.5982C33.4473 26.6796 33.4474 26.9033 33.3969 27.0661C33.5583 27.0661 33.76 27.1373 33.871 27.0559C34.2946 26.7711 34.7082 26.466 35.0814 26.1201C35.2529 25.9676 35.3033 25.6929 35.4143 25.4692ZM60.8932 26.8728C60.288 26.3744 59.7938 25.9574 59.2995 25.5505C59.2087 25.876 59.1785 26.2117 59.3399 26.3744C59.6626 26.6999 60.0762 26.9338 60.4292 27.1881C60.5906 27.0864 60.7217 26.9949 60.8932 26.8728Z" fill="white"/>
<path d="M20.3446 13.1007C17.2984 13.2329 14.1614 10.5375 14.3531 6.69276C14.4943 3.76342 17.0765 1.02734 20.3042 1.02734C23.6732 1.02734 26.4168 3.75325 26.3562 7.23184C26.3058 10.3748 23.6429 13.2329 20.3446 13.1007Z" fill="white"/>
<path d="M23.7331 26.9338C21.8772 26.9338 20.1019 26.9338 18.2964 26.9338C18.2056 26.4659 17.9434 26.0692 17.439 26.2319C17.1163 26.3337 16.8742 26.6998 16.5413 27.005C16.5211 26.7812 16.501 26.6286 16.501 26.4659C16.501 23.5772 16.501 20.6784 16.501 17.7898C16.501 16.9862 16.8137 16.2742 17.2171 15.6029C17.5601 15.0333 18.1451 14.952 18.6999 14.8909C19.8598 14.7791 21.0198 14.6977 22.1798 15.0028C22.7547 15.1554 23.7331 16.498 23.7331 17.2507C23.7331 20.4445 23.7331 23.6484 23.7331 26.9338Z" fill="white"/>
<path d="M39.459 4.85181C39.6809 4.08896 40.4475 3.5804 41.436 3.54989C42.1723 3.52954 42.6766 3.26509 43.1104 2.60395C44.2401 0.905346 45.8439 0.0204428 47.9217 0.000100141C49.233 -0.0100712 50.4636 0.203526 51.6235 0.85449C53.308 1.80042 54.0847 3.34646 54.5789 5.11627C54.6394 5.32986 54.8109 5.55363 54.9824 5.67569C55.7187 6.19442 56.5257 6.60128 56.7375 7.62858C56.8182 8.02526 56.798 8.05577 56.4046 7.98457C53.3887 7.41498 50.3627 6.86573 47.3367 6.31648C44.9361 5.87911 42.5253 5.47226 40.1247 5.0349C39.9129 5.00438 39.7011 4.92301 39.459 4.85181Z" fill="#F7941D"/>
<path d="M53.7914 8.70685C52.9037 12.3787 49.9282 14.0163 46.9425 13.5789C43.5937 13.0805 41.294 9.73415 42.0303 6.52002C45.9439 7.24218 49.8676 7.97452 53.7914 8.70685Z" fill="white"/>
<path d="M56.0414 34.247C56.0414 35.5184 56.0414 36.739 56.0414 38.0002C50.6854 38.0002 45.3596 38.0002 40.0439 38.0002C40.0439 36.3321 40.0439 34.6945 40.0439 32.9451C40.5079 33.0875 40.861 33.1892 41.214 33.3112C43.0699 33.9724 44.9562 34.5623 46.7718 35.315C47.9418 35.8032 49.0413 35.7218 50.2214 35.4472C52.1379 35.0098 54.0745 34.6538 56.0414 34.247Z" fill="white"/>
<path d="M55.1435 17.4846C52.6219 18.1153 50.1405 18.7561 47.6491 19.3358C47.3566 19.407 46.9632 19.1629 46.6505 18.99C45.2283 18.2271 43.8364 17.4033 42.394 16.6811C42.051 16.5082 41.5669 16.6608 41.123 16.6608C41.7585 15.8776 42.6562 15.5318 43.6245 15.5114C46.469 15.4606 49.3235 15.4809 52.168 15.5012C53.2472 15.5114 54.6896 16.4879 55.1435 17.4846Z" fill="white"/>
<path d="M19.5579 35.6403C17.6213 35.6809 16.431 34.2468 16.421 32.6296C16.4109 30.8699 17.702 29.4968 19.5579 29.4663C21.1516 29.4358 22.6344 30.9411 22.6344 32.599C22.6344 34.0637 21.1113 35.864 19.5579 35.6403ZM19.5277 34.5112C20.5868 34.5112 21.4845 33.606 21.4744 32.5482C21.4643 31.5311 20.5767 30.6258 19.5579 30.6055C18.6501 30.5851 17.5507 31.4497 17.591 32.5177C17.6414 33.7077 18.3677 34.5011 19.5277 34.5112Z" fill="#F7941D"/>
<path d="M22.2612 29.4256C22.1805 28.2051 22.1805 28.2051 23.5119 28.2051C24.2785 28.2051 24.2886 28.2153 24.1978 29.4256C23.5724 29.4256 22.937 29.4256 22.2612 29.4256Z" fill="#F7941D"/>
<path d="M58.0487 19.5392C58.0487 21.5124 58.0487 23.4145 58.0487 25.3775C57.4032 24.9809 56.798 24.5333 56.1424 24.2078C55.1841 23.7298 54.1855 23.3331 53.187 22.9161C52.5616 22.6516 52.0472 22.9161 51.7143 23.4247C51.2806 24.0858 51.3512 24.7469 51.8858 25.286C52.2993 25.7132 52.7633 26.0997 53.2475 26.4455C54.7302 27.5033 56.2331 28.5205 57.726 29.5579C58.0487 29.7817 58.2707 31.1345 57.9781 31.3481C57.7865 31.5007 57.494 31.5312 57.2317 31.582C54.8714 32.0499 52.491 32.3957 50.171 33.0162C48.4261 33.4841 46.9534 32.884 45.4101 32.3347C43.8568 31.7753 42.3135 31.2159 40.7803 30.6158C40.1751 30.3818 39.6809 30.6158 39.1564 30.8294C38.2284 31.2057 37.2904 31.5719 36.3523 31.9482C36.3523 31.226 36.3321 30.5547 36.3624 29.8936C36.3725 29.7817 36.554 29.6597 36.6851 29.5681C38.3595 28.3984 40.0541 27.2592 41.6982 26.0488C42.1521 25.7234 42.5153 25.2351 42.8279 24.7673C43.1709 24.2485 42.9187 23.6891 42.5959 23.2823C42.2933 22.9059 41.8394 22.7737 41.2847 22.8652C39.7616 23.1297 38.6016 24.1468 37.2399 24.7266C36.9575 24.8486 36.6952 24.991 36.4128 25.1334C36.4128 23.6484 36.4128 22.2041 36.4128 20.6987C37.8653 20.2919 39.2976 19.9766 40.6694 19.4884C41.6377 19.1425 42.4043 19.3561 43.2415 19.824C44.3409 20.4546 45.5312 20.9327 46.6306 21.5531C47.2056 21.8786 47.72 21.8684 48.3151 21.726C51.4016 20.9835 54.4781 20.2512 57.5646 19.5189C57.6957 19.5087 57.847 19.5392 58.0487 19.5392Z" fill="#F7941D"/>
<path d="M19.5272 34.5114C18.3673 34.5114 17.641 33.7078 17.6007 32.5178C17.5603 31.4396 18.6598 30.5852 19.5676 30.6056C20.5763 30.6259 21.474 31.5312 21.4841 32.5483C21.4841 33.6061 20.5863 34.5114 19.5272 34.5114Z" fill="white"/>
</g>
<defs>
<clipPath id="clip0_4543_13311">
<rect width="64" height="38" fill="white"/>
</clipPath>
</defs>
</svg>
