<svg width="46" height="61" viewBox="0 0 46 61" fill="none" xmlns="http://www.w3.org/2000/svg">
<path d="M22.68 44.36C34.6535 44.36 44.36 34.6535 44.36 22.68C44.36 10.7065 34.6535 1 22.68 1C10.7065 1 1 10.7065 1 22.68C1 34.6535 10.7065 44.36 22.68 44.36Z" stroke="white" stroke-width="2" stroke-linecap="round" stroke-linejoin="round"/>
<path d="M7.56982 16.29C10.0598 10.41 15.8798 6.28003 22.6798 6.28003C29.4798 6.28003 35.2998 10.41 37.7898 16.29" stroke="white" stroke-width="2" stroke-linecap="round" stroke-linejoin="round"/>
<path d="M36.9202 30.79C34.1002 35.74 28.7702 39.07 22.6702 39.07C16.9602 39.07 11.9202 36.15 8.99023 31.71" stroke="white" stroke-width="2" stroke-linecap="round" stroke-linejoin="round"/>
<path d="M11.9102 46.3401L7.99023 57.8101L14.5302 54.9001L17.3402 59.5501L21.1202 48.1301" stroke="white" stroke-width="2" stroke-linecap="round" stroke-linejoin="round"/>
<path d="M33.4502 46.3401L37.3602 57.8101L30.8202 54.9001L28.0102 59.5501L24.2402 48.1301" stroke="white" stroke-width="2" stroke-linecap="round" stroke-linejoin="round"/>
<path d="M7.38012 19.6799L8.88012 24.4899L10.4001 19.6799H11.9001L13.4101 24.4699L14.9101 19.6799H16.4101L14.1601 26.8799H12.6501L11.1501 22.0699L9.63012 26.8799H8.13012L5.87012 19.6799H7.38012Z" fill="white"/>
<path d="M17.0703 19.6799H23.0103V20.9999H18.5103V22.8599H22.8503V24.2099H18.5103V26.8699H17.0703V19.6799Z" fill="white"/>
<path d="M27.95 19.52C30.2 19.52 31.89 21.03 31.89 23.28C31.89 25.5 30.2 27.02 27.95 27.02C25.7 27.02 24 25.42 24 23.28C24.01 21.12 25.69 19.52 27.95 19.52ZM27.95 25.65C29.44 25.65 30.45 24.67 30.45 23.29C30.45 21.87 29.44 20.91 27.95 20.91C26.48 20.91 25.44 21.88 25.44 23.29C25.45 24.67 26.49 25.65 27.95 25.65Z" fill="white"/>
<path d="M32.8799 19.6799H38.8199V20.9999H34.3199V22.5999H38.6599V23.9299H34.3199V25.5299H38.8199V26.8699H32.8799V19.6799Z" fill="white"/>
</svg>
