<svg width="51" height="68" viewBox="0 0 51 68" fill="none" xmlns="http://www.w3.org/2000/svg">
<g clip-path="url(#clip0_2181_12008)">
<path d="M49.4538 66.1526L43.3413 54.072L45.401 47.4709C46.6335 43.5236 46.7501 39.3154 45.7508 35.3015L44.5683 30.5658L44.8403 19.0181C40.7653 18.3131 38.045 20.9501 38.045 24.7031V36.0176C38.045 36.0176 30.439 40.3536 29.4841 51.496" stroke="white" stroke-width="2" stroke-linecap="round" stroke-linejoin="round"/>
<path d="M9.56433 19.4402V6.22142C9.56433 3.8175 11.513 1.86328 13.9225 1.86328H33.6868C36.0907 1.86328 38.0449 3.81195 38.0449 6.22142V32.9587" stroke="white" stroke-width="2" stroke-linecap="round" stroke-linejoin="round"/>
<path d="M25.1981 51.7903H13.9225C11.5186 51.7903 9.56433 49.8416 9.56433 47.4322V43.7847" stroke="white" stroke-width="2" stroke-linecap="round" stroke-linejoin="round"/>
<path d="M14.9163 56.2314C17.087 61.8998 23.7991 60.7339 23.7991 60.7339L26.092 65.2364" stroke="white" stroke-width="2" stroke-linecap="round" stroke-linejoin="round"/>
<path d="M22.4889 6.14355H25.1149" stroke="white" stroke-width="2" stroke-linecap="round" stroke-linejoin="round"/>
<path d="M6.59425 15.6537L2.81905 11.8785C1.52549 10.585 1.52549 8.48639 2.81905 7.19283C4.11261 5.89927 6.21118 5.89927 7.50474 7.19283L9.56445 9.25253" stroke="white" stroke-width="2" stroke-linecap="round" stroke-linejoin="round"/>
<path d="M11.9017 21.6664L10.6081 20.3728C9.43112 19.1959 7.42693 19.2902 6.13337 20.5838C4.83981 21.8774 4.74543 23.8816 5.9224 25.0585L7.21597 26.3521C8.39849 27.5346 10.4138 27.4347 11.7073 26.1245C12.9898 24.8309 13.0731 22.8378 11.9017 21.6664Z" stroke="white" stroke-width="2" stroke-linecap="round" stroke-linejoin="round"/>
<path d="M11.7795 29.6775L10.3083 28.2063C8.96479 26.8628 6.83291 26.8295 5.53935 28.123C4.24579 29.4166 4.28465 31.554 5.62262 32.892L7.09384 34.3632C8.44292 35.7123 10.5915 35.7401 11.8795 34.4354C13.1564 33.1363 13.112 31.0155 11.7795 29.6775Z" stroke="white" stroke-width="2" stroke-linecap="round" stroke-linejoin="round"/>
<path d="M11.9906 37.8939L10.5194 36.4226C9.17585 35.0791 7.04397 35.0458 5.75041 36.3394C4.45685 37.6329 4.49571 39.7703 5.83368 41.1083L7.3049 42.5795C8.65398 43.9286 10.8025 43.9564 12.0905 42.6517C13.3674 41.3526 13.323 39.2318 11.9906 37.8939Z" stroke="white" stroke-width="2" stroke-linecap="round" stroke-linejoin="round"/>
</g>
<defs>
<clipPath id="clip0_2181_12008">
<rect width="50.4848" height="68" fill="white"/>
</clipPath>
</defs>
</svg>
