<svg width="441" height="524" viewBox="0 0 441 524" fill="none" xmlns="http://www.w3.org/2000/svg">
<path d="M51.4699 64.4956C51.4699 64.4956 -10.289 113.895 1.49471 182.431C13.2784 250.968 41.0774 229.352 98 273.395C154.923 317.437 188.272 348.601 246.5 314.895C304.728 281.188 364.96 288.001 397.931 227.219C430.903 166.447 452.308 153.563 434.652 90.6747C417.008 27.7973 311.338 -11.9358 206.104 4.68534C100.857 21.3065 51.4699 64.4956 51.4699 64.4956Z" fill="url(#paint0_linear_7754_14558)"/>
<g clip-path="url(#clip0_7754_14558)">
<path d="M125.565 362.544C71.4751 390.076 71.4814 434.713 125.565 462.245C179.655 489.778 267.351 489.778 321.435 462.245C375.525 434.713 375.519 390.076 321.435 362.544C267.345 335.011 179.649 335.011 125.565 362.544Z" fill="url(#paint1_linear_7754_14558)"/>
<path d="M303.408 103.924C303.498 101.624 302.948 100.204 301.918 99.6444C301.918 99.6244 301.938 99.6244 301.938 99.6244L301.798 99.5344C300.708 99.0444 293.498 94.7544 292.468 94.2044C292.468 94.1844 292.488 94.1844 292.488 94.1844L292.348 94.0944C291.258 93.6044 289.648 94.0744 287.728 95.5344C268.488 110.264 242.008 113.854 221.848 104.984C219.078 102.934 216.508 100.594 214.208 97.9144C214.088 97.7744 213.978 97.6344 213.858 97.5244H213.838C213.188 96.8044 212.538 96.2644 211.888 95.9244C211.888 95.9244 203.098 90.8244 202.448 90.4744L202.118 90.2844C199.958 89.2644 197.978 90.3044 196.678 93.5144C178.408 138.904 139.478 184.904 113.518 196.414C111.588 197.274 109.798 198.594 108.408 200.224C106.568 202.344 105.438 204.944 105.528 207.664C105.528 266.024 137.498 359.304 198.078 390.454C201.668 392.794 205.368 394.914 209.188 396.794C292.538 310.834 303.398 173.114 303.398 103.944L303.408 103.924Z" fill="#F09123"/>
<path d="M211.569 95.7146C209.409 94.6946 207.429 95.7346 206.129 98.9446C187.859 144.365 148.929 190.335 122.969 201.845C121.039 202.705 119.249 204.035 117.859 205.655C117.089 206.565 116.439 207.535 115.949 208.585L106.539 203.145C107.029 202.095 107.659 201.095 108.419 200.215C109.809 198.585 111.599 197.265 113.529 196.405C139.489 184.895 178.419 138.905 196.689 93.5046C197.989 90.2946 199.969 89.2546 202.129 90.2746L202.459 90.4646C202.759 90.6246 204.619 91.6946 206.639 92.8546C208.639 94.0146 210.779 95.2746 211.569 95.7146Z" fill="#F09123"/>
<path d="M303.408 103.925C303.408 173.095 292.548 310.815 209.198 396.775C147.528 366.495 114.978 272.005 114.978 213.095C114.888 210.375 116.028 207.775 117.858 205.655C119.248 204.025 121.038 202.705 122.968 201.845C148.928 190.335 187.858 144.345 206.128 98.945C207.428 95.735 209.408 94.695 211.568 95.715L211.898 95.905C212.548 96.255 213.198 96.785 213.848 97.505H213.868C213.988 97.625 214.098 97.765 214.218 97.905C233.598 120.475 271.718 120.455 297.168 100.975C299.098 99.515 300.698 99.045 301.798 99.535L301.938 99.625C301.938 99.625 301.918 99.625 301.918 99.645C302.938 100.205 303.498 101.625 303.408 103.925Z" fill="#FF8900"/>
<path opacity="0.4" d="M303.408 103.925C303.408 173.095 292.548 310.815 209.198 396.775C147.528 366.495 114.978 272.005 114.978 213.095C114.888 210.375 116.028 207.775 117.858 205.655C119.248 204.025 121.038 202.705 122.968 201.845C148.928 190.335 187.858 144.345 206.128 98.945C207.428 95.735 209.408 94.695 211.568 95.715L211.898 95.905C212.548 96.255 213.198 96.785 213.848 97.505H213.868C213.988 97.625 214.098 97.765 214.218 97.905C233.598 120.475 271.718 120.455 297.168 100.975C299.098 99.515 300.698 99.045 301.798 99.535L301.938 99.625C301.938 99.625 301.918 99.625 301.918 99.645C302.938 100.205 303.498 101.625 303.408 103.925Z" fill="white"/>
<path opacity="0.25" d="M211.518 95.8146C209.358 94.7946 207.378 95.8346 206.078 99.0446C187.808 144.435 148.878 190.435 122.918 201.945C120.988 202.805 119.198 204.125 117.808 205.755C115.968 207.875 114.828 210.475 114.928 213.195C114.928 272.095 147.478 366.595 209.148 396.875C235.448 239.675 211.528 95.8246 211.528 95.8246L211.518 95.8146Z" fill="#F4A046"/>
<path d="M210.649 225.254L189.199 237.634V266.234L210.649 253.854V282.454L220.859 276.564C221.929 245.194 221.489 216.224 220.349 191.064L210.649 196.664V225.264V225.254Z" fill="#EBEBEB"/>
<path d="M232.097 212.864V184.274L210.657 196.654V225.254L189.207 237.634V266.224L210.657 253.844V282.444L232.097 270.064V241.464L253.547 229.084V200.484L232.097 212.864Z" fill="white"/>
<path d="M346.64 148.495C353.02 152.175 356.97 160.075 356.97 171.325C356.97 193.815 341.18 221.155 321.71 232.395C311.97 238.015 303.16 238.545 296.78 234.865C292.91 232.625 290.44 231.205 286.56 228.965C280.18 225.285 276.23 217.375 276.23 206.135C276.23 183.645 292.02 156.305 311.49 145.065C321.23 139.445 330.04 138.915 336.42 142.595C340.29 144.835 342.76 146.255 346.64 148.495Z" fill="url(#paint2_linear_7754_14558)"/>
<path d="M305.959 236.715C302.649 236.715 299.639 235.945 297.029 234.435C290.529 230.685 286.949 222.725 286.949 212.035C286.949 189.745 302.659 162.535 321.959 151.395C327.419 148.245 332.629 146.645 337.459 146.645C340.769 146.645 343.779 147.415 346.389 148.925C352.889 152.675 356.469 160.635 356.469 171.325C356.469 193.615 340.759 220.825 321.459 231.965C315.999 235.115 310.789 236.715 305.959 236.715Z" fill="url(#paint3_linear_7754_14558)"/>
<path d="M354.809 144.725L349.819 141.845L318.059 200.125L323.029 202.995L354.809 144.725Z" fill="url(#paint4_linear_7754_14558)"/>
<path d="M309.86 185.045L303.1 181.135L296.84 192.585L303.6 196.495L309.86 185.045Z" fill="url(#paint5_linear_7754_14558)"/>
<path d="M324.872 222.355L303.602 196.495L309.862 185.045L323.032 202.995L354.812 144.725L361.912 154.405L324.872 222.355Z" fill="url(#paint6_linear_7754_14558)"/>
<path d="M296.84 192.585L303.6 196.495L324.87 222.355L317.73 218.265L296.84 192.585Z" fill="#263238"/>
<path d="M327.661 359.265L320.411 355.105C320.211 354.995 319.951 354.985 319.671 355.115L314.721 357.345C314.671 356.925 314.701 356.485 314.871 356.145L320.581 344.625C320.881 344.035 320.651 343.275 320.071 342.945L313.871 339.365C313.871 339.365 313.851 339.365 313.841 339.355L306.631 335.215C306.061 334.885 305.291 335.065 304.921 335.615L297.801 346.325C297.601 346.635 297.241 346.875 296.861 347.045L296.311 341.615C296.281 341.305 296.141 341.075 295.951 340.965L288.691 336.795C288.481 336.685 288.201 336.695 287.911 336.865L278.281 342.425C277.711 342.755 277.191 343.565 277.131 344.225L276.171 354.945C276.111 355.605 275.661 356.495 275.171 356.945C273.301 358.675 271.511 360.575 269.821 362.605C269.401 363.115 268.551 363.355 267.931 363.145L261.751 360.985C261.121 360.765 260.351 361.055 260.011 361.625L252.931 373.885C252.601 374.455 252.741 375.275 253.241 375.715L258.201 379.985C258.701 380.415 258.911 381.275 258.681 381.895C257.761 384.375 257.011 386.875 256.451 389.365C256.301 390.015 255.761 390.845 255.221 391.235L246.421 397.425C245.881 397.805 245.441 398.655 245.441 399.315V410.435C245.441 410.775 245.571 411.025 245.781 411.155L253.031 415.315C253.231 415.425 253.491 415.435 253.781 415.305L258.731 413.075C258.781 413.495 258.751 413.935 258.581 414.275L252.871 425.795C252.571 426.385 252.801 427.145 253.381 427.475L262.091 432.475C262.091 432.475 262.091 432.475 262.101 432.475L266.821 435.205C267.401 435.535 268.161 435.355 268.531 434.805L275.651 424.095C275.851 423.785 276.211 423.545 276.591 423.375L277.141 428.805C277.171 429.125 277.311 429.345 277.511 429.465L284.751 433.625C284.961 433.745 285.241 433.735 285.541 433.565L295.171 428.005C295.741 427.675 296.261 426.865 296.321 426.205L297.281 415.485C297.341 414.825 297.791 413.935 298.281 413.485C300.151 411.755 301.941 409.855 303.631 407.825C304.051 407.315 304.901 407.065 305.521 407.285L311.701 409.445C312.331 409.665 313.101 409.375 313.441 408.805L320.521 396.545C320.851 395.975 320.711 395.155 320.211 394.725L315.251 390.455C314.751 390.025 314.541 389.165 314.771 388.545C315.691 386.065 316.441 383.565 317.001 381.085C317.151 380.435 317.691 379.605 318.231 379.215L327.031 373.025C327.571 372.645 328.011 371.795 328.011 371.135V360.015C328.011 359.675 327.881 359.425 327.671 359.305L327.661 359.265ZM274.071 396.675C274.071 386.295 281.351 373.685 290.341 368.495C293.851 366.465 297.101 365.875 299.761 366.535C301.131 368.445 301.871 371.355 301.871 375.165C301.871 385.545 294.591 398.155 285.601 403.345C282.091 405.375 279.101 406.025 276.761 405.475C275.061 403.485 274.071 400.505 274.071 396.685V396.675Z" fill="url(#paint7_linear_7754_14558)"/>
<path opacity="0.3" d="M306.612 377.884C306.612 388.264 299.332 400.874 290.352 406.064C284.672 409.344 279.672 408.874 276.762 405.464C279.092 406.034 282.092 405.374 285.622 403.334C294.612 398.144 301.882 385.534 301.882 375.154C301.882 371.354 301.152 368.444 299.782 366.524C303.922 367.534 306.612 371.574 306.612 377.884Z" fill="url(#paint8_linear_7754_14558)"/>
<path d="M306.63 335.205C306.06 334.875 305.3 335.055 304.93 335.615L297.8 346.325C297.69 346.495 297.52 346.645 297.33 346.775L304.58 350.945C304.77 350.815 304.94 350.655 305.05 350.475L312.17 339.765C312.51 339.265 313.18 339.075 313.73 339.295L306.63 335.215V335.205ZM320.41 355.095C320.22 354.995 319.96 354.995 319.66 355.115L314.71 357.355C314.76 357.675 314.86 357.975 315 358.225C315.73 359.425 316.35 360.775 316.83 362.265C316.86 362.335 316.89 362.395 316.91 362.475C316.97 362.645 317.05 362.795 317.17 362.915C317.21 362.955 317.25 362.995 317.29 363.025C317.37 363.095 317.47 363.135 317.57 363.175C317.73 363.235 317.91 363.245 318.1 363.205C318.18 363.205 318.26 363.165 318.34 363.125L326.91 359.255C326.99 359.215 327.05 359.195 327.13 359.175C327.23 359.145 327.34 359.135 327.42 359.175C327.51 359.175 327.6 359.215 327.67 359.265L320.41 355.085V355.095ZM288.69 336.785C288.48 336.675 288.21 336.695 287.92 336.865L278.29 342.425C277.89 342.655 277.53 343.105 277.33 343.585L284.56 347.745C284.77 347.265 285.14 346.805 285.53 346.585L295.16 341.015C295.43 340.865 295.69 340.835 295.9 340.925L288.7 336.795L288.69 336.785ZM255.9 390.505C255.7 390.785 255.47 391.055 255.23 391.225L246.43 397.415C246.2 397.575 246.01 397.825 245.84 398.085L253.07 402.235C253.23 401.965 253.44 401.725 253.67 401.575L262.47 395.385C262.71 395.215 262.94 394.955 263.15 394.665L255.9 390.505ZM261.25 360.905C260.76 360.925 260.27 361.185 260.01 361.625L252.93 373.885C252.78 374.155 252.73 374.475 252.77 374.785L260.01 378.955C259.96 378.645 260.01 378.325 260.17 378.045L267.26 365.775C267.49 365.365 267.94 365.115 268.4 365.065L261.25 360.905Z" fill="url(#paint9_linear_7754_14558)"/>
<path d="M328.002 371.095V359.975C328.002 359.315 327.512 358.995 326.902 359.265L318.332 363.125C317.722 363.395 317.102 363.095 316.902 362.465C316.402 360.885 315.762 359.475 314.992 358.215C314.642 357.645 314.562 356.735 314.862 356.135L320.572 344.615C320.872 344.025 320.642 343.265 320.062 342.935L313.862 339.355C313.292 339.025 312.522 339.205 312.152 339.755L305.032 350.465C304.662 351.015 303.832 351.405 303.172 351.395C301.702 351.355 300.152 351.505 298.532 351.865C297.882 352.005 297.312 351.615 297.242 350.955L296.302 341.595C296.232 340.935 295.712 340.665 295.142 341.005L285.512 346.565C284.942 346.895 284.422 347.705 284.362 348.365L283.402 359.085C283.342 359.745 282.892 360.635 282.402 361.085C280.532 362.815 278.742 364.715 277.052 366.745C276.632 367.255 275.782 367.505 275.162 367.285L268.982 365.125C268.352 364.905 267.582 365.195 267.242 365.765L260.162 378.025C259.832 378.595 259.972 379.415 260.472 379.855L265.432 384.125C265.932 384.555 266.142 385.415 265.912 386.035C264.992 388.515 264.242 391.015 263.682 393.495C263.532 394.145 262.992 394.975 262.452 395.365L253.652 401.555C253.112 401.935 252.672 402.785 252.672 403.445V414.565C252.672 415.225 253.162 415.545 253.772 415.275L262.342 411.415C262.952 411.145 263.572 411.445 263.772 412.075C264.272 413.655 264.912 415.065 265.682 416.325C266.032 416.895 266.102 417.805 265.812 418.405L260.102 429.925C259.812 430.515 260.032 431.275 260.612 431.605L266.812 435.185C267.382 435.515 268.152 435.335 268.522 434.785L275.642 424.075C276.012 423.525 276.842 423.135 277.502 423.145C278.972 423.185 280.522 423.035 282.142 422.675C282.792 422.535 283.362 422.925 283.432 423.585L284.372 432.945C284.442 433.605 284.962 433.875 285.532 433.545L295.162 427.985C295.732 427.655 296.252 426.845 296.312 426.185L297.272 415.465C297.332 414.805 297.782 413.915 298.272 413.465C300.142 411.735 301.932 409.835 303.622 407.805C304.042 407.295 304.892 407.045 305.512 407.265L311.692 409.425C312.322 409.645 313.092 409.355 313.432 408.785L320.512 396.525C320.842 395.955 320.702 395.135 320.202 394.695L315.242 390.425C314.742 389.995 314.532 389.135 314.762 388.515C315.682 386.035 316.432 383.535 316.992 381.055C317.142 380.405 317.682 379.575 318.222 379.185L327.022 372.995C327.562 372.615 328.002 371.765 328.002 371.105V371.095ZM290.342 406.065C281.352 411.255 274.072 407.045 274.072 396.675C274.072 386.295 281.352 373.685 290.342 368.495C299.332 363.305 306.612 367.515 306.612 377.885C306.612 388.255 299.332 400.875 290.342 406.065Z" fill="url(#paint10_linear_7754_14558)"/>
<path d="M333.77 302.105C333.85 301.365 334.33 300.355 334.88 299.845L339.43 295.655C339.98 295.155 340.32 294.145 340.19 293.415L339.33 288.445C339.27 288.105 339.11 287.875 338.89 287.755L333.5 284.635C333.24 284.485 332.9 284.505 332.56 284.735L330.6 286.025L332.49 280.915C332.7 280.335 332.46 279.775 331.97 279.505H331.99L326.59 276.375C326.48 276.315 326.37 276.265 326.23 276.235L322.8 275.465C322.07 275.305 321.2 275.705 320.86 276.365L317.64 282.505C317.4 282.965 316.89 283.405 316.36 283.695L316.21 283.205C316.12 282.925 315.97 282.725 315.78 282.605L310.37 279.485C310.08 279.325 309.71 279.355 309.36 279.635L304.22 283.675C303.63 284.135 303.2 285.115 303.24 285.855L303.55 290.745C303.6 291.485 303.23 292.535 302.75 293.115C301.91 294.125 301.11 295.175 300.36 296.275C299.94 296.895 299.01 297.375 298.27 297.335L294.97 297.175C294.23 297.135 293.38 297.665 293.07 298.345L289.96 305.305C289.68 305.925 289.92 306.635 290.49 306.975L294.15 309.095C294.27 309.395 294.31 309.725 294.24 310.045C293.99 311.165 293.79 312.275 293.67 313.365C293.59 314.105 293.11 315.115 292.56 315.625L288.01 319.815C287.46 320.315 287.12 321.325 287.25 322.055L288.11 327.025C288.17 327.345 288.32 327.575 288.52 327.695L293.95 330.835C294.21 330.975 294.54 330.955 294.88 330.735L296.84 329.445L294.95 334.555C294.74 335.115 294.95 335.665 295.4 335.945L300.82 339.075V339.055C300.94 339.125 301.06 339.195 301.21 339.225L304.64 339.995C305.37 340.155 306.24 339.755 306.58 339.095L309.8 332.955C310.04 332.495 310.55 332.055 311.08 331.765L311.23 332.255C311.32 332.545 311.48 332.745 311.67 332.855L317.04 335.955L317.1 335.995C317.39 336.135 317.74 336.105 318.08 335.835L323.22 331.795C323.81 331.335 324.24 330.355 324.2 329.615L323.89 324.725C323.84 323.985 324.21 322.935 324.69 322.355C325.53 321.345 326.33 320.295 327.08 319.195C327.5 318.575 328.43 318.095 329.17 318.135L332.47 318.295C333.21 318.335 334.06 317.805 334.37 317.125L337.48 310.165C337.78 309.485 337.48 308.695 336.79 308.405L334.12 307.265C333.43 306.975 333.04 306.155 333.2 305.425C333.45 304.305 333.65 303.195 333.77 302.105ZM306.35 317.215C305.34 311.365 309.04 303.075 314.61 298.695C316.66 297.085 318.68 296.225 320.47 296.085C320.75 296.695 320.97 297.405 321.11 298.235C322.12 304.085 318.42 312.375 312.85 316.755C310.8 318.365 308.79 319.215 307.01 319.365C306.72 318.735 306.49 318.025 306.35 317.215Z" fill="url(#paint11_linear_7754_14558)"/>
<path opacity="0.1" d="M301.251 328.125C300.831 327.505 300.051 327.295 299.431 327.715L296.831 329.425L294.941 334.535C294.741 335.085 294.941 335.635 295.401 335.925L300.761 339.015C300.341 338.725 300.171 338.195 300.361 337.655L302.681 331.375C302.931 330.685 302.661 329.755 302.151 329.215C301.831 328.885 301.531 328.525 301.261 328.135L301.251 328.125ZM317.061 335.955C316.871 335.845 316.711 335.645 316.621 335.365L315.461 331.515C315.251 330.805 314.531 330.495 313.841 330.775C313.131 331.075 312.421 331.305 311.731 331.475C311.521 331.525 311.281 331.625 311.061 331.755L311.211 332.255C311.311 332.545 311.461 332.745 311.661 332.845L317.061 335.965V335.955Z" fill="black"/>
<path opacity="0.1" d="M318.25 319.875C313.44 323.655 308.82 323.295 307 319.355C308.78 319.215 310.79 318.355 312.84 316.755C318.41 312.375 322.11 304.085 321.1 298.235C320.95 297.405 320.74 296.695 320.45 296.095C323.51 295.825 325.87 297.665 326.51 301.355C327.52 307.215 323.82 315.495 318.25 319.875Z" fill="black"/>
<path d="M299.23 297.115C298.91 297.245 298.58 297.335 298.29 297.315L294.98 297.155C294.51 297.135 294 297.325 293.61 297.655L299.02 300.775C299.41 300.455 299.92 300.255 300.39 300.275L303.7 300.435C304 300.455 304.33 300.385 304.64 300.255L299.23 297.115ZM310.38 279.485C310.09 279.315 309.72 279.345 309.37 279.625L304.22 283.665C303.84 283.965 303.54 284.485 303.37 285.015L308.78 288.135C308.94 287.605 309.25 287.085 309.63 286.785L314.76 282.755C315.12 282.475 315.49 282.435 315.78 282.615L310.37 279.485H310.38ZM292.52 315.655L288.02 319.795C287.68 320.105 287.45 320.595 287.32 321.085L292.72 324.195C292.84 323.695 293.1 323.215 293.43 322.915L297.93 318.785L292.52 315.655ZM326.61 276.375C326.5 276.315 326.39 276.255 326.25 276.235L322.82 275.465C322.1 275.305 321.23 275.705 320.88 276.365L317.65 282.505C317.49 282.805 317.23 283.085 316.92 283.335L322.33 286.455C322.64 286.215 322.9 285.925 323.06 285.625L326.29 279.485C326.63 278.825 327.5 278.425 328.23 278.585L331.66 279.355C331.79 279.385 331.9 279.425 332.01 279.485L326.61 276.375ZM333.52 284.645C333.27 284.505 332.93 284.515 332.58 284.745L330.63 286.035L330.19 287.195C329.94 287.895 330.21 288.825 330.73 289.365C331.05 289.695 331.33 290.055 331.61 290.445C331.68 290.545 331.76 290.625 331.84 290.715C331.9 290.765 331.98 290.825 332.04 290.865C332.19 290.965 332.34 291.015 332.5 291.045C332.7 291.085 332.9 291.075 333.1 291.015C333.21 290.995 333.32 290.945 333.43 290.865L337.98 287.875C338.1 287.805 338.21 287.745 338.32 287.715C338.46 287.675 338.59 287.665 338.7 287.695C338.77 287.705 338.85 287.725 338.91 287.755L333.51 284.645H333.52Z" fill="url(#paint12_linear_7754_14558)"/>
<path d="M340.201 293.415L339.341 288.445C339.211 287.715 338.611 287.445 337.981 287.855L333.431 290.845C332.811 291.255 332.031 291.045 331.601 290.435C331.331 290.045 331.03 289.685 330.71 289.345C330.201 288.805 329.921 287.875 330.181 287.175L332.501 280.895C332.761 280.195 332.381 279.495 331.651 279.335L328.221 278.565C327.491 278.405 326.621 278.805 326.281 279.465L323.061 285.605C322.711 286.265 321.83 286.885 321.11 287.075C320.42 287.255 319.711 287.485 319.001 287.775C318.311 288.055 317.591 287.745 317.381 287.035L316.221 283.185C316.011 282.475 315.36 282.265 314.77 282.725L309.631 286.765C309.041 287.225 308.611 288.205 308.651 288.945L308.96 293.835C309.01 294.575 308.641 295.625 308.161 296.205C307.321 297.215 306.52 298.265 305.77 299.365C305.35 299.975 304.42 300.465 303.681 300.425L300.381 300.265C299.641 300.225 298.791 300.755 298.481 301.435L295.371 308.395C295.071 309.075 295.371 309.865 296.061 310.155L298.731 311.295C299.421 311.585 299.811 312.405 299.651 313.135C299.401 314.255 299.2 315.365 299.08 316.455C299 317.195 298.521 318.205 297.971 318.715L293.421 322.905C292.871 323.405 292.531 324.415 292.661 325.145L293.52 330.115C293.65 330.845 294.251 331.115 294.881 330.705L299.43 327.715C300.05 327.305 300.831 327.515 301.261 328.125C301.531 328.515 301.831 328.875 302.151 329.215C302.661 329.755 302.941 330.685 302.681 331.385L300.36 337.665C300.1 338.365 300.48 339.065 301.21 339.225L304.641 339.995C305.371 340.155 306.24 339.755 306.58 339.095L309.8 332.955C310.15 332.295 311.031 331.675 311.751 331.495C312.441 331.315 313.14 331.085 313.86 330.795C314.55 330.515 315.271 330.825 315.481 331.535L316.641 335.385C316.861 336.095 317.501 336.305 318.091 335.845L323.231 331.805C323.821 331.345 324.25 330.365 324.21 329.625L323.901 324.735C323.851 323.995 324.221 322.945 324.701 322.365C325.541 321.355 326.341 320.305 327.091 319.205C327.511 318.585 328.44 318.105 329.181 318.145L332.481 318.305C333.221 318.345 334.071 317.825 334.381 317.135L337.49 310.175C337.79 309.495 337.49 308.705 336.8 308.415L334.131 307.275C333.441 306.985 333.05 306.165 333.21 305.435C333.46 304.315 333.661 303.205 333.781 302.115C333.861 301.375 334.341 300.365 334.891 299.855L339.441 295.665C339.991 295.165 340.331 294.155 340.201 293.425V293.415ZM318.251 319.875C312.681 324.255 307.351 323.065 306.341 317.215C305.331 311.365 309.031 303.075 314.601 298.695C320.171 294.315 325.501 295.505 326.511 301.355C327.521 307.205 323.821 315.495 318.251 319.875Z" fill="url(#paint13_linear_7754_14558)"/>
</g>
<defs>
<linearGradient id="paint0_linear_7754_14558" x1="220.5" y1="0.894531" x2="225.5" y2="257.395" gradientUnits="userSpaceOnUse">
<stop stop-color="#E5EDF3" stop-opacity="0.2"/>
<stop offset="1" stop-color="#1F232A" stop-opacity="0"/>
</linearGradient>
<linearGradient id="paint1_linear_7754_14558" x1="223.5" y1="341.895" x2="223.5" y2="482.895" gradientUnits="userSpaceOnUse">
<stop stop-color="#E5EDF3" stop-opacity="0.2"/>
<stop offset="1" stop-color="#1F232A" stop-opacity="0"/>
</linearGradient>
<linearGradient id="paint2_linear_7754_14558" x1="316.6" y1="140.251" x2="296.5" y2="236.895" gradientUnits="userSpaceOnUse">
<stop stop-color="#E5EDF3"/>
<stop offset="1" stop-color="#1F232A"/>
</linearGradient>
<linearGradient id="paint3_linear_7754_14558" x1="318.5" y1="170.895" x2="321.709" y2="236.715" gradientUnits="userSpaceOnUse">
<stop stop-color="#E5EDF3"/>
<stop offset="1" stop-color="#1F232A"/>
</linearGradient>
<linearGradient id="paint4_linear_7754_14558" x1="342" y1="118.895" x2="321.5" y2="216.895" gradientUnits="userSpaceOnUse">
<stop stop-color="#E5EDF3"/>
<stop offset="1" stop-color="#1F232A"/>
</linearGradient>
<linearGradient id="paint5_linear_7754_14558" x1="303.35" y1="181.135" x2="299" y2="222.895" gradientUnits="userSpaceOnUse">
<stop stop-color="#E5EDF3"/>
<stop offset="1" stop-color="#1F232A"/>
</linearGradient>
<linearGradient id="paint6_linear_7754_14558" x1="343" y1="193.895" x2="343.5" y2="246.895" gradientUnits="userSpaceOnUse">
<stop stop-color="#E5EDF3"/>
<stop offset="1" stop-color="#1F232A"/>
</linearGradient>
<linearGradient id="paint7_linear_7754_14558" x1="210.5" y1="348.895" x2="297.5" y2="424.395" gradientUnits="userSpaceOnUse">
<stop stop-color="#E5EDF3"/>
<stop offset="1" stop-color="#1F232A"/>
</linearGradient>
<linearGradient id="paint8_linear_7754_14558" x1="291.687" y1="366.524" x2="291.687" y2="408.289" gradientUnits="userSpaceOnUse">
<stop stop-color="#E5EDF3"/>
<stop offset="1" stop-color="#1F232A"/>
</linearGradient>
<linearGradient id="paint9_linear_7754_14558" x1="262.5" y1="351.395" x2="372" y2="453.395" gradientUnits="userSpaceOnUse">
<stop stop-color="#E5EDF3"/>
<stop offset="1" stop-color="#1F232A"/>
</linearGradient>
<linearGradient id="paint10_linear_7754_14558" x1="268" y1="325.895" x2="300" y2="430.395" gradientUnits="userSpaceOnUse">
<stop stop-color="#E5EDF3"/>
<stop offset="1" stop-color="#1F232A"/>
</linearGradient>
<linearGradient id="paint11_linear_7754_14558" x1="268.5" y1="248.895" x2="315.5" y2="303.895" gradientUnits="userSpaceOnUse">
<stop stop-color="#E5EDF3"/>
<stop offset="1" stop-color="#1F232A"/>
</linearGradient>
<linearGradient id="paint12_linear_7754_14558" x1="313.115" y1="275.43" x2="313.115" y2="324.195" gradientUnits="userSpaceOnUse">
<stop stop-color="#E5EDF3"/>
<stop offset="1" stop-color="#1F232A"/>
</linearGradient>
<linearGradient id="paint13_linear_7754_14558" x1="270.5" y1="253.895" x2="332.5" y2="332.895" gradientUnits="userSpaceOnUse">
<stop stop-color="#E5EDF3"/>
<stop offset="1" stop-color="#1F232A"/>
</linearGradient>
<clipPath id="clip0_7754_14558">
<rect width="290" height="434" fill="white" transform="translate(72 89.8945)"/>
</clipPath>
</defs>
</svg>
