<svg width="27" height="27" viewBox="0 0 27 27" fill="none" xmlns="http://www.w3.org/2000/svg">
<path d="M26.625 22.9792C26.625 25.0208 25.0208 26.625 22.9792 26.625H4.02083C1.97917 26.625 0.375 25.0208 0.375 22.9792V4.02083C0.375 1.97917 1.97917 0.375 4.02083 0.375H22.9792C25.0208 0.375 26.625 1.97917 26.625 4.02083V22.9792Z" fill="#FF9800"/>
<path d="M15.6148 18.1667C16.7085 17.9479 17.7294 17.5104 18.6044 16.9271C19.3335 16.4896 19.5523 15.5417 19.1148 14.8125C18.6773 14.0834 17.7294 13.8646 17.0002 14.3021C14.8856 15.6146 12.1148 15.6146 10.0002 14.3021C9.27103 13.8646 8.32311 14.0834 7.88561 14.8125C7.44811 15.5417 7.66686 16.4896 8.39603 16.9271C9.34394 17.5104 10.3648 17.9479 11.3856 18.1667L8.46894 21.0834C7.88561 21.6667 7.88561 22.6146 8.46894 23.2709C8.76061 23.5625 9.12519 23.7084 9.56269 23.7084C9.92728 23.7084 10.3648 23.5625 10.6564 23.2709L13.5002 20.4271L16.3439 23.2709C16.9273 23.8542 17.8752 23.8542 18.5314 23.2709C19.1148 22.6875 19.1148 21.7396 18.5314 21.0834L15.6148 18.1667ZM13.5002 3.29169C10.6564 3.29169 8.39603 5.5521 8.39603 8.39585C8.39603 11.2396 10.6564 13.5 13.5002 13.5C16.3439 13.5 18.6044 11.2396 18.6044 8.39585C18.6044 5.5521 16.3439 3.29169 13.5002 3.29169ZM13.5002 10.5834C12.2606 10.5834 11.3127 9.63544 11.3127 8.39585C11.3127 7.15627 12.2606 6.20835 13.5002 6.20835C14.7398 6.20835 15.6877 7.15627 15.6877 8.39585C15.6877 9.63544 14.7398 10.5834 13.5002 10.5834Z" fill="white"/>
</svg>
