<svg width="27" height="27" viewBox="0 0 27 27" fill="none" xmlns="http://www.w3.org/2000/svg">
<path d="M26.625 22.9792C26.625 24.9931 24.9931 26.625 22.9792 26.625H4.02083C2.0076 26.625 0.375 24.9931 0.375 22.9792V4.02083C0.375 2.00688 2.0076 0.375 4.02083 0.375H22.9792C24.9931 0.375 26.625 2.00688 26.625 4.02083V22.9792Z" fill="#1976D2"/>
<path d="M22.2041 9.15488C22.2376 9.04477 22.2536 8.94269 22.2493 8.85154C22.2383 8.58758 22.0568 8.39581 21.6295 8.39581H19.7205C19.2385 8.39581 19.0161 8.68748 18.8864 8.97988C18.8864 8.97988 17.6964 11.4291 16.3248 13.0443C15.88 13.5116 15.654 13.5 15.4133 13.5C15.2843 13.5 14.9583 13.3439 14.9583 12.9159V9.13519C14.9583 8.62915 14.8322 8.39581 14.4246 8.39581H11.0347C10.7379 8.39581 10.5833 8.62915 10.5833 8.86321C10.5833 9.34956 11.2381 9.46623 11.3125 10.829V13.4708C11.3125 14.1125 11.2009 14.2291 10.9603 14.2291C10.3114 14.2291 9.03385 12.0416 8.17854 9.17456C7.99333 8.61019 7.80812 8.39581 7.32615 8.39581H5.39896C4.8426 8.39581 4.75 8.66852 4.75 8.96019C4.75 9.48592 5.1875 12.3282 7.57552 15.5963C9.30729 17.9661 11.5889 19.3333 13.6086 19.3333C14.8322 19.3333 14.9576 19.022 14.9576 18.5356V16.3685C14.9583 15.7845 15.0918 15.6875 15.4811 15.6875C15.759 15.6875 16.3255 15.8698 17.4193 17.1458C18.6807 18.6173 18.9097 19.3333 19.633 19.3333H21.542C21.9853 19.3333 22.2398 19.1474 22.25 18.7864C22.2522 18.6946 22.2391 18.5918 22.2092 18.4773C22.0677 18.0573 21.4187 17.0306 20.6094 16.0521C20.1609 15.5103 19.7183 14.9736 19.5149 14.682C19.3785 14.4916 19.3268 14.3575 19.3333 14.2291C19.3399 14.0943 19.4099 13.9659 19.5149 13.7865C19.4959 13.7865 21.9634 10.3223 22.2041 9.15488Z" fill="white"/>
</svg>
