<?xml version="1.0" encoding="UTF-8" standalone="no"?>
<svg
   class="svg-icon"
   style="overflow:hidden;fill:currentColor"
   viewBox="0 0 1050625 1048576"
   version="1.1"
   id="svg1"
   sodipodi:docname="wechat-27.svg"
   inkscape:export-filename="wechat-neon.svg"
   inkscape:export-xdpi="2.809756"
   inkscape:export-ydpi="2.809756"
   width="1050625"
   height="1048576"
   xmlns:inkscape="http://www.inkscape.org/namespaces/inkscape"
   xmlns:sodipodi="http://sodipodi.sourceforge.net/DTD/sodipodi-0.dtd"
   xmlns="http://www.w3.org/2000/svg"
   xmlns:svg="http://www.w3.org/2000/svg">
  <defs
     id="defs1" />
  <sodipodi:namedview
     id="namedview1"
     pagecolor="#ffffff"
     bordercolor="#000000"
     borderopacity="0.25"
     inkscape:showpageshadow="2"
     inkscape:pageopacity="0.0"
     inkscape:pagecheckerboard="0"
     inkscape:deskcolor="#d1d1d1"
     inkscape:zoom="0.79394531"
     inkscape:cx="394.2337"
     inkscape:cy="511.37023"
     inkscape:window-width="1920"
     inkscape:window-height="1009"
     inkscape:window-x="-8"
     inkscape:window-y="-8"
     inkscape:window-maximized="1"
     inkscape:current-layer="svg1" />
  <g
     id="path1">
    <path
       style="color:#000000;fill:#2dc100;-inkscape-stroke:none"
       d="m 498.816,345.056 c 26.336,0 43.936,-17.632 43.936,-43.904 0,-26.56 -17.568,-43.744 -43.936,-43.744 -26.368,0 -52.832,17.184 -52.832,43.744 0.032,26.272 26.496,43.904 52.832,43.904 z M 253.088,257.408 c -26.336,0 -52.96,17.184 -52.96,43.744 0,26.272 26.624,43.904 52.96,43.904 26.24,0 43.808,-17.632 43.808,-43.904 -0.032,-26.56 -17.568,-43.744 -43.808,-43.744 z M 1024,626.112 c 0,-138.88 -128.832,-257.216 -286.976,-269.536 0.224,-1.728 0.32,-3.52 -0.064,-5.312 C 705.248,203.424 546.272,91.968 367.136,91.968 164.704,91.968 0,233.12 0,406.624 c 0,93.088 47.52,176.96 137.568,243.104 l -31.392,94.368 c -2.016,6.144 -0.192,12.896 4.704,17.152 2.976,2.56 6.72,3.904 10.496,3.904 2.432,0 4.896,-0.576 7.168,-1.696 L 246.4,704.48 l 14.528,2.944 c 36.288,7.456 67.616,13.92 106.208,13.92 11.36,0 22.88,-0.512 34.176,-1.472 4.576,-0.384 8.448,-2.688 11.072,-6.016 C 454.88,820.192 572,896.96 709.824,896.96 c 35.296,0 71.04,-8.512 103.104,-16.544 l 90.848,49.664 c 2.4,1.312 5.056,1.984 7.68,1.984 3.584,0 7.168,-1.216 10.048,-3.552 5.056,-4.096 7.136,-10.848 5.248,-17.024 l -23.2,-77.152 C 981.344,772.864 1024,699.328 1024,626.112 Z m -625.408,61.856 c -10.4,0.896 -20.96,1.344 -31.424,1.344 -35.328,0 -65.216,-6.112 -99.776,-13.248 L 247.296,672 c -3.456,-0.736 -7.104,-0.256 -10.272,1.376 l -88.288,44.192 22.944,-68.928 c 2.24,-6.752 -0.224,-14.112 -6.016,-18.176 C 76.96,568.64 32,493.312 32,406.624 32,250.784 182.336,123.968 367.136,123.968 c 163.36,0 308,99.392 337.856,231.584 -171.296,2.24 -309.888,122.656 -309.888,270.56 0,21.504 3.264,42.336 8.768,62.432 -1.664,-0.416 -3.424,-0.736 -5.28,-0.576 z m 476.864,127.584 c -5.344,4.032 -7.616,10.976 -5.696,17.376 l 15.136,50.336 -62.112,-33.984 c -2.368,-1.312 -5.024,-1.984 -7.68,-1.984 -1.312,0 -2.624,0.16 -3.904,0.512 -33.312,8.416 -67.776,17.088 -101.344,17.088 -155.904,0 -282.72,-107.136 -282.72,-238.816 0,-131.68 126.816,-238.784 282.72,-238.784 C 862.784,387.296 992,496.64 992,626.08 992,691.744 950.624,759.04 875.456,815.552 Z M 612.992,511.968 c -17.568,0 -35.136,17.696 -35.136,35.232 0,17.664 17.568,35.104 35.136,35.104 26.4,0 43.84,-17.44 43.84,-35.104 0,-17.568 -17.44,-35.232 -43.84,-35.232 z m 193.024,0 c -17.312,0 -34.88,17.696 -34.88,35.232 0,17.664 17.568,35.104 34.88,35.104 26.304,0 44.064,-17.44 44.064,-35.104 0,-17.568 -17.728,-35.232 -44.064,-35.232 z"
       id="path6"
       sodipodi:nodetypes="ssscsssscssccsscccscccsccsccscccscsccccccsscsccccccscsssscssssssssss" />
    <path
       style="color:#000000;fill:#2dc100;-inkscape-stroke:none"
       d="M 367.13672,91.46875 C 164.47249,91.46875 -0.5,232.80279 -0.5,406.62305 c 0,93.15531 47.532543,177.10526 137.48242,243.28515 l -31.28125,94.03125 c -2.07768,6.33199 -0.19564,13.29811 4.85156,17.68555 v 0.002 h 0.002 c 3.06758,2.63878 6.92762,4.02539 10.82226,4.02539 2.51095,0 5.04907,-0.59471 7.38867,-1.74804 l 117.70313,-58.90039 14.35937,2.91015 c 36.28773,7.45595 67.66081,13.92969 106.3086,13.92969 11.37501,0 22.90717,-0.5115 34.2168,-1.47266 4.43445,-0.37212 8.19402,-2.53716 10.8789,-5.63672 42.81773,106.18644 159.88709,182.72657 297.5918,182.72657 35.30706,0 71.0114,-8.49447 103.03125,-16.51367 l 90.68164,49.57226 c 2.47318,1.35201 5.2086,2.04492 7.91797,2.04492 3.69709,0 7.3916,-1.2537 10.36328,-3.66406 5.21219,-4.22254 7.3589,-11.18554 5.41211,-17.55664 v -0.002 L 904.12695,834.50977 C 981.82807,773.01636 1024.5,699.43554 1024.5,626.11133 c 0,-139.04287 -128.79931,-257.43701 -286.94141,-269.98438 0.18119,-1.60285 0.25422,-3.27006 -0.10937,-4.96679 v -0.002 C 705.67619,203.03368 546.47993,91.46875 367.13672,91.46875 Z m 0,1 c 178.92842,0 337.68308,111.3452 369.33398,258.90039 0.36612,1.70853 0.27732,3.44022 0.0566,5.14258 l -0.0664,0.52148 0.52343,0.041 C 894.90201,369.37658 1023.5,487.54068 1023.5,626.11133 c 0,73.02172 -42.54832,146.42523 -120.25781,207.83203 l -0.26758,0.21094 23.29883,77.47851 v 0.002 c 1.8282,5.98038 -0.18471,12.51924 -5.08399,16.48828 -2.78831,2.26163 -6.26347,3.4414 -9.73437,3.4414 -2.53863,0 -5.11264,-0.65183 -7.43946,-1.92383 l -91.01953,-49.75781 -0.18945,0.0488 c -32.05977,8.03094 -67.76684,16.5293 -102.98242,16.5293 -137.6382,0 -254.56731,-76.67209 -296.97656,-182.79102 l -0.32032,-0.80273 -0.53515,0.67968 c -2.5454,3.22831 -6.28932,5.45415 -10.72266,5.82618 -11.28235,0.95884 -22.78785,1.4707 -34.13281,1.4707 -38.53613,0 -69.81923,-6.45412 -106.10742,-13.91016 h -0.002 l -14.69726,-2.97851 -118.00977,59.05469 c -2.20375,1.08593 -4.59112,1.64257 -6.94336,1.64257 -3.65646,0 -7.28389,-1.3012 -10.16797,-3.78125 l -0.002,-0.002 c -4.74269,-4.12423 -6.50968,-10.66063 -4.55664,-16.61523 v -0.002 l 31.50781,-94.71093 -0.29492,-0.2168 C 47.91026,583.24998 0.5,499.54079 0.5,406.62305 0.5,233.43565 164.93735,92.46875 367.13672,92.46875 Z m 0,31 C 182.10816,123.46875 31.5,250.46164 31.5,406.62305 c 0,86.86079 45.083713,162.36439 133.87891,224.25195 5.61256,3.9396 7.99717,11.06341 5.82617,17.60742 l -23.32422,70.07227 89.36914,-44.73242 0.004,-0.002 c 3.06456,-1.57871 6.59492,-2.04387 9.9375,-1.33203 l 0.004,0.002 20.09766,4.06446 -0.002,-0.002 c 34.5605,7.13611 64.49132,13.25977 99.87695,13.25977 10.47826,0 21.05217,-0.44844 31.4668,-1.3457 1.77221,-0.15278 3.47318,0.15198 5.11523,0.5625 l 0.83008,0.20703 -0.22656,-0.82422 c -5.49405,-20.05965 -8.75,-40.8474 -8.75,-62.30078 0,-147.59151 138.32944,-267.82162 309.39453,-270.0586 l 0.61718,-0.01 -0.13476,-0.60156 C 675.55991,222.96358 530.69936,123.46875 367.13672,123.46875 Z m 0,1 c 162.91263,0 307.12735,98.99487 337.2168,230.60547 -171.23343,2.53262 -309.75,123.0043 -309.75,271.03711 0,21.28174 3.21166,41.89688 8.5996,61.79297 -1.46584,-0.32789 -3.00649,-0.57565 -4.65429,-0.4336 -10.38535,0.89474 -20.93114,1.3418 -31.38086,1.3418 -35.2703,0 -65.11635,-6.1024 -99.67578,-13.23828 l -20.0918,-4.0625 c -3.56942,-0.76016 -7.33404,-0.26536 -10.60547,1.41992 l -87.20312,43.64844 22.5625,-67.78321 c 2.30869,-6.95906 -0.23337,-14.55346 -6.20313,-18.74218 h -0.002 C 77.336589,568.29437 32.5,493.13808 32.5,406.62305 32.5,251.10476 182.56565,124.46875 367.13672,124.46875 Z M 253.08789,256.9082 c -13.27673,0 -26.6142,4.32463 -36.66016,12.01563 -10.04595,7.69099 -16.79882,18.78146 -16.79882,32.22851 0,13.30489 6.75217,24.43245 16.79687,32.19922 10.0447,7.76677 23.38254,12.20508 36.66211,12.20508 13.23198,0 24.3251,-4.45522 32.09766,-12.24805 7.77256,-7.79282 12.21093,-18.90881 12.21093,-32.15625 -0.0161,-13.38989 -4.45455,-24.47013 -12.22461,-32.1875 -7.77005,-7.71736 -18.85485,-12.05664 -32.08398,-12.05664 z m 245.72852,0 c -13.29261,0 -26.59926,4.32424 -36.60938,12.01563 -10.01012,7.69139 -16.72266,18.78246 -16.72266,32.22851 0.0162,13.30374 6.73539,24.43214 16.74415,32.19922 10.00875,7.76709 23.30832,12.20508 36.58789,12.20508 13.27957,0 24.40452,-4.4553 32.19726,-12.24805 7.79275,-7.79274 12.23828,-18.90861 12.23828,-32.15625 0,-13.39022 -4.43815,-24.47009 -12.22851,-32.1875 -7.79037,-7.7174 -18.91443,-12.05664 -32.20703,-12.05664 z m -245.72852,1 c 13.01084,0 23.81298,4.25101 31.37891,11.76563 7.56592,7.51462 11.91382,18.30844 11.92968,31.47851 0,13.02454 -4.34654,23.86001 -11.91796,31.45118 -7.57143,7.59116 -18.38263,11.95312 -31.39063,11.95312 -13.0564,0 -26.1995,-4.37888 -36.05078,-11.99609 -9.85128,-7.61722 -16.4082,-18.44112 -16.4082,-31.40821 0,-13.11291 6.55622,-23.89455 16.40625,-31.43554 9.85002,-7.54099 22.99349,-11.8086 36.05273,-11.8086 z m 245.72852,0 c 13.07537,0 23.91828,4.253 31.5039,11.76758 7.58562,7.51458 11.93164,18.30682 11.93164,31.47656 0,13.02434 -4.35407,23.85798 -11.94531,31.44922 -7.59124,7.59124 -18.43383,11.95508 -31.49023,11.95508 -13.05641,0 -26.15939,-4.37919 -35.97461,-11.99609 -9.81523,-7.6169 -16.34163,-18.43997 -16.35743,-31.40821 0,-13.11392 6.51818,-23.89495 16.33204,-31.43554 9.81385,-7.54059 22.92463,-11.8086 36,-11.8086 z m 211.03906,128.88867 c -156.13284,0 -283.21875,107.28232 -283.21875,239.28321 0,132.00089 127.08584,239.3164 283.21875,239.3164 33.65408,0 68.15451,-8.68744 101.4668,-17.10351 l 0.006,-0.002 h 0.004 c 1.23313,-0.33911 2.50014,-0.49415 3.77149,-0.49415 2.57166,0 5.14482,0.64966 7.4375,1.91993 l 0.002,0.002 63.18359,34.57031 -15.48828,-51.5039 v -0.002 c -1.85918,-6.20014 0.34201,-12.92563 5.51953,-16.83203 C 951.0069,759.37781 992.5,691.95369 992.5,626.08008 992.5,556.89531 955.69965,493.46943 898.12879,449.32574 847.71168,410.66735 781.36524,386.79687 709.85547,386.79687 Z m 0,1 c 152.68951,0 281.64453,109.17609 281.64453,238.28321 0,65.45389 -41.25778,132.62193 -116.34375,189.07226 h -0.002 c -5.50994,4.1572 -7.85285,11.3206 -5.87305,17.91993 l 14.78516,49.16796 -61.04102,-33.39843 h -0.002 c -2.44292,-1.35315 -5.18019,-2.04492 -7.91992,-2.04493 -1.35265,0 -2.70829,0.16441 -4.03516,0.5293 l 0.01,-0.004 c -33.31164,8.41591 -67.7408,17.07421 -101.22265,17.07421 -155.67478,0 -282.21875,-106.95755 -282.21875,-238.3164 0,-131.35885 126.5439,-238.28321 282.21875,-238.28321 z m -96.86328,123.67188 c -8.95187,0 -17.84361,4.49106 -24.50977,11.18555 -6.66615,6.69449 -11.12695,15.60996 -11.12695,24.54492 0,8.99775 4.45994,17.88447 11.12695,24.53125 6.66702,6.64677 15.56032,11.07422 24.50977,11.07422 26.62017,0 44.33984,-17.61238 44.33984,-35.60547 0,-17.89889 -17.71684,-35.73047 -44.33984,-35.73047 z m 193.02343,0 c -8.82635,0 -17.65352,4.49321 -24.2871,11.1875 -6.63359,6.69429 -11.0918,15.60801 -11.0918,24.54297 0,8.99775 4.45931,17.88271 11.09375,24.5293 6.63444,6.64658 15.46126,11.07617 24.28515,11.07617 26.52498,0 44.56446,-17.60634 44.56446,-35.60547 0,-17.90435 -18.00491,-35.73047 -44.56446,-35.73047 z m -193.02343,1 c 26.17694,0 43.33984,17.49339 43.33984,34.73047 0,17.33488 -17.16007,34.60547 -43.33984,34.60547 -8.61854,0 -17.29377,-4.29399 -23.80274,-10.78321 -6.50897,-6.48921 -10.83398,-15.15603 -10.83398,-23.82226 0,-8.60102 4.32415,-17.30039 10.83398,-23.83789 6.50983,-6.5375 15.18663,-10.89258 23.80274,-10.89258 z m 193.02343,0 c 26.11241,0 43.56446,17.49886 43.56446,34.73047 0,17.32884 -17.48149,34.60547 -43.56446,34.60547 -8.48809,0 -17.10057,-4.29185 -23.57812,-10.78125 -6.47755,-6.48941 -10.80078,-15.15799 -10.80078,-23.82422 0,-8.60102 4.32433,-17.30215 10.80273,-23.83985 6.47841,-6.53769 15.09055,-10.89062 23.57617,-10.89062 z"
       id="path7"
       sodipodi:nodetypes="sscccccscccsccsccsccccscccssccccscccccssccsccccsccccsccccccssssccccsccccsscccscccsscsccscccccccsssssssscsssscsssssssscsssssssssssscssssscccsccccccssscsccccccsccssccssssssssssssssssssssssssssss"
       inkscape:export-filename="wechat-neon.svg"
       inkscape:export-xdpi="9.3658533"
       inkscape:export-ydpi="9.3658533" />
  </g>
</svg>
