<svg width="32" height="32" viewBox="0 0 32 32" fill="none" xmlns="http://www.w3.org/2000/svg">
<g filter="url(#filter0_d_3115_12265)">
<path d="M16.005 5C14.0933 5.00205 12.2151 5.50135 10.555 6.44881C8.89487 7.39627 7.51003 8.75926 6.5366 10.4038C5.56318 12.0483 5.03469 13.9177 5.0031 15.8283C4.97151 17.7388 5.4379 19.6247 6.35643 21.3005L5 27L10.7021 25.6442C12.1728 26.4506 13.8085 26.9103 15.4841 26.9881C17.1598 27.066 18.831 26.7599 20.3702 26.0933C21.9094 25.4267 23.2758 24.4172 24.3649 23.142C25.454 21.8668 26.2371 20.3596 26.6543 18.7356C27.0714 17.1115 27.1116 15.4137 26.7718 13.7717C26.432 12.1298 25.7212 10.5872 24.6937 9.26194C23.6662 7.93662 22.3491 6.86364 20.8432 6.12497C19.3373 5.38631 17.6824 5.00152 16.005 5ZM10.5025 9.9986H13.502C13.6377 9.9986 13.7679 10.0525 13.8639 10.1485C13.9599 10.2444 14.0138 10.3745 14.0138 10.5102C13.9971 11.1925 14.1117 11.8717 14.3517 12.5107C14.455 12.7246 14.4777 12.9686 14.4157 13.1979C14.3536 13.4271 14.211 13.6264 14.0138 13.7591L12.9645 14.7823C13.4298 15.6905 14.0381 16.518 14.7663 17.233C15.4759 17.9727 16.3004 18.5929 17.2078 19.0698L18.2316 18.0209C18.7434 17.5093 18.9789 17.5093 19.4805 17.6833C20.1198 17.9231 20.7993 18.0377 21.4819 18.0209C21.6156 18.0272 21.7422 18.0831 21.8369 18.1777C21.9316 18.2723 21.9875 18.3989 21.9937 18.5326V21.5307C21.9875 21.6644 21.9316 21.7909 21.8369 21.8856C21.7422 21.9802 21.6156 22.0361 21.4819 22.0423C18.4709 21.9112 15.6168 20.6636 13.4764 18.5428C11.3513 16.4056 10.1025 13.5514 9.97527 10.5409C9.97649 10.4001 10.032 10.2652 10.1301 10.1642C10.2283 10.0632 10.3617 10.0039 10.5025 9.9986Z" stroke="#25D366" stroke-linecap="round" stroke-linejoin="round"/>
</g>
<defs>
<filter id="filter0_d_3115_12265" x="0.2" y="0.2" width="31.6" height="31.6" filterUnits="userSpaceOnUse" color-interpolation-filters="sRGB">
<feFlood flood-opacity="0" result="BackgroundImageFix"/>
<feColorMatrix in="SourceAlpha" type="matrix" values="0 0 0 0 0 0 0 0 0 0 0 0 0 0 0 0 0 0 127 0" result="hardAlpha"/>
<feOffset/>
<feGaussianBlur stdDeviation="2.15"/>
<feColorMatrix type="matrix" values="0 0 0 0 0.145098 0 0 0 0 0.827451 0 0 0 0 0.4 0 0 0 1 0"/>
<feBlend mode="normal" in2="BackgroundImageFix" result="effect1_dropShadow_3115_12265"/>
<feBlend mode="normal" in="SourceGraphic" in2="effect1_dropShadow_3115_12265" result="shape"/>
</filter>
</defs>
</svg>
