<svg width="76" height="67" viewBox="0 0 76 67" fill="none" xmlns="http://www.w3.org/2000/svg">
<g clip-path="url(#clip0_2406_79175)">
<path d="M22.5378 21.7945L19.5615 20.6663C18.8045 20.3793 17.9583 20.7603 17.6714 21.5173L13.1523 33.4391C12.8653 34.196 13.2463 35.0422 14.0033 35.3291L16.9796 36.4574C17.7365 36.7443 18.5827 36.3633 18.8697 35.6063L23.3888 23.6845C23.6757 22.9276 23.2947 22.0814 22.5378 21.7945Z" stroke="white" stroke-width="2" stroke-linecap="round" stroke-linejoin="round"/>
<path d="M28.2276 40.2035C28.8838 39.398 28.7633 38.2135 27.9585 37.5578C27.1537 36.9022 25.9693 37.0236 25.3131 37.829L23.5188 40.0313C22.8626 40.8368 22.9831 42.0213 23.7879 42.677C24.5927 43.3327 25.7771 43.2113 26.4333 42.4058L28.2276 40.2035Z" stroke="white" stroke-width="2" stroke-linecap="round" stroke-linejoin="round"/>
<path d="M31.0669 42.6705C31.7231 41.8651 31.6027 40.6806 30.7978 40.0249C29.993 39.3692 28.8086 39.4906 28.1524 40.296L26.3581 42.4984C25.7019 43.3038 25.8224 44.4883 26.6272 45.144C27.4321 45.7997 28.6165 45.6783 29.2727 44.8729L31.0669 42.6705Z" stroke="white" stroke-width="2" stroke-linecap="round" stroke-linejoin="round"/>
<path d="M34.0352 45.0907C34.6914 44.2852 34.5709 43.1008 33.7661 42.4451C32.9613 41.7894 31.7769 41.9108 31.1207 42.7162L29.3264 44.9185C28.6702 45.724 28.7907 46.9085 29.5955 47.5642C30.4003 48.2199 31.5847 48.0985 32.2409 47.293L34.0352 45.0907Z" stroke="white" stroke-width="2" stroke-linecap="round" stroke-linejoin="round"/>
<path d="M37.0574 47.5548C37.7136 46.7494 37.5931 45.5649 36.7883 44.9092C35.9835 44.2535 34.7991 44.3749 34.1429 45.1803L32.3486 47.3827C31.6924 48.1881 31.8129 49.3726 32.6177 50.0283C33.4225 50.684 34.6069 50.5626 35.2631 49.7571L37.0574 47.5548Z" stroke="white" stroke-width="2" stroke-linecap="round" stroke-linejoin="round"/>
<path d="M45.6702 36.1155L49.8713 39.5384C50.6758 40.1937 50.7958 41.3786 50.1405 42.1831C49.4851 42.9876 48.3003 43.1076 47.4958 42.4522L44.1519 39.7285" stroke="white" stroke-width="2" stroke-linecap="round" stroke-linejoin="round"/>
<path d="M44.149 39.7285L46.9897 42.0426C47.7943 42.698 47.9142 43.8828 47.2589 44.6873C46.6036 45.4919 45.4187 45.6118 44.6142 44.9565L41.2703 42.2328" stroke="white" stroke-width="2" stroke-linecap="round" stroke-linejoin="round"/>
<path d="M41.2731 42.2415L44.1138 44.5556C44.9183 45.2109 45.0383 46.3957 44.3829 47.2003C43.7276 48.0048 42.5428 48.1247 41.7382 47.4694L39.2925 45.4771" stroke="white" stroke-width="2" stroke-linecap="round" stroke-linejoin="round"/>
<path d="M39.2956 45.4802L41.2791 47.0951C42.0836 47.7505 42.2036 48.9353 41.5483 49.7398C40.8929 50.5444 39.7081 50.6643 38.9035 50.009L36.8176 48.3092" stroke="white" stroke-width="2" stroke-linecap="round" stroke-linejoin="round"/>
<path d="M53.7399 21.6965L50.9484 22.8312C50.1551 23.1536 49.7734 24.0581 50.0958 24.8515L54.8327 36.5054C55.1552 37.2987 56.0597 37.6805 56.853 37.358L59.6446 36.2233C60.4379 35.9009 60.8196 34.9964 60.4971 34.2031L55.7602 22.5491C55.4377 21.7558 54.5332 21.3741 53.7399 21.6965Z" stroke="white" stroke-width="2" stroke-linecap="round" stroke-linejoin="round"/>
<path d="M41.2733 24.0622L38.6286 23.442C37.4087 23.1553 36.5456 23.4683 35.1092 24.6854C33.6727 25.9024 27.9211 30.4165 27.9211 30.4165C27.4793 30.791 27.4413 31.458 27.8333 31.8822C29.2025 33.3509 31.4405 33.5849 33.0847 32.4352L36.6071 29.9718C36.6071 29.9718 40.5361 35.033 45.9074 33.5615" stroke="white" stroke-width="2" stroke-linecap="round" stroke-linejoin="round"/>
<path d="M18.7346 36.3203L23.4506 39.4975" stroke="white" stroke-width="2" stroke-linecap="round" stroke-linejoin="round"/>
<path d="M23.7373 23.7812C26.9759 25.993 30.1794 23.8164 34.0119 25.5775" stroke="white" stroke-width="2" stroke-linecap="round" stroke-linejoin="round"/>
<path d="M43.8271 24.5186C45.3075 24.9077 47.0979 25.5163 49.6607 24.4104" stroke="white" stroke-width="2" stroke-linecap="round" stroke-linejoin="round"/>
<path d="M54.3299 37.2505C51.7964 38.7571 50.4185 39.4944 50.4185 39.4944" stroke="white" stroke-width="2" stroke-linecap="round" stroke-linejoin="round"/>
<path d="M30.4778 2.26196C36.8224 0.803876 43.6605 1.21727 50.1483 3.85779C58.8932 7.41695 65.2708 14.3232 68.4012 22.4964" stroke="white" stroke-width="2" stroke-linecap="round" stroke-linejoin="round"/>
<path d="M61.9646 19.45L68.4 22.4935L70.4595 16.3522" stroke="white" stroke-width="2" stroke-linecap="round" stroke-linejoin="round"/>
<path d="M45.8373 64.7379C39.4927 66.196 32.6546 65.7826 26.1668 63.1421C17.4219 59.5829 11.0443 52.6767 7.91386 44.5035" stroke="white" stroke-width="2" stroke-linecap="round" stroke-linejoin="round"/>
<path d="M14.3493 47.5471L7.91384 44.5036L5.85545 50.6476" stroke="white" stroke-width="2" stroke-linecap="round" stroke-linejoin="round"/>
</g>
<defs>
<clipPath id="clip0_2406_79175">
<rect width="76" height="67" fill="white"/>
</clipPath>
</defs>
</svg>
