<svg width="55" height="60" viewBox="0 0 55 60" fill="none" xmlns="http://www.w3.org/2000/svg">
<g clip-path="url(#clip0_3480_12440)">
<path d="M23.8626 32.7487C32.5091 32.7487 39.5186 25.6381 39.5186 16.8669C39.5186 8.09562 32.5091 0.985107 23.8626 0.985107C15.216 0.985107 8.20654 8.09562 8.20654 16.8669C8.20654 25.6381 15.216 32.7487 23.8626 32.7487Z" stroke="white" stroke-width="2" stroke-miterlimit="10"/>
<path d="M37.0809 37.2315C33.2737 34.8079 28.845 33.4187 24.1151 33.4187C14.5487 33.4187 6.21562 39.0936 1.79658 47.4975C-0.670307 52.197 2.69981 57.8818 7.9541 57.8818H25.3389" stroke="white" stroke-width="2" stroke-miterlimit="10" stroke-linecap="round" stroke-linejoin="round"/>
<path d="M53.0963 59.0149H30.904C30.3893 59.0149 29.9717 58.5912 29.9717 58.0691V44.739C29.9717 44.2169 30.3893 43.7932 30.904 43.7932H53.0963C53.6111 43.7932 54.0287 44.2169 54.0287 44.739V58.0691C54.0287 58.5912 53.6111 59.0149 53.0963 59.0149Z" stroke="white" stroke-width="2" stroke-miterlimit="10" stroke-linecap="round" stroke-linejoin="round"/>
<path d="M46.1618 43.734V40.7783C46.1618 40.4433 45.8899 40.1675 45.5597 40.1675H38.8194C38.4892 40.1675 38.2173 40.4433 38.2173 40.7783V43.3497" stroke="white" stroke-width="2" stroke-miterlimit="10" stroke-linecap="round" stroke-linejoin="round"/>
<path d="M20.1235 36.3054L22.5613 37.9015C23.3091 38.3941 24.2803 38.3251 24.9699 37.7537L26.6792 36.3054" stroke="white" stroke-width="2" stroke-miterlimit="10" stroke-linecap="round" stroke-linejoin="round"/>
<path d="M23.3965 38.2068L20.7451 49.7043L23.3965 54.1674L25.6983 49.7043L23.3965 38.2068Z" stroke="white" stroke-width="2" stroke-miterlimit="10" stroke-linecap="round" stroke-linejoin="round"/>
</g>
<defs>
<clipPath id="clip0_3480_12440">
<rect width="55" height="60" fill="white"/>
</clipPath>
</defs>
</svg>
