<svg width="60" height="37" viewBox="0 0 60 37" fill="none" xmlns="http://www.w3.org/2000/svg">
<g clip-path="url(#clip0_4203_13373)">
<path d="M2.70006 27.5401C2.70006 26.2701 2.74006 25.0501 2.69006 23.8401C2.63006 22.1901 3.07006 20.6501 3.61006 19.1301C3.87006 18.4001 4.32006 17.8601 5.02006 17.5101C6.26006 16.8901 7.54006 16.3601 8.91006 16.1001C8.94006 16.0901 8.97006 16.0601 9.04006 16.0201C8.98006 15.9201 8.92006 15.8301 8.86006 15.7401C8.03006 14.5001 7.37006 13.1701 7.02006 11.7101C7.01006 11.6101 7.00006 11.5201 6.99006 11.4401C6.96006 10.3501 6.90006 9.2501 6.92006 8.1601C6.96006 6.0201 8.26006 4.4401 10.5601 4.4101C11.1901 4.4001 11.8401 4.4001 12.4601 4.5201C14.0201 4.8201 14.8701 5.8901 15.1601 7.3701C15.2801 7.9701 15.2001 8.6101 15.2101 9.2301C15.2101 9.5501 15.1601 9.8701 15.1901 10.1801C15.3101 11.3401 15.0601 12.4201 14.5301 13.4501C14.2501 14.0001 13.9801 14.5701 13.7101 15.1301C13.3801 15.8001 13.9401 16.9301 14.6801 17.0601C14.7501 17.0701 14.8701 17.0401 14.9201 16.9901C15.6701 16.1901 16.6801 15.8001 17.6101 15.3001C18.3401 14.9101 19.0301 14.4501 19.7801 14.1201C20.7501 13.6901 21.7701 13.3601 22.7601 12.9801C22.8401 12.9501 22.9301 12.9301 23.0101 12.9001C23.0401 12.8901 23.0701 12.8601 23.0801 12.8401C22.7101 12.1901 22.3401 11.5601 22.0001 10.9201C21.3401 9.6601 20.9401 8.3501 21.0401 6.9001C21.0901 6.1701 21.0101 5.4201 21.0501 4.6901C21.1801 2.6901 22.4501 1.4701 24.3401 1.2701C25.1801 1.1801 25.9801 1.2401 26.7901 1.4301C28.2701 1.7901 29.2101 3.1701 29.3001 4.5901C29.3701 5.7101 29.3501 6.8301 29.3001 7.9501C29.2801 8.4701 29.1601 9.0201 28.9501 9.4901C28.5301 10.4701 27.9801 11.3901 27.5801 12.3701C27.4001 12.8001 27.4501 13.3301 27.4501 13.8201C27.4501 13.9301 27.6501 14.1001 27.7901 14.1401C28.7201 14.4001 29.6501 14.6301 30.5801 14.8701C30.6401 14.8901 30.7301 14.8401 30.7901 14.8101C31.8101 14.2601 32.8301 13.7201 33.8401 13.1601C34.9801 12.5401 36.1701 12.0201 37.4501 11.7501C37.5501 11.7301 37.6501 11.6801 37.7901 11.6301C36.9501 10.5801 36.4201 9.4301 36.0001 8.2301C35.8201 7.7201 35.7001 7.1701 35.6801 6.6401C35.6301 5.6001 35.6101 4.5501 35.6701 3.5101C35.7801 1.4801 37.0601 0.230097 38.9901 0.0400969C39.7901 -0.0399031 40.5501 0.0100969 41.3301 0.190097C42.6301 0.490097 43.3901 1.3601 43.7601 2.5801C43.9101 3.0801 43.9301 3.6301 43.9501 4.1501C43.9701 4.8101 43.9001 5.4801 43.9401 6.1401C44.0001 7.1801 43.7101 8.1201 43.2801 9.0401C42.9801 9.6701 42.6801 10.3001 42.3601 10.9801C42.9801 11.2501 43.6101 11.5201 44.2401 11.7901C44.8501 12.0501 45.4701 12.3101 46.1401 12.6001C45.3001 13.0801 44.5101 13.5301 43.7201 13.9801C41.0501 15.5101 38.3801 17.0301 35.7101 18.5601C33.3801 19.8901 31.0401 21.2001 28.7101 22.5201C27.2501 23.3501 25.8001 24.1801 24.3401 25.0001C24.2201 25.0701 24.0201 25.0901 23.9001 25.0301C21.7701 24.1301 19.6501 23.2201 17.5201 22.3101C16.6101 21.9201 15.6901 21.5501 14.7901 21.1501C14.5301 21.0301 14.3201 21.0501 14.0801 21.1901C12.7301 21.9501 11.3801 22.7101 10.0301 23.4701C8.33006 24.4201 6.63006 25.3601 4.93006 26.3101C4.19006 26.7101 3.45006 27.1201 2.70006 27.5401Z" fill="#F7941D"/>
<path opacity="0.3" d="M0.75 35.8599L14.54 27.5399L24.42 31.6999L56.15 13.1599" stroke="white" stroke-width="1.5" stroke-miterlimit="10" stroke-linecap="round" stroke-linejoin="round"/>
<path d="M49.0098 12.7L59.7298 10.7L54.3698 18.97L49.0098 12.7Z" fill="white"/>
</g>
<defs>
<clipPath id="clip0_4203_13373">
<rect width="59.73" height="36.61" fill="white"/>
</clipPath>
</defs>
</svg>
