<svg width="63" height="63" viewBox="0 0 63 63" fill="none" xmlns="http://www.w3.org/2000/svg">
<g clip-path="url(#clip0_4480_13424)">
<path d="M33.16 54.7H4.28C2.47 54.7 1 53.23 1 51.42V8.51999C1 6.70999 2.47 5.23999 4.28 5.23999H51.93C53.74 5.23999 55.21 6.70999 55.21 8.51999V37.73" stroke="white" stroke-width="2" stroke-miterlimit="10" stroke-linecap="round" stroke-linejoin="round"/>
<path d="M54.6702 18.6599H1.41016" stroke="white" stroke-width="2" stroke-miterlimit="10" stroke-linecap="round" stroke-linejoin="round"/>
<path d="M9.93994 0V8.88" stroke="white" stroke-width="3" stroke-miterlimit="10" stroke-linejoin="round"/>
<path d="M46.1299 0V8.88" stroke="white" stroke-width="3" stroke-miterlimit="10" stroke-linejoin="round"/>
<path d="M30.5 27.28H37.03" stroke="white" stroke-width="2" stroke-miterlimit="10" stroke-linecap="round" stroke-linejoin="round"/>
<path d="M43.1001 27.28H49.6301" stroke="white" stroke-width="2" stroke-miterlimit="10" stroke-linecap="round" stroke-linejoin="round"/>
<path d="M30.5 33.5H37.03" stroke="white" stroke-width="2" stroke-miterlimit="10" stroke-linecap="round" stroke-linejoin="round"/>
<path d="M43.1001 33.5H49.6301" stroke="white" stroke-width="2" stroke-miterlimit="10" stroke-linecap="round" stroke-linejoin="round"/>
<path d="M18.21 39.73H24.74" stroke="white" stroke-width="2" stroke-miterlimit="10" stroke-linecap="round" stroke-linejoin="round"/>
<path d="M30.5 39.73H37.03" stroke="white" stroke-width="2" stroke-miterlimit="10" stroke-linecap="round" stroke-linejoin="round"/>
<path d="M18.21 45.95H24.74" stroke="white" stroke-width="2" stroke-miterlimit="10" stroke-linecap="round" stroke-linejoin="round"/>
<path d="M6.4502 33.5H12.9802" stroke="white" stroke-width="2" stroke-miterlimit="10" stroke-linecap="round" stroke-linejoin="round"/>
<path d="M6.4502 39.73H12.9802" stroke="white" stroke-width="2" stroke-miterlimit="10" stroke-linecap="round" stroke-linejoin="round"/>
<path d="M6.4502 45.95H12.9802" stroke="white" stroke-width="2" stroke-miterlimit="10" stroke-linecap="round" stroke-linejoin="round"/>
<path d="M37.7397 52.6599V57.3999L48.3897 61.1699L58.9297 57.5299V52.1899" stroke="#F7941D" stroke-width="2" stroke-miterlimit="10" stroke-linecap="round" stroke-linejoin="round"/>
<path d="M48.3901 61.1699V55.9299" stroke="#F7941D" stroke-width="2" stroke-miterlimit="10" stroke-linecap="round" stroke-linejoin="round"/>
<path d="M45.9599 51.96L47.9799 48.54C48.1299 48.28 48.0099 47.94 47.7199 47.84L38.0299 44.45C37.8099 44.37 37.5699 44.46 37.4499 44.66L35.5299 47.98C35.3799 48.24 35.4999 48.57 35.7799 48.68L45.3699 52.17C45.5899 52.25 45.8399 52.16 45.9599 51.96Z" stroke="#F7941D" stroke-width="2" stroke-miterlimit="10" stroke-linecap="round" stroke-linejoin="round"/>
<path d="M50.7001 51.96L48.6801 48.54C48.5301 48.28 48.6501 47.94 48.9401 47.84L58.6301 44.45C58.8501 44.37 59.0901 44.46 59.2101 44.66L61.1301 47.98C61.2801 48.24 61.1601 48.57 60.8801 48.68L51.2901 52.17C51.0601 52.25 50.8201 52.16 50.7001 51.96Z" stroke="#F7941D" stroke-width="2" stroke-miterlimit="10" stroke-linecap="round" stroke-linejoin="round"/>
<path d="M48.8398 41.3L37.8198 44.37" stroke="#F7941D" stroke-width="2" stroke-miterlimit="10" stroke-linecap="round" stroke-linejoin="round"/>
<path d="M59.0898 44.42L48.8398 41.3" stroke="#F7941D" stroke-width="2" stroke-miterlimit="10" stroke-linecap="round" stroke-linejoin="round"/>
<path d="M25.2602 34.9099C24.7202 36.3399 23.3302 37.3599 21.7102 37.3599C19.6102 37.3599 17.9102 35.6599 17.9102 33.5599C17.9102 33.4999 17.9102 33.4499 17.9102 33.3899" stroke="#F7941D" stroke-width="1.5" stroke-miterlimit="10" stroke-linecap="round" stroke-linejoin="round"/>
<path d="M19.7598 31.9099L21.0798 33.5699C21.4398 34.0199 22.1098 34.0599 22.5198 33.6499L25.4598 30.6799" stroke="#F7941D" stroke-width="1.5" stroke-miterlimit="10" stroke-linecap="round" stroke-linejoin="round"/>
</g>
<defs>
<clipPath id="clip0_4480_13424">
<rect width="62.19" height="62.17" fill="white"/>
</clipPath>
</defs>
</svg>
