<svg width="72" height="41" viewBox="0 0 72 41" fill="none" xmlns="http://www.w3.org/2000/svg">
<path d="M63.3085 9.54272H44.6729V14.1041H63.3085V9.54272Z" stroke="white" stroke-width="2" stroke-miterlimit="10" stroke-linecap="round" stroke-linejoin="round"/>
<path d="M67.1552 14.3606H40.501V18.9219H67.1552V14.3606Z" stroke="white" stroke-width="2" stroke-miterlimit="10" stroke-linecap="round" stroke-linejoin="round"/>
<path d="M58.5459 18.1747V15.0186" stroke="white" stroke-width="2" stroke-miterlimit="10" stroke-linecap="round" stroke-linejoin="round"/>
<path d="M53.9287 13.7695V9.54272" stroke="white" stroke-width="2" stroke-miterlimit="10" stroke-linecap="round" stroke-linejoin="round"/>
<path d="M21.7871 9.73238V1.39038" stroke="white" stroke-width="2" stroke-miterlimit="10" stroke-linecap="round" stroke-linejoin="round"/>
<path d="M8.62844 15.0743C8.62844 14.8848 8.56152 1 8.56152 1H24.8552" stroke="white" stroke-width="2" stroke-miterlimit="10" stroke-linecap="round" stroke-linejoin="round"/>
<path d="M31.2456 9.79907H9.54297" stroke="white" stroke-width="2" stroke-miterlimit="10" stroke-linecap="round" stroke-linejoin="round"/>
<path d="M28.3125 22.7024V9.86597" stroke="white" stroke-width="2" stroke-miterlimit="10" stroke-linecap="round" stroke-linejoin="round"/>
<path d="M12.7656 5.56128H16.7359" stroke="white" stroke-width="2" stroke-miterlimit="10" stroke-linecap="round" stroke-linejoin="round"/>
<path d="M12.9336 14.6838H15.5321" stroke="white" stroke-width="2" stroke-miterlimit="10" stroke-linecap="round" stroke-linejoin="round"/>
<path d="M19.3799 14.6169H23.484" stroke="white" stroke-width="2" stroke-miterlimit="10" stroke-linecap="round" stroke-linejoin="round"/>
<path d="M40.5576 22.569V18.3979" stroke="white" stroke-width="2" stroke-miterlimit="10" stroke-linecap="round" stroke-linejoin="round"/>
<path d="M8.56094 33.5872L1.78027 18.5314H14.3602V21.353C14.3602 22.5351 15.3193 23.4831 16.4903 23.4831H46.8137L49.3565 18.9218V14.6838" stroke="white" stroke-width="2" stroke-miterlimit="10" stroke-linecap="round" stroke-linejoin="round"/>
<path d="M49.3574 19.1226H69.9559L64.9039 28.8698C64.5805 29.4943 64.1455 30.0631 63.6214 30.5315L61.2236 32.6727" stroke="white" stroke-width="2" stroke-miterlimit="10" stroke-linecap="round" stroke-linejoin="round"/>
<path d="M1 32.0261C2.48327 32.0261 3.20818 32.5725 4.41264 33.4201C5.29368 34.0447 6.342 34.3681 7.41264 34.3681H7.97026C8.99628 34.3681 10 34.067 10.8587 33.4982L11.9517 32.7733C12.8104 32.2045 13.8141 31.9034 14.8401 31.9034H14.9963C15.8662 31.9034 16.7249 32.1264 17.4944 32.5391L19.3346 33.5428C20.1041 33.9666 20.9628 34.1785 21.8327 34.1785C22.7584 34.1785 23.6617 33.9331 24.4535 33.4647L25.9368 32.606C26.7286 32.1376 27.6431 31.8922 28.5576 31.8922H29.1598C29.974 31.8922 30.7881 32.0818 31.513 32.4499L33.9219 33.6655C34.6468 34.0335 35.4609 34.2231 36.2751 34.2231H36.3643C37.368 34.2231 38.3383 33.9331 39.1859 33.3978L40.4572 32.5837C41.2937 32.0372 42.2751 31.7584 43.2788 31.7584H43.6468C44.6171 31.7584 45.5762 32.0261 46.4015 32.5502L47.8401 33.4536C48.6654 33.9666 49.6245 34.2454 50.5948 34.2454H50.7286C51.71 34.2454 52.6803 33.9666 53.5056 33.4424L54.6766 32.7064C55.513 32.1822 56.4721 31.9034 57.4535 31.9034H58.0557C59.1041 31.9034 60.1301 32.2157 61.0111 32.8179C61.881 33.409 62.8959 33.7212 63.9442 33.7212H65.2267C67.2119 33.7212 69.1189 32.4499 70.8699 31.6357" stroke="#F7941D" stroke-width="2" stroke-miterlimit="10" stroke-linecap="round" stroke-linejoin="round"/>
<path d="M1 37.6579C2.48327 37.6579 3.20818 38.2044 4.41264 39.052C5.29368 39.6765 6.342 39.9999 7.41264 39.9999H7.97026C8.99628 39.9999 10 39.6988 10.8587 39.13L11.9517 38.4051C12.8104 37.8364 13.8141 37.5352 14.8401 37.5352H14.9963C15.8662 37.5352 16.7249 37.7583 17.4944 38.1709L19.3346 39.1746C20.1041 39.5984 20.9628 39.8103 21.8327 39.8103C22.7584 39.8103 23.6617 39.565 24.4535 39.0966L25.9368 38.2378C26.7286 37.7694 27.6431 37.5241 28.5576 37.5241H29.1598C29.974 37.5241 30.7881 37.7137 31.513 38.0817L33.9219 39.2973C34.6468 39.6653 35.4609 39.8549 36.2751 39.8549H36.3643C37.368 39.8549 38.3383 39.565 39.1859 39.0297L40.4572 38.2155C41.2937 37.6691 42.2751 37.3903 43.2788 37.3903H43.6468C44.6171 37.3903 45.5762 37.6579 46.4015 38.1821L47.8513 39.0854C48.6766 39.5984 49.6357 39.8772 50.6059 39.8772H50.7397C51.7212 39.8772 52.6914 39.5984 53.5167 39.0743L54.6877 38.3382C55.5241 37.814 56.4832 37.5352 57.4647 37.5352H58.0669C59.1152 37.5352 60.1412 37.8475 61.0223 38.4497C61.8922 39.0408 62.907 39.3531 63.9554 39.3531H65.2379C67.223 39.3531 69.1301 38.0817 70.881 37.2676" stroke="#F7941D" stroke-width="2" stroke-miterlimit="10" stroke-linecap="round" stroke-linejoin="round"/>
<path d="M20.9398 28.5353C21.5311 28.5353 22.0104 28.056 22.0104 27.4647C22.0104 26.8734 21.5311 26.394 20.9398 26.394C20.3485 26.394 19.8691 26.8734 19.8691 27.4647C19.8691 28.056 20.3485 28.5353 20.9398 28.5353Z" fill="white"/>
<path d="M25.1458 28.5353C25.7371 28.5353 26.2165 28.056 26.2165 27.4647C26.2165 26.8734 25.7371 26.394 25.1458 26.394C24.5545 26.394 24.0752 26.8734 24.0752 27.4647C24.0752 28.056 24.5545 28.5353 25.1458 28.5353Z" fill="white"/>
<path d="M29.3499 28.5353C29.9412 28.5353 30.4206 28.056 30.4206 27.4647C30.4206 26.8734 29.9412 26.394 29.3499 26.394C28.7586 26.394 28.2793 26.8734 28.2793 27.4647C28.2793 28.056 28.7586 28.5353 29.3499 28.5353Z" fill="white"/>
<path d="M33.554 28.5353C34.1453 28.5353 34.6247 28.056 34.6247 27.4647C34.6247 26.8734 34.1453 26.394 33.554 26.394C32.9627 26.394 32.4834 26.8734 32.4834 27.4647C32.4834 28.056 32.9627 28.5353 33.554 28.5353Z" fill="white"/>
<path d="M37.7581 28.5353C38.3494 28.5353 38.8288 28.056 38.8288 27.4647C38.8288 26.8734 38.3494 26.394 37.7581 26.394C37.1668 26.394 36.6875 26.8734 36.6875 27.4647C36.6875 28.056 37.1668 28.5353 37.7581 28.5353Z" fill="white"/>
<path d="M41.9622 28.5353C42.5535 28.5353 43.0329 28.056 43.0329 27.4647C43.0329 26.8734 42.5535 26.394 41.9622 26.394C41.3709 26.394 40.8916 26.8734 40.8916 27.4647C40.8916 28.056 41.3709 28.5353 41.9622 28.5353Z" fill="white"/>
<path d="M53.8965 23.4497H67.6809" stroke="white" stroke-miterlimit="10" stroke-linecap="round" stroke-linejoin="round"/>
</svg>
