<svg width="60" height="64" viewBox="0 0 60 64" fill="none" xmlns="http://www.w3.org/2000/svg">
<g clip-path="url(#clip0_4203_13311)">
<path d="M31.14 18.45V5.68C31.14 2.96 28.93 0.75 26.21 0.75H9.19L0.75 8.64V38.5C0.75 41.22 2.96 43.43 5.68 43.43H24.17" stroke="white" stroke-width="1.5" stroke-miterlimit="10" stroke-linecap="round" stroke-linejoin="round"/>
<path d="M0.689941 9.44998H8.00994C8.65994 9.44998 9.18994 8.91998 9.18994 8.26998V0.97998" stroke="white" stroke-width="1.5" stroke-miterlimit="10"/>
<path d="M33.2301 62.8299H53.7701C56.4901 62.8299 58.7001 60.6199 58.7001 57.8999V25.0899C58.7001 22.3699 56.4901 20.1599 53.7701 20.1599H36.7501L28.3101 28.0499V57.9099C28.3101 60.6299 30.5101 62.8299 33.2301 62.8299Z" stroke="white" stroke-width="1.5" stroke-miterlimit="10" stroke-linecap="round" stroke-linejoin="round"/>
<path d="M28.25 28.8599H35.57C36.22 28.8599 36.75 28.3299 36.75 27.6799V20.3999" stroke="white" stroke-width="1.5" stroke-miterlimit="10"/>
<path d="M5.77979 21.4199H25.0098" stroke="white" stroke-width="1.5" stroke-miterlimit="10" stroke-linecap="round" stroke-linejoin="round"/>
<path d="M7.98975 25.8401H25.0097" stroke="white" stroke-width="1.5" stroke-miterlimit="10" stroke-linecap="round" stroke-linejoin="round"/>
<path d="M12.5898 30.26H25.0098" stroke="white" stroke-width="1.5" stroke-miterlimit="10" stroke-linecap="round" stroke-linejoin="round"/>
<path d="M9.70996 34.6899H25.01" stroke="white" stroke-width="1.5" stroke-miterlimit="10" stroke-linecap="round" stroke-linejoin="round"/>
<path d="M33.8799 41.4199H53.1199" stroke="white" stroke-width="1.5" stroke-miterlimit="10" stroke-linecap="round" stroke-linejoin="round"/>
<path d="M36.1001 45.8401H53.1201" stroke="white" stroke-width="1.5" stroke-miterlimit="10" stroke-linecap="round" stroke-linejoin="round"/>
<path d="M40.6899 50.27H53.1199" stroke="white" stroke-width="1.5" stroke-miterlimit="10" stroke-linecap="round" stroke-linejoin="round"/>
<path d="M37.8101 54.6899H53.1201" stroke="white" stroke-width="1.5" stroke-miterlimit="10" stroke-linecap="round" stroke-linejoin="round"/>
<path d="M50.25 12.32H48.52C48.35 9.07999 45.67 6.48999 42.39 6.48999H36.76C36.34 6.48999 36 6.82999 36 7.23999C36 7.64999 36.34 7.98999 36.75 7.98999H42.38C44.83 7.98999 46.83 9.90999 47 12.32H45.47L47.82 16.32L50.25 12.32Z" fill="#F7941D"/>
<path d="M8.81982 51.95H10.5498C10.7198 55.19 13.3998 57.7799 16.6798 57.7799H22.3098C22.7198 57.7799 23.0598 57.4399 23.0598 57.0299C23.0598 56.6199 22.7198 56.2799 22.3098 56.2799H16.6798C14.2298 56.2799 12.2298 54.36 12.0598 51.95H13.5898L11.2398 47.95L8.81982 51.95Z" fill="#F7941D"/>
<path d="M15.3101 15.3701C15.3101 14.9901 15.3101 14.6101 15.3101 14.2201C14.8701 14.2301 14.4301 14.2401 13.9901 14.2501C13.9701 13.9101 13.9601 13.5901 13.9401 13.2401C14.4001 13.2401 14.8601 13.2401 15.3301 13.2401C15.3401 12.9301 15.3601 12.6301 15.3701 12.3201C15.7401 12.3501 16.1001 12.3801 16.4801 12.4001C16.4701 12.6601 16.4501 12.9201 16.4401 13.1901C16.8401 13.1801 17.2401 13.1401 17.6401 13.0901C18.0301 13.0401 18.4301 12.9801 18.8301 12.9201C18.8601 13.2601 18.8901 13.6001 18.9201 13.9501C18.0701 14.0801 17.2301 14.1401 16.3701 14.1801C16.3701 14.4801 16.3701 14.7701 16.3701 15.0601C16.6701 15.0401 16.9701 15.0201 17.2901 14.9901C17.3101 14.9301 17.3301 14.8601 17.3501 14.7801C17.7001 14.8401 18.0401 14.9001 18.3901 14.9701C18.3701 15.0401 18.3601 15.1101 18.3401 15.1801C18.3801 15.2001 18.4201 15.2101 18.4501 15.2301C18.6601 15.3101 18.8601 15.4201 19.0401 15.5601C19.5601 15.9801 19.7601 16.5301 19.7101 17.1801C19.7001 17.3301 19.6701 17.4901 19.6401 17.6401C19.5401 18.0401 19.3001 18.3601 18.9601 18.5901C18.6301 18.8201 18.2601 18.9601 17.8701 19.0501C17.6801 19.0901 17.4901 19.1201 17.3001 19.1601C17.2601 19.1701 17.2201 19.1601 17.2001 19.1201C17.0301 18.8801 16.8601 18.6401 16.6801 18.4001C16.6801 18.4001 16.6801 18.3901 16.6801 18.3801C16.8201 18.3601 16.9601 18.3301 17.1101 18.3001C17.3701 18.2501 17.6201 18.1701 17.8601 18.0501C18.0201 17.9701 18.1801 17.8701 18.3001 17.7301C18.5501 17.4601 18.6401 17.1301 18.5601 16.7701C18.4901 16.4601 18.2701 16.2701 17.9901 16.1301C17.9501 16.2001 17.9201 16.2601 17.8801 16.3201C17.5601 16.8701 17.1601 17.3801 16.7101 17.8301C16.4201 18.1201 16.0501 18.3001 15.6701 18.4601C15.3901 18.5701 15.1001 18.6501 14.8001 18.6701C14.5901 18.6801 14.3901 18.6601 14.2001 18.5801C13.8501 18.4301 13.6601 18.1601 13.6001 17.7901C13.5301 17.3501 13.6401 16.9301 13.8601 16.5501C14.0501 16.2101 14.3201 15.9401 14.6501 15.7301C14.8301 15.6101 15.0201 15.5201 15.2001 15.4201C15.2401 15.4001 15.2801 15.3801 15.3101 15.3701ZM15.3801 16.3801C15.1101 16.4801 14.8001 16.7801 14.7001 17.0401C14.6601 17.1401 14.6401 17.2401 14.6401 17.3501C14.6301 17.5501 14.7301 17.6501 14.9301 17.6501C15.1401 17.6601 15.3301 17.5901 15.5101 17.5001C15.4701 17.1301 15.4301 16.7601 15.3801 16.3801ZM16.4201 16.7301C16.6001 16.5701 16.9101 16.0901 16.9301 15.9401C16.7401 15.9601 16.5601 15.9801 16.3701 16.0101C16.3901 16.2501 16.4001 16.4801 16.4201 16.7301Z" fill="#F7941D"/>
<path d="M38.2099 28.71C38.6799 28.71 39.1299 28.71 39.5899 28.71C40.3499 30.74 41.1099 32.78 41.8699 34.82C41.7799 34.85 40.6999 34.86 40.4799 34.83C40.3299 34.39 40.1799 33.94 40.0199 33.48C39.2599 33.48 38.4899 33.48 37.7199 33.48C37.5599 33.93 37.3999 34.38 37.2399 34.83C36.7799 34.83 36.3399 34.83 35.8799 34.83C36.6599 32.79 37.4399 30.75 38.2099 28.71ZM38.9099 30.24C38.8999 30.24 38.8899 30.24 38.8799 30.24C38.6199 30.98 38.3599 31.72 38.0899 32.46C38.6299 32.46 39.1399 32.46 39.6699 32.46C39.4099 31.72 39.1599 30.98 38.9099 30.24Z" fill="#F7941D"/>
</g>
<defs>
<clipPath id="clip0_4203_13311">
<rect width="59.45" height="63.58" fill="white"/>
</clipPath>
</defs>
</svg>
