<svg width="42" height="58" viewBox="0 0 42 58" fill="none" xmlns="http://www.w3.org/2000/svg">
<g clip-path="url(#clip0_3480_12617)">
<path d="M0.26 57.2V56.42C0.26 46.64 4.66 38.68 16.82 29.82C24.75 24.03 27.15 22.02 27.15 17.11C27.15 12.24 24.79 9.5 20.06 9.5C14.56 9.5 12.57 12.87 11.8 17.76H0C0.81 8.08 7.15 0 20.06 0C34.5 0 39.44 8.6 39.44 17.01C39.44 25.19 35.92 29.15 25.58 36.41C18.65 41.28 15.87 44.47 14.91 47.01H41.52L40 57.21H0.26V57.2Z" fill="white"/>
</g>
<defs>
<clipPath id="clip0_3480_12617">
<rect width="41.51" height="57.2" fill="white"/>
</clipPath>
</defs>
</svg>
