<svg width="66" height="59" viewBox="0 0 66 59" fill="none" xmlns="http://www.w3.org/2000/svg">
<g clip-path="url(#clip0_4480_13450)">
<path d="M5.41016 17.3601V32.5601L21.7102 38.3301" stroke="white" stroke-width="2" stroke-miterlimit="10" stroke-linecap="round" stroke-linejoin="round"/>
<path d="M21.4002 21.9899L25.3302 15.3299C25.6302 14.8199 25.3902 14.1599 24.8302 13.9699L5.99017 7.37988C5.56017 7.22988 5.09017 7.39988 4.86017 7.79988L1.12017 14.2599C0.830167 14.7699 1.06017 15.4099 1.61017 15.6099L20.2602 22.3999C20.6902 22.5499 21.1702 22.3799 21.4002 21.9899Z" stroke="white" stroke-width="2" stroke-miterlimit="10" stroke-linecap="round" stroke-linejoin="round"/>
<path d="M28.0703 13.66L46.0203 7.38003C46.4503 7.23003 46.9203 7.41003 47.1403 7.80003L49.6603 12.16" stroke="white" stroke-width="2" stroke-miterlimit="10" stroke-linecap="round" stroke-linejoin="round"/>
<path d="M25.7901 1.25L5.58008 7.23" stroke="white" stroke-width="2" stroke-miterlimit="10" stroke-linecap="round" stroke-linejoin="round"/>
<path d="M46.9203 7.33L26.5503 1" stroke="white" stroke-width="2" stroke-miterlimit="10" stroke-linecap="round" stroke-linejoin="round"/>
<path d="M39.1598 14.5701C30.3898 14.5701 23.2598 21.7001 23.2598 30.4701C23.2598 39.2401 30.3898 46.3701 39.1598 46.3701C47.9298 46.3701 55.0598 39.2401 55.0598 30.4701C55.0598 21.7001 47.9298 14.5701 39.1598 14.5701ZM39.1598 45.0301C31.1298 45.0301 24.5998 38.5001 24.5998 30.4701C24.5998 22.4401 31.1298 15.9101 39.1598 15.9101C47.1898 15.9101 53.7198 22.4401 53.7198 30.4701C53.7198 38.5001 47.1898 45.0301 39.1598 45.0301Z" fill="#F7941D" stroke="#F7941D" stroke-miterlimit="10"/>
<path d="M39.1599 42.46C32.5499 42.46 27.1699 37.08 27.1699 30.47C27.1699 23.86 32.5499 18.48 39.1599 18.48C45.7699 18.48 51.1499 23.86 51.1499 30.47C51.1499 37.08 45.7699 42.46 39.1599 42.46ZM39.1599 19.74C33.2399 19.74 28.4299 24.55 28.4299 30.47C28.4299 36.39 33.2499 41.2 39.1599 41.2C45.0699 41.2 49.8999 36.39 49.8999 30.47C49.8999 24.55 45.0799 19.74 39.1599 19.74Z" fill="#F7941D" stroke="#F7941D" stroke-miterlimit="10"/>
<path d="M51.8097 39.3301L63.3697 51.1201C65.0297 52.8101 64.9297 55.5401 63.1597 57.1101C61.3897 58.6801 58.6697 58.4501 57.1897 56.6101L46.7197 43.6201" stroke="#F7941D" stroke-width="1.5" stroke-miterlimit="10" stroke-linejoin="round"/>
<path d="M48.8496 46.4301L54.0196 41.8201" stroke="#F7941D" stroke-width="1.5" stroke-miterlimit="10" stroke-linejoin="round"/>
</g>
<defs>
<clipPath id="clip0_4480_13450">
<rect width="65.3" height="58.9" fill="white"/>
</clipPath>
</defs>
</svg>
