<svg width="43" height="30" viewBox="0 0 43 30" fill="none" xmlns="http://www.w3.org/2000/svg">
<g clip-path="url(#clip0_3255_12496)">
<path d="M18.8399 25.7701C18.2399 22.3901 17.6599 19.0701 17.0599 15.6901C20.7499 15.6901 24.3899 15.6901 28.0799 15.6901C28.0799 14.4401 28.0799 13.2601 28.0799 11.9701C28.3199 12.0701 28.4799 12.1401 28.6399 12.2201C29.4299 12.6401 30.2199 13.0401 30.9899 13.4901C31.1499 13.5801 31.2999 13.8301 31.3099 14.0201C31.3499 14.5501 31.3299 15.0901 31.3299 15.6501C32.2299 15.6501 33.0599 15.6501 33.9399 15.6501C33.9399 14.4501 33.9399 13.2601 33.9399 11.9701C34.1699 12.0801 34.3299 12.1401 34.4899 12.2201C35.1699 12.5801 35.8399 12.9801 36.5499 13.3001C37.0499 13.5201 37.2799 13.8101 37.1999 14.3701C37.1499 14.7801 37.1899 15.2001 37.1899 15.6801C37.9099 15.6801 38.5799 15.6801 39.2499 15.6801C39.9099 15.6801 40.0099 15.7801 40.0099 16.4401C40.0099 19.3501 40.0099 22.2701 40.0099 25.1801C40.0099 25.3601 40.0099 25.5501 40.0099 25.8101C40.5399 25.8101 41.0399 25.8101 41.5299 25.8101C42.2399 25.8201 42.4199 26.0101 42.4299 26.7101C42.4299 27.3001 42.4299 27.8901 42.4299 28.4801C42.4299 29.1301 42.2499 29.3101 41.5799 29.3201C41.4799 29.3201 41.3799 29.3201 41.2799 29.3201C27.8899 29.3201 14.4999 29.3201 1.11989 29.3201C0.969887 29.3201 0.819887 29.3201 0.669887 29.3101C0.269887 29.2901 0.039887 29.0801 0.029887 28.6801C-0.000112988 27.9401 -0.000112988 27.2001 0.00988701 26.4601C0.019887 26.0001 0.319887 25.8201 0.749887 25.8101C1.38989 25.8001 2.02989 25.7901 2.66989 25.8101C2.96989 25.8201 3.07989 25.6901 3.12989 25.4101C4.09989 19.8601 5.07989 14.2901 6.06989 8.73007C6.27989 7.51007 6.11989 7.58007 7.39989 7.58007C9.39989 7.58007 11.4099 7.59007 13.4099 7.57007C13.8499 7.57007 14.0699 7.69007 14.1499 8.17007C15.1099 13.6801 16.0899 19.1901 17.0599 24.7101C17.2599 25.8501 17.2499 25.8601 18.4099 25.8101C18.5299 25.8101 18.6499 25.7901 18.8399 25.7701ZM28.0299 22.0101C26.8699 22.0101 25.7899 22.0001 24.7199 22.0301C24.6199 22.0301 24.4399 22.2401 24.4299 22.3701C24.3999 22.9101 24.3899 23.4501 24.4299 23.9801C24.4399 24.1101 24.6499 24.3201 24.7699 24.3301C25.7299 24.3601 26.6899 24.3601 27.6399 24.3301C27.7699 24.3301 27.9899 24.1501 27.9999 24.0401C28.0499 23.3901 28.0299 22.7301 28.0299 22.0101ZM21.5699 20.3001C22.0399 20.3001 22.5099 20.2901 22.9799 20.3001C23.2599 20.3101 23.3699 20.2001 23.3599 19.9101C23.3499 19.3901 23.3499 18.8701 23.3599 18.3501C23.3699 18.0701 23.2599 17.9601 22.9799 17.9701C22.0399 17.9801 21.0999 17.9801 20.1499 17.9701C19.8699 17.9701 19.7599 18.0701 19.7699 18.3501C19.7799 18.8701 19.7899 19.3901 19.7699 19.9101C19.7599 20.2001 19.8699 20.3001 20.1499 20.2901C20.6299 20.2901 21.0999 20.3001 21.5699 20.3001ZM26.1799 20.3001C26.6199 20.3001 27.0599 20.2801 27.4899 20.3101C27.8699 20.3301 28.0499 20.2301 28.0199 19.8101C27.9899 19.3601 27.9999 18.9001 28.0199 18.4501C28.0399 18.1101 27.9399 17.9701 27.5699 17.9801C26.6599 18.0001 25.7499 18.0001 24.8399 17.9801C24.4999 17.9701 24.3999 18.1101 24.4099 18.4201C24.4299 18.9101 24.4299 19.4001 24.4099 19.8801C24.3999 20.2101 24.5399 20.3201 24.8599 20.3101C25.2999 20.2801 25.7399 20.3001 26.1799 20.3001ZM30.8199 17.9701C30.3699 17.9701 29.9099 17.9801 29.4599 17.9701C29.1899 17.9601 29.0599 18.0501 29.0699 18.3401C29.0799 18.8601 29.0799 19.3801 29.0699 19.9001C29.0599 20.1701 29.1499 20.3001 29.4399 20.3001C30.3799 20.2901 31.3199 20.2901 32.2599 20.3001C32.5299 20.3001 32.6599 20.2201 32.6499 19.9301C32.6299 19.4101 32.6299 18.8901 32.6499 18.3701C32.6599 18.0401 32.5099 17.9701 32.2299 17.9801C31.7599 17.9801 31.2899 17.9701 30.8199 17.9701ZM35.5099 20.3001C35.9799 20.3001 36.4499 20.2901 36.9199 20.3001C37.1999 20.3101 37.3099 20.1901 37.2999 19.9101C37.2899 19.3901 37.2899 18.8701 37.2999 18.3501C37.3099 18.0601 37.1899 17.9701 36.9099 17.9701C35.9499 17.9801 34.9999 17.9801 34.0399 17.9701C33.7699 17.9701 33.6899 18.0901 33.6899 18.3301C33.6899 18.8701 33.6999 19.4001 33.6899 19.9401C33.6799 20.2001 33.7899 20.3001 34.0499 20.3001C34.5399 20.2901 35.0199 20.2901 35.5099 20.3001ZM35.5099 22.0101C35.0399 22.0101 34.5699 22.0301 34.0999 22.0001C33.7799 21.9901 33.6899 22.1201 33.6999 22.4101C33.7099 22.9101 33.7099 23.4201 33.6999 23.9201C33.6899 24.2001 33.7999 24.3201 34.0799 24.3101C35.0199 24.3001 35.9599 24.3001 36.8999 24.3101C37.2099 24.3101 37.3099 24.1801 37.2999 23.8901C37.2799 23.3901 37.2899 22.8801 37.2999 22.3801C37.3099 22.1001 37.1999 22.0001 36.9199 22.0001C36.4499 22.0201 35.9799 22.0101 35.5099 22.0101ZM23.3599 24.3201C23.3599 23.6401 23.3499 23.0401 23.3699 22.4401C23.3799 22.1101 23.2799 21.9901 22.9399 22.0001C22.2399 22.0201 21.5299 22.0101 20.8199 22.0101C19.7699 22.0101 19.7699 22.0101 19.7699 23.0801C19.7699 24.3301 19.7699 24.3301 21.0499 24.3301C21.8099 24.3201 22.5599 24.3201 23.3599 24.3201ZM29.0699 22.0101C29.0699 22.7201 29.0799 23.3401 29.0699 23.9601C29.0599 24.2201 29.1799 24.3201 29.4299 24.3201C30.3899 24.3201 31.3399 24.3301 32.2999 24.3001C32.4199 24.3001 32.6299 24.0901 32.6399 23.9601C32.6799 23.4101 32.6699 22.8501 32.6399 22.3001C32.6399 22.2001 32.4899 22.0201 32.3999 22.0201C31.3099 22.0001 30.2199 22.0101 29.0699 22.0101Z" fill="#F7941D"/>
<path d="M32.3901 0.329973C32.3001 0.929973 32.2401 1.52997 32.1301 2.12997C31.9601 3.04997 31.6401 3.90997 31.0801 4.66997C30.1701 5.90997 28.7001 6.31997 26.9601 5.88997C25.0501 5.41997 23.1501 4.93997 21.2201 4.58997C18.6301 4.11997 16.1301 4.39997 13.8401 5.84997C13.6601 5.96997 13.4001 6.01997 13.1801 6.01997C11.9001 6.03997 10.6201 6.00997 9.34007 6.03997C8.89007 6.04997 8.66007 5.94997 8.67007 5.46997C8.69007 4.54997 8.57007 3.61997 8.70007 2.70997C8.97007 0.839973 10.1901 0.109973 12.0501 0.559973C13.2401 0.849973 14.4301 1.12997 15.6401 1.34997C16.8201 1.55997 18.0201 1.51997 19.0801 0.899973C21.0301 -0.250027 23.0601 -0.150027 25.1301 0.389973C26.1001 0.639973 27.0701 0.929973 28.0301 1.22997C29.4101 1.65997 30.6501 1.40997 31.7901 0.559973C31.9301 0.459973 32.0801 0.369973 32.2201 0.269973C32.2801 0.289973 32.3301 0.309973 32.3901 0.329973Z" fill="#F7941D"/>
</g>
<defs>
<clipPath id="clip0_3255_12496">
<rect width="42.42" height="29.32" fill="white"/>
</clipPath>
</defs>
</svg>
