<svg width="87" height="38" viewBox="0 0 87 38" fill="none" xmlns="http://www.w3.org/2000/svg">
<g id="Icona/fastCar">
<g id="Group 10">
<path id="Vector" d="M78.61 8.697C78.3813 8.35145 77.992 8.14704 77.5783 8.14704H63.7127V1.24103C63.7127 0.554811 63.1579 0 62.4717 0H22.116C21.4298 0 20.875 0.554811 20.875 1.24103V31.6586C20.875 32.3448 21.4298 32.8997 22.116 32.8997H25.8343C26.4134 35.7613 28.9442 37.9173 31.9713 37.9173C34.9985 37.9173 37.5293 35.7565 38.1084 32.8997H42.2939C42.9801 32.8997 43.5349 32.3448 43.5349 31.6586C43.5349 30.9724 42.9801 30.4176 42.2939 30.4176H38.1084C37.5293 27.5559 34.9985 25.3999 31.9713 25.3999C28.9442 25.3999 26.4134 27.5608 25.8343 30.4176H23.3571V2.48694H61.2258V30.4176H46.7129C46.0267 30.4176 45.4719 30.9724 45.4719 31.6586C45.4719 32.3448 46.0267 32.8997 46.7129 32.8997H65.0511C65.6302 35.7613 68.161 37.9173 71.1881 37.9173C74.2153 37.9173 76.746 35.7565 77.3252 32.8997H85.7253C86.4115 32.8997 86.9664 32.3448 86.9664 31.6586V21.5211C86.9664 21.2729 86.8933 21.0344 86.7522 20.83L78.6003 8.70185L78.61 8.697ZM31.9713 27.8771C34.0543 27.8771 35.748 29.5708 35.748 31.6538C35.748 33.7368 34.0543 35.4304 31.9713 35.4304C29.8883 35.4304 28.1947 33.7368 28.1947 31.6538C28.1947 29.5708 29.8883 27.8771 31.9713 27.8771ZM71.193 35.4304C69.11 35.4304 67.4164 33.7368 67.4164 31.6538C67.4164 29.5708 69.11 27.8771 71.193 27.8771C73.276 27.8771 74.9697 29.5708 74.9697 31.6538C74.9697 33.7368 73.276 35.4304 71.193 35.4304ZM84.4891 30.4127H77.3301C76.7509 27.551 74.2202 25.395 71.193 25.395C68.1659 25.395 65.6351 27.5559 65.056 30.4127H63.7127V10.634H76.9164L84.4843 21.8958V30.4127H84.4891Z" fill="white"/>
<path id="Vector_2" d="M27.6844 14.1573H31.2907C31.9769 14.1573 32.5318 13.6024 32.5318 12.9162C32.5318 12.23 31.9769 11.6752 31.2907 11.6752H27.6844C26.9982 11.6752 26.4434 12.23 26.4434 12.9162C26.4434 13.6024 26.9982 14.1573 27.6844 14.1573Z" fill="white"/>
<path id="Vector_3" d="M56.9042 11.6752H35.534C34.8478 11.6752 34.293 12.23 34.293 12.9162C34.293 13.6024 34.8478 14.1573 35.534 14.1573H56.9042C57.5904 14.1573 58.1452 13.6024 58.1452 12.9162C58.1452 12.23 57.5904 11.6752 56.9042 11.6752Z" fill="white"/>
<path id="Vector_4" d="M56.905 18.7328H53.3036C52.6173 18.7328 52.0625 19.2877 52.0625 19.9739C52.0625 20.6601 52.6173 21.2149 53.3036 21.2149H56.905C57.5912 21.2149 58.146 20.6601 58.146 19.9739C58.146 19.2877 57.5912 18.7328 56.905 18.7328Z" fill="white"/>
<path id="Vector_5" d="M27.6844 21.2149H49.0546C49.7408 21.2149 50.2957 20.6601 50.2957 19.9739C50.2957 19.2877 49.7408 18.7328 49.0546 18.7328H27.6844C26.9982 18.7328 26.4434 19.2877 26.4434 19.9739C26.4434 20.6601 26.9982 21.2149 27.6844 21.2149Z" fill="white"/>
<path id="Vector_6" d="M75.2021 12.7656H67.2156C66.5294 12.7656 65.9746 13.3205 65.9746 14.0067V20.7229C65.9746 21.4091 66.5294 21.9639 67.2156 21.9639H79.7185C80.1808 21.9639 80.5994 21.7108 80.8184 21.3069C81.0325 20.903 81.0082 20.4114 80.7503 20.0318L76.2338 13.3156C76.0051 12.97 75.6158 12.7656 75.2021 12.7656ZM68.4567 19.4818V15.2526H74.5402L77.3824 19.4818H68.4567Z" fill="white"/>
</g>
<path id="Vector 3" d="M13.3242 6.48824C12.6644 6.48824 12.1296 7.02309 12.1296 7.68286C12.1296 8.34263 12.6644 8.87749 13.3242 8.87749V6.48824ZM13.3242 8.87749H21.6294V6.48824H13.3242V8.87749Z" fill="white"/>
<path id="Vector 4" d="M7.28516 14.7935C6.62538 14.7935 6.09053 15.3283 6.09053 15.9881C6.09053 16.6479 6.62538 17.1827 7.28516 17.1827L7.28516 14.7935ZM7.28516 17.1827L21.6305 17.1827L21.6305 14.7935L7.28516 14.7935L7.28516 17.1827Z" fill="white"/>
<path id="Vector 5" d="M2 23.0986C1.34023 23.0986 0.805374 23.6334 0.805374 24.2932C0.805374 24.953 1.34023 25.4878 2 25.4878L2 23.0986ZM2 25.4878L21.6304 25.4878L21.6304 23.0986L2 23.0986L2 25.4878Z" fill="white"/>
</g>
</svg>
