<svg width="67" height="38" viewBox="0 0 67 38" fill="none" xmlns="http://www.w3.org/2000/svg">
<g id="Icons/car">
<path id="Vector" d="M58.0872 8.697C57.8608 8.35145 57.4753 8.14704 57.0657 8.14704H43.3374V1.24103C43.3374 0.554811 42.7881 0 42.1087 0H2.15257C1.47315 0 0.923828 0.554811 0.923828 1.24103V31.6586C0.923828 32.3448 1.47315 32.8997 2.15257 32.8997H5.83401C6.40743 35.7613 8.91311 37.9173 11.9103 37.9173C14.9075 37.9173 17.4132 35.7565 17.9866 32.8997H22.1306C22.8101 32.8997 23.3594 32.3448 23.3594 31.6586C23.3594 30.9724 22.8101 30.4176 22.1306 30.4176H17.9866C17.4132 27.5559 14.9075 25.3999 11.9103 25.3999C8.91311 25.3999 6.40743 27.5608 5.83401 30.4176H3.38135V2.48694H40.8751V30.4176H26.506C25.8265 30.4176 25.2772 30.9724 25.2772 31.6586C25.2772 32.3448 25.8265 32.8997 26.506 32.8997H44.6626C45.236 35.7613 47.7416 37.9173 50.7388 37.9173C53.736 37.9173 56.2417 35.7565 56.8151 32.8997H65.1321C65.8115 32.8997 66.3609 32.3448 66.3609 31.6586V21.5211C66.3609 21.2729 66.2886 21.0344 66.1488 20.83L58.0776 8.70185L58.0872 8.697ZM11.9103 27.8771C13.9727 27.8771 15.6496 29.5708 15.6496 31.6538C15.6496 33.7368 13.9727 35.4304 11.9103 35.4304C9.84793 35.4304 8.17107 33.7368 8.17107 31.6538C8.17107 29.5708 9.84793 27.8771 11.9103 27.8771ZM50.7437 35.4304C48.6813 35.4304 47.0044 33.7368 47.0044 31.6538C47.0044 29.5708 48.6813 27.8771 50.7437 27.8771C52.806 27.8771 54.4829 29.5708 54.4829 31.6538C54.4829 33.7368 52.806 35.4304 50.7437 35.4304ZM63.9081 30.4127H56.82C56.2465 27.551 53.7409 25.395 50.7437 25.395C47.7465 25.395 45.2408 27.5559 44.6674 30.4127H43.3374V10.634H56.4104L63.9034 21.8958V30.4127H63.9081Z" fill="white"/>
<path id="Vector_2" d="M7.66624 14.1575H11.2369C11.9163 14.1575 12.4656 13.6027 12.4656 12.9164C12.4656 12.2302 11.9163 11.6754 11.2369 11.6754H7.66624C6.98682 11.6754 6.4375 12.2302 6.4375 12.9164C6.4375 13.6027 6.98682 14.1575 7.66624 14.1575Z" fill="white"/>
<path id="Vector_3" d="M36.5963 11.6754H15.4377C14.7583 11.6754 14.209 12.2302 14.209 12.9164C14.209 13.6027 14.7583 14.1575 15.4377 14.1575H36.5963C37.2758 14.1575 37.8251 13.6027 37.8251 12.9164C37.8251 12.2302 37.2758 11.6754 36.5963 11.6754Z" fill="white"/>
<path id="Vector_4" d="M36.5954 18.7311H33.0296C32.3501 18.7311 31.8008 19.2859 31.8008 19.9721C31.8008 20.6583 32.3501 21.2132 33.0296 21.2132H36.5954C37.2748 21.2132 37.8241 20.6583 37.8241 19.9721C37.8241 19.2859 37.2748 18.7311 36.5954 18.7311Z" fill="white"/>
<path id="Vector_5" d="M7.66625 21.2132H28.8249C29.5043 21.2132 30.0536 20.6583 30.0536 19.9721C30.0536 19.2859 29.5043 18.7311 28.8249 18.7311H7.66625C6.98682 18.7311 6.4375 19.2859 6.4375 19.9721C6.4375 20.6583 6.98682 21.2132 7.66625 21.2132Z" fill="white"/>
<path id="Vector_6" d="M54.7123 12.7654H46.8049C46.1255 12.7654 45.5762 13.3202 45.5762 14.0064V20.7226C45.5762 21.4088 46.1255 21.9637 46.8049 21.9637H59.184C59.6418 21.9637 60.0562 21.7106 60.273 21.3067C60.485 20.9027 60.4609 20.4111 60.2055 20.0315L55.7338 13.3153C55.5073 12.9698 55.1219 12.7654 54.7123 12.7654ZM48.0337 19.4816V15.2523H54.057L56.871 19.4816H48.0337Z" fill="white"/>
</g>
</svg>
