<svg width="29" height="29" viewBox="0 0 29 29" fill="none" xmlns="http://www.w3.org/2000/svg">
<path d="M14.3502 0.700012C22.1653 0.700012 28.5002 7.0349 28.5002 14.85C28.5002 22.6651 22.1653 29 14.3502 29C6.53509 29 0.200195 22.6651 0.200195 14.85C0.200195 7.0349 6.53509 0.700012 14.3502 0.700012ZM19.2313 20.6177C19.4916 19.8191 20.7109 11.8607 20.8616 10.2925C20.9072 9.81753 20.7571 9.50192 20.463 9.36104C20.1074 9.19001 19.5808 9.27552 18.9699 9.49577C18.1319 9.79784 7.41977 14.3461 6.80086 14.6095C6.21394 14.8586 5.65902 15.1305 5.65902 15.5243C5.65902 15.8011 5.82328 15.9568 6.27608 16.1186C6.74734 16.2865 7.93409 16.6464 8.63482 16.8396C9.30972 17.026 10.0781 16.8642 10.5088 16.5966C10.9653 16.313 16.2334 12.7878 16.6117 12.479C16.9895 12.1701 17.2909 12.5657 16.9821 12.8752C16.6732 13.184 13.057 16.6938 12.5802 17.1798C12.0013 17.7698 12.4123 18.3814 12.8005 18.6262C13.244 18.9055 16.4339 21.0452 16.9144 21.3885C17.3949 21.7318 17.8822 21.8875 18.3282 21.8875C18.7742 21.8875 19.0092 21.2999 19.2313 20.6177Z" fill="#0088CC"/>
</svg>
