<svg width="32" height="28" viewBox="0 0 32 28" fill="none" xmlns="http://www.w3.org/2000/svg">
<g filter="url(#filter0_d_3115_12262)">
<path d="M6.34853 12.8391C6.34853 12.8391 16.0788 8.88767 19.4534 7.49636C20.7469 6.93983 25.134 5.15887 25.134 5.15887C25.134 5.15887 27.1587 4.37985 26.99 6.27192C26.9337 7.05108 26.4837 9.77808 26.0338 12.7277C25.3589 16.9018 24.6277 21.4652 24.6277 21.4652C24.6277 21.4652 24.5153 22.7453 23.5592 22.9679C22.6029 23.1906 21.0282 22.1888 20.7469 21.9661C20.522 21.7991 16.5287 19.2948 15.0665 18.0705C14.6727 17.7366 14.2227 17.0687 15.1227 16.2895C17.1474 14.4531 19.5659 12.1712 21.0282 10.7243C21.703 10.0563 22.378 8.49801 19.5659 10.3902C15.5726 13.1172 11.6355 15.6774 11.6355 15.6774C11.6355 15.6774 10.7357 16.2339 9.04843 15.733C7.36112 15.2321 5.39257 14.5643 5.39257 14.5643C5.39257 14.5643 4.04284 13.7294 6.34882 12.8391H6.34853Z" stroke="#0088CC"/>
</g>
<defs>
<filter id="filter0_d_3115_12262" x="0.2" y="0.200015" width="31.6" height="27.6" filterUnits="userSpaceOnUse" color-interpolation-filters="sRGB">
<feFlood flood-opacity="0" result="BackgroundImageFix"/>
<feColorMatrix in="SourceAlpha" type="matrix" values="0 0 0 0 0 0 0 0 0 0 0 0 0 0 0 0 0 0 127 0" result="hardAlpha"/>
<feOffset/>
<feGaussianBlur stdDeviation="2.15"/>
<feColorMatrix type="matrix" values="0 0 0 0 0 0 0 0 0 0.533333 0 0 0 0 0.8 0 0 0 1 0"/>
<feBlend mode="normal" in2="BackgroundImageFix" result="effect1_dropShadow_3115_12262"/>
<feBlend mode="normal" in="SourceGraphic" in2="effect1_dropShadow_3115_12262" result="shape"/>
</filter>
</defs>
</svg>
