<svg width="37" height="27" viewBox="0 0 37 27" fill="none" xmlns="http://www.w3.org/2000/svg">
<g filter="url(#filter0_d_3115_12261)">
<path d="M11.9037 12.1058C10.1945 9.50738 9.34375 6.77505 8.98179 5H5C5.68596 7.95458 7.56733 12.973 10.4049 16.7636C11.9603 18.8416 13.6496 20.1747 15.1108 20.9762C16.5956 21.7909 17.7896 22.028 18.3462 21.9974C18.3665 21.9964 18.3868 21.9961 18.4072 21.9966C18.6662 22.0034 18.9809 21.9279 19.2147 21.7254C19.418 21.5495 19.6647 21.1887 19.6647 20.3782V17.7928C19.6647 17.2949 19.8483 16.7919 20.2403 16.4692C20.6542 16.1284 21.1952 16.0796 21.6792 16.3179C22.193 16.571 22.7804 16.8945 23.1391 17.0999C23.1594 17.1116 23.1793 17.124 23.1985 17.1375C25.017 18.4055 26.769 20.4421 27.8797 21.9544C27.8947 21.9748 27.9093 21.9855 27.9188 21.9908C27.9283 21.9957 27.9339 21.9962 27.9366 21.9962H31.9599C31.9703 21.9962 31.9751 21.9947 31.976 21.9945C31.9771 21.994 31.9776 21.9939 31.9784 21.9934C31.9803 21.9918 31.9874 21.9857 31.9933 21.9718C31.9992 21.9578 32.001 21.9434 31.9995 21.9313C31.9986 21.9226 31.9954 21.9055 31.9754 21.8798C30.9766 20.5934 29.6486 19.0148 28.4915 17.6391C28.0809 17.1509 27.6918 16.6883 27.3465 16.2735C26.548 15.3141 26.4901 13.9061 27.105 12.8526C28.4525 10.5437 30.2259 7.22982 30.7731 5H27.5069C27.5048 5 27.4946 5.00002 27.4755 5.01426C27.4551 5.02956 27.4282 5.05953 27.4082 5.10768C26.2687 7.84095 23.867 11.2145 22.1191 12.9094C21.6302 13.3834 20.9729 13.459 20.4405 13.1316C19.9427 12.8254 19.6647 12.2401 19.6647 11.6188V5H15.393C15.4504 5.11329 15.5067 5.22948 15.5607 5.34785C15.8849 6.05643 16.1811 6.93881 16.1811 7.79053C16.1811 8.1546 16.1838 8.70557 16.1872 9.34893C16.1956 11.0289 16.2073 13.339 16.1808 14.597" stroke="#0077FF" stroke-linecap="round" stroke-linejoin="round"/>
</g>
<defs>
<filter id="filter0_d_3115_12261" x="0.2" y="0.2" width="36.6" height="26.6" filterUnits="userSpaceOnUse" color-interpolation-filters="sRGB">
<feFlood flood-opacity="0" result="BackgroundImageFix"/>
<feColorMatrix in="SourceAlpha" type="matrix" values="0 0 0 0 0 0 0 0 0 0 0 0 0 0 0 0 0 0 127 0" result="hardAlpha"/>
<feOffset/>
<feGaussianBlur stdDeviation="2.15"/>
<feComposite in2="hardAlpha" operator="out"/>
<feColorMatrix type="matrix" values="0 0 0 0 0 0 0 0 0 0.466667 0 0 0 0 1 0 0 0 1 0"/>
<feBlend mode="normal" in2="BackgroundImageFix" result="effect1_dropShadow_3115_12261"/>
<feBlend mode="normal" in="SourceGraphic" in2="effect1_dropShadow_3115_12261" result="shape"/>
</filter>
</defs>
</svg>
