<svg width="124" height="125" viewBox="0 0 124 125" fill="none" xmlns="http://www.w3.org/2000/svg">
<g id="Icons/Warehouse">
<path id="Vector" d="M104.433 107.332H20.1858C17.655 107.332 15.6004 105.277 15.6004 102.746V58.3121C15.6004 56.0635 13.7751 54.2382 11.5265 54.2382H10.3537C8.18448 54.2382 6.42969 52.4834 6.42969 50.3142V46.4607C6.42969 44.556 7.48785 42.81 9.17209 41.9282L53.906 18.5075C55.2728 17.7933 56.9041 17.8109 58.2532 18.5605L90.8094 36.6021" stroke="white" stroke-width="4.2086" stroke-linecap="round" stroke-linejoin="round"/>
<path id="Vector_2" d="M75.4407 76.3451H45.6445V98.7781H75.4407V76.3451Z" stroke="white" stroke-width="4.2086" stroke-linecap="round" stroke-linejoin="round"/>
<path id="Vector_3" d="M117.15 76.3451H87.3535V98.7781H117.15V76.3451Z" stroke="white" stroke-width="4.2086" stroke-linecap="round" stroke-linejoin="round"/>
<path id="Vector_4" d="M70.4663 47.5366H45.6523V66.222H70.4663V47.5366Z" stroke="white" stroke-width="4.2086" stroke-linecap="round" stroke-linejoin="round"/>
<path id="Vector_5" d="M105.219 47.5366H80.4053V66.222H105.219V47.5366Z" stroke="white" stroke-width="4.2086" stroke-linecap="round" stroke-linejoin="round"/>
<path id="Vector_6" d="M60.5371 76.6978V82.5706" stroke="white" stroke-width="4.2086" stroke-linecap="round" stroke-linejoin="round"/>
<path id="Vector_7" d="M102.247 76.6978V82.5706" stroke="white" stroke-width="4.2086" stroke-linecap="round" stroke-linejoin="round"/>
<path id="Vector_8" d="M92.8115 47.5366V52.6422" stroke="white" stroke-width="4.2086" stroke-linecap="round" stroke-linejoin="round"/>
<path id="Vector_9" d="M58.0684 47.5366V52.6422" stroke="white" stroke-width="4.2086" stroke-linecap="round" stroke-linejoin="round"/>
</g>
</svg>
