<svg width="61" height="14" viewBox="0 0 61 14" fill="none" xmlns="http://www.w3.org/2000/svg">
<g clip-path="url(#clip0_3255_12439)">
<path d="M27.88 13.3999C27.2 13.3999 26.57 13.3999 25.89 13.3999C25.89 9.80994 25.89 6.23994 25.89 2.54994C25.56 2.79994 25.32 2.97994 25.09 3.17994C24.04 4.09994 22.84 4.67994 21.42 4.71994C19.92 4.76994 18.64 4.21994 17.51 3.26994C17.25 3.04994 16.99 2.83994 16.63 2.54994C16.63 6.23994 16.63 9.80994 16.63 13.4299C15.99 13.4299 15.42 13.4399 14.85 13.4099C14.77 13.4099 14.63 13.1999 14.63 13.0799C14.61 12.3099 14.63 11.5399 14.63 10.7599C14.63 7.66994 14.64 4.57994 14.64 1.48994C14.64 0.979941 14.87 0.609941 15.26 0.319941C15.84 -0.100059 16.47 -0.110059 17.07 0.329941C17.69 0.789941 18.28 1.28994 18.88 1.77994C19.86 2.57994 20.96 2.96994 22.21 2.54994C22.71 2.37994 23.18 2.07994 23.62 1.76994C24.25 1.31994 24.83 0.809941 25.44 0.329941C25.94 -0.0600586 26.48 -0.0900586 27.04 0.189941C27.6 0.469941 27.89 0.929941 27.89 1.55994C27.89 5.11994 27.9 8.68994 27.9 12.2499C27.88 12.6199 27.88 12.9899 27.88 13.3999Z" fill="#FE0137"/>
<path d="M43.7199 13.4098C43.0199 13.4098 42.3899 13.4298 41.7599 13.3898C41.6299 13.3798 41.4599 13.1798 41.3999 13.0298C40.8699 11.8398 40.3599 10.6498 39.8699 9.44985C39.7199 9.08985 39.5399 8.93985 39.1299 8.94985C37.3299 8.97985 35.5199 8.96985 33.7199 8.95985C33.3899 8.95985 33.2099 9.05985 33.0799 9.37985C32.5599 10.6298 31.9999 11.8598 31.4699 13.1098C31.3699 13.3498 31.2499 13.4398 30.9899 13.4298C30.3999 13.4098 29.8099 13.4198 29.1499 13.4198C29.2999 13.0498 29.4199 12.7398 29.5599 12.4298C31.1099 8.84985 32.6699 5.27985 34.1999 1.68985C34.5799 0.809846 35.1499 0.219846 36.0999 0.0398462C37.0999 -0.150154 38.1499 0.449846 38.5899 1.45985C39.6599 3.91985 40.7199 6.37985 41.7799 8.83985C42.3499 10.1598 42.9199 11.4698 43.4899 12.7898C43.5599 12.9898 43.6299 13.1698 43.7199 13.4098ZM38.7199 6.91985C38.6899 6.79985 38.6899 6.74985 38.6699 6.69985C38.0399 5.25985 37.4199 3.81985 36.7799 2.38985C36.7199 2.24985 36.5399 2.06985 36.4299 2.07985C36.3099 2.08985 36.1599 2.26985 36.0899 2.41985C35.6099 3.47985 35.1499 4.54985 34.6899 5.61985C34.5099 6.03985 34.3499 6.45985 34.1599 6.92985C35.7099 6.91985 37.1899 6.91985 38.7199 6.91985Z" fill="#FE0137"/>
<path d="M5.52013 13.4201C5.52013 13.1701 5.52013 13.0101 5.52013 12.8501C5.52013 9.43006 5.52013 6.02006 5.52013 2.60006C5.52013 2.03006 5.52013 2.03006 4.93013 2.03006C3.42013 2.03006 1.92013 2.02006 0.410131 2.04006C0.100131 2.05006 -0.00986895 1.96006 0.000131049 1.63006C0.020131 1.12006 0.010131 0.600059 0.010131 0.0600586C4.35013 0.0600586 8.65013 0.0600586 12.9901 0.0600586C12.9901 0.700059 12.9901 1.35006 12.9901 2.04006C12.8101 2.04006 12.6601 2.04006 12.5001 2.04006C11.0201 2.04006 9.54013 2.05006 8.07013 2.02006C7.67013 2.01006 7.53013 2.12006 7.54013 2.54006C7.55013 5.98006 7.54013 9.43006 7.54013 12.8701C7.54013 13.4201 7.54013 13.4201 6.98013 13.4201C6.49013 13.4201 6.02013 13.4201 5.52013 13.4201Z" fill="#FE0137"/>
<path d="M60.2099 13.4898C58.6299 13.4198 57.0599 13.4698 55.5299 13.2498C53.9899 13.0298 52.7599 11.4498 52.7199 9.87984C52.6699 7.46984 52.6999 5.04984 52.6899 2.63984C52.6899 1.90984 52.6999 1.17984 52.6899 0.439839C52.6899 0.149839 52.7599 0.0198388 53.0799 0.0398388C53.5899 0.0598388 54.0999 0.0498388 54.6799 0.0498388C54.6799 0.289839 54.6799 0.489839 54.6799 0.679839C54.6799 3.56984 54.6899 6.45984 54.6899 9.33984C54.6899 9.98984 54.7999 10.6198 55.3899 10.9798C55.7399 11.1998 56.1799 11.3698 56.5899 11.3798C57.7799 11.4298 58.9699 11.3998 60.2099 11.3998C60.2099 12.0898 60.2099 12.7398 60.2099 13.4898Z" fill="#FE0137"/>
<path d="M51.0601 11.4099C51.0601 12.0999 51.0601 12.7299 51.0601 13.4199C49.4301 13.3999 47.7501 13.7099 46.4001 12.4099C45.6001 11.6399 45.1601 10.7199 45.1601 9.59994C45.1601 6.57994 45.1601 3.54994 45.1401 0.529941C45.1401 0.159941 45.2701 0.0499414 45.6001 0.0599414C45.9401 0.0699414 46.2801 0.0599414 46.6201 0.0599414C47.1601 0.0599414 47.1601 0.0599414 47.1601 0.619941C47.1601 3.42994 47.1601 6.22994 47.1601 9.03994C47.1601 9.19994 47.1601 9.36994 47.1601 9.52994C47.1801 10.6199 47.8801 11.3599 48.9801 11.4199C49.4801 11.4399 49.9801 11.4299 50.4801 11.4299C50.6601 11.4099 50.8401 11.4099 51.0601 11.4099Z" fill="#FE0137"/>
</g>
<defs>
<clipPath id="clip0_3255_12439">
<rect width="60.21" height="13.49" fill="white"/>
</clipPath>
</defs>
</svg>
