<svg width="63" height="71" viewBox="0 0 63 71" fill="none" xmlns="http://www.w3.org/2000/svg">
<g clip-path="url(#clip0_4543_13292)">
<path d="M37.0101 0C37.0901 0.03 37.1701 0.07 37.2501 0.08C38.2101 0.24 39.0201 0.68 39.7101 1.37C42.3501 4.02 45.0001 6.67 47.6501 9.32C48.2801 9.95 48.9001 10.57 49.5301 11.2C50.3901 12.06 50.8201 13.09 50.8201 14.3C50.8201 20.14 50.8201 25.98 50.8201 31.82C50.8201 32.01 50.8101 32.2 50.7501 32.37C50.6001 32.81 50.1401 33.08 49.6701 33.02C49.2101 32.96 48.8401 32.58 48.8001 32.11C48.7901 31.98 48.7901 31.84 48.7901 31.71C48.7901 25.96 48.7901 20.21 48.7901 14.46C48.7901 14.3 48.7701 14.14 48.7601 13.93C48.6001 13.93 48.4701 13.93 48.3401 13.93C46.3101 13.93 44.2801 13.93 42.2601 13.93C39.7401 13.92 37.6101 12.22 37.0701 9.75C36.9901 9.39 36.9601 9 36.9601 8.63C36.9501 6.61 36.9601 4.6 36.9601 2.58C36.9601 2.44 36.9601 2.3 36.9601 2.14C36.8401 2.12 36.7601 2.09 36.6801 2.09C36.5701 2.08 36.4601 2.08 36.3501 2.08C26.0801 2.08 15.8101 2.08 5.5401 2.08C5.0001 2.08 4.4801 2.13 4.0001 2.36C2.7501 2.95 2.1201 3.96 2.0401 5.33C2.0401 5.42 2.0401 5.51 2.0401 5.6C2.0401 23.8 2.0401 42.01 2.0401 60.21C2.0401 60.75 2.1001 61.28 2.3301 61.76C2.9401 63.01 3.9401 63.69 5.3301 63.7C8.8301 63.72 12.3301 63.71 15.8301 63.71C15.9601 63.71 16.1001 63.71 16.2301 63.71C16.7701 63.74 17.1801 64.18 17.1801 64.72C17.1801 65.26 16.7801 65.7 16.2401 65.74C16.1601 65.75 16.0801 65.74 16.0101 65.74C12.4301 65.74 8.8501 65.74 5.2701 65.74C2.6901 65.74 0.4701 63.84 0.0700998 61.3C0.0100998 60.94 9.98266e-05 60.57 9.98266e-05 60.21C9.98266e-05 42.9 9.98266e-05 25.6 9.98266e-05 8.29C9.98266e-05 7.3 -0.0199002 6.32 9.98266e-05 5.33C0.0500998 3.41 0.8901 1.91 2.5001 0.86C3.1401 0.43 3.8501 0.2 4.5901 0.08C4.7001 0.07 4.8001 0.03 4.9001 0C15.6101 0 26.3101 0 37.0101 0ZM47.2701 11.87C47.2001 11.77 47.1801 11.73 47.1501 11.7C44.4601 9.02 41.7701 6.33 39.0801 3.65C39.0701 3.64 39.0601 3.64 39.0501 3.64C39.0401 3.64 39.0301 3.65 39.0001 3.66C39.0001 3.74 38.9801 3.83 38.9801 3.91C38.9801 5.51 38.9801 7.1 38.9801 8.7C38.9801 8.87 38.9901 9.03 39.0201 9.2C39.3301 10.81 40.6401 11.89 42.3001 11.9C43.8301 11.91 45.3601 11.9 46.8901 11.9C46.9901 11.89 47.1001 11.88 47.2701 11.87Z" fill="white"/>
<path d="M25.4096 27.5699C19.8296 27.5699 14.2496 27.5699 8.65964 27.5699C8.47964 27.5699 8.29964 27.5699 8.13964 27.5199C7.63964 27.3799 7.36964 26.9199 7.43964 26.3899C7.49964 25.9399 7.89964 25.5799 8.36964 25.5499C8.47964 25.5399 8.58964 25.5499 8.69964 25.5499C19.8396 25.5499 30.9896 25.5499 42.1296 25.5499C42.2396 25.5499 42.3496 25.5499 42.4596 25.5499C42.9896 25.5799 43.3796 25.9999 43.3996 26.5299C43.4096 27.0699 43.0196 27.5199 42.4896 27.5699C42.3696 27.5799 42.2496 27.5699 42.1196 27.5699C36.5596 27.5699 30.9896 27.5699 25.4096 27.5699Z" fill="#F7941D"/>
<path d="M25.3797 21.1601C19.8497 21.1601 14.3297 21.1601 8.79967 21.1601C8.61967 21.1601 8.43967 21.1601 8.26967 21.1301C7.76967 21.0601 7.42967 20.6501 7.43967 20.1301C7.43967 19.6201 7.77967 19.2101 8.28967 19.1401C8.41967 19.1201 8.54967 19.1201 8.68967 19.1201C19.8497 19.1201 31.0197 19.1201 42.1797 19.1201C42.2797 19.1201 42.3797 19.1201 42.4797 19.1301C43.0397 19.1801 43.4197 19.6001 43.4197 20.1501C43.4197 20.6801 43.0397 21.0901 42.4997 21.1501C42.3497 21.1701 42.1897 21.1601 42.0397 21.1601C36.4697 21.1601 30.9297 21.1601 25.3797 21.1601Z" fill="#F7941D"/>
<path d="M16.9199 13.93C14.1799 13.93 11.4499 13.93 8.70988 13.93C8.59988 13.93 8.48988 13.94 8.37988 13.93C7.80988 13.88 7.41988 13.45 7.42988 12.89C7.43988 12.33 7.83988 11.93 8.41988 11.9C8.53988 11.89 8.65988 11.9 8.78988 11.9C14.2199 11.9 19.6499 11.9 25.0699 11.9C25.2199 11.9 25.3799 11.9 25.5299 11.91C25.9999 11.96 26.3699 12.34 26.4199 12.8C26.4699 13.3 26.1799 13.74 25.7199 13.87C25.5499 13.92 25.3699 13.93 25.1999 13.93C22.4399 13.93 19.6799 13.93 16.9199 13.93Z" fill="#F7941D"/>
<path d="M54.6198 56.5304C55.0098 56.3004 55.3798 56.1004 55.7298 55.8704C55.9298 55.7404 56.0998 55.7404 56.3198 55.8104C57.4498 56.1804 58.5498 56.0704 59.5898 55.4804C60.3298 55.0604 61.0598 54.6104 61.7898 54.1804C62.0798 54.0104 62.3298 53.7904 62.5098 53.5004C63.0198 52.6804 63.0198 51.8504 62.5298 51.0204C61.1498 48.6804 59.7698 46.3504 58.3798 44.0204C56.8398 41.4204 55.2998 38.8204 53.7498 36.2204C53.0798 35.1004 51.7598 34.7604 50.6298 35.4104C49.8898 35.8404 49.1498 36.2604 48.4298 36.7204C47.1998 37.5004 46.5598 38.6404 46.5298 40.1004C46.5198 40.5304 46.6098 40.9504 46.6498 41.4404C46.1998 41.6104 45.7198 41.6804 45.2298 41.6204C44.5798 41.5304 43.9798 41.2704 43.3698 41.0304C42.9198 40.8504 42.4698 40.6504 42.0098 40.4904C41.0998 40.1704 40.1798 40.1204 39.2398 40.3704C38.0598 40.6804 36.8798 40.9604 35.6998 41.2704C35.6498 41.2804 35.6098 41.2804 35.5698 41.2804C34.8198 41.6504 34.0398 42.1004 33.4498 42.5704C33.4698 42.5804 33.4898 42.5804 33.4998 42.5904C33.4298 42.6904 33.3898 42.7804 33.3298 42.8504C32.6598 43.7204 32.3398 44.7104 32.3398 45.8204C32.3498 47.3404 32.3398 48.8604 32.3398 50.3704C32.3398 51.4004 33.0598 52.2904 34.0698 52.4804C34.6698 52.5904 35.2598 52.5204 35.8398 52.3404C36.7098 52.0704 37.3998 51.5904 37.9498 50.9604C38.1998 50.6004 38.5298 50.0904 38.8498 49.5104C38.8598 49.4804 38.8698 49.4604 38.8898 49.4304C39.2098 48.8404 39.5098 48.1804 39.6798 47.5404C39.3798 47.3604 39.0798 47.1804 38.7698 47.0004C38.5498 46.8704 38.3298 46.7504 38.0598 46.7604C37.5698 46.7804 37.1698 47.1304 37.1098 47.6104C37.0698 47.9304 37.0698 48.2504 36.9998 48.5604C36.7398 49.6504 35.8198 50.4304 34.7098 50.5104C34.4398 50.5304 34.3698 50.4804 34.3498 50.2104C34.3498 50.1804 34.3398 50.1404 34.3398 50.1104C34.3498 48.6004 34.3298 47.1004 34.3598 45.5904C34.3898 44.4404 35.1398 43.5004 36.2598 43.1904C37.1998 42.9304 38.1398 42.7004 39.0898 42.4604C39.2898 42.4104 39.4998 42.3704 39.6998 42.3104C40.2498 42.1404 40.7998 42.1704 41.3298 42.3704C41.7698 42.5304 42.1898 42.7204 42.6298 42.8904C43.2798 43.1404 43.9198 43.4304 44.6098 43.5504C45.5298 43.7104 46.4398 43.6604 47.3298 43.3404C47.4298 43.3004 47.5398 43.2804 47.6698 43.2404C47.8198 43.5004 47.9698 43.7504 48.1198 43.9904C48.1898 44.1104 48.2598 44.2404 48.3498 44.3604C48.6598 44.8004 49.2098 44.9304 49.6698 44.6704C50.1198 44.4204 50.2998 43.8604 50.0798 43.3704C50.0398 43.2804 49.9898 43.1904 49.9398 43.1104C49.5698 42.4904 49.1998 41.8704 48.8398 41.2504C48.2198 40.1904 48.5198 39.0104 49.5698 38.3804C50.2098 38.0004 50.8498 37.6204 51.4898 37.2504C51.8398 37.0404 51.8898 37.0604 52.1098 37.4204C53.2998 39.4204 54.4798 41.4204 55.6698 43.4204C57.3398 46.2404 59.0098 49.0604 60.6798 51.8804C60.9498 52.3404 60.9498 52.3504 60.4898 52.6204C59.8498 53.0004 59.2198 53.3904 58.5698 53.7504C57.7698 54.2004 56.8198 54.0904 56.1698 53.4604C55.9998 53.2904 55.8598 53.0904 55.7298 52.8804C54.6898 51.1304 53.6498 49.3804 52.6098 47.6204C52.4698 47.3804 52.2998 47.1604 52.0298 47.0604C51.6298 46.9104 51.2598 46.9904 50.9598 47.2804C50.6798 47.5504 50.5898 48.0104 50.7498 48.3904C50.7998 48.5004 50.8598 48.6104 50.9198 48.7104C51.9998 50.5404 53.0898 52.3704 54.1698 54.2004C54.1998 54.2504 54.2198 54.3004 54.2698 54.3904C54.1198 54.4804 53.9898 54.5604 53.8598 54.6404C53.5998 54.7904 53.3298 54.9304 53.0998 55.1104C52.8798 55.2904 52.6998 55.2504 52.4798 55.1204C52.4398 55.0904 52.3898 55.0704 52.3398 55.0404C52.5498 55.2204 52.6698 55.3204 52.6698 55.3204C52.6698 55.3204 53.9798 55.8704 55.0498 57.3104C54.9698 57.1504 54.8898 56.9904 54.7798 56.8404C54.7498 56.7404 54.6898 56.6504 54.6198 56.5304Z" fill="white"/>
<path d="M17.5701 54.0702C17.4001 54.0602 17.2701 53.9402 17.1301 53.8502C17.1201 53.8202 17.1101 53.8102 17.1101 53.8002C17.1101 53.7902 17.1101 53.7802 17.1101 53.7702C17.1401 53.7102 17.1601 53.6502 17.1901 53.5902C19.3201 50.0002 21.4501 46.4102 23.5801 42.8202C23.6001 42.7902 23.6301 42.7702 23.6701 42.7302C23.7701 42.7802 23.8701 42.8302 23.9801 42.8902C25.4701 43.7402 27.0101 43.8602 28.6101 43.2602C29.3401 42.9902 30.0601 42.7002 30.7801 42.4302C31.3001 42.2302 31.8401 42.1002 32.4001 42.1902C32.7701 42.2502 33.1101 42.3702 33.4701 42.5602C34.0501 42.0902 34.8401 41.6402 35.5901 41.2702C35.4701 41.2802 35.3701 41.2602 35.2501 41.2002C34.8601 40.9902 34.4701 40.7902 34.0601 40.6102C33.4201 40.3202 32.7501 40.1602 32.0301 40.1602C31.2401 40.1602 30.5001 40.3802 29.7701 40.6602C29.1201 40.9102 28.4701 41.1702 27.8201 41.4102C27.2701 41.6102 26.7101 41.6902 26.1201 41.5802C25.6101 41.4902 25.1601 41.2602 24.7201 41.0002C24.5301 40.8902 24.4501 40.7702 24.4701 40.5302C24.5701 38.9902 24.0401 37.7102 22.7501 36.8302C21.9501 36.2802 21.1001 35.8002 20.2401 35.3302C19.2201 34.7702 17.9501 35.1302 17.3201 36.1102C17.2501 36.2202 17.1801 36.3402 17.1101 36.4502C15.3601 39.4002 13.6101 42.3602 11.8601 45.3102C10.7301 47.2202 9.60012 49.1202 8.47012 51.0302C7.79012 52.1802 8.12012 53.5102 9.27012 54.2002C9.97012 54.6202 10.6801 55.0402 11.3901 55.4502C12.1901 55.9102 13.0501 56.1002 13.9801 55.9702C14.5001 55.9002 14.9901 55.7302 15.4501 55.4802C15.5401 55.4302 15.6601 55.3902 15.7501 55.4202C15.8701 55.4602 15.9801 55.5502 16.1201 55.6402C16.5801 55.1102 17.0701 54.5602 17.5701 54.0702ZM15.2801 52.8802C14.9901 53.3802 14.6001 53.7502 14.0401 53.9202C13.4701 54.0902 12.9201 54.0202 12.4101 53.7102C11.7501 53.3202 11.0901 52.9302 10.4401 52.5402C10.1101 52.3402 10.0901 52.2802 10.3001 51.9302C11.5001 49.9002 12.7001 47.8702 13.9101 45.8402C15.5601 43.0602 17.2101 40.2802 18.8601 37.4902C18.8901 37.4402 18.9201 37.3902 18.9401 37.3502C19.1401 37.0302 19.2001 37.0102 19.5201 37.2102C20.1801 37.6002 20.8401 37.9802 21.4901 38.3802C22.1501 38.7802 22.4801 39.3702 22.5001 40.1402C22.5201 40.5702 22.3601 40.9402 22.1501 41.3002C21.1101 43.0502 20.0701 44.8102 19.0301 46.5602C17.7701 48.6702 16.5201 50.7702 15.2801 52.8802Z" fill="#F7941D"/>
<path d="M55.0703 57.29C54.0003 55.85 52.6903 55.3 52.6903 55.3C52.6903 55.3 52.5703 55.2 52.3603 55.02C51.4403 54.46 50.5103 53.92 49.5803 53.37C46.2903 51.42 43.0003 49.47 39.7103 47.52C39.5403 48.16 39.2403 48.82 38.9203 49.41C39.0403 49.47 39.1603 49.53 39.2703 49.59C41.2003 50.73 43.1403 51.88 45.0703 53.03C47.5403 54.49 50.0103 55.95 52.4703 57.41C52.5603 57.46 52.6403 57.51 52.7303 57.56C53.4203 58.01 53.6203 58.85 53.2003 59.54C52.8003 60.21 51.9603 60.44 51.2603 60.05C50.5803 59.67 49.9203 59.27 49.2603 58.87C46.9003 57.47 44.5303 56.07 42.1703 54.67C41.9503 54.54 41.7303 54.43 41.4603 54.44C41.0503 54.46 40.7103 54.68 40.5603 55.06C40.4103 55.44 40.5003 55.88 40.8003 56.16C40.9103 56.26 41.0303 56.33 41.1503 56.4C43.3703 57.72 45.5903 59.03 47.8103 60.34C48.1903 60.56 48.4803 60.84 48.6003 61.28C48.7603 61.86 48.6003 62.36 48.1603 62.75C47.7203 63.14 47.2003 63.23 46.6403 63C46.4803 62.93 46.3303 62.83 46.1703 62.74C44.0303 61.47 41.8803 60.2 39.7403 58.93C39.6303 58.86 39.5103 58.79 39.3903 58.74C38.9103 58.52 38.3503 58.69 38.0903 59.14C37.8303 59.6 37.9503 60.15 38.3903 60.47C38.5903 60.61 38.8003 60.73 39.0103 60.85C40.5003 61.73 41.9803 62.61 43.4703 63.49C43.8803 63.73 44.1703 64.05 44.2703 64.54C44.3703 65.09 44.2003 65.55 43.7903 65.91C43.3703 66.27 42.8903 66.37 42.3603 66.17C42.2203 66.12 42.0803 66.04 41.9503 65.96C40.4603 65.08 38.9803 64.2 37.4903 63.32C37.1903 63.14 36.9003 63.03 36.5503 63.14C36.1503 63.26 35.9103 63.54 35.8403 63.94C35.7703 64.33 35.9103 64.66 36.2303 64.9C36.4003 65.03 36.5903 65.12 36.7703 65.23C37.3003 65.55 37.8503 65.85 38.3703 66.18C39.2403 66.74 39.2803 67.94 38.4703 68.55C38.0203 68.89 37.5003 68.98 37.0003 68.71C36.1803 68.27 35.3903 67.77 34.6003 67.3C34.5703 67.28 34.5603 67.25 34.5203 67.2C34.8603 66.61 35.0403 66.01 35.0503 65.39C34.9503 66.5 34.3703 68.25 32.0703 69.82C32.5203 69.61 32.9303 69.3 33.3003 68.89C33.4403 68.97 33.5603 69.03 33.6703 69.1C34.3803 69.52 35.0803 69.93 35.7803 70.35C36.3603 70.69 36.9703 70.86 37.6503 70.85C39.2703 70.83 40.6303 69.71 40.9703 68.12C40.9903 68.02 41.0303 67.92 41.0603 67.79C42.2103 68.38 43.3303 68.44 44.4503 67.87C45.5803 67.29 46.1603 66.31 46.3203 65.04C47.3603 65.23 48.3103 65.11 49.1703 64.51C50.0303 63.91 50.4803 63.07 50.6503 62.03C50.7903 62.07 50.9003 62.09 51.0003 62.12C51.5803 62.28 52.1603 62.3 52.7403 62.16C55.0303 61.62 56.0003 59.2 55.0703 57.29Z" fill="#F7941D"/>
<path d="M35.0597 65.4105C35.0697 64.9305 34.9797 64.4505 34.7597 63.9505C34.2697 62.8305 33.3797 62.1905 32.1697 61.9105C32.1997 61.7805 32.2197 61.6605 32.2497 61.5505C32.6197 60.0805 32.0497 58.5905 30.7997 57.7705C30.2397 57.4005 29.6197 57.2105 28.9497 57.2205C28.8097 57.2205 28.6597 57.2305 28.5197 57.2305C28.3997 57.2405 28.3297 57.1905 28.2997 57.0705C28.2697 56.9605 28.2497 56.8505 28.2097 56.7505C27.7397 55.3905 26.7897 54.5905 25.3697 54.3705C24.3697 54.2205 23.4897 54.5105 22.6997 55.1305C22.6197 55.1905 22.5497 55.2505 22.4397 55.3405C22.3697 55.2605 22.3097 55.1905 22.2497 55.1205C21.1897 53.6605 19.4197 53.2005 17.7997 54.0105C17.6997 54.0605 17.6197 54.0705 17.5497 54.0605C17.0497 54.5505 16.5597 55.0905 16.1197 55.6305C16.1297 55.6305 16.1297 55.6405 16.1397 55.6405C16.0597 55.7605 16.0097 55.8505 15.9497 55.9405C15.6897 56.3005 15.4297 56.6605 15.1797 57.0205C14.5797 57.8905 14.4097 58.8505 14.6697 59.8705C15.0697 61.4205 16.4297 62.4605 18.0397 62.4605C18.2097 62.4605 18.3897 62.4605 18.5797 62.4605C18.6197 62.6005 18.6497 62.7305 18.6897 62.8505C19.1197 64.3105 20.4597 65.3205 21.9897 65.3205C22.1897 65.3205 22.3797 65.3205 22.5797 65.3205C22.8197 66.4105 23.3797 67.2405 24.3497 67.7705C25.3197 68.3005 26.3397 68.3005 27.3897 67.9205C27.9197 69.1105 28.7897 69.8905 30.0697 70.0905C30.8097 70.2105 31.4897 70.1105 32.0897 69.8205C34.3697 68.2605 34.9497 66.5205 35.0597 65.4105ZM19.1397 59.9205C18.8697 60.2905 18.4797 60.4605 17.9097 60.4605C17.4597 60.4505 17.0297 60.2105 16.7597 59.7305C16.4897 59.2505 16.4697 58.7405 16.7797 58.2805C17.2597 57.5505 17.7697 56.8405 18.3097 56.1505C18.7897 55.5405 19.6497 55.4605 20.2697 55.9105C20.8697 56.3605 21.0497 57.2005 20.6297 57.8305C20.1497 58.5505 19.6497 59.2405 19.1397 59.9205ZM23.1497 62.7505C22.5897 63.4805 21.5597 63.5305 20.9397 62.8705C20.6797 62.5905 20.5497 62.2605 20.5597 61.8605C20.5497 61.5805 20.6397 61.3105 20.8097 61.0705C21.7997 59.6905 22.7797 58.3105 23.7697 56.9405C24.1397 56.4305 24.7497 56.2505 25.3397 56.4205C25.9297 56.6005 26.3497 57.1205 26.3797 57.7405C26.3997 58.0905 26.2697 58.4105 26.0597 58.7005C25.4997 59.4805 24.9397 60.2605 24.3797 61.0505C23.9697 61.6205 23.5797 62.1905 23.1497 62.7505ZM27.2297 65.5005C26.9197 65.9305 26.5197 66.1905 25.9697 66.1805C25.4097 66.1705 24.9897 65.9205 24.7197 65.4405C24.4397 64.9305 24.4597 64.4105 24.7897 63.9305C25.1197 63.4305 25.4797 62.9605 25.8297 62.4705C26.4497 61.6105 27.0697 60.7405 27.6897 59.8805C27.8997 59.5905 28.1597 59.3805 28.4997 59.2805C29.0597 59.1205 29.6597 59.3005 30.0297 59.7405C30.4097 60.2005 30.4697 60.8305 30.1797 61.3605C30.1297 61.4505 30.0797 61.5305 30.0197 61.6105C29.0897 62.9105 28.1597 64.2005 27.2297 65.5005ZM32.7897 66.1605C32.4597 66.6305 32.1297 67.1005 31.7797 67.5605C31.2797 68.2105 30.4197 68.3305 29.7697 67.8705C29.1297 67.4005 28.9797 66.5405 29.4397 65.8705C29.7597 65.4005 30.0997 64.9305 30.4497 64.4705C30.8397 63.9605 31.4897 63.7705 32.0797 63.9905C32.6697 64.2005 33.0397 64.7405 33.0397 65.2905C33.0497 65.6505 32.9597 65.9205 32.7897 66.1605Z" fill="white"/>
</g>
<defs>
<clipPath id="clip0_4543_13292">
<rect width="62.9" height="70.87" fill="white"/>
</clipPath>
</defs>
</svg>
