<svg width="69" height="59" viewBox="0 0 69 59" fill="none" xmlns="http://www.w3.org/2000/svg">
<g clip-path="url(#clip0_4481_13543)">
<path d="M47.4075 52.6548L45.9132 47.9133C45.4719 46.5287 45.6323 45.0146 46.3645 43.7495L52.5624 27.8814C52.753 27.3335 53.0438 26.8255 53.4851 26.447C54.5281 25.5604 56.0626 25.3612 57.3262 26.0784C58.0985 26.5167 58.6701 27.2438 58.9008 28.0905L59.2418 29.3357" stroke="white" stroke-width="2" stroke-miterlimit="10" stroke-linecap="round" stroke-linejoin="round"/>
<path d="M59.9941 58.0039L58.1387 51.3C57.9582 50.6625 58.0485 49.9851 58.3794 49.4074L66.874 34.5951C67.2852 33.8779 67.3956 33.0312 67.1749 32.2343L67.9973 9.32363C67.556 7.73981 65.9112 6.80346 64.3166 7.24175C63.0831 7.58043 62.2306 8.63631 62.1203 9.84161L61.7492 13.846L59.5629 28.479C59.6732 28.9073 59.613 29.3555 59.3924 29.7341L55.7017 41.2591" stroke="white" stroke-width="2" stroke-miterlimit="10" stroke-linecap="round" stroke-linejoin="round"/>
<path d="M21.5823 52.6548L23.0767 47.9133C23.518 46.5287 23.3575 45.0146 22.6254 43.7495L16.4274 27.8814C16.2369 27.3335 15.946 26.8255 15.5047 26.447C14.4617 25.5604 12.9273 25.3612 11.6636 26.0784C10.8914 26.5167 10.3197 27.2438 10.089 28.0905L9.74805 29.3357" stroke="white" stroke-width="2" stroke-miterlimit="10" stroke-linecap="round" stroke-linejoin="round"/>
<path d="M9.00613 58.0041L10.8615 51.3002C11.042 50.6627 10.9518 49.9853 10.6208 49.4076L2.12619 34.5953C1.71499 33.8781 1.60467 33.0314 1.82531 32.2345L1.00293 9.31387C1.44421 7.73004 3.08898 6.79369 4.6836 7.23198C5.91717 7.57066 6.76965 8.62655 6.87997 9.83185L7.25104 13.8362L9.43738 28.4692C9.32706 28.8975 9.38723 29.3458 9.60787 29.7243L13.2986 41.2494" stroke="white" stroke-width="2" stroke-miterlimit="10" stroke-linecap="round" stroke-linejoin="round"/>
<path d="M48.2299 0.996094H20.7603V28.2797H48.2299V0.996094Z" stroke="#F7941D" stroke-width="2" stroke-miterlimit="10" stroke-linecap="round" stroke-linejoin="round"/>
<path d="M37.5989 0.996094H30.9897V9.9213H37.5989V0.996094Z" stroke="#F7941D" stroke-width="2" stroke-miterlimit="10" stroke-linecap="round" stroke-linejoin="round"/>
</g>
<defs>
<clipPath id="clip0_4481_13543">
<rect width="69" height="59" fill="white"/>
</clipPath>
</defs>
</svg>
