<svg width="48" height="66" viewBox="0 0 48 66" fill="none" xmlns="http://www.w3.org/2000/svg">
<g clip-path="url(#clip0_4207_13834)">
<path d="M46.08 1H1V64.19H46.08V1Z" stroke="white" stroke-width="2" stroke-miterlimit="10" stroke-linecap="round" stroke-linejoin="round"/>
<path d="M38.76 18.3601H20.23V19.9601H38.76V18.3601Z" fill="white"/>
<path d="M38.76 24.74H20.23V26.34H38.76V24.74Z" fill="white"/>
<path d="M23.0902 29.55H7.66016V31.15H23.0902V29.55Z" fill="#F7941D"/>
<path d="M23.0902 32.79H7.66016V34.39H23.0902V32.79Z" fill="#F7941D"/>
<path d="M23.0902 36.03H7.66016V37.63H23.0902V36.03Z" fill="#F7941D"/>
<path d="M38.76 40.6201H20.23V42.2201H38.76V40.6201Z" fill="white"/>
<path d="M38.76 43.6399H20.23V45.2399H38.76V43.6399Z" fill="white"/>
<path d="M38.7698 21.55H9.81982V23.15H38.7698V21.55Z" fill="white"/>
<path d="M31.3 57.3999C33.6528 57.3999 35.56 55.4926 35.56 53.1399C35.56 50.7871 33.6528 48.8799 31.3 48.8799C28.9473 48.8799 27.04 50.7871 27.04 53.1399C27.04 55.4926 28.9473 57.3999 31.3 57.3999Z" stroke="#F7941D" stroke-miterlimit="10"/>
<path d="M16.2202 6.6001V12.0301H14.1602V6.6001H16.2202Z" fill="#F7941D"/>
<path d="M20.86 12.13H20.58C19.94 12.13 19.39 12.07 18.91 11.94C18.43 11.81 18.06 11.66 17.79 11.47C17.52 11.28 17.31 11.06 17.14 10.8C16.97 10.54 16.87 10.3 16.82 10.08C16.77 9.85999 16.75 9.62999 16.75 9.38999V9.18999C16.75 8.94999 16.77 8.71999 16.82 8.49999C16.87 8.28999 16.97 8.04999 17.13 7.79999C17.29 7.54999 17.5 7.32999 17.77 7.13999C18.03 6.95999 18.41 6.79999 18.89 6.67999C19.37 6.55999 19.94 6.48999 20.59 6.48999H20.87C21.32 6.48999 21.74 6.51999 22.11 6.57999C22.49 6.63999 22.8 6.70999 23.06 6.80999C23.32 6.89999 23.54 7.00999 23.74 7.13999C23.94 7.26999 24.09 7.39999 24.2 7.52999C24.31 7.65999 24.4 7.79999 24.47 7.94999C24.54 8.09999 24.59 8.22999 24.61 8.34999C24.63 8.46999 24.64 8.57999 24.64 8.68999V8.77999H22.49C22.32 8.22999 21.73 7.94999 20.7 7.94999C19.49 7.94999 18.88 8.36999 18.88 9.21999V9.30999C18.88 9.46999 18.91 9.61999 18.96 9.76999C19.02 9.91999 19.11 10.06 19.24 10.2C19.37 10.34 19.56 10.45 19.81 10.54C20.06 10.62 20.36 10.66 20.7 10.66C21 10.66 21.27 10.63 21.49 10.58C21.71 10.53 21.89 10.46 22.01 10.39C22.13 10.32 22.22 10.24 22.3 10.14C22.38 10.04 22.42 9.96999 22.44 9.91999C22.45 9.87999 22.47 9.82999 22.48 9.76999H24.62V9.88999C24.62 10.06 24.6 10.22 24.55 10.4C24.5 10.57 24.39 10.77 24.23 10.98C24.06 11.2 23.85 11.39 23.59 11.55C23.33 11.71 22.96 11.85 22.49 11.96C22.03 12.08 21.48 12.13 20.86 12.13Z" fill="#F7941D"/>
<path d="M29.6504 10.3301H27.2004V12.0301H25.1304V6.6001H29.6504C31.3704 6.6001 32.2204 7.2001 32.2204 8.3901V8.5101C32.2304 9.7301 31.3704 10.3301 29.6504 10.3301ZM27.2004 7.9601V8.9701H29.4004C29.8604 8.9701 30.0904 8.8001 30.0904 8.4701V8.4601C30.0904 8.1301 29.8604 7.9601 29.4004 7.9601H27.2004Z" fill="#F7941D"/>
</g>
<defs>
<clipPath id="clip0_4207_13834">
<rect width="47.08" height="65.19" fill="white"/>
</clipPath>
</defs>
</svg>
