<svg width="64" height="65" viewBox="0 0 64 65" fill="none" xmlns="http://www.w3.org/2000/svg">
<g clip-path="url(#clip0_4541_13408)">
<path d="M44.21 63.3999L45.23 55.1499" stroke="#F7941D" stroke-width="2" stroke-miterlimit="10" stroke-linecap="round" stroke-linejoin="round"/>
<path d="M50.8503 63.4901L49.5303 54.8101" stroke="#F7941D" stroke-width="2" stroke-miterlimit="10" stroke-linecap="round" stroke-linejoin="round"/>
<path d="M40.8401 48.3H54.3101C58.7301 48.3 62.3201 51.8901 62.3201 56.3101V60.3601C62.3201 62.2301 60.8101 63.7401 58.9401 63.7401H36.2101C34.3401 63.7401 32.8301 62.2301 32.8301 60.3601V56.3101C32.8301 51.8801 36.4201 48.3 40.8401 48.3Z" stroke="white" stroke-width="2" stroke-miterlimit="10" stroke-linecap="round" stroke-linejoin="round"/>
<path d="M43.2305 52.1699L45.4505 54.8099H49.5305L51.1605 52.5599" stroke="#F7941D" stroke-width="2" stroke-miterlimit="10" stroke-linecap="round" stroke-linejoin="round"/>
<path d="M47.3604 48.6001L52.7704 53.5301L57.0204 49.1901" stroke="white" stroke-width="2" stroke-miterlimit="10" stroke-linecap="round" stroke-linejoin="round"/>
<path d="M47.1903 48.6001L41.7903 53.5301L37.5303 49.1901" stroke="white" stroke-width="2" stroke-miterlimit="10" stroke-linecap="round" stroke-linejoin="round"/>
<path d="M47.5198 48.6101C53.0481 48.6101 57.5298 44.1285 57.5298 38.6001C57.5298 33.0717 53.0481 28.5901 47.5198 28.5901C41.9914 28.5901 37.5098 33.0717 37.5098 38.6001C37.5098 44.1285 41.9914 48.6101 47.5198 48.6101Z" stroke="white" stroke-width="2" stroke-miterlimit="10" stroke-linecap="round" stroke-linejoin="round"/>
<path d="M44.5098 35.3601L50.5998 41.4501" stroke="#F7941D" stroke-width="2" stroke-miterlimit="10" stroke-linecap="round" stroke-linejoin="round"/>
<path d="M50.4905 35.21L44.2305 41.47" stroke="#F7941D" stroke-width="2" stroke-miterlimit="10" stroke-linecap="round" stroke-linejoin="round"/>
<path d="M11.4004 52.1699L13.6204 54.8099H17.7004L19.3304 52.5599" stroke="#F7941D" stroke-width="2" stroke-miterlimit="10" stroke-linecap="round" stroke-linejoin="round"/>
<path d="M15.5303 48.6001L20.9403 53.5301L25.1903 49.1901" stroke="white" stroke-width="2" stroke-miterlimit="10" stroke-linecap="round" stroke-linejoin="round"/>
<path d="M15.3602 48.6001L9.9602 53.5301L5.7002 49.1901" stroke="white" stroke-width="2" stroke-miterlimit="10" stroke-linecap="round" stroke-linejoin="round"/>
<path d="M12.3799 63.3999L13.3999 55.1499" stroke="#F7941D" stroke-width="2" stroke-miterlimit="10" stroke-linecap="round" stroke-linejoin="round"/>
<path d="M19.0202 63.4901L17.7002 54.8101" stroke="#F7941D" stroke-width="2" stroke-miterlimit="10" stroke-linecap="round" stroke-linejoin="round"/>
<path d="M15.6897 48.6101C21.2181 48.6101 25.6997 44.1285 25.6997 38.6001C25.6997 33.0717 21.2181 28.5901 15.6897 28.5901C10.1613 28.5901 5.67969 33.0717 5.67969 38.6001C5.67969 44.1285 10.1613 48.6101 15.6897 48.6101Z" stroke="white" stroke-width="2" stroke-miterlimit="10" stroke-linecap="round" stroke-linejoin="round"/>
<path d="M12.6699 38.8499L14.6799 40.9099L19.8799 35.8999" stroke="#F7941D" stroke-width="2" stroke-miterlimit="10" stroke-linecap="round" stroke-linejoin="round"/>
<path d="M16.9297 28.72C16.9297 24.3 20.5197 20.71 24.9397 20.71H38.3997C42.8197 20.71 46.4097 24.3 46.4097 28.72" stroke="white" stroke-width="2" stroke-miterlimit="10" stroke-linecap="round" stroke-linejoin="round"/>
<path d="M27.3301 24.5901L29.5401 27.2201H33.6301L35.2601 24.9801" stroke="#F7941D" stroke-width="2" stroke-miterlimit="10" stroke-linecap="round" stroke-linejoin="round"/>
<path d="M31.46 21.01L36.86 25.95L41.12 21.61" stroke="white" stroke-width="2" stroke-miterlimit="10" stroke-linecap="round" stroke-linejoin="round"/>
<path d="M31.2899 21.01L25.8799 25.95L21.6299 21.61" stroke="white" stroke-width="2" stroke-miterlimit="10" stroke-linecap="round" stroke-linejoin="round"/>
<path d="M29.3296 27.56L28.3096 35.82L31.5296 39.49L34.9496 35.9L33.6296 27.22" stroke="#F7941D" stroke-width="2" stroke-miterlimit="10" stroke-linecap="round" stroke-linejoin="round"/>
<path d="M31.6204 21.02C37.1487 21.02 41.6304 16.5384 41.6304 11.01C41.6304 5.48163 37.1487 1 31.6204 1C26.092 1 21.6104 5.48163 21.6104 11.01C21.6104 16.5384 26.092 21.02 31.6204 21.02Z" stroke="white" stroke-width="2" stroke-miterlimit="10" stroke-linecap="round" stroke-linejoin="round"/>
<path d="M28.5898 10.5999L30.6098 12.6699L35.7998 7.6499" stroke="#F7941D" stroke-width="2" stroke-miterlimit="10" stroke-linecap="round" stroke-linejoin="round"/>
<path d="M9.01 48.3H22.48C26.9 48.3 30.49 51.8901 30.49 56.3101V60.3601C30.49 62.2301 28.98 63.7401 27.11 63.7401H4.38C2.51 63.7401 1 62.2301 1 60.3601V56.3101C1 51.8801 4.59 48.3 9.01 48.3Z" stroke="white" stroke-width="2" stroke-miterlimit="10" stroke-linecap="round" stroke-linejoin="round"/>
</g>
<defs>
<clipPath id="clip0_4541_13408">
<rect width="63.32" height="64.74" fill="white"/>
</clipPath>
</defs>
</svg>
