<svg width="52" height="19" viewBox="0 0 52 19" fill="none" xmlns="http://www.w3.org/2000/svg">
<g clip-path="url(#clip0_3255_12423)">
<path d="M43.0302 8.21009C42.9102 8.15009 42.8402 8.10009 42.7602 8.06009C41.1402 7.26009 40.3902 5.81009 40.5802 4.00009C40.7702 2.12009 42.1502 0.560092 44.2502 0.180092C45.5102 -0.049908 46.7602 -0.039908 47.9902 0.340092C51.0402 1.28009 51.6602 4.48009 50.6502 6.42009C50.2702 7.15009 49.6902 7.67009 48.9702 8.05009C48.8902 8.09009 48.8202 8.13009 48.6902 8.20009C48.8102 8.26009 48.8802 8.30009 48.9502 8.34009C50.8902 9.24009 51.8402 10.9701 51.6402 13.0901C51.5002 14.5601 50.9502 15.8001 49.8202 16.7601C49.0302 17.4301 48.0902 17.8001 47.0802 17.9401C45.8502 18.1101 44.6402 18.0201 43.4602 17.5901C41.4102 16.8401 40.1702 15.0801 40.1202 12.9001C40.0902 11.4101 40.5002 10.1001 41.6402 9.09009C41.9702 8.80009 42.3902 8.59009 42.7602 8.35009C42.8302 8.31009 42.9102 8.27009 43.0302 8.21009ZM48.3502 12.4601C48.3702 12.4501 48.4002 12.4501 48.4202 12.4401C48.3202 12.0001 48.2802 11.5501 48.1202 11.1401C47.7502 10.2201 47.0302 9.70009 46.0302 9.63009C45.0102 9.57009 44.2202 9.96009 43.7602 10.9001C43.2402 11.9501 43.2602 13.0201 43.7802 14.0401C44.2002 14.8701 44.9302 15.3101 45.8802 15.3301C46.8102 15.3501 47.5102 14.9401 47.9802 14.1401C48.2702 13.6301 48.3602 13.0601 48.3502 12.4601ZM45.8302 6.96009C47.1502 6.96009 47.9602 6.12009 47.9602 4.77009C47.9602 3.52009 47.1002 2.66009 45.8502 2.66009C44.5602 2.67009 43.7002 3.53009 43.7102 4.82009C43.7102 6.14009 44.5302 6.96009 45.8302 6.96009Z" fill="#E87A3D"/>
<path d="M29.3502 8.21979C29.0702 8.06979 28.8402 7.94979 28.6202 7.80979C27.2602 6.93979 26.7702 5.65979 26.8902 4.09979C27.0102 2.66979 27.6902 1.57979 28.8902 0.809785C29.5602 0.389785 30.3002 0.179785 31.0802 0.0897852C32.2702 -0.0402148 33.4402 -0.0102148 34.5702 0.419785C36.4002 1.11979 37.4402 2.66979 37.4002 4.62979C37.3702 6.17979 36.6402 7.29979 35.2902 8.02979C35.2102 8.07979 35.1202 8.11979 34.9902 8.18979C35.1202 8.25978 35.2102 8.29979 35.3002 8.33979C37.2002 9.21979 38.1802 10.9998 37.9602 13.0898C37.8402 14.2598 37.4802 15.3198 36.6902 16.2098C35.8102 17.2098 34.6802 17.7498 33.3802 17.9198C32.1502 18.0898 30.9402 17.9998 29.7602 17.5598C27.7202 16.7998 26.4702 15.0398 26.4302 12.8598C26.4002 11.3898 26.8102 10.0798 27.9402 9.07979C28.2702 8.78979 28.6802 8.57979 29.0602 8.33979C29.1302 8.30979 29.2202 8.27979 29.3502 8.21979ZM34.7402 12.4598C34.6402 12.0098 34.5902 11.5398 34.4202 11.1198C34.0402 10.1998 33.3202 9.68979 32.3202 9.62979C31.2802 9.56979 30.5002 9.98979 30.0402 10.9398C29.5402 11.9898 29.5602 13.0498 30.0902 14.0598C30.5702 14.9698 31.3802 15.3998 32.4102 15.3298C33.3502 15.2598 34.0302 14.7698 34.3802 13.9098C34.5702 13.4698 34.6302 12.9598 34.7402 12.4598ZM32.1402 6.95979C33.4502 6.95979 34.2702 6.12979 34.2702 4.79979C34.2702 3.51979 33.4202 2.65979 32.1702 2.65979C30.8802 2.65979 30.0202 3.52979 30.0202 4.81979C30.0202 6.13979 30.8402 6.95979 32.1402 6.95979Z" fill="#E87A3D"/>
<path d="M24.1798 4.37991C23.0998 4.49991 22.0498 4.61991 20.9898 4.72991C20.9198 4.45991 20.8698 4.21991 20.7798 3.97991C20.2898 2.65991 18.6198 2.33991 17.5198 3.34991C16.9798 3.84991 16.7098 4.47991 16.5798 5.16991C16.4298 5.96991 16.3498 6.78991 16.2298 7.59991C16.2298 7.62991 16.2398 7.65991 16.2598 7.71991C16.3198 7.67991 16.3698 7.64991 16.3998 7.61991C17.8198 5.99991 20.1098 5.96991 21.6998 6.86991C23.3298 7.78991 24.2098 9.22991 24.4398 11.0699C24.5898 12.2899 24.5298 13.4899 24.0498 14.6299C23.2198 16.6099 21.7098 17.7299 19.5698 17.9599C17.4198 18.1899 15.6498 17.4699 14.3398 15.7399C13.6498 14.8299 13.2898 13.7699 13.0898 12.6599C12.6198 9.95991 12.6098 7.25991 13.3398 4.59991C13.8598 2.69991 14.9598 1.22991 16.8298 0.489907C18.5898 -0.200093 20.3598 -0.210093 22.0298 0.789907C23.2398 1.51991 23.8298 2.68991 24.1198 4.02991C24.1398 4.12991 24.1498 4.22991 24.1798 4.37991ZM21.3398 12.0999C21.2098 11.4699 21.1498 10.8299 20.9498 10.2399C20.6198 9.25991 19.7998 8.73991 18.7998 8.74991C17.8898 8.75991 17.0798 9.35991 16.7598 10.2999C16.3898 11.3999 16.4398 12.4999 16.8398 13.5799C17.0198 14.0499 17.3298 14.4399 17.7198 14.7599C18.8498 15.6699 20.4398 15.2799 20.9498 13.9199C21.1598 13.3499 21.2098 12.7099 21.3398 12.0999Z" fill="#E87A3D"/>
<path d="M4.29 5.00986C3.05 6.13986 1.64 6.96986 0.03 7.49986C0.02 7.38986 0.01 7.30986 0 7.22986C0 6.39986 0 5.56986 0 4.73986C0 4.54986 0.07 4.46986 0.25 4.39986C1.88 3.69986 3.31 2.74986 4.35 1.27986C4.57 0.969862 4.74 0.609862 4.9 0.259862C4.98 0.0798624 5.07 0.0198625 5.26 0.0298625C5.95 0.0398625 6.65 0.0298625 7.34 0.0298625C7.69 0.0298625 7.69 0.0298624 7.69 0.389862C7.69 5.39986 7.69 10.3999 7.69 15.4099C7.69 16.0599 7.68 16.7099 7.7 17.3599C7.71 17.6199 7.64 17.7199 7.36 17.7199C6.49 17.6999 5.61 17.7099 4.74 17.7099C4.37 17.7099 4.37 17.7099 4.37 17.3499C4.37 13.3599 4.37 9.37986 4.37 5.38986C4.37 5.27986 4.37 5.15986 4.37 5.04986C4.34 5.02986 4.31 5.01986 4.29 5.00986Z" fill="#E87A3D"/>
</g>
<defs>
<clipPath id="clip0_3255_12423">
<rect width="51.66" height="18.02" fill="white"/>
</clipPath>
</defs>
</svg>
