<svg width="66" height="64" viewBox="0 0 66 64" fill="none" xmlns="http://www.w3.org/2000/svg">
<path d="M42.5375 29.9499H38.8999C37.243 29.9499 35.8999 28.6068 35.8999 26.9499V19.8725C35.8999 18.0382 37.3869 16.5537 39.2187 16.5537C41.0531 16.5537 42.5375 18.0407 42.5375 19.8725V43.4979C42.5375 47.6323 49.1212 48.6665 49.1212 43.4979V42.0623C49.1212 41.414 49.6486 40.8866 50.2969 40.8866H63.1811C63.8295 40.8866 64.3569 41.414 64.3569 42.0623V43.7526C64.3569 45.5458 62.9033 46.9994 61.1101 46.9994H46.2371" stroke="white" stroke-width="2" stroke-linecap="round" stroke-linejoin="round"/>
<path d="M39.4297 16.5537H53.9965C56.2245 16.5537 58.0305 18.3598 58.0305 20.5878V40.8892" stroke="white" stroke-width="2" stroke-linecap="round" stroke-linejoin="round"/>
<path d="M46.8906 22.1675H53.3122" stroke="white" stroke-width="2" stroke-linecap="round" stroke-linejoin="round"/>
<path d="M46.8906 26.4663H53.3122" stroke="white" stroke-width="2" stroke-linecap="round" stroke-linejoin="round"/>
<path d="M46.8906 36.5874H53.3122" stroke="white" stroke-width="2" stroke-linecap="round" stroke-linejoin="round"/>
<path d="M29.0709 3.02251L3.5096 6.2544C2.07046 6.43536 1 7.55829 1 8.88306V55.025C1 56.3474 2.06537 57.468 3.49943 57.6536L29.0632 60.976C30.6143 61.1779 32 60.0805 32 58.6513V5.34956C32 3.92271 30.6193 2.82763 29.0709 3.02251Z" stroke="white" stroke-width="2" stroke-linecap="round" stroke-linejoin="round"/>
<path d="M45 47V56.5066C45 57.332 44.2938 58 43.4213 58H33" stroke="white" stroke-width="2" stroke-linecap="round" stroke-linejoin="round"/>
<path d="M32 6H43.3597C44.2663 6 45 6.65506 45 7.4644L45 16" stroke="white" stroke-width="2" stroke-linecap="round" stroke-linejoin="round"/>
<path d="M27.8833 35.0542V37.9074C27.8833 39.1052 26.9123 40.0762 25.7145 40.0762V40.0762C24.5167 40.0762 23.5457 39.1052 23.5457 37.9074V35.3012" stroke="white" stroke-width="2" stroke-linecap="round" stroke-linejoin="round"/>
<path d="M23.5457 30.315V27.3358C23.5457 26.138 24.5167 25.167 25.7145 25.167V25.167C26.9123 25.167 27.8833 26.138 27.8833 27.3358V30.3176" stroke="white" stroke-width="2" stroke-linecap="round" stroke-linejoin="round"/>
<path d="M25.7144 35.7872C27.4635 35.7872 28.8814 34.3693 28.8814 32.6202C28.8814 30.871 27.4635 29.4531 25.7144 29.4531C23.9653 29.4531 22.5474 30.871 22.5474 32.6202C22.5474 34.3693 23.9653 35.7872 25.7144 35.7872Z" stroke="white" stroke-width="2" stroke-linecap="round" stroke-linejoin="round"/>
</svg>
