<svg width="52" height="65" viewBox="0 0 52 65" fill="none" xmlns="http://www.w3.org/2000/svg">
<path d="M8.90232 8.6923L4.33201 25H1.03412L7.03265 6.09553H9.0841L8.90232 8.6923ZM12.5508 25L7.96749 8.6923L7.74676 6.09553H9.83716L15.8617 25H12.5508ZM12.6287 17.9757V20.6244H3.82564V17.9757H12.6287ZM27.7073 6.09553V25H24.5652V6.09553H27.7073ZM32.5243 6.09553V8.74423H19.8001V6.09553H32.5243ZM49.6283 22.3643V25H41.7731V22.3643H49.6283ZM42.604 6.09553V25H39.449V6.09553H42.604ZM8.2791 48.4826H4.4229L4.40991 46.0676H7.82466C8.35267 46.0676 8.80278 45.9637 9.17498 45.756C9.54719 45.5483 9.8285 45.2453 10.0189 44.8471C10.218 44.449 10.3176 43.9686 10.3176 43.4059C10.3176 42.7827 10.231 42.2763 10.0579 41.8868C9.88477 41.4886 9.61211 41.1987 9.2399 41.0169C8.87636 40.8351 8.40894 40.7442 7.83765 40.7442H5.35773V57H2.20266V38.0955H7.83765C8.72055 38.0955 9.50824 38.1994 10.2007 38.4071C10.9018 38.6062 11.4948 38.9135 11.9795 39.329C12.4642 39.7445 12.8321 40.2768 13.0831 40.926C13.3428 41.5665 13.4726 42.3283 13.4726 43.2112C13.4726 43.9815 13.3082 44.6913 12.9792 45.3405C12.6503 45.981 12.1613 46.5091 11.5121 46.9245C10.8715 47.3314 10.0752 47.5737 9.12305 47.6516L8.2791 48.4826ZM8.16224 57H3.38419L4.83838 54.3643H8.16224C8.72488 54.3643 9.18797 54.2431 9.55152 54.0007C9.91506 53.7584 10.1877 53.4208 10.3695 52.988C10.5513 52.5552 10.6422 52.0488 10.6422 51.4689C10.6422 50.863 10.5643 50.335 10.4084 49.8849C10.2526 49.4347 10.0016 49.0885 9.65539 48.8461C9.30915 48.6038 8.85039 48.4826 8.2791 48.4826H5.09806L5.12403 46.0676H9.18797L9.91506 46.9895C10.8239 47.0068 11.564 47.2318 12.1353 47.6646C12.7066 48.0888 13.1264 48.6384 13.3947 49.3136C13.6631 49.9887 13.7972 50.7115 13.7972 51.4819C13.7972 52.685 13.5722 53.6978 13.1221 54.5201C12.672 55.3337 12.0271 55.9526 11.1875 56.3768C10.3565 56.7923 9.3481 57 8.16224 57ZM27.889 38.0955V57H24.7469V38.0955H27.889ZM32.706 38.0955V40.7442H19.9819V38.0955H32.706ZM49.8101 54.3643V57H41.9549V54.3643H49.8101ZM42.7858 38.0955V57H39.6307V38.0955H42.7858Z" fill="white"/>
<path d="M1.47723 31.7612H50.2272" stroke="white" stroke-width="2"/>
</svg>
