<svg width="67" height="66" viewBox="0 0 67 66" fill="none" xmlns="http://www.w3.org/2000/svg">
<g clip-path="url(#clip0_2493_2137)">
<path d="M34.5918 60.141H4.70175C3.00916 60.141 1.63824 58.7701 1.63824 57.0775V4.70169C1.63824 3.0091 3.00916 1.63818 4.70175 1.63818H41.6553C43.3479 1.63818 44.7188 3.0091 44.7188 4.70169V27.4855" stroke="white" stroke-width="2" stroke-linecap="round" stroke-linejoin="round"/>
<path d="M50.9173 64.5551C63.9117 59.7071 65.4843 45.4976 65.3567 37.9894C65.3107 35.3369 63.1407 33.2129 60.4882 33.2129H39.881C37.2285 33.2129 35.0586 35.3344 35.0126 37.9894C34.885 45.4976 36.4576 59.7097 49.4519 64.5551C49.9242 64.7313 50.445 64.7313 50.9199 64.5551H50.9173Z" stroke="white" stroke-width="2" stroke-linecap="round" stroke-linejoin="round"/>
<path d="M44.6601 50.9557L47.3126 53.501L56.1151 42.3115" stroke="white" stroke-width="2" stroke-linecap="round" stroke-linejoin="round"/>
<path d="M8.27075 22.0845H38.0864" stroke="white" stroke-width="2" stroke-linecap="round" stroke-linejoin="round"/>
<path d="M8.27075 26.9097H38.0864" stroke="white" stroke-width="2" stroke-linecap="round" stroke-linejoin="round"/>
<path d="M8.27075 31.7373H30.6778" stroke="white" stroke-width="2" stroke-linecap="round" stroke-linejoin="round"/>
<path d="M8.27075 40.5371H26.9505" stroke="white" stroke-width="2" stroke-linecap="round" stroke-linejoin="round"/>
<path d="M8.27075 44.9639H26.9505" stroke="white" stroke-width="2" stroke-linecap="round" stroke-linejoin="round"/>
<path d="M8.27075 52.5181H14.9543" stroke="white" stroke-width="2" stroke-linecap="round" stroke-linejoin="round"/>
<path d="M10.5953 12.3887H8.90058L8.89489 11.1831H10.3394C10.5669 11.1831 10.7527 11.1452 10.8967 11.0693C11.0446 10.9897 11.1526 10.8741 11.2209 10.7224C11.2929 10.567 11.3289 10.3793 11.3289 10.1594C11.3289 9.90539 11.2967 9.70255 11.2323 9.5509C11.1678 9.39545 11.0635 9.28171 10.9195 9.20967C10.7754 9.13764 10.5877 9.10162 10.3565 9.10162H9.46928V16H7.80298V7.71967H10.3565C10.7697 7.71967 11.1394 7.76517 11.4654 7.85616C11.7915 7.94715 12.0683 8.08554 12.2957 8.27131C12.5232 8.45709 12.6957 8.69215 12.8133 8.97651C12.9346 9.26086 12.9952 9.59639 12.9952 9.98311C12.9952 10.3243 12.927 10.639 12.7905 10.9272C12.654 11.2153 12.4398 11.4504 12.1479 11.6324C11.8597 11.8143 11.4825 11.9167 11.0162 11.9395L10.5953 12.3887ZM10.5384 16H8.42855L9.09394 14.6237H10.5384C10.7583 14.6237 10.9365 14.5763 11.073 14.4816C11.2095 14.3868 11.3081 14.2598 11.3688 14.1005C11.4294 13.9375 11.4597 13.7517 11.4597 13.5432C11.4597 13.3081 11.4313 13.1034 11.3744 12.929C11.3214 12.7546 11.2323 12.6219 11.1071 12.5309C10.982 12.4361 10.8133 12.3887 10.601 12.3887H9.16787L9.17924 11.1831H10.9195L11.3119 11.6608C11.7555 11.6456 12.11 11.7309 12.3754 11.9167C12.6408 12.0987 12.8303 12.3375 12.9441 12.6333C13.0616 12.9252 13.1204 13.2361 13.1204 13.5659C13.1204 14.0967 13.0199 14.5441 12.8189 14.9081C12.6218 15.2683 12.3318 15.5412 11.9488 15.727C11.5659 15.909 11.0958 16 10.5384 16ZM14.116 7.71967H16.7718C17.3254 7.71967 17.7974 7.81445 18.1879 8.00402C18.5784 8.19359 18.8779 8.47415 19.0865 8.8457C19.295 9.21726 19.3992 9.67601 19.3992 10.222C19.3992 10.6693 19.3386 11.0523 19.2173 11.3707C19.0959 11.6854 18.9234 11.9489 18.6997 12.1612C18.4761 12.3698 18.2088 12.5366 17.8979 12.6617L17.3917 12.9631H15.2363L15.2306 11.5812H16.7263C16.9538 11.5812 17.1415 11.5319 17.2894 11.4333C17.441 11.3309 17.5529 11.1888 17.6249 11.0068C17.7007 10.821 17.7386 10.6049 17.7386 10.3585C17.7386 10.0969 17.7045 9.87316 17.6363 9.68739C17.5718 9.49782 17.4676 9.35375 17.3235 9.25517C17.1832 9.1528 16.9993 9.10162 16.7718 9.10162H15.7823V16H14.116V7.71967ZM17.8751 16L16.3567 12.3091L18.1026 12.3034L19.6552 15.9204V16H17.8751ZM23.3237 9.1983L21.5437 16H19.7864L22.374 7.71967H23.4716L23.3237 9.1983ZM24.7284 16L22.937 9.1983L22.7721 7.71967H23.8867L26.4971 16H24.7284ZM24.791 12.9119V14.2939H21.0546V12.9119H24.791ZM32.8442 7.71967V16H31.2348L28.6358 10.8191V16H27.0548V7.71967H28.6415L31.2632 12.9574V7.71967H32.8442ZM36.1146 16H34.6531L34.6645 14.6237H36.1146C36.5165 14.6237 36.8293 14.5517 37.053 14.4076C37.2767 14.2636 37.434 14.0361 37.525 13.7252C37.6198 13.4143 37.6672 13.0067 37.6672 12.5025V11.2115C37.6672 10.8286 37.6426 10.5044 37.5933 10.239C37.544 9.96984 37.4606 9.75373 37.343 9.59071C37.2255 9.42389 37.0682 9.30067 36.871 9.22105C36.6739 9.14143 36.4293 9.10162 36.1374 9.10162H34.6246V7.71967H36.1374C36.6151 7.71967 37.0492 7.79739 37.4397 7.95284C37.8302 8.10828 38.1658 8.33577 38.4463 8.63528C38.7269 8.93101 38.943 9.29688 39.0947 9.73288C39.2463 10.1689 39.3221 10.6656 39.3221 11.2229V12.5025C39.3221 13.0636 39.2463 13.5603 39.0947 13.9925C38.943 14.4247 38.7269 14.7906 38.4463 15.0901C38.1696 15.3858 37.834 15.6114 37.4397 15.7668C37.0454 15.9223 36.6037 16 36.1146 16ZM35.6199 7.71967V16H33.9536V7.71967H35.6199Z" fill="white"/>
</g>
<defs>
<clipPath id="clip0_2493_2137">
<rect width="67" height="66" fill="white"/>
</clipPath>
</defs>
</svg>
