<svg width="66" height="66" viewBox="0 0 66 66" fill="none" xmlns="http://www.w3.org/2000/svg">
<g clip-path="url(#clip0_2493_8594)">
<path d="M35.125 32.463H22.1728L13.8088 41.0503C12.352 42.5439 9.81054 41.5196 9.81054 39.4393V32.463H7.5641C3.9471 32.463 1.01538 29.5479 1.01538 25.9514V7.63967C1.01538 4.0432 3.9471 1.12811 7.5641 1.12811H35.1204C38.7374 1.12811 41.6692 4.0432 41.6692 7.63967V25.9514C41.6692 29.5479 38.7374 32.463 35.1204 32.463H35.125Z" stroke="white" stroke-width="2" stroke-linecap="round" stroke-linejoin="round"/>
<path d="M24.2116 32.9774V49.0645C24.2116 52.661 27.157 55.5761 30.7908 55.5761H43.8032L52.206 64.1634C53.6696 65.6571 56.2228 64.6327 56.2228 62.5524V55.5761H58.4797C62.1135 55.5761 65.0588 52.661 65.0588 49.0645V30.7528C65.0588 27.1563 62.1135 24.2412 58.4797 24.2412H42.294" stroke="white" stroke-width="2" stroke-linecap="round" stroke-linejoin="round"/>
<path d="M34.6088 42.8373C35.9422 42.8373 37.0232 41.7625 37.0232 40.4366C37.0232 39.1108 35.9422 38.0359 34.6088 38.0359C33.2754 38.0359 32.1945 39.1108 32.1945 40.4366C32.1945 41.7625 33.2754 42.8373 34.6088 42.8373Z" fill="white"/>
<path d="M44.6021 42.8282C45.9355 42.8282 47.0164 41.7534 47.0164 40.4276C47.0164 39.1017 45.9355 38.0269 44.6021 38.0269C43.2687 38.0269 42.1877 39.1017 42.1877 40.4276C42.1877 41.7534 43.2687 42.8282 44.6021 42.8282Z" fill="white"/>
<path d="M54.5954 42.8373C55.9288 42.8373 57.0097 41.7625 57.0097 40.4366C57.0097 39.1108 55.9288 38.0359 54.5954 38.0359C53.2619 38.0359 52.181 39.1108 52.181 40.4366C52.181 41.7625 53.2619 42.8373 54.5954 42.8373Z" fill="white"/>
<path d="M21.9319 20.0773H19.599C19.599 19.4117 19.6424 18.8475 19.7292 18.3845C19.8233 17.9144 19.9788 17.4912 20.1958 17.115C20.4128 16.7389 20.7058 16.341 21.0747 15.9214C21.3279 15.6104 21.563 15.3138 21.78 15.0317C22.0043 14.7423 22.1815 14.4421 22.3117 14.1311C22.4491 13.8128 22.5179 13.4439 22.5179 13.0243C22.5179 12.5758 22.46 12.196 22.3442 11.885C22.2285 11.5739 22.0621 11.3388 21.8451 11.1797C21.6281 11.0133 21.3568 10.9301 21.0313 10.9301C20.7854 10.9301 20.543 11.0025 20.3043 11.1471C20.0728 11.2846 19.8775 11.498 19.7184 11.7873C19.5592 12.0767 19.4797 12.4528 19.4797 12.9158H16.9406C16.9551 11.9971 17.1395 11.2267 17.494 10.6046C17.8557 9.98249 18.344 9.51591 18.9588 9.20486C19.5737 8.89381 20.2645 8.73828 21.0313 8.73828C21.8777 8.73828 22.5974 8.90466 23.1906 9.23741C23.791 9.56293 24.2504 10.0404 24.5686 10.6697C24.8869 11.299 25.0461 12.0514 25.0461 12.9266C25.0461 13.5705 24.9339 14.1492 24.7097 14.6628C24.4854 15.1764 24.1961 15.6574 23.8416 16.1059C23.4944 16.5472 23.1291 16.9848 22.7457 17.4188C22.4274 17.7878 22.214 18.1892 22.1055 18.6233C21.997 19.0501 21.9392 19.5347 21.9319 20.0773ZM19.4254 23.4627C19.4254 23.0576 19.5484 22.7176 19.7943 22.4427C20.0475 22.1606 20.3911 22.0195 20.8251 22.0195C21.2664 22.0195 21.61 22.1606 21.856 22.4427C22.1019 22.7176 22.2249 23.0576 22.2249 23.4627C22.2249 23.8605 22.1019 24.1969 21.856 24.4718C21.61 24.7467 21.2664 24.8841 20.8251 24.8841C20.3911 24.8841 20.0475 24.7467 19.7943 24.4718C19.5484 24.1969 19.4254 23.8605 19.4254 23.4627Z" fill="white"/>
</g>
<defs>
<clipPath id="clip0_2493_8594">
<rect width="66" height="66" fill="white"/>
</clipPath>
</defs>
</svg>
