<svg width="51" height="68" viewBox="0 0 51 68" fill="none" xmlns="http://www.w3.org/2000/svg">
<g clip-path="url(#clip0_2493_8794)">
<path d="M49.4539 66.1525L43.3414 54.0719L45.4011 47.4708C46.6336 43.5235 46.7502 39.3153 45.7509 35.3013L44.5683 30.5657L44.8404 19.018C40.7654 18.3129 38.045 20.95 38.045 24.703V36.0175C38.045 36.0175 30.4391 40.3535 29.4842 51.4958" stroke="white" stroke-width="2" stroke-linecap="round" stroke-linejoin="round"/>
<path d="M9.56438 19.44V6.22124C9.56438 3.81732 11.5131 1.8631 13.9225 1.8631H33.6868C36.0907 1.8631 38.0449 3.81177 38.0449 6.22124V32.9586" stroke="white" stroke-width="2" stroke-linecap="round" stroke-linejoin="round"/>
<path d="M25.1982 51.7901H13.9225C11.5186 51.7901 9.56438 49.8415 9.56438 47.432V43.7845" stroke="white" stroke-width="2" stroke-linecap="round" stroke-linejoin="round"/>
<path d="M14.9163 56.2316C17.0871 61.8999 23.7991 60.7341 23.7991 60.7341L26.092 65.2365" stroke="white" stroke-width="2" stroke-linecap="round" stroke-linejoin="round"/>
<path d="M22.4889 6.14349H25.1149" stroke="white" stroke-width="2" stroke-linecap="round" stroke-linejoin="round"/>
<path d="M6.59425 15.6537L2.81905 11.8785C1.52549 10.5849 1.52549 8.48633 2.81905 7.19277C4.11261 5.8992 6.21118 5.8992 7.50474 7.19277L9.56445 9.25247" stroke="white" stroke-width="2" stroke-linecap="round" stroke-linejoin="round"/>
<path d="M11.9017 21.6662L10.6081 20.3727C9.43116 19.1957 7.42697 19.2901 6.13341 20.5836C4.83985 21.8772 4.74547 23.8814 5.92244 25.0584L7.216 26.3519C8.39853 27.5344 10.4138 27.4345 11.7074 26.1243C12.9898 24.8307 13.0731 22.8376 11.9017 21.6662Z" stroke="white" stroke-width="2" stroke-linecap="round" stroke-linejoin="round"/>
<path d="M11.7796 29.6774L10.3084 28.2062C8.96483 26.8627 6.83295 26.8294 5.53939 28.1229C4.24582 29.4165 4.28469 31.5539 5.62266 32.8919L7.09388 34.3631C8.44296 35.7122 10.5915 35.7399 11.8795 34.4353C13.1564 33.1362 13.112 31.0154 11.7796 29.6774Z" stroke="white" stroke-width="2" stroke-linecap="round" stroke-linejoin="round"/>
<path d="M11.9905 37.894L10.5193 36.4228C9.1758 35.0793 7.04392 35.046 5.75036 36.3395C4.4568 37.6331 4.49566 39.7705 5.83364 41.1085L7.30486 42.5797C8.65394 43.9288 10.8025 43.9566 12.0905 42.6519C13.3674 41.3528 13.323 39.232 11.9905 37.894Z" stroke="white" stroke-width="2" stroke-linecap="round" stroke-linejoin="round"/>
</g>
<defs>
<clipPath id="clip0_2493_8794">
<rect width="50.4848" height="68" fill="white"/>
</clipPath>
</defs>
</svg>
