<svg width="64" height="64" viewBox="0 0 64 64" fill="none" xmlns="http://www.w3.org/2000/svg">
<g clip-path="url(#clip0_4541_13294)">
<path d="M47.0104 10.08L15.3904 1L12.6504 3.48L28.4104 15.05" stroke="#F7941D" stroke-width="2" stroke-miterlimit="10" stroke-linecap="round" stroke-linejoin="round"/>
<path d="M53.8196 16.8901L62.8996 48.5001L60.4096 51.2501L48.8496 35.4801" stroke="#F7941D" stroke-width="2" stroke-miterlimit="10" stroke-linecap="round" stroke-linejoin="round"/>
<path d="M24.9902 3.85018L26.8502 1.78018C27.6402 0.900185 28.9902 0.820185 29.8702 1.61018C30.7502 2.40018 30.8302 3.75018 30.0402 4.63018L29.7002 5.01018" stroke="#F7941D" stroke-width="2" stroke-miterlimit="10" stroke-linejoin="round"/>
<path d="M32.1904 5.93999L34.3004 3.57999C35.0904 2.69999 36.4404 2.61999 37.3204 3.40999C38.2004 4.19999 38.2804 5.54999 37.4904 6.42999L36.9004 7.08999" stroke="#F7941D" stroke-width="2" stroke-miterlimit="10" stroke-linejoin="round"/>
<path d="M59.6402 38.54L61.7402 36.66C62.6202 35.87 62.7002 34.52 61.9102 33.64C61.1202 32.76 59.7702 32.68 58.8902 33.47L58.2402 34.06" stroke="#F7941D" stroke-width="2" stroke-miterlimit="10" stroke-linejoin="round"/>
<path d="M57.7496 31.1699L59.9396 29.2099C60.8196 28.4199 60.8996 27.0699 60.1096 26.1899C59.3196 25.3099 57.9696 25.2299 57.0896 26.0199L56.5596 26.4899" stroke="#F7941D" stroke-width="2" stroke-miterlimit="10" stroke-linejoin="round"/>
<path d="M10.25 6.6499L1 15.7399" stroke="#F7941D" stroke-width="2" stroke-miterlimit="10" stroke-linecap="round" stroke-linejoin="round"/>
<path d="M14.1903 10.5098L8.28027 16.5098" stroke="#F7941D" stroke-width="2" stroke-miterlimit="10" stroke-linecap="round" stroke-linejoin="round"/>
<path d="M18.8202 13.6802L14.4502 18.0502" stroke="white" stroke-width="2" stroke-miterlimit="10" stroke-linecap="round" stroke-linejoin="round"/>
<path d="M56.9902 53.3901L47.9102 62.6401" stroke="#F7941D" stroke-width="2" stroke-miterlimit="10" stroke-linecap="round" stroke-linejoin="round"/>
<path d="M53.1299 49.4502L47.1299 55.3602" stroke="#F7941D" stroke-width="2" stroke-miterlimit="10" stroke-linecap="round" stroke-linejoin="round"/>
<path d="M17.3604 43.84L30.9904 27.1C32.4204 25.35 33.9104 23.65 35.4604 22.01L41.9904 15.11C44.1304 12.84 46.3903 10.69 48.7603 8.65999L52.3004 5.60999C54.0704 4.08999 56.0704 2.85999 58.2304 1.96999L58.3104 1.93999C59.3404 1.51999 60.4704 1.47999 61.5004 1.79999L62.0204 2.18999C62.4104 3.26999 62.4004 4.47999 61.9504 5.57999L61.9203 5.65999C61.0303 7.81999 59.8003 9.81999 58.2803 11.59L55.2304 15.13C53.2004 17.49 51.0403 19.75 48.7803 21.9L41.8804 28.43C40.2404 29.98 38.5404 31.47 36.7904 32.9L20.0504 46.53L17.3604 43.84Z" stroke="white" stroke-width="2" stroke-miterlimit="10" stroke-linecap="round" stroke-linejoin="round"/>
<path d="M25.6695 42.0401L28.5895 48.6301L25.5895 52.1501L11.0195 37.5801L14.0195 34.3301L21.7295 37.7501" stroke="white" stroke-width="2" stroke-miterlimit="10" stroke-linecap="round" stroke-linejoin="round"/>
<path d="M49.9598 44.8198L45.5898 49.1898" stroke="white" stroke-width="2" stroke-miterlimit="10" stroke-linecap="round" stroke-linejoin="round"/>
</g>
<defs>
<clipPath id="clip0_4541_13294">
<rect width="63.9" height="63.64" fill="white"/>
</clipPath>
</defs>
</svg>
