<svg width="178" height="44" viewBox="0 0 178 44" fill="none" xmlns="http://www.w3.org/2000/svg">
<g clip-path="url(#clip0_2143_10756)">
<path d="M105.605 44H17.5901C13.99 44 10.8146 41.662 9.75618 38.2398L0.2615 7.46438C-0.88399 3.7547 1.90488 0 5.80442 0H93.8191C97.4192 0 100.595 2.33803 101.653 5.76021L111.151 36.5356C112.297 40.2453 109.508 44 105.605 44Z" fill="#F09123"/>
<path d="M43.7932 11.6278L37.0944 33.3282C36.9829 33.6953 36.6417 33.9447 36.2553 33.9447H32.7422C32.3766 33.9447 32.0493 33.7196 31.9205 33.3767L28.1811 23.4011C28.0593 23.072 27.5927 23.072 27.4674 23.4011L23.7071 33.3801C23.5783 33.7196 23.251 33.9447 22.8854 33.9447H19.2331C18.8466 33.9447 18.5089 33.6953 18.394 33.3282L11.6951 11.6278C11.5211 11.0667 11.9423 10.4986 12.5342 10.4986H15.9254C16.3084 10.4986 16.6462 10.7445 16.7611 11.1082L21.4092 25.6941C21.5171 26.037 22.0045 26.0508 22.1299 25.7114L27.4883 11.3541C27.6101 11.0251 28.0802 11.0251 28.202 11.3541L33.536 25.6075C33.6614 25.9469 34.1488 25.9331 34.2568 25.5901L38.8317 11.1117C38.9466 10.748 39.2844 10.5021 39.6674 10.5021H42.9541C43.5425 10.5021 43.9638 11.0701 43.7932 11.6312V11.6278Z" fill="white"/>
<path d="M47.4421 33.1896V11.4026C47.4421 10.9212 47.8355 10.5298 48.3195 10.5298H51.6167C52.1006 10.5298 52.4941 10.9212 52.4941 11.4026V33.1896C52.4941 33.6711 52.1006 34.0625 51.6167 34.0625H48.3195C47.8355 34.0625 47.4421 33.6711 47.4421 33.1896Z" fill="white"/>
<path d="M66.6438 34.2772C64.4433 34.2772 62.5632 33.8824 61.0034 33.0892C59.6525 32.4033 58.4652 31.4439 57.4416 30.2108C57.1665 29.8817 57.1805 29.3968 57.466 29.0781L59.4401 26.8613C59.7952 26.4596 60.4324 26.4699 60.7701 26.8856C61.658 27.9663 62.5423 28.7283 63.4267 29.1682C64.5165 29.7155 65.6863 29.9891 66.9432 29.9891C67.6396 29.9891 68.2628 29.8887 68.8129 29.6878C69.363 29.4869 69.8017 29.2063 70.1255 28.8495C70.4493 28.4928 70.613 28.0806 70.613 27.6095C70.613 27.2527 70.5329 26.9237 70.3762 26.6223C70.2195 26.321 69.9932 26.0543 69.7042 25.8188C69.4118 25.5832 69.0636 25.3719 68.6597 25.1814C68.2558 24.9909 67.8067 24.8281 67.3123 24.6965C66.8179 24.5614 66.2782 24.4402 65.6968 24.3293C64.4399 24.0626 63.3396 23.7163 62.3961 23.2902C61.4525 22.8676 60.6692 22.3515 60.039 21.7489C59.4088 21.1462 58.9457 20.4499 58.6428 19.6567C58.3399 18.8635 58.1867 17.9768 58.1867 16.9931C58.1867 15.6076 58.5801 14.3988 59.3635 13.3597C60.1504 12.3205 61.1914 11.5065 62.4936 10.9142C63.7957 10.3219 65.2302 10.0275 66.804 10.0275C68.9348 10.0275 70.6931 10.3843 72.0718 11.0978C73.2243 11.6936 74.1817 12.4903 74.9512 13.4913C75.2158 13.8342 75.1671 14.326 74.8572 14.6308L72.8448 16.5913C72.4896 16.9377 71.9117 16.9204 71.5809 16.5498C71.0308 15.9367 70.425 15.4483 69.7634 15.0846C68.8651 14.5927 67.9007 14.3468 66.8666 14.3468C66.1494 14.3468 65.5157 14.4403 64.9656 14.6308C64.4155 14.8214 63.9942 15.0985 63.7017 15.4691C63.4093 15.8362 63.263 16.2692 63.263 16.7576C63.263 17.1594 63.364 17.5162 63.566 17.8279C63.7679 18.1396 64.0534 18.4133 64.4259 18.6488C64.795 18.8843 65.2511 19.0887 65.7908 19.2688C66.3304 19.4489 66.9258 19.5944 67.5769 19.7052C68.8094 19.9512 69.9236 20.2802 70.9089 20.6924C71.8977 21.1046 72.7438 21.6034 73.4506 22.1818C74.1574 22.7637 74.7005 23.4322 75.0835 24.1908C75.4665 24.9494 75.6545 25.798 75.6545 26.7367C75.6545 28.323 75.2715 29.6739 74.509 30.7892C73.7465 31.9046 72.6916 32.7636 71.3441 33.3697C69.9967 33.9724 68.4264 34.2738 66.6299 34.2738L66.6438 34.2772Z" fill="white"/>
<path d="M99.6959 29.525L101.04 33.9447H81.1208C80.6369 33.9447 80.2434 33.5533 80.2434 33.0718V11.3715C80.2434 10.89 80.6369 10.4986 81.1208 10.4986H92.3459C92.715 10.4986 93.0458 10.7307 93.1711 11.077L94.139 13.7511C94.3444 14.3191 93.9197 14.9183 93.3139 14.9183H86.0753C85.5914 14.9183 85.1979 15.3097 85.1979 15.7912V18.9709C85.1979 19.4524 85.5914 19.8438 86.0753 19.8438H96.0749L97.579 24.1319H86.0753C85.5914 24.1319 85.1979 24.5233 85.1979 25.0048V28.6521C85.1979 29.1336 85.5914 29.525 86.0753 29.525H99.6994H99.6959Z" fill="white"/>
<path d="M120.085 33.0719V15.8917C120.085 15.4102 119.691 15.0188 119.207 15.0188H114.159C113.675 15.0188 113.282 14.6274 113.282 14.146V11.368C113.282 10.8866 113.675 10.4952 114.159 10.4952H131.327C131.811 10.4952 132.205 10.8866 132.205 11.368V14.146C132.205 14.6274 131.811 15.0188 131.327 15.0188H126.011C125.527 15.0188 125.133 15.4102 125.133 15.8917V33.0719C125.133 33.5534 124.74 33.9448 124.256 33.9448H120.959C120.475 33.9448 120.081 33.5534 120.081 33.0719H120.085Z" fill="#F09123"/>
<path d="M153.071 33.4009L142.229 11.1983C142.089 10.9143 141.682 10.9143 141.543 11.1983L130.641 33.4009C130.52 33.6503 130.704 33.9447 130.986 33.9447H134.903C135.189 33.9447 135.446 33.7854 135.575 33.536L137.194 30.384C137.323 30.1312 137.584 29.9718 137.87 29.9753L145.71 30.0065C145.979 30.0065 146.229 30.1485 146.362 30.3806L148.217 33.5707C148.353 33.8027 148.6 33.9447 148.872 33.9447H152.73C153.012 33.9447 153.196 33.6538 153.071 33.4009ZM145.192 26.567H138.528C138.441 26.567 138.385 26.47 138.423 26.3868L141.762 19.0229C141.807 18.9259 141.933 18.9259 141.975 19.0229L145.3 26.3868C145.338 26.47 145.282 26.567 145.195 26.567H145.192Z" fill="#F09123"/>
<path d="M166.047 34.5128C164.32 34.5128 162.719 34.2114 161.249 33.6087C159.78 33.0061 158.509 32.1644 157.444 31.0802C156.378 29.9961 155.546 28.7179 154.951 27.2458C154.356 25.7737 154.06 24.1631 154.06 22.4243C154.06 20.6855 154.356 19.0402 154.951 17.5681C155.546 16.096 156.375 14.811 157.444 13.7164C158.509 12.6219 159.777 11.7733 161.249 11.1706C162.719 10.5679 164.317 10.2665 166.047 10.2665C167.778 10.2665 169.362 10.5679 170.81 11.1706C172.259 11.7733 173.519 12.6219 174.598 13.7164C175.674 14.811 176.51 16.096 177.105 17.5681C177.701 19.0402 177.997 20.6509 177.997 22.3897C177.997 24.1285 177.697 25.7391 177.105 27.2112C176.51 28.6833 175.674 29.9683 174.598 31.0629C173.523 32.1574 172.259 33.0061 170.81 33.6087C169.362 34.2114 167.774 34.5128 166.047 34.5128ZM166.012 29.7571C167.022 29.7571 167.941 29.5735 168.773 29.2029C169.602 28.8357 170.326 28.3196 170.946 27.6615C171.562 27.0034 172.039 26.2275 172.377 25.3338C172.715 24.4402 172.882 23.46 172.882 22.3862C172.882 21.3124 172.715 20.3668 172.377 19.4732C172.039 18.5795 171.562 17.7967 170.946 17.1282C170.33 16.4597 169.606 15.9402 168.773 15.5695C167.941 15.2024 167.033 15.0153 166.047 15.0153C165.062 15.0153 164.146 15.1989 163.304 15.5695C162.461 15.9367 161.733 16.4528 161.114 17.1109C160.497 17.769 160.02 18.5518 159.683 19.4559C159.345 20.3599 159.178 21.3471 159.178 22.4208C159.178 23.8514 159.47 25.1122 160.052 26.2067C160.637 27.3013 161.444 28.1672 162.475 28.8011C163.506 29.4384 164.686 29.7571 166.009 29.7571H166.012Z" fill="#F09123"/>
<path d="M49.9663 14.8283C50.9085 14.8283 51.6724 14.0684 51.6724 13.1311C51.6724 12.1937 50.9085 11.4338 49.9663 11.4338C49.0241 11.4338 48.2603 12.1937 48.2603 13.1311C48.2603 14.0684 49.0241 14.8283 49.9663 14.8283Z" fill="#F09123"/>
</g>
<defs>
<clipPath id="clip0_2143_10756">
<rect width="178" height="44" fill="white"/>
</clipPath>
</defs>
</svg>
