<svg width="140" height="140" viewBox="0 0 140 140" fill="none" xmlns="http://www.w3.org/2000/svg">
<g id="Group 288">
<path id="Vector" d="M133.827 111.612V28.3879H6.16992V111.612H133.827Z" stroke="white" stroke-width="4.16329" stroke-miterlimit="2.613"/>
<path id="Vector_2" d="M128.891 106.675V33.3247H11.1074V106.675H128.891Z" stroke="white" stroke-width="8.33956" stroke-miterlimit="2.613"/>
<path id="Vector_3" fill-rule="evenodd" clip-rule="evenodd" d="M20.6998 51.6542V46.1697H21.4503V48.4358H24.3053V46.1697H25.0565V51.6542H24.3053V49.0892H21.4503V51.6542H20.6998ZM36.4609 51.6542V46.1697H35.7097V51.6542H36.4609ZM47.3596 51.2923C47.7454 51.6404 48.28 51.8152 48.9622 51.8152C49.5478 51.8152 50.0614 51.6847 50.5045 51.4236C50.9462 51.1618 51.1678 50.7281 51.1678 50.1204C51.1678 49.6324 50.9927 49.2604 50.6448 49.0037C50.4428 48.8572 50.1558 48.7411 49.7846 48.6563L49.0152 48.4808C48.4973 48.3612 48.1645 48.2611 48.0171 48.182C47.7926 48.0573 47.6807 47.8608 47.6807 47.5917C47.6807 47.3481 47.7766 47.1341 47.9684 46.9492C48.1602 46.7658 48.4747 46.6737 48.9135 46.6737C49.457 46.6737 49.8413 46.8165 50.0679 47.103C50.19 47.2596 50.2699 47.4844 50.3077 47.7788H51.0058C51.0058 47.169 50.8046 46.7259 50.4021 46.4481C49.9996 46.1711 49.5107 46.0319 48.9353 46.0319C48.3106 46.0319 47.8267 46.1892 47.4853 46.5061C47.1446 46.8223 46.9731 47.227 46.9731 47.7194C46.9731 48.1748 47.1475 48.5171 47.4962 48.7462C47.6981 48.8782 48.0418 48.9986 48.5271 49.1081L49.271 49.2756C49.6742 49.3677 49.9706 49.4758 50.1602 49.6005C50.3476 49.7274 50.4406 49.9406 50.4406 50.2394C50.4406 50.6375 50.219 50.9138 49.7752 51.0683C49.5463 51.148 49.2913 51.1879 49.0131 51.1879C48.3897 51.1879 47.9553 51.0066 47.709 50.6433C47.579 50.449 47.5056 50.1966 47.4889 49.8855H46.7915C46.7835 50.4772 46.9731 50.9464 47.3596 51.2923ZM60.9855 46.1697H65.4396V46.823H63.5892V51.6542H62.8352V46.823H60.9855V46.1697ZM76.4023 50.5251C76.0942 50.1081 75.9409 49.5961 75.9409 48.9892C75.9409 48.2299 76.1211 47.6555 76.4785 47.2661C76.8374 46.8767 77.3016 46.6816 77.869 46.6816C78.4553 46.6816 78.9159 46.8782 79.2537 47.2719C79.5915 47.665 79.7586 48.1842 79.7586 48.8282C79.7586 49.438 79.6126 49.9776 79.3198 50.4468C79.027 50.916 78.5534 51.1509 77.8981 51.1509C77.2101 51.1502 76.7103 50.9413 76.4023 50.5251ZM75.7244 47.0355C75.3568 47.5635 75.1709 48.1987 75.1709 48.9398C75.1709 49.7615 75.3866 50.4402 75.8182 50.9783C76.302 51.536 76.966 51.8145 77.8102 51.8145C78.7139 51.8145 79.4106 51.4961 79.8988 50.8587C80.3144 50.3162 80.5229 49.6353 80.5229 48.8166C80.5229 48.0602 80.3398 47.4387 79.9766 46.9536C79.5109 46.3314 78.7931 46.0203 77.824 46.0203C76.8977 46.0203 76.1981 46.3589 75.7244 47.0355ZM91.6642 51.6542V46.1697H90.9123V51.6542H91.6642ZM103.04 46.8085H104.856C105.11 46.8085 105.313 46.8455 105.465 46.9202C105.75 47.0616 105.892 47.3285 105.892 47.7194C105.892 48.0827 105.789 48.3343 105.587 48.4736C105.384 48.6128 105.107 48.6831 104.759 48.6831H103.04V46.8085ZM103.04 51.6542V49.3017H104.732C105.037 49.3017 105.26 49.3351 105.402 49.4032C105.65 49.5251 105.783 49.7651 105.801 50.1233L105.846 51.0378C105.856 51.2525 105.868 51.3968 105.883 51.4715C105.895 51.5348 105.915 51.5962 105.943 51.6542H106.855V51.5309C106.74 51.4816 106.66 51.3692 106.617 51.1952C106.583 51.0418 106.565 50.8852 106.564 50.7281L106.538 49.9921C106.524 49.6737 106.465 49.4438 106.357 49.301C106.248 49.1596 106.086 49.045 105.874 48.958C106.116 48.8311 106.307 48.6621 106.442 48.4532C106.578 48.2444 106.647 47.9754 106.647 47.6468C106.647 47.0167 106.389 46.5859 105.874 46.3509C105.601 46.2291 105.256 46.1682 104.838 46.1682H102.296V51.6528H103.04V51.6542ZM121.198 51.6542V51.0008H117.865V49.1414H120.894V48.5069H117.865V46.8419H121.141V46.1697H117.14V51.6542H121.198ZM21.5999 95.5669V90.0823H20.8487V95.5669H21.5999ZM35.8179 95.5669V90.0823H35.066V95.5669H35.8179ZM50.0345 95.5669V90.0823H49.284V95.5669H50.0345ZM64.2525 95.5669V90.0823H63.5013V95.5669H64.2525ZM78.4698 95.5669V90.0823H77.7179V95.5669H78.4698ZM92.6871 95.5669V90.0823H91.9367V95.5669H92.6871ZM106.905 95.5669V90.0823H106.154V95.5669H106.905ZM121.122 95.5669V90.0823H120.372V95.5669H121.122ZM20.2835 83.552C19.7437 83.552 19.3965 83.5151 19.3965 83.4418C19.3965 83.3316 19.7052 83.2576 20.091 83.1488C21.4023 82.7435 22.3664 81.5694 22.3664 78.8159V64.1687C22.3664 61.8561 21.9428 61.1947 20.8618 60.6443C20.5145 60.4978 20.2065 60.3876 20.2065 60.2041C20.2065 60.0939 20.476 60.0576 20.7463 60.0576H33.5506C41.7264 60.0576 47.8979 64.6828 47.8979 71.7309C47.8979 76.9442 43.502 83.552 34.4761 83.552H20.2835ZM26.8408 79.7332C26.8408 81.7159 27.8433 82.634 31.3915 82.634C39.9538 82.634 42.7304 78.2662 42.7304 71.2167C42.7304 64.3891 39.337 60.975 32.625 60.975H26.8408V79.7332ZM101.51 79.5875C101.51 81.3852 102.011 82.597 103.399 83.1851C103.785 83.3679 103.94 83.4048 103.94 83.4781C103.94 83.5151 103.863 83.552 103.515 83.552H94.9152C94.722 83.552 94.6058 83.5521 94.6058 83.4781C94.6058 83.4041 94.8753 83.3309 95.2233 83.1851C96.6893 82.4498 97.0351 81.3852 97.0351 79.5875V64.1687C97.0351 63.0671 96.9966 61.1947 95.4928 60.6813C95.0685 60.5348 94.6828 60.4978 94.6828 60.2773C94.6828 60.1309 94.8375 60.0576 95.4165 60.0576H109.841C117.013 60.0576 119.983 62.1867 119.983 65.4537C119.983 70.5198 113.659 71.1797 109.608 71.1797V71.2537C113.505 71.6939 117.207 72.9789 118.557 76.834C119.444 79.3293 120.872 82.597 122.066 83.0009C122.414 83.2206 122.721 83.3309 122.721 83.4781C122.721 83.5151 122.528 83.552 121.255 83.552H116.164L114.314 78.7434C112.617 74.3372 111.961 71.8048 107.14 71.6939L101.51 71.5481L101.51 79.5875ZM101.51 70.6286H108.49C112.694 70.6286 114.815 68.1332 114.815 65.6734C114.815 62.9569 112.849 60.975 108.759 60.975H101.51L101.51 70.6286ZM52.4581 60.0656C53.9888 63.6705 51.5289 66.6198 51.2557 67.2753C51.6379 67.1666 57.7062 63.78 55.8471 60.0656H52.4581ZM74.4444 84.2939C66.8671 84.2939 59.8311 79.3184 59.8311 71.6685C59.8311 64.0178 66.8671 59.0409 74.4444 59.0409C82.0231 59.0409 89.0591 64.0171 89.0591 71.6685C89.0591 79.3184 82.0231 84.2939 74.4444 84.2939ZM74.4444 59.9699C67.4084 59.9699 65.0117 66.1346 65.0117 71.6685C65.0117 77.2009 67.4084 83.3664 74.4444 83.3664C81.4811 83.3664 83.8785 77.2009 83.8785 71.6685C83.8785 66.1346 81.4811 59.9699 74.4444 59.9699Z" fill="white"/>
</g>
</svg>
