<svg width="207" height="50" viewBox="0 0 207 50" fill="none" xmlns="http://www.w3.org/2000/svg">
<g id="Group">
<path id="Vector" fill-rule="evenodd" clip-rule="evenodd" d="M147.213 38.2299C147.678 38.7504 148.569 38.6588 149.139 38.1524C149.705 37.6448 149.897 36.7589 149.43 36.2361C148.965 35.7156 148.127 35.8072 147.557 36.3136C146.988 36.82 146.747 37.7059 147.213 38.2299ZM0.729633 0.0552273L0.168016 0V1.46044H1.23603C1.96566 1.46044 2.41566 1.85287 2.41566 3.09008V23.7054C2.41566 25.1659 1.96566 25.8955 1.29125 25.8955H0.0563971L0 27.6367H17.0212L18.7061 19.2665H17.2456C17.2456 19.2665 16.3633 25.5571 11.8527 25.5571H8.31382C7.04137 25.5571 6.68536 24.9779 6.68536 23.6479V3.09008C6.68536 2.02206 6.96617 1.51684 7.97779 1.51684H9.38183V0H8.87661C6.57257 0.112793 3.20169 0.169196 0.729633 0.0552273ZM29.9972 17.8625L25.2317 17.8848L27.9176 9.77426L29.9972 17.8625ZM31.7384 24.4351C32.1837 25.8579 31.7608 26.6251 30.3344 26.6251V27.6367C31.2896 27.524 35.8389 27.4687 37.4122 27.5815V26.5699C36.6825 26.6251 36.0081 26.3995 35.6709 25.3903L29.7728 5.05573H28.0315L21.009 24.6031C20.277 26.4066 18.5369 26.6251 18.5369 26.6251V27.6367C20.4825 27.5239 22.433 27.5239 24.3787 27.6367V26.6827C23.5962 26.6827 22.5211 25.6335 23.031 24.099C23.2178 23.5362 23.7559 21.9806 24.6841 19.4909L30.3896 19.4921C30.3896 19.4921 31.6809 24.4351 31.7384 24.4351ZM50.0509 24.3223C50.0509 25.7275 51.0249 26.5147 52.7474 26.5147V27.5815C50.3881 27.4687 46.4556 27.4687 43.7028 27.5815V26.4571C44.826 26.4571 45.9504 25.7827 45.9504 24.3787V3.25809C45.9504 2.24765 45.558 1.57324 44.5464 1.57324H43.5923V0C47.1876 0.112793 51.1201 0.112793 54.209 0C57.9911 0 61.7368 2.13367 61.7368 8.03183C61.7368 13.8184 56.9995 16.2893 54.491 16.2893C53.705 16.2893 51.5137 16.5137 50.0533 16.1201V24.3223H50.0509ZM50.0509 14.2684C51.9602 15.5608 57.2415 15.26 57.2415 8.42662C57.2415 3.14647 54.6202 1.68603 52.0178 1.68603C50.7817 1.68603 50.0521 2.52846 50.0521 3.76448L50.0509 14.2684ZM68.8686 17.8625L63.9915 17.8848C64.8251 15.2233 65.7017 12.5754 66.621 9.94228L68.8686 17.8625ZM70.6099 24.4351C71.0552 25.8579 70.6322 26.6251 69.2058 26.6251V27.6649C70.1611 27.5545 74.3744 27.5251 75.9464 27.6379V26.5711C75.2156 26.5711 74.8784 26.3185 74.5424 25.3069L68.6442 5.05691H66.903L59.8816 24.6042C59.1496 26.4078 57.5787 26.5711 57.5787 26.5711V27.6097C59.4328 27.4969 61.2292 27.5251 63.2525 27.6367V26.6827C62.3207 26.6827 61.3949 25.6911 61.9048 24.1554C62.0505 23.7172 62.5898 22.0864 63.4451 19.4909L69.2646 19.4921C69.2622 19.4921 70.5535 24.4351 70.6099 24.4351ZM76.508 26.5969V27.6367C78.6429 27.5815 82.21 27.5815 84.3448 27.6638V26.624C83.8948 26.624 82.4062 26.6815 82.4062 24.8275V8.2022C82.4062 6.96617 83.0806 6.46095 84.2602 6.46095V5.33771C82.519 5.45051 78.4749 5.50691 76.8452 5.39412C76.9016 5.39412 76.8452 6.40456 76.8452 6.40456C77.9121 6.40456 78.7545 6.91095 78.7545 8.25859V24.8298C78.6981 26.0071 78.2493 26.5969 76.508 26.5969ZM86.7311 27.8612V26.6545C88.4724 26.6545 88.8096 26.0071 88.8096 24.6031V8.25742C88.8096 6.90977 87.9671 6.40338 86.8991 6.40338C86.8991 6.40338 86.9555 5.39294 86.8991 5.39294C88.5288 5.50573 92.5729 5.44933 94.3141 5.33654V6.45978C93.1345 6.45978 92.4601 6.965 92.4601 8.20103V24.6606C92.4601 26.0471 93.1627 26.4571 94.3976 26.4571H96.335C99.0703 26.4571 100.248 24.0603 100.997 21.177H102.57L100.997 27.9187C96.8496 27.7495 90.6096 27.7495 86.7311 27.8612Z" fill="white"/>
<path id="Vector_2" fill-rule="evenodd" clip-rule="evenodd" d="M101.842 27.8611V26.6545C103.583 26.6545 103.92 26.0071 103.92 24.603V8.25737C103.92 6.90972 103.078 6.40333 102.011 6.40333C102.011 6.40333 102.068 5.39289 102.011 5.39289C103.64 5.50569 107.684 5.44928 109.425 5.33649V6.45973C108.245 6.45973 107.571 6.96495 107.571 8.20098V24.6606C107.571 26.047 108.274 26.4571 109.51 26.4571H111.448C114.181 26.4571 115.358 24.0602 116.109 21.1769H117.684L116.109 27.9187C111.96 27.7495 105.715 27.7495 101.842 27.8611ZM130.546 10.9538H131.838C131.838 10.9538 131.896 5.39289 131.838 5.39289C127.554 5.45634 122.195 5.49394 117.909 5.39289V6.45973C118.976 6.45973 119.706 6.90973 119.706 8.20098V25.221C119.706 26.3443 118.752 26.5687 117.794 26.5687V27.9175C123.072 27.7471 127.856 27.8047 132.288 27.9175L133.58 21.513H132.121C131.558 24.4902 130.38 26.3431 127.739 26.3431H124.987C123.47 26.3431 123.3 25.8379 123.3 24.6019V16.8508H126.278C127.776 16.8508 128.412 17.8248 128.412 19.7153H129.591V12.5823H128.357C128.357 14.3423 128.111 15.2788 126.277 15.2788H123.299V8.7062C123.299 7.63936 123.955 6.96495 124.928 6.96495C129.086 6.96495 130.49 7.19054 130.546 10.9538ZM149.25 5.44929C157.041 5.44929 160.036 10.5978 160.036 16.3456C160.036 22.9934 156.16 27.9739 151.443 27.9739H140.265V27.0739C141.052 27.0739 142.119 26.6239 142.119 25.5571V8.7062C142.119 6.96495 140.881 6.68414 140.209 6.68414V5.6737C142.848 5.84171 146.332 5.73009 149.25 5.44929ZM147.846 6.90973C146.556 6.90973 145.769 7.35855 145.769 8.59458V25.3362C145.769 26.2338 145.937 26.6827 146.723 26.7954C147.485 26.9635 149.362 26.9635 149.362 26.9635C151.442 26.7955 156.217 25.3362 156.217 16.9096C156.218 9.08217 152.172 6.90973 147.846 6.90973ZM161.89 5.44929C160.607 5.44929 159.745 6.21887 159.644 7.58296C159.536 9.04223 161.548 9.77538 162.003 8.76259C162.179 9.89523 161.695 11.4121 160.036 12.1899L161.161 12.9207C162.94 12.0007 164.137 10.2454 164.137 8.25855C164.137 6.45972 163.07 5.44929 161.89 5.44929ZM188.124 14.0427C188.124 23.649 182.618 28.6483 176.722 28.6483C170.673 28.6483 165.037 24.173 165.037 14.4927C165.037 5.11208 170.262 0.224365 176.44 0.224365C182.112 0.224365 188.124 4.43767 188.124 14.0427ZM176.327 1.7976C172.77 1.7976 169.754 5.72892 169.754 14.2672C169.754 22.8054 173.012 27.0187 176.722 27.0187C180.747 27.0187 183.126 22.4682 183.179 14.7724C183.237 6.74054 181.233 1.7976 176.327 1.7976ZM189.304 5.44929C193.01 5.5609 194.81 5.61848 196.661 5.44929C197.96 5.33062 204.057 5.3365 204.021 10.9538C203.998 14.4551 201.497 16.4596 199.528 16.852C202.16 17.2562 203.515 21.3402 204.076 23.3682C204.71 25.6499 204.868 26.8366 206.493 26.9071V28.0291H203.909C202.067 28.0291 201.241 26.7743 200.708 25.2774C200.15 23.7148 200.145 17.6944 196.607 17.6944H194.474V25.2774C194.474 25.2774 194.303 27.0739 196.551 27.0739V28.0855H188.969V27.0187C190.765 27.1867 190.936 26.3443 190.936 24.9955V8.48179C190.936 7.24576 190.486 6.79576 189.306 6.79576V5.44929H189.304ZM194.471 16.0648H197.336C199.358 16.0648 200.48 14.4916 200.482 11.2899C200.485 7.06952 197.947 6.84158 195.989 6.85333C195.137 6.85803 194.448 7.72983 194.472 8.53818V16.0648H194.471ZM157.285 48.8889C159.841 47.1582 163.135 43.0918 163.135 43.0918C162.715 45.8846 161.606 47.8349 160.712 48.8889C159.817 49.944 159.553 49.1004 159.553 48.5223C159.448 47.3638 157.919 47.7833 158.395 49.0475C158.968 50.7088 163.269 50.0943 164.77 46.2018C165.47 44.3865 165.192 43.5676 166.615 40.9334H164.347C163.03 43.0929 158.131 47.6775 157.233 48.3108C155.996 49.1943 153.94 49.1826 155.021 46.9408C155.021 46.9408 155.389 45.9374 155.969 45.3065C158.025 45.3065 159.817 44.148 160.765 43.2504C161.713 42.3551 162.013 40.0921 158.867 41.038C156.327 41.8017 151.538 45.4369 152.176 47.9936C152.775 50.3986 155.192 50.4903 157.285 48.8889ZM156.812 43.9365C156.495 44.4089 156.02 45.2078 157.127 44.6203C158.362 43.9659 159.337 42.7827 159.658 42.1448C159.913 41.6348 159.709 41.1743 159.025 41.723C158.308 42.301 157.441 43.0788 156.812 43.9365ZM149.96 43.1975C149.541 45.9903 148.537 47.8349 147.642 48.8889C146.747 49.944 146.483 49.1004 146.483 48.5223C146.378 47.3638 144.745 47.889 145.219 49.1532C145.715 50.6865 150.174 50.2941 151.491 46.6776C152.156 44.8483 151.963 43.5688 153.545 40.9334H151.28C149.96 43.0929 145.061 47.6775 144.165 48.3108C144.011 48.4189 143.872 48.5058 143.744 48.5752C142.631 49.1697 142.497 48.3178 143.11 47.4672C144.051 46.1689 146.236 43.1235 146.905 41.8287C147.199 41.2577 147.114 41.0391 146.852 41.0391H144.902C144.586 41.0391 144.218 41.0121 144.007 41.2753C143.819 41.5091 141.68 44.0775 140.923 42.1448C140.2 40.2978 138.132 40.83 137.051 41.1966C135.496 41.7218 132.28 43.6792 131.227 46.5707C129.866 50.307 133.988 50.2882 136.023 49.3107C137.552 48.5998 139.764 47.0983 140.872 43.698C141.714 43.7779 142.69 43.436 143.612 42.5395C142.767 44.0152 141.917 44.8224 140.528 47.15C139.229 49.3295 141.445 50.8052 143.742 49.3118C146.405 47.5812 149.96 43.1975 149.96 43.1975ZM134.785 49.0216C134.185 49.3588 133.073 49.7853 133.547 48.0464C134.02 46.3075 136.552 43.0142 137.999 41.9074C139.447 40.8006 139.605 42.1189 139.316 42.8027C137.841 46.465 135.955 48.3613 134.785 49.0216ZM131.414 43.8837C131.928 41.226 129.931 40.2872 127.67 41.4327C128.434 40.38 130.358 37.6647 131.122 36.4534C131.481 35.907 131.609 35.5863 131.703 34.8473H129.12C129.12 34.8473 129.145 35.3196 128.751 35.9C127.512 37.8234 123.113 44.1997 122.032 45.7541C121.497 46.5508 120.501 47.7186 119.372 48.547C118.082 49.4904 117.752 48.6691 118.211 47.9936C118.466 47.6199 120.6 44.4394 121.031 43.8038C121.97 42.422 121.734 41.0873 120.742 40.9581C119.085 40.7466 118.132 41.4081 116.841 42.5666C116.843 39.3954 113.151 41.5573 112.625 42.2493C112.701 41.784 112.734 41.5632 112.758 41.1437H110.202C108.937 43.6193 106.066 47.1488 105.433 47.835C104.799 48.5211 103.43 49.3107 104.115 47.835C104.799 46.3592 106.908 42.8297 108.12 41.1437H105.434L105.065 41.6184C103.248 39.4295 97.9517 42.9884 96.7404 46.0432C96.2175 46.8022 95.4973 47.647 95.0532 47.9936C94.7735 48.2121 93.2884 49.4411 93.8947 47.3074C94.5162 45.1209 97.2668 42.039 97.4254 41.9333C97.5828 41.8275 98.0046 41.1437 97.2668 41.3552C96.6487 41.5314 95.0097 41.4492 94.1861 41.1367C93.87 41.0309 93.6538 41.1684 93.5493 41.3528C89.0187 48.4823 88.1093 48.621 86.3587 49.259C86.1484 49.2836 86.2341 49.7336 86.7276 49.6009C87.4526 49.4058 89.1527 49.1897 93.1827 42.8568L94.8687 43.2786C93.789 44.2538 92.4472 45.5591 91.2593 47.2827C89.9505 49.1802 92.6046 52.2163 96.3703 47.15C95.8169 48.6551 97.7591 51.8744 101.271 48.0723C101.244 49.7771 102.906 50.7876 105.539 48.4412C105.539 48.4412 105.067 49.3036 104.75 49.8382H107.463C109.102 47.5048 110.816 44.8906 112.389 43.013C112.996 42.2493 114.946 40.8535 114.128 42.8015C113.522 43.9882 109.701 49.837 109.701 49.837H112.758C112.942 49.387 116.201 44.1915 116.946 43.1176C117.793 41.8992 119.736 41.3846 118.896 42.6429C118.527 43.1434 116.484 46.1007 115.867 47.3861C115.126 48.9241 115.805 49.837 116.973 49.837C118.287 49.837 119.451 49.4587 121.636 47.0172C121.583 48.5199 122.4 49.837 123.823 49.837C127.593 49.8394 130.911 46.465 131.414 43.8837ZM101.113 47.5189C98.9093 50.0802 98.4523 48.4189 99.216 46.888C99.6707 45.9774 100.735 43.604 102.772 42.0143C104.697 40.5116 104.617 42.1201 104.194 42.9096C103.586 44.0611 102.135 46.3322 101.113 47.5189ZM125.089 48.8889C124.868 49.0475 123.288 50.0685 123.719 48.1522C124.148 46.2453 126.31 43.3126 127.699 42.1694C129.094 41.0239 129.386 42.1448 129.042 42.9355C127.909 45.7283 126.011 48.2297 125.089 48.8889ZM100.48 32.8181C98.5827 33.4491 96.7651 33.2728 91.2065 32.5538C85.5139 31.8171 81.6919 35.806 80.6144 36.9281C76.5645 41.1461 78.8802 48.0206 85.8311 42.778C86.0955 42.4608 85.9369 41.9333 85.3048 42.3562C84.6727 42.7792 82.6964 43.9647 81.142 42.462C79.7802 41.1449 81.189 36.7224 83.9877 34.7674C86.4597 33.0414 89.0152 33.6136 89.5204 33.6617C90.6272 33.7663 97.7931 35.611 100.48 32.8181ZM65.2275 43.5946C65.2017 43.6193 62.8048 46.4403 61.8555 47.5459C62.5146 47.3873 62.9881 47.9125 62.8836 48.4154C63.464 48.7044 64.2018 48.2297 64.9127 47.2816C64.794 46.3733 64.9597 44.7143 65.2275 43.5946ZM49.7619 42.8838C50.105 42.3562 50.394 40.669 48.6023 41.723C46.8105 42.778 44.5452 46.4662 44.3878 47.7304C44.2292 48.9946 45.2302 49.4176 46.9432 47.177C48.6563 44.9364 49.2355 43.7779 49.7619 42.8838ZM69.469 48.1522C70.4184 47.3356 71.8142 45.7541 72.1573 44.9117H72.5521C70.4031 48.7643 68.683 49.8382 67.0181 49.8335C66.2509 49.8335 65.1488 48.8054 64.9503 47.768C63.8176 49.4552 61.4325 50.9697 60.5114 48.7291C59.5632 49.8899 56.8749 50.9967 56.8221 47.7034C52.7639 52.0729 51.5983 48.7267 51.9743 47.439C47.6529 52.0494 46.5731 48.7032 47.1265 47.6505C44.9271 49.9686 43.8109 49.9087 42.5948 49.4152C41.7829 49.0874 41.145 46.9432 43.8861 43.7239C47.7727 39.6527 50.8851 41.0051 50.4727 41.9062L51.079 41.1425H53.8718C52.738 42.4138 50.421 46.0538 49.4987 47.862C48.8502 49.1309 49.9205 48.7291 50.3682 48.3096C52.382 46.3428 54.0199 44.1445 55.2159 42.274C55.4838 41.8569 55.559 41.4316 55.5061 41.1684H58.1674C58.3424 41.6478 58.1368 42.2705 57.9042 42.6441C56.8843 44.2867 55.5144 46.4462 54.558 47.6235C54.1244 48.1581 54.2349 50.2189 56.929 46.9925C57.6692 46.1712 59.8064 42.6852 60.1436 41.9603C60.3011 41.6431 60.301 41.1437 60.301 41.1437H63.2525C63.2783 41.5385 63.041 42.0132 62.779 42.4608C62.5146 42.9085 60.1965 46.6483 59.6172 47.5718C59.038 48.4941 59.4856 49.3107 60.5924 48.2051C61.7662 47.0325 65.1899 43.0189 66.1781 41.1437H68.5232C68.2459 41.7147 67.9099 42.7111 67.669 43.9589C67.9663 43.5323 70.9224 41.0885 71.4993 40.8265C72.3159 40.4576 73.3628 40.8476 72.7906 42.0378C72.2877 43.0823 71.6309 43.1963 71.6309 43.1963C71.5181 42.5149 70.8825 42.207 69.7875 42.8814C68.7594 43.5124 67.5469 44.8025 67.5469 44.8025C67.1333 47.4731 67.3636 50.0133 69.469 48.1522Z" fill="white"/>
<path id="Vector_3" fill-rule="evenodd" clip-rule="evenodd" d="M95.4211 35.0308C93.3426 35.18 90.7542 36.5358 87.8733 40.6693H86.4634L86.3059 41.1439H87.549L87.3058 41.5105C84.1969 46.3066 83.828 49.2051 79.3492 49.3109C78.26 49.3109 77.1885 48.9596 77.1885 47.7823C78.0673 46.9034 76.9429 46.0434 76.2391 46.0434C75.1323 46.0434 74.8691 46.9222 74.8691 47.572C74.8691 48.6435 75.9759 49.7867 79.2963 49.7867C83.4591 49.7867 86.488 47.7976 88.2551 45.7297C89.6075 44.1459 90.6414 42.1227 91.102 41.1451H92.8914L93.1029 40.6704H91.3182L91.364 40.5647C91.9961 38.8246 93.5764 35.9789 95.4211 35.0308Z" fill="white"/>
</g>
</svg>
