<svg width="49" height="49" viewBox="0 0 49 49" fill="none" xmlns="http://www.w3.org/2000/svg">
<g clip-path="url(#clip0_1081_284)">
<path d="M24.9805 48.1899C38.2353 48.1899 48.9805 37.4447 48.9805 24.1899C48.9805 10.9351 38.2353 0.189941 24.9805 0.189941C11.7257 0.189941 0.980469 10.9351 0.980469 24.1899C0.980469 37.4447 11.7257 48.1899 24.9805 48.1899Z" fill="#F09123"/>
<path fill-rule="evenodd" clip-rule="evenodd" d="M24.0748 34.716H25.9585C25.9585 34.716 26.5275 34.6535 26.818 34.3403C27.0854 34.0528 27.0768 33.5129 27.0768 33.5129C27.0768 33.5129 27.04 30.9853 28.2131 30.6131C29.3695 30.2465 30.8545 33.056 32.4285 34.1363C33.6187 34.9538 34.5231 34.7746 34.5231 34.7746L38.7316 34.716C38.7316 34.716 40.9331 34.5803 39.8893 32.8494C39.8037 32.7078 39.2813 31.5689 36.7602 29.2287C34.1213 26.7794 34.4747 27.1756 37.6535 22.9388C39.5894 20.3586 40.3633 18.7834 40.1216 18.1087C39.891 17.4661 38.4672 17.636 38.4672 17.636L33.7286 17.6655C33.7286 17.6655 33.3774 17.6176 33.1168 17.7733C32.8623 17.926 32.6984 18.282 32.6984 18.282C32.6984 18.282 31.9484 20.2786 30.9482 21.9767C28.8382 25.5597 27.9945 25.7488 27.6497 25.5263C26.8475 25.0078 27.0477 23.4433 27.0477 22.3318C27.0477 18.8596 27.5744 17.4118 26.0222 17.037C25.5071 16.9125 25.1281 16.8304 23.8108 16.8171C22.1201 16.7996 20.689 16.8223 19.8787 17.2193C19.3396 17.4833 18.9238 18.0715 19.1771 18.1053C19.4902 18.1472 20.1996 18.2965 20.5756 18.8086C21.0612 19.4692 21.0441 20.9529 21.0441 20.9529C21.0441 20.9529 21.323 25.0403 20.3925 25.5481C19.7538 25.8964 18.8776 25.1853 16.9965 21.9347C16.0326 20.2697 15.3048 18.4292 15.3048 18.4292C15.3048 18.4292 15.1645 18.0852 14.9142 17.9012C14.6105 17.6783 14.1861 17.6073 14.1861 17.6073L9.68323 17.6368C9.68323 17.6368 9.00727 17.6557 8.75913 17.9496C8.53837 18.211 8.74159 18.7517 8.74159 18.7517C8.74159 18.7517 12.2669 26.9993 16.2585 31.1556C19.9185 34.9662 24.0748 34.716 24.0748 34.716Z" fill="white"/>
</g>
<defs>
<clipPath id="clip0_1081_284">
<rect width="48" height="48" fill="white" transform="translate(0.980469 0.189941)"/>
</clipPath>
</defs>
</svg>
