<svg width="49" height="49" viewBox="0 0 49 49" fill="none" xmlns="http://www.w3.org/2000/svg">
<g clip-path="url(#clip0_1081_280)">
<path d="M24.9865 0.189941H24.9745C11.7415 0.189941 0.980469 10.9539 0.980469 24.1899C0.980469 29.4399 2.67247 34.3059 5.54947 38.2569L2.55847 47.1729L11.7835 44.2239C15.5785 46.7379 20.1055 48.1899 24.9865 48.1899C38.2195 48.1899 48.9805 37.4229 48.9805 24.1899C48.9805 10.9569 38.2195 0.189941 24.9865 0.189941Z" fill="#F09123"/>
<path d="M38.9511 34.0808C38.3721 35.7158 36.0741 37.0718 34.2411 37.4678C32.9871 37.7348 31.3491 37.9478 25.8351 35.6618C18.7821 32.7398 14.2401 25.5728 13.8861 25.1078C13.5471 24.6428 11.0361 21.3128 11.0361 17.8688C11.0361 14.4247 12.7851 12.7477 13.4901 12.0277C14.0691 11.4367 15.0261 11.1667 15.9441 11.1667C16.2411 11.1667 16.5081 11.1817 16.7481 11.1937C17.4531 11.2237 17.8071 11.2657 18.2721 12.3787C18.8511 13.7737 20.2611 17.2178 20.4291 17.5718C20.6001 17.9258 20.7711 18.4058 20.5311 18.8708C20.3061 19.3508 20.1081 19.5638 19.7541 19.9718C19.4001 20.3798 19.0641 20.6918 18.7101 21.1298C18.3861 21.5108 18.0201 21.9188 18.4281 22.6238C18.8361 23.3138 20.2461 25.6148 22.3221 27.4628C25.0011 29.8478 27.1731 30.6098 27.9501 30.9338C28.5291 31.1738 29.2191 31.1168 29.6421 30.6668C30.1791 30.0878 30.8421 29.1278 31.5171 28.1828C31.9971 27.5048 32.6031 27.4208 33.2391 27.6608C33.8871 27.8858 37.3161 29.5808 38.0211 29.9318C38.7261 30.2858 39.1911 30.4538 39.3621 30.7508C39.5301 31.0478 39.5301 32.4428 38.9511 34.0808Z" fill="white"/>
</g>
<defs>
<clipPath id="clip0_1081_280">
<rect width="48" height="48" fill="white" transform="translate(0.980469 0.189941)"/>
</clipPath>
</defs>
</svg>
