<svg width="49" height="49" viewBox="0 0 49 49" fill="none" xmlns="http://www.w3.org/2000/svg">
<g clip-path="url(#clip0_1081_288)">
<path d="M24.9805 48.1899C38.2353 48.1899 48.9805 37.4447 48.9805 24.1899C48.9805 10.9351 38.2353 0.189941 24.9805 0.189941C11.7257 0.189941 0.980469 10.9351 0.980469 24.1899C0.980469 37.4447 11.7257 48.1899 24.9805 48.1899Z" fill="#F09123"/>
<path d="M32.833 15.1616H17.1256C16.4979 15.1616 15.8763 15.2853 15.2964 15.5256C14.7165 15.7659 14.1897 16.1181 13.746 16.5621C13.3023 17.0061 12.9504 17.5332 12.7105 18.1132C12.4706 18.6933 12.3473 19.3149 12.3477 19.9426V28.4374C12.3473 29.0651 12.4706 29.6867 12.7105 30.2668C12.9504 30.8468 13.3023 31.3739 13.746 31.8179C14.1897 32.2619 14.7165 32.6141 15.2964 32.8544C15.8763 33.0947 16.4979 33.2184 17.1256 33.2184H32.833C33.4607 33.2184 34.0822 33.0947 34.6621 32.8544C35.242 32.6141 35.7688 32.2619 36.2125 31.8179C36.6563 31.3739 37.0081 30.8468 37.2481 30.2668C37.488 29.6867 37.6113 29.0651 37.6108 28.4374V19.9426C37.6113 19.3149 37.488 18.6933 37.2481 18.1132C37.0081 17.5332 36.6563 17.0061 36.2125 16.5621C35.7688 16.1181 35.242 15.7659 34.6621 15.5256C34.0822 15.2853 33.4607 15.1616 32.833 15.1616ZM21.6508 28.0616V20.3184L28.3077 24.19L21.6508 28.0616Z" fill="white"/>
</g>
<defs>
<clipPath id="clip0_1081_288">
<rect width="48" height="48" fill="white" transform="translate(0.980469 0.189941)"/>
</clipPath>
</defs>
</svg>
