<svg width="53" height="63" viewBox="0 0 53 63" fill="none" xmlns="http://www.w3.org/2000/svg">
<g clip-path="url(#clip0_4480_13514)">
<path d="M17.0702 26.5701C17.1402 26.5601 17.2002 26.5601 17.2602 26.5601H26.3002C28.1602 26.5601 30.0102 26.5601 31.8602 26.5601C32.2402 26.5601 32.5102 26.4801 32.6702 26.3201C32.7802 26.2001 32.8402 26.0401 32.8402 25.8401C32.8402 25.2401 32.3002 25.1001 31.8502 25.0901C31.7902 25.0901 31.7302 25.0901 31.6702 25.0901H31.6102H30.0102C29.4902 25.0901 28.9702 25.0901 28.4502 25.0901C24.7102 25.0901 20.9802 25.0901 17.2502 25.1001C17.0202 25.1001 16.7302 25.1101 16.4802 25.2001C16.3002 25.2601 16.1702 25.3801 16.1002 25.5301C16.0402 25.6601 16.0402 25.8001 16.1002 25.9401C16.2002 26.1901 16.4902 26.4001 16.7402 26.5701C16.8102 26.5901 16.9502 26.5801 17.0702 26.5701Z" fill="white"/>
<path d="M17.0301 22.51C18.7401 22.52 20.4401 22.5101 22.1501 22.5201H24.3901C26.7801 22.5201 29.1701 22.5201 31.5701 22.5201C31.7901 22.5201 32.0401 22.52 32.2701 22.49C32.6501 22.43 32.8501 22.2001 32.8501 21.7901C32.8501 21.3801 32.6601 21.15 32.2701 21.09C32.0601 21.06 31.8401 21.05 31.6401 21.05C26.8601 21.05 22.0701 21.05 17.2901 21.05C17.1001 21.05 16.8701 21.05 16.6601 21.09C16.3001 21.16 16.1201 21.38 16.1001 21.76C16.0901 21.99 16.1401 22.1601 16.2601 22.2801C16.4001 22.4301 16.6601 22.51 17.0301 22.51Z" fill="white"/>
<path d="M32.6802 33.5901C32.5302 33.4401 32.3202 33.3501 32.0802 33.3501C31.2302 33.3401 27.8502 33.3301 24.5402 33.3301C21.4702 33.3301 18.4702 33.3301 17.6302 33.3401C17.3702 33.3401 17.1502 33.4201 17.0102 33.5701C16.8802 33.7101 16.8202 33.9001 16.8302 34.1301C16.8502 34.5801 17.1302 34.8101 17.6702 34.8101C18.2702 34.8201 18.8802 34.8201 19.4802 34.8101H20.1702H21.3202C24.3202 34.8101 31.3402 34.8201 32.0502 34.8101C32.5402 34.8001 32.8702 34.5201 32.8802 34.1001C32.8902 33.9101 32.8202 33.7201 32.6802 33.5901Z" fill="white"/>
<path d="M20.0001 38.8699C20.3501 38.8799 26.2201 38.8799 29.0401 38.8699C29.9401 38.8699 30.5701 38.8699 30.6801 38.8699H31.1001C31.4101 38.8699 31.7301 38.8799 32.0401 38.8599C32.5201 38.8499 32.7901 38.5999 32.8101 38.1699C32.8201 37.9499 32.7501 37.7499 32.6201 37.6099C32.5001 37.4799 32.3301 37.4099 32.1201 37.3999C31.1101 37.3699 20.8801 37.3699 19.9501 37.3999C19.7401 37.4099 19.5501 37.4999 19.4101 37.6699C19.2901 37.8199 19.2301 37.9999 19.2501 38.1699C19.3301 38.6199 19.5701 38.8599 20.0001 38.8699Z" fill="white"/>
<path d="M44.4602 25.8999V27.9299H36.9102V20.3799H41.7502" stroke="white" stroke-miterlimit="10" stroke-linecap="round" stroke-linejoin="round"/>
<path d="M45.7902 20.24C45.6902 20.24 45.5902 20.27 45.4602 20.41L44.1702 21.79C43.4402 22.57 42.7002 23.35 41.9702 24.13C41.6602 24.46 41.2902 24.48 40.9502 24.17C40.4802 23.74 40.0002 23.32 39.5202 22.9L39.2202 22.64C39.1202 22.55 39.0402 22.52 38.9602 22.52C38.9102 22.52 38.8502 22.54 38.8002 22.56C38.6502 22.62 38.5802 22.72 38.5602 22.87C38.5502 23 38.5902 23.13 38.8502 23.36C39.6202 24.04 40.3902 24.72 41.1502 25.4C41.4302 25.66 41.6102 25.65 41.8602 25.39C42.2802 24.95 42.7002 24.51 43.1102 24.06L46.0602 20.91C46.1402 20.83 46.1802 20.75 46.1702 20.69V20.65C46.1702 20.39 46.0302 20.24 45.7902 20.24Z" fill="#F7941D" stroke="#F7941D" stroke-miterlimit="10"/>
<path d="M44.4602 38.1799V40.2099H36.9102V32.6599H41.7502" stroke="white" stroke-miterlimit="10" stroke-linecap="round" stroke-linejoin="round"/>
<path d="M45.7902 32.52C45.6902 32.52 45.5902 32.55 45.4602 32.69L44.1702 34.07C43.4402 34.85 42.7002 35.63 41.9702 36.41C41.6602 36.74 41.2902 36.76 40.9502 36.45C40.4802 36.02 40.0002 35.6 39.5202 35.18L39.2202 34.92C39.1202 34.83 39.0402 34.8 38.9602 34.8C38.9102 34.8 38.8502 34.82 38.8002 34.84C38.6502 34.9 38.5802 35 38.5602 35.15C38.5502 35.28 38.5902 35.41 38.8502 35.64C39.6202 36.32 40.3902 37 41.1502 37.68C41.4302 37.94 41.6102 37.93 41.8602 37.67C42.2802 37.23 42.7002 36.79 43.1102 36.34L46.0602 33.19C46.1402 33.11 46.1802 33.03 46.1702 32.97V32.93C46.1702 32.67 46.0302 32.52 45.7902 32.52Z" fill="#F7941D" stroke="#F7941D" stroke-miterlimit="10"/>
<path d="M15.7002 45.1499C15.8002 45.6499 16.2502 45.9099 16.6702 45.9599C16.8902 45.9799 17.1202 45.9699 17.3302 45.9099C17.5702 45.8399 17.7702 45.7099 17.9102 45.4899C17.9402 45.4399 17.9702 45.3899 17.9902 45.3299C18.0102 45.2799 18.0202 45.2199 18.0402 45.1499C18.8402 45.2499 19.6102 45.4599 20.3602 45.7799C21.8502 46.4199 23.0802 47.3899 24.0402 48.6899C24.9602 49.9399 25.5202 51.3299 25.7102 52.8699C26.3302 57.9399 22.6502 62.3599 17.7702 62.8399C12.6902 63.3499 8.3802 59.5799 7.9902 54.7199C7.5702 49.6699 11.3202 45.6799 15.7002 45.1499ZM16.8602 46.8799C12.9402 46.8799 9.7602 50.0599 9.7602 53.9799C9.7602 57.9099 12.9402 61.0899 16.8702 61.0799C20.7902 61.0799 23.9802 57.8899 23.9602 53.9399C23.9502 50.0499 20.7902 46.8799 16.8602 46.8799Z" fill="#F7941D"/>
<path d="M3.4101 54.3501C2.5001 54.3501 1.5801 54.3501 0.670101 54.3501C0.410101 54.3501 0.2101 54.2401 0.0901005 54.0201C-0.1499 53.6001 0.1601 53.0701 0.6401 53.0601C1.3101 53.0601 1.9701 53.0601 2.6401 53.0601C3.8101 53.0601 4.9901 53.0601 6.1601 53.0601C6.4201 53.0601 6.6201 53.1701 6.7501 53.4001C6.9801 53.8201 6.6801 54.3401 6.1901 54.3501C5.5101 54.3501 4.8401 54.3501 4.1601 54.3501C3.9101 54.3501 3.6601 54.3501 3.4101 54.3501Z" fill="#F7941D"/>
<path d="M4.42004 57.6301C3.65004 57.6301 2.87004 57.6301 2.10004 57.6301C1.97004 57.6301 1.86004 57.6101 1.75004 57.5401C1.49004 57.3901 1.37004 57.1001 1.45004 56.8101C1.52004 56.5301 1.78004 56.3401 2.07004 56.3401C3.08004 56.3401 4.08004 56.3401 5.09004 56.3401C5.65004 56.3401 6.22004 56.3401 6.78004 56.3401C7.08004 56.3401 7.33004 56.5401 7.40004 56.8201C7.51004 57.2201 7.20004 57.6201 6.79004 57.6201C6.30004 57.6201 5.81004 57.6201 5.32004 57.6201C5.01004 57.6301 4.71004 57.6301 4.42004 57.6301Z" fill="#F7941D"/>
<path d="M4.41005 51.07C3.64005 51.07 2.87005 51.07 2.10005 51.07C1.93005 51.07 1.77005 51.02 1.64005 50.9C1.44005 50.72 1.37005 50.44 1.46005 50.19C1.55005 49.94 1.79005 49.77 2.06005 49.77C2.53005 49.77 3.01005 49.77 3.48005 49.77C4.56005 49.77 5.65005 49.77 6.73005 49.77C6.86005 49.77 6.98005 49.79 7.10005 49.86C7.35005 50.01 7.46005 50.3 7.39005 50.58C7.32005 50.86 7.07005 51.05 6.78005 51.06C6.74005 51.06 6.70005 51.06 6.66005 51.06C5.92005 51.07 5.16005 51.07 4.41005 51.07Z" fill="#F7941D"/>
<path d="M6.52022 47.8901C5.87022 47.8901 5.22022 47.8901 4.56022 47.8901C4.41022 47.8901 4.28022 47.8601 4.15022 47.7801C3.92022 47.6201 3.81022 47.3301 3.89022 47.0701C3.97022 46.8001 4.21022 46.6101 4.50022 46.6001C4.52022 46.6001 4.54022 46.6001 4.56022 46.6001C5.86022 46.6001 7.16022 46.6001 8.46022 46.6001C8.58021 46.6001 8.70022 46.6201 8.80022 46.6801C9.04022 46.8101 9.18022 47.0901 9.13022 47.3601C9.08021 47.6501 8.85021 47.8601 8.57021 47.8901C8.51021 47.9001 8.46021 47.9001 8.40021 47.9001C7.79021 47.8901 7.16022 47.8901 6.52022 47.8901Z" fill="#F7941D"/>
<path d="M6.52018 60.8C5.86018 60.8 5.20018 60.8 4.54018 60.8C4.31018 60.8 4.12018 60.71 3.99018 60.51C3.85018 60.3 3.84018 60.08 3.95018 59.86C4.06018 59.64 4.25018 59.52 4.50018 59.51C4.53018 59.51 4.55018 59.51 4.58018 59.51C5.87018 59.51 7.16018 59.51 8.46018 59.51C8.53018 59.51 8.60018 59.51 8.66018 59.53C8.98018 59.6 9.19018 59.9 9.16018 60.23C9.13018 60.55 8.85018 60.8 8.53018 60.81C8.19018 60.81 7.86018 60.81 7.52018 60.81C7.18018 60.8 6.85018 60.8 6.52018 60.8Z" fill="#F7941D"/>
<path d="M16.9301 42.23C17.4501 42.23 17.9601 42.23 18.4801 42.23C18.7201 42.23 18.9301 42.39 18.9801 42.62C18.9901 42.67 19.0001 42.71 19.0001 42.76C19.0001 42.92 19.0001 43.09 19.0001 43.25C19.0101 43.51 18.8001 43.78 18.4701 43.78C17.4501 43.78 16.4201 43.78 15.4001 43.78C15.1001 43.78 14.8801 43.55 14.8701 43.25C14.8701 43.08 14.8701 42.92 14.8701 42.75C14.8701 42.45 15.1001 42.23 15.4001 42.23C15.9001 42.23 16.4201 42.23 16.9301 42.23Z" fill="#F7941D"/>
<path d="M16.8701 44.03C17.0701 44.03 17.2601 44.03 17.4601 44.03C17.5601 44.03 17.5701 44.04 17.5701 44.14C17.5701 44.43 17.5701 44.72 17.5701 45.01C17.5701 45.29 17.4301 45.49 17.1301 45.56C16.9301 45.6 16.7301 45.6 16.5401 45.55C16.3601 45.5 16.2201 45.4 16.1701 45.21C16.1501 45.15 16.1501 45.09 16.1501 45.03C16.1501 44.74 16.1501 44.44 16.1501 44.15C16.1501 44.05 16.1601 44.03 16.2701 44.03C16.4701 44.03 16.6701 44.03 16.8701 44.03Z" fill="#F7941D"/>
<path d="M16.74 53.2201C16.74 51.5801 16.74 49.94 16.74 48.3C16.87 48.3 16.99 48.3 17.12 48.3C17.13 48.46 17.12 48.6301 17.12 48.7901C17.12 48.9501 17.12 49.12 17.12 49.28C17.12 49.44 17.12 49.6101 17.12 49.7701C17.12 49.9301 17.12 50.1 17.12 50.26C17.12 50.43 17.12 50.59 17.12 50.76C17.12 50.92 17.12 51.09 17.12 51.25C17.12 51.41 17.12 51.5801 17.12 51.7401C17.12 51.9001 17.12 52.07 17.12 52.23C17.12 52.39 17.12 52.5601 17.12 52.7201C17.12 52.8801 17.12 53.05 17.12 53.21C17.4 53.28 17.6 53.44 17.73 53.69C17.83 53.89 17.85 54.0901 17.8 54.3101C17.71 54.7301 17.32 55.02 16.89 55.01C16.44 54.99 16.09 54.68 16.02 54.23C15.97 53.78 16.23 53.4001 16.74 53.2201Z" fill="#F7941D"/>
<path d="M17.6902 52.7299C18.2102 52.2099 18.7202 51.7 19.2202 51.2C19.4202 51.4 19.6302 51.61 19.8402 51.82C19.3402 52.32 18.8302 52.8299 18.3102 53.3499C18.2502 53.2299 18.1802 53.09 18.0802 52.97C17.9702 52.85 17.8302 52.7899 17.6902 52.7299Z" fill="#F7941D"/>
<path d="M53.0001 4.72C52.9401 2.54 51.6901 0.83 49.7401 0.25C49.0901 0.06 48.3801 0.03 47.8901 0.03C44.9301 0.02 41.9701 0.02 39.0001 0.02C34.4801 0.02 29.8001 0.02 25.2001 0C25.1901 0 25.1901 0 25.1801 0C24.4501 0 23.9301 0.21 23.4101 0.73C19.2001 4.94 14.7201 9.39 8.88007 15.14C8.48007 15.54 8.32007 15.92 8.32007 16.46C8.33007 19.46 9.82007 21.16 9.80007 17.6C9.80007 17.34 9.82007 17.08 9.99007 16.91C10.1301 16.77 10.3201 16.72 10.6601 16.72C11.8301 16.73 13.0201 16.72 14.1701 16.71C16.1201 16.7 18.1301 16.68 20.1101 16.76C21.5701 16.82 22.9001 16.32 23.8601 15.36C24.8301 14.39 25.3301 13.07 25.2701 11.63C25.1901 9.51 25.2101 7.35 25.2301 5.26C25.2401 4.33 25.2501 3.4 25.2501 2.47V1.51H26.1101C28.1001 1.51 30.0801 1.51 32.0701 1.52C37.3001 1.52 42.7001 1.53 48.0101 1.48C48.0201 1.48 48.0301 1.48 48.0401 1.48C49.0201 1.48 49.9001 1.83 50.5401 2.45C51.1901 3.1 51.5301 3.98 51.5301 5.01C51.5101 21.16 51.5101 38.09 51.5301 55.34C51.5301 56.36 51.1901 57.23 50.5501 57.87C49.9201 58.5 49.0401 58.85 48.0701 58.85H48.0601C42.1401 58.83 36.1501 58.82 30.2301 58.82V60.31C35.9801 60.31 41.9301 60.3 48.1701 60.3C48.7501 60.3 49.3101 60.22 49.7701 60.08C51.8201 59.44 53.0001 57.7 53.0001 55.29C53.0001 40.57 53.0001 25.85 53.0001 11.13V5.34C53.0001 5.13 53.0101 4.92 53.0001 4.72ZM23.7601 12.27C23.7501 13.81 22.4701 15.19 21.0201 15.22C19.6701 15.25 18.3401 15.26 16.9801 15.26C16.0601 15.26 15.1301 15.26 14.1901 15.25C13.2301 15.25 12.2601 15.24 11.2701 15.24H10.9401L23.6701 2.67L23.7101 2.93C23.7201 3.01 23.7301 3.07 23.7401 3.12C23.7601 3.21 23.7701 3.26 23.7701 3.31C23.7701 4.11 23.7701 4.92 23.7701 5.72C23.7801 7.86 23.7801 10.09 23.7601 12.27Z" fill="white"/>
<path d="M9.04004 44.3001V17.1201" stroke="white" stroke-width="1.3" stroke-miterlimit="10" stroke-linecap="round" stroke-linejoin="round"/>
<path d="M27.4602 59.5601H47.7302" stroke="white" stroke-width="1.3" stroke-miterlimit="10" stroke-linecap="round" stroke-linejoin="round"/>
</g>
<defs>
<clipPath id="clip0_4480_13514">
<rect width="53" height="62.89" fill="white"/>
</clipPath>
</defs>
</svg>
