<svg width="67" height="64" viewBox="0 0 67 64" fill="none" xmlns="http://www.w3.org/2000/svg">
<path d="M60.2061 51.8871V52.9042C60.2061 54.9566 58.5426 56.6201 56.4903 56.6201H49.7925L45.0467 61.5204C44.2201 62.3728 42.778 61.7883 42.778 60.6011V56.6201H41.5214C39.469 56.6201 37.8055 54.9566 37.8055 52.9042V42.4546C37.8055 40.4023 39.469 38.7388 41.5214 38.7388H56.4903C58.5426 38.7388 60.2061 40.4023 60.2061 42.4546V47.1747" stroke="white" stroke-width="2" stroke-linecap="round" stroke-linejoin="round"/>
<path d="M16.1518 5.47144H13.3114C11.0299 5.47144 9.18103 7.32034 9.18103 9.60185V21.2206C9.18103 23.5021 11.0299 25.351 13.3114 25.351H20.7586L26.0349 30.7973C26.9516 31.7449 28.5585 31.096 28.5585 29.775V25.3484H29.9541C32.2357 25.3484 34.0846 23.4995 34.0846 21.218V9.60443C34.0846 7.32291 32.2357 5.47401 29.9541 5.47401H20.7586" stroke="white" stroke-width="2" stroke-linecap="round" stroke-linejoin="round"/>
<path d="M23.3131 11.5718H21.3612C20.4367 11.5718 19.6848 12.3211 19.6848 13.2482V13.5623C19.6848 14.4868 20.4342 15.2387 21.3612 15.2387H21.6367C22.5612 15.2387 23.3131 15.988 23.3131 16.9151C23.3131 17.8395 22.5637 18.5914 21.6367 18.5914H19.6848" stroke="white" stroke-width="2" stroke-linecap="round" stroke-linejoin="round"/>
<path d="M21.7756 10.2712V11.5717" stroke="white" stroke-width="2" stroke-linecap="round" stroke-linejoin="round"/>
<path d="M21.1833 18.5889V19.8893" stroke="white" stroke-width="2" stroke-linecap="round" stroke-linejoin="round"/>
<path d="M35.8176 40.0496C34.1104 40.0496 32.7275 38.6668 32.7275 36.9595V26.9502" stroke="white" stroke-width="2" stroke-linecap="round" stroke-linejoin="round"/>
<path d="M33.106 4.1066C33.6313 3.14867 34.6484 2.49976 35.8175 2.49976H62.2661C63.9734 2.49976 65.3562 3.88257 65.3562 5.58984V36.9594C65.3562 38.6667 63.9734 40.0495 62.2661 40.0495" stroke="white" stroke-width="2" stroke-linecap="round" stroke-linejoin="round"/>
<path d="M59.0025 7.85596H38.9975C38.4466 7.85596 38 8.33402 38 8.92373V12.7882C38 13.3779 38.4466 13.856 38.9975 13.856H59.0025C59.5534 13.856 60 13.3779 60 12.7882V8.92373C60 8.33402 59.5534 7.85596 59.0025 7.85596Z" stroke="white" stroke-width="2" stroke-linecap="round" stroke-linejoin="round"/>
<path d="M42.3876 18.856H37.6124C37.2742 18.856 37 19.1502 37 19.5132V21.1987C37 21.5617 37.2742 21.856 37.6124 21.856H42.3876C42.7258 21.856 43 21.5617 43 21.1987V19.5132C43 19.1502 42.7258 18.856 42.3876 18.856Z" fill="white"/>
<path d="M51.3876 18.856H46.6124C46.2742 18.856 46 19.1502 46 19.5132V21.1987C46 21.5617 46.2742 21.856 46.6124 21.856H51.3876C51.7258 21.856 52 21.5617 52 21.1987V19.5132C52 19.1502 51.7258 18.856 51.3876 18.856Z" fill="white"/>
<path d="M60.3876 18.856H55.6124C55.2742 18.856 55 19.1502 55 19.5132V21.1987C55 21.5617 55.2742 21.856 55.6124 21.856H60.3876C60.7258 21.856 61 21.5617 61 21.1987V19.5132C61 19.1502 60.7258 18.856 60.3876 18.856Z" fill="white"/>
<path d="M42.3876 24.856H37.6124C37.2742 24.856 37 25.1502 37 25.5132V27.1987C37 27.5617 37.2742 27.856 37.6124 27.856H42.3876C42.7258 27.856 43 27.5617 43 27.1987V25.5132C43 25.1502 42.7258 24.856 42.3876 24.856Z" fill="white"/>
<path d="M51.3876 24.856H46.6124C46.2742 24.856 46 25.1502 46 25.5132V27.1987C46 27.5617 46.2742 27.856 46.6124 27.856H51.3876C51.7258 27.856 52 27.5617 52 27.1987V25.5132C52 25.1502 51.7258 24.856 51.3876 24.856Z" fill="white"/>
<path d="M60.3876 24.856H55.6124C55.2742 24.856 55 25.1502 55 25.5132V27.1987C55 27.5617 55.2742 27.856 55.6124 27.856H60.3876C60.7258 27.856 61 27.5617 61 27.1987V25.5132C61 25.1502 60.7258 24.856 60.3876 24.856Z" fill="white"/>
<path d="M42.3876 30.856H37.6124C37.2742 30.856 37 31.1502 37 31.5132V33.1987C37 33.5617 37.2742 33.856 37.6124 33.856H42.3876C42.7258 33.856 43 33.5617 43 33.1987V31.5132C43 31.1502 42.7258 30.856 42.3876 30.856Z" fill="white"/>
<path d="M51.3876 30.856H46.6124C46.2742 30.856 46 31.1502 46 31.5132V33.1987C46 33.5617 46.2742 33.856 46.6124 33.856H51.3876C51.7258 33.856 52 33.5617 52 33.1987V31.5132C52 31.1502 51.7258 30.856 51.3876 30.856Z" fill="white"/>
<path d="M60.3876 30.856H55.6124C55.2742 30.856 55 31.1502 55 31.5132V33.1987C55 33.5617 55.2742 33.856 55.6124 33.856H60.3876C60.7258 33.856 61 33.5617 61 33.1987V31.5132C61 31.1502 60.7258 30.856 60.3876 30.856Z" fill="white"/>
<path d="M42.8011 43.8374H55.1306" stroke="white" stroke-width="2" stroke-linecap="round" stroke-linejoin="round"/>
<path d="M42.8011 47.4939H55.1306" stroke="white" stroke-width="2" stroke-linecap="round" stroke-linejoin="round"/>
<path d="M42.8011 51.1479H52.1821" stroke="white" stroke-width="2" stroke-linecap="round" stroke-linejoin="round"/>
<path d="M10.6982 49.082H21.9789C25.8549 49.082 29 52.2271 29 56.1031V60.397C29 61.1919 28.3536 61.8383 27.5588 61.8383H5.11834C4.3235 61.8383 3.67712 61.1919 3.67712 60.397V56.1031C3.67712 52.2271 6.82221 49.082 10.6982 49.082Z" stroke="white" stroke-width="1.72538" stroke-linecap="round" stroke-linejoin="round"/>
<path d="M7.9436 50.393L10.5611 52.9602C10.9654 53.3577 11.6117 53.3691 12.032 52.9899L15.5973 49.7558C16.0153 49.3766 16.6548 49.3858 17.0591 49.7763L20.3481 52.9397C20.7684 53.344 21.4376 53.3371 21.8487 52.9237L25.0006 49.7672" stroke="white" stroke-width="1.72538" stroke-linecap="round" stroke-linejoin="round"/>
<path d="M13.2609 52.8895L14.2978 54.5112H18.1898L19.5191 52.5652" stroke="white" stroke-width="1.72538" stroke-linecap="round" stroke-linejoin="round"/>
<path d="M13.4893 61.3516L14.396 54.801" stroke="white" stroke-width="1.72538" stroke-linecap="round" stroke-linejoin="round"/>
<path d="M19.0623 61.3516L18.1555 54.801" stroke="white" stroke-width="1.72538" stroke-linecap="round" stroke-linejoin="round"/>
<path d="M16.3398 48.8993C20.4939 48.8993 23.8614 45.5317 23.8614 41.3776C23.8614 37.2235 20.4939 33.856 16.3398 33.856C12.1857 33.856 8.81812 37.2235 8.81812 41.3776C8.81812 45.5317 12.1857 48.8993 16.3398 48.8993Z" stroke="white" stroke-width="1.49408" stroke-linecap="round" stroke-linejoin="round"/>
</svg>
