<svg width="52" height="34" viewBox="0 0 52 34" fill="none" xmlns="http://www.w3.org/2000/svg">
<g clip-path="url(#clip0_3255_12446)">
<path d="M45.97 17.68H5.17C2.31 17.68 0 15.37 0 12.51V5.17C0 2.31 2.31 0 5.17 0H45.97C48.82 0 51.14 2.31 51.14 5.17V12.51C51.14 15.37 48.83 17.68 45.97 17.68Z" fill="#00B39E"/>
<path d="M8.10006 13.6401C7.22006 13.6401 6.49006 13.5201 5.90006 13.2701C5.31006 13.0201 4.87006 12.6801 4.56006 12.2401C4.25006 11.8001 4.08006 11.2901 4.06006 10.7001H6.19006C6.28006 11.0601 6.45006 11.3401 6.72006 11.5401C6.99006 11.7401 7.45006 11.8401 8.10006 11.8401C8.78006 11.8401 9.27006 11.7501 9.57006 11.5601C9.87006 11.3801 10.0201 11.1101 10.0201 10.7701C10.0201 10.4901 9.93006 10.2601 9.76006 10.0801C9.59006 9.90012 9.32006 9.75012 8.96006 9.62012C8.60006 9.49012 8.13006 9.36012 7.56006 9.25012C6.87006 9.14012 6.28006 8.96012 5.80006 8.72012C5.32006 8.48012 4.95006 8.16012 4.71006 7.75012C4.46006 7.35012 4.34006 6.83012 4.34006 6.21012C4.34006 5.63012 4.49006 5.13012 4.79006 4.71012C5.10006 4.29012 5.53006 3.96012 6.10006 3.72012C6.67006 3.48012 7.33006 3.37012 8.10006 3.37012C8.93006 3.37012 9.62006 3.48012 10.1501 3.71012C10.6801 3.94012 11.0901 4.26012 11.3701 4.68012C11.6501 5.10012 11.8101 5.59012 11.8601 6.16012H9.73006C9.67006 5.82012 9.51006 5.57012 9.28006 5.41012C9.04006 5.24012 8.65006 5.16012 8.10006 5.16012C7.54006 5.16012 7.13006 5.25012 6.87006 5.43012C6.60006 5.61012 6.47006 5.85012 6.47006 6.15012C6.47006 6.51012 6.65006 6.80012 7.02006 7.01012C7.38006 7.22012 7.95006 7.40012 8.74006 7.56012C9.28006 7.66012 9.76006 7.79012 10.1801 7.94012C10.6001 8.09012 10.9601 8.28012 11.2501 8.52012C11.5401 8.76012 11.7701 9.05012 11.9201 9.40012C12.0701 9.75012 12.1501 10.1601 12.1501 10.6401C12.1501 11.2501 11.9901 11.7801 11.6701 12.2301C11.3501 12.6801 10.8901 13.0301 10.2901 13.2801C9.69006 13.5201 8.96006 13.6401 8.10006 13.6401Z" fill="white"/>
<path d="M13.8799 16.31V5.95004H15.6399V7.06004C15.8199 6.72004 16.1099 6.42004 16.5199 6.17004C16.9299 5.91004 17.4399 5.79004 18.0699 5.79004C19.0699 5.79004 19.8599 6.10004 20.4199 6.71004C20.9799 7.32004 21.2599 8.26004 21.2599 9.50004V9.78004C21.2599 10.64 21.1299 11.36 20.8699 11.93C20.6099 12.5 20.2399 12.93 19.7699 13.21C19.2999 13.49 18.7299 13.63 18.0699 13.63C17.5599 13.63 17.1099 13.52 16.7099 13.3C16.3199 13.08 15.9999 12.79 15.7499 12.43V16.3H13.8799V16.31ZM17.6299 12.05C18.1199 12.05 18.5299 11.86 18.8599 11.49C19.1899 11.12 19.3599 10.55 19.3599 9.78004V9.50004C19.3599 8.79004 19.1999 8.26004 18.8799 7.90004C18.5599 7.55004 18.1399 7.37004 17.6299 7.37004C17.2799 7.37004 16.9599 7.44004 16.6699 7.58004C16.3799 7.71004 16.1599 7.92004 15.9999 8.19004C15.8399 8.46004 15.7599 8.80004 15.7599 9.21004V10.06C15.7599 10.5 15.8399 10.88 15.9899 11.17C16.1499 11.47 16.3699 11.69 16.6499 11.83C16.9299 11.98 17.2599 12.05 17.6299 12.05Z" fill="white"/>
<path d="M25.6702 13.64C24.9802 13.64 24.3502 13.5 23.7802 13.22C23.2102 12.94 22.7602 12.51 22.4202 11.94C22.0802 11.37 21.9102 10.64 21.9102 9.78003V9.50003C21.9102 8.69003 22.0802 8.00003 22.4202 7.45003C22.7602 6.90003 23.2102 6.48003 23.7802 6.20003C24.3502 5.92003 24.9802 5.78003 25.6702 5.78003C26.3602 5.78003 26.9902 5.92003 27.5602 6.20003C28.1302 6.48003 28.5802 6.90003 28.9202 7.45003C29.2602 8.00003 29.4302 8.69003 29.4302 9.50003V9.78003C29.4302 10.62 29.2602 11.33 28.9202 11.91C28.5802 12.49 28.1202 12.92 27.5602 13.21C26.9902 13.5 26.3602 13.64 25.6702 13.64ZM25.6702 12.05C26.0302 12.05 26.3502 11.96 26.6202 11.79C26.8902 11.62 27.1102 11.37 27.2802 11.03C27.4502 10.69 27.5302 10.27 27.5302 9.77003V9.50003C27.5302 9.04003 27.4502 8.65003 27.2802 8.34003C27.1102 8.03003 26.8902 7.79003 26.6202 7.62003C26.3502 7.45003 26.0302 7.37003 25.6702 7.37003C25.3202 7.37003 25.0102 7.45003 24.7302 7.62003C24.4502 7.79003 24.2302 8.02003 24.0602 8.34003C23.8902 8.65003 23.8102 9.04003 23.8102 9.50003V9.78003C23.8102 10.29 23.8902 10.71 24.0602 11.04C24.2302 11.37 24.4502 11.62 24.7302 11.79C25.0102 11.97 25.3202 12.05 25.6702 12.05Z" fill="white"/>
<path d="M31.0503 13.47V5.95004H32.7803V7.06004C32.8703 6.84004 33.0103 6.64004 33.2003 6.45004C33.3803 6.26004 33.6103 6.10004 33.8703 5.98004C34.1403 5.85004 34.4203 5.79004 34.7403 5.79004C34.9203 5.79004 35.0703 5.80004 35.2003 5.82004C35.3303 5.84004 35.4103 5.85004 35.4503 5.86004V7.53004C35.3603 7.49004 35.2303 7.46004 35.0903 7.42004C34.9403 7.39004 34.7503 7.37004 34.5003 7.37004C34.1203 7.37004 33.8203 7.45004 33.5803 7.61004C33.3503 7.77004 33.1803 7.98004 33.0803 8.25004C32.9803 8.51004 32.9203 8.79004 32.9203 9.09004V13.47H31.0503Z" fill="white"/>
<path d="M39.0002 13.5601C38.4102 13.5601 37.9302 13.4801 37.5502 13.3101C37.1702 13.1401 36.8902 12.8801 36.7102 12.5101C36.5302 12.1401 36.4402 11.6601 36.4402 11.0601V7.51012H35.4502V5.78012H36.4402V4.25012L38.3102 3.37012V5.95012H40.1302V7.51012H38.3102V10.7701C38.3102 11.2001 38.3902 11.5001 38.5402 11.6901C38.7002 11.8701 38.9902 11.9701 39.4102 11.9701C39.6902 11.9701 39.9802 11.9601 40.2602 11.9301V13.4901C40.0802 13.5101 39.8902 13.5301 39.7002 13.5401C39.5202 13.5501 39.2802 13.5601 39.0002 13.5601Z" fill="white"/>
<path d="M43.6803 13.64C43.0703 13.64 42.5503 13.58 42.1303 13.45C41.7103 13.32 41.3703 13.15 41.1003 12.92C40.8303 12.7 40.6403 12.44 40.5103 12.16C40.3803 11.88 40.3003 11.58 40.2803 11.27H42.1503C42.2003 11.52 42.3503 11.72 42.6003 11.87C42.8503 12.03 43.2103 12.1 43.6903 12.1C44.2403 12.1 44.6303 12.02 44.8703 11.87C45.1103 11.72 45.2303 11.52 45.2303 11.29C45.2303 11.12 45.1803 10.98 45.0703 10.87C44.9703 10.76 44.7803 10.67 44.5203 10.59C44.2503 10.51 43.8803 10.43 43.4003 10.36C42.9903 10.3 42.6103 10.22 42.2603 10.13C41.9103 10.04 41.6003 9.89004 41.3403 9.71004C41.0803 9.53004 40.8803 9.30004 40.7303 9.03004C40.5803 8.76004 40.5103 8.42004 40.5103 8.04004C40.5103 7.63004 40.6403 7.26004 40.8903 6.91004C41.1403 6.56004 41.5003 6.29004 41.9803 6.09004C42.4603 5.89004 43.0303 5.79004 43.7003 5.79004C44.4303 5.79004 45.0103 5.90004 45.4503 6.13004C45.8703 6.35004 46.2003 6.64004 46.4203 7.00004C46.6403 7.36004 46.7603 7.74004 46.8003 8.15004H44.9303C44.8503 7.88004 44.7103 7.67004 44.4903 7.53004C44.2703 7.38004 44.0003 7.31004 43.6803 7.31004C43.2103 7.31004 42.8703 7.38004 42.6703 7.53004C42.4703 7.68004 42.3703 7.86004 42.3703 8.08004C42.3703 8.31004 42.4803 8.48004 42.7003 8.60004C42.9203 8.72004 43.3803 8.83004 44.0703 8.91004C44.5003 8.97004 44.8903 9.05004 45.2503 9.17004C45.6103 9.28004 45.9303 9.43004 46.2103 9.61004C46.4803 9.79004 46.7003 10.01 46.8603 10.28C47.0203 10.55 47.0903 10.88 47.0903 11.27C47.0903 11.72 46.9603 12.13 46.7103 12.49C46.4603 12.85 46.0803 13.13 45.5703 13.33C45.0703 13.54 44.4403 13.64 43.6803 13.64Z" fill="white"/>
<path d="M15.36 33.0399V28.2699L12 22.9199H13.76L16.12 26.7699L18.31 22.9199H19.95L16.84 28.2599V33.0299H15.36V33.0399Z" fill="white"/>
<path d="M6.1 33.0399V28.2699L2.75 22.9299H4.51L6.87 26.7799L9.06 22.9299H10.7L7.59 28.2699V33.0399H6.1Z" fill="white"/>
<path d="M20.5598 33.21C20.3798 33.21 20.2098 33.17 20.0598 33.08C19.9098 32.99 19.7898 32.87 19.6998 32.72C19.6098 32.57 19.5698 32.4 19.5698 32.22C19.5698 31.93 19.6598 31.69 19.8598 31.51C20.0498 31.32 20.2898 31.23 20.5698 31.23C20.8498 31.23 21.0898 31.32 21.2798 31.51C21.4698 31.7 21.5698 31.93 21.5698 32.22C21.5698 32.4 21.5298 32.57 21.4398 32.72C21.3498 32.87 21.2398 32.99 21.0898 33.08C20.9198 33.16 20.7498 33.21 20.5598 33.21Z" fill="white"/>
<path d="M26.4201 33.1399C25.8001 33.1399 25.2401 33.0099 24.7401 32.7499C24.2401 32.4899 23.8501 32.0899 23.5701 31.5699C23.2901 31.0499 23.1401 30.3799 23.1401 29.5899V29.3299C23.1401 28.5799 23.2901 27.9499 23.5901 27.4399C23.8901 26.9299 24.2901 26.5499 24.7901 26.2899C25.2901 26.0299 25.8301 25.8999 26.4201 25.8999C27.0301 25.8999 27.5501 25.9999 27.9801 26.2199C28.4001 26.4299 28.7401 26.7099 28.9801 27.0699C29.2201 27.4299 29.3801 27.8299 29.4501 28.2799H27.9801C27.8901 27.9599 27.7401 27.6899 27.5101 27.4799C27.2801 27.2699 26.9201 27.1699 26.4301 27.1699C26.1101 27.1699 25.8101 27.2399 25.5301 27.3899C25.2501 27.5399 25.0301 27.7699 24.8701 28.0899C24.7001 28.4099 24.6201 28.8199 24.6201 29.3299V29.5899C24.6201 30.1399 24.7001 30.5899 24.8701 30.9199C25.0401 31.2599 25.2601 31.4999 25.5301 31.6599C25.8101 31.8099 26.1101 31.8899 26.4301 31.8899C26.8401 31.8899 27.1701 31.7999 27.4301 31.6099C27.6801 31.4299 27.8701 31.1499 27.9801 30.7699H29.4501C29.3601 31.2599 29.1801 31.6799 28.9101 32.0399C28.6301 32.3899 28.2901 32.6699 27.8701 32.8599C27.4301 33.0399 26.9501 33.1399 26.4201 33.1399Z" fill="white"/>
<path d="M33.8299 33.1399C33.1899 33.1399 32.6099 33.0099 32.0999 32.7399C31.5799 32.4699 31.1699 32.0799 30.8699 31.5499C30.5699 31.0199 30.4199 30.3699 30.4199 29.5899V29.3299C30.4199 28.5999 30.5699 27.9699 30.8699 27.4599C31.1699 26.9499 31.5799 26.5599 32.0999 26.2999C32.6199 26.0399 33.1899 25.9099 33.8299 25.9099C34.4799 25.9099 35.0599 26.0399 35.5699 26.2999C36.0799 26.5599 36.4899 26.9499 36.7899 27.4599C37.0899 27.9699 37.2399 28.5999 37.2399 29.3299V29.5899C37.2399 30.3699 37.0899 31.0199 36.7899 31.5499C36.4899 32.0799 36.0799 32.4799 35.5699 32.7399C35.0599 33.0099 34.4799 33.1399 33.8299 33.1399ZM33.8299 31.8799C34.1599 31.8799 34.4799 31.7999 34.7699 31.6399C35.0699 31.4799 35.3099 31.2399 35.4899 30.8999C35.6699 30.5599 35.7699 30.1199 35.7699 29.5799V29.3199C35.7699 28.8199 35.6799 28.4099 35.4899 28.0899C35.3099 27.7699 35.0699 27.5299 34.7699 27.3799C34.4699 27.2299 34.1599 27.1499 33.8299 27.1499C33.4999 27.1499 33.1799 27.2299 32.8899 27.3799C32.5899 27.5299 32.3499 27.7699 32.1699 28.0899C31.9899 28.4099 31.8899 28.8199 31.8899 29.3199V29.5799C31.8899 30.1199 31.9799 30.5599 32.1699 30.8999C32.3499 31.2399 32.5899 31.4799 32.8899 31.6399C33.1899 31.7999 33.4999 31.8799 33.8299 31.8799Z" fill="white"/>
<path d="M38.6899 32.9999V26.0399H40.0299V27.2199C40.1899 26.8599 40.4399 26.5499 40.7899 26.2899C41.1399 26.0299 41.5399 25.8999 41.9999 25.8999C42.5799 25.8999 43.0299 26.0199 43.3499 26.2699C43.6699 26.5099 43.8999 26.8299 44.0199 27.2299C44.2199 26.8399 44.4999 26.5199 44.8699 26.2699C45.2299 26.0299 45.6499 25.8999 46.1399 25.8999C46.8699 25.8999 47.4299 26.1099 47.8199 26.5399C48.2099 26.9699 48.4099 27.6299 48.4099 28.5299V32.9999H46.9699V28.8699C46.9699 28.2499 46.8499 27.8099 46.6199 27.5499C46.3899 27.2899 46.0799 27.1599 45.6799 27.1599C45.3699 27.1599 45.0999 27.2299 44.8999 27.3799C44.6899 27.5199 44.5399 27.7299 44.4299 27.9799C44.3299 28.2399 44.2699 28.5299 44.2699 28.8699V32.9999H42.8299V28.8699C42.8299 28.2499 42.7099 27.8099 42.4799 27.5499C42.2499 27.2899 41.9399 27.1599 41.5399 27.1599C41.2299 27.1599 40.9599 27.2299 40.7599 27.3799C40.5499 27.5199 40.3999 27.7299 40.2899 27.9799C40.1899 28.2399 40.1299 28.5299 40.1299 28.8699V32.9999H38.6899Z" fill="white"/>
</g>
<defs>
<clipPath id="clip0_3255_12446">
<rect width="51.14" height="33.21" fill="white"/>
</clipPath>
</defs>
</svg>
