<svg width="56" height="12" viewBox="0 0 56 12" fill="none" xmlns="http://www.w3.org/2000/svg">
<g clip-path="url(#clip0_3255_12429)">
<path d="M27.1601 10.1001C27.2601 10.0901 27.3701 10.0801 27.4701 10.0601C27.8001 10.0101 27.9701 9.8201 28.0001 9.5001C28.0101 9.3901 28.0101 9.2701 28.0101 9.1601C28.0101 6.8201 28.0101 4.4701 28.0101 2.1301C28.0101 1.5701 27.7901 1.3201 27.2301 1.2601C27.1701 1.2501 27.1201 1.2501 27.0601 1.2401C27.0801 0.740098 27.5201 0.240098 28.0601 0.0900979C28.5801 -0.0499021 29.0901 -0.0199021 29.5801 0.210098C30.0601 0.430098 30.3301 0.800098 30.3201 1.3601C30.3101 2.1101 30.3201 2.8601 30.3201 3.6001C30.3201 3.6801 30.3201 3.7501 30.3201 3.8601C31.2701 3.0201 32.3701 2.8701 33.5101 3.1001C34.9501 3.3901 35.8301 4.3201 36.1401 5.7401C36.3801 6.8201 36.3201 7.9201 35.9701 8.9801C35.3801 10.7501 34.0301 11.4401 32.3001 11.3301C32.0901 11.3201 31.8801 11.2901 31.6801 11.2401C31.0301 11.1001 30.6701 10.8701 30.2101 10.3001C30.0201 10.7101 29.7401 11.0201 29.3101 11.1801C28.8901 11.3401 28.4701 11.3301 28.0401 11.1801C27.4901 10.9801 27.1701 10.5901 27.1601 10.1001ZM33.7401 7.4101C33.7401 7.3601 33.7401 7.3101 33.7401 7.2601C33.7101 6.5601 33.6701 5.8501 33.4301 5.1801C33.1101 4.3001 32.3001 3.9301 31.4301 4.2401C30.7601 4.4801 30.4501 5.0301 30.3301 5.6801C30.1501 6.6601 30.1901 7.6501 30.3601 8.6201C30.4601 9.2401 30.8001 9.7401 31.4001 10.0101C32.2301 10.3801 33.0801 10.0001 33.4701 9.1001C33.7101 8.5601 33.7401 7.9801 33.7401 7.4101Z" fill="url(#paint0_linear_3255_12429)"/>
<path d="M26.3698 7.19014C26.3198 9.22014 24.9598 10.9701 23.0798 11.3901C20.9898 11.8601 18.9198 10.6501 18.2298 8.56014C17.4898 6.33014 18.6498 3.87014 20.7898 3.10014C23.1398 2.26014 25.6898 3.69014 26.2298 6.17014C26.2898 6.50014 26.3198 6.85014 26.3698 7.19014ZM23.8598 7.17014C23.7898 6.72014 23.7398 6.26014 23.6298 5.81014C23.4998 5.28014 23.2798 4.79014 22.8398 4.43014C22.4098 4.07014 21.8998 4.06014 21.4898 4.44014C21.2798 4.64014 21.0898 4.88014 20.9598 5.14014C20.4498 6.20014 20.4098 7.31014 20.6798 8.44014C20.8098 8.98014 21.0198 9.48014 21.4398 9.86014C21.8998 10.2801 22.4398 10.2801 22.8798 9.85014C23.0698 9.67014 23.2298 9.44014 23.3498 9.21014C23.6998 8.59014 23.7998 7.89014 23.8598 7.17014Z" fill="url(#paint1_linear_3255_12429)"/>
<path d="M46.8901 7.18006C46.9401 5.04006 48.3801 3.29006 50.4601 2.91006C52.1901 2.59006 53.9901 3.55006 54.8201 5.21006C55.8401 7.28006 55.0801 9.85006 53.1201 10.9601C50.7901 12.2701 47.8901 11.0601 47.1301 8.45006C47.0101 8.03006 46.9701 7.60006 46.8901 7.18006ZM52.7901 7.15006C52.7101 6.68006 52.6601 6.21006 52.5501 5.75006C52.4101 5.19006 52.1601 4.68006 51.6601 4.34006C51.3001 4.10006 50.9101 4.10006 50.5501 4.34006C50.1801 4.59006 49.9601 4.94006 49.8001 5.34006C49.3501 6.51006 49.3401 7.70006 49.7601 8.88006C49.9001 9.27006 50.1001 9.63006 50.4301 9.90006C50.8701 10.2701 51.3801 10.2701 51.7901 9.88006C51.9901 9.69006 52.1601 9.46006 52.2901 9.22006C52.6401 8.58006 52.7401 7.88006 52.7901 7.15006Z" fill="url(#paint2_linear_3255_12429)"/>
<path d="M14.1402 6.36012C14.1402 5.86012 14.1002 5.44012 13.9302 5.03012C13.6802 4.42012 13.2102 4.09012 12.5602 4.04012C11.5102 3.97012 10.4802 4.03012 9.44018 4.34012C9.54018 3.94012 9.74018 3.63012 10.0502 3.40012C10.4402 3.11012 10.8902 2.99012 11.3602 2.94012C12.4002 2.83012 13.4402 2.87012 14.4602 3.18012C15.6502 3.54012 16.2302 4.34012 16.2302 5.58012C16.2302 6.84012 16.2302 8.10012 16.2302 9.36012C16.2302 9.61012 16.2802 9.86012 16.5002 9.99012C16.6702 10.0901 16.9002 10.1001 17.1202 10.1501C17.1502 10.5601 16.6102 11.1101 15.9902 11.2601C15.2102 11.4401 14.4102 11.0301 14.1302 10.3201C13.7702 10.9601 13.1902 11.2501 12.5002 11.3601C11.9002 11.4601 11.3002 11.4401 10.7102 11.2801C9.69018 10.9901 9.03018 10.3401 8.80018 9.30012C8.51018 8.07012 8.70018 6.97012 9.68018 6.12012C10.4402 5.46012 11.3702 5.28012 12.3502 5.41012C13.0302 5.50012 13.6502 5.75012 14.1402 6.36012ZM14.1302 8.35012C14.1202 7.87012 13.9802 7.43012 13.6602 7.06012C13.0902 6.41012 12.1902 6.39012 11.5902 7.01012C10.9102 7.72012 10.9102 8.97012 11.5902 9.68012C12.2002 10.3201 13.1302 10.2801 13.6902 9.60012C13.9902 9.24012 14.1102 8.81012 14.1302 8.35012Z" fill="url(#paint3_linear_3255_12429)"/>
<path d="M46.1402 10.0802C46.0802 10.6602 45.5402 11.1602 44.8802 11.2602C44.1302 11.3802 43.4502 11.0102 43.1302 10.3102C42.6702 11.0702 41.9402 11.3502 41.1102 11.3702C40.6502 11.3802 40.1702 11.3502 39.7202 11.2402C38.5402 10.9502 37.7802 10.0202 37.7202 8.81021C37.7002 8.36021 37.7202 7.90021 37.8302 7.47021C38.1402 6.28021 39.2002 5.47021 40.4702 5.37021C40.9802 5.33021 41.4902 5.37021 41.9802 5.54021C42.4202 5.69021 42.8202 5.91021 43.1102 6.30021C43.4102 5.27021 42.6002 4.10021 41.5502 4.03021C40.7202 3.97021 39.4002 4.03021 38.4502 4.33021C38.5402 3.93021 38.7402 3.63021 39.0602 3.39021C39.4502 3.09021 39.9102 2.98021 40.3902 2.93021C41.4102 2.82021 42.4302 2.86021 43.4202 3.16021C44.6502 3.52021 45.2302 4.32021 45.2402 5.59021C45.2502 6.83021 45.2402 8.06021 45.2402 9.30021C45.2402 9.42021 45.2502 9.55021 45.2902 9.66021C45.3902 9.97021 45.6002 10.1102 45.9302 10.0902C45.9902 10.1002 46.0502 10.0902 46.1402 10.0802ZM43.1402 8.36021C43.1302 7.89021 43.0002 7.47021 42.7002 7.10021C42.1102 6.38021 41.1002 6.38021 40.5202 7.10021C39.9602 7.79021 39.9402 8.85021 40.5002 9.56021C41.1002 10.3302 42.1402 10.3302 42.7402 9.56021C43.0102 9.21021 43.1302 8.80021 43.1402 8.36021Z" fill="url(#paint4_linear_3255_12429)"/>
<path d="M0 2.59016C0.31 1.60016 1.19 1.00016 2.23 1.05016C3.35 1.10016 4.48 1.16016 5.6 1.20016C7.04 1.25016 8.47 1.10016 9.92 0.910156C9.91 0.960156 9.91 1.02016 9.88 1.06016C9.68 1.36016 9.5 1.69016 9.27 1.96016C9.04 2.23016 8.72 2.34016 8.36 2.33016C7.79 2.32016 7.22 2.33016 6.66 2.33016C6.29 2.33016 6.12 2.49016 6.12 2.87016C6.12 5.02016 6.12 7.17016 6.12 9.32016C6.12 9.85016 6.45 10.1202 7.09 10.1102C6.98 10.4402 6.77 10.6902 6.51 10.8902C5.86 11.3902 4.86 11.4202 4.18 10.9702C3.79 10.7102 3.59 10.3702 3.59 9.89016C3.6 7.56016 3.59 5.23016 3.59 2.90016C3.59 2.36016 3.54 2.29016 2.99 2.28016C2.29 2.28016 1.58 2.28016 0.88 2.33016C0.58 2.35016 0.29 2.50016 0 2.59016Z" fill="url(#paint5_linear_3255_12429)"/>
</g>
<defs>
<linearGradient id="paint0_linear_3255_12429" x1="2.75216" y1="5.9055" x2="55.0299" y2="5.4624" gradientUnits="userSpaceOnUse">
<stop stop-color="#EC5C2A"/>
<stop offset="0.9883" stop-color="#EE8030"/>
</linearGradient>
<linearGradient id="paint1_linear_3255_12429" x1="2.76403" y1="7.33684" x2="55.0418" y2="6.89384" gradientUnits="userSpaceOnUse">
<stop stop-color="#EC5C2A"/>
<stop offset="0.9883" stop-color="#EE8030"/>
</linearGradient>
<linearGradient id="paint2_linear_3255_12429" x1="2.76634" y1="7.57566" x2="55.0441" y2="7.13266" gradientUnits="userSpaceOnUse">
<stop stop-color="#EC5C2A"/>
<stop offset="0.9883" stop-color="#EE8030"/>
</linearGradient>
<linearGradient id="paint3_linear_3255_12429" x1="2.76348" y1="7.23082" x2="55.0413" y2="6.78782" gradientUnits="userSpaceOnUse">
<stop stop-color="#EC5C2A"/>
<stop offset="0.9883" stop-color="#EE8030"/>
</linearGradient>
<linearGradient id="paint4_linear_3255_12429" x1="2.76555" y1="7.46591" x2="55.0433" y2="7.02281" gradientUnits="userSpaceOnUse">
<stop stop-color="#EC5C2A"/>
<stop offset="0.9883" stop-color="#EE8030"/>
</linearGradient>
<linearGradient id="paint5_linear_3255_12429" x1="2.754" y1="6.14056" x2="55.0318" y2="5.69756" gradientUnits="userSpaceOnUse">
<stop stop-color="#EC5C2A"/>
<stop offset="0.9883" stop-color="#EE8030"/>
</linearGradient>
<clipPath id="clip0_3255_12429">
<rect width="55.27" height="11.49" fill="white"/>
</clipPath>
</defs>
</svg>
