<svg width="45" height="65" viewBox="0 0 45 65" fill="none" xmlns="http://www.w3.org/2000/svg">
<g clip-path="url(#clip0_4204_13521)">
<path d="M27.04 33.2599H1L8.92 19.1299H34.96L27.04 33.2599Z" stroke="white" stroke-width="2" stroke-miterlimit="10" stroke-linejoin="round"/>
<path d="M34.96 19.1299L43.13 33.2599V61.2599C43.13 62.2899 42.29 63.1299 41.26 63.1299H2.87C1.84 63.1299 1 62.2899 1 61.2599V33.0299" stroke="white" stroke-width="2" stroke-miterlimit="10"/>
<path d="M34.9602 19.13H8.91016V5.38C8.91016 2.96 10.8802 1 13.3002 1H30.5802C33.0002 1 34.9602 2.96 34.9602 5.38V19.13Z" stroke="white" stroke-width="2" stroke-miterlimit="10" stroke-linejoin="round"/>
<path d="M26.9602 12.9102H16.9102C15.2602 12.9102 13.9302 11.5802 13.9302 9.9302C13.9302 8.2802 15.2602 6.9502 16.9102 6.9502H26.9502C28.6002 6.9502 29.9302 8.2802 29.9302 9.9302C29.9402 11.5802 28.6002 12.9102 26.9602 12.9102Z" stroke="white" stroke-width="2" stroke-miterlimit="10" stroke-linejoin="round"/>
<path d="M27.04 33.2598V63.1298" stroke="white" stroke-width="2" stroke-miterlimit="10"/>
<path d="M7.89014 54.3599H19.9801" stroke="#F7941D" stroke-width="2" stroke-miterlimit="10"/>
<path d="M14.1099 50.2799C16.9763 50.2799 19.2999 47.9563 19.2999 45.0899C19.2999 42.2235 16.9763 39.8999 14.1099 39.8999C11.2436 39.8999 8.91992 42.2235 8.91992 45.0899C8.91992 47.9563 11.2436 50.2799 14.1099 50.2799Z" stroke="#F7941D" stroke-width="2" stroke-miterlimit="10"/>
</g>
<defs>
<clipPath id="clip0_4204_13521">
<rect width="44.13" height="64.13" fill="white"/>
</clipPath>
</defs>
</svg>
