<svg width="65" height="65" viewBox="0 0 65 65" fill="none" xmlns="http://www.w3.org/2000/svg">
<g clip-path="url(#clip0_2794_11528)">
<path d="M11.7717 6.83252V55.904C11.7717 57.1398 12.7792 58.1426 14.0207 58.1426H33.8272" stroke="white" stroke-width="2" stroke-linecap="round" stroke-linejoin="round"/>
<path d="M55.8869 28.8237V9.44564C55.8869 4.80605 52.1078 1.04028 47.4426 1.04028H6.40845" stroke="white" stroke-width="2" stroke-linecap="round" stroke-linejoin="round"/>
<path d="M6.40853 1.04028C9.36821 1.04028 11.7719 3.4329 11.7719 6.37893V30.9334H4.36853C2.53336 30.9334 1.04517 29.452 1.04517 27.6253V6.37893C1.04517 3.4329 3.44886 1.04028 6.40853 1.04028Z" stroke="white" stroke-width="2" stroke-linecap="round" stroke-linejoin="round"/>
<path d="M19.9863 13.2737C20.7528 13.2737 21.3741 12.6552 21.3741 11.8922C21.3741 11.1292 20.7528 10.5107 19.9863 10.5107C19.2198 10.5107 18.5984 11.1292 18.5984 11.8922C18.5984 12.6552 19.2198 13.2737 19.9863 13.2737Z" fill="white"/>
<path d="M19.9863 21.521C20.7528 21.521 21.3741 20.9025 21.3741 20.1395C21.3741 19.3766 20.7528 18.7581 19.9863 18.7581C19.2198 18.7581 18.5984 19.3766 18.5984 20.1395C18.5984 20.9025 19.2198 21.521 19.9863 21.521Z" fill="white"/>
<path d="M19.9863 29.5935C20.7528 29.5935 21.3741 28.975 21.3741 28.212C21.3741 27.4491 20.7528 26.8306 19.9863 26.8306C19.2198 26.8306 18.5984 27.4491 18.5984 28.212C18.5984 28.975 19.2198 29.5935 19.9863 29.5935Z" fill="white"/>
<path d="M19.9863 37.8782C20.7528 37.8782 21.3741 37.2597 21.3741 36.4967C21.3741 35.7337 20.7528 35.1152 19.9863 35.1152C19.2198 35.1152 18.5984 35.7337 18.5984 36.4967C18.5984 37.2597 19.2198 37.8782 19.9863 37.8782Z" fill="white"/>
<path d="M25.1362 11.8923H48.1281" stroke="white" stroke-width="2" stroke-linecap="round" stroke-linejoin="round"/>
<path d="M25.1362 20.1396H48.1281" stroke="white" stroke-width="2" stroke-linecap="round" stroke-linejoin="round"/>
<path d="M25.1362 28.2119H48.1281" stroke="white" stroke-width="2" stroke-linecap="round" stroke-linejoin="round"/>
<path d="M25.1362 36.4966H38.1998" stroke="white" stroke-width="2" stroke-linecap="round" stroke-linejoin="round"/>
<path d="M39.0527 41.9102H63.9508V61.2882C63.9508 62.7612 62.751 63.9555 61.2712 63.9555H41.7323C40.2525 63.9555 39.0527 62.7612 39.0527 61.2882V41.9102Z" stroke="white" stroke-width="2" stroke-linecap="round" stroke-linejoin="round"/>
<path d="M57.1743 46.1172V39.2473C57.1743 36.1556 54.6577 33.6506 51.5517 33.6506C48.4458 33.6506 45.9292 36.1556 45.9292 39.2473V46.1172" stroke="white" stroke-width="2" stroke-linecap="round" stroke-linejoin="round"/>
</g>
<defs>
<clipPath id="clip0_2794_11528">
<rect width="65" height="65" fill="white"/>
</clipPath>
</defs>
</svg>
