<svg width="63" height="62" viewBox="0 0 63 62" fill="none" xmlns="http://www.w3.org/2000/svg">
<g clip-path="url(#clip0_4480_13501)">
<path d="M8.84985 40.3401V56.5601H34.2399" stroke="white" stroke-width="1.5" stroke-miterlimit="10" stroke-linecap="round" stroke-linejoin="round"/>
<path d="M54.1299 10.61V0.75H8.84985V11.23" stroke="white" stroke-width="1.5" stroke-miterlimit="10" stroke-linecap="round" stroke-linejoin="round"/>
<path d="M17.6999 14.54C17.7699 14.53 17.8399 14.53 17.8999 14.53H27.3699C29.3099 14.53 34.6099 14.53 36.5599 14.53C36.9599 14.53 37.2399 14.44 37.4099 14.28C37.5299 14.16 37.5899 13.99 37.5899 13.78C37.5899 13.15 37.0299 13 36.5599 12.99C36.4999 12.99 36.4399 12.99 36.3799 12.99H36.3199H34.6499C34.1099 12.99 33.5599 12.99 33.0199 12.99C29.1099 12.99 21.8399 12.99 17.9199 13C17.6799 13 17.3699 13.01 17.1099 13.11C16.9199 13.18 16.7799 13.3 16.7099 13.45C16.6499 13.59 16.6499 13.74 16.6999 13.88C16.7999 14.14 17.1099 14.37 17.3699 14.54C17.4299 14.56 17.5699 14.55 17.6999 14.54Z" fill="#F7941D"/>
<path d="M17.6498 10.29C19.4398 10.3 21.2198 10.29 23.0098 10.3H25.3598C27.8698 10.3 41.6498 10.3 44.1498 10.3C44.3798 10.3 44.6398 10.3 44.8798 10.27C45.2798 10.21 45.4898 9.97001 45.4898 9.54001C45.4898 9.11001 45.2898 8.87001 44.8898 8.80001C44.6698 8.77001 44.4398 8.76001 44.2298 8.76001C39.2198 8.76001 22.9298 8.76001 17.9198 8.76001C17.7198 8.76001 17.4798 8.76001 17.2598 8.80001C16.8798 8.87001 16.6898 9.10001 16.6798 9.50001C16.6698 9.74001 16.7298 9.92001 16.8498 10.05C16.9898 10.2 17.2698 10.29 17.6498 10.29Z" fill="#F7941D"/>
<path d="M42.2498 59.6299C42.0998 59.6199 41.9698 59.5599 41.8898 59.4399C41.8298 59.3599 41.7998 59.2699 41.7998 59.1699C41.7998 57.9599 41.7998 56.7599 41.7998 55.5499C41.7998 55.3299 41.9598 55.1499 42.1798 55.1099C43.2298 54.9099 44.2798 54.7199 45.3298 54.5199C46.5098 54.2999 47.6898 54.0799 48.8698 53.8599C48.9298 53.8499 48.9798 53.8399 49.0398 53.8299C49.0398 53.7999 49.0398 53.7699 49.0398 53.7399C49.0398 52.8799 49.0298 52.0199 49.0398 51.1599C49.0498 50.5599 48.8998 50.0099 48.5998 49.4999C48.3498 49.0699 48.0698 48.6499 47.7998 48.2299C47.4598 47.6999 47.1598 47.1499 46.9798 46.5499C46.6298 45.3399 46.6998 44.1599 47.2998 43.0399C47.9598 41.7999 48.9898 40.9999 50.3698 40.7199C52.0598 40.3799 53.5198 40.8699 54.6898 42.1399C55.2998 42.7999 55.6598 43.5899 55.7898 44.4799C55.9198 45.3499 55.7998 46.1899 55.4798 46.9999C55.2498 47.5599 54.9298 48.0699 54.5998 48.5699C54.3298 48.9799 54.0498 49.3799 53.8498 49.8299C53.6798 50.2199 53.5798 50.6199 53.5798 51.0399C53.5798 51.9399 53.5798 52.8499 53.5798 53.7499C53.5798 53.8099 53.5998 53.8299 53.6598 53.8399C54.2598 53.9499 54.8598 54.0599 55.4598 54.1799C56.0998 54.2999 56.7498 54.4199 57.3898 54.5399C58.1698 54.6899 58.9498 54.8299 59.7198 54.9799C59.9598 55.0199 60.1898 55.0699 60.4298 55.1099C60.6798 55.1599 60.8298 55.3299 60.8298 55.5899C60.8298 56.7699 60.8298 57.9499 60.8298 59.1299C60.8298 59.4199 60.6898 59.5799 60.4098 59.6299C60.3998 59.6299 60.3998 59.6299 60.3798 59.6399C60.3798 59.7699 60.3798 59.8999 60.3798 60.0299C60.3798 60.1999 60.3598 60.3699 60.2998 60.5299C60.1198 61.0599 59.6198 61.4299 59.0498 61.4499C59.0298 61.4499 58.9998 61.4499 58.9798 61.4499C53.8698 61.4499 48.7698 61.4499 43.6598 61.4499C43.0298 61.4499 42.4898 61.0599 42.3198 60.4699C42.2798 60.3299 42.2698 60.1899 42.2598 60.0399C42.2398 59.8999 42.2498 59.7699 42.2498 59.6299ZM59.8998 55.9199C59.8698 55.9099 59.8498 55.9099 59.8298 55.8999C59.3598 55.8099 58.8898 55.7199 58.4298 55.6299C57.6898 55.4899 56.9498 55.3499 56.2098 55.2099C55.3598 55.0499 54.5098 54.8899 53.6698 54.7299C53.4798 54.6899 53.2798 54.6399 53.0898 54.6399C51.8998 54.6299 50.7098 54.6399 49.5298 54.6399C49.4898 54.6399 49.4598 54.6399 49.4198 54.6499C49.1598 54.6999 48.9098 54.7499 48.6498 54.7899C47.9798 54.9199 47.2998 55.0399 46.6298 55.1699C45.9898 55.2899 45.3498 55.4099 44.7098 55.5299C44.0698 55.6499 43.4198 55.7699 42.7798 55.8899C42.7198 55.8999 42.6998 55.9299 42.6998 55.9899C42.6998 56.8699 42.6998 57.7499 42.6998 58.6299C42.6998 58.6599 42.6998 58.6799 42.6998 58.7099C48.4398 58.7099 54.1698 58.7099 59.8998 58.7099C59.8998 57.7799 59.8998 56.8599 59.8998 55.9199ZM52.6598 53.7399C52.6598 53.7099 52.6598 53.6899 52.6598 53.6599C52.6598 52.7699 52.6598 51.8899 52.6598 50.9999C52.6598 50.5899 52.7398 50.1999 52.8698 49.8099C53.0398 49.3199 53.2898 48.8699 53.5698 48.4399C53.8398 48.0099 54.1298 47.5899 54.3898 47.1499C54.8398 46.3699 55.0198 45.5299 54.8898 44.6399C54.7498 43.6399 54.2698 42.8299 53.4598 42.2299C52.5598 41.5599 51.5398 41.3599 50.4498 41.6199C49.4698 41.8499 48.7198 42.4099 48.1998 43.2699C47.6198 44.2399 47.5398 45.2699 47.8698 46.3399C48.0198 46.8399 48.2898 47.2799 48.5698 47.7199C48.8498 48.1499 49.1298 48.5699 49.3898 49.0099C49.7498 49.6299 49.9598 50.2999 49.9598 51.0199C49.9598 51.8899 49.9598 52.7599 49.9598 53.6399C49.9598 53.6699 49.9598 53.6999 49.9598 53.7299C50.8598 53.7399 51.7598 53.7399 52.6598 53.7399ZM59.4398 59.6299C54.0198 59.6299 48.5898 59.6299 43.1698 59.6299C43.1698 59.8099 43.1598 59.9899 43.1698 60.1699C43.1898 60.3299 43.2898 60.4499 43.4398 60.4999C43.5098 60.5199 43.5898 60.5299 43.6698 60.5299C48.7598 60.5299 53.8398 60.5299 58.9298 60.5299C58.9598 60.5299 58.9998 60.5299 59.0298 60.5299C59.2298 60.5199 59.4098 60.3799 59.4298 60.1899C59.4598 59.9999 59.4398 59.8199 59.4398 59.6299Z" fill="#F7941D"/>
<path d="M19.2799 21.3701C19.9199 21.5701 20.5599 21.7601 21.1999 21.9801C21.6199 22.1301 21.9899 22.0801 22.3799 21.8701C22.9699 21.5301 23.5899 21.2301 24.1799 20.9001C25.7199 20.0501 27.3599 19.9301 29.0599 20.1801C29.4999 20.2401 29.9299 20.3601 30.3499 20.5001C30.4499 20.5401 30.5599 20.5701 30.6699 20.5301C31.9199 20.0301 33.1699 20.2101 34.4299 20.5201C36.0699 20.9201 37.7199 21.2801 39.3499 21.6701C39.8699 21.7901 40.3699 21.8201 40.8899 21.7101C41.6599 21.5401 42.4399 21.4001 43.2099 21.2501C43.4799 21.7401 43.7999 22.2001 44.0099 22.7101C43.2999 22.8401 42.5799 22.9401 41.8699 23.1101C40.7499 23.3801 39.6699 23.3901 38.5399 23.0901C36.6899 22.6101 34.8199 22.2001 32.9399 21.8101C32.0699 21.6301 31.2299 21.8001 30.5299 22.4101C28.9799 23.7601 27.4399 25.1301 25.8899 26.4901C25.7899 26.5801 25.7199 26.6801 25.6899 26.8101C25.0899 28.9301 24.4899 31.0601 23.8799 33.1801C23.8199 33.3801 23.8599 33.4701 24.0499 33.5501C24.7099 33.8101 25.3599 33.7901 26.0099 33.5101C26.8299 33.1501 27.2699 32.4601 27.6099 31.6701C28.0799 30.5701 28.5699 29.4701 29.0399 28.3601C29.1799 28.0201 29.4199 27.8301 29.7699 27.7301C30.6299 27.5001 31.4799 27.2601 32.3299 27.0201C32.6699 26.9201 32.9599 26.9701 33.2499 27.1701C34.5199 28.0601 35.7899 28.9401 37.0699 29.8201C39.8699 31.7601 42.6599 33.6901 45.4599 35.6301C45.6599 35.7701 45.8699 35.8501 46.1099 35.9001C46.5899 35.9901 47.0399 35.8901 47.4699 35.7101C48.6499 35.2301 49.5599 34.4201 50.2499 33.3501C50.6099 33.7301 51.0199 34.0501 51.4399 34.3601C50.3299 35.9401 48.9199 37.0901 46.9699 37.4401C46.8399 37.4601 46.8299 37.5101 46.8399 37.6401C47.0599 39.3801 46.2199 40.5501 44.4999 40.9001C44.2799 40.9401 44.2599 41.0501 44.2699 41.2301C44.3999 42.9601 42.9799 44.6201 41.3299 44.7801C41.1699 44.8001 41.1499 44.8601 41.1399 45.0001C41.0199 46.7801 39.5299 48.1001 37.7499 47.9801C37.5899 47.9701 37.4799 47.9701 37.4299 48.1801C36.9499 50.1001 35.0799 50.9201 33.3399 49.9701C33.1999 49.8901 33.0799 49.8101 32.8999 49.9101C31.4799 50.6701 29.7999 49.9701 29.1299 48.5601C29.0499 48.4001 28.9999 48.3401 28.7999 48.4001C27.2999 48.8701 25.6599 48.0801 25.0699 46.6101C24.9799 46.3801 24.8899 46.3401 24.6499 46.3901C23.0199 46.7001 21.3799 45.6001 21.0399 43.9801C20.9899 43.7501 20.9199 43.6501 20.6499 43.6601C19.0899 43.7001 17.7399 42.5701 17.5199 41.0201C17.4799 40.7601 17.3699 40.6501 17.1399 40.5401C15.9499 39.9901 14.8999 39.2201 13.9199 38.3601C12.8099 37.4001 11.7999 36.3501 10.9799 35.1201C10.8699 34.9501 10.7699 34.7701 10.6699 34.5901C11.1099 34.3301 11.5299 34.0201 11.9299 33.7001C12.6899 35.0501 13.7599 36.1401 14.9099 37.1501C15.7199 37.8701 16.5699 38.5401 17.4999 39.1001C17.7699 39.2601 17.9299 39.2701 18.1099 38.9601C18.4699 38.3401 18.9499 37.8301 19.6399 37.5601C20.9699 37.0301 22.5499 37.5801 23.3499 38.8401C23.4299 38.9601 23.4499 39.1301 23.6799 38.9901C25.2199 38.0001 27.2199 38.8201 27.9499 40.2601C28.0499 40.4601 28.1399 40.4801 28.3399 40.4101C29.9899 39.8201 31.9299 40.8901 32.2699 42.5901C32.3499 42.9801 32.4399 43.2001 32.8399 43.4301C34.2699 44.2701 35.6399 45.2001 37.0199 46.1101C37.3699 46.3401 37.7399 46.4501 38.1499 46.4101C38.7799 46.3501 39.3799 45.8501 39.5299 45.2501C39.6599 44.7601 39.4399 44.3701 38.8299 43.9501C36.0799 42.0801 33.3299 40.2001 30.5899 38.3301C30.1099 38.0001 29.9999 37.5701 30.2699 37.1701C30.5299 36.7801 30.9999 36.7301 31.4699 37.0501C32.1599 37.5201 32.8499 37.9901 33.5399 38.4601C35.7199 39.9501 37.9099 41.4301 40.0899 42.9201C41.3599 43.7901 42.5599 42.6501 42.6899 41.6501C42.7799 40.9801 42.4599 40.5201 41.9099 40.1601C39.8799 38.8101 37.8599 37.4401 35.8399 36.0801C35.3299 35.7401 34.8099 35.4001 34.2999 35.0401C33.8899 34.7601 33.7899 34.3001 34.0399 33.9401C34.2899 33.5601 34.7399 33.4801 35.1499 33.7401C35.2599 33.8101 35.3699 33.8801 35.4699 33.9601C37.9099 35.6001 40.3399 37.2401 42.7799 38.8801C43.1199 39.1101 43.4799 39.3001 43.8999 39.3601C44.7499 39.4701 45.4299 38.7901 45.2799 37.9501C45.2099 37.5601 44.9799 37.2501 44.6699 37.0201C43.9299 36.4901 43.1899 35.9601 42.4399 35.4501C39.1999 33.2001 35.9599 30.9501 32.7199 28.7001C32.5599 28.5901 32.4199 28.5701 32.2399 28.6301C31.6999 28.8001 31.1599 28.9501 30.6199 29.0901C30.4099 29.1401 30.3099 29.2401 30.2299 29.4301C29.8099 30.4301 29.3799 31.4201 28.9499 32.4101C28.7299 32.9201 28.4499 33.3901 28.0899 33.8201C26.6699 35.5201 24.0599 35.7601 22.4399 34.3501C22.1399 34.0901 22.0599 33.7801 22.1599 33.4201C22.8599 30.9601 23.5599 28.5101 24.2599 26.0501C24.3199 25.8201 24.4399 25.6401 24.6199 25.4901C25.7799 24.4801 26.9299 23.4601 28.0899 22.4401C28.3499 22.2101 28.6099 21.9701 28.8999 21.7101C26.9399 21.4301 25.8299 21.6801 24.5499 22.4201C24.0399 22.7101 23.5199 22.9701 22.9999 23.2501C22.3799 23.5901 21.7199 23.7401 21.0299 23.5301C20.1699 23.2701 19.3199 22.9801 18.4599 22.7101C18.7399 22.2601 18.9999 21.8101 19.2799 21.3701ZM27.8599 47.0001C28.3899 46.9901 28.7399 46.7601 28.9899 46.3801C29.5299 45.5601 30.0599 44.7201 30.5799 43.8901C30.7399 43.6301 30.8399 43.3401 30.7799 43.0301C30.6699 42.4301 30.2099 41.9801 29.5599 41.8401C29.0599 41.7301 28.5399 41.9601 28.2199 42.4901C27.7399 43.3001 27.2099 44.0801 26.6999 44.8701C26.4199 45.3001 26.3499 45.7601 26.6099 46.2201C26.8999 46.7101 27.3499 46.9601 27.8599 47.0001ZM26.7299 41.6201C26.7299 40.9801 26.3099 40.4301 25.6699 40.2201C25.0799 40.0201 24.5199 40.1801 24.1499 40.7001C23.6799 41.3601 23.2199 42.0301 22.7999 42.7201C22.3599 43.4301 22.5799 44.2001 23.2999 44.6501C23.9999 45.0901 24.7599 44.9401 25.2299 44.2401C25.6799 43.5701 26.1099 42.8801 26.5499 42.2001C26.6699 42.0201 26.7399 41.8201 26.7299 41.6201ZM20.7399 38.9301C20.4699 38.9301 20.2199 39.0001 20.0099 39.1601C19.6299 39.4501 19.3599 39.8301 19.1899 40.2601C18.9799 40.7801 19.0999 41.2501 19.5099 41.6501C20.2099 42.3201 21.1099 42.2401 21.6999 41.4701C21.7799 41.3601 21.8599 41.2401 21.9399 41.1201C22.2399 40.6901 22.3499 40.2301 22.0899 39.7501C21.7899 39.2301 21.3299 38.9701 20.7399 38.9301ZM31.9199 45.8801C31.2299 45.8801 30.4399 46.6801 30.4399 47.3901C30.4399 48.0401 31.0299 48.6701 31.6599 48.6801C32.3299 48.6901 33.1399 47.8701 33.1599 47.1701C33.1699 46.5001 32.5799 45.8801 31.9199 45.8801ZM34.7199 46.4701C34.6899 46.4801 34.6699 46.4901 34.6399 46.5001C34.7999 47.2301 34.6899 47.9201 34.3099 48.5601C34.2299 48.7001 34.3399 48.7201 34.4299 48.7501C34.8399 48.8901 35.2199 48.8401 35.5399 48.5301C35.8699 48.2101 36.0199 47.8201 35.9499 47.3501C35.9399 47.2901 35.8999 47.2301 35.8499 47.1901C35.4799 46.9601 35.0999 46.7101 34.7199 46.4701Z" fill="white"/>
<path d="M19.2799 21.37C18.9999 21.81 18.7299 22.26 18.4999 22.74C18.4399 22.83 18.3799 22.92 18.3199 23.01C16.7799 25.72 15.2399 28.42 13.6899 31.13C13.1699 32.04 12.6899 32.98 11.9299 33.72C11.5299 34.04 11.1199 34.35 10.6699 34.61C9.9699 34.93 9.2499 35.18 8.4699 35.25C7.2999 35.37 6.1899 35.17 5.1699 34.61C3.5799 33.74 1.9999 32.82 0.429899 31.92C-0.0601009 31.64 -0.140101 31.24 0.169899 30.7C1.8099 27.82 3.4499 24.94 5.0899 22.07C6.3199 19.91 7.5499 17.74 8.7899 15.58C9.1899 14.88 9.5199 14.79 10.2199 15.18C13.0899 16.81 15.9599 18.45 18.8199 20.08C19.4299 20.44 19.5299 20.72 19.2799 21.37ZM7.9799 33.74C9.5099 33.67 10.8199 33.01 11.6499 31.56C13.5999 28.18 15.5199 24.77 17.4599 21.38C17.5699 21.19 17.5199 21.13 17.3499 21.04C14.9399 19.67 12.5299 18.3 10.1299 16.93C9.9299 16.81 9.8499 16.85 9.7399 17.04C7.1499 21.59 4.5599 26.14 1.9599 30.69C1.8399 30.89 1.8799 30.97 2.0699 31.08C3.2799 31.76 4.4799 32.45 5.6799 33.14C6.3699 33.52 7.0899 33.72 7.9799 33.74Z" fill="white"/>
<path d="M44.0199 22.7101C43.7999 22.1901 43.4899 21.7301 43.2199 21.2501C43.0599 20.6801 43.1599 20.4201 43.6799 20.1301C46.5899 18.4701 49.5099 16.8101 52.4199 15.1501C52.9999 14.8201 53.3799 14.9201 53.7099 15.5101C56.5899 20.5701 59.4699 25.6301 62.3499 30.6801C62.6999 31.2901 62.5999 31.6501 61.9899 32.0001C60.5199 32.8401 59.0699 33.6901 57.5899 34.5001C55.6099 35.5901 53.6199 35.5601 51.6499 34.4701C51.5799 34.4301 51.5199 34.4001 51.4499 34.3701C51.0299 34.0601 50.6199 33.7401 50.2599 33.3601C49.9099 32.9301 49.6099 32.4701 49.3399 31.9901C47.6399 29.0001 45.9399 26.0201 44.2399 23.0401C44.1699 22.9201 44.1299 22.7901 44.0199 22.7101ZM54.5499 33.7301C55.4499 33.7201 56.1799 33.5201 56.8599 33.1301C58.0499 32.4501 59.2399 31.7601 60.4399 31.0901C60.6699 30.9601 60.6799 30.8701 60.5499 30.6501C59.3699 28.6001 58.1999 26.5301 57.0299 24.4801C55.6199 22.0101 54.2099 19.5301 52.7999 17.0601C52.7299 16.9301 52.6999 16.7601 52.4599 16.9001C50.0299 18.2901 47.5899 19.6801 45.1599 21.0601C45.0199 21.1401 44.9899 21.2001 45.0799 21.3501C47.0299 24.7701 48.9599 28.2001 50.9399 31.6101C51.7499 33.0201 53.0599 33.6601 54.5499 33.7301Z" fill="white"/>
</g>
<defs>
<clipPath id="clip0_4480_13501">
<rect width="62.55" height="61.44" fill="white"/>
</clipPath>
</defs>
</svg>
