<svg width="47" height="63" viewBox="0 0 47 63" fill="none" xmlns="http://www.w3.org/2000/svg">
<g clip-path="url(#clip0_4255_13287)">
<path d="M43.27 0.26001C42.59 0.0600097 41.85 0.0400098 41.34 0.0400098C38.25 0.0300098 35.15 0.0300098 32.06 0.0300098C27.34 0.0300098 22.45 0.0300098 17.65 0.0100098C17.64 0.0100098 17.64 0.0100098 17.63 0.0100098C16.86 0.0100098 16.33 0.23001 15.78 0.78001C11.37 5.16001 6.68 9.80001 0.59 15.81C0.17 16.23 0 16.63 0 17.19C0.01 20.32 0.01 23.45 0.01 26.58V30.33V56.48C0.01 56.96 0.01 57.45 0.01 57.93C0.02 60.91 2.09 62.99 5.05 62.99C16.48 63 28.44 63 41.62 62.99C42.23 62.99 42.81 62.91 43.3 62.76C45.44 62.09 46.67 60.27 46.67 57.76C46.67 42.39 46.67 27.01 46.67 11.64V5.59001C46.67 5.37001 46.67 5.16001 46.67 4.94001C46.61 2.65001 45.3 0.86001 43.27 0.26001ZM16.03 2.79001L16.07 3.06001C16.08 3.14001 16.1 3.21001 16.11 3.25001C16.13 3.34001 16.14 3.40001 16.14 3.45001C16.14 4.29001 16.14 5.13001 16.14 5.97001C16.14 8.21001 16.15 10.54 16.13 12.82C16.12 14.43 14.78 15.86 13.27 15.9C11.86 15.93 10.47 15.94 9.05 15.94C8.09 15.94 7.12 15.94 6.13 15.93C5.13 15.93 4.11 15.92 3.08 15.92H2.74L16.03 2.79001ZM45.13 57.8C45.13 58.86 44.78 59.78 44.11 60.45C43.45 61.11 42.53 61.47 41.52 61.47H41.51C32.64 61.44 23.61 61.44 14.88 61.44C11.63 61.44 8.38 61.44 5.13 61.44C2.93 61.44 1.57 60.07 1.56 57.88V56.96V29.54C1.56 25.88 1.56 22.1 1.55 18.38C1.55 18.11 1.57 17.83 1.75 17.66C1.89 17.52 2.09 17.46 2.45 17.46C3.67 17.47 4.92 17.46 6.12 17.45C8.16 17.43 10.26 17.42 12.33 17.5C13.85 17.56 15.24 17.04 16.25 16.03C17.26 15.02 17.78 13.64 17.72 12.13C17.63 9.91001 17.65 7.66001 17.67 5.48001C17.68 4.51001 17.69 3.54001 17.69 2.57001V1.57001H18.59C20.66 1.57001 22.74 1.57001 24.81 1.58001C30.27 1.59001 35.91 1.60001 41.46 1.55001C41.47 1.55001 41.48 1.55001 41.49 1.55001C42.51 1.55001 43.44 1.91001 44.1 2.57001C44.78 3.24001 45.14 4.17001 45.13 5.24001C45.11 22.1 45.11 39.79 45.13 57.8Z" fill="white"/>
<path d="M30.9101 28.3901C29.7601 28.3901 28.8301 27.4601 28.8301 26.3101V22.1901C28.8301 21.0401 29.7601 20.1101 30.9101 20.1101H35.0301" stroke="#2F3743" stroke-width="2" stroke-miterlimit="10" stroke-linecap="round" stroke-linejoin="round"/>
<path d="M32.1904 25.1801L34.9404 26.9901L39.5704 23.3401" stroke="#2F3743" stroke-width="2" stroke-miterlimit="10" stroke-linecap="round" stroke-linejoin="round"/>
<path d="M30.9101 41.99C29.7601 41.99 28.8301 41.06 28.8301 39.91V35.79C28.8301 34.64 29.7601 33.71 30.9101 33.71H35.0301" stroke="#2F3743" stroke-width="2" stroke-miterlimit="10" stroke-linecap="round" stroke-linejoin="round"/>
<path d="M32.1904 38.7799L34.9404 40.5899L39.5704 36.9399" stroke="#2F3743" stroke-width="2" stroke-miterlimit="10" stroke-linecap="round" stroke-linejoin="round"/>
<path d="M30.9101 55.5901C29.7601 55.5901 28.8301 54.6601 28.8301 53.5101V49.3901C28.8301 48.2401 29.7601 47.3101 30.9101 47.3101H35.0301" stroke="#2F3743" stroke-width="2" stroke-miterlimit="10" stroke-linecap="round" stroke-linejoin="round"/>
<path d="M32.1904 52.38L34.9404 54.19L39.5704 50.54" stroke="#2F3743" stroke-width="2" stroke-miterlimit="10" stroke-linecap="round" stroke-linejoin="round"/>
<path d="M24.1802 22.3201H7.41016" stroke="white" stroke-width="2" stroke-miterlimit="10" stroke-linecap="round"/>
<path d="M24.1802 25.98H17.7002" stroke="white" stroke-width="2" stroke-miterlimit="10" stroke-linecap="round"/>
<path d="M24.1802 36.02H7.41016" stroke="white" stroke-width="2" stroke-miterlimit="10" stroke-linecap="round"/>
<path d="M24.1802 39.6699H17.7002" stroke="white" stroke-width="2" stroke-miterlimit="10" stroke-linecap="round"/>
<path d="M24.1802 49.72H7.41016" stroke="white" stroke-width="2" stroke-miterlimit="10" stroke-linecap="round"/>
<path d="M24.1802 53.3701H17.7002" stroke="white" stroke-width="2" stroke-miterlimit="10" stroke-linecap="round"/>
</g>
<defs>
<clipPath id="clip0_4255_13287">
<rect width="46.67" height="63" fill="white"/>
</clipPath>
</defs>
</svg>
