<svg width="51" height="68" viewBox="0 0 51 68" fill="none" xmlns="http://www.w3.org/2000/svg">
<g clip-path="url(#clip0_4541_13395)">
<path d="M17.9303 66.5901C16.7003 64.3001 15.3903 61.0701 15.6403 57.8101" stroke="#F7941D" stroke-width="2" stroke-miterlimit="10" stroke-linecap="round" stroke-linejoin="round"/>
<path d="M6.50959 31.5701C6.50959 31.5701 2.23959 31.5701 1.17959 34.8301C0.789594 36.0301 1.02959 37.3801 1.75959 38.4101C2.51959 39.4901 3.93959 40.7001 6.43959 40.7001" stroke="#F7941D" stroke-width="2" stroke-miterlimit="10" stroke-linecap="round" stroke-linejoin="round"/>
<path d="M6.50978 50.7201C6.50978 50.7201 2.91978 50.6701 1.98978 47.3701C1.72978 46.4601 1.73978 45.4601 2.14978 44.6101C2.63978 43.5901 3.77978 42.4401 6.44978 42.3701" stroke="#F7941D" stroke-width="2" stroke-miterlimit="10" stroke-linecap="round" stroke-linejoin="round"/>
<path d="M39.8896 37.7L42.9296 42.91C45.2196 46.85 46.7596 51.18 47.4496 55.68L49.0196 65.91" stroke="#F7941D" stroke-width="2" stroke-miterlimit="10" stroke-linecap="round" stroke-linejoin="round"/>
<path d="M20.1098 57.51H14.6398C10.1498 57.51 6.50977 53.87 6.50977 49.38V9.13C6.50977 4.64 10.1498 1 14.6398 1H31.4898C35.9798 1 39.6198 4.64 39.6198 9.13V49.39C39.6198 52.56 37.8098 55.3 35.1598 56.64" stroke="white" stroke-width="2" stroke-miterlimit="10" stroke-linecap="round" stroke-linejoin="round"/>
<path d="M18.8298 46.13H10.3398V10.7H35.5498V46.13H27.3198" stroke="white" stroke-width="2" stroke-miterlimit="10" stroke-linecap="round" stroke-linejoin="round"/>
<path d="M31.2802 20.6001H14.2402V37.0701H31.2802V20.6001Z" stroke="#F7941D" stroke-width="2" stroke-miterlimit="10" stroke-linecap="round" stroke-linejoin="round"/>
<path d="M17.7695 31.4601L20.2395 29.4001L23.4295 32.4701L28.1995 27.8601" stroke="white" stroke-width="2" stroke-miterlimit="10" stroke-linecap="round" stroke-linejoin="round"/>
<path d="M20.4298 25.96C21.0318 25.96 21.5198 25.472 21.5198 24.87C21.5198 24.268 21.0318 23.78 20.4298 23.78C19.8279 23.78 19.3398 24.268 19.3398 24.87C19.3398 25.472 19.8279 25.96 20.4298 25.96Z" fill="white"/>
<path d="M19.6602 6.87012H25.6002" stroke="white" stroke-width="2" stroke-miterlimit="10" stroke-linecap="round" stroke-linejoin="round"/>
<path d="M28.4702 66.49C28.0402 66.13 27.6202 65.74 27.2102 65.35C24.8902 63.12 22.8102 60.6 21.1602 57.83C19.2802 54.69 17.0802 50.32 19.4802 46.88C20.6402 45.22 22.5902 44.72 24.4902 45.3C27.3802 46.18 29.5002 48.64 31.2702 50.95C33.1202 53.37 35.2002 56.06 35.4802 59.2" stroke="#F7941D" stroke-width="2" stroke-miterlimit="10" stroke-linecap="round" stroke-linejoin="round"/>
</g>
<defs>
<clipPath id="clip0_4541_13395">
<rect width="50.02" height="67.59" fill="white"/>
</clipPath>
</defs>
</svg>
