<svg width="56" height="66" viewBox="0 0 56 66" fill="none" xmlns="http://www.w3.org/2000/svg">
<g clip-path="url(#clip0_4255_13494)">
<path d="M50.2305 39.2V64.19" stroke="white" stroke-width="2" stroke-miterlimit="10" stroke-linecap="round" stroke-linejoin="round"/>
<path d="M5.16016 22.9V1H50.2302V22.35" stroke="white" stroke-width="2" stroke-miterlimit="10" stroke-linecap="round" stroke-linejoin="round"/>
<path d="M50.2302 64.19H5.16016V39.2" stroke="white" stroke-width="2" stroke-miterlimit="10" stroke-linecap="round" stroke-linejoin="round"/>
<path d="M42.9206 17.3601H24.3906V18.9601H42.9206V17.3601Z" fill="white"/>
<path d="M42.9206 23.74H24.3906V25.34H42.9206V23.74Z" fill="white"/>
<path d="M27.2503 38.03H11.8203V39.63H27.2503V38.03Z" fill="#F7941D"/>
<path d="M42.9206 43.6201H24.3906V45.2201H42.9206V43.6201Z" fill="white"/>
<path d="M42.9206 46.6399H24.3906V48.2399H42.9206V46.6399Z" fill="white"/>
<path d="M42.9197 20.55H13.9697V22.15H42.9197V20.55Z" fill="white"/>
<path d="M20.3803 6.6001V12.0301H18.3203V6.6001H20.3803Z" fill="#F7941D"/>
<path d="M25.0104 12.13H24.7304C24.0904 12.13 23.5404 12.07 23.0604 11.94C22.5804 11.81 22.2104 11.66 21.9404 11.47C21.6704 11.28 21.4604 11.06 21.2904 10.8C21.1204 10.54 21.0204 10.3 20.9704 10.08C20.9204 9.85999 20.9004 9.62999 20.9004 9.38999V9.18999C20.9004 8.94999 20.9204 8.71999 20.9704 8.49999C21.0204 8.28999 21.1204 8.04999 21.2804 7.79999C21.4404 7.54999 21.6504 7.32999 21.9204 7.13999C22.1804 6.95999 22.5604 6.79999 23.0404 6.67999C23.5204 6.55999 24.0904 6.48999 24.7404 6.48999H25.0204C25.4704 6.48999 25.8904 6.51999 26.2604 6.57999C26.6404 6.63999 26.9504 6.70999 27.2104 6.80999C27.4704 6.89999 27.6904 7.00999 27.8904 7.13999C28.0904 7.26999 28.2404 7.39999 28.3504 7.52999C28.4604 7.65999 28.5504 7.79999 28.6204 7.94999C28.6904 8.09999 28.7404 8.22999 28.7604 8.34999C28.7804 8.46999 28.7904 8.57999 28.7904 8.68999V8.77999H26.6404C26.4704 8.22999 25.8804 7.94999 24.8504 7.94999C23.6404 7.94999 23.0304 8.36999 23.0304 9.21999V9.30999C23.0304 9.46999 23.0604 9.61999 23.1104 9.76999C23.1704 9.91999 23.2604 10.06 23.3904 10.2C23.5204 10.34 23.7104 10.45 23.9604 10.54C24.2104 10.62 24.5104 10.66 24.8504 10.66C25.1504 10.66 25.4204 10.63 25.6404 10.58C25.8604 10.53 26.0404 10.46 26.1604 10.39C26.2804 10.32 26.3704 10.24 26.4504 10.14C26.5304 10.04 26.5704 9.96999 26.5904 9.91999C26.6004 9.87999 26.6204 9.82999 26.6304 9.76999H28.7704V9.88999C28.7704 10.06 28.7504 10.22 28.7004 10.4C28.6504 10.57 28.5404 10.77 28.3804 10.98C28.2104 11.2 28.0004 11.39 27.7404 11.55C27.4804 11.71 27.1104 11.85 26.6404 11.96C26.1804 12.08 25.6404 12.13 25.0104 12.13Z" fill="#F7941D"/>
<path d="M33.81 10.3301H31.36V12.0301H29.29V6.6001H33.81C35.53 6.6001 36.38 7.2001 36.38 8.3901V8.5101C36.38 9.7301 35.53 10.3301 33.81 10.3301ZM31.36 7.9601V8.9701H33.56C34.02 8.9701 34.25 8.8001 34.25 8.4701V8.4601C34.25 8.1301 34.02 7.9601 33.56 7.9601H31.36Z" fill="#F7941D"/>
<path d="M5.28 28.8601C5.81 29.1001 6.23 29.4401 6.53 29.8601C6.83 30.2801 6.98 30.7601 6.98 31.3001C6.98 31.8301 6.83 32.3001 6.53 32.7301C6.23 33.1501 5.82 33.4801 5.29 33.7301C4.76 33.9701 4.17 34.0901 3.51 34.0901C2.88 34.0901 2.29 33.9701 1.75 33.7301C1.21 33.4901 0.79 33.1501 0.47 32.7301C0.15 32.3101 0 31.8201 0 31.3001C0 30.7701 0.16 30.3001 0.47 29.8701C0.78 29.4401 1.21 29.1101 1.74 28.8701C2.27 28.6301 2.86 28.5101 3.49 28.5101C4.15 28.5001 4.75 28.6201 5.28 28.8601ZM4.28 32.5601C4.53 32.4501 4.73 32.2801 4.88 32.0601C5.03 31.8401 5.11 31.5901 5.11 31.2901C5.11 30.9901 5.03 30.7401 4.88 30.5201C4.72 30.3001 4.52 30.1401 4.27 30.0201C4.02 29.9101 3.76 29.8501 3.49 29.8501C3.22 29.8501 2.96 29.9101 2.71 30.0201C2.47 30.1301 2.27 30.3001 2.12 30.5201C1.97 30.7501 1.89 31.0001 1.89 31.3001C1.89 31.6001 1.97 31.8601 2.12 32.0701C2.27 32.2901 2.47 32.4501 2.72 32.5701C2.97 32.6801 3.23 32.7401 3.5 32.7401C3.77 32.7301 4.03 32.6801 4.28 32.5601Z" fill="white"/>
<path d="M13.4096 32.6401H14.1196V34.6301H12.4596V33.9501L8.55965 33.9401V34.6301H6.88965V32.6401H7.41965C7.67965 32.1401 7.88965 31.6901 8.04965 31.2901C8.20965 30.8901 8.32965 30.4801 8.40965 30.0401C8.48965 29.6101 8.53965 29.1301 8.53965 28.6101H13.3996L13.4096 32.6401ZM10.0896 29.8901C10.0096 30.3501 9.89965 30.7901 9.73965 31.2101C9.57965 31.6301 9.37965 32.1101 9.11965 32.6401H11.7496V29.8901H10.0896Z" fill="white"/>
<path d="M19.4802 28.8602C20.0102 29.1002 20.4302 29.4402 20.7302 29.8602C21.0302 30.2802 21.1802 30.7602 21.1802 31.3002C21.1802 31.8302 21.0302 32.3002 20.7302 32.7302C20.4302 33.1502 20.0202 33.4802 19.4902 33.7302C18.9602 33.9702 18.3702 34.0902 17.7102 34.0902C17.0802 34.0902 16.4902 33.9702 15.9502 33.7302C15.4102 33.4902 14.9902 33.1502 14.6702 32.7302C14.3502 32.3102 14.2002 31.8302 14.2002 31.3102C14.2002 30.7802 14.3602 30.3102 14.6702 29.8802C14.9802 29.4502 15.4102 29.1202 15.9402 28.8802C16.4702 28.6402 17.0602 28.5202 17.6902 28.5202C18.3602 28.5002 18.9502 28.6202 19.4802 28.8602ZM18.4802 32.5602C18.7302 32.4502 18.9302 32.2802 19.0802 32.0602C19.2302 31.8402 19.3102 31.5902 19.3102 31.2902C19.3102 30.9902 19.2302 30.7402 19.0802 30.5202C18.9202 30.3002 18.7202 30.1402 18.4702 30.0202C18.2202 29.9102 17.9602 29.8502 17.6902 29.8502C17.4202 29.8502 17.1602 29.9102 16.9102 30.0202C16.6702 30.1302 16.4702 30.3002 16.3202 30.5202C16.1702 30.7502 16.1002 31.0002 16.1002 31.3002C16.1002 31.6002 16.1802 31.8602 16.3302 32.0702C16.4802 32.2902 16.6802 32.4502 16.9302 32.5702C17.1802 32.6802 17.4402 32.7402 17.7102 32.7402C17.9802 32.7302 18.2402 32.6802 18.4802 32.5602Z" fill="white"/>
<path d="M26.9501 30.6601C27.3701 30.7901 27.6801 30.9801 27.8601 31.2301C28.0401 31.4801 28.1401 31.8001 28.1401 32.1801V32.2001C28.1401 32.7201 27.9301 33.1401 27.5101 33.4601C27.0901 33.7801 26.4101 33.9401 25.4801 33.9501H21.6201V28.6201H27.7401V29.7901H23.2901V30.4701H25.2601C25.9601 30.4701 26.5301 30.5301 26.9501 30.6601ZM26.0701 32.5701C26.2501 32.4901 26.3401 32.3301 26.3401 32.0901C26.3401 31.9301 26.3001 31.8101 26.2101 31.7301C26.1301 31.6501 26.0101 31.6001 25.8501 31.5801C25.6901 31.5601 25.4701 31.5501 25.1901 31.5501H25.1801H23.2801V32.6701C24.1801 32.6701 24.7601 32.6801 25.0101 32.6801H25.1901C25.6001 32.6901 25.9001 32.6501 26.0701 32.5701Z" fill="white"/>
<path d="M33.7295 28.8301C34.0695 28.9801 34.3395 29.1901 34.5295 29.4501C34.7195 29.7201 34.8095 30.0201 34.8095 30.3701V30.4001C34.8095 30.9701 34.6095 31.4201 34.2195 31.7301C33.8295 32.0401 33.2895 32.2001 32.6095 32.2001H30.2995V33.9201H28.5195V28.6001H32.5395C32.9895 28.6101 33.3795 28.6901 33.7295 28.8301ZM32.7795 30.9401C32.8995 30.9301 32.9995 30.8801 33.0895 30.8001C33.1695 30.7201 33.2095 30.6001 33.2095 30.4201C33.2095 30.2401 33.1695 30.1001 33.0895 30.0201C33.0095 29.9401 32.8995 29.8901 32.7695 29.8701C32.6395 29.8501 32.4595 29.8401 32.2195 29.8401H31.9795C31.8795 29.8401 31.7195 29.8401 31.4795 29.8401C31.2395 29.8401 30.8395 29.8401 30.2895 29.8401V30.9501H32.2095H32.2195C32.4795 30.9601 32.6595 30.9501 32.7795 30.9401Z" fill="white"/>
<path d="M40.3598 31.8601H37.0398V32.6701L40.9698 32.6401V33.9301H35.2598V28.6101H40.9698L40.9798 29.9001H37.0398V30.6101H40.3598V31.8601Z" fill="white"/>
<path d="M43.2302 30.5001H46.0702V28.6101H47.8402V33.9301H46.0702V31.9001H43.2302V33.9401H41.4502V28.6201H43.2302V30.5001Z" fill="white"/>
<path d="M53.5603 28.8602C54.0903 29.1002 54.5103 29.4402 54.8103 29.8602C55.1103 30.2802 55.2603 30.7602 55.2603 31.3002C55.2603 31.8302 55.1103 32.3002 54.8103 32.7302C54.5103 33.1502 54.1003 33.4802 53.5703 33.7302C53.0403 33.9702 52.4503 34.0902 51.7903 34.0902C51.1603 34.0902 50.5703 33.9702 50.0303 33.7302C49.4903 33.4902 49.0703 33.1502 48.7503 32.7302C48.4303 32.3102 48.2803 31.8302 48.2803 31.3102C48.2803 30.7802 48.4403 30.3102 48.7503 29.8802C49.0603 29.4502 49.4903 29.1202 50.0203 28.8802C50.5503 28.6402 51.1403 28.5202 51.7703 28.5202C52.4403 28.5002 53.0303 28.6202 53.5603 28.8602ZM52.5603 32.5602C52.8103 32.4502 53.0103 32.2802 53.1603 32.0602C53.3103 31.8402 53.3903 31.5902 53.3903 31.2902C53.3903 30.9902 53.3103 30.7402 53.1603 30.5202C53.0003 30.3002 52.8003 30.1402 52.5503 30.0202C52.3003 29.9102 52.0403 29.8502 51.7703 29.8502C51.5003 29.8502 51.2403 29.9102 50.9903 30.0202C50.7503 30.1302 50.5503 30.3002 50.4003 30.5202C50.2503 30.7402 50.1703 30.9902 50.1703 31.2902C50.1703 31.5902 50.2503 31.8502 50.4003 32.0602C50.5503 32.2802 50.7503 32.4402 51.0003 32.5602C51.2503 32.6702 51.5103 32.7302 51.7803 32.7302C52.0503 32.7302 52.3103 32.6802 52.5603 32.5602Z" fill="white"/>
<path d="M34.25 57.82C35.09 57.25 35.84 56.55 36.47 55.76C36.24 56.38 36.19 57.07 36.32 57.72C36.34 57.81 36.36 57.9 36.43 57.95C36.51 58 36.61 58 36.7 57.98C37.19 57.89 37.64 57.61 37.93 57.22C38.22 57.43 38.21 57.87 38.42 58.17C38.66 58.51 39.15 58.58 39.54 58.44C39.93 58.3 40.24 58 40.54 57.71C41.47 56.8 42.4 55.89 43.33 54.98" stroke="white" stroke-miterlimit="10" stroke-linecap="round" stroke-linejoin="round"/>
</g>
<defs>
<clipPath id="clip0_4255_13494">
<rect width="55.25" height="65.19" fill="white"/>
</clipPath>
</defs>
</svg>
