<svg width="67" height="68" viewBox="0 0 67 68" fill="none" xmlns="http://www.w3.org/2000/svg">
<g clip-path="url(#clip0_2396_74494)">
<path d="M9.80043 51.6079H22.8767C27.3696 51.6079 31.0153 55.2536 31.0153 59.7465V64.7239C31.0153 65.6452 30.266 66.3945 29.3446 66.3945H3.33247C2.41112 66.3945 1.66187 65.6452 1.66187 64.7239V59.7465C1.66187 55.2536 5.30754 51.6079 9.80043 51.6079Z" stroke="white" stroke-width="2" stroke-linecap="round" stroke-linejoin="round"/>
<path d="M6.60742 53.1276L9.64151 56.1035C10.1101 56.5641 10.8594 56.5774 11.3465 56.1379L15.4794 52.389C15.9639 51.9495 16.7052 51.9601 17.1738 52.4128L20.9863 56.0796C21.4734 56.5483 22.2491 56.5403 22.7257 56.0611L26.3793 52.4022" stroke="white" stroke-width="2" stroke-linecap="round" stroke-linejoin="round"/>
<path d="M12.771 56.0215L13.973 57.9012H18.4844L20.0253 55.6455" stroke="white" stroke-width="2" stroke-linecap="round" stroke-linejoin="round"/>
<path d="M13.0356 65.8305L14.0867 58.2373" stroke="white" stroke-width="2" stroke-linecap="round" stroke-linejoin="round"/>
<path d="M19.4959 65.8305L18.4448 58.2373" stroke="white" stroke-width="2" stroke-linecap="round" stroke-linejoin="round"/>
<path d="M16.3399 51.3961C21.9006 51.3961 26.4085 46.8882 26.4085 41.3274C26.4085 35.7667 21.9006 31.2588 16.3399 31.2588C10.7791 31.2588 6.27124 35.7667 6.27124 41.3274C6.27124 46.8882 10.7791 51.3961 16.3399 51.3961Z" stroke="white" stroke-width="2" stroke-linecap="round" stroke-linejoin="round"/>
<path d="M12.8159 43.2865L14.5183 44.9201L20.1735 37.7346" stroke="white" stroke-width="2" stroke-linecap="round" stroke-linejoin="round"/>
<path d="M44.1232 51.6079H57.1994C61.6923 51.6079 65.338 55.2536 65.338 59.7465V64.7239C65.338 65.6452 64.5887 66.3945 63.6674 66.3945H37.6525C36.7312 66.3945 35.9819 65.6452 35.9819 64.7239V59.7465C35.9819 55.2536 39.6276 51.6079 44.1205 51.6079H44.1232Z" stroke="white" stroke-width="2" stroke-linecap="round" stroke-linejoin="round"/>
<path d="M40.9275 53.1276L43.9616 56.1035C44.4302 56.5641 45.1795 56.5774 45.6666 56.1379L49.7994 52.389C50.2839 51.9495 51.0252 51.9601 51.4939 52.4128L55.3063 56.0796C55.7935 56.5483 56.5692 56.5403 57.0458 56.0611L60.6994 52.4022" stroke="white" stroke-width="2" stroke-linecap="round" stroke-linejoin="round"/>
<path d="M47.0938 56.0215L48.2957 57.9012H52.8072L54.348 55.6455" stroke="white" stroke-width="2" stroke-linecap="round" stroke-linejoin="round"/>
<path d="M47.3584 65.8305L48.4095 58.2373" stroke="white" stroke-width="2" stroke-linecap="round" stroke-linejoin="round"/>
<path d="M53.8187 65.8305L52.7676 58.2373" stroke="white" stroke-width="2" stroke-linecap="round" stroke-linejoin="round"/>
<path d="M50.6599 51.3961C56.2207 51.3961 60.7286 46.8882 60.7286 41.3274C60.7286 35.7667 56.2207 31.2588 50.6599 31.2588C45.0992 31.2588 40.5913 35.7667 40.5913 41.3274C40.5913 46.8882 45.0992 51.3961 50.6599 51.3961Z" stroke="white" stroke-width="2" stroke-linecap="round" stroke-linejoin="round"/>
<path d="M46.9878 37.6128L54.3347 45.0418" stroke="white" stroke-width="2" stroke-linecap="round" stroke-linejoin="round"/>
<path d="M54.3743 37.6553L46.9453 44.9996" stroke="white" stroke-width="2" stroke-linecap="round" stroke-linejoin="round"/>
<path d="M25.3335 36.7976H41.4703" stroke="white" stroke-width="2" stroke-linecap="round" stroke-linejoin="round"/>
<path d="M48.1395 31.1556V30.1496C48.1395 25.654 44.4965 22.011 40.001 22.011H26.9247C22.4292 22.011 18.7861 25.654 18.7861 30.1496V31.1556" stroke="white" stroke-width="2" stroke-linecap="round" stroke-linejoin="round"/>
<path d="M23.7317 23.5307L26.7658 26.5065C27.2344 26.9672 27.9837 26.9805 28.4708 26.541L32.6036 22.792C33.0881 22.3525 33.8294 22.3631 34.2981 22.8159L38.1105 26.4827C38.5977 26.9513 39.3734 26.9434 39.85 26.4642L43.5036 22.8053" stroke="white" stroke-width="2" stroke-linecap="round" stroke-linejoin="round"/>
<path d="M29.8953 26.4243L31.0973 28.3041H35.6087L37.1495 26.0483" stroke="white" stroke-width="2" stroke-linecap="round" stroke-linejoin="round"/>
<path d="M30.1599 36.2336L31.211 28.6404" stroke="white" stroke-width="2" stroke-linecap="round" stroke-linejoin="round"/>
<path d="M36.6199 36.2336L35.5688 28.6404" stroke="white" stroke-width="2" stroke-linecap="round" stroke-linejoin="round"/>
<path d="M33.4641 21.7991C39.0249 21.7991 43.5328 17.2912 43.5328 11.7305C43.5328 6.16974 39.0249 1.66187 33.4641 1.66187C27.9034 1.66187 23.3955 6.16974 23.3955 11.7305C23.3955 17.2912 27.9034 21.7991 33.4641 21.7991Z" stroke="white" stroke-width="2" stroke-linecap="round" stroke-linejoin="round"/>
<path d="M29.9402 13.6896L31.6426 15.3231L37.2977 8.1377" stroke="white" stroke-width="2" stroke-linecap="round" stroke-linejoin="round"/>
</g>
<defs>
<clipPath id="clip0_2396_74494">
<rect width="67" height="68" fill="white"/>
</clipPath>
</defs>
</svg>
