<svg width="56" height="52" viewBox="0 0 56 52" fill="none" xmlns="http://www.w3.org/2000/svg">
<g clip-path="url(#clip0_4480_13540)">
<path d="M54.0473 28.2718L53.8831 27.9965L54.0838 27.7486C56.064 25.3712 56.4563 23.5537 55.4617 21.4609C54.458 19.3589 52.7151 18.4501 49.8134 18.5144C46.8112 18.5878 43.7544 18.5878 40.7979 18.5878H37.8414C37.449 18.5786 37.0475 18.5603 36.6004 18.5327L35.3411 18.4501L35.697 17.2201C35.8248 16.7887 35.9343 16.4123 36.0438 16.036C36.3358 15.0814 36.6369 14.1267 36.938 13.1721C37.5859 11.116 38.2611 8.97721 38.8178 6.866C39.3105 4.98427 39.0003 3.22187 37.9418 1.91843C36.8833 0.605808 35.1404 -0.0918086 33.1876 -1.69408e-05C31.0159 0.110133 29.5103 1.14738 28.5887 3.18516C26.1523 8.58251 22.9038 14.7417 17.3467 19.5149C16.4889 20.2492 15.3118 21.2589 13.6876 20.0748C13.3956 19.8637 12.7842 19.8545 12.2914 19.8454C9.67257 19.8178 7.00808 19.8086 4.29796 19.8362C1.60609 19.8637 9.17763e-05 21.4976 -0.0090332 24.2055C9.17763e-05 31.3927 -0.0090332 38.5617 0.0183417 45.7306C0.0274667 48.3742 1.59696 49.9806 4.22496 50.0356C5.31083 50.0632 6.3967 50.054 7.48258 50.0448C8.6962 50.0356 9.90069 50.0265 11.1052 50.0632C12.6838 50.1091 14.3172 49.9622 15.5126 48.6312L15.7681 48.3467L16.0874 48.5578C19.3268 50.6782 22.3928 51.743 25.4588 51.8164C33.7078 52.0092 41.2267 52.0551 48.4537 51.9449C49.786 51.9265 50.9905 51.3666 51.8391 50.3844C52.779 49.2921 53.2078 47.7776 53.0071 46.2263C52.9341 45.6572 52.7242 45.0789 52.5052 44.4731C52.3957 44.1702 52.2862 43.8672 52.1858 43.5551L52.1037 43.2889L52.2954 43.0962C54.3485 41.0768 54.6131 38.6718 53.0892 35.964L52.925 35.6794L53.1531 35.4408C55.2883 33.2194 55.5895 30.8695 54.0473 28.2718ZM13.5233 47.1993C13.1401 47.5848 12.5834 47.7592 11.7531 47.75C9.40795 47.7133 7.0537 47.7133 4.74508 47.75C4.71771 47.75 4.69033 47.75 4.66296 47.75C3.86908 47.75 3.33071 47.5756 2.94746 47.1901C2.56421 46.8138 2.38171 46.2446 2.39084 45.4552C2.42734 38.8095 2.42734 31.7783 2.39084 24.5726C2.39084 23.7281 2.56421 23.159 2.95659 22.7735C3.33983 22.3972 3.90558 22.2319 4.69033 22.2411C7.2362 22.3054 9.52657 22.3054 11.6892 22.2411C12.4831 22.2228 13.0762 22.3972 13.4594 22.7827C13.8701 23.1866 14.0526 23.7924 14.0434 24.7011C14.0161 27.1979 14.0161 29.7038 14.0252 32.2097L14.0343 35.2205C14.0343 36.221 14.0343 37.2215 14.0252 38.2129C14.0161 40.5811 14.0069 43.0228 14.0617 45.4277C14.0708 46.2263 13.8974 46.8137 13.5233 47.1993ZM51.2733 26.2065C50.224 26.3809 49.7951 26.5278 49.6947 27.2897C49.5944 28.0607 49.9137 28.4921 50.9357 28.9144C52.1402 29.4192 52.706 30.4289 52.5052 31.6865C52.2862 33.0266 51.4102 33.8528 50.0962 33.9629C49.1199 34.0455 48.7822 34.2934 48.7092 34.9726C48.618 35.7712 48.9191 36.2302 49.7586 36.5423C51.0452 37.0288 51.6749 38.0568 51.4832 39.3786C51.2916 40.7004 50.443 41.5174 49.0925 41.6642C48.107 41.7744 47.742 42.0314 47.6507 42.6831C47.5504 43.445 47.8697 43.9131 48.7366 44.2528C50.1327 44.8127 50.7624 45.8958 50.4521 47.2452C50.1327 48.6404 49.0834 49.3839 47.6051 49.3839C44.9862 49.3747 42.3674 49.3747 39.7485 49.3747L37.1205 49.3931L36.6643 49.5308C35.4324 49.4849 34.2005 49.4574 32.9595 49.4298C30.003 49.3656 26.9462 49.3013 23.9532 48.9617C22.3563 48.7781 20.8233 48.0713 19.3542 47.3829C18.8158 47.135 18.2774 46.878 17.7391 46.6577C16.7262 46.2355 16.2334 45.3818 16.2517 44.06C16.2882 40.9483 16.3064 37.8457 16.3247 34.734C16.3429 31.3193 16.3612 27.9138 16.4068 24.4992C16.4159 23.8475 16.6806 22.7092 17.3649 22.2228C20.6317 19.928 23.4878 16.7428 26.0884 12.4745C27.4389 10.2623 28.6434 7.89407 29.8114 5.60846L30.6053 4.05718C31.4448 2.42328 32.8318 1.87253 34.602 2.46918C36.2354 3.01993 36.8833 4.29583 36.3996 5.9848C35.5328 8.99557 34.5564 12.1899 33.3245 16.0452C32.8044 17.6607 32.8409 18.8815 33.4158 19.6801C33.9815 20.4604 35.0765 20.8459 36.6734 20.8459H36.6825C41.172 20.8459 45.6524 20.8183 50.1419 20.7816C51.1821 20.8 52.6786 20.9652 53.2991 22.7092C53.5911 23.5446 53.5455 24.3615 53.1713 25.0132C52.779 25.6466 52.1129 26.0688 51.2733 26.2065Z" fill="white"/>
<path d="M8.17594 39.6908C7.10832 39.7183 6.27794 40.5812 6.29619 41.6459C6.31444 42.674 7.21782 43.5828 8.23069 43.5828C8.73256 43.5828 9.23444 43.3533 9.60856 42.9586C9.99181 42.5639 10.1926 42.0407 10.1652 41.5266C10.1287 40.471 9.24356 39.6449 8.17594 39.6908Z" fill="#F7941D"/>
</g>
<defs>
<clipPath id="clip0_4480_13540">
<rect width="56" height="52" fill="white"/>
</clipPath>
</defs>
</svg>
