<svg width="62" height="66" viewBox="0 0 62 66" fill="none" xmlns="http://www.w3.org/2000/svg">
<g clip-path="url(#clip0_4204_13717)">
<path d="M28.7799 22.77C28.2799 22.77 27.8499 23.03 27.5999 23.42C27.5299 23.53 27.4799 23.65 27.4399 23.78C27.3999 23.9 27.3799 24.03 27.3799 24.16V36.71C27.3799 37.07 27.5199 37.42 27.7699 37.68L37.4499 47.73C37.9799 48.29 38.8699 48.3 39.4199 47.77C39.9699 47.24 39.9899 46.35 39.4599 45.8L30.1699 36.15V24.16C30.1699 23.39 29.5499 22.77 28.7799 22.77Z" fill="#F7941D"/>
<path d="M1.75 41.6599C1.26 39.5199 1 37.2899 1 34.9899C1 25.8299 5.13 17.6299 11.63 12.1499" stroke="#F7941D" stroke-width="2" stroke-miterlimit="10" stroke-linecap="round" stroke-linejoin="round"/>
<path d="M20.1898 7.08988C23.5098 5.81988 27.0998 5.12988 30.8698 5.12988C47.3598 5.12988 60.7298 18.4999 60.7298 34.9899C60.7298 51.4799 47.3598 64.8599 30.8598 64.8599C20.8098 64.8599 11.9198 59.8999 6.50977 52.2899" stroke="white" stroke-width="2" stroke-miterlimit="10" stroke-linecap="round" stroke-linejoin="round"/>
<path d="M23.5799 1L16.8799 8.27L26.7099 10.05L23.5799 1Z" fill="white" stroke="white" stroke-width="2" stroke-miterlimit="10" stroke-linecap="round" stroke-linejoin="round"/>
</g>
<defs>
<clipPath id="clip0_4204_13717">
<rect width="61.73" height="65.86" fill="white"/>
</clipPath>
</defs>
</svg>
