<svg width="65" height="50" viewBox="0 0 65 50" fill="none" xmlns="http://www.w3.org/2000/svg">
<g clip-path="url(#clip0_4480_13315)">
<path d="M35.85 41.0901H28.96V48.8901H35.85V41.0901Z" stroke="white" stroke-width="1.2" stroke-miterlimit="10" stroke-linejoin="round"/>
<path d="M38.2462 48.8958H42.0962V41.0958H38.2462V48.8958Z" stroke="white" stroke-width="1.2" stroke-miterlimit="10" stroke-linejoin="round"/>
<path d="M22.4386 48.8958H26.2886V41.0958H22.4386V48.8958Z" stroke="white" stroke-width="1.2" stroke-miterlimit="10" stroke-linejoin="round"/>
<path d="M42.4801 32.1702H22.3301" stroke="white" stroke-width="1.2" stroke-miterlimit="10" stroke-linecap="round" stroke-linejoin="round"/>
<path d="M42.1302 0.600098H22.6802V29.5101H42.1302V0.600098Z" stroke="white" stroke-width="1.2" stroke-miterlimit="10" stroke-linejoin="round"/>
<path d="M32.4102 8.86004C33.6032 8.86004 34.5702 7.89297 34.5702 6.70004C34.5702 5.5071 33.6032 4.54004 32.4102 4.54004C31.2173 4.54004 30.2502 5.5071 30.2502 6.70004C30.2502 7.89297 31.2173 8.86004 32.4102 8.86004Z" stroke="white" stroke-width="1.2" stroke-miterlimit="10" stroke-linejoin="round"/>
<path d="M26.5103 11.77H38.3003" stroke="white" stroke-width="1.2" stroke-miterlimit="10" stroke-linecap="round" stroke-linejoin="round"/>
<path d="M26.5103 16.3201H38.3003" stroke="white" stroke-width="1.2" stroke-miterlimit="10" stroke-linecap="round" stroke-linejoin="round"/>
<path d="M26.5103 20.8701H38.3003" stroke="white" stroke-width="1.2" stroke-miterlimit="10" stroke-linecap="round" stroke-linejoin="round"/>
<path d="M26.5103 25.4199H38.3003" stroke="white" stroke-width="1.2" stroke-miterlimit="10" stroke-linecap="round" stroke-linejoin="round"/>
<path d="M42.7501 34.53H22.0601V38.76H42.7501V34.53Z" stroke="white" stroke-width="1.2" stroke-miterlimit="10" stroke-linejoin="round"/>
<path d="M20.12 48.8901H15.05V4.75008C15.05 3.83008 15.8 3.08008 16.72 3.08008H18.45C19.37 3.08008 20.12 3.83008 20.12 4.75008V48.8901Z" stroke="#F7941D" stroke-width="1.2" stroke-miterlimit="10" stroke-linecap="round" stroke-linejoin="round"/>
<path d="M49.56 48.8901H44.5V4.75008C44.5 3.83008 45.25 3.08008 46.17 3.08008H47.9C48.82 3.08008 49.57 3.83008 49.57 4.75008V48.8901H49.56Z" stroke="#F7941D" stroke-width="1.2" stroke-miterlimit="10" stroke-linecap="round" stroke-linejoin="round"/>
<path d="M64.2201 19.26H49.8401V13.05H64.2201" stroke="#F7941D" stroke-width="1.2" stroke-miterlimit="10" stroke-linecap="round" stroke-linejoin="round"/>
<path d="M49.9102 41.4001H63.8002" stroke="#F7941D" stroke-width="1.2" stroke-miterlimit="10" stroke-linecap="round" stroke-linejoin="round"/>
<path d="M0.600098 13.05H14.9801V19.26H0.600098" stroke="#F7941D" stroke-width="1.2" stroke-miterlimit="10" stroke-linecap="round" stroke-linejoin="round"/>
<path d="M1 41.4001H14.98" stroke="#F7941D" stroke-width="1.2" stroke-miterlimit="10" stroke-linecap="round" stroke-linejoin="round"/>
</g>
<defs>
<clipPath id="clip0_4480_13315">
<rect width="64.82" height="49.49" fill="white"/>
</clipPath>
</defs>
</svg>
