<svg width="59" height="64" viewBox="0 0 59 64" fill="none" xmlns="http://www.w3.org/2000/svg">
<g clip-path="url(#clip0_4541_13374)">
<path d="M47.81 28.4199L44.04 32.3799L46.91 37.1599" stroke="#F7941D" stroke-width="2" stroke-miterlimit="10" stroke-linecap="round" stroke-linejoin="round"/>
<path d="M52.46 28.8101L55.85 32.3801L52.98 37.1601" stroke="#F7941D" stroke-width="2" stroke-miterlimit="10" stroke-linecap="round" stroke-linejoin="round"/>
<path d="M13.7504 52.3903C13.6804 52.0203 13.6504 51.6403 13.6504 51.2503C13.6504 47.6903 16.5404 44.8003 20.1004 44.8003C23.6604 44.8003 26.5504 47.6903 26.5504 51.2503C26.5504 51.6303 26.5204 52.0003 26.4604 52.3603" stroke="#F7941D" stroke-width="2" stroke-miterlimit="10" stroke-linecap="round" stroke-linejoin="round"/>
<path d="M53.8105 21.7202V26.0902C53.8105 27.9102 52.3405 29.3802 50.5205 29.3802C48.7005 29.3802 47.2305 27.9102 47.2305 26.0902V23.1902" stroke="white" stroke-width="2" stroke-miterlimit="10" stroke-linecap="round" stroke-linejoin="round"/>
<path d="M9.57 45.7803L3.31001 25.7103C2.48001 23.0403 4.02 20.2003 6.71001 19.4403C8.79 18.8603 11.02 19.6903 12.2 21.4903L24.05 39.5203" stroke="#F7941D" stroke-width="2" stroke-miterlimit="10" stroke-linecap="round" stroke-linejoin="round"/>
<path d="M9.12988 19.1601L30.7599 2.11013C32.6799 0.62013 35.3599 0.62013 37.2699 2.13013C39.8599 4.18013 39.9499 8.08013 37.4599 10.2401L16.6799 28.3001" stroke="#F7941D" stroke-width="2" stroke-miterlimit="10" stroke-linecap="round" stroke-linejoin="round"/>
<path d="M39.9602 6.05029L52.5302 14.9903C54.4902 16.3803 55.0802 19.0303 53.8902 21.1203C52.5402 23.5003 49.4402 24.2203 47.1702 22.6803L34.2002 13.8203" stroke="#F7941D" stroke-width="2" stroke-miterlimit="10" stroke-linecap="round" stroke-linejoin="round"/>
<path d="M33.18 53.27H6.01C3.24 53.27 1 55.51 1 58.28V61.31C1 62.04 1.59 62.63 2.32 62.63H36.87C37.6 62.63 38.19 62.04 38.19 61.31V58.28C38.19 55.51 35.95 53.27 33.18 53.27Z" stroke="white" stroke-width="2" stroke-miterlimit="10" stroke-linecap="round" stroke-linejoin="round"/>
<path d="M8.60969 52.9302C8.48969 52.2602 8.42969 51.5702 8.42969 50.8602C8.42969 44.4102 13.6597 39.1802 20.1097 39.1802C26.5597 39.1802 31.7897 44.4102 31.7897 50.8602C31.7897 51.5402 31.7297 52.2102 31.6197 52.8602" stroke="white" stroke-width="2" stroke-miterlimit="10" stroke-linecap="round" stroke-linejoin="round"/>
<path d="M53.3005 49.6104V55.2904H47.2305V49.6104" stroke="white" stroke-width="2" stroke-miterlimit="10" stroke-linecap="round" stroke-linejoin="round"/>
<path d="M56.71 62.57H43.76C43.18 62.57 42.71 62.1 42.71 61.52V50.09C42.71 49.51 43.18 49.04 43.76 49.04H56.72C57.3 49.04 57.77 49.51 57.77 50.09V61.52C57.77 62.1 57.29 62.57 56.71 62.57Z" stroke="#F7941D" stroke-width="2" stroke-miterlimit="10" stroke-linecap="round" stroke-linejoin="round"/>
<path d="M7.91023 26.7004C9.10869 26.7004 10.0802 25.7288 10.0802 24.5304C10.0802 23.3319 9.10869 22.3604 7.91023 22.3604C6.71178 22.3604 5.74023 23.3319 5.74023 24.5304C5.74023 25.7288 6.71178 26.7004 7.91023 26.7004Z" stroke="white" stroke-width="2" stroke-miterlimit="10" stroke-linecap="round" stroke-linejoin="round"/>
<path d="M34.21 8.75992C35.4085 8.75992 36.38 7.78838 36.38 6.58992C36.38 5.39146 35.4085 4.41992 34.21 4.41992C33.0116 4.41992 32.04 5.39146 32.04 6.58992C32.04 7.78838 33.0116 8.75992 34.21 8.75992Z" stroke="white" stroke-width="2" stroke-miterlimit="10" stroke-linecap="round" stroke-linejoin="round"/>
</g>
<defs>
<clipPath id="clip0_4541_13374">
<rect width="58.77" height="63.63" fill="white"/>
</clipPath>
</defs>
</svg>
