<svg width="69" height="69" viewBox="0 0 69 69" fill="none" xmlns="http://www.w3.org/2000/svg">
<g clip-path="url(#clip0_4271_13285)">
<path d="M43.6699 54.75L50.2599 61.3C51.0499 62.08 51.0499 63.36 50.2699 64.14C49.4899 64.93 48.2099 64.93 47.4299 64.15C47.3299 64.05 47.2399 63.94 47.1699 63.83L42.0499 56.08C41.7299 55.59 41.8599 54.94 42.3499 54.62C42.7699 54.34 43.3199 54.4 43.6699 54.75Z" fill="#F7941D"/>
<path d="M34.5605 47.91L35.8505 49.2L36.7705 48.28L35.4505 46.96C35.1405 47.26 34.8505 47.58 34.5605 47.91Z" fill="#F7941D" stroke="#F7941D" stroke-width="2" stroke-miterlimit="10"/>
<path d="M48.5811 41.5V43.45H49.8811V41.54C49.4911 41.52 49.1111 41.5 48.7111 41.5C48.6711 41.5 48.6311 41.5 48.5811 41.5Z" fill="#F7941D" stroke="#F7941D" stroke-width="2" stroke-miterlimit="10"/>
<path d="M31.8208 57.6999V56.3999H30.2808C30.1908 56.8299 30.1108 57.2599 30.0508 57.6999H31.8208Z" fill="#F7941D" stroke="#F7941D" stroke-width="2" stroke-miterlimit="10"/>
<path d="M61.8809 46.8601L60.4609 48.2801L61.3809 49.2001L62.7809 47.8001C62.4909 47.4801 62.1909 47.1601 61.8809 46.8601Z" fill="#F7941D" stroke="#F7941D" stroke-width="2" stroke-miterlimit="10"/>
<path d="M65.4111 56.3999V57.6999H67.3811C67.3211 57.2599 67.2411 56.8299 67.1511 56.3999H65.4111Z" fill="#F7941D" stroke="#F7941D" stroke-width="2" stroke-miterlimit="10"/>
<path d="M31.3404 67.69C30.3904 65.43 29.8604 62.95 29.8604 60.35C29.8604 49.94 38.3004 41.5 48.7104 41.5C59.1203 41.5 67.5603 49.94 67.5603 60.35C67.5603 62.53 67.1904 64.63 66.5104 66.58" stroke="white" stroke-width="2" stroke-miterlimit="10" stroke-linecap="round" stroke-linejoin="round"/>
<path d="M47.89 16.3901H1" stroke="white" stroke-width="2" stroke-miterlimit="10" stroke-linecap="round" stroke-linejoin="round"/>
<path d="M9.20996 11.77C10.4526 11.77 11.46 10.7627 11.46 9.52002C11.46 8.27738 10.4526 7.27002 9.20996 7.27002C7.96732 7.27002 6.95996 8.27738 6.95996 9.52002C6.95996 10.7627 7.96732 11.77 9.20996 11.77Z" fill="white"/>
<path d="M16.9297 11.77C18.1723 11.77 19.1797 10.7627 19.1797 9.52002C19.1797 8.27738 18.1723 7.27002 16.9297 7.27002C15.687 7.27002 14.6797 8.27738 14.6797 9.52002C14.6797 10.7627 15.687 11.77 16.9297 11.77Z" fill="white"/>
<path d="M24.6504 11.77C25.893 11.77 26.9004 10.7627 26.9004 9.52002C26.9004 8.27738 25.893 7.27002 24.6504 7.27002C23.4077 7.27002 22.4004 8.27738 22.4004 9.52002C22.4004 10.7627 23.4077 11.77 24.6504 11.77Z" fill="white"/>
<path d="M12.93 33.2H11.2L9.75 29.48H11.33L12.17 31.93L12.91 29.48H14.51L15.26 31.89L16.08 29.48H17.53L16.1 33.2H14.46L13.69 30.85L12.93 33.2Z" fill="#F7941D"/>
<path d="M20.6497 33.2H18.9197L17.4697 29.48H19.0497L19.8897 31.93L20.6297 29.48H22.2297L22.9997 31.89L23.8197 29.48H25.2697L23.8197 33.2H22.1797L21.4097 30.85L20.6497 33.2Z" fill="#F7941D"/>
<path d="M28.3802 33.2H26.6502L25.2002 29.48H26.7802L27.6202 31.93L28.3602 29.48H29.9602L30.7102 31.89L31.5302 29.48H33.0002L31.5502 33.2H29.9002L29.1302 30.85L28.3802 33.2Z" fill="#F7941D"/>
<path d="M36.2104 32.1501V33.2001H34.6904V32.1501H36.2104Z" fill="white"/>
<path d="M40.0107 33.2701H39.8007C39.3307 33.2701 38.9207 33.2201 38.5707 33.1301C38.2207 33.0401 37.9407 32.9201 37.7407 32.7801C37.5407 32.6401 37.3807 32.4801 37.2607 32.2901C37.1407 32.1001 37.0607 31.9201 37.0207 31.7601C36.9807 31.6001 36.9707 31.4301 36.9707 31.2501V31.0901C36.9707 30.9101 36.9907 30.7401 37.0207 30.5801C37.0507 30.4201 37.1307 30.2501 37.2507 30.0601C37.3707 29.8701 37.5307 29.7101 37.7207 29.5801C37.9207 29.4501 38.1907 29.3301 38.5507 29.2401C38.9107 29.1501 39.3207 29.1001 39.8007 29.1001H40.0107C40.3407 29.1001 40.6507 29.1201 40.9307 29.1601C41.2107 29.2001 41.4407 29.2601 41.6307 29.3301C41.8207 29.4001 41.9907 29.4801 42.1307 29.5701C42.2807 29.6701 42.3907 29.7601 42.4707 29.8601C42.5507 29.9601 42.6207 30.0601 42.6707 30.1701C42.7207 30.2801 42.7607 30.3801 42.7707 30.4601C42.7907 30.5501 42.7907 30.6301 42.7907 30.7101V30.7801H41.2007C41.0807 30.3701 40.6407 30.1701 39.8807 30.1701C38.9907 30.1701 38.5407 30.4801 38.5407 31.1101V31.1701C38.5407 31.2901 38.5607 31.4001 38.6007 31.5101C38.6407 31.6201 38.7107 31.7201 38.8007 31.8301C38.8907 31.9301 39.0307 32.0201 39.2207 32.0801C39.4007 32.1401 39.6207 32.1701 39.8807 32.1701C40.1007 32.1701 40.3007 32.1501 40.4707 32.1101C40.6407 32.0701 40.7707 32.0201 40.8507 31.9701C40.9407 31.9201 41.0107 31.8601 41.0707 31.7801C41.1307 31.7001 41.1607 31.6501 41.1707 31.6201C41.1807 31.5901 41.1907 31.5501 41.2007 31.5101H42.7807V31.6001C42.7807 31.7201 42.7607 31.8501 42.7307 31.9701C42.6907 32.1001 42.6207 32.2401 42.4907 32.4001C42.3707 32.5601 42.2107 32.7001 42.0207 32.8201C41.8307 32.9401 41.5607 33.0401 41.2107 33.1201C40.8707 33.2301 40.4707 33.2701 40.0107 33.2701Z" fill="white"/>
<path d="M43.1604 29.1902H44.8704L47.1904 31.4702V29.1902H48.7104V33.1902H47.1804L44.6704 30.7602V33.1902H43.1504V29.1902H43.1604Z" fill="white"/>
<path d="M25.2 49.8H9.52C4.82 49.8 1 45.98 1 41.28V9.52C1 4.82 4.82 1 9.52 1H52.5C57.21 1 61.02 4.82 61.02 9.52V35.01" stroke="white" stroke-width="2" stroke-miterlimit="10" stroke-linecap="round"/>
</g>
<defs>
<clipPath id="clip0_4271_13285">
<rect width="68.57" height="68.69" fill="white"/>
</clipPath>
</defs>
</svg>
