<svg width="64" height="64" viewBox="0 0 64 64" fill="none" xmlns="http://www.w3.org/2000/svg">
<g clip-path="url(#clip0_4204_13646)">
<path d="M40.4901 62.09H22.8101C18.9601 62.09 15.8301 58.97 15.8301 55.11V7.98C15.8301 4.13 18.9501 1 22.8101 1H40.4901C44.3401 1 47.4701 4.12 47.4701 7.98V55.11C47.4701 58.96 44.3501 62.09 40.4901 62.09Z" stroke="white" stroke-width="2" stroke-miterlimit="10" stroke-linecap="round" stroke-linejoin="round"/>
<path d="M29.2002 4.6001H34.1102" stroke="white" stroke-width="2" stroke-miterlimit="10" stroke-linecap="round" stroke-linejoin="round"/>
<path d="M29.2002 58.8201H34.1102" stroke="white" stroke-width="2" stroke-miterlimit="10" stroke-linecap="round" stroke-linejoin="round"/>
<path d="M31.67 35.8898C33.973 35.8898 35.84 34.0228 35.84 31.7198C35.84 29.4168 33.973 27.5498 31.67 27.5498C29.367 27.5498 27.5 29.4168 27.5 31.7198C27.5 34.0228 29.367 35.8898 31.67 35.8898Z" stroke="#F7941D" stroke-miterlimit="10"/>
<path d="M39.9901 35.3399L38.2401 34.0799C38.3001 33.9199 38.3501 33.7499 38.4001 33.5799C38.5901 32.8599 38.6601 32.1399 38.6301 31.4299L40.6501 30.7199C41.0201 30.5899 41.2101 30.1899 41.0801 29.8199L40.2201 27.3899C40.0901 27.0199 39.6901 26.8299 39.3201 26.9599L37.3501 27.6599C36.6401 26.6399 35.6601 25.8099 34.4801 25.2699L34.7201 23.4099C34.7701 23.0199 34.5001 22.6699 34.1101 22.6199L31.5601 22.2899C31.1701 22.2399 30.8201 22.5099 30.7701 22.8999L30.5401 24.6799C29.3001 24.8499 28.1301 25.3499 27.1501 26.0999L25.6301 25.0099C25.3101 24.7799 24.8701 24.8499 24.6501 25.1699L23.1501 27.2599C22.9201 27.5799 22.9901 28.0199 23.3101 28.2399L24.8001 29.3099C24.7301 29.5099 24.6601 29.7099 24.6101 29.9199C24.4001 30.6999 24.3401 31.4799 24.3901 32.2499L22.6501 32.8599C22.2801 32.9899 22.0901 33.3899 22.2201 33.7599L23.0801 36.1899C23.2101 36.5599 23.6101 36.7499 23.9801 36.6199L25.7601 35.9899C26.5101 37.0099 27.5401 37.8399 28.7801 38.3399L28.5701 39.9999C28.5201 40.3899 28.7901 40.7399 29.1801 40.7899L31.7301 41.1199C32.1201 41.1699 32.4701 40.8999 32.5201 40.5099L32.7401 38.7699C33.9201 38.5599 35.0201 38.0599 35.9401 37.3299L37.6601 38.5699C37.9801 38.7999 38.4201 38.7299 38.6401 38.4099L40.1401 36.3199C40.3801 36.0099 40.3101 35.5699 39.9901 35.3399Z" stroke="white" stroke-width="2" stroke-miterlimit="10" stroke-linecap="round" stroke-linejoin="round"/>
<path d="M52.0498 56.2H55.9798" stroke="white" stroke-width="2" stroke-miterlimit="10" stroke-linecap="round" stroke-linejoin="round"/>
<path d="M56.91 52.0601H59.41C61.01 52.0601 62.3 53.3601 62.3 54.9501V57.4501C62.3 59.0501 61 60.3401 59.41 60.3401H56.91C55.31 60.3401 54.02 59.0401 54.02 57.4501V54.9501C54.02 53.3501 55.31 52.0601 56.91 52.0601Z" fill="#F7941D" stroke="white" stroke-width="2" stroke-miterlimit="10"/>
<path d="M11.2501 5.1499H7.33008" stroke="white" stroke-width="2" stroke-miterlimit="10" stroke-linecap="round" stroke-linejoin="round"/>
<path d="M6.4 9.30002H3.9C2.3 9.30002 1 8.00002 1 6.41002V3.91002C1 2.31002 2.3 1.02002 3.89 1.02002H6.39C7.99 1.02002 9.28 2.32002 9.28 3.91002V6.41002C9.29 8.00002 7.99 9.30002 6.4 9.30002Z" fill="#F7941D" stroke="white" stroke-width="2" stroke-miterlimit="10"/>
</g>
<defs>
<clipPath id="clip0_4204_13646">
<rect width="63.31" height="63.09" fill="white"/>
</clipPath>
</defs>
</svg>
