<svg width="44" height="29" viewBox="0 0 44 29" fill="none" xmlns="http://www.w3.org/2000/svg">
<g clip-path="url(#clip0_3255_12467)">
<path d="M27.85 8.41997C27.55 9.32997 27.23 10.24 26.94 11.17C25.41 16.16 23.89 21.15 22.34 26.13C22.22 26.52 21.96 26.91 21.65 27.17C21.23 27.52 20.69 27.26 20.64 26.7C20.61 26.34 20.66 25.96 20.76 25.62C22.13 21 23.48 16.37 24.92 11.77C25.9 8.64997 27.03 5.57997 28.07 2.47997C28.29 1.82997 28.71 1.43997 29.34 1.21997C30.03 0.979972 30.71 0.689972 31.4 0.439972C31.58 0.369972 31.77 0.319972 31.95 0.289972C32.54 0.199972 32.86 0.439971 32.84 1.03997C32.81 1.92997 32.77 2.82997 32.66 3.70997C32.26 6.92997 31.79 10.13 31.41 13.35C31.2 15.16 31.12 16.98 30.98 18.79C30.97 18.89 30.99 19 31.09 19.13C31.23 18.79 31.38 18.45 31.51 18.1C33.59 12.77 36 7.58997 38.5 2.44997C38.92 1.58997 39.44 0.879972 40.48 0.679972C41.15 0.549972 41.77 0.209972 42.43 0.0499715C43.15 -0.130028 43.47 0.149972 43.35 0.879972C43.16 2.03997 42.86 3.18997 42.62 4.34997C41.45 10.03 40.29 15.7 39.13 21.38C38.69 23.55 38.28 25.74 37.83 27.91C37.79 28.13 37.59 28.44 37.42 28.47C37.18 28.51 36.85 28.39 36.65 28.23C36.07 27.76 35.55 27.21 34.99 26.72C34.67 26.44 34.53 26.14 34.6 25.71C35.04 23.18 35.43 20.64 35.9 18.11C36.53 14.7 37.22 11.31 37.88 7.90997C37.91 7.73997 37.94 7.56997 37.87 7.35997C37.62 7.85997 37.36 8.35997 37.13 8.86997C34.66 14.19 32.39 19.58 30.36 25.08C30.33 25.15 30.32 25.24 30.26 25.3C30.06 25.52 29.86 25.86 29.62 25.9C29.42 25.93 29.14 25.62 28.95 25.41C28.61 25.05 28.33 24.64 27.99 24.28C27.46 23.74 27.19 23.12 27.13 22.36C26.91 19.64 27.23 16.94 27.48 14.23C27.64 12.4 27.8 10.57 27.96 8.73997C27.97 8.63997 27.96 8.53997 27.96 8.42997C27.92 8.42997 27.89 8.41997 27.85 8.41997Z" fill="#DC0B16"/>
<path d="M3.54018 17.4699C2.65018 17.3699 2.16018 16.7799 1.65018 16.1999C1.41018 15.9399 1.08018 15.7699 0.780177 15.5599C0.640177 15.4599 0.460177 15.4099 0.340177 15.2899C-0.169823 14.7899 -0.0998232 14.3199 0.580177 14.1099C2.02018 13.6799 3.47018 13.2999 4.92018 12.9199C5.23018 12.8399 5.40018 12.6999 5.52018 12.3999C6.96018 8.76994 8.42018 5.12994 9.89018 1.50994C10.0402 1.13994 10.3402 0.819941 10.6302 0.539941C10.8802 0.299941 11.2802 0.169941 11.5402 0.449941C11.7202 0.639941 11.8002 1.03994 11.7402 1.29994C11.6202 1.81994 11.3802 2.31994 11.1802 2.81994C9.99018 5.79994 8.80018 8.77994 7.61018 11.7599C7.55018 11.8999 7.52018 12.0499 7.45018 12.2699C7.84018 12.1999 8.15018 12.1399 8.46018 12.0799C9.71018 11.8399 10.9702 11.5799 12.2202 11.3499C12.5502 11.2899 12.7402 11.1599 12.8702 10.8299C14.1002 7.79994 15.3602 4.77994 16.6002 1.74994C16.8202 1.20994 17.1502 0.859941 17.7402 0.709941C18.4202 0.539941 19.0602 0.239941 19.7402 0.0599413C20.0302 -0.0200587 20.5002 -0.0500587 20.6502 0.119941C20.8202 0.299941 20.8002 0.759941 20.7002 1.04994C20.2202 2.41994 19.6802 3.76994 19.1602 5.11994C18.5102 6.78994 17.8502 8.44994 17.2002 10.1099C17.1502 10.2399 17.1202 10.3799 17.0502 10.5999C17.5002 10.5599 17.8802 10.5299 18.2702 10.4999C18.4802 10.4899 18.6802 10.4699 18.8902 10.4799C19.2202 10.4899 19.6002 10.5499 19.6402 10.9199C19.6702 11.2099 19.5902 11.6699 19.3802 11.8199C18.6002 12.3899 18.0602 13.1499 17.4902 13.8999C17.0702 14.4499 16.4502 14.7499 15.7802 14.8999C15.4002 14.9799 15.2302 15.1799 15.1102 15.5299C13.6802 19.5599 12.2502 23.5899 10.8102 27.6199C10.7602 27.7699 10.7102 27.9199 10.6502 28.0699C10.4302 28.5699 9.97018 28.6399 9.59018 28.2399C9.19018 27.8299 8.79018 27.4099 8.36018 27.0399C7.80018 26.5599 7.55018 26.0399 7.80018 25.2799C8.79018 22.3599 9.74018 19.4299 10.7002 16.5099C10.7402 16.3899 10.7702 16.2699 10.8302 16.0899C10.6702 16.0999 10.5502 16.0999 10.4302 16.1199C8.90018 16.4499 7.37018 16.7699 5.85018 17.1299C5.66018 17.1699 5.45018 17.3899 5.38018 17.5799C4.33018 20.3799 3.32018 23.1899 2.27018 25.9799C2.11018 26.4099 1.81018 26.8099 1.50018 27.1499C1.38018 27.2899 1.00018 27.3599 0.830177 27.2699C0.640177 27.1699 0.460177 26.8699 0.440177 26.6399C0.410177 26.3399 0.500177 25.9999 0.610177 25.7099C1.54018 23.0899 2.49018 20.4799 3.43018 17.8699C3.46018 17.7699 3.48018 17.6599 3.54018 17.4699Z" fill="#DC0B16"/>
<path d="M18.25 23.5999C17.99 23.7599 17.75 23.9299 17.5 24.0599C16.26 24.6899 15.01 23.9299 14.99 22.5399C14.98 21.8199 15.26 21.1999 15.71 20.6599C16.01 20.3099 16.35 19.9899 16.62 19.6199C16.73 19.4699 16.78 19.2299 16.76 19.0399C16.72 18.7099 16.58 18.3899 16.54 18.0599C16.4 17.0599 17.12 16.2399 18.1 16.2599C19.18 16.2699 19.8 17.1999 19.34 18.1799C19.14 18.6099 18.87 19.0199 18.55 19.3699C18.18 19.7699 18.14 20.1599 18.38 20.6199C18.44 20.7399 18.48 20.8799 18.55 21.0599C18.76 20.9099 18.93 20.7399 19.12 20.6699C19.31 20.6099 19.6 20.5699 19.73 20.6699C19.86 20.7699 19.95 21.0799 19.9 21.2499C19.79 21.5899 19.62 21.9399 19.39 22.2099C19.09 22.5499 19.07 22.8699 19.26 23.2499C19.32 23.3799 19.39 23.5299 19.37 23.6599C19.33 23.8599 19.25 24.1699 19.13 24.1999C18.95 24.2499 18.7 24.1199 18.52 24.0099C18.4 23.9299 18.34 23.7499 18.25 23.5999ZM17.38 21.0099C17.33 20.9999 17.29 20.9799 17.24 20.9699C17.06 21.2799 16.86 21.5799 16.71 21.9099C16.62 22.1099 16.65 22.3399 16.97 22.3399C17.42 22.3299 17.7 21.9299 17.55 21.4999C17.5 21.3299 17.44 21.1699 17.38 21.0099ZM17.65 18.3599C17.7 18.3799 17.75 18.4099 17.8 18.4299C17.96 18.2199 18.16 18.0399 18.26 17.8099C18.31 17.6999 18.15 17.4999 18.09 17.3399C17.94 17.4199 17.7 17.4799 17.66 17.5899C17.6 17.8299 17.65 18.0999 17.65 18.3599Z" fill="#DC0B16"/>
</g>
<defs>
<clipPath id="clip0_3255_12467">
<rect width="43.37" height="28.51" fill="white"/>
</clipPath>
</defs>
</svg>
