<svg width="64" height="41" viewBox="0 0 64 41" fill="none" xmlns="http://www.w3.org/2000/svg">
<g clip-path="url(#clip0_4204_13530)">
<path d="M31.17 39.6998H2.92C1.86 39.6998 1 38.8398 1 37.7798V10.1798C1 9.11977 1.86 8.25977 2.92 8.25977H31.17C32.23 8.25977 33.09 9.11977 33.09 10.1798V37.7698C33.09 38.8398 32.23 39.6998 31.17 39.6998Z" stroke="white" stroke-width="2" stroke-miterlimit="10"/>
<path d="M6.06006 27.4899L10.8901 22.7699L14.8101 26.9299L21.2401 20.6299L28.0301 27.4899H6.06006Z" fill="white"/>
<path d="M14.9802 21.6801C15.9633 21.6801 16.7602 20.8832 16.7602 19.9001C16.7602 18.917 15.9633 18.1201 14.9802 18.1201C13.9971 18.1201 13.2002 18.917 13.2002 19.9001C13.2002 20.8832 13.9971 21.6801 14.9802 21.6801Z" fill="white"/>
<path d="M43.46 3.85H2.76C1.79 3.85 1 3.07 1 2.1V1.76C1 0.79 1.79 0 2.76 0H43.47C44.44 0 45.23 0.79 45.23 1.76V2.1C45.22 3.07 44.43 3.85 43.46 3.85Z" fill="white"/>
<path opacity="0.34" d="M45.03 10.41H36.03C35.75 10.41 35.52 10.18 35.52 9.89998V9.23998C35.52 8.95998 35.75 8.72998 36.03 8.72998H45.03C45.31 8.72998 45.54 8.95998 45.54 9.23998V9.88998C45.54 10.18 45.31 10.41 45.03 10.41Z" fill="white"/>
<path d="M53.19 10.41H48.01C47.73 10.41 47.5 10.18 47.5 9.89998V9.23998C47.5 8.95998 47.73 8.72998 48.01 8.72998H53.19C53.47 8.72998 53.7 8.95998 53.7 9.23998V9.88998C53.71 10.18 53.48 10.41 53.19 10.41Z" fill="#F7941D"/>
<path opacity="0.34" d="M58.5699 40.1199H36.4499C36.1699 40.1199 35.9399 39.89 35.9399 39.61V38.9599C35.9399 38.6799 36.1699 38.45 36.4499 38.45H58.5599C58.8399 38.45 59.0699 38.6799 59.0699 38.9599V39.61C59.0799 39.89 58.8499 40.1199 58.5699 40.1199Z" fill="white"/>
<path opacity="0.34" d="M56.7398 13.3902H36.0398C35.7598 13.3902 35.5298 13.1602 35.5298 12.8802V12.2302C35.5298 11.9502 35.7598 11.7202 36.0398 11.7202H56.7398C57.0198 11.7202 57.2498 11.9502 57.2498 12.2302V12.8802C57.2498 13.1602 57.0198 13.3902 56.7398 13.3902Z" fill="white"/>
<path d="M45.55 16.38H36.03C35.75 16.38 35.52 16.15 35.52 15.87V15.22C35.52 14.94 35.75 14.71 36.03 14.71H45.55C45.83 14.71 46.06 14.94 46.06 15.22V15.87C46.06 16.15 45.83 16.38 45.55 16.38Z" fill="#F7941D"/>
<path d="M58.15 19.3599H36.03C35.75 19.3599 35.52 19.1299 35.52 18.8499V18.1999C35.52 17.9199 35.75 17.6899 36.03 17.6899H58.14C58.42 17.6899 58.65 17.9199 58.65 18.1999V18.8499C58.66 19.1299 58.43 19.3599 58.15 19.3599Z" fill="#F7941D"/>
<path d="M51.99 22.3502H36.03C35.75 22.3502 35.52 22.1202 35.52 21.8402V21.1902C35.52 20.9102 35.75 20.6802 36.03 20.6802H51.99C52.27 20.6802 52.5 20.9102 52.5 21.1902V21.8402C52.5 22.1202 52.27 22.3502 51.99 22.3502Z" fill="#F7941D"/>
<path d="M41.0998 29.06H37.5998C37.3198 29.06 37.0898 28.83 37.0898 28.55V25.75C37.0898 25.47 37.3198 25.24 37.5998 25.24H41.0998C41.3798 25.24 41.6098 25.47 41.6098 25.75V28.55C41.6098 28.84 41.3798 29.06 41.0998 29.06Z" fill="white"/>
<path d="M57.8 29.06H54.3C54.02 29.06 53.79 28.83 53.79 28.55V25.75C53.79 25.47 54.02 25.24 54.3 25.24H57.8C58.08 25.24 58.31 25.47 58.31 25.75V28.55C58.31 28.84 58.08 29.06 57.8 29.06Z" fill="white"/>
<path d="M63.49 29.06H59.99C59.71 29.06 59.48 28.83 59.48 28.55V25.75C59.48 25.47 59.71 25.24 59.99 25.24H63.49C63.77 25.24 64 25.47 64 25.75V28.55C64 28.84 63.77 29.06 63.49 29.06Z" fill="white"/>
<path d="M52.01 29.06H43.01C42.73 29.06 42.5 28.83 42.5 28.55V25.75C42.5 25.47 42.73 25.24 43.01 25.24H52.01C52.29 25.24 52.52 25.47 52.52 25.75V28.55C52.52 28.84 52.3 29.06 52.01 29.06Z" fill="#F7941D"/>
</g>
<defs>
<clipPath id="clip0_4204_13530">
<rect width="64" height="40.7" fill="white"/>
</clipPath>
</defs>
</svg>
