<?xml version="1.0" encoding="iso-8859-1"?>
<!-- Generator: Adobe Illustrator 18.0.0, SVG Export Plug-In . SVG Version: 6.00 Build 0)  -->
<!DOCTYPE svg PUBLIC "-//W3C//DTD SVG 1.1//EN" "http://www.w3.org/Graphics/SVG/1.1/DTD/svg11.dtd">
<svg version="1.1" id="&#x421;&#x43B;&#x43E;&#x439;_1"
	 xmlns="http://www.w3.org/2000/svg" xmlns:xlink="http://www.w3.org/1999/xlink" x="0px" y="0px" viewBox="0 0 512 512"
	 style="enable-background:new 0 0 512 512;" xml:space="preserve">
<path style="fill:#9C9B9B;" d="M464.399,512H47.601C21.42,512,0,490.58,0,464.399V47.601C0,21.42,21.42,0,47.601,0h416.798
	C490.58,0,512,21.42,512,47.601v416.798C512,490.58,490.58,512,464.399,512z"/>
<linearGradient id="SVGID_1_" gradientUnits="userSpaceOnUse" x1="256" y1="509.8333" x2="256" y2="2.1667">
	<stop  offset="0" style="stop-color:#F5F5F5"/>
	<stop  offset="1" style="stop-color:#D9D9D9"/>
</linearGradient>
<path style="fill:url(#SVGID_1_);" d="M462.232,509.833H49.768c-26.18,0-47.601-21.42-47.601-47.601V49.768
	c0-26.18,21.42-47.601,47.601-47.601h412.465c26.18,0,47.601,21.42,47.601,47.601v412.465
	C509.833,488.413,488.413,509.833,462.232,509.833z"/>
<g>
	<g>
		<linearGradient id="SVGID_2_" gradientUnits="userSpaceOnUse" x1="80.5161" y1="123.5911" x2="431.4844" y2="123.5911">
			<stop  offset="0" style="stop-color:#292349"/>
			<stop  offset="1" style="stop-color:#29235C"/>
		</linearGradient>
		<path style="fill-rule:evenodd;clip-rule:evenodd;fill:url(#SVGID_2_);" d="M281.151,181.072c-11.074,0-22.436-2.108-31.171-5.784
			l-0.651-0.274v-0.706c0-2.526,4.123-22.376,5.301-24.484l0.413-0.74l0.813,0.238c2.965,0.869,5.061,1.793,7.087,2.688
			c4.303,1.898,8.019,3.538,18.833,4.016c0.404,0.018,0.819,0.026,1.245,0.026c5.841,0,13.002-1.691,15.836-5.47
			c1.32-1.76,1.617-3.798,0.907-6.232c-1.258-4.298-9.076-8.18-14.785-11.015c-1.28-0.636-2.483-1.234-3.535-1.793
			c-19.108-10.139-25.487-26.324-17.062-43.294c8.063-16.233,28.709-22.07,43.94-22.137l0.383,0c10.148,0,15.485,1.444,22.871,3.442
			c1.457,0.394,2.999,0.812,4.683,1.246l0.983,0.254l-5.341,25.433l-1.105-0.328c-1.694-0.502-3.218-1.063-4.691-1.605
			c-2.449-0.902-4.764-1.754-7.888-2.4c-3.478-0.728-6.811-1.096-9.907-1.096c-9.316,0-14.601,3.339-15.705,6.648
			c-0.851,2.55,0.491,5.315,3.78,7.784c2.888,2.17,6.517,4.087,10.359,6.117c10.186,5.382,21.73,11.481,24.484,24.99
			c2.216,10.85-1.914,21.29-6.125,26.935C316.785,174.678,300.765,181.072,281.151,181.072z M405.355,179.395
			c-2.15,0-2.381-1.225-2.938-4.185c-0.168-0.894-0.381-2.024-0.688-3.454c-0.17-0.804-0.335-1.703-0.508-2.643
			c-0.376-2.045-0.796-4.33-1.357-6.081l-34.309-0.014l-5.962,16.28h-31.476l0.163-1.206c0.3-2.218,41.009-98.611,41.418-99.568
			c2.748-6.413,6.125-10.404,14.457-10.493c1.677-0.017,3.461-0.049,5.301-0.082c2.936-0.053,5.972-0.108,8.959-0.108
			c3.669,0,6.658,0.086,9.14,0.264l0.798,0.057l23.131,109.194v1.843l-1.02,0.042c-2.219,0.091-4.612,0.134-7.533,0.134
			c-1.976,0-3.959-0.019-5.94-0.039c-1.973-0.019-3.944-0.038-5.907-0.038c-1.266,0-2.529,0.008-3.786,0.029
			c-0.44,0.006-0.814,0.024-1.136,0.04C405.852,179.382,405.586,179.395,405.355,179.395z M394.676,138.472l-7.321-35.581
			c-3.119,7.987-10.911,29.554-12.894,35.493L394.676,138.472z M137.76,179.167l-0.246-0.714c-1.247-3.622-2.253-7.88-3.226-11.999
			c-0.351-1.484-0.695-2.941-1.042-4.327L116.47,97.312c-0.252-0.986-0.478-1.957-0.698-2.905
			c-1.043-4.488-1.944-8.364-4.892-10.521c-5.28-3.891-21.858-9.153-29.473-10.397l-0.892-0.146v-2.77l1.27-2.456l0.615-0.027
			c3.793-0.164,7.904-0.241,12.937-0.241c3.916,0,7.914,0.047,11.78,0.093c3.778,0.044,7.686,0.091,11.424,0.091l0.536,0
			c0.93,0,1.835-0.005,2.717-0.01c0.84-0.004,1.659-0.009,2.456-0.009c10.687,0,17.867,0.903,20.208,12.977
			c0.389,1.982,1.271,6.871,2.388,13.06c2.458,13.627,6.712,37.206,8.592,45.313l28.328-71.317l31.361,0.061l-0.203,1.233
			c-0.292,1.769-1.927,5.501-4.035,10.196c-0.664,1.479-1.237,2.756-1.58,3.595l-17.095,40.909l-1.752,4.25
			c-5.216,12.661-19.072,46.292-21.211,50.434l-0.298,0.578L137.76,179.167z M201.402,179.255l23.911-111.21l30.294,0.046
			l-23.823,111.195L201.402,179.255z"/>
		<path style="fill:#F5F5F5;" d="M308.708,67.173c11.978,0,17.034,2.007,27.287,4.654l-4.896,23.311
			c-4.369-1.295-7.5-2.96-12.666-4.027c-3.694-0.773-7.083-1.118-10.122-1.118c-15.707,0-22.043,9.227-12.563,16.346
			c10.645,7.998,30.768,12.453,34.44,30.47c2.035,9.962-1.423,20.038-5.934,26.086c-9.189,12.311-26.339,17.114-43.103,17.114
			c-11.276,0-22.38-2.175-30.759-5.701c0-2.704,4.156-22.158,5.166-23.966c9.179,2.69,10.076,6.034,26.172,6.746
			c0.42,0.018,0.851,0.028,1.292,0.028c8.497,0,20.564-3.458,17.764-13.064c-1.679-5.735-12.794-10.232-18.842-13.449
			c-16.765-8.895-25.645-23.681-16.608-41.883c7.486-15.071,26.627-21.475,42.993-21.546
			C308.457,67.173,308.582,67.173,308.708,67.173 M398.413,68.905c3.193,0,6.302,0.063,9.066,0.261l22.941,108.301v0.712
			c-2.476,0.102-4.978,0.133-7.492,0.133c-3.944,0-7.916-0.077-11.851-0.077c-1.27,0-2.537,0.008-3.797,0.029
			c-0.85,0.012-1.465,0.067-1.925,0.067c-1.663,0-1.282-0.721-2.587-6.799c-0.598-2.832-1.153-6.931-2.149-9.564l-35.806-0.014
			l-5.963,16.281h-29.516c0.256-1.893,38.781-93.301,41.342-99.293c2.562-5.977,5.479-9.763,13.491-9.848
			C388.498,69.052,393.552,68.905,398.413,68.905 M395.981,139.541l-8.268-40.19c-1.096,1.537-14.075,37.799-14.701,40.09
			L395.981,139.541 M95.342,68.912c7.76,0,15.656,0.183,23.197,0.183c0.18,0,0.361,0,0.54,0c1.814,0,3.538-0.019,5.171-0.019
			c10.32,0,16.966,0.775,19.165,12.116c1.508,7.685,10.446,59.174,11.869,61.437l29.203-73.52l29.388,0.057
			c-0.413,2.505-4.355,10.631-5.55,13.563l-17.092,40.901c-2.434,5.878-20.479,49.867-22.927,54.606l-29.786-0.128
			c-1.679-4.881-2.946-11.058-4.241-16.238l-16.779-64.824c-1.48-5.792-2.064-11.143-5.991-14.018
			c-5.408-3.985-21.916-9.279-29.929-10.588v-1.608l0.868-1.679C86.645,68.97,90.971,68.912,95.342,68.912 M226.171,69.109
			l28.121,0.043l-23.368,109.07l-28.207-0.028L226.171,69.109 M308.708,65.047L308.708,65.047l-0.387,0.001
			c-15.535,0.068-36.612,6.06-44.89,22.727c-8.714,17.552-2.166,34.264,17.516,44.707c1.068,0.568,2.278,1.169,3.559,1.805
			c5.221,2.592,13.111,6.51,14.24,10.363c0.609,2.088,0.368,3.821-0.738,5.295c-2.614,3.485-9.411,5.045-14.986,5.045
			c-0.41,0-0.81-0.009-1.2-0.026c-10.613-0.469-14.245-2.071-18.449-3.927c-2.058-0.908-4.186-1.847-7.217-2.735l-1.626-0.477
			l-0.827,1.479c-1.301,2.327-5.436,22.114-5.436,25.003v1.412l1.301,0.548c8.861,3.729,20.373,5.867,31.583,5.867
			c19.952,0,36.283-6.549,44.806-17.968c4.342-5.821,8.6-16.59,6.314-27.783c-2.853-14-14.634-20.225-25.029-25.717
			c-3.804-2.01-7.397-3.908-10.217-6.027c-1.677-1.259-4.349-3.79-3.411-6.599c0.983-2.947,5.909-5.921,14.697-5.921
			c3.024,0,6.283,0.361,9.686,1.073c3.052,0.631,5.33,1.47,7.742,2.358c1.489,0.548,3.029,1.116,4.756,1.627l2.211,0.655
			l0.474-2.257l4.896-23.311l0.417-1.988l-1.966-0.508c-1.68-0.434-3.219-0.85-4.673-1.243
			C324.39,66.506,318.997,65.047,308.708,65.047L308.708,65.047z M398.413,66.779c-2.996,0-6.036,0.055-8.975,0.108
			c-1.837,0.033-3.618,0.065-5.291,0.082c-8.911,0.095-12.508,4.332-15.424,11.137c-0.41,0.959-41.166,97.417-41.495,99.845
			l-0.326,2.411h2.433h29.516h1.485l0.511-1.395l5.452-14.885l32.773,0.013c0.435,1.57,0.786,3.479,1.105,5.211
			c0.175,0.95,0.34,1.847,0.512,2.666c0.305,1.422,0.516,2.539,0.684,3.436c0.552,2.931,0.95,5.049,3.982,5.049
			c0.244,0,0.527-0.013,0.857-0.029c0.311-0.015,0.673-0.033,1.098-0.039c1.253-0.021,2.509-0.029,3.767-0.029
			c1.963,0,3.931,0.019,5.901,0.038c1.985,0.019,3.971,0.038,5.951,0.038c2.936,0,5.344-0.043,7.579-0.135l2.039-0.084v-2.04v-0.712
			v-0.223l-0.046-0.218L409.559,68.726l-0.332-1.566l-1.597-0.114C405.124,66.866,402.108,66.779,398.413,66.779L398.413,66.779z
			 M375.94,137.328c2.192-6.387,7.795-21.916,11.104-30.673l6.326,30.748L375.94,137.328L375.94,137.328z M95.342,66.786
			c-5.05,0-9.177,0.077-12.987,0.242l-1.231,0.053l-0.566,1.094l-0.868,1.679l-0.237,0.459v0.517v1.608v1.807l1.783,0.291
			c8.329,1.361,24.195,6.654,29.01,10.202c2.635,1.929,3.454,5.45,4.49,9.908c0.222,0.956,0.45,1.934,0.703,2.925l16.781,64.831
			c0.341,1.365,0.685,2.819,1.035,4.301c0.979,4.142,1.991,8.426,3.254,12.096l0.491,1.428l1.51,0.007l29.786,0.128l1.301,0.006
			l0.597-1.156c1.914-3.705,12.355-28.93,21.238-50.491c0.822-1.994,1.435-3.483,1.764-4.277l17.089-40.895
			c0.342-0.838,0.911-2.106,1.57-3.574c2.141-4.768,3.804-8.567,4.116-10.463l0.406-2.467l-2.5-0.005l-29.388-0.057l-1.446-0.003
			l-0.534,1.344l-26.775,67.408c-2.125-10.174-5.818-30.646-7.841-41.858c-1.119-6.2-2.002-11.098-2.394-13.092
			c-2.49-12.84-10.379-13.833-21.251-13.833c-0.799,0-1.619,0.005-2.462,0.009c-0.879,0.005-1.782,0.01-2.709,0.01l-0.54,0
			c-3.731,0-7.633-0.046-11.407-0.09C103.263,66.833,99.263,66.786,95.342,66.786L95.342,66.786z M224.454,66.981l-0.362,1.682
			l-23.453,109.084l-0.553,2.57l2.629,0.003l28.207,0.028l1.721,0.002l0.36-1.682l23.368-109.07l0.55-2.567l-2.626-0.004
			l-28.121-0.043L224.454,66.981L224.454,66.981z"/>
	</g>
</g>
<g>
	<path style="fill:#1D1D1B;" d="M394.699,445.891c-0.486,0-0.951-0.092-1.38-0.272c-0.422-0.176-0.798-0.424-1.114-0.735
		c-0.316-0.311-0.568-0.68-0.747-1.094c-0.183-0.422-0.275-0.873-0.275-1.342c0-0.472,0.093-0.925,0.275-1.346
		c0.181-0.414,0.434-0.781,0.753-1.092c0.314-0.308,0.689-0.554,1.111-0.73c0.429-0.179,0.892-0.27,1.377-0.27
		c0.48,0,0.939,0.092,1.366,0.271c0.415,0.176,0.785,0.421,1.102,0.729c0.318,0.311,0.57,0.676,0.752,1.085
		c0.187,0.424,0.281,0.879,0.281,1.353c0,0.471-0.095,0.924-0.28,1.348c-0.057,0.128-0.12,0.253-0.19,0.372l0.343,0.396h-0.613
		c-0.089,0.111-0.185,0.218-0.286,0.319c-0.318,0.312-0.689,0.559-1.107,0.735C395.642,445.798,395.182,445.891,394.699,445.891z
		 M371.599,445.156c-1.775,0-3.454-0.336-4.99-0.998c-1.532-0.662-2.891-1.596-4.037-2.777c-1.146-1.181-2.056-2.602-2.704-4.223
		c-0.646-1.618-0.976-3.407-0.976-5.317s0.329-3.698,0.976-5.316c0.648-1.62,1.558-3.04,2.703-4.223
		c1.147-1.182,2.506-2.116,4.038-2.776c1.535-0.662,3.214-0.998,4.99-0.998c1.833,0,3.446,0.354,4.794,1.056
		c0.518,0.27,1.005,0.576,1.46,0.918v-10.832h7.206v34.88h-7.206v-1.346c-0.457,0.341-0.945,0.645-1.465,0.911
		C375.04,444.806,373.429,445.156,371.599,445.156z M372.207,425.441c-0.944,0-1.788,0.168-2.51,0.499
		c-0.729,0.334-1.353,0.786-1.851,1.346c-0.505,0.566-0.901,1.246-1.178,2.02c-0.281,0.789-0.424,1.642-0.424,2.535
		c0,0.895,0.143,1.748,0.424,2.536c0.276,0.773,0.673,1.453,1.178,2.021c0.498,0.558,1.121,1.011,1.85,1.344
		c0.723,0.331,1.567,0.498,2.511,0.498c0.9,0,1.72-0.161,2.437-0.479c0.722-0.319,1.349-0.763,1.864-1.318
		c0.518-0.559,0.928-1.234,1.219-2.009c0.293-0.783,0.442-1.655,0.442-2.593c0-0.937-0.149-1.809-0.442-2.592
		c-0.291-0.773-0.701-1.45-1.219-2.009c-0.515-0.555-1.142-0.998-1.863-1.318C373.926,425.604,373.105,425.441,372.207,425.441z
		 M324.659,445.156c-1.774,0-3.454-0.336-4.991-0.998c-1.534-0.663-2.893-1.597-4.037-2.777c-1.146-1.181-2.056-2.602-2.703-4.223
		c-0.646-1.618-0.976-3.407-0.976-5.317s0.329-3.698,0.976-5.316c0.647-1.619,1.557-3.04,2.704-4.223
		c1.145-1.181,2.503-2.115,4.036-2.776c1.536-0.662,3.216-0.998,4.991-0.998c1.833,0,3.446,0.354,4.793,1.056
		c0.518,0.27,1.005,0.576,1.46,0.917v-1.365h7.208v25.414h-7.208v-1.346c-0.457,0.341-0.946,0.646-1.465,0.911
		C328.101,444.806,326.489,445.156,324.659,445.156z M325.267,425.441c-0.943,0-1.788,0.168-2.511,0.5
		c-0.729,0.333-1.351,0.785-1.849,1.345c-0.506,0.566-0.902,1.246-1.179,2.02c-0.28,0.789-0.423,1.643-0.423,2.535
		c0,0.895,0.142,1.748,0.423,2.537c0.276,0.772,0.673,1.452,1.179,2.02c0.498,0.559,1.121,1.012,1.85,1.345
		c0.722,0.331,1.567,0.498,2.51,0.498c0.901,0,1.721-0.161,2.437-0.479c0.723-0.319,1.349-0.763,1.865-1.318
		c0.519-0.56,0.929-1.235,1.218-2.008c0.294-0.784,0.442-1.656,0.442-2.594s-0.148-1.809-0.442-2.591
		c-0.289-0.773-0.699-1.449-1.219-2.011c-0.514-0.554-1.141-0.997-1.863-1.317C326.986,425.604,326.166,425.441,325.267,425.441z
		 M301.923,445.156c-1.927,0-3.742-0.342-5.396-1.015c-1.656-0.674-3.105-1.618-4.309-2.805c-1.204-1.187-2.162-2.606-2.845-4.219
		c-0.686-1.614-1.033-3.391-1.033-5.277s0.348-3.662,1.033-5.276c0.684-1.613,1.642-3.033,2.846-4.219
		c1.203-1.187,2.652-2.13,4.307-2.804c1.653-0.674,3.469-1.015,5.396-1.015s3.743,0.341,5.396,1.015
		c1.238,0.504,2.369,1.162,3.361,1.955l0.727,0.581l-3.588,5.967l-0.958-0.858c-0.6-0.538-1.315-0.964-2.125-1.264
		c-0.857-0.319-1.803-0.481-2.813-0.481c-0.893,0-1.73,0.158-2.49,0.469c-0.755,0.308-1.412,0.743-1.955,1.293
		c-0.547,0.555-0.985,1.231-1.304,2.014c-0.318,0.781-0.48,1.664-0.48,2.624c0,0.961,0.162,1.844,0.48,2.626
		c0.318,0.781,0.757,1.458,1.304,2.013c0.543,0.55,1.2,0.985,1.955,1.293c0.758,0.311,1.596,0.468,2.49,0.468
		c1.009,0,1.954-0.161,2.813-0.479c0.812-0.303,1.527-0.728,2.126-1.265l0.957-0.857l3.588,5.966l-0.726,0.581
		c-0.988,0.791-2.119,1.449-3.361,1.956C305.665,444.814,303.85,445.156,301.923,445.156z M256.858,445.156
		c-1.877,0-3.629-0.32-5.208-0.951c-1.587-0.635-2.977-1.55-4.131-2.721c-1.15-1.168-2.055-2.59-2.689-4.228
		c-0.628-1.622-0.947-3.444-0.947-5.416c0-1.936,0.309-3.738,0.919-5.357c0.615-1.633,1.491-3.058,2.605-4.233
		c1.119-1.181,2.472-2.107,4.021-2.754c1.542-0.643,3.262-0.969,5.113-0.969c1.761,0,3.404,0.328,4.886,0.977
		c1.489,0.651,2.782,1.583,3.843,2.77c1.051,1.173,1.881,2.59,2.468,4.21c0.583,1.608,0.878,3.403,0.878,5.334
		c0,0.341-0.009,0.683-0.025,1.023c-0.018,0.349-0.044,0.679-0.078,0.989l-0.104,0.946H251.58c0.13,0.405,0.292,0.771,0.482,1.097
		c0.368,0.626,0.81,1.142,1.315,1.533c0.509,0.396,1.087,0.691,1.718,0.879c0.66,0.196,1.358,0.297,2.079,0.297
		c1.036,0,2.096-0.195,3.147-0.58c1.059-0.387,2.042-0.939,2.922-1.643l0.887-0.708l3.729,5.343l-0.734,0.627
		c-1.53,1.304-3.184,2.231-4.913,2.759C260.522,444.895,258.721,445.156,256.858,445.156z M261.031,428.784
		c-0.298-0.997-0.756-1.805-1.37-2.408c-0.822-0.809-1.874-1.201-3.216-1.201c-0.771,0-1.454,0.114-2.032,0.34
		c-0.572,0.224-1.049,0.532-1.458,0.941c-0.418,0.418-0.767,0.928-1.037,1.515c-0.119,0.258-0.224,0.53-0.313,0.813H261.031z
		 M235.838,445.156c-2.922,0-5.248-0.846-6.914-2.512c-1.666-1.665-2.511-4.221-2.511-7.595v-9.171h-4.643v-6.744h4.643v-7.05h7.23
		v7.05h8.16v6.744h-8.16v9.074c0,0.652,0.078,1.204,0.231,1.64c0.143,0.405,0.33,0.731,0.556,0.968
		c0.221,0.232,0.469,0.396,0.759,0.5c0.329,0.12,0.693,0.18,1.085,0.18c0.661,0,1.349-0.132,2.045-0.394
		c0.483-0.182,0.962-0.399,1.424-0.646l1.04-0.556l2.538,6.215l-0.819,0.459c-0.736,0.413-1.512,0.778-2.308,1.085
		C238.901,444.903,237.435,445.156,235.838,445.156z M181.16,445.156c-1.775,0-3.454-0.336-4.99-0.998
		c-1.533-0.662-2.892-1.596-4.038-2.777c-1.145-1.18-2.055-2.601-2.704-4.223c-0.647-1.618-0.975-3.407-0.975-5.317
		c0-1.909,0.328-3.698,0.975-5.316c0.648-1.621,1.558-3.041,2.704-4.223c1.147-1.182,2.506-2.116,4.038-2.776
		c1.535-0.662,3.214-0.998,4.99-0.998c1.833,0,3.445,0.354,4.793,1.056c0.518,0.27,1.005,0.576,1.46,0.918v-1.366h7.207v25.414
		h-7.207v-1.347c-0.457,0.342-0.946,0.646-1.466,0.912C184.601,444.806,182.99,445.156,181.16,445.156z M181.768,425.441
		c-0.944,0-1.789,0.168-2.511,0.499c-0.729,0.334-1.351,0.786-1.85,1.346c-0.505,0.566-0.901,1.246-1.178,2.02
		c-0.281,0.789-0.424,1.642-0.424,2.535c0,0.895,0.143,1.748,0.424,2.536c0.276,0.773,0.672,1.453,1.178,2.021
		c0.499,0.559,1.121,1.012,1.85,1.345c0.722,0.331,1.567,0.498,2.511,0.498c0.9,0,1.72-0.161,2.437-0.479
		c0.722-0.319,1.349-0.763,1.864-1.318c0.519-0.56,0.929-1.235,1.218-2.009c0.294-0.783,0.443-1.655,0.443-2.593
		c0-0.937-0.149-1.809-0.442-2.592c-0.29-0.772-0.7-1.448-1.219-2.009c-0.514-0.555-1.141-0.998-1.863-1.318
		C183.486,425.604,182.666,425.441,181.768,425.441z M208.451,445.132c-0.634,0-1.37-0.039-2.188-0.114
		c-0.845-0.078-1.748-0.234-2.684-0.464c-0.942-0.231-1.911-0.556-2.881-0.964c-1-0.422-1.967-0.98-2.875-1.661l-0.777-0.583
		l3.487-5.643l0.933,0.716c0.383,0.294,0.806,0.574,1.256,0.833c0.438,0.252,0.943,0.478,1.498,0.671
		c0.568,0.199,1.206,0.36,1.896,0.479c0.689,0.119,1.491,0.18,2.384,0.18c1.553,0,2.708-0.211,3.434-0.626
		c0.707-0.405,0.802-0.812,0.802-1.156c0-0.21-0.059-0.464-0.497-0.755c-0.352-0.232-1.094-0.556-2.623-0.769l-2.42-0.314
		c-2.798-0.385-4.967-1.234-6.455-2.524c-1.574-1.363-2.372-3.166-2.372-5.36c0-1.309,0.26-2.511,0.774-3.573
		c0.516-1.071,1.267-1.989,2.231-2.728c0.933-0.716,2.068-1.274,3.372-1.659c1.278-0.376,2.728-0.566,4.312-0.566
		c1.914,0,3.748,0.229,5.45,0.681c1.719,0.456,3.251,1.109,4.554,1.942l0.839,0.537l-3.197,5.791l-0.942-0.555
		c-0.321-0.189-0.729-0.396-1.212-0.616c-0.481-0.217-1.02-0.418-1.599-0.597c-0.583-0.179-1.218-0.333-1.887-0.457
		c-0.64-0.117-1.299-0.176-1.958-0.176c-1.174,0-2.068,0.197-2.658,0.588c-0.602,0.399-0.679,0.809-0.679,1.12
		c0,0.259,0.072,0.356,0.096,0.388c0.108,0.148,0.255,0.269,0.452,0.371c0.256,0.135,0.578,0.246,0.956,0.331
		c0.447,0.101,0.925,0.188,1.434,0.266l2.407,0.365c2.711,0.397,4.883,1.217,6.449,2.436c1.691,1.317,2.549,3.166,2.549,5.494
		c0,1.284-0.281,2.481-0.834,3.561c-0.551,1.074-1.35,2.007-2.375,2.772c-1,0.747-2.237,1.333-3.678,1.74
		C211.814,444.93,210.208,445.132,208.451,445.132z M342.754,444.549v-25.414h6.737v1.202c0.429-0.385,0.892-0.712,1.394-0.938
		c1.284-0.579,2.731-0.872,4.302-0.872c0.833,0,1.601,0.058,2.279,0.173c0.435,0.073,0.876,0.184,1.391,0.346l1.008,0.318
		l-2.138,6.912l-1.034-0.35c-0.277-0.094-0.575-0.174-0.893-0.239c-0.638-0.131-1.236-0.196-1.78-0.196
		c-0.669,0-1.287,0.112-1.838,0.335c-0.536,0.217-0.981,0.525-1.361,0.944c-0.389,0.428-0.701,0.969-0.928,1.608
		c-0.233,0.66-0.352,1.433-0.352,2.296v13.874H342.754z M272.129,444.549v-25.414h6.739v1.202c0.428-0.385,0.891-0.712,1.393-0.938
		c1.283-0.579,2.731-0.872,4.302-0.872c0.833,0,1.601,0.058,2.279,0.173c0.432,0.073,0.887,0.187,1.392,0.346l1.006,0.319
		l-2.138,6.912l-1.034-0.351c-0.276-0.094-0.573-0.174-0.891-0.238c-0.639-0.132-1.237-0.197-1.781-0.197
		c-0.669,0-1.287,0.112-1.838,0.335c-0.536,0.217-0.981,0.525-1.361,0.944c-0.389,0.428-0.701,0.969-0.928,1.608
		c-0.233,0.66-0.353,1.433-0.353,2.296v13.874H272.129z M158.983,444.549v-14.021c0-1.688-0.375-2.974-1.115-3.823
		c-0.712-0.817-1.716-1.214-3.068-1.214c-0.667,0-1.3,0.111-1.883,0.331c-0.561,0.213-1.058,0.53-1.476,0.941
		c-0.419,0.415-0.763,0.946-1.02,1.577c-0.26,0.639-0.392,1.391-0.392,2.236v13.972h-7.066v-14.021c0-1.688-0.375-2.974-1.115-3.823
		c-0.712-0.817-1.715-1.214-3.068-1.214c-0.667,0-1.3,0.111-1.883,0.331c-0.561,0.213-1.058,0.53-1.476,0.941
		c-0.42,0.415-0.763,0.946-1.021,1.577c-0.26,0.639-0.392,1.391-0.392,2.236v13.972h-7.066v-25.414h7.019v1.225
		c0.568-0.429,1.17-0.778,1.792-1.043c0.688-0.291,1.388-0.498,2.084-0.616c0.675-0.115,1.341-0.173,1.978-0.173
		c1.898,0,3.618,0.416,5.112,1.237c1.03,0.566,1.922,1.289,2.664,2.155c0.326-0.389,0.678-0.738,1.053-1.048
		c0.736-0.605,1.525-1.089,2.344-1.436c0.812-0.341,1.646-0.581,2.482-0.714c0.809-0.13,1.606-0.195,2.367-0.195
		c1.462,0,2.835,0.255,4.08,0.758c1.25,0.506,2.347,1.227,3.26,2.143c0.916,0.92,1.632,2.026,2.129,3.29
		c0.494,1.253,0.745,2.645,0.745,4.134v15.697H158.983z M310.279,400.169c-19.927,0-38.731-6.449-54.438-18.661
		c-15.707,12.212-34.512,18.661-54.438,18.661c-48.979,0-88.827-39.847-88.827-88.826s39.848-88.827,88.827-88.827
		c19.926,0,38.731,6.45,54.438,18.662c15.707-12.212,34.512-18.662,54.438-18.662c48.979,0,88.827,39.848,88.827,88.827
		S359.259,400.169,310.279,400.169z M396.531,359.877v-0.312h-0.161v0.312h-5.341v-2.568h-1.039v-2.833h6.376l0.083,0.214
		l0.082-0.214h2.894v5.401H396.531z"/>
	<path style="fill:#FFFFFF;" d="M310.279,223.578c48.471,0,87.764,39.293,87.764,87.764s-39.293,87.764-87.764,87.764
		c-20.572,0-39.475-7.097-54.438-18.95c20.293-16.075,33.326-40.915,33.326-68.814s-13.033-52.738-33.326-68.814
		C270.804,230.675,289.707,223.578,310.279,223.578 M201.403,223.578c20.572,0,39.475,7.097,54.438,18.95
		c-20.293,16.075-33.326,40.915-33.326,68.814s13.033,52.738,33.326,68.814c-14.963,11.854-33.866,18.95-54.438,18.95
		c-48.471,0-87.764-39.293-87.764-87.764S152.932,223.578,201.403,223.578 M255.841,242.529
		c20.293,16.075,33.326,40.915,33.326,68.814s-13.033,52.738-33.326,68.814c-20.293-16.075-33.326-40.915-33.326-68.814
		S235.548,258.604,255.841,242.529 M398.361,355.539v3.275h-0.768v-2.272l-0.737,1.96h-0.814l-0.737-1.955v2.267h-0.768v-3.275h1.1
		l0.814,2.098l0.809-2.098H398.361 M393.899,355.539v0.706h-1.039v2.569h-0.768v-2.569h-1.039v-0.706H393.899 M383.996,410.732
		v32.753h-5.08v-2.795c-0.81,1.037-1.815,1.864-3.014,2.479c-1.2,0.616-2.634,0.924-4.303,0.924c-1.637,0-3.16-0.304-4.57-0.911
		c-1.41-0.608-2.642-1.455-3.695-2.54c-1.053-1.085-1.88-2.378-2.479-3.877c-0.6-1.499-0.9-3.139-0.9-4.923
		c0-1.782,0.3-3.423,0.9-4.922c0.599-1.499,1.426-2.791,2.479-3.877c1.053-1.086,2.285-1.933,3.695-2.54
		c1.41-0.608,2.933-0.912,4.57-0.912c1.669,0,3.103,0.312,4.303,0.936c1.199,0.624,2.204,1.455,3.014,2.492v-12.285H383.996
		 M372.207,439.304c1.053,0,2.009-0.19,2.868-0.571c0.859-0.381,1.596-0.903,2.212-1.568c0.616-0.664,1.094-1.45,1.435-2.358
		c0.34-0.907,0.51-1.896,0.51-2.966s-0.17-2.058-0.51-2.965c-0.34-0.907-0.819-1.693-1.435-2.358
		c-0.616-0.664-1.353-1.187-2.212-1.568c-0.859-0.381-1.815-0.571-2.868-0.571c-1.102,0-2.087,0.198-2.953,0.595
		c-0.867,0.397-1.601,0.932-2.2,1.604c-0.599,0.673-1.061,1.463-1.385,2.37c-0.325,0.908-0.486,1.872-0.486,2.893
		c0,1.021,0.162,1.985,0.486,2.893c0.324,0.908,0.786,1.698,1.385,2.37c0.6,0.672,1.333,1.207,2.2,1.604
		C370.12,439.106,371.105,439.304,372.207,439.304 M232.581,413.148v7.049h8.16v4.619h-8.16v10.137c0,0.778,0.097,1.442,0.292,1.993
		c0.194,0.551,0.458,1.001,0.79,1.349c0.331,0.349,0.72,0.604,1.166,0.765c0.445,0.162,0.927,0.243,1.446,0.243
		c0.794,0,1.6-0.154,2.419-0.462c0.545-0.205,1.061-0.442,1.552-0.705l1.737,4.254c-0.674,0.378-1.394,0.721-2.171,1.021
		c-1.175,0.453-2.5,0.681-3.975,0.681c-2.642,0-4.696-0.733-6.162-2.2c-1.467-1.466-2.2-3.747-2.2-6.843v-10.234h-4.643v-4.619
		h4.643v-7.049H232.581 M355.186,419.59c0.778,0,1.478,0.053,2.103,0.158c0.426,0.072,0.839,0.183,1.246,0.312l-1.502,4.861
		c-0.317-0.108-0.657-0.2-1.021-0.274c-0.713-0.146-1.377-0.219-1.993-0.219c-0.811,0-1.556,0.138-2.236,0.413
		c-0.681,0.276-1.264,0.681-1.75,1.215c-0.486,0.535-0.867,1.191-1.142,1.969c-0.276,0.778-0.413,1.662-0.413,2.65v12.81h-4.661
		v-23.287h4.613v3.056c0.778-1.118,1.741-2.367,2.892-2.885C352.472,419.849,353.76,419.59,355.186,419.59 M324.659,419.59
		c1.669,0,3.103,0.312,4.302,0.936c1.199,0.624,2.204,1.455,3.014,2.492v-2.82h5.081v23.287h-5.081v-2.795
		c-0.81,1.037-1.815,1.864-3.014,2.479c-1.199,0.616-2.634,0.924-4.302,0.924c-1.637,0-3.161-0.304-4.57-0.911
		c-1.41-0.608-2.642-1.455-3.695-2.54c-1.053-1.085-1.88-2.378-2.479-3.877c-0.6-1.499-0.9-3.139-0.9-4.923
		c0-1.782,0.3-3.423,0.9-4.922c0.599-1.499,1.426-2.791,2.479-3.877c1.053-1.086,2.285-1.933,3.695-2.54
		C321.499,419.894,323.022,419.59,324.659,419.59 M325.267,439.304c1.054,0,2.01-0.19,2.868-0.571
		c0.859-0.381,1.596-0.903,2.212-1.568c0.616-0.664,1.094-1.45,1.435-2.358c0.34-0.907,0.51-1.896,0.51-2.966
		s-0.17-2.058-0.51-2.965c-0.341-0.907-0.819-1.693-1.435-2.358c-0.616-0.664-1.353-1.187-2.212-1.568
		c-0.859-0.381-1.815-0.571-2.868-0.571c-1.102,0-2.086,0.198-2.953,0.595c-0.867,0.397-1.6,0.932-2.2,1.604
		c-0.6,0.673-1.061,1.463-1.385,2.37c-0.324,0.908-0.486,1.872-0.486,2.893c0,1.021,0.162,1.985,0.486,2.893
		c0.324,0.908,0.786,1.698,1.385,2.37c0.6,0.672,1.333,1.207,2.2,1.604C323.18,439.106,324.165,439.304,325.267,439.304
		 M301.923,419.59c1.798,0,3.463,0.312,4.995,0.936c1.149,0.468,2.182,1.069,3.099,1.801l-2.446,4.068
		c-0.697-0.625-1.518-1.117-2.465-1.469c-0.981-0.365-2.041-0.547-3.182-0.547v0c-1.037,0-2.001,0.182-2.893,0.547
		c-0.891,0.365-1.662,0.875-2.309,1.532c-0.648,0.656-1.159,1.443-1.532,2.358c-0.373,0.916-0.559,1.924-0.559,3.026
		c0,1.102,0.186,2.111,0.559,3.027c0.372,0.916,0.883,1.701,1.532,2.357c0.647,0.656,1.418,1.167,2.309,1.532
		c0.891,0.365,1.856,0.547,2.893,0.547c1.141,0,2.202-0.182,3.182-0.547c0.948-0.352,1.768-0.844,2.465-1.469l2.446,4.068
		c-0.917,0.733-1.949,1.333-3.099,1.801c-1.532,0.624-3.197,0.936-4.995,0.936c-1.799,0-3.464-0.312-4.996-0.936
		c-1.532-0.624-2.852-1.482-3.962-2.577c-1.11-1.094-1.981-2.386-2.613-3.877c-0.633-1.491-0.949-3.111-0.949-4.862
		c0-1.75,0.316-3.37,0.949-4.861c0.632-1.491,1.503-2.783,2.613-3.877c1.11-1.094,2.43-1.953,3.962-2.577
		C298.459,419.902,300.124,419.59,301.923,419.59 M284.563,419.59c0.778,0,1.478,0.053,2.103,0.158
		c0.426,0.072,0.839,0.183,1.246,0.312l-1.502,4.861c-0.317-0.108-0.657-0.2-1.021-0.274c-0.713-0.146-1.377-0.219-1.993-0.219
		c-0.811,0-1.556,0.138-2.236,0.413c-0.681,0.276-1.264,0.681-1.75,1.215c-0.486,0.535-0.867,1.191-1.142,1.969
		c-0.276,0.778-0.413,1.662-0.413,2.65v12.81h-4.661v-23.287h4.613v3.056c0.778-1.118,1.742-2.367,2.892-2.885
		C281.848,419.849,283.137,419.59,284.563,419.59 M256.542,419.59c1.62,0,3.107,0.296,4.46,0.887
		c1.353,0.592,2.512,1.426,3.476,2.504c0.964,1.078,1.718,2.366,2.26,3.865c0.543,1.499,0.814,3.156,0.814,4.971
		c0,0.324-0.008,0.648-0.024,0.972c-0.016,0.324-0.04,0.632-0.073,0.923h-17.21c0.162,1.053,0.462,1.953,0.899,2.698
		c0.438,0.745,0.964,1.358,1.58,1.835c0.616,0.478,1.304,0.83,2.066,1.057c0.761,0.228,1.555,0.341,2.382,0.341
		c1.166,0,2.337-0.214,3.512-0.644c1.175-0.429,2.249-1.033,3.221-1.811l2.528,3.622c-1.426,1.215-2.937,2.066-4.533,2.552
		c-1.596,0.486-3.278,0.729-5.044,0.729c-1.75,0-3.355-0.292-4.813-0.875c-1.459-0.583-2.714-1.41-3.768-2.479
		c-1.054-1.069-1.871-2.357-2.455-3.864c-0.584-1.507-0.875-3.185-0.875-5.032c0-1.815,0.283-3.476,0.85-4.983
		c0.567-1.507,1.361-2.799,2.382-3.877c1.021-1.078,2.24-1.912,3.659-2.504C253.256,419.886,254.824,419.59,256.542,419.59
		 M250.27,429.848h12.081c-0.276-1.815-0.923-3.225-1.945-4.23c-1.021-1.005-2.342-1.507-3.962-1.507
		c-0.908,0-1.714,0.138-2.419,0.413c-0.705,0.276-1.312,0.669-1.823,1.179c-0.51,0.51-0.928,1.118-1.252,1.823
		C250.627,428.232,250.4,429.006,250.27,429.848 M181.16,419.59c1.669,0,3.103,0.312,4.303,0.936
		c1.199,0.624,2.204,1.455,3.014,2.492v-2.82h5.081v23.287h-5.081v-2.795c-0.811,1.037-1.815,1.864-3.014,2.479
		c-1.199,0.616-2.634,0.924-4.303,0.924c-1.637,0-3.16-0.304-4.57-0.911c-1.41-0.608-2.642-1.455-3.695-2.54
		c-1.053-1.085-1.88-2.378-2.479-3.877c-0.6-1.499-0.899-3.139-0.899-4.923c0-1.782,0.3-3.423,0.899-4.922
		c0.599-1.499,1.426-2.791,2.479-3.877c1.053-1.086,2.285-1.933,3.695-2.54C178,419.894,179.523,419.59,181.16,419.59
		 M181.767,439.304c1.053,0,2.009-0.19,2.868-0.571c0.859-0.381,1.596-0.903,2.212-1.568c0.616-0.664,1.094-1.45,1.434-2.358
		c0.34-0.907,0.51-1.896,0.51-2.966s-0.17-2.058-0.51-2.965c-0.34-0.907-0.819-1.693-1.434-2.358
		c-0.616-0.664-1.353-1.187-2.212-1.568c-0.859-0.381-1.815-0.571-2.868-0.571c-1.102,0-2.087,0.198-2.954,0.595
		c-0.867,0.397-1.601,0.932-2.2,1.604c-0.6,0.673-1.062,1.463-1.385,2.37c-0.324,0.908-0.486,1.872-0.486,2.893
		c0,1.021,0.162,1.985,0.486,2.893c0.324,0.908,0.786,1.698,1.385,2.37c0.599,0.672,1.333,1.207,2.2,1.604
		C179.681,439.106,180.665,439.304,181.767,439.304 M155.835,419.59c1.333,0,2.56,0.227,3.682,0.681
		c1.121,0.454,2.09,1.09,2.906,1.908c0.815,0.819,1.447,1.795,1.894,2.929c0.447,1.135,0.67,2.382,0.67,3.744v14.634h-4.94v-12.956
		c0-1.961-0.459-3.468-1.376-4.521c-0.918-1.053-2.208-1.58-3.87-1.58c-0.8,0-1.553,0.134-2.259,0.401
		c-0.706,0.267-1.321,0.661-1.847,1.179c-0.526,0.519-0.945,1.163-1.259,1.933c-0.314,0.77-0.471,1.649-0.471,2.637v12.908h-4.941
		v-12.956c0-1.961-0.459-3.468-1.376-4.521c-0.918-1.053-2.208-1.58-3.87-1.58c-0.8,0-1.553,0.134-2.259,0.401
		c-0.706,0.267-1.321,0.661-1.847,1.179c-0.526,0.519-0.945,1.163-1.259,1.933c-0.314,0.77-0.471,1.649-0.471,2.637v12.908h-4.94
		v-23.287h4.893v2.844c0.455-0.681,0.96-1.244,1.517-1.69c0.557-0.446,1.141-0.798,1.753-1.057c0.612-0.259,1.227-0.441,1.847-0.547
		c0.62-0.105,1.219-0.158,1.8-0.158c1.725,0,3.258,0.369,4.599,1.106c1.341,0.738,2.403,1.754,3.188,3.051
		c0.486-0.826,1.059-1.511,1.717-2.054c0.659-0.543,1.353-0.968,2.082-1.276c0.729-0.308,1.474-0.523,2.235-0.644
		C154.396,419.651,155.129,419.59,155.835,419.59 M209.058,419.614c1.831,0,3.557,0.215,5.177,0.644
		c1.621,0.43,3.038,1.033,4.254,1.811l-2.188,3.962c-0.356-0.21-0.794-0.433-1.313-0.668c-0.519-0.235-1.094-0.45-1.726-0.644
		c-0.632-0.195-1.3-0.356-2.005-0.486c-0.705-0.13-1.422-0.194-2.151-0.194c-1.394,0-2.476,0.255-3.245,0.766
		c-0.77,0.511-1.155,1.179-1.155,2.005c0,0.405,0.101,0.746,0.304,1.021c0.202,0.276,0.474,0.503,0.814,0.681
		c0.34,0.178,0.745,0.32,1.215,0.425c0.47,0.106,0.972,0.199,1.507,0.28l2.406,0.365c2.544,0.373,4.53,1.114,5.956,2.224
		c1.426,1.11,2.139,2.662,2.139,4.655c0,1.118-0.239,2.143-0.717,3.075c-0.478,0.932-1.166,1.734-2.066,2.406
		c-0.9,0.673-2.01,1.196-3.33,1.568c-1.321,0.372-2.816,0.559-4.485,0.559c-0.6,0-1.297-0.037-2.091-0.11
		c-0.794-0.073-1.637-0.219-2.528-0.438c-0.891-0.219-1.799-0.523-2.723-0.912c-0.924-0.389-1.807-0.9-2.65-1.531l2.358-3.816
		c0.422,0.324,0.879,0.628,1.374,0.911c0.494,0.284,1.053,0.535,1.677,0.754c0.624,0.219,1.313,0.393,2.066,0.523
		c0.754,0.13,1.608,0.194,2.565,0.194c1.75,0,3.071-0.255,3.962-0.766c0.891-0.51,1.337-1.203,1.337-2.078
		c0-0.664-0.325-1.211-0.972-1.641c-0.648-0.429-1.669-0.741-3.063-0.936l-2.431-0.316c-2.593-0.357-4.558-1.114-5.895-2.273
		c-1.337-1.158-2.005-2.678-2.005-4.558c0-1.151,0.222-2.188,0.668-3.112c0.445-0.924,1.085-1.705,1.92-2.346
		c0.835-0.64,1.843-1.134,3.026-1.483C206.23,419.789,207.567,419.614,209.058,419.614 M394.699,440.073
		c0.338,0,0.656,0.063,0.952,0.188c0.296,0.125,0.554,0.295,0.775,0.51c0.22,0.215,0.394,0.466,0.521,0.753
		c0.127,0.287,0.19,0.595,0.19,0.923c0,0.324-0.064,0.631-0.19,0.92c-0.127,0.289-0.301,0.542-0.521,0.759
		c-0.22,0.217-0.479,0.388-0.775,0.513c-0.296,0.125-0.613,0.188-0.952,0.188c-0.346,0-0.668-0.063-0.968-0.188
		c-0.3-0.125-0.56-0.296-0.78-0.513c-0.22-0.217-0.393-0.47-0.518-0.759c-0.125-0.289-0.188-0.596-0.188-0.92
		c0-0.328,0.063-0.635,0.188-0.923c0.125-0.287,0.298-0.538,0.518-0.753c0.22-0.215,0.48-0.385,0.78-0.51
		C394.031,440.136,394.354,440.073,394.699,440.073 M394.699,444.166c0.236,0,0.458-0.045,0.666-0.135s0.389-0.212,0.542-0.367
		c0.153-0.155,0.274-0.337,0.362-0.545c0.088-0.208,0.132-0.432,0.132-0.672c0-0.236-0.044-0.459-0.132-0.669
		c-0.088-0.21-0.209-0.391-0.362-0.545c-0.153-0.153-0.334-0.275-0.542-0.365c-0.208-0.09-0.43-0.135-0.666-0.135
		c-0.243,0-0.47,0.045-0.679,0.135c-0.21,0.09-0.392,0.212-0.547,0.365c-0.155,0.153-0.277,0.335-0.365,0.545
		c-0.088,0.21-0.132,0.433-0.132,0.669c0,0.24,0.044,0.464,0.132,0.672c0.088,0.208,0.21,0.39,0.365,0.545
		c0.155,0.155,0.338,0.278,0.547,0.367C394.23,444.121,394.456,444.166,394.699,444.166 M394.837,441.395
		c0.289,0,0.508,0.064,0.658,0.193c0.15,0.129,0.225,0.301,0.225,0.516c0,0.169-0.054,0.309-0.161,0.42
		c-0.108,0.111-0.264,0.184-0.468,0.219l0.656,0.756h-0.709l-0.587-0.735h-0.069v0.735h-0.592v-2.104H394.837 M394.382,442.294
		h0.444c0.092,0,0.162-0.014,0.212-0.042c0.049-0.028,0.074-0.077,0.074-0.148c0-0.067-0.025-0.116-0.074-0.148
		c-0.049-0.032-0.12-0.048-0.212-0.048h-0.444V442.294 M310.279,221.452c-19.885,0-38.665,6.346-54.426,18.374l-0.012-0.01
		l-0.012,0.01c-15.761-12.027-34.541-18.374-54.426-18.374c-49.566,0-89.89,40.325-89.89,89.89s40.325,89.89,89.89,89.89
		c19.885,0,38.665-6.346,54.426-18.374l0.012,0.01l0.012-0.01c15.761,12.027,34.541,18.374,54.426,18.374
		c33.798,0,63.299-18.749,78.648-46.393v0.699v0.706v2.126h1.039v0.443v2.126h2.126h0.32h2.126h0.768h2.126h0.161h0.768h2.126
		v-2.126v-3.275v-2.126h-2.126h-1.1h-0.166h-1.07h-2.126h-2.845h-1.351c6.68-12.559,10.466-26.88,10.466-42.07
		C400.169,261.777,359.845,221.452,310.279,221.452L310.279,221.452z M386.122,408.606h-2.126h-5.08h-2.126v2.126v7.86
		c-1.481-0.749-3.227-1.128-5.191-1.128c-1.92,0-3.741,0.365-5.411,1.085c-1.661,0.716-3.135,1.729-4.379,3.012
		c-1.232,1.27-2.211,2.792-2.909,4.523l0.166-0.537l1.502-4.861l0.624-2.019l-2.015-0.636c-0.564-0.178-1.051-0.299-1.532-0.38
		c-0.741-0.125-1.567-0.188-2.458-0.188c-1.679,0-3.237,0.309-4.632,0.918v-0.31h-2.126h-4.613h-2.126v2.126v23.287v2.126h2.126
		h4.661h2.126v-2.126v-12.81c0-0.742,0.098-1.394,0.291-1.939c0.179-0.507,0.419-0.927,0.712-1.249
		c0.271-0.298,0.59-0.519,0.975-0.675c0.429-0.174,0.899-0.258,1.438-0.258c0.469,0,0.997,0.059,1.568,0.176
		c0.27,0.055,0.526,0.124,0.76,0.204l2.031,0.692c-0.365,1.327-0.549,2.739-0.549,4.216c0,2.047,0.354,3.969,1.052,5.713
		c0.699,1.75,1.684,3.287,2.928,4.568c1.244,1.282,2.717,2.296,4.379,3.012c1.671,0.72,3.492,1.085,5.411,1.085
		c1.965,0,3.711-0.376,5.191-1.116v0.509h2.126h5.08h2.126v-2.126v-32.753V408.606L386.122,408.606z M372.207,437.178
		c-0.79,0-1.486-0.135-2.068-0.402c-0.603-0.276-1.093-0.631-1.499-1.086c-0.419-0.471-0.737-1.017-0.969-1.669
		c-0.241-0.673-0.363-1.406-0.363-2.179c0-0.772,0.122-1.505,0.362-2.177c0.233-0.654,0.551-1.2,0.971-1.672
		c0.405-0.454,0.895-0.81,1.498-1.086c0.583-0.267,1.279-0.402,2.068-0.402c0.76,0,1.416,0.127,2.007,0.389
		c0.597,0.265,1.093,0.615,1.514,1.069c0.431,0.465,0.759,1.008,1.003,1.659c0.249,0.664,0.375,1.411,0.375,2.219
		c0,0.809-0.126,1.555-0.375,2.22c-0.244,0.652-0.572,1.194-1.003,1.658c-0.422,0.456-0.917,0.805-1.514,1.07
		C373.624,437.051,372.968,437.178,372.207,437.178L372.207,437.178z M234.707,411.022h-2.126h-5.105h-2.126v2.126v4.923h-2.517
		h-2.126v2.126v0.767l-1.071-0.686c-1.396-0.893-3.029-1.591-4.855-2.075c-1.792-0.475-3.717-0.715-5.722-0.715
		c-1.687,0-3.239,0.205-4.612,0.609c-1.43,0.422-2.681,1.039-3.72,1.835c-1.097,0.842-1.953,1.888-2.541,3.109
		c-0.583,1.208-0.879,2.566-0.879,4.035c0,2.48,0.947,4.612,2.739,6.164c1.647,1.428,4.002,2.361,6.998,2.773l2.446,0.318
		c1.312,0.183,1.891,0.438,2.111,0.568c-0.042,0.037-0.104,0.082-0.196,0.134c-0.316,0.181-1.114,0.485-2.906,0.485
		c-0.832,0-1.573-0.055-2.204-0.164c-0.633-0.109-1.213-0.255-1.724-0.434c-0.498-0.174-0.942-0.373-1.322-0.591
		c-0.41-0.235-0.792-0.488-1.136-0.753l-1.867-1.435l-1.238,2.003l-2.358,3.816l-0.968,1.567v-21.33v-2.126h-2.126h-5.081h-2.126
		v0.521c-1.481-0.749-3.227-1.128-5.191-1.128c-1.92,0-3.741,0.365-5.412,1.085c-1.661,0.716-3.135,1.729-4.379,3.012
		c-1.243,1.281-2.228,2.818-2.928,4.568c-0.698,1.744-1.051,3.666-1.051,5.712c0,2.046,0.354,3.968,1.052,5.712
		c0.7,1.751,1.685,3.288,2.928,4.568c1.244,1.282,2.717,2.296,4.379,3.012c1.672,0.72,3.492,1.085,5.411,1.085
		c1.965,0,3.711-0.376,5.191-1.117v0.509h2.126h5.081h2.126v-2.126v-1.832l1.501,1.126c0.979,0.734,2.022,1.336,3.1,1.79
		c1.021,0.43,2.044,0.772,3.04,1.017c0.989,0.243,1.945,0.408,2.841,0.49c0.857,0.079,1.626,0.119,2.285,0.119
		c1.855,0,3.558-0.215,5.062-0.639c1.567-0.442,2.922-1.086,4.027-1.912c1.156-0.863,2.059-1.919,2.684-3.138
		c0.631-1.231,0.951-2.592,0.951-4.045c0-2.636-1.023-4.826-2.959-6.333c-1.714-1.333-4.053-2.225-6.954-2.65l-2.396-0.363
		c-0.487-0.074-0.945-0.159-1.36-0.252c-0.278-0.062-0.471-0.131-0.599-0.188c0.031-0.027,0.073-0.061,0.13-0.098
		c0.232-0.154,0.809-0.411,2.07-0.411c0.597,0,1.191,0.054,1.767,0.159c0.622,0.115,1.216,0.258,1.764,0.427
		c0.541,0.166,1.037,0.351,1.475,0.549c0.445,0.202,0.818,0.391,1.108,0.562l1.884,1.112l1.057-1.915l2.188-3.962l0.356-0.645v2.364
		v2.126h2.126h2.517v8.108c0,3.666,0.95,6.474,2.823,8.346c1.872,1.873,4.451,2.822,7.665,2.822c1.729,0,3.324-0.277,4.74-0.823
		c0.842-0.325,1.665-0.712,2.446-1.15l1.638-0.919l-0.71-1.739l-1.737-4.254l-0.891-2.183l-2.079,1.112
		c-0.423,0.226-0.86,0.424-1.298,0.59c-0.574,0.216-1.136,0.325-1.67,0.325c-0.272,0-0.507-0.037-0.718-0.114
		c-0.142-0.051-0.249-0.122-0.354-0.233c-0.123-0.129-0.235-0.332-0.326-0.592c-0.078-0.221-0.171-0.623-0.171-1.286v-8.011h6.034
		h2.126v-2.126v-4.619v-2.126h-2.126h-6.034v-4.923V411.022L234.707,411.022z M181.767,437.178c-0.79,0-1.486-0.135-2.068-0.402
		c-0.603-0.276-1.093-0.631-1.498-1.086c-0.42-0.471-0.737-1.017-0.97-1.67c-0.241-0.673-0.362-1.406-0.362-2.178
		c0-0.772,0.122-1.504,0.362-2.177c0.233-0.654,0.551-1.2,0.97-1.671c0.405-0.455,0.896-0.81,1.498-1.086
		c0.583-0.267,1.279-0.402,2.068-0.402c0.76,0,1.416,0.127,2.007,0.389c0.597,0.265,1.092,0.615,1.514,1.07
		c0.43,0.464,0.758,1.007,1.003,1.659c0.249,0.664,0.375,1.41,0.375,2.219c0,0.809-0.126,1.556-0.375,2.219
		c-0.245,0.652-0.573,1.195-1.003,1.659c-0.422,0.455-0.917,0.805-1.514,1.07C183.185,437.051,182.528,437.178,181.767,437.178
		L181.767,437.178z M324.659,417.464c-1.921,0-3.741,0.365-5.412,1.085c-1.661,0.716-3.134,1.729-4.379,3.012
		c-1.243,1.281-2.228,2.818-2.928,4.569c-0.698,1.744-1.051,3.666-1.051,5.711c0,2.046,0.354,3.968,1.052,5.712
		c0.699,1.75,1.685,3.287,2.928,4.568c1.244,1.282,2.718,2.296,4.379,3.012c1.671,0.72,3.492,1.085,5.412,1.085
		c1.965,0,3.71-0.376,5.19-1.116v0.509h2.126h5.081h2.126v-2.126v-23.287v-2.126h-2.126h-5.081h-2.126v0.52
		C328.369,417.843,326.624,417.464,324.659,417.464L324.659,417.464z M325.267,437.178c-0.79,0-1.486-0.135-2.068-0.402
		c-0.602-0.276-1.092-0.631-1.498-1.086c-0.419-0.47-0.737-1.017-0.97-1.67c-0.241-0.673-0.362-1.406-0.362-2.178
		c0-0.772,0.122-1.504,0.362-2.178c0.233-0.653,0.551-1.2,0.97-1.67c0.406-0.455,0.896-0.81,1.499-1.086
		c0.583-0.267,1.279-0.402,2.068-0.402c0.76,0,1.417,0.127,2.007,0.389c0.597,0.265,1.093,0.615,1.515,1.07
		c0.43,0.464,0.758,1.007,1.003,1.659c0.248,0.663,0.374,1.409,0.374,2.218c0,0.809-0.126,1.556-0.375,2.22
		c-0.245,0.652-0.573,1.195-1.003,1.659c-0.422,0.455-0.917,0.805-1.514,1.07C326.684,437.051,326.028,437.178,325.267,437.178
		L325.267,437.178z M301.923,417.464c-2.066,0-4.017,0.368-5.798,1.093c-1.783,0.727-3.349,1.746-4.652,3.031
		c-1.304,1.285-2.34,2.82-3.078,4.562c-0.741,1.747-1.117,3.662-1.117,5.691c0,2.03,0.376,3.945,1.118,5.692
		c0.738,1.741,1.773,3.276,3.078,4.561c1.303,1.285,2.869,2.305,4.652,3.031c1.781,0.725,3.732,1.093,5.798,1.093
		c2.066,0,4.016-0.368,5.797-1.093c1.333-0.543,2.553-1.253,3.624-2.11l1.453-1.162l-0.959-1.594l-2.446-4.068l-1.326-2.205
		l-1.915,1.717c-0.507,0.454-1.091,0.801-1.787,1.06c-0.738,0.274-1.56,0.413-2.441,0.413c-0.766,0-1.449-0.127-2.088-0.388
		c-0.629-0.257-1.153-0.603-1.6-1.057c-0.456-0.461-0.807-1.006-1.076-1.666c-0.267-0.655-0.402-1.404-0.402-2.226
		c0-0.821,0.135-1.57,0.402-2.224c0.269-0.661,0.621-1.206,1.075-1.666c0.449-0.455,0.972-0.8,1.602-1.058
		c0.639-0.261,1.322-0.389,2.088-0.389c0,0,0,0,0,0c0.882,0,1.703,0.139,2.441,0.413c0.696,0.258,1.28,0.605,1.787,1.06l1.916,1.717
		l1.326-2.205l2.446-4.068l0.959-1.594l-1.453-1.162c-1.071-0.857-2.291-1.566-3.624-2.109
		C305.939,417.832,303.989,417.464,301.923,417.464L301.923,417.464z M284.563,417.464c-1.679,0-3.237,0.309-4.632,0.918v-0.31
		h-2.126h-4.613h-2.126v2.126v23.287v2.126h2.126h4.661h2.126v-2.126v-12.81c0-0.742,0.098-1.394,0.291-1.939
		c0.179-0.507,0.419-0.927,0.712-1.249c0.271-0.298,0.59-0.519,0.975-0.675c0.429-0.174,0.899-0.258,1.438-0.258
		c0.469,0,0.997,0.059,1.568,0.176c0.27,0.055,0.526,0.124,0.76,0.204l2.071,0.706l0.646-2.09l1.502-4.861l0.624-2.019l-2.015-0.636
		c-0.564-0.178-1.051-0.299-1.532-0.38C286.28,417.527,285.453,417.464,284.563,417.464L284.563,417.464z M256.542,417.464
		c-1.992,0-3.85,0.354-5.522,1.051c-1.687,0.704-3.162,1.714-4.383,3.004c-1.212,1.28-2.164,2.824-2.829,4.591
		c-0.655,1.739-0.987,3.668-0.987,5.732c0,2.103,0.343,4.054,1.018,5.8c0.687,1.774,1.671,3.318,2.923,4.589
		c1.256,1.275,2.768,2.272,4.493,2.961c1.703,0.682,3.588,1.027,5.602,1.027c1.968,0,3.874-0.276,5.663-0.822
		c1.87-0.57,3.65-1.568,5.293-2.968l1.469-1.252l-1.105-1.583l-2.528-3.622l-0.093-0.134h1.898h1.9l0.212-1.889
		c0.037-0.333,0.065-0.684,0.084-1.054c0.018-0.361,0.027-0.72,0.027-1.079c0-2.054-0.317-3.971-0.942-5.695
		c-0.633-1.747-1.533-3.281-2.675-4.558c-1.164-1.301-2.58-2.322-4.209-3.035C260.237,417.822,258.449,417.464,256.542,417.464
		L256.542,417.464z M253.275,427.722c0.13-0.187,0.273-0.358,0.431-0.515c0.303-0.303,0.661-0.533,1.094-0.703
		c0.453-0.177,1.007-0.267,1.644-0.267c1.064,0,1.849,0.285,2.471,0.897c0.176,0.173,0.336,0.369,0.48,0.588H253.275
		L253.275,427.722z M253.315,435.839h8.855c-0.68,0.485-1.423,0.876-2.212,1.164c-0.935,0.342-1.871,0.515-2.783,0.515
		c-0.618,0-1.215-0.085-1.773-0.251c-0.515-0.153-0.962-0.382-1.371-0.699C253.768,436.364,253.531,436.124,253.315,435.839
		L253.315,435.839z M155.835,417.464c-0.815,0-1.667,0.07-2.535,0.209c-0.924,0.148-1.841,0.412-2.726,0.785
		c-0.916,0.387-1.793,0.923-2.608,1.594c-0.129,0.106-0.256,0.217-0.379,0.332c-0.64-0.597-1.358-1.115-2.149-1.55
		c-1.653-0.909-3.545-1.369-5.624-1.369c-0.696,0-1.421,0.063-2.156,0.188c-0.78,0.133-1.56,0.363-2.32,0.685
		c-0.106,0.045-0.21,0.092-0.315,0.141v-0.406h-2.126h-4.893h-2.126v2.126v23.287v2.126h2.126h4.94h2.126v-2.126v-12.908
		c0-0.708,0.105-1.325,0.313-1.835c0.206-0.505,0.462-0.905,0.784-1.222c0.315-0.311,0.677-0.541,1.106-0.704
		c0.467-0.177,0.96-0.263,1.505-0.263c1.368,0,1.949,0.486,2.267,0.851c0.566,0.65,0.853,1.701,0.853,3.125v12.956v2.126h2.126
		h4.941h2.126v-2.126v-12.908c0-0.708,0.105-1.325,0.313-1.835c0.206-0.505,0.462-0.905,0.784-1.222
		c0.315-0.311,0.677-0.541,1.106-0.704c0.467-0.177,0.96-0.263,1.505-0.263c1.368,0,1.949,0.486,2.267,0.851
		c0.566,0.65,0.853,1.701,0.853,3.125v12.956v2.126h2.126h4.94h2.126v-2.126v-14.634c0-1.623-0.275-3.145-0.818-4.523
		c-0.552-1.4-1.348-2.628-2.365-3.65c-1.016-1.019-2.232-1.819-3.614-2.379C158.942,417.745,157.435,417.464,155.835,417.464
		L155.835,417.464z M394.699,437.947c-0.626,0-1.228,0.118-1.787,0.352c-0.547,0.229-1.034,0.549-1.446,0.951
		c-0.417,0.407-0.748,0.887-0.982,1.426c-0.242,0.556-0.365,1.152-0.365,1.771c0,0.615,0.122,1.208,0.363,1.764
		c0.234,0.54,0.563,1.021,0.978,1.43c0.413,0.407,0.902,0.73,1.452,0.959c0.559,0.233,1.16,0.352,1.787,0.352
		c0.623,0,1.222-0.12,1.78-0.356c0.542-0.229,1.026-0.551,1.438-0.956c0.005-0.005,0.011-0.011,0.016-0.016h2.471l-1.417-1.634
		c0.183-0.492,0.276-1.01,0.276-1.544c0-0.624-0.125-1.223-0.371-1.781c-0.237-0.536-0.567-1.012-0.981-1.416
		c-0.41-0.4-0.892-0.719-1.432-0.947C395.92,438.067,395.322,437.947,394.699,437.947L394.699,437.947z"/>
</g>
<g>
	<g>
		<path style="fill:#1D1D1B;" d="M162.422,422.179c-0.816-0.818-1.784-1.454-2.905-1.908c-1.122-0.453-2.349-0.681-3.682-0.681
			c-0.706,0-1.439,0.061-2.2,0.182c-0.761,0.122-1.506,0.337-2.235,0.644c-0.729,0.308-1.423,0.733-2.082,1.276
			c-0.659,0.543-1.232,1.228-1.717,2.054c-0.785-1.296-1.847-2.313-3.188-3.051c-1.341-0.737-2.874-1.106-4.599-1.106
			c-0.58,0-1.18,0.053-1.8,0.158c-0.62,0.106-1.235,0.288-1.847,0.547c-0.612,0.259-1.196,0.612-1.753,1.057
			c-0.557,0.446-1.063,1.009-1.517,1.69v-2.844h-4.893v23.287h4.94v-12.908c0-0.988,0.157-1.868,0.471-2.637
			c0.314-0.77,0.733-1.414,1.259-1.933c0.525-0.518,1.141-0.911,1.847-1.179c0.706-0.267,1.459-0.401,2.259-0.401
			c1.662,0,2.952,0.527,3.87,1.58c0.917,1.054,1.376,2.561,1.376,4.521v12.956h4.941v-12.908c0-0.988,0.157-1.868,0.471-2.637
			c0.314-0.77,0.733-1.414,1.259-1.933c0.525-0.518,1.141-0.911,1.847-1.179c0.706-0.267,1.459-0.401,2.259-0.401
			c1.662,0,2.952,0.527,3.87,1.58c0.917,1.054,1.376,2.561,1.376,4.521v12.956h4.941v-14.634c0-1.361-0.223-2.609-0.67-3.744
			C163.869,423.974,163.237,422.997,162.422,422.179z"/>
		<path style="fill:#1D1D1B;" d="M188.476,423.017c-0.811-1.037-1.815-1.868-3.014-2.492c-1.199-0.624-2.634-0.936-4.303-0.936
			c-1.637,0-3.16,0.304-4.57,0.912c-1.41,0.608-2.642,1.455-3.695,2.54c-1.053,1.086-1.88,2.378-2.479,3.877
			c-0.6,1.499-0.899,3.14-0.899,4.922c0,1.783,0.3,3.424,0.899,4.922c0.599,1.499,1.426,2.792,2.479,3.877
			c1.053,1.086,2.285,1.933,3.695,2.54c1.41,0.607,2.933,0.911,4.57,0.911c1.669,0,3.103-0.308,4.303-0.924
			c1.199-0.616,2.204-1.442,3.014-2.479v2.795h5.081v-23.287h-5.081V423.017z M188.282,434.807c-0.34,0.908-0.819,1.694-1.434,2.358
			c-0.616,0.665-1.353,1.187-2.212,1.568c-0.859,0.381-1.815,0.571-2.868,0.571c-1.102,0-2.087-0.198-2.954-0.595
			c-0.867-0.397-1.601-0.932-2.2-1.604c-0.6-0.672-1.061-1.462-1.385-2.37c-0.324-0.907-0.486-1.872-0.486-2.893
			c0-1.021,0.162-1.985,0.486-2.893c0.324-0.907,0.786-1.697,1.385-2.37c0.599-0.672,1.333-1.207,2.2-1.604
			c0.867-0.397,1.851-0.596,2.954-0.596c1.053,0,2.009,0.191,2.868,0.571c0.859,0.381,1.596,0.904,2.212,1.568
			c0.616,0.665,1.094,1.451,1.434,2.358c0.34,0.908,0.51,1.896,0.51,2.965S188.622,433.9,188.282,434.807z"/>
		<path style="fill:#1D1D1B;" d="M216.91,431.805c-1.426-1.11-3.412-1.851-5.956-2.224l-2.406-0.365
			c-0.535-0.081-1.038-0.174-1.507-0.28c-0.47-0.105-0.875-0.247-1.215-0.425c-0.34-0.178-0.612-0.405-0.814-0.681
			c-0.203-0.275-0.304-0.616-0.304-1.021c0-0.826,0.385-1.495,1.155-2.005c0.769-0.51,1.851-0.766,3.245-0.766
			c0.729,0,1.446,0.065,2.151,0.194c0.705,0.13,1.373,0.292,2.005,0.486c0.632,0.194,1.207,0.409,1.726,0.644
			c0.518,0.235,0.956,0.458,1.313,0.668l2.188-3.962c-1.216-0.778-2.633-1.381-4.254-1.811c-1.62-0.429-3.346-0.644-5.177-0.644
			c-1.491,0-2.828,0.174-4.011,0.523c-1.183,0.349-2.192,0.843-3.026,1.483c-0.835,0.64-1.475,1.422-1.92,2.346
			c-0.446,0.924-0.668,1.961-0.668,3.112c0,1.88,0.668,3.399,2.005,4.558c1.337,1.159,3.302,1.916,5.895,2.273l2.431,0.316
			c1.394,0.194,2.415,0.507,3.063,0.936c0.648,0.43,0.972,0.977,0.972,1.641c0,0.875-0.446,1.568-1.337,2.078
			c-0.891,0.51-2.212,0.766-3.962,0.766c-0.956,0-1.811-0.065-2.565-0.194c-0.753-0.13-1.442-0.304-2.066-0.523
			c-0.624-0.219-1.183-0.47-1.677-0.754c-0.494-0.284-0.952-0.587-1.374-0.911l-2.358,3.816c0.843,0.632,1.726,1.143,2.65,1.532
			c0.924,0.389,1.831,0.693,2.723,0.911c0.891,0.219,1.734,0.365,2.528,0.438c0.794,0.073,1.491,0.11,2.091,0.11
			c1.669,0,3.164-0.187,4.485-0.559c1.321-0.373,2.431-0.896,3.33-1.568c0.9-0.672,1.588-1.474,2.066-2.406
			c0.478-0.932,0.717-1.957,0.717-3.075C219.049,434.467,218.336,432.915,216.91,431.805z"/>
		<path style="fill:#1D1D1B;" d="M264.478,422.981c-0.964-1.078-2.123-1.912-3.476-2.504c-1.353-0.591-2.84-0.887-4.46-0.887
			c-1.718,0-3.286,0.296-4.703,0.887c-1.419,0.592-2.637,1.426-3.659,2.504c-1.021,1.078-1.815,2.37-2.382,3.877
			c-0.567,1.507-0.85,3.168-0.85,4.983c0,1.848,0.291,3.525,0.875,5.032c0.584,1.507,1.401,2.795,2.455,3.864
			c1.053,1.07,2.309,1.897,3.768,2.479c1.459,0.584,3.063,0.875,4.813,0.875c1.766,0,3.448-0.243,5.044-0.729
			c1.596-0.486,3.107-1.337,4.533-2.552l-2.528-3.622c-0.972,0.778-2.046,1.382-3.221,1.811c-1.175,0.43-2.346,0.644-3.512,0.644
			c-0.827,0-1.621-0.113-2.382-0.341c-0.762-0.227-1.451-0.579-2.066-1.057c-0.616-0.478-1.142-1.09-1.58-1.835
			c-0.437-0.745-0.738-1.645-0.899-2.698h17.21c0.033-0.291,0.057-0.599,0.073-0.923c0.016-0.324,0.024-0.648,0.024-0.972
			c0-1.815-0.271-3.472-0.814-4.971C266.196,425.347,265.442,424.059,264.478,422.981z M250.27,429.848
			c0.13-0.842,0.356-1.616,0.681-2.321c0.324-0.705,0.741-1.313,1.252-1.823c0.511-0.511,1.118-0.903,1.823-1.179
			c0.705-0.275,1.511-0.413,2.419-0.413c1.62,0,2.941,0.503,3.962,1.507c1.021,1.005,1.669,2.415,1.945,4.23H250.27z"/>
		<path style="fill:#1D1D1B;" d="M331.976,423.017c-0.81-1.037-1.815-1.868-3.014-2.492c-1.199-0.624-2.634-0.936-4.302-0.936
			c-1.637,0-3.161,0.304-4.57,0.912c-1.41,0.608-2.642,1.455-3.695,2.54c-1.053,1.086-1.88,2.378-2.479,3.877
			c-0.6,1.499-0.9,3.14-0.9,4.922c0,1.783,0.3,3.424,0.9,4.922c0.599,1.499,1.426,2.792,2.479,3.877
			c1.053,1.086,2.285,1.933,3.695,2.54c1.41,0.607,2.933,0.911,4.57,0.911c1.669,0,3.103-0.308,4.302-0.924s2.204-1.442,3.014-2.479
			v2.795h5.081v-23.287h-5.081V423.017z M331.782,434.807c-0.341,0.908-0.819,1.694-1.435,2.358
			c-0.616,0.665-1.353,1.187-2.212,1.568c-0.859,0.381-1.815,0.571-2.868,0.571c-1.102,0-2.087-0.198-2.953-0.595
			c-0.867-0.397-1.6-0.932-2.2-1.604c-0.6-0.672-1.061-1.462-1.385-2.37c-0.324-0.907-0.486-1.872-0.486-2.893
			c0-1.021,0.162-1.985,0.486-2.893c0.324-0.907,0.786-1.697,1.385-2.37c0.6-0.672,1.333-1.207,2.2-1.604
			c0.867-0.397,1.852-0.596,2.953-0.596c1.053,0,2.01,0.191,2.868,0.571c0.859,0.381,1.596,0.904,2.212,1.568
			c0.616,0.665,1.094,1.451,1.435,2.358c0.34,0.908,0.51,1.896,0.51,2.965S332.122,433.9,331.782,434.807z"/>
		<path style="fill:#1D1D1B;" d="M238.695,438.842c-0.819,0.308-1.625,0.462-2.419,0.462c-0.519,0-1.001-0.081-1.446-0.243
			c-0.446-0.161-0.835-0.417-1.166-0.765c-0.332-0.348-0.596-0.798-0.79-1.349c-0.194-0.551-0.292-1.216-0.292-1.993v-10.137h8.16
			v-4.619h-8.16v-7.049h-5.105v7.049h-4.643v4.619h4.643v10.234c0,3.095,0.733,5.376,2.2,6.843c1.466,1.467,3.52,2.2,6.162,2.2
			c1.475,0,2.799-0.227,3.975-0.681c0.777-0.3,1.497-0.643,2.171-1.021l-1.737-4.254C239.755,438.4,239.24,438.637,238.695,438.842z
			"/>
		<path style="fill:#1D1D1B;" d="M284.563,419.59c-1.426,0-2.714,0.259-3.865,0.778c-1.151,0.519-2.114,1.767-2.892,2.885v-3.056
			h-4.613v23.287h4.661v-12.81c0-0.988,0.138-1.872,0.413-2.65c0.275-0.778,0.656-1.434,1.142-1.969
			c0.486-0.535,1.069-0.94,1.75-1.215c0.681-0.275,1.426-0.413,2.236-0.413c0.616,0,1.28,0.073,1.993,0.219
			c0.364,0.074,0.704,0.166,1.021,0.274l1.502-4.861c-0.407-0.129-0.821-0.24-1.246-0.312
			C286.041,419.643,285.34,419.59,284.563,419.59z"/>
		<path style="fill:#1D1D1B;" d="M355.186,419.59c-1.426,0-2.714,0.259-3.865,0.778c-1.151,0.519-2.114,1.767-2.892,2.885v-3.056
			h-4.613v23.287h4.661v-12.81c0-0.988,0.138-1.872,0.413-2.65c0.275-0.778,0.656-1.434,1.142-1.969
			c0.486-0.535,1.069-0.94,1.75-1.215c0.681-0.275,1.426-0.413,2.236-0.413c0.616,0,1.28,0.073,1.993,0.219
			c0.364,0.074,0.703,0.166,1.021,0.274l1.502-4.861c-0.407-0.129-0.821-0.24-1.246-0.312
			C356.665,419.643,355.964,419.59,355.186,419.59z"/>
		<path style="fill:#1D1D1B;" d="M378.916,410.732v12.285c-0.81-1.037-1.815-1.868-3.014-2.492c-1.2-0.624-2.634-0.936-4.303-0.936
			c-1.637,0-3.16,0.304-4.57,0.912c-1.41,0.608-2.642,1.455-3.695,2.54c-1.053,1.086-1.88,2.378-2.479,3.877
			c-0.6,1.499-0.9,3.14-0.9,4.922c0,1.783,0.3,3.424,0.9,4.922c0.599,1.499,1.426,2.792,2.479,3.877
			c1.053,1.086,2.285,1.933,3.695,2.54c1.41,0.607,2.933,0.911,4.57,0.911c1.669,0,3.103-0.308,4.303-0.924
			c1.199-0.616,2.204-1.442,3.014-2.479v2.795h5.08v-32.753H378.916z M378.721,434.807c-0.34,0.908-0.819,1.694-1.435,2.358
			c-0.616,0.665-1.353,1.187-2.212,1.568c-0.859,0.381-1.815,0.571-2.868,0.571c-1.102,0-2.087-0.198-2.953-0.595
			c-0.867-0.397-1.601-0.932-2.2-1.604c-0.599-0.672-1.061-1.462-1.385-2.37c-0.325-0.907-0.486-1.872-0.486-2.893
			c0-1.021,0.162-1.985,0.486-2.893c0.324-0.907,0.786-1.697,1.385-2.37c0.6-0.672,1.333-1.207,2.2-1.604
			c0.867-0.397,1.851-0.596,2.953-0.596c1.053,0,2.009,0.191,2.868,0.571c0.859,0.381,1.596,0.904,2.212,1.568
			c0.616,0.665,1.094,1.451,1.435,2.358c0.34,0.908,0.51,1.896,0.51,2.965S379.062,433.9,378.721,434.807z"/>
		<path style="fill:#1D1D1B;" d="M296.721,426.457c0.647-0.656,1.418-1.167,2.309-1.532c0.891-0.364,1.856-0.547,2.893-0.547v0
			c1.141,0,2.202,0.182,3.182,0.547c0.948,0.352,1.768,0.844,2.465,1.469l2.446-4.068c-0.917-0.733-1.949-1.333-3.099-1.801
			c-1.532-0.624-3.197-0.936-4.995-0.936c-1.799,0-3.464,0.312-4.996,0.936c-1.532,0.624-2.852,1.483-3.962,2.577
			c-1.11,1.094-1.981,2.386-2.613,3.877c-0.633,1.491-0.949,3.111-0.949,4.861c0,1.751,0.316,3.371,0.949,4.862
			c0.632,1.491,1.503,2.783,2.613,3.877c1.11,1.094,2.43,1.953,3.962,2.577c1.532,0.624,3.197,0.936,4.996,0.936
			c1.798,0,3.463-0.312,4.995-0.936c1.149-0.468,2.182-1.068,3.099-1.801l-2.446-4.068c-0.697,0.625-1.517,1.117-2.465,1.469
			c-0.981,0.364-2.041,0.547-3.182,0.547l0,0c-1.037,0-2.001-0.182-2.893-0.547c-0.891-0.364-1.662-0.875-2.309-1.532
			c-0.648-0.656-1.159-1.442-1.532-2.357c-0.373-0.916-0.559-1.924-0.559-3.027c0-1.102,0.186-2.11,0.559-3.026
			C295.562,427.9,296.073,427.113,296.721,426.457z"/>
	</g>
	<g>
		<path style="fill:#1D1D1B;" d="M394.699,440.073c0.338,0,0.656,0.063,0.952,0.188c0.296,0.125,0.554,0.295,0.775,0.51
			c0.22,0.215,0.394,0.466,0.521,0.753c0.127,0.287,0.19,0.595,0.19,0.923c0,0.324-0.063,0.631-0.19,0.92
			c-0.127,0.289-0.301,0.542-0.521,0.759c-0.22,0.217-0.479,0.388-0.775,0.513c-0.296,0.125-0.613,0.188-0.952,0.188
			c-0.346,0-0.668-0.063-0.968-0.188c-0.3-0.125-0.56-0.296-0.78-0.513c-0.22-0.217-0.393-0.47-0.518-0.759
			c-0.125-0.289-0.188-0.596-0.188-0.92c0-0.328,0.063-0.635,0.188-0.923c0.125-0.287,0.298-0.538,0.518-0.753
			c0.22-0.215,0.48-0.385,0.78-0.51C394.031,440.136,394.354,440.073,394.699,440.073z M394.699,444.166
			c0.236,0,0.458-0.045,0.666-0.135s0.389-0.212,0.542-0.367c0.153-0.155,0.274-0.337,0.362-0.545
			c0.088-0.208,0.132-0.432,0.132-0.672c0-0.236-0.044-0.459-0.132-0.669c-0.088-0.21-0.209-0.391-0.362-0.545
			c-0.153-0.153-0.334-0.275-0.542-0.365c-0.208-0.09-0.43-0.135-0.666-0.135c-0.243,0-0.47,0.045-0.679,0.135
			c-0.21,0.09-0.392,0.212-0.547,0.365c-0.155,0.153-0.277,0.335-0.365,0.545c-0.088,0.21-0.132,0.433-0.132,0.669
			c0,0.24,0.044,0.464,0.132,0.672c0.088,0.208,0.21,0.39,0.365,0.545c0.155,0.155,0.338,0.278,0.547,0.367
			C394.23,444.121,394.456,444.166,394.699,444.166z M394.837,441.395c0.289,0,0.508,0.064,0.658,0.193
			c0.15,0.129,0.225,0.301,0.225,0.516c0,0.169-0.054,0.309-0.161,0.42c-0.108,0.111-0.264,0.184-0.468,0.219l0.656,0.756h-0.709
			l-0.587-0.735h-0.069v0.735h-0.592v-2.104H394.837z M394.382,441.908v0.386h0.444c0.092,0,0.162-0.014,0.212-0.042
			c0.049-0.028,0.074-0.077,0.074-0.148c0-0.067-0.025-0.116-0.074-0.148c-0.049-0.032-0.12-0.048-0.212-0.048H394.382z"/>
	</g>
	<g>
		<path style="fill:#E20D17;" d="M222.515,311.343c0-27.899,13.033-52.738,33.326-68.814c-14.963-11.853-33.866-18.95-54.438-18.95
			c-48.471,0-87.764,39.293-87.764,87.764s39.293,87.764,87.764,87.764c20.572,0,39.475-7.097,54.438-18.95
			C235.548,364.081,222.515,339.241,222.515,311.343z"/>
		<path style="fill:#EA610A;" d="M222.515,311.343c0,27.899,13.033,52.738,33.326,68.814c20.293-16.075,33.326-40.915,33.326-68.814
			c0-27.899-13.033-52.738-33.326-68.814C235.548,258.604,222.515,283.444,222.515,311.343z"/>
		<path style="fill:#F59E00;" d="M392.092,358.814v-2.569h-1.039v-0.706h2.845v0.706h-1.039v2.569H392.092z M397.594,358.814v-2.272
			l-0.737,1.96h-0.814l-0.737-1.955v2.267h-0.768v-3.275h1.1l0.814,2.098l0.809-2.098h1.1v3.275H397.594z"/>
		<path style="fill:#F59E00;" d="M310.279,223.578c-20.572,0-39.475,7.097-54.438,18.95c20.293,16.075,33.326,40.915,33.326,68.814
			c0,27.899-13.033,52.738-33.326,68.814c14.963,11.853,33.866,18.95,54.438,18.95c48.471,0,87.764-39.293,87.764-87.764
			S358.75,223.578,310.279,223.578z"/>
	</g>
</g>
</svg>
