<?xml version="1.0" encoding="iso-8859-1"?>
<!-- Generator: Adobe Illustrator 18.0.0, SVG Export Plug-In . SVG Version: 6.00 Build 0)  -->
<!DOCTYPE svg PUBLIC "-//W3C//DTD SVG 1.1//EN" "http://www.w3.org/Graphics/SVG/1.1/DTD/svg11.dtd">
<svg version="1.1" id="&#x421;&#x43B;&#x43E;&#x439;_1"
	 xmlns="http://www.w3.org/2000/svg" xmlns:xlink="http://www.w3.org/1999/xlink" x="0px" y="0px" viewBox="0 0 512 512"
	 style="enable-background:new 0 0 512 512;" xml:space="preserve">
<path style="fill:#9C9B9B;" d="M464.399,512H47.601C21.42,512,0,490.58,0,464.399V47.601C0,21.42,21.42,0,47.601,0h416.798
	C490.58,0,512,21.42,512,47.601v416.798C512,490.58,490.58,512,464.399,512z"/>
<linearGradient id="SVGID_1_" gradientUnits="userSpaceOnUse" x1="256" y1="509.8333" x2="256" y2="2.1667">
	<stop  offset="0" style="stop-color:#F5F5F5"/>
	<stop  offset="1" style="stop-color:#D9D9D9"/>
</linearGradient>
<path style="fill:url(#SVGID_1_);" d="M462.232,509.833H49.768c-26.18,0-47.601-21.42-47.601-47.601V49.768
	c0-26.18,21.42-47.601,47.601-47.601h412.465c26.18,0,47.601,21.42,47.601,47.601v412.465
	C509.833,488.413,488.413,509.833,462.232,509.833z"/>
<g>
	<g>
		<linearGradient id="SVGID_2_" gradientUnits="userSpaceOnUse" x1="256" y1="90.1274" x2="256" y2="421.873">
			<stop  offset="0" style="stop-color:#39A935"/>
			<stop  offset="1" style="stop-color:#006633"/>
		</linearGradient>
		<path style="fill-rule:evenodd;clip-rule:evenodd;fill:url(#SVGID_2_);" d="M177.247,421.873c-9.391,0-17.884-5.774-22.447-8.877
			c-0.941-0.628-8.455-2.658-19.408-4.969l-29.22,4.14V232.266h63.924c16.96-25.72,46.437-73.391,48.201-78.461
			c1.38-4.142,0.395-16.654-0.475-27.693c-0.558-7.077-1.084-13.762-0.994-18.028c0-8.211,15.731-17.956,29.021-17.956
			c8.224,0,14.49,3.722,17.644,10.481c5.157,11.172,19.431,45.916,17.474,58.641c-0.71,4.613-1.05,11.876-1.444,20.287
			c-0.617,13.176-1.381,29.476-3.955,43.097h102.553c15.532,0,26.368,9.604,27.607,24.469c0.981,12.012-5.227,24.663-15.542,31.921
			c5.633,5.291,8.241,12.399,7.555,20.646c-0.672,9.848-6.508,19.487-15.333,25.448c5.412,5.46,8.013,12.559,7.344,20.136
			c-0.674,10.113-6.626,20.041-15.629,26.179c4.192,4.75,6.232,11.405,5.764,18.902c-1.471,15.689-15.137,31.539-38.416,31.539
			H177.247z M151.69,392.055c9.326,2.284,11.684,3.667,13.262,4.592l0.37,0.216c3.667,2.442,8.605,5.733,11.924,5.733h164.222
			c12.521,0,18.701-7.158,19.145-13.809c0.155-1.561,0.047-3.669-1.336-5.051l-14.989-15.988l18.452-11.969
			c4.351-2.612,7.521-7.476,7.739-11.848c0.219-3.279-1.148-4.646-1.805-5.305l-17.918-15.924l20.21-12.975
			c4.342-2.971,7.317-7.446,7.739-11.662c0.198-2.977-0.9-4.344-2.044-5.486l-18.4-15.911l20.455-13.221
			c5.601-3.585,8.168-10.274,7.741-14.748c-0.211-3.178-1.348-6.791-8.339-6.791H252.311l4.242-21.707
			c2.5-12.273,3.242-27.936,3.74-41.653c0.488-9.287,0.956-16.603,1.652-22.178c0.433-5.423-6.973-27.704-15.608-46.968h-0.487
			c-3.165,0-7.078,1.69-9.703,3.264l0.107,1.564c0.195,2.9,0.417,6.186,0.785,9.499c1.46,19.699,1.851,29.057-0.518,36.164
			c-3.52,10.091-49.702,82.996-60.151,97.359L151.69,392.055z"/>
		<path style="fill:#FFFFFF;" d="M245.849,91.19c7.048,0,13.391,2.819,16.681,9.867c5.639,12.217,19.265,45.813,17.385,58.03
			c-1.88,12.217-1.175,42.289-5.639,64.608h103.843c15.036,0,25.373,9.398,26.548,23.494c0.94,11.512-4.934,24.434-16.211,31.717
			c6.108,5.169,8.928,12.217,8.223,20.675c-0.705,10.337-7.283,19.97-15.976,25.373c5.638,5.169,8.693,12.217,7.988,20.205
			c-0.705,10.572-7.283,20.44-16.211,26.078c4.699,4.699,6.813,11.512,6.343,19.03c-1.41,15.036-14.566,30.542-37.355,30.542
			H177.247c-8.458,0-15.976-4.699-21.849-8.693c-1.41-0.94-11.042-3.289-19.97-5.169l-28.193,3.994V233.328h9.163h54.271
			c16.446-24.904,46.753-73.771,48.632-79.174c2.349-7.048-1.645-35.006-1.41-46.048C217.891,100.823,232.927,91.19,245.849,91.19
			 M177.247,403.659h164.222c13.157,0,19.735-7.753,20.205-14.801c0.235-2.349-0.235-4.464-1.645-5.873l-14.096-15.036
			l17.385-11.277c4.699-2.819,7.988-7.988,8.223-12.687c0.235-3.524-1.175-5.169-2.114-6.108l-16.916-15.036l19.03-12.217
			c4.464-3.054,7.753-7.753,8.223-12.452c0.235-3.524-1.175-5.169-2.349-6.343l-17.385-15.036l19.265-12.452
			c5.873-3.759,8.693-10.807,8.223-15.741c-0.235-3.524-1.645-7.753-9.398-7.753H253.602l3.994-20.44
			c2.584-12.687,3.289-28.897,3.759-41.819c0.47-8.928,0.94-16.446,1.645-22.084c0.47-5.873-7.283-28.897-15.976-48.162h-1.175
			c-3.759,0-8.223,2.114-10.807,3.759c0.235,3.289,0.47,7.518,0.94,11.747c1.41,19.03,1.88,28.663-0.47,35.711
			c-3.524,10.102-50.512,84.108-60.144,97.265l-24.904,136.029c10.807,2.584,12.687,3.994,14.331,4.934
			C169.024,400.605,173.723,403.659,177.247,403.659 M245.849,89.064c-13.777,0-30.084,10.322-30.084,19.042
			c-0.091,4.273,0.437,10.984,0.997,18.089c0.819,10.397,1.839,23.337,0.522,27.287c-1.725,4.959-30.782,51.937-47.76,77.721
			h-53.126h-9.163h-2.126v2.126v177.614v2.448l2.424-0.343l27.822-3.941c10.41,2.201,17.741,4.154,18.878,4.79
			c6.912,4.698,14.484,9.04,23.014,9.04h164.222c23.915,0,37.959-16.334,39.472-32.47l0.003-0.033l0.002-0.033
			c0.457-7.319-1.402-13.881-5.269-18.764c8.731-6.358,14.463-16.244,15.136-26.335c0.657-7.441-1.74-14.468-6.786-20.021
			c8.517-6.181,14.106-15.758,14.774-25.554c0.675-8.102-1.73-15.17-6.978-20.583c9.997-7.57,15.941-20.154,14.964-32.126
			c-0.625-7.505-3.661-13.882-8.78-18.447c-5.136-4.579-12.012-7-19.887-7H276.842c2.403-13.429,3.141-29.179,3.741-41.986
			c0.393-8.379,0.732-15.616,1.433-20.173c2.007-13.047-11.993-47.189-17.556-59.244C261.117,93.005,254.509,89.064,245.849,89.064
			L245.849,89.064z M237.253,113.252c2.411-1.365,5.693-2.718,8.395-2.783c9.041,20.291,15.567,41.08,15.235,45.823
			c-0.696,5.587-1.163,12.911-1.652,22.183c-0.499,13.711-1.237,29.323-3.719,41.506l-3.997,20.456l-0.495,2.534h2.582h124.517
			c6.057,0,7.077,2.772,7.276,5.768l0.002,0.03l0.003,0.03c0.396,4.161-2.011,10.394-7.252,13.749l-19.273,12.457l-2.381,1.539
			l2.144,1.855l17.326,14.984c1.02,1.028,1.839,2.106,1.681,4.61c-0.403,3.894-3.189,8.049-7.279,10.857l-19.003,12.2l-2.36,1.515
			l2.096,1.863l16.867,14.993c0.801,0.809,1.623,1.899,1.454,4.421c-0.204,4.074-3.162,8.585-7.195,11.005l-0.032,0.019l-0.031,0.02
			l-17.385,11.277l-2.133,1.383l1.739,1.854l14.096,15.036l0.023,0.025l0.024,0.024c1.088,1.088,1.162,2.862,1.032,4.159
			l-0.004,0.035l-0.002,0.035c-0.411,6.173-6.246,12.817-18.083,12.817H177.247c-2.998,0-7.78-3.188-11.272-5.516l-0.061-0.041
			l-0.064-0.036l-0.359-0.209c-1.573-0.923-3.898-2.287-12.574-4.467l24.456-133.583c9.487-13.157,56.425-86.751,60.147-97.423
			c2.439-7.317,2.05-16.76,0.583-36.568l-0.003-0.039l-0.004-0.039c-0.365-3.285-0.585-6.556-0.78-9.442
			C237.294,113.859,237.273,113.552,237.253,113.252L237.253,113.252z"/>
	</g>
</g>
</svg>
