<?xml version="1.0" encoding="windows-1252"?>
<!-- Generator: Adobe Illustrator 18.0.0, SVG Export Plug-In . SVG Version: 6.00 Build 0)  -->
<!DOCTYPE svg PUBLIC "-//W3C//DTD SVG 1.1//EN" "http://www.w3.org/Graphics/SVG/1.1/DTD/svg11.dtd">
<svg version="1.1" id="&#1057;&#1083;&#1086;&#1081;_1" xmlns="http://www.w3.org/2000/svg" xmlns:xlink="http://www.w3.org/1999/xlink" x="0px" y="0px" viewBox="0 0 77 77" style="enable-background:new 0 0 77 77;" xml:space="preserve">
<rect style="fill-rule:evenodd;clip-rule:evenodd;fill:#DEDFDF;" width="77" height="77"/>
<path style="fill-rule:evenodd;clip-rule:evenodd;fill:#0C1111;" d="M24.988,62.249c0.127,0,0.191-0.064,0.191-0.191V50.994  c0-0.064-0.064-0.127-0.191-0.127h-2.289c-0.127,0-0.191,0-0.191,0.127c-0.127,0.382-0.254,0.827-0.445,1.208l-1.653,3.879  c-0.191,0.572-0.445,1.335-0.572,1.908c-0.064,0.191-0.191,0.191-0.254,0c-0.127-0.572-0.382-1.272-0.636-1.908l-1.59-3.879  c-0.191-0.318-0.318-0.827-0.445-1.208c0-0.127-0.064-0.127-0.191-0.127h-2.289c-0.127,0-0.191,0.064-0.191,0.127v11.064  c0,0.127,0.064,0.191,0.191,0.191h1.462c0.127,0,0.191-0.064,0.191-0.191V56.78c0-0.954,0-2.225-0.127-3.116  c-0.064-0.254,0.127-0.254,0.191-0.064c0.191,0.445,0.382,0.827,0.572,1.272l1.526,3.688c0.191,0.445,0.382,1.081,0.572,1.59  c0.064,0.127,0.127,0.127,0.191,0.127h1.335c0.127,0,0.191,0,0.254-0.127c0.191-0.509,0.382-1.145,0.572-1.59l1.526-3.688  c0.191-0.445,0.382-0.827,0.572-1.272c0.064-0.191,0.254-0.191,0.191,0.064c-0.127,0.89-0.127,2.162-0.127,3.116v5.277  c0,0.127,0.064,0.191,0.191,0.191H24.988z"/>
<path style="fill-rule:evenodd;clip-rule:evenodd;fill:#0C1111;" d="M29.503,55.572v-3.116h5.405c0.127,0,0.191,0,0.191-0.127  l0.382-1.272c0-0.127-0.064-0.191-0.191-0.191H27.85c-0.127,0-0.191,0.064-0.191,0.127v11.064c0,0.127,0.064,0.191,0.191,0.191  h7.439c0.127,0,0.191-0.064,0.191-0.191v-1.272c0-0.127-0.064-0.191-0.191-0.191h-5.786v-3.434h4.514  c0.127,0,0.191-0.064,0.191-0.127v-1.272c0-0.127-0.064-0.191-0.191-0.191H29.503z"/>
<path style="fill-rule:evenodd;clip-rule:evenodd;fill:#0C1111;" d="M46.289,62.249c0.127,0,0.191-0.064,0.191-0.191V50.994  c0-0.064-0.064-0.127-0.191-0.127h-1.526c-0.127,0-0.191,0.064-0.191,0.127v4.578h-5.214v-4.578c0-0.064-0.064-0.127-0.191-0.127  h-1.462c-0.127,0-0.191,0.064-0.191,0.127v11.064c0,0.127,0.064,0.191,0.191,0.191h1.462c0.127,0,0.191-0.064,0.191-0.191v-4.896  h5.214v4.896c0,0.127,0.064,0.191,0.191,0.191H46.289z"/>
<path style="fill-rule:evenodd;clip-rule:evenodd;fill:#0C1111;" d="M57.798,50.676c-2.798,0-4.642,1.844-4.896,4.896h-2.098v-4.578  c0-0.064-0.064-0.127-0.191-0.127H49.15c-0.127,0-0.191,0.064-0.191,0.127v11.064c0,0.127,0.064,0.191,0.191,0.191h1.462  c0.127,0,0.191-0.064,0.191-0.191v-4.896h2.035c0.254,3.243,2.035,5.214,4.959,5.214c3.052,0,4.896-2.225,4.896-5.85  C62.694,52.902,60.85,50.676,57.798,50.676z M57.798,60.722c-1.971,0-3.116-1.59-3.116-4.196c0-2.607,1.145-4.196,3.116-4.196  c1.908,0,3.052,1.59,3.052,4.196C60.85,59.133,59.705,60.722,57.798,60.722z"/>
<rect x="14.243" y="15.642" style="fill-rule:evenodd;clip-rule:evenodd;fill:#0C1111;" width="48.451" height="5.405"/>
<rect x="14.243" y="37.324" style="fill-rule:evenodd;clip-rule:evenodd;fill:#0C1111;" width="48.451" height="5.405"/>
<rect x="14.243" y="26.451" style="fill-rule:evenodd;clip-rule:evenodd;fill:#0C1111;" width="48.451" height="5.468"/>
</svg>