<svg width="60" height="65" viewBox="0 0 60 65" fill="none" xmlns="http://www.w3.org/2000/svg">
<g clip-path="url(#clip0_4204_13585)">
<path d="M27.04 33.2599H1L8.92 19.1299H34.96L27.04 33.2599Z" stroke="white" stroke-width="2" stroke-miterlimit="10" stroke-linecap="round" stroke-linejoin="round"/>
<path d="M34.87 63.13H2.87C1.84 63.13 1 62.29 1 61.26V33.03" stroke="white" stroke-width="2" stroke-miterlimit="10" stroke-linecap="round" stroke-linejoin="round"/>
<path d="M34.96 19.1299L41.68 30.7499" stroke="white" stroke-width="2" stroke-miterlimit="10" stroke-linecap="round" stroke-linejoin="round"/>
<path d="M34.9602 19.13H8.91016V5.38C8.91016 2.96 10.8802 1 13.3002 1H30.5802C33.0002 1 34.9602 2.96 34.9602 5.38V19.13Z" stroke="white" stroke-width="2" stroke-miterlimit="10" stroke-linecap="round" stroke-linejoin="round"/>
<path d="M26.9602 12.91H16.9102C15.2602 12.91 13.9302 11.58 13.9302 9.92995C13.9302 8.27995 15.2602 6.94995 16.9102 6.94995H26.9502C28.6002 6.94995 29.9302 8.27995 29.9302 9.92995C29.9402 11.58 28.6002 12.91 26.9602 12.91Z" stroke="white" stroke-width="2" stroke-miterlimit="10" stroke-linecap="round" stroke-linejoin="round"/>
<path d="M27.04 33.26V63.13" stroke="white" stroke-width="2" stroke-miterlimit="10" stroke-linecap="round" stroke-linejoin="round"/>
<path d="M7.89014 54.3601H19.9801" stroke="#F7941D" stroke-width="2" stroke-miterlimit="10" stroke-linecap="round" stroke-linejoin="round"/>
<path d="M14.1099 50.2799C16.9763 50.2799 19.2999 47.9563 19.2999 45.0899C19.2999 42.2235 16.9763 39.8999 14.1099 39.8999C11.2436 39.8999 8.91992 42.2235 8.91992 45.0899C8.91992 47.9563 11.2436 50.2799 14.1099 50.2799Z" stroke="#F7941D" stroke-width="2" stroke-miterlimit="10" stroke-linecap="round" stroke-linejoin="round"/>
<path d="M46.5401 55.4301H35.1201C33.8601 55.4301 32.8501 54.5001 32.8501 53.3501V38.4301C32.8501 37.2801 33.8701 36.3501 35.1201 36.3501H42.0801C43.2301 36.3501 44.2001 37.1401 44.3401 38.1901L46.5401 55.4301Z" stroke="white" stroke-width="2" stroke-miterlimit="10" stroke-linecap="round" stroke-linejoin="round"/>
<path d="M42.48 55.55L43.02 58.75C43.12 59.35 43.69 59.8 44.36 59.8H57.05C57.8 59.8 58.41 59.25 58.41 58.56V42.53C58.41 41.85 57.8 41.29 57.05 41.29H44.74" stroke="white" stroke-width="2" stroke-miterlimit="10" stroke-linecap="round" stroke-linejoin="round"/>
<path d="M46.5403 55.4302L43.5903 59.1102" stroke="white" stroke-width="2" stroke-miterlimit="10" stroke-linecap="round" stroke-linejoin="round"/>
<path d="M36.9302 49.31L38.6902 41.54H40.2602L41.7502 49.06" stroke="white" stroke-width="2" stroke-miterlimit="10" stroke-linecap="round" stroke-linejoin="round"/>
<path d="M37.6201 46.23H41.0001" stroke="white" stroke-width="2" stroke-miterlimit="10" stroke-linecap="round" stroke-linejoin="round"/>
<path d="M48.1401 47.52H55.4301" stroke="#F7941D" stroke-width="2" stroke-miterlimit="10" stroke-linecap="round" stroke-linejoin="round"/>
<path d="M49.0303 53.78C49.0303 53.78 53.3303 52.06 54.5303 47.52" stroke="#F7941D" stroke-width="2" stroke-miterlimit="10" stroke-linecap="round" stroke-linejoin="round"/>
<path d="M54.5303 53.78C54.5303 53.78 50.2303 52.06 49.0303 47.52" stroke="#F7941D" stroke-width="2" stroke-miterlimit="10" stroke-linecap="round" stroke-linejoin="round"/>
<path d="M52.0503 47.5202V45.6602" stroke="#F7941D" stroke-width="2" stroke-miterlimit="10" stroke-linecap="round" stroke-linejoin="round"/>
</g>
<defs>
<clipPath id="clip0_4204_13585">
<rect width="59.4" height="64.13" fill="white"/>
</clipPath>
</defs>
</svg>
