<svg width="42" height="59" viewBox="0 0 42 59" fill="none" xmlns="http://www.w3.org/2000/svg">
<g clip-path="url(#clip0_3480_12621)">
<path d="M1.13 15.46C1.92 8.55 6.79 0 20.84 0C33.85 0 39.63 7.37 39.63 15.29C39.63 22.06 35.75 25.27 32.68 26.7V26.95C36.33 28.29 41.82 31.77 41.82 40.5C41.82 48.62 36.9 58.24 20.75 58.24C5.69 58.22 0.57 49.14 0 41.71H11.88C12.64 45.55 15.29 48.87 21.08 48.87C26.74 48.87 29.52 45.24 29.52 40.29C29.52 35.08 26.86 31.95 20.31 31.95H15.25V22.54H19.7C25.31 22.54 27.57 20.68 27.57 15.98C27.57 12.12 25.28 9.52 20.43 9.52C14.73 9.52 13.37 12.69 12.75 15.47H1.13V15.46Z" fill="white"/>
</g>
<defs>
<clipPath id="clip0_3480_12621">
<rect width="41.81" height="58.22" fill="white"/>
</clipPath>
</defs>
</svg>
