<svg width="47" height="64" viewBox="0 0 47 64" fill="none" xmlns="http://www.w3.org/2000/svg">
<g clip-path="url(#clip0_4204_13606)">
<path d="M43.2499 59.29H33.7299L31.2399 46.97H28.8799" stroke="white" stroke-width="2" stroke-miterlimit="10" stroke-linecap="round" stroke-linejoin="round"/>
<path d="M45.9797 49.75L43.9497 55.34" stroke="white" stroke-width="2" stroke-miterlimit="10" stroke-linecap="round" stroke-linejoin="round"/>
<path d="M31.7998 49.75H45.9798" stroke="white" stroke-width="2" stroke-miterlimit="10" stroke-linecap="round" stroke-linejoin="round"/>
<path d="M43.9497 55.3401H32.9297" stroke="white" stroke-width="2" stroke-miterlimit="10" stroke-linecap="round" stroke-linejoin="round"/>
<path d="M35.9499 63.8199C36.6899 63.8199 37.2899 63.22 37.2899 62.4799C37.2899 61.7398 36.6899 61.1399 35.9499 61.1399C35.2098 61.1399 34.6099 61.7398 34.6099 62.4799C34.6099 63.22 35.2098 63.8199 35.9499 63.8199Z" fill="white"/>
<path d="M41.6798 63.8199C42.4199 63.8199 43.0198 63.22 43.0198 62.4799C43.0198 61.7398 42.4199 61.1399 41.6798 61.1399C40.9398 61.1399 40.3398 61.7398 40.3398 62.4799C40.3398 63.22 40.9398 63.8199 41.6798 63.8199Z" fill="white"/>
<path d="M14.5798 38.1299H5.75982C5.51982 38.1299 5.31982 37.9299 5.31982 37.6899V37.0799C5.31982 36.8399 5.51982 36.6399 5.75982 36.6399H14.5798C14.8198 36.6399 15.0198 36.8399 15.0198 37.0799V37.6899C15.0298 37.9299 14.8298 38.1299 14.5798 38.1299Z" fill="#FEFEFE"/>
<path d="M14.5798 40.9299H5.75982C5.51982 40.9299 5.31982 40.7299 5.31982 40.4899V39.8799C5.31982 39.6399 5.51982 39.4399 5.75982 39.4399H14.5798C14.8198 39.4399 15.0198 39.6399 15.0198 39.8799V40.4899C15.0298 40.7299 14.8298 40.9299 14.5798 40.9299Z" fill="#F7941D"/>
<path d="M14.5798 43.73H5.75982C5.51982 43.73 5.31982 43.53 5.31982 43.29V42.68C5.31982 42.44 5.51982 42.24 5.75982 42.24H14.5798C14.8198 42.24 15.0198 42.44 15.0198 42.68V43.29C15.0298 43.53 14.8298 43.73 14.5798 43.73Z" fill="#FEFEFE"/>
<path d="M10.69 46.53H5.66998C5.42998 46.53 5.22998 46.33 5.22998 46.09V45.48C5.22998 45.24 5.42998 45.04 5.66998 45.04H10.7C10.94 45.04 11.14 45.24 11.14 45.48V46.09C11.14 46.33 10.94 46.53 10.69 46.53Z" fill="#F7941D"/>
<path d="M10.1702 35.0201C12.904 35.0201 15.1202 32.8039 15.1202 30.0701C15.1202 27.3363 12.904 25.1201 10.1702 25.1201C7.43641 25.1201 5.22021 27.3363 5.22021 30.0701C5.22021 32.8039 7.43641 35.0201 10.1702 35.0201Z" fill="#FEFEFE"/>
<path d="M27.1301 38.1299H18.3101C18.0701 38.1299 17.8701 37.9299 17.8701 37.6899V37.0799C17.8701 36.8399 18.0701 36.6399 18.3101 36.6399H27.1301C27.3701 36.6399 27.5701 36.8399 27.5701 37.0799V37.6899C27.5701 37.9299 27.3701 38.1299 27.1301 38.1299Z" fill="#FEFEFE"/>
<path d="M27.1301 40.9299H18.3101C18.0701 40.9299 17.8701 40.7299 17.8701 40.4899V39.8799C17.8701 39.6399 18.0701 39.4399 18.3101 39.4399H27.1301C27.3701 39.4399 27.5701 39.6399 27.5701 39.8799V40.4899C27.5701 40.7299 27.3701 40.9299 27.1301 40.9299Z" fill="#F7941D"/>
<path d="M27.1301 43.73H18.3101C18.0701 43.73 17.8701 43.53 17.8701 43.29V42.68C17.8701 42.44 18.0701 42.24 18.3101 42.24H27.1301C27.3701 42.24 27.5701 42.44 27.5701 42.68V43.29C27.5701 43.53 27.3701 43.73 27.1301 43.73Z" fill="#FEFEFE"/>
<path d="M23.24 46.53H18.21C17.97 46.53 17.77 46.33 17.77 46.09V45.48C17.77 45.24 17.97 45.04 18.21 45.04H23.24C23.48 45.04 23.68 45.24 23.68 45.48V46.09C23.68 46.33 23.48 46.53 23.24 46.53Z" fill="#F7941D"/>
<path d="M22.72 35.0201C25.4538 35.0201 27.67 32.8039 27.67 30.0701C27.67 27.3363 25.4538 25.1201 22.72 25.1201C19.9862 25.1201 17.77 27.3363 17.77 30.0701C17.77 32.8039 19.9862 35.0201 22.72 35.0201Z" fill="#FEFEFE"/>
<path d="M39.6702 38.1299H30.8502C30.6102 38.1299 30.4102 37.9299 30.4102 37.6899V37.0799C30.4102 36.8399 30.6102 36.6399 30.8502 36.6399H39.6702C39.9102 36.6399 40.1102 36.8399 40.1102 37.0799V37.6899C40.1202 37.9299 39.9202 38.1299 39.6702 38.1299Z" fill="#FEFEFE"/>
<path d="M39.6702 40.9299H30.8502C30.6102 40.9299 30.4102 40.7299 30.4102 40.4899V39.8799C30.4102 39.6399 30.6102 39.4399 30.8502 39.4399H39.6702C39.9102 39.4399 40.1102 39.6399 40.1102 39.8799V40.4899C40.1202 40.7299 39.9202 40.9299 39.6702 40.9299Z" fill="#F7941D"/>
<path d="M39.6702 43.73H30.8502C30.6102 43.73 30.4102 43.53 30.4102 43.29V42.68C30.4102 42.44 30.6102 42.24 30.8502 42.24H39.6702C39.9102 42.24 40.1102 42.44 40.1102 42.68V43.29C40.1202 43.53 39.9202 43.73 39.6702 43.73Z" fill="#FEFEFE"/>
<path d="M35.2601 35.0201C37.9939 35.0201 40.2101 32.8039 40.2101 30.0701C40.2101 27.3363 37.9939 25.1201 35.2601 25.1201C32.5262 25.1201 30.3101 27.3363 30.3101 30.0701C30.3101 32.8039 32.5262 35.0201 35.2601 35.0201Z" fill="#FEFEFE"/>
<path d="M42.4299 15.3799H2.66992V22.0099H42.4299V15.3799Z" fill="#F7941D"/>
<path d="M42.4302 15.3799V42.2399" stroke="white" stroke-width="2" stroke-miterlimit="10" stroke-linecap="round" stroke-linejoin="round"/>
<path d="M4.97021 1H41.0302" stroke="white" stroke-width="2" stroke-miterlimit="10" stroke-linecap="round" stroke-linejoin="round"/>
<path d="M26.9999 55.5099H4.06992C3.29992 55.5099 2.66992 54.8799 2.66992 54.1099V15.3799" stroke="white" stroke-width="2" stroke-miterlimit="10" stroke-linecap="round" stroke-linejoin="round"/>
<path d="M42.72 8.18996C42.68 8.16996 42.65 8.14996 42.63 8.13996C42.06 7.85996 41.8 7.34996 41.86 6.70996C41.93 6.04996 42.41 5.49996 43.15 5.35996C43.59 5.27996 44.03 5.27996 44.47 5.41996C45.54 5.74996 45.76 6.87996 45.4 7.55996C45.26 7.80996 45.0599 7.99996 44.7999 8.12996C44.7699 8.13996 44.75 8.15996 44.7 8.17996C44.74 8.19996 44.77 8.21996 44.79 8.22996C45.47 8.54996 45.81 9.14996 45.74 9.89996C45.69 10.42 45.4999 10.85 45.0999 11.19C44.8199 11.43 44.49 11.56 44.13 11.6C43.7 11.66 43.27 11.63 42.86 11.48C42.14 11.21 41.6999 10.6 41.6899 9.82996C41.6799 9.30996 41.8199 8.83996 42.2299 8.48996C42.3499 8.38996 42.49 8.30996 42.63 8.22996C42.65 8.21996 42.67 8.20996 42.72 8.18996ZM44.59 9.67996C44.6 9.67996 44.61 9.67996 44.61 9.66996C44.58 9.51996 44.56 9.35996 44.5 9.20996C44.37 8.88996 44.12 8.69996 43.77 8.67996C43.41 8.65996 43.13 8.79996 42.97 9.12996C42.79 9.49996 42.7899 9.86996 42.9799 10.24C43.1299 10.53 43.38 10.69 43.72 10.69C44.05 10.7 44.2899 10.55 44.4599 10.27C44.5599 10.09 44.59 9.88996 44.59 9.67996ZM43.7 7.74996C44.17 7.74996 44.45 7.45996 44.45 6.97996C44.45 6.53996 44.1499 6.23996 43.7099 6.23996C43.2499 6.23996 42.9499 6.53996 42.9599 6.99996C42.9599 7.45996 43.24 7.74996 43.7 7.74996Z" fill="#F7941D"/>
<path d="M37.8999 8.18997C37.7999 8.13997 37.7199 8.09997 37.6399 8.04997C37.1599 7.73997 36.9899 7.28997 37.0299 6.74997C37.0699 6.24997 37.3099 5.85997 37.7299 5.58997C37.9599 5.43997 38.2299 5.36997 38.4999 5.33997C38.9199 5.28997 39.3299 5.30997 39.7299 5.45997C40.3699 5.69997 40.7399 6.24997 40.7199 6.93997C40.7099 7.47997 40.4499 7.87997 39.9799 8.13997C39.9499 8.15997 39.9199 8.16997 39.8699 8.19997C39.9199 8.21997 39.9499 8.23997 39.9799 8.24997C40.6499 8.55997 40.9899 9.18997 40.9099 9.91997C40.8699 10.33 40.7399 10.7 40.4599 11.02C40.1499 11.37 39.7499 11.56 39.2999 11.62C38.8699 11.68 38.4399 11.65 38.0299 11.49C37.3099 11.22 36.8699 10.61 36.8599 9.83997C36.8499 9.31997 36.9899 8.85997 37.3899 8.50997C37.5099 8.40997 37.6499 8.32997 37.7799 8.24997C37.8299 8.21997 37.8599 8.20997 37.8999 8.18997ZM39.7999 9.67997C39.7599 9.51997 39.7499 9.35997 39.6899 9.20997C39.5599 8.88997 39.2999 8.70997 38.9499 8.67997C38.5899 8.65997 38.3099 8.80997 38.1499 9.13997C37.9699 9.50997 37.9799 9.87997 38.1699 10.24C38.3399 10.56 38.6199 10.71 38.9899 10.69C39.3199 10.67 39.5599 10.49 39.6799 10.19C39.7399 10.03 39.7599 9.85997 39.7999 9.67997ZM38.8899 7.74997C39.3499 7.74997 39.6399 7.45997 39.6399 6.98997C39.6399 6.53997 39.3399 6.23997 38.8999 6.23997C38.4499 6.23997 38.1399 6.53997 38.1399 6.99997C38.1399 7.45997 38.4299 7.74997 38.8899 7.74997Z" fill="#F7941D"/>
<path d="M36.09 6.83991C35.71 6.87991 35.34 6.91991 34.97 6.95991C34.94 6.86991 34.93 6.77991 34.9 6.69991C34.73 6.22991 34.14 6.11991 33.75 6.47991C33.56 6.64991 33.46 6.87991 33.42 7.11991C33.37 7.39991 33.34 7.68991 33.3 7.97991C33.3 7.98991 33.31 7.99991 33.31 8.01991C33.33 7.99991 33.35 7.99991 33.36 7.97991C33.86 7.40991 34.67 7.39991 35.22 7.71991C35.79 8.03991 36.1 8.54991 36.18 9.19991C36.23 9.62991 36.21 10.0499 36.04 10.4499C35.75 11.1499 35.22 11.5399 34.46 11.6199C33.7 11.6999 33.08 11.4499 32.62 10.8399C32.38 10.5199 32.25 10.1499 32.18 9.75991C32.01 8.80991 32.01 7.85991 32.27 6.91991C32.45 6.24991 32.84 5.72991 33.5 5.46991C34.12 5.22991 34.74 5.21991 35.33 5.57991C35.76 5.83991 35.96 6.24991 36.07 6.71991C36.07 6.74991 36.08 6.78991 36.09 6.83991ZM35.09 9.54991C35.05 9.32991 35.02 9.09991 34.95 8.89991C34.83 8.55991 34.55 8.36991 34.19 8.37991C33.87 8.37991 33.58 8.58991 33.47 8.91991C33.34 9.30991 33.36 9.68991 33.5 10.0799C33.56 10.2499 33.67 10.3799 33.81 10.4899C34.21 10.8099 34.77 10.6699 34.95 10.1899C35.02 9.98991 35.04 9.76991 35.09 9.54991Z" fill="#F7941D"/>
<path d="M29.0901 7.0598C28.6501 7.4598 28.1601 7.7498 27.5901 7.9298C27.5901 7.8898 27.5801 7.8598 27.5801 7.8398C27.5801 7.5498 27.5801 7.2598 27.5801 6.9598C27.5801 6.8898 27.6001 6.8598 27.6701 6.8398C28.2401 6.5998 28.7501 6.2598 29.1101 5.7398C29.1901 5.6298 29.2501 5.4998 29.3001 5.3798C29.3301 5.3198 29.3601 5.2998 29.4301 5.2998C29.6701 5.2998 29.9201 5.2998 30.1601 5.2998C30.2801 5.2998 30.2801 5.2998 30.2801 5.4298C30.2801 7.1898 30.2801 8.9498 30.2801 10.7098C30.2801 10.9398 30.2801 11.1698 30.2801 11.3998C30.2801 11.4898 30.2601 11.5298 30.1601 11.5298C29.8501 11.5198 29.5401 11.5298 29.2401 11.5298C29.1101 11.5298 29.1101 11.5298 29.1101 11.3998C29.1101 9.9998 29.1101 8.5898 29.1101 7.1898C29.1101 7.1498 29.1101 7.1098 29.1101 7.0698C29.1001 7.0698 29.0901 7.0598 29.0901 7.0598Z" fill="#F7941D"/>
<path d="M9.55977 10C9.59977 10 9.62977 9.99002 9.66977 9.99002C9.77977 9.97002 9.83977 9.90002 9.84977 9.79002C9.84977 9.75002 9.84977 9.71002 9.84977 9.67002C9.84977 8.85002 9.84977 8.02002 9.84977 7.20002C9.84977 7.00002 9.76977 6.92002 9.56977 6.89002C9.54977 6.89002 9.52977 6.89002 9.50977 6.88002C9.51977 6.71002 9.66977 6.53002 9.85977 6.48002C10.0398 6.43002 10.2198 6.44002 10.3898 6.52002C10.5598 6.60002 10.6598 6.73002 10.6498 6.93002C10.6498 7.19002 10.6498 7.46002 10.6498 7.72002C10.6498 7.75002 10.6498 7.77002 10.6498 7.81002C10.9798 7.51002 11.3698 7.46002 11.7698 7.54002C12.2798 7.64002 12.5898 7.97003 12.6998 8.47003C12.7798 8.85003 12.7598 9.24002 12.6398 9.61002C12.4298 10.23 11.9598 10.48 11.3498 10.44C11.2798 10.44 11.1998 10.43 11.1298 10.41C10.8998 10.36 10.7698 10.28 10.6098 10.08C10.5398 10.22 10.4398 10.33 10.2898 10.39C10.1398 10.44 9.98977 10.44 9.83977 10.39C9.66977 10.31 9.55977 10.17 9.55977 10ZM11.8698 9.05002C11.8698 9.03003 11.8698 9.01002 11.8698 9.00002C11.8598 8.75002 11.8498 8.50003 11.7598 8.27003C11.6498 7.96003 11.3598 7.83002 11.0598 7.94002C10.8298 8.02002 10.7198 8.22002 10.6698 8.45002C10.6098 8.79002 10.6198 9.14002 10.6798 9.48002C10.7198 9.70002 10.8398 9.88003 11.0498 9.97003C11.3398 10.1 11.6398 9.97002 11.7798 9.65002C11.8598 9.46002 11.8698 9.26003 11.8698 9.05002Z" fill="white"/>
<path d="M9.27982 8.98006C9.25982 9.69006 8.77982 10.3101 8.11982 10.4601C7.37982 10.6201 6.65982 10.2001 6.40982 9.47006C6.14982 8.69006 6.55982 7.82006 7.30982 7.55006C8.13982 7.25006 9.02982 7.76006 9.21982 8.63006C9.24982 8.73006 9.25982 8.86006 9.27982 8.98006ZM8.38982 8.97006C8.36982 8.81006 8.34982 8.65006 8.30982 8.49006C8.26982 8.31006 8.18982 8.13006 8.03982 8.01006C7.88982 7.88006 7.70982 7.88006 7.56982 8.01006C7.48982 8.08006 7.41982 8.16006 7.37982 8.26006C7.19982 8.63006 7.17982 9.02006 7.27982 9.42006C7.32982 9.61006 7.39982 9.79006 7.54982 9.92006C7.70982 10.0701 7.89982 10.0701 8.05982 9.92006C8.12982 9.86006 8.17982 9.78006 8.22982 9.70006C8.33982 9.47006 8.37982 9.22006 8.38982 8.97006Z" fill="white"/>
<path d="M16.5 8.96997C16.52 8.21997 17.03 7.59997 17.75 7.46997C18.36 7.35997 18.99 7.68997 19.28 8.27997C19.64 9.00997 19.37 9.90997 18.68 10.3C17.86 10.76 16.84 10.33 16.57 9.41997C16.54 9.26997 16.52 9.11997 16.5 8.96997ZM18.57 8.95997C18.54 8.79997 18.53 8.62997 18.48 8.46997C18.43 8.26997 18.34 8.08997 18.17 7.96997C18.04 7.87997 17.91 7.88997 17.78 7.96997C17.65 8.05997 17.57 8.17997 17.52 8.31997C17.36 8.72997 17.36 9.14997 17.51 9.56997C17.56 9.70997 17.63 9.82997 17.74 9.92997C17.9 10.06 18.07 10.06 18.22 9.91997C18.29 9.84997 18.35 9.76997 18.4 9.68997C18.52 9.46997 18.56 9.21997 18.57 8.95997Z" fill="white"/>
<path d="M4.96986 8.68999C4.96986 8.50999 4.94986 8.36999 4.89986 8.21999C4.80986 7.99999 4.64986 7.88999 4.41986 7.86999C4.04986 7.84999 3.68986 7.86999 3.31986 7.96999C3.34986 7.82999 3.41986 7.71999 3.52986 7.63999C3.66986 7.53999 3.82986 7.49999 3.98986 7.47999C4.35986 7.43999 4.71986 7.44999 5.07986 7.55999C5.49986 7.68999 5.69986 7.97999 5.70986 8.40999C5.70986 8.84999 5.70986 9.29999 5.70986 9.73999C5.70986 9.82999 5.72986 9.91999 5.79986 9.95999C5.85986 9.98999 5.93986 9.99999 6.01986 10.01C6.02986 10.15 5.83986 10.35 5.61986 10.4C5.34986 10.46 5.05986 10.32 4.96986 10.07C4.83986 10.3 4.63986 10.4 4.39986 10.44C4.18986 10.48 3.97986 10.47 3.76986 10.41C3.40986 10.31 3.17986 10.08 3.09986 9.70999C2.98986 9.28999 3.05986 8.89999 3.39986 8.59999C3.66986 8.35999 3.99986 8.29999 4.33986 8.34999C4.57986 8.37999 4.79986 8.46999 4.96986 8.68999ZM4.96986 9.37999C4.96986 9.20999 4.91986 9.05999 4.80986 8.92999C4.60986 8.69999 4.28986 8.68999 4.07986 8.90999C3.83986 9.15999 3.83986 9.59999 4.07986 9.84999C4.28986 10.07 4.61986 10.06 4.81986 9.81999C4.91986 9.69999 4.96986 9.54999 4.96986 9.37999Z" fill="white"/>
<path d="M16.2302 9.99002C16.2102 10.2 16.0202 10.37 15.7902 10.41C15.5302 10.45 15.2902 10.32 15.1702 10.08C15.0102 10.35 14.7502 10.45 14.4602 10.45C14.3002 10.45 14.1302 10.44 13.9702 10.41C13.5602 10.31 13.2902 9.98002 13.2702 9.55002C13.2602 9.39002 13.2702 9.23002 13.3102 9.08002C13.4202 8.66002 13.7902 8.38002 14.2402 8.34002C14.4202 8.33002 14.6002 8.34002 14.7702 8.40002C14.9302 8.45002 15.0702 8.53002 15.1702 8.67002C15.2802 8.31002 14.9902 7.90002 14.6202 7.87002C14.3302 7.85002 13.8602 7.87002 13.5302 7.98002C13.5602 7.84002 13.6302 7.73002 13.7402 7.65002C13.8802 7.55002 14.0402 7.50002 14.2102 7.49002C14.5702 7.45002 14.9302 7.47002 15.2802 7.57002C15.7102 7.70002 15.9202 7.98002 15.9202 8.43002C15.9202 8.87002 15.9202 9.30002 15.9202 9.74002C15.9202 9.78002 15.9202 9.83002 15.9402 9.87002C15.9702 9.98002 16.0502 10.03 16.1602 10.02C16.1802 10 16.2002 10 16.2302 9.99002ZM15.1802 9.39002C15.1802 9.23002 15.1302 9.08002 15.0302 8.95002C14.8202 8.70002 14.4702 8.70002 14.2602 8.95002C14.0602 9.19002 14.0602 9.57002 14.2502 9.82002C14.4602 10.09 14.8302 10.09 15.0402 9.82002C15.1302 9.69002 15.1702 9.54002 15.1802 9.39002Z" fill="white"/>
<path d="M0 7.36002C0.11 7.01002 0.42 6.80002 0.79 6.82002C1.18 6.84002 1.58 6.86002 1.97 6.87002C2.48 6.89002 2.98 6.84002 3.49 6.77002C3.49 6.79002 3.49 6.81002 3.48 6.82002C3.41 6.93002 3.34 7.04002 3.26 7.14002C3.18 7.23002 3.07 7.27002 2.94 7.27002C2.74 7.27002 2.54 7.27002 2.34 7.27002C2.21 7.27002 2.15 7.33002 2.15 7.46002C2.15 8.22002 2.15 8.97002 2.15 9.73002C2.15 9.92002 2.27 10.01 2.49 10.01C2.45 10.13 2.38 10.21 2.29 10.29C2.06 10.46 1.71 10.48 1.47 10.32C1.33 10.23 1.26 10.11 1.26 9.94002C1.26 9.12002 1.26 8.30002 1.26 7.48002C1.26 7.29002 1.24 7.26002 1.05 7.26002C0.8 7.26002 0.55 7.26002 0.31 7.28002C0.2 7.27002 0.1 7.33002 0 7.36002Z" fill="white"/>
<path d="M23.2534 5.3916V11.7916V5.3916Z" stroke="#F7941D" stroke-width="0.5" stroke-miterlimit="10"/>
</g>
<defs>
<clipPath id="clip0_4204_13606">
<rect width="46.98" height="63.82" fill="white"/>
</clipPath>
</defs>
</svg>
