<svg width="46" height="62" viewBox="0 0 46 62" fill="none" xmlns="http://www.w3.org/2000/svg">
<g clip-path="url(#clip0_3480_12597)">
<path d="M42.11 0.25C41.45 0.05 40.72 0.03 40.23 0.03C37.22 0.02 34.21 0.02 31.2 0.02C26.6 0.02 21.85 0.02 17.17 0C17.16 0 17.16 0 17.15 0C16.4 0 15.88 0.22 15.35 0.75C11.06 5.02 6.5 9.54 0.57 15.39C0.16 15.79 0 16.18 0 16.73C0.01 19.78 0.01 22.82 0.01 25.86V29.51V54.96C0.01 55.43 0.01 55.9 0.01 56.37C0.02 59.27 2.03 61.29 4.91 61.29C16.03 61.3 27.67 61.3 40.5 61.28C41.09 61.28 41.65 61.2 42.13 61.05C44.22 60.4 45.41 58.62 45.41 56.18C45.41 41.22 45.41 26.25 45.41 11.29V5.4C45.41 5.19 45.41 4.98 45.41 4.77C45.36 2.58 44.09 0.84 42.11 0.25ZM15.6 2.71L15.64 2.97C15.65 3.05 15.67 3.11 15.67 3.16C15.69 3.25 15.7 3.3 15.7 3.36C15.7 4.18 15.7 4.99 15.7 5.81C15.7 7.99 15.71 10.25 15.69 12.47C15.68 14.03 14.38 15.43 12.91 15.46C11.54 15.49 10.18 15.5 8.8 15.5C7.87 15.5 6.92 15.5 5.96 15.49C4.99 15.49 4 15.49 3 15.49H2.67L15.6 2.71ZM43.93 56.26C43.93 57.29 43.59 58.18 42.94 58.83C42.3 59.47 41.4 59.83 40.41 59.83H40.4C31.76 59.8 22.98 59.8 14.49 59.81C11.33 59.81 8.16 59.81 5 59.81C2.86 59.81 1.53 58.48 1.53 56.34V55.44V28.75C1.53 25.19 1.53 21.51 1.52 17.89C1.52 17.63 1.54 17.36 1.71 17.19C1.85 17.05 2.05 16.99 2.39 17C3.58 17.01 4.79 17 5.96 16.99C7.94 16.97 9.99 16.96 12 17.04C13.48 17.1 14.83 16.59 15.81 15.61C16.79 14.63 17.3 13.28 17.24 11.82C17.16 9.66 17.18 7.47 17.2 5.34C17.21 4.39 17.22 3.45 17.22 2.5V1.53H18.09C20.11 1.53 22.13 1.53 24.15 1.54C29.46 1.55 34.95 1.56 40.35 1.51C40.36 1.51 40.37 1.51 40.38 1.51C41.38 1.51 42.28 1.86 42.92 2.5C43.58 3.16 43.93 4.05 43.93 5.1C43.91 21.51 43.91 38.72 43.93 56.26Z" fill="white"/>
<path d="M30.0798 27.6301C28.9598 27.6301 28.0498 26.7201 28.0498 25.6001V21.5901C28.0498 20.4701 28.9598 19.5601 30.0798 19.5601H34.0898" stroke="#F7941D" stroke-width="2" stroke-miterlimit="10" stroke-linecap="round" stroke-linejoin="round"/>
<path d="M31.3301 24.51L34.0001 26.27L38.5201 22.72" stroke="#F7941D" stroke-width="2" stroke-miterlimit="10" stroke-linecap="round" stroke-linejoin="round"/>
<path d="M30.0798 40.87C28.9598 40.87 28.0498 39.96 28.0498 38.84V34.8301C28.0498 33.7101 28.9598 32.8 30.0798 32.8H34.0898" stroke="#F7941D" stroke-width="2" stroke-miterlimit="10" stroke-linecap="round" stroke-linejoin="round"/>
<path d="M31.3301 37.74L34.0001 39.5099L38.5201 35.95" stroke="#F7941D" stroke-width="2" stroke-miterlimit="10" stroke-linecap="round" stroke-linejoin="round"/>
<path d="M30.0798 54.1C28.9598 54.1 28.0498 53.19 28.0498 52.07V48.06C28.0498 46.94 28.9598 46.03 30.0798 46.03H34.0898" stroke="#F7941D" stroke-width="2" stroke-miterlimit="10" stroke-linecap="round" stroke-linejoin="round"/>
<path d="M31.3301 50.9799L34.0001 52.7399L38.5201 49.1899" stroke="#F7941D" stroke-width="2" stroke-miterlimit="10" stroke-linecap="round" stroke-linejoin="round"/>
<path d="M23.53 21.73H7.20996" stroke="white" stroke-width="2" stroke-miterlimit="10" stroke-linecap="round"/>
<path d="M23.53 25.28H17.23" stroke="white" stroke-width="2" stroke-miterlimit="10" stroke-linecap="round"/>
<path d="M23.53 35.0601H7.20996" stroke="white" stroke-width="2" stroke-miterlimit="10" stroke-linecap="round"/>
<path d="M23.53 38.6101H17.23" stroke="white" stroke-width="2" stroke-miterlimit="10" stroke-linecap="round"/>
<path d="M23.53 48.3899H7.20996" stroke="white" stroke-width="2" stroke-miterlimit="10" stroke-linecap="round"/>
<path d="M23.53 51.9399H17.23" stroke="white" stroke-width="2" stroke-miterlimit="10" stroke-linecap="round"/>
</g>
<defs>
<clipPath id="clip0_3480_12597">
<rect width="45.43" height="61.32" fill="white"/>
</clipPath>
</defs>
</svg>
