<svg width="64" height="68" viewBox="0 0 64 68" fill="none" xmlns="http://www.w3.org/2000/svg">
<g clip-path="url(#clip0_2463_48982)">
<path d="M1.1394 28.1506V65.99H62.0707V28.1506" stroke="white" stroke-width="2" stroke-linecap="round" stroke-linejoin="round"/>
<path d="M54.7927 21.2007L62.0707 28.1552L35.219 51.7347C33.15 53.5485 30.0556 53.5485 27.9911 51.7256L1.1394 28.1506" stroke="white" stroke-width="2" stroke-linecap="round" stroke-linejoin="round"/>
<path d="M22.2488 7.9845L27.8269 2.65699C29.9415 0.638099 33.2684 0.638099 35.383 2.65699L40.9611 7.9845" stroke="white" stroke-width="2" stroke-linecap="round" stroke-linejoin="round"/>
<path d="M1.1394 28.1504L9.31068 20.3438" stroke="white" stroke-width="2" stroke-linecap="round" stroke-linejoin="round"/>
<path d="M9.31055 28.1505V13.4532C9.31055 10.4317 11.7578 7.98438 14.7793 7.98438H49.219C52.2405 7.98438 54.6878 10.4317 54.6878 13.4532V34.6356" stroke="white" stroke-width="2" stroke-linecap="round" stroke-linejoin="round"/>
<path d="M17.2449 17.8191H46.7581" stroke="white" stroke-width="2" stroke-linecap="round" stroke-linejoin="round"/>
<path d="M17.2449 24.2495H46.7581" stroke="white" stroke-width="2" stroke-linecap="round" stroke-linejoin="round"/>
<path d="M17.2449 30.6799H37.1695" stroke="white" stroke-width="2" stroke-linecap="round" stroke-linejoin="round"/>
<path d="M41.9546 30.6799H46.758" stroke="white" stroke-width="2" stroke-linecap="round" stroke-linejoin="round"/>
</g>
<defs>
<clipPath id="clip0_2463_48982">
<rect width="63.21" height="67.1293" fill="white"/>
</clipPath>
</defs>
</svg>
