<svg width="200" height="34" viewBox="0 0 200 34" fill="none" xmlns="http://www.w3.org/2000/svg">
<g id="Group">
<path id="Vector" fill-rule="evenodd" clip-rule="evenodd" d="M199.797 13.044C199.797 7.51708 194.067 3.83105 185.574 3.83105C177.335 3.83105 172.039 7.40804 172.039 12.7179C172.039 17.3778 174.288 20.0932 182.326 21.3814L187.76 22.2516C191.086 22.7839 193.116 23.3933 193.116 25.4533C193.116 27.6748 189.265 28.5011 186.345 28.6048C183.378 28.7128 179.177 27.8319 178.861 24.3094H171.623C171.676 30.4917 178.079 33.9735 185.765 33.9735C193.469 33.9735 200.009 30.7065 200 24.8001C199.994 19.517 196.949 17.4366 189.984 16.2393L185.258 15.4269C180.204 14.5577 179.201 13.8554 179.201 11.7964C179.201 10.0624 181.583 8.70798 185.321 8.70798C189.695 8.70798 192.165 10.2249 192.356 13.0429L199.797 13.044ZM142.707 4.85839V21.4348C142.707 28.0446 146.874 33.0253 153.878 33.0809C158.11 33.114 161.784 30.838 163.931 28.0062V32.0589H170.496V4.85839H163.686V20.385C163.686 25.4726 159.576 27.8159 156.019 27.8159C152.351 27.8159 149.578 25.4437 149.578 21.1954V4.85839H142.707ZM81.6516 4.74401C80.8755 4.74401 80.1251 4.6927 80.015 4.69697C76.3589 4.81671 74.2465 7.61543 72.5296 10.9786V4.78677H66.0502V31.9776H72.861V18.3827C72.861 12.5661 74.7521 11.2181 79.7381 11.2181H81.6516V4.74401ZM0 0.0263672V31.9766H6.64725V19.1022H24.6989V31.9766H31.3472V0.0263672H24.6989V14.0339H6.64725V0.0263672H0ZM64.7235 19.7757C64.7898 19.0156 64.9705 18.6083 64.9234 17.9594C64.2307 8.56794 57.0586 3.19391 49.0996 3.19391C40.7419 3.19391 32.9508 8.83947 32.9508 18.34C32.9508 28.3814 40.2651 33.7832 48.9029 33.7832C56.0686 33.7832 62.2829 29.738 63.848 24.1363H56.3808C55.4614 27.0676 52.1763 28.8047 49.1819 28.8047C44.3948 28.8047 40.3357 25.1508 40.2053 19.7767L64.7235 19.7757ZM57.174 14.8955H40.5655C41.0252 10.1736 45.5985 8.04839 48.9029 8.04839C52.8466 8.04839 57.1088 10.1736 57.174 14.8955ZM141.217 19.7757C141.283 19.0156 141.464 18.6083 141.417 17.9594C140.725 8.56794 133.553 3.19391 125.593 3.19391C117.235 3.19391 109.445 8.83947 109.445 18.34C109.445 28.3814 116.76 33.7832 125.398 33.7832C132.563 33.7832 138.778 29.738 140.342 24.1363H132.874C131.956 27.0676 128.67 28.8047 125.677 28.8047C120.889 28.8047 116.831 25.1508 116.7 19.7767L141.217 19.7757ZM133.668 14.8955H117.059C117.519 10.1736 122.093 8.04839 125.396 8.04839C129.34 8.04839 133.602 10.1736 133.668 14.8955ZM101.771 17.0507V20.508C101.771 26.7051 97.2114 28.0757 92.4435 28.3793C88.5277 28.6294 85.7599 26.4721 85.7888 23.9567C85.8519 18.5548 90.9309 19.4304 94.1593 19.3769C99.2351 19.2946 99.838 18.7494 101.771 17.0507ZM101.7 28.2232L101.704 31.8558L108.207 31.8515L108.198 12.5052C108.196 6.47905 101.96 3.34143 95.0819 3.3874C88.2604 3.43337 82.3508 5.32342 82.3508 10.7199V11.1913H88.8462V10.9818C88.8462 8.45676 91.5541 7.82924 95.7811 7.82924C99.4981 7.82924 101.832 9.03404 101.454 12.084C101.139 14.6326 97.9405 14.8923 92.4596 14.8282C89.3081 14.7918 86.5767 14.7138 84.6439 15.2911C79.7028 16.7674 78.5814 20.4417 78.6712 24.6056C78.7802 29.6332 82.7848 33.1022 90.0959 33.1022C94.3229 33.1044 99.0651 31.1566 101.7 28.2232Z" fill="white"/>
</g>
</svg>
