<svg width="202" height="50" viewBox="0 0 202 50" fill="none" xmlns="http://www.w3.org/2000/svg">
<g id="bocuse-d-or-1 1" clip-path="url(#clip0_805_2448)">
<g id="Group 289">
<path id="Vector" d="M202.064 31.331C198.192 33.1271 193.439 35.4485 189.145 32.9505C185.8 30.5924 188.863 27.0713 188.652 24.1489H188.37C186.046 27.4223 183.617 30.6612 180.343 33.1271C179.816 33.1271 179.251 32.8817 179.006 32.3541C178.091 30.5924 180.167 30.1703 180.942 29.1518C183.582 26.5116 185.484 23.307 188.053 20.8801C188.723 20.6691 189.636 20.8434 190.237 21.3022C192.489 24.0824 189.884 27.3924 190.588 30.4892C191.643 32.5651 194.072 31.932 195.903 31.6843C196.887 31.4388 197.873 31.1911 198.86 30.9112C199.88 30.9434 202.098 29.2895 202.064 31.331Z" fill="white"/>
<path id="Vector_2" d="M171.473 36.1546C166.931 38.1251 160.384 37.703 156.193 35.2394C155.666 35.3105 155.455 34.6751 154.998 34.5696C150.245 31.8949 148.167 26.2611 148.592 20.8774C149.156 17.4274 150.245 14.1885 152.393 11.4083C151.828 11.0206 151.055 10.5275 150.95 9.71773C151.303 6.68981 153.943 4.43723 156.37 2.60671C160.173 -0.315682 166.789 -0.49231 171.049 1.76027C177.738 4.75378 182.314 11.7226 181.963 19.1868C181.752 26.2267 178.407 33.4066 171.473 36.1546ZM178.162 14.0119C176.93 9.22454 172.494 4.78819 167.672 3.55638C165.522 2.88273 163.215 2.89345 161.071 3.58705C158.927 4.28066 157.051 5.62292 155.703 7.42844C157.356 5.94889 159.189 4.57715 161.511 4.47163C162.18 4.47163 162.743 4.93041 163.13 5.49241C163.447 6.09111 162.988 6.6187 162.531 7.00637C159.82 7.63947 157.391 9.43558 155.597 11.757C152.604 15.9112 150.351 21.7193 152.324 26.8598C152.957 28.6537 154.225 30.0277 155.774 31.3306C159.997 34.5696 167.179 35.3449 171.826 32.528C177.774 28.3738 179.816 21.0174 178.162 14.0119ZM144.121 16.7209C143.699 17.143 143.206 17.0375 142.747 16.8264C142.288 16.4044 141.655 15.7346 141.9 15.0303C142.816 12.7411 142.958 9.82095 142.921 7.60277C143.274 7.25181 143.908 7.17841 144.364 7.35733C146.688 8.9401 145.245 12.0735 145.137 14.3628C144.931 15.207 144.577 15.9823 144.121 16.7209ZM140.634 35.4848C137.643 35.8358 134.755 34.6384 132.785 32.1059H132.608C130.848 34.5352 127.749 36.4712 124.442 35.7326C123.598 35.3449 122.822 34.7462 122.4 33.8676C121.662 31.6151 122.471 29.1147 124.02 27.3897C125.394 25.9102 127.224 25.2771 129.16 25.3482C129.477 25.066 129.055 24.6784 129.089 24.3274C128.844 22.1436 129.089 19.9278 129.513 17.9206C130.286 15.8103 130.885 13.4843 132.787 12.007C133.982 11.0206 135.778 11.3028 137.01 12.007C141.024 17.2531 137.326 23.942 135.003 28.9037C134.721 29.2202 134.475 29.6446 134.581 29.9956C136.131 32.177 138.418 33.34 140.811 33.9732C141.549 34.253 141.304 35.3082 140.634 35.4848ZM135.67 17.9894C135.741 16.7209 135.952 15.1382 135.143 14.1862C134.262 13.8696 134.262 14.9248 133.805 15.2781C132.186 18.4459 131.624 22.4235 132.608 25.9446C134.159 23.5154 135.003 20.7696 135.67 17.9894ZM130.603 29.5712C130.709 28.7615 130.075 28.0573 129.651 27.3874C128.208 28.0205 126.554 28.5481 125.602 30.0644C125.32 30.9085 124.65 32.2459 125.531 32.9501C126.658 33.2322 127.607 32.528 128.488 31.9293L130.603 29.5712ZM113.353 37.7741C107.827 35.9092 101.455 36.8221 96.4564 33.7254C95.47 34.2186 94.4493 34.6774 93.4996 35.3105C92.9009 35.3449 92.3733 34.9939 92.0568 34.464C92.0201 34.1475 91.8457 33.8309 91.9145 33.4433C92.5477 31.9293 95.821 31.9293 94.5892 29.5712C94.6947 27.142 97.0528 25.206 99.1655 24.5017C100.081 24.3251 101.173 24.043 101.946 24.7472C102.932 25.628 103.249 26.8598 102.966 28.1284C102.684 29.8189 100.819 30.8741 99.5876 31.8605C103.882 34.1498 109.197 33.1978 113.702 34.9939C114.126 35.1339 114.195 35.5926 114.372 35.9092C114.232 36.6111 114.092 37.4553 113.353 37.7741ZM100.083 27.3874C99.1311 26.9998 98.4636 27.704 97.8304 28.3027C97.6538 28.7959 97.0207 29.2891 97.4061 29.8167L98.8145 28.7959C99.3421 28.5137 100.046 28.0228 100.083 27.3874ZM89.2032 35.4848C87.9003 36.2579 86.0009 36.5767 84.7324 35.5559C84.3448 35.1683 84.0282 34.7806 84.0282 34.2186C84.6269 33.5144 85.3655 32.6702 86.1409 32.5303C86.3519 32.7757 86.423 33.0946 86.7396 33.2001C87.196 33.2001 87.6892 33.2712 88.0058 32.9547C88.359 32.4959 88.359 32.216 88.359 31.6173C88.0058 30.9131 87.196 30.8764 86.5629 30.6654C82.4087 31.193 79.5574 36.579 74.9124 34.4663C74.4536 34.2553 74.1714 33.5855 73.6438 33.5511C72.412 34.7485 70.5815 35.6637 68.751 35.3128C67.939 35.1017 67.237 34.6797 66.5672 34.1521C63.8215 36.2624 60.126 37.6021 56.7472 35.9115C55.091 35.1361 54.4579 33.3423 54.3891 31.6173C54.2468 28.6949 55.5154 25.8804 58.19 24.683C58.8942 24.2609 59.704 24.683 60.3027 24.9995C60.9725 25.6326 61.2179 26.4791 60.9725 27.392C60.8686 27.7504 60.628 28.0535 60.3027 28.2362C59.6329 27.8508 58.7887 27.7797 58.19 28.3073C57.2036 29.1881 56.9949 30.4566 57.2747 31.6862C57.4147 32.356 57.839 33.0946 58.541 33.3767C61.1812 34.4686 63.8559 33.0602 65.7942 31.193C65.8286 28.8693 66.7095 26.3713 68.9965 25.2794C69.8773 25.4904 69.9484 26.5479 70.0883 27.2865C70.1572 28.9748 69.2075 30.2433 68.8198 31.7573C69.2763 32.4271 69.9805 32.2849 70.6847 32.1793C71.951 31.6518 73.4305 30.7365 73.6415 29.2225C74.1691 28.3073 74.1347 27.0755 75.261 26.4424C75.7542 26.3368 76.4928 26.2313 76.775 26.8667C77.3026 28.0618 76.6695 29.4359 76.2818 30.5966C76.3873 31.1953 75.9996 31.7229 76.5984 32.0394C77.759 32.2505 78.6399 31.3696 79.6607 31.0186C82.5487 29.2936 85.7165 26.9355 89.2697 28.1329C90.6781 28.6972 91.0314 30.1745 91.3135 31.4407C91.2447 33.0556 90.646 34.5696 89.2032 35.4848ZM49.4962 35.5559C46.9615 36.5767 43.5459 37.352 41.1167 35.7326C39.7427 34.7806 39.5683 33.0923 39.956 31.6151C40.0982 31.2274 40.3437 30.9108 40.3781 30.4888C40.1326 30.3121 39.745 30.5232 39.5316 30.3465C39.3206 27.7063 40.869 25.1004 43.2294 24.0109C46.1151 22.8135 49.3907 23.7998 51.6066 25.7703C52.6618 27.3186 53.717 29.0092 53.2972 31.0852C52.9806 33.1267 51.1134 34.604 49.4962 35.5559ZM50.5147 30.2387C50.0926 28.4426 48.4387 27.1397 46.7138 26.7887C47.0647 27.2108 47.3469 27.6673 47.3836 28.2316C47.3358 28.5437 47.2194 28.8413 47.0429 29.103C46.8664 29.3648 46.6342 29.5842 46.3628 29.7455C44.9544 29.5345 43.6514 30.6264 42.9128 31.7527C42.9128 32.317 42.4884 32.9501 43.055 33.3722C44.8488 34.3241 46.9615 33.4433 48.6498 32.879C49.4595 32.2826 50.7624 31.5072 50.5147 30.2387ZM44.9199 26.791C44.6011 26.5456 44.2501 26.8621 43.8992 26.8621C43.406 27.2131 42.5618 27.4953 42.4907 28.1284C43.2294 27.5641 44.179 27.2131 44.9199 26.791ZM30.6612 36.9988C27.9499 38.1962 24.4655 39.8868 21.5087 38.1962C21.2976 37.703 20.91 37.1754 21.1921 36.5767C21.2976 35.9436 22.0363 35.3105 22.635 35.0627C23.2681 34.9916 22.9859 35.767 23.4791 35.978C26.5781 36.8933 29.0762 34.815 31.5077 33.3722C34.7466 30.8718 37.5979 27.3874 36.8937 22.9878C35.4485 18.306 30.1336 17.955 25.9106 17.4963C24.2911 17.4596 23.1648 17.8472 21.5087 17.8128C21.0866 17.4963 20.4879 17.4618 20.2402 16.8976C19.9236 15.1726 21.7908 14.6083 22.8804 13.9407C25.133 12.8489 27.9499 10.844 27.8443 7.95603C27.868 7.5844 27.804 7.21241 27.6573 6.87011C27.5107 6.52782 27.2856 6.22482 27.0002 5.98559C24.6421 3.83853 20.7356 4.78819 17.8109 5.06804C12.7094 6.09111 7.70872 7.60507 3.69444 11.0551C2.8847 11.8625 3.94217 14.8927 1.58407 13.9407C0.668816 13.6953 0.668816 12.6011 0.492188 11.8304C0.597706 9.01351 3.30907 7.28851 5.45613 5.98559C10.3146 3.02879 16.0171 2.04242 21.9307 1.62035C24.6765 1.58594 28.1265 1.90249 29.8171 4.64826C31.2255 7.00637 30.8034 10.1031 29.2184 12.2502C28.7596 13.1654 27.67 13.9063 27.1057 14.7138C27.8099 14.9248 28.794 14.9248 29.6404 15.0303C33.2304 15.4524 36.9992 16.8264 38.8274 20.2053C40.729 24.1118 39.2839 29.1812 36.4693 32.4546C34.6044 34.1475 32.7739 35.9413 30.6612 36.9988Z" fill="white"/>
<path id="Vector_3" d="M14.6085 16.405C13.2712 22.9173 12.2848 29.5007 12.4959 36.4007C12.2137 37.1049 11.404 37.2104 10.8076 36.9994C9.25921 36.7883 9.75239 35.1344 9.53906 34.0425C9.68128 26.2984 10.5965 18.5543 12.6381 11.5832C12.8147 11.1956 13.0602 10.9134 13.3423 10.5625C13.9754 10.2803 14.6452 10.6313 15.0329 11.1612C16.0858 12.8494 14.854 14.7144 14.6085 16.405Z" fill="white"/>
</g>
</g>
<defs>
<clipPath id="clip0_805_2448">
<rect width="201.22" height="50" fill="white" transform="translate(0.492188)"/>
</clipPath>
</defs>
</svg>
