<svg width="309" height="56" viewBox="0 0 309 56" fill="none" xmlns="http://www.w3.org/2000/svg">
<g clip-path="url(#clip0_255_539)">
<path d="M38.4128 34.2403L49.6536 0.655212H62.4529L42.9307 54.4493H29.8413L27.6611 23.9701L16.0472 54.4493H2.94951L0.24707 0.655212H12.5655L13.3033 34.0912L25.655 0.655212H36.415L38.4128 34.2403Z" fill="white"/>
<path d="M72.2511 54.4493H59.6011L68.9601 0.655212H81.5687L72.2511 54.4493Z" fill="white"/>
<path d="M109.339 39.8889C109.878 37.106 108.377 34.9526 104.829 33.4204L98.7611 30.9108C90.2559 27.0926 86.2105 21.8913 86.6333 15.3151C86.8074 12.3086 87.8436 9.63336 89.742 7.28116C91.6403 4.92896 94.2681 3.09856 97.6172 1.79822C100.966 0.489605 104.63 -0.131574 108.601 -0.0901616C113.923 0.00922707 118.209 1.55803 121.45 4.56454C124.691 7.57105 126.291 11.5963 126.241 16.6485H113.666C113.741 14.5779 113.301 12.9215 112.356 11.6791C111.403 10.4368 109.844 9.79073 107.681 9.74103C105.559 9.69134 103.685 10.1883 102.06 11.2153C100.436 12.2423 99.474 13.642 99.1756 15.3896C98.7031 17.8495 100.535 19.8704 104.663 21.4523C108.792 23.026 111.793 24.3843 113.666 25.519C119.56 29.039 122.32 33.7931 121.947 39.7813C121.748 42.8872 120.754 45.6038 118.955 47.9477C117.156 50.2916 114.661 52.0972 111.469 53.381C108.278 54.6647 104.697 55.2776 100.726 55.2279C97.8161 55.1782 95.1137 54.7227 92.6268 53.8613C90.1399 53 88.0011 51.741 86.2271 50.0928C82.6294 46.7716 80.9051 42.3985 81.0461 36.9735L93.7293 37.0067C93.5801 39.7647 94.1106 41.8519 95.3209 43.2682C96.5312 44.6844 98.5622 45.3967 101.422 45.3967C103.544 45.3967 105.31 44.9081 106.728 43.939C108.145 42.97 109.015 41.62 109.339 39.8972V39.8889Z" fill="white"/>
<path d="M219.426 10.6686H203.742L196.157 54.4493H183.474L191.092 10.6686H175.673L177.447 0.655212H221.159L219.418 10.6686H219.426Z" fill="#F7941D"/>
<path d="M281.814 55.1863C276.219 55.0621 271.734 53.2151 268.352 49.6454C264.978 46.0757 263.063 41.2968 262.624 35.3086C262.375 32.3518 262.607 28.8732 263.328 24.8728C264.041 20.8724 265.31 17.1784 267.133 13.8075C268.957 10.4366 271.237 7.62885 273.972 5.38432C278.556 1.61583 283.837 -0.206301 289.797 -0.0820652C293.47 -0.00752372 296.678 0.837278 299.43 2.45234C302.182 4.06741 304.379 6.38648 306.028 9.41784C307.678 12.4492 308.64 15.8947 308.913 19.7626C309.112 22.4957 308.946 25.6099 308.416 29.0885C307.885 32.5754 306.915 35.8966 305.498 39.0605C304.08 42.2244 302.248 45.0156 300.01 47.4257C297.764 49.8359 295.119 51.7574 292.077 53.1737C289.035 54.59 285.611 55.2609 281.814 55.1863ZM296.238 19.6383C295.99 13.4845 293.602 10.2792 289.068 10.0307C285.57 9.85681 282.668 11.2482 280.38 14.1885C278.084 17.1287 276.575 21.477 275.829 27.2167C275.357 30.7616 275.191 33.5113 275.315 35.4577C275.564 41.7109 277.976 44.9327 282.56 45.0984C285.57 45.2475 288.156 44.1707 290.328 41.8682C292.5 39.5657 294.066 36.2114 295.028 31.8217C295.99 27.432 296.396 23.3654 296.247 19.6466L296.238 19.6383Z" fill="#F7941D"/>
<path d="M245.149 54.4493H258.313L248.365 0.655212H236.461L218.581 34.3894H209.445C207.431 34.3894 209.412 39.2346 214.436 42.2163L207.953 54.4576H221.896L226.621 44.5022H243.872L245.157 54.4576L245.149 54.4493ZM240.192 15.8368L242.563 34.3811H231.396L240.2 15.8368H240.192Z" fill="#F7941D"/>
<path d="M169.846 10.6686L171.587 0.655212H135.46L131.738 22.1232H123.946C121.816 22.1232 124.377 27.5316 130.371 30.0494L126.143 54.4576H162.203L163.944 44.4856H140.534L142.789 31.6314H162.576L164.242 22.0238H144.422L146.419 10.6769H169.863L169.846 10.6686Z" fill="white"/>
</g>
<defs>
<clipPath id="clip0_255_539">
<rect width="308.035" height="54.8726" fill="white" transform="translate(0.24707 0.355225)"/>
</clipPath>
</defs>
</svg>
