<svg width="44" height="45" viewBox="0 0 44 45" fill="none" xmlns="http://www.w3.org/2000/svg">
<path d="M24.9707 37.3493H5.34084C3.34448 37.3493 1.72534 35.7301 1.72534 33.7338V5.34083C1.72534 3.34448 3.34448 1.72534 5.34084 1.72534H33.7338C35.7301 1.72534 37.3493 3.34448 37.3493 5.34083V24.7299" stroke="white" stroke-width="2" stroke-linecap="round" stroke-linejoin="round"/>
<path d="M17.3538 8.59375H31.5372" stroke="white" stroke-width="2" stroke-linecap="round" stroke-linejoin="round"/>
<path d="M17.3538 15.9697H31.5372" stroke="white" stroke-width="2" stroke-linecap="round" stroke-linejoin="round"/>
<path d="M17.3857 30.4811H21.1173" stroke="white" stroke-width="2" stroke-linecap="round" stroke-linejoin="round"/>
<path d="M37.8369 42.4129L21.7007 26.2766L21.1174 21.5237L25.8704 22.1069L42.0066 38.2432C43.1586 39.3951 43.1586 41.2609 42.0066 42.4129C40.8547 43.5648 38.9889 43.5648 37.8369 42.4129Z" stroke="white" stroke-width="2" stroke-linecap="round" stroke-linejoin="round"/>
<path d="M38.9192 35.1586L34.7495 39.3283" stroke="white" stroke-width="2" stroke-linecap="round" stroke-linejoin="round"/>
<path d="M7.021 8.28608L8.91289 10.1432L12.3021 7.04126" stroke="white" stroke-width="2" stroke-linecap="round" stroke-linejoin="round"/>
<path d="M7.021 15.6623L8.91289 17.5223L12.3021 14.4175" stroke="white" stroke-width="2" stroke-linecap="round" stroke-linejoin="round"/>
<path d="M7.021 22.7683L8.91289 24.6283L12.3021 21.5264" stroke="white" stroke-width="2" stroke-linecap="round" stroke-linejoin="round"/>
<path d="M7.021 29.8775L8.91289 31.7375L12.3021 28.6327" stroke="white" stroke-width="2" stroke-linecap="round" stroke-linejoin="round"/>
</svg>
