<svg width="65" height="51" viewBox="0 0 65 51" fill="none" xmlns="http://www.w3.org/2000/svg">
<g clip-path="url(#clip0_4480_13481)">
<path d="M16.39 28.91C16.47 28.78 16.63 28.42 16.41 28.02C16.22 27.67 15.96 27.52 15.55 27.52H5.00003C3.80003 27.52 2.60003 27.52 1.40003 27.52C0.940026 27.52 0.700026 27.84 0.630026 27.97C0.550026 28.11 0.390026 28.47 0.620026 28.87C0.810026 29.21 1.06003 29.35 1.47003 29.35H6.16003H12.07C13.25 29.35 14.44 29.35 15.62 29.35C16.08 29.36 16.31 29.05 16.39 28.91Z" fill="#F7941D" stroke="#F7941D" stroke-miterlimit="10"/>
<path d="M17.15 37.7902C17.42 37.7902 17.68 37.6602 17.85 37.4302C18.02 37.2002 18.08 36.9202 18.01 36.6502C17.9 36.2302 17.55 35.9602 17.13 35.9502H14.04H5.07003C4.66003 35.9502 4.29003 36.2302 4.19003 36.6202C4.08003 37.0302 4.25003 37.4502 4.62003 37.6702C4.76003 37.7502 4.98003 37.7602 5.14003 37.7902H9.61003H14.47C15.35 37.8002 16.25 37.8002 17.15 37.7902Z" fill="#F7941D" stroke="#F7941D" stroke-miterlimit="10"/>
<path d="M5.14001 20.9801H17.14C17.55 20.9701 17.91 20.6901 18.01 20.2901C18.11 19.8901 17.95 19.4801 17.59 19.2701C17.44 19.1801 17.27 19.1401 17.04 19.1401H8.70001H7.63001H5.06001C4.68001 19.1401 4.34001 19.3701 4.21001 19.7301C4.07001 20.0901 4.17001 20.4801 4.46001 20.7401C4.64001 20.9101 4.84001 21.0001 5.14001 20.9801Z" fill="#F7941D" stroke="#F7941D" stroke-miterlimit="10"/>
<path d="M10.8399 12.6399C10.9999 12.7499 11.1599 12.8199 11.4599 12.7999H21.3499C21.4699 12.7999 21.5899 12.7999 21.6999 12.7799C22.0999 12.7299 22.4199 12.4299 22.4899 12.0099C22.5599 11.6399 22.3599 11.2399 22.0099 11.0599C21.8599 10.9799 21.6899 10.9399 21.4699 10.9399H11.4599C10.9099 10.9599 10.5599 11.2199 10.4399 11.6099C10.3599 12.0099 10.4999 12.4099 10.8399 12.6399Z" fill="#F7941D" stroke="#F7941D" stroke-miterlimit="10"/>
<path d="M21.8001 44.0901C21.6901 44.0601 21.5501 44.0601 21.4401 44.0601H11.5001H11.3401C10.9501 44.0801 10.7001 44.2401 10.5301 44.5701C10.3601 44.9001 10.3801 45.1801 10.5901 45.5001C10.7801 45.7801 11.0201 45.9101 11.3801 45.9101H14.7701H19.8001C20.4001 45.9101 21.0101 45.9101 21.6101 45.9101C22.0701 45.9101 22.4701 45.5501 22.5101 45.1001C22.5601 44.6101 22.2601 44.1901 21.8001 44.0901Z" fill="#F7941D" stroke="#F7941D" stroke-miterlimit="10"/>
<path d="M43.1601 0.5C44.4801 0.5 45.8001 0.5 47.1201 0.5C47.7501 0.5 48.2601 0.9 48.4101 1.5C48.4401 1.62 48.4501 1.74 48.4501 1.86C48.4501 2.28 48.4401 2.7 48.4501 3.12C48.4701 3.79 47.9501 4.48 47.0801 4.48C44.4501 4.48 41.8301 4.48 39.2001 4.48C38.4301 4.48 37.8601 3.9 37.8501 3.13C37.8501 2.7 37.8501 2.28 37.8501 1.85C37.8601 1.08 38.4301 0.51 39.2101 0.51C40.5301 0.5 41.8501 0.5 43.1601 0.5Z" fill="white" stroke="white" stroke-miterlimit="10"/>
<path d="M42.6699 27.2099C42.6699 23.0099 42.6699 18.8199 42.6699 14.6099C42.9999 14.6099 43.3099 14.6099 43.6499 14.6099C43.6599 15.0299 43.6499 15.4399 43.6599 15.8599C43.6599 16.2799 43.6599 16.6999 43.6599 17.1199C43.6599 17.5399 43.6599 17.9599 43.6599 18.3799C43.6599 18.7999 43.6599 19.2199 43.6599 19.6399C43.6599 20.0699 43.6599 20.4899 43.6599 20.9199C43.6599 21.3399 43.6599 21.7599 43.6599 22.1799C43.6599 22.5999 43.6599 23.0199 43.6599 23.4399C43.6599 23.8599 43.6599 24.2799 43.6599 24.6999C43.6599 25.1199 43.6599 25.5399 43.6599 25.9599C43.6599 26.3799 43.6599 26.7999 43.6599 27.2299C44.3699 27.4199 44.8999 27.8099 45.2299 28.4499C45.4899 28.9499 45.5399 29.4799 45.4199 30.0299C45.1799 31.0899 44.1899 31.8599 43.0899 31.8099C41.9399 31.7599 41.0499 30.9599 40.8699 29.8099C40.6899 28.6499 41.3599 27.6699 42.6699 27.2099Z" fill="white" stroke="white" stroke-miterlimit="10"/>
<path d="M45.1201 25.9498C46.4401 24.6298 47.7501 23.3198 49.0401 22.0298C49.5601 22.5498 50.1001 23.0898 50.6201 23.6098C49.3401 24.8898 48.0301 26.1998 46.7001 27.5198C46.5401 27.2098 46.3801 26.8498 46.1101 26.5598C45.8301 26.2698 45.4801 26.0998 45.1201 25.9498Z" fill="white" stroke="white" stroke-miterlimit="10"/>
<path d="M42.8301 49.1499C54.0194 49.1499 63.0901 40.0792 63.0901 28.8899C63.0901 17.7006 54.0194 8.62988 42.8301 8.62988C31.6408 8.62988 22.5701 17.7006 22.5701 28.8899C22.5701 40.0792 31.6408 49.1499 42.8301 49.1499Z" stroke="white" stroke-width="2" stroke-miterlimit="10" stroke-linejoin="round"/>
</g>
<defs>
<clipPath id="clip0_4480_13481">
<rect width="64.09" height="50.15" fill="white"/>
</clipPath>
</defs>
</svg>
