<svg width="533" height="537" viewBox="0 0 533 537" fill="none" xmlns="http://www.w3.org/2000/svg">
<path d="M62.2074 77.6276C62.2074 77.6276 -12.4355 137.226 1.80654 219.914C16.0485 302.602 49.6468 276.523 118.444 329.659C187.242 382.795 227.549 420.394 297.924 379.728C368.299 339.061 441.097 347.281 480.947 273.949C520.796 200.63 546.667 185.085 525.327 109.212C504.003 33.352 376.289 -14.585 249.101 5.46805C121.897 25.5211 62.2074 77.6276 62.2074 77.6276Z" fill="url(#paint0_linear_7754_14742)"/>
<path d="M102.071 442.15C59.307 463.825 59.312 498.964 102.071 520.639C144.836 542.313 214.169 542.313 256.929 520.639C299.693 498.964 299.688 463.825 256.929 442.15C214.164 420.476 144.831 420.476 102.071 442.15Z" fill="url(#paint1_linear_7754_14742)"/>
<g clip-path="url(#clip0_7754_14742)">
<path d="M216.919 266.708C214.474 325.488 210.692 415.887 208.54 473.998L196.299 474.172C194.027 439.795 190.779 405.472 187.225 371.19C183.71 336.893 179.888 302.57 175.691 268.368L216.919 266.708Z" fill="url(#paint2_linear_7754_14742)"/>
<path d="M215.864 266.534C211.106 273.91 207.23 281.768 203.208 289.625C182.641 331.324 166.23 375.473 152.532 419.97C147.039 437.975 142.241 456.18 137.978 474.506L128.303 472.779C128.971 468.094 129.559 463.395 130.134 458.697C137.764 396.945 145.101 334.805 158.706 273.936C160.67 264.968 163.022 255.302 165.548 246.414L165.842 245.423L166.243 244.205L215.85 266.507L215.864 266.534Z" fill="url(#paint3_linear_7754_14742)"/>
<path d="M228.011 484.479L195.951 484.894C194.441 484.921 193.198 483.716 193.171 482.19L193.064 476.448C193.105 474.025 194.708 471.642 197.02 471.146C197.02 471.146 213.271 472.927 219.699 474.466C226.581 476.126 230.484 477.545 230.831 478.509C231.98 481.775 230.109 484.051 228.025 484.466L228.011 484.479Z" fill="url(#paint4_linear_7754_14742)"/>
<path d="M158.947 484.479L126.887 484.894C125.376 484.921 124.134 483.716 124.107 482.19L124 476.448C124.04 474.025 125.644 471.642 127.956 471.146C127.956 471.146 144.206 472.927 150.634 474.466C157.517 476.126 161.419 477.545 161.767 478.509C162.916 481.775 161.045 484.051 158.96 484.466L158.947 484.479Z" fill="url(#paint5_linear_7754_14742)"/>
<path d="M265.858 208.664C270.241 227.606 275.493 246.32 280.946 264.967C282.71 269.452 287.788 282.209 290.822 289.371C294.31 297.697 297.905 305.984 301.74 314.163C303.611 318.085 301.968 322.784 298.052 324.658C293.976 326.639 289.018 324.698 287.361 320.481C283.926 312.141 280.264 303.882 276.496 295.689C272.727 287.47 268.798 279.318 264.856 271.179C261.288 261.902 257.693 252.625 253.924 243.415C250.262 234.406 246.48 225.45 242.471 216.589C239.584 210.351 242.297 202.961 248.525 200.07C255.581 196.696 264.254 201.007 265.858 208.664Z" fill="#B5B5B5"/>
<path d="M264.629 203.19L275.107 239.735L253.658 248.597L236.672 202.654L246.641 183.686L256.504 189.107C259.885 191.704 263.226 198.732 264.629 203.19Z" fill="#D69044"/>
<path d="M304.387 323.708C305.028 324.324 305.309 324.833 305.683 325.529C308.182 330.843 308.088 336.947 307.982 342.583C307.875 345.461 303.692 345.769 303.157 342.958C302.141 338.393 301.406 333.4 298.493 329.759C298.466 329.732 298.466 329.759 298.466 329.759C298.466 329.759 298.466 329.772 298.493 329.812C298.52 329.839 298.493 329.839 298.707 330.04C294.618 326.198 300.097 320.054 304.373 323.695L304.387 323.708Z" fill="#B5B5B5"/>
<path d="M307.221 318.313C307.983 318.929 308.303 319.451 308.744 320.187C311.484 325.448 311.725 331.566 312.059 337.269C312.166 340.16 308.009 340.762 307.274 337.991C305.898 333.413 304.855 328.353 301.755 324.739C301.728 324.712 301.742 324.739 301.755 324.766C301.755 324.766 301.755 324.779 301.808 324.832C301.862 324.886 301.808 324.859 302.102 325.1C297.719 321.606 302.664 315.034 307.221 318.3V318.313Z" fill="#B5B5B5"/>
<path d="M299.656 322.771C302.236 327.737 302.837 333.44 302.944 338.915C302.663 341.391 303.866 346.317 300.137 346.304C298.948 346.21 298.026 345.3 297.906 344.149C297.211 338.419 295.981 332.221 292.627 327.563C289.593 322.837 296.382 318.206 299.656 322.771Z" fill="#B5B5B5"/>
<path d="M295.606 322.355C297.237 329.45 298.105 336.518 298.547 343.734C298.627 345.072 297.598 346.224 296.261 346.304C295.058 346.371 294.016 345.554 293.749 344.416C292.96 341.083 292.052 337.777 291.023 334.537C290.02 331.391 288.844 328.058 287.561 325.086C285.33 319.357 293.909 316.439 295.62 322.355H295.606Z" fill="#E3A5A2"/>
<path d="M285.571 317.951C285.517 312.797 293.683 306.64 293.683 306.64C302.596 309.089 306.071 313.346 307.715 316.505L306.191 328.393C306.191 328.393 301.019 330.173 301.006 330.173C298.761 330.95 296.262 331.552 293.896 330.963C290.676 330.16 285.611 322.811 285.571 317.951Z" fill="#B5B5B5"/>
<path d="M309.132 325.408C307.756 320.816 304.321 318.581 299.617 318.982C293.964 318.661 294.178 310.428 299.844 310.401C305.497 310.883 311.083 314.431 313.048 319.866C313.81 322.195 315.6 327.068 311.792 327.549C310.429 327.643 309.426 326.626 309.132 325.394V325.408Z" fill="#B5B5B5"/>
<path fill-rule="evenodd" clip-rule="evenodd" d="M256.584 404.254C256.584 404.254 256.583 404.254 256.583 404.254C252.975 404.736 249.393 404.027 246.239 402.193C244.435 401.144 242.905 399.801 241.675 398.259C237.572 393.133 236.795 385.794 240.28 379.771C240.574 379.262 240.908 378.753 241.269 378.258L337.597 247.124C338.813 245.477 340.59 244.42 342.621 244.152C344.532 243.898 346.457 244.393 348.007 245.544C351.054 247.793 351.936 251.983 350.038 255.303L268.612 396.209C268.472 396.45 268.328 396.686 268.178 396.917C265.922 400.415 262.493 402.874 258.502 403.886C257.876 404.045 257.236 404.169 256.584 404.255V404.254Z" fill="url(#paint6_linear_7754_14742)"/>
<path d="M399.44 262.052C448.34 259.417 485.849 217.572 483.217 168.589C480.586 119.606 438.811 82.0344 389.911 84.6701C341.011 87.3058 303.502 129.151 306.133 178.133C308.765 227.116 350.539 264.688 399.44 262.052Z" fill="url(#paint7_linear_7754_14742)"/>
<path opacity="0.33" d="M482.383 186.283C483.572 178.077 483.625 169.777 482.543 161.651C429.354 183.23 376.754 206.898 322.229 224.568C325.409 229.093 329.044 233.349 333.107 237.285C383.743 223.082 433.444 205.693 482.383 186.283Z" fill="white"/>
<path opacity="0.33" d="M312.646 207.072C338.385 198.986 363.923 190.272 389.208 180.821C418.876 169.723 448.344 155.025 479.161 146.498C475.326 134.383 468.911 123.018 460.064 113.366C433.336 123.888 407.303 136.27 380.882 147.569C356.266 158.09 331.275 167.702 306.084 176.765C306.485 187.166 308.717 197.433 312.646 207.072Z" fill="white"/>
<path opacity="0.45" d="M408.813 125.052C403.962 132.468 394.019 134.557 386.615 129.697C379.212 124.838 377.127 114.878 381.978 107.462C386.829 100.046 396.772 97.958 404.175 102.817C411.579 107.677 413.664 117.636 408.813 125.052Z" fill="white"/>
<path d="M407.932 273.963C383.917 277.149 359.501 271.581 339.201 258.274C292.467 227.633 279.33 164.622 309.92 117.81C326.078 93.0717 352.137 76.6599 381.418 72.7644C405.433 69.5784 429.849 75.1472 450.149 88.4667C472.787 103.312 488.303 126.096 493.836 152.628C499.368 179.16 494.25 206.254 479.429 228.931C463.272 253.656 437.212 270.068 407.932 273.963ZM383.436 88.0785C358.619 91.3716 336.515 105.294 322.817 126.257C296.877 165.948 308.023 219.373 347.647 245.356C364.86 256.641 385.561 261.367 405.927 258.663C430.744 255.37 452.848 241.448 466.546 220.484C479.109 201.261 483.452 178.277 478.761 155.787C474.07 133.298 460.92 113.981 441.73 101.385C424.517 90.0999 403.816 85.3745 383.449 88.0785H383.436Z" fill="url(#paint8_linear_7754_14742)"/>
<path d="M443.225 99.0552C402.251 72.1885 347.298 83.6875 320.49 124.731C293.668 165.773 305.148 220.819 346.122 247.685C387.096 274.552 442.049 263.053 468.87 222.01C495.692 180.967 484.212 125.922 443.238 99.0552H443.225ZM466.531 220.471C452.833 241.434 430.743 255.356 405.912 258.649C385.546 261.353 364.845 256.628 347.632 245.343C308.008 219.36 296.876 165.934 322.802 126.243C336.5 105.28 358.591 91.358 383.421 88.0649C403.788 85.3609 424.488 90.0863 441.701 101.371C460.892 113.954 474.055 133.271 478.733 155.774C483.424 178.263 479.08 201.248 466.518 220.471H466.531Z" fill="url(#paint9_linear_7754_14742)"/>
<path d="M216.296 298.363C220.385 261.443 261.012 202.141 261.012 202.141C263.752 196.452 260.063 188.313 245.456 183.079L218.167 172.075C211.645 169.465 206.607 170.857 199.284 179.558C199.284 179.558 170.311 207.589 157 280.305C174.373 288.872 191.746 294.615 216.283 298.363H216.296Z" fill="#F4A046"/>
<path d="M225.126 177.527C225.126 177.527 223.963 183.605 230.926 186.389C237.888 189.173 241.229 183.966 241.229 183.966C241.229 183.966 242.579 173.966 249.301 165.68C249.114 160.674 237.928 155.105 232.329 159.442C230.525 168.304 225.126 177.527 225.126 177.527Z" fill="#CDCDCD"/>
<path d="M262.892 128.412C262.892 128.412 270.723 147.648 259.925 157.768L256.504 156.671L262.892 128.398V128.412Z" fill="url(#paint10_linear_7754_14742)"/>
<path d="M266.608 151.009C264.496 156.618 260.26 160.219 257.133 159.041C254.006 157.863 253.191 152.361 255.302 146.739C257.414 141.13 261.65 137.529 264.777 138.707C267.904 139.885 268.72 145.387 266.608 151.009Z" fill="#CDCDCD"/>
<path d="M219.313 120.541C224.832 114.276 232.677 110.622 241.083 111.278C241.364 111.305 241.658 111.345 241.938 111.371C242.232 111.371 242.526 111.385 242.807 111.412C251.213 112.081 254.46 111.84 259.164 118.747C265.245 127.649 261.369 143.686 260.968 148.88C259.806 163.592 257.48 174.02 243.836 172.869C229.55 171.664 215.905 160.754 216.253 145.413C216.373 140.206 215.878 124.463 219.326 120.555L219.313 120.541Z" fill="#CDCDCD"/>
<path d="M262.545 134.905C277.86 129.644 265.539 110.354 252.95 105.722C232.543 98.2256 217.589 100.033 214.862 112.656C214.862 112.656 204.225 120.956 210.132 134.382C210.132 134.382 203.926 160.935 222.502 162.395C222.502 162.395 219.032 158.398 216.039 147.809C216.039 147.809 227.799 141.41 221.852 125.039C221.852 125.039 247.217 140.152 262.532 134.891L262.545 134.905Z" fill="url(#paint11_linear_7754_14742)"/>
<path d="M207.472 146.337C208.675 152.213 212.31 156.43 215.584 155.761C218.858 155.091 220.529 149.777 219.326 143.9C218.123 138.024 214.488 133.807 211.214 134.476C207.94 135.145 206.269 140.46 207.472 146.337Z" fill="#CDCDCD"/>
<path d="M225.66 204.675L233.838 261.701L227.49 254.995C238.476 258.221 266.473 266.44 277.071 269.626C279.744 270.429 286.92 272.598 289.513 273.428C290.595 273.762 292.787 274.472 293.856 274.833C298.279 276.293 300.685 281.085 299.215 285.516C297.745 290.014 292.854 292.396 288.417 290.844C287.455 290.536 285.53 289.947 284.555 289.666C277.191 287.497 263.252 283.615 255.715 281.5L222.573 272.357C219.566 271.527 217.361 269.251 216.479 266.48L216.225 265.65L199.279 210.592C197.074 203.43 201.083 195.84 208.233 193.631C216.078 191.128 224.524 196.496 225.633 204.661L225.66 204.675Z" fill="#CDCDCD"/>
<path d="M311.122 276.399C308.944 276.426 306.565 277.564 305.603 279.599C305.269 280.188 305.055 280.884 304.854 281.567C304.173 283.883 301.741 285.208 299.415 284.525C296.221 283.668 295.232 279.344 297.638 277.149C300.257 274.043 304.333 271.808 308.449 272.303C310.053 272.584 313.808 272.973 312.926 275.449C312.606 276.185 311.844 276.44 311.122 276.413V276.399Z" fill="#CDCDCD"/>
<path d="M301.18 274.794C299.109 274.553 296.797 274.352 294.204 275.369C292.306 276.119 289.139 281.326 289.42 283.629C290.101 289.198 293.629 292.906 296.663 295.248C299.109 297.136 302.891 298.822 304.414 299.76C305.136 300.201 305.724 299.211 306.005 298.407L311.096 285.958C307.648 284.004 301.193 274.794 301.193 274.794H301.18Z" fill="#CDCDCD"/>
<path d="M308.944 284.191C313.114 286.119 319.515 286.775 324.647 287.35C325.649 287.444 326.371 288.327 326.277 289.331C326.184 290.255 325.395 290.951 324.486 290.965C318.82 290.911 312.993 290.965 307.461 289.372C306.886 289.171 306.405 289.01 305.844 288.649C302.957 286.56 305.991 282.196 308.958 284.191H308.944Z" fill="#CDCDCD"/>
<path d="M307.862 287.524C311.297 290.295 318.514 290.804 323.592 290.924C325.85 291.018 325.917 294.351 323.659 294.539C318.687 294.887 313.716 295.021 308.825 293.682C306.98 293.133 304.963 292.343 303.599 290.831C301.074 287.872 305.644 284.312 307.876 287.524H307.862Z" fill="#CDCDCD"/>
<path d="M306.218 291.781C310.094 293.427 317.938 293.494 323.311 293.267C324.313 293.226 325.155 294.003 325.195 295.007C325.235 295.944 324.54 296.747 323.632 296.868C318.674 297.497 313.635 298.019 308.57 297.59C306.659 297.363 304.574 297.095 302.851 296.011C299.616 293.775 303.251 289.103 306.218 291.781Z" fill="#CDCDCD"/>
<path d="M301.473 292.276C305.509 297.55 313.795 297.684 319.996 297.242C322.335 297.001 322.789 300.455 320.477 300.83C316.521 301.459 312.459 301.807 308.449 301.191C304.106 300.562 299.348 298.768 296.729 294.94C295.059 291.767 299.642 289.21 301.46 292.289L301.473 292.276Z" fill="#CDCDCD"/>
<path d="M203.65 237.217H231.38L227.892 202.198L206.069 175.318C206.069 175.318 185.341 189.013 203.65 237.217Z" fill="#F4A046"/>
<path d="M228.173 204.996C230.765 215.504 232.008 226.388 231.38 237.217C228.627 226.736 227.705 215.826 228.173 204.996Z" fill="#C48139"/>
<path d="M203.649 237.217C196.513 222.706 192.477 204.059 197.929 188.41C195.404 204.929 199.453 221.314 203.649 237.217Z" fill="#C48139"/>
</g>
<defs>
<linearGradient id="paint0_linear_7754_14742" x1="266.5" y1="0.894531" x2="272.522" y2="310.356" gradientUnits="userSpaceOnUse">
<stop stop-color="#E5EDF3" stop-opacity="0.2"/>
<stop offset="1" stop-color="#1F232A" stop-opacity="0"/>
</linearGradient>
<linearGradient id="paint1_linear_7754_14742" x1="179.5" y1="425.895" x2="179.5" y2="536.895" gradientUnits="userSpaceOnUse">
<stop stop-color="#E5EDF3" stop-opacity="0.2"/>
<stop offset="1" stop-color="#1F232A" stop-opacity="0"/>
</linearGradient>
<linearGradient id="paint2_linear_7754_14742" x1="196" y1="650.895" x2="203" y2="292.895" gradientUnits="userSpaceOnUse">
<stop stop-color="#E5EDF3"/>
<stop offset="1" stop-color="#1F232A"/>
</linearGradient>
<linearGradient id="paint3_linear_7754_14742" x1="98.498" y1="627.895" x2="171.998" y2="273.895" gradientUnits="userSpaceOnUse">
<stop stop-color="#E5EDF3"/>
<stop offset="1" stop-color="#1F232A"/>
</linearGradient>
<linearGradient id="paint4_linear_7754_14742" x1="207.498" y1="425.895" x2="212.123" y2="484.895" gradientUnits="userSpaceOnUse">
<stop stop-color="#E5EDF3"/>
<stop offset="1" stop-color="#1F232A"/>
</linearGradient>
<linearGradient id="paint5_linear_7754_14742" x1="133" y1="431.395" x2="143.059" y2="484.895" gradientUnits="userSpaceOnUse">
<stop stop-color="#E5EDF3"/>
<stop offset="1" stop-color="#1F232A"/>
</linearGradient>
<linearGradient id="paint6_linear_7754_14742" x1="177" y1="497.895" x2="344.947" y2="244.087" gradientUnits="userSpaceOnUse">
<stop stop-color="#E5EDF3"/>
<stop offset="1" stop-color="#1F232A"/>
</linearGradient>
<linearGradient id="paint7_linear_7754_14742" x1="389.911" y1="84.6701" x2="399.472" y2="262.05" gradientUnits="userSpaceOnUse">
<stop stop-color="#E5EDF3" stop-opacity="0.2"/>
<stop offset="1" stop-color="#1F232A" stop-opacity="0"/>
</linearGradient>
<linearGradient id="paint8_linear_7754_14742" x1="516.002" y1="-5.60547" x2="273.002" y2="306.395" gradientUnits="userSpaceOnUse">
<stop stop-color="#E5EDF3"/>
<stop offset="1" stop-color="#1F232A"/>
</linearGradient>
<linearGradient id="paint9_linear_7754_14742" x1="243" y1="331.895" x2="440.5" y2="67.3945" gradientUnits="userSpaceOnUse">
<stop stop-color="#E5EDF3"/>
<stop offset="1" stop-color="#1F232A"/>
</linearGradient>
<linearGradient id="paint10_linear_7754_14742" x1="252.5" y1="46.8945" x2="261.07" y2="157.768" gradientUnits="userSpaceOnUse">
<stop stop-color="#E5EDF3"/>
<stop offset="1" stop-color="#1F232A"/>
</linearGradient>
<linearGradient id="paint11_linear_7754_14742" x1="90.502" y1="-131.105" x2="239.004" y2="161.678" gradientUnits="userSpaceOnUse">
<stop stop-color="#E5EDF3"/>
<stop offset="1" stop-color="#1F232A"/>
</linearGradient>
<clipPath id="clip0_7754_14742">
<rect width="372" height="413" fill="white" transform="translate(124 71.8945)"/>
</clipPath>
</defs>
</svg>
