<svg width="64" height="68" viewBox="0 0 64 68" fill="none" xmlns="http://www.w3.org/2000/svg">
<g clip-path="url(#clip0_4255_13520)">
<path d="M54.1304 61.5901C58.7504 61.1801 62.3704 57.2901 62.3704 52.5701C62.3704 48.1801 59.2504 44.5301 55.1204 43.6901C54.3304 39.4901 50.6504 36.3201 46.2204 36.3201C42.5904 36.3201 39.4604 38.4601 38.0204 41.5501C37.4204 41.3801 36.7804 41.2801 36.1204 41.2801C32.4004 41.2801 29.3804 44.2501 29.2904 47.9601H29.2804C25.5004 47.9601 22.4404 51.0201 22.4404 54.8001C22.4404 58.1101 24.7804 60.8601 27.9004 61.5001" stroke="white" stroke-width="2" stroke-miterlimit="10" stroke-linecap="round" stroke-linejoin="round"/>
<path d="M32.0605 63.1902V67.3902C32.0605 67.6702 32.2905 67.9002 32.5705 67.9002H50.4605C50.7405 67.9002 50.9705 67.6702 50.9705 67.3902V63.1902C50.9705 62.9102 50.7405 62.6802 50.4605 62.6802H32.5705C32.2905 62.6802 32.0605 62.9002 32.0605 63.1902ZM35.0105 66.6002H33.8705V63.8102H35.0105V66.6002ZM37.3805 66.6002H36.2405V63.8102H37.3805V66.6002ZM47.8605 66.5902C47.0905 66.5902 46.4705 65.9702 46.4705 65.2002C46.4705 64.4302 47.0905 63.8102 47.8605 63.8102C48.6305 63.8102 49.2505 64.4302 49.2505 65.2002C49.2505 65.9702 48.6305 66.5902 47.8605 66.5902Z" fill="#F7941D"/>
<path d="M32.0605 57.1301V61.3301C32.0605 61.6101 32.2905 61.8401 32.5705 61.8401H50.4605C50.7405 61.8401 50.9705 61.6101 50.9705 61.3301V57.1301C50.9705 56.8501 50.7405 56.6201 50.4605 56.6201H32.5705C32.2905 56.6201 32.0605 56.8501 32.0605 57.1301ZM35.0105 60.5401H33.8705V57.7501H35.0105V60.5401ZM37.3805 60.5401H36.2405V57.7501H37.3805V60.5401ZM47.8605 60.5401C47.0905 60.5401 46.4705 59.9201 46.4705 59.1501C46.4705 58.3801 47.0905 57.7601 47.8605 57.7601C48.6305 57.7601 49.2505 58.3801 49.2505 59.1501C49.2505 59.9201 48.6305 60.5401 47.8605 60.5401Z" fill="#F7941D"/>
<path d="M37.64 14.13V6.73C37.64 3.43 34.96 0.75 31.66 0.75H11L0.75 10.33V46.57C0.75 49.87 3.43 52.55 6.73 52.55H15.79" stroke="white" stroke-width="1.5" stroke-miterlimit="10" stroke-linecap="round" stroke-linejoin="round"/>
<path d="M0.679688 11.31H9.56969C10.3597 11.31 10.9997 10.67 10.9997 9.88003V1.03003" stroke="white" stroke-width="1.5" stroke-miterlimit="10"/>
<path d="M8.5 22.9199H25.54" stroke="white" stroke-width="1.5" stroke-miterlimit="10" stroke-linecap="round" stroke-linejoin="round"/>
<path d="M10.46 28.29H25.54" stroke="white" stroke-width="1.5" stroke-miterlimit="10" stroke-linecap="round" stroke-linejoin="round"/>
<path d="M14.5303 33.6499H25.5403" stroke="white" stroke-width="1.5" stroke-miterlimit="10" stroke-linecap="round" stroke-linejoin="round"/>
<path d="M38.7602 53.78H38.4802C37.8602 53.78 37.3102 53.72 36.8402 53.59C36.3702 53.47 36.0102 53.31 35.7502 53.13C35.4902 52.95 35.2802 52.73 35.1202 52.48C34.9602 52.23 34.8502 51.99 34.8102 51.78C34.7602 51.57 34.7402 51.34 34.7402 51.11V50.9C34.7402 50.66 34.7602 50.44 34.8102 50.23C34.8502 50.02 34.9602 49.79 35.1102 49.54C35.2702 49.29 35.4702 49.08 35.7302 48.9C35.9902 48.72 36.3502 48.57 36.8302 48.45C37.3002 48.33 37.8602 48.27 38.4902 48.27H38.7702C39.2102 48.27 39.6202 48.3 39.9902 48.36C40.3602 48.42 40.6702 48.49 40.9202 48.58C41.1702 48.67 41.3902 48.78 41.5802 48.9C41.7702 49.03 41.9202 49.15 42.0302 49.28C42.1402 49.41 42.2302 49.55 42.3002 49.69C42.3702 49.83 42.4102 49.96 42.4402 50.08C42.4602 50.19 42.4702 50.31 42.4702 50.42V50.51H40.3702C40.2102 49.97 39.6302 49.7 38.6202 49.7C37.4402 49.7 36.8502 50.11 36.8502 50.94V51.03C36.8502 51.19 36.8802 51.34 36.9302 51.48C36.9802 51.62 37.0702 51.76 37.2002 51.9C37.3302 52.04 37.5102 52.15 37.7602 52.23C38.0002 52.31 38.3002 52.35 38.6302 52.35C38.9202 52.35 39.1802 52.32 39.4102 52.27C39.6302 52.22 39.8002 52.16 39.9202 52.09C40.0302 52.02 40.1302 51.94 40.2102 51.84C40.2902 51.74 40.3302 51.67 40.3502 51.63C40.3602 51.59 40.3802 51.54 40.3902 51.49H42.4902V51.6C42.4902 51.76 42.4702 51.93 42.4202 52.09C42.3702 52.26 42.2702 52.45 42.1102 52.66C41.9502 52.87 41.7402 53.06 41.4902 53.22C41.2402 53.38 40.8802 53.51 40.4102 53.62C39.9002 53.72 39.3702 53.78 38.7602 53.78Z" fill="#F7941D"/>
<path d="M42.9404 48.3701H45.2104L48.2904 51.3901V48.3701H50.3004V53.6701H48.2804L44.9604 50.4601V53.6701H42.9504V48.3701H42.9404Z" fill="#F7941D"/>
<path d="M44.9696 27.92H32.0596V20.96H44.9696" stroke="#F7941D" stroke-width="2" stroke-miterlimit="10" stroke-linecap="round" stroke-linejoin="round"/>
<path d="M44.9697 27.92V31.92L54.3897 24.48L44.9697 16.27V20.96" stroke="#F7941D" stroke-width="2" stroke-miterlimit="10" stroke-linecap="round" stroke-linejoin="round"/>
</g>
<defs>
<clipPath id="clip0_4255_13520">
<rect width="63.37" height="67.9" fill="white"/>
</clipPath>
</defs>
</svg>
