<svg width="65" height="65" viewBox="0 0 65 65" fill="none" xmlns="http://www.w3.org/2000/svg">
<g clip-path="url(#clip0_2130_8496)">
<path d="M47.6118 25.819V13.8956C47.6118 12.8783 47.1908 11.9077 46.4463 11.2178L37.3761 2.76343L11.0542 11.5686C9.5613 12.0675 8.55566 13.4668 8.55566 15.0416V62.6924" stroke="white" stroke-width="2" stroke-miterlimit="10" stroke-linecap="round"/>
<path d="M19.3876 8.69983V3.18442C19.3876 1.9644 18.3976 0.970459 17.1737 0.970459C15.9537 0.970459 14.9597 1.9605 14.9597 3.18442V10.259" stroke="white" stroke-width="2" stroke-miterlimit="10" stroke-linecap="round"/>
<path d="M37.3762 2.76343V63.2459" stroke="white" stroke-width="2" stroke-miterlimit="10" stroke-linecap="round"/>
<path d="M14.9636 17.3803L37.3761 9.91992" stroke="white" stroke-width="2" stroke-miterlimit="10" stroke-linecap="round"/>
<path d="M14.9636 26.8369L37.3761 19.3804" stroke="white" stroke-width="2" stroke-miterlimit="10" stroke-linecap="round"/>
<path d="M29.8845 31.3315L37.3761 28.8369" stroke="white" stroke-width="2" stroke-miterlimit="10" stroke-linecap="round"/>
<path d="M14.9636 36.2973L26.1698 32.5671" stroke="white" stroke-width="2" stroke-miterlimit="10" stroke-linecap="round"/>
<path d="M14.9636 45.7578L37.3761 38.2974" stroke="white" stroke-width="2" stroke-miterlimit="10" stroke-linecap="round"/>
<path d="M15.3184 63.2459V55.0839C15.3184 54.3628 15.7978 53.7236 16.4916 53.5248L24.6809 51.1471C25.7216 50.847 26.7585 51.6265 26.7585 52.7062V63.2459" stroke="white" stroke-width="2" stroke-miterlimit="10" stroke-linecap="round"/>
<path d="M0.974365 63.2458H64.0255" stroke="white" stroke-width="2" stroke-miterlimit="10" stroke-linecap="round"/>
<path d="M0.974365 63.2459V55.7154C0.974365 52.297 3.74571 49.5256 7.1641 49.5256H8.55172" stroke="white" stroke-width="2.01607" stroke-miterlimit="10" stroke-linecap="round"/>
<path d="M64.0255 63.2459V54.8111C64.0255 51.8916 61.6595 49.5256 58.74 49.5256C55.8206 49.5256 53.4546 51.8916 53.4546 54.8111V63.2459" stroke="white" stroke-width="2.01607" stroke-miterlimit="10" stroke-linecap="round"/>
<path d="M56.2845 63.2458H37.3762V34.7644H50.4573C53.6769 34.7644 56.2845 37.372 56.2845 40.5916V50.1296" stroke="white" stroke-width="2.01607" stroke-miterlimit="10" stroke-linecap="round"/>
<path d="M42.1394 41.3674H50.8783" stroke="white" stroke-width="2.01607" stroke-miterlimit="10" stroke-linecap="round"/>
<path d="M42.1394 45.4133H50.8783" stroke="white" stroke-width="2.01607" stroke-miterlimit="10" stroke-linecap="round"/>
</g>
<defs>
<clipPath id="clip0_2130_8496">
<rect width="65" height="64.2204" fill="white"/>
</clipPath>
</defs>
</svg>
