<svg width="66" height="65" viewBox="0 0 66 65" fill="none" xmlns="http://www.w3.org/2000/svg">
<path d="M42.5375 30.8059H38.8999C37.243 30.8059 35.8999 29.4627 35.8999 27.8059V20.7285C35.8999 18.8941 37.3869 17.4097 39.2187 17.4097C41.0531 17.4097 42.5375 18.8967 42.5375 20.7285V44.3539C42.5375 48.4882 49.1212 49.5225 49.1212 44.3539V42.9183C49.1212 42.2699 49.6486 41.7425 50.2969 41.7425H63.1811C63.8295 41.7425 64.3569 42.2699 64.3569 42.9183V44.6086C64.3569 46.4017 62.9033 47.8553 61.1101 47.8553H46.2371" stroke="white" stroke-width="2" stroke-linecap="round" stroke-linejoin="round"/>
<path d="M39.4297 17.4097H53.9965C56.2245 17.4097 58.0305 19.2157 58.0305 21.4437V41.7451" stroke="white" stroke-width="2" stroke-linecap="round" stroke-linejoin="round"/>
<path d="M46.8906 23.0234H53.3122" stroke="white" stroke-width="2" stroke-linecap="round" stroke-linejoin="round"/>
<path d="M46.8906 27.3223H53.3122" stroke="white" stroke-width="2" stroke-linecap="round" stroke-linejoin="round"/>
<path d="M46.8906 37.4436H53.3122" stroke="white" stroke-width="2" stroke-linecap="round" stroke-linejoin="round"/>
<path d="M29.0709 3.87847L3.5096 7.11035C2.07046 7.29132 1 8.41424 1 9.73902V55.8809C1 57.2034 2.06537 58.324 3.49943 58.5096L29.0632 61.832C30.6143 62.0338 32 60.9364 32 59.5072V6.20552C32 4.77867 30.6193 3.68358 29.0709 3.87847Z" stroke="white" stroke-width="2" stroke-linecap="round" stroke-linejoin="round"/>
<path d="M45 47.856V57.3626C45 58.1879 44.2938 58.856 43.4213 58.856H33" stroke="white" stroke-width="2" stroke-linecap="round" stroke-linejoin="round"/>
<path d="M32 6.85596H43.3597C44.2663 6.85596 45 7.51102 45 8.32036L45 16.856" stroke="white" stroke-width="2" stroke-linecap="round" stroke-linejoin="round"/>
<path d="M27.8833 35.9102V38.7633C27.8833 39.9611 26.9123 40.9321 25.7145 40.9321V40.9321C24.5167 40.9321 23.5457 39.9611 23.5457 38.7633V36.1571" stroke="white" stroke-width="2" stroke-linecap="round" stroke-linejoin="round"/>
<path d="M23.5457 31.1712V28.192C23.5457 26.9942 24.5167 26.0232 25.7145 26.0232V26.0232C26.9123 26.0232 27.8833 26.9942 27.8833 28.192V31.1738" stroke="white" stroke-width="2" stroke-linecap="round" stroke-linejoin="round"/>
<path d="M25.7144 36.6434C27.4635 36.6434 28.8814 35.2255 28.8814 33.4764C28.8814 31.7273 27.4635 30.3093 25.7144 30.3093C23.9653 30.3093 22.5474 31.7273 22.5474 33.4764C22.5474 35.2255 23.9653 36.6434 25.7144 36.6434Z" stroke="white" stroke-width="2" stroke-linecap="round" stroke-linejoin="round"/>
</svg>
