<svg width="45" height="65" viewBox="0 0 45 65" fill="none" xmlns="http://www.w3.org/2000/svg">
<g clip-path="url(#clip0_4207_13796)">
<path d="M9.84008 63.4799L1.46008 48.3299C0.410077 46.4299 1.24008 44.0499 3.24008 43.2099C5.03008 42.4599 7.10008 43.2499 7.93008 45.0099L11.0801 51.6699V26.2199C11.0801 24.2699 12.6601 22.6799 14.6201 22.6799C16.5701 22.6799 18.1601 24.2599 18.1601 26.2199V51.9699" stroke="white" stroke-width="2" stroke-miterlimit="10" stroke-linecap="round" stroke-linejoin="round"/>
<path d="M23.79 51.8899V39.2299C23.79 37.3899 25.28 35.8999 27.12 35.8999C28.95 35.8999 30.44 37.3799 30.45 39.2099L30.51 51.9699V43.1399C30.51 41.3999 31.92 39.9799 33.67 39.9799C35.41 39.9799 36.83 41.3899 36.83 43.1399V53.1899C36.83 54.7799 36.74 56.3599 36.56 57.9299L35.92 63.4799" stroke="white" stroke-width="2" stroke-miterlimit="10" stroke-linecap="round" stroke-linejoin="round"/>
<path d="M18.9102 33.99H20.4502C22.3002 33.99 23.7902 35.49 23.7902 37.33V41.71" stroke="white" stroke-width="2" stroke-miterlimit="10" stroke-linecap="round" stroke-linejoin="round"/>
<path d="M27.7001 14.3799C26.8901 13.8599 25.9801 13.4499 25.0001 13.1899C21.2201 12.1899 17.3701 13.6299 15.1201 16.5299" stroke="#F7941D" stroke-width="2" stroke-miterlimit="10" stroke-linecap="round"/>
<path d="M28.23 29.88C29.62 28.84 30.74 27.42 31.39 25.71" stroke="#F7941D" stroke-width="2" stroke-miterlimit="10" stroke-linecap="round"/>
<path d="M39.54 35.8099L41.76 32.7299C42.27 32.0199 42.11 31.0199 41.4 30.5099L37.45 27.6699C37.58 27.2999 37.71 26.9299 37.81 26.5399C38.24 24.9099 38.41 23.2799 38.34 21.6799L42.9 20.0699C43.73 19.7799 44.16 18.8699 43.87 18.0399L41.93 12.5499C41.64 11.7199 40.73 11.2899 39.9 11.5799L35.44 13.1599C33.83 10.8599 31.62 8.97992 28.95 7.75992L29.49 3.55992C29.6 2.68992 28.99 1.88992 28.11 1.77992L22.33 1.03992C21.46 0.929917 20.66 1.53992 20.55 2.40992L20.02 6.39992C17.21 6.77992 14.58 7.90992 12.36 9.61992L8.94004 7.14992C8.22004 6.63992 7.23004 6.79992 6.72004 7.50992L3.32004 12.2399C2.81004 12.9499 2.97004 13.9499 3.68004 14.4599L7.04004 16.8799C6.88004 17.3299 6.72004 17.7899 6.60004 18.2599C6.13004 20.0199 5.99004 21.7999 6.11004 23.5199L2.18004 24.9099C1.35004 25.1999 0.92004 26.1099 1.21004 26.9399L2.67004 31.0599" stroke="white" stroke-width="2" stroke-miterlimit="10" stroke-linecap="round" stroke-linejoin="round"/>
<path d="M21.9198 21.5298V22.6198H20.3398V21.5298H21.9198Z" fill="white"/>
<path d="M25.8697 22.6999H25.6497C25.1597 22.6999 24.7297 22.6499 24.3697 22.5499C23.9997 22.4499 23.7197 22.3299 23.5097 22.1899C23.2997 22.0499 23.1397 21.8699 23.0097 21.6799C22.8797 21.4899 22.7997 21.2999 22.7597 21.1299C22.7197 20.9599 22.6997 20.7899 22.6997 20.5999V20.4399C22.6997 20.2499 22.7197 20.0799 22.7497 19.9099C22.7897 19.7499 22.8597 19.5699 22.9897 19.3699C23.1097 19.1699 23.2797 19.0099 23.4797 18.8699C23.6797 18.7299 23.9697 18.6099 24.3397 18.5199C24.7097 18.4199 25.1497 18.3799 25.6397 18.3799H25.8597C26.2097 18.3799 26.5297 18.3999 26.8097 18.4499C27.0997 18.4899 27.3397 18.5499 27.5397 18.6199C27.7397 18.6899 27.9097 18.7799 28.0597 18.8699C28.2097 18.9699 28.3297 19.0699 28.4197 19.1699C28.5097 19.2699 28.5797 19.3799 28.6297 19.4899C28.6797 19.5999 28.7197 19.7099 28.7397 19.7899C28.7597 19.8799 28.7697 19.9699 28.7697 20.0499V20.1199H27.1197C26.9897 19.6899 26.5397 19.4799 25.7497 19.4799C24.8197 19.4799 24.3597 19.7999 24.3597 20.4499V20.5199C24.3597 20.6399 24.3797 20.7599 24.4197 20.8699C24.4597 20.9799 24.5297 21.0899 24.6297 21.1999C24.7297 21.3099 24.8697 21.3899 25.0697 21.4599C25.2597 21.5199 25.4897 21.5599 25.7597 21.5599C25.9897 21.5599 26.1897 21.5399 26.3697 21.4999C26.5497 21.4599 26.6797 21.4099 26.7697 21.3599C26.8597 21.3099 26.9297 21.2399 26.9897 21.1599C27.0497 21.0799 27.0897 21.0299 27.0997 20.9899C27.1097 20.9499 27.1197 20.9199 27.1297 20.8799H28.7797V20.9699C28.7797 21.0999 28.7597 21.2299 28.7197 21.3599C28.6797 21.4899 28.5997 21.6399 28.4697 21.8099C28.3397 21.9799 28.1797 22.1199 27.9797 22.2499C27.7797 22.3699 27.4997 22.4799 27.1297 22.5699C26.7697 22.6599 26.3497 22.6999 25.8697 22.6999Z" fill="white"/>
<path d="M29.1499 18.46H30.9299L33.3499 20.83V18.46H34.9299V22.63H33.3399L30.7299 20.11V22.63H29.1499V18.46Z" fill="white"/>
</g>
<defs>
<clipPath id="clip0_4207_13796">
<rect width="44.95" height="64.48" fill="white"/>
</clipPath>
</defs>
</svg>
