<svg width="70" height="55" viewBox="0 0 70 55" fill="none" xmlns="http://www.w3.org/2000/svg">
<g clip-path="url(#clip0_4204_13670)">
<path d="M6.74023 4.37012H19.6402" stroke="#F7941D" stroke-width="2" stroke-miterlimit="10" stroke-linecap="round"/>
<path opacity="0.34" d="M40.6899 6.73999H3.60986V20.83H40.6899V6.73999Z" fill="white"/>
<path d="M21.6601 28.5899H11.5101C10.8901 28.5899 10.3901 28.0899 10.3901 27.4699V24.7799C10.3901 24.1599 10.8901 23.6599 11.5101 23.6599H21.6501C22.2701 23.6599 22.7701 24.1599 22.7701 24.7799V27.4699C22.7701 28.0899 22.2701 28.5899 21.6601 28.5899Z" fill="#F7941D"/>
<path d="M37.1699 28.5899H27.0199C26.3999 28.5899 25.8999 28.0899 25.8999 27.4699V24.7799C25.8999 24.1599 26.3999 23.6599 27.0199 23.6599H37.1599C37.7799 23.6599 38.2799 24.1599 38.2799 24.7799V27.4699C38.2799 28.0899 37.7799 28.5899 37.1699 28.5899Z" fill="#F7941D"/>
<path d="M22.1499 32.72H35.5699" stroke="white" stroke-width="2" stroke-miterlimit="10" stroke-linecap="round"/>
<path d="M13.1899 18.82L18.3399 13.79L22.5099 18.23L29.3699 11.51L36.6099 18.82H13.1899Z" fill="white"/>
<path d="M22.6998 12.6301C23.7491 12.6301 24.5998 11.7794 24.5998 10.7301C24.5998 9.68074 23.7491 8.83008 22.6998 8.83008C21.6505 8.83008 20.7998 9.68074 20.7998 10.7301C20.7998 11.7794 21.6505 12.6301 22.6998 12.6301Z" fill="white"/>
<path d="M56.64 1H3.08C1.93 1 1 1.93 1 3.08V36.5V40.99C1 42.14 1.93 43.07 3.08 43.07H34.14" stroke="white" stroke-width="2" stroke-miterlimit="10" stroke-linecap="round" stroke-linejoin="round"/>
<path d="M32.0898 38.82C32.7912 38.82 33.3598 38.2514 33.3598 37.55C33.3598 36.8486 32.7912 36.28 32.0898 36.28C31.3884 36.28 30.8198 36.8486 30.8198 37.55C30.8198 38.2514 31.3884 38.82 32.0898 38.82Z" fill="#FEFEFE"/>
<path d="M59.5098 15.1001H62.9298" stroke="#F7941D" stroke-miterlimit="10" stroke-linecap="round"/>
<path d="M40.6899 14.49H46.8599" stroke="#F7941D" stroke-miterlimit="10" stroke-linecap="round"/>
<path d="M47.02 43.6001H57.61" stroke="white" stroke-miterlimit="10" stroke-linecap="round"/>
<path opacity="0.34" d="M63.6799 29.36H41.9999C41.1199 29.36 40.4199 28.65 40.4199 27.78V19.83C40.4199 18.95 41.1299 18.25 41.9999 18.25H63.6799C64.5599 18.25 65.2599 18.96 65.2599 19.83V27.78C65.2699 28.65 64.5599 29.36 63.6799 29.36Z" fill="white"/>
<path d="M46.2899 25.0498L46.4199 24.9298C47.0499 24.3098 48.0699 24.3298 48.6799 24.9798L49.7599 26.1298C50.3699 26.7798 51.3899 26.7998 52.0199 26.1798L55.1499 23.1198C55.7699 22.5098 56.7699 22.5198 57.3799 23.1398L59.3099 25.0898C60.2999 26.0898 59.5899 27.7898 58.1799 27.7898H47.3999C45.9799 27.7698 45.2799 26.0398 46.2899 25.0498Z" fill="white"/>
<path d="M51.02 22.8799C51.8484 22.8799 52.52 22.2083 52.52 21.3799C52.52 20.5515 51.8484 19.8799 51.02 19.8799C50.1916 19.8799 49.52 20.5515 49.52 21.3799C49.52 22.2083 50.1916 22.8799 51.02 22.8799Z" fill="white"/>
<mask id="mask0_4204_13670" style="mask-type:luminance" maskUnits="userSpaceOnUse" x="40" y="31" width="25" height="13">
<path d="M63.2799 43.6001H42.2699C41.3899 43.6001 40.6899 42.8901 40.6899 42.0201V33.4001C40.6899 32.5201 41.3999 31.8201 42.2699 31.8201H63.2799C64.1599 31.8201 64.8599 32.5301 64.8599 33.4001V42.0201C64.8699 42.8901 64.1599 43.6001 63.2799 43.6001Z" fill="white"/>
</mask>
<g mask="url(#mask0_4204_13670)">
<path d="M44.2099 37.9H35.9399C35.5299 37.9 35.1899 37.57 35.1899 37.15V34.76C35.1899 34.35 35.5199 34.01 35.9399 34.01H44.2099C44.6199 34.01 44.9599 34.34 44.9599 34.76V37.15C44.9599 37.56 44.6199 37.9 44.2099 37.9Z" fill="#F7941D"/>
<path d="M56.4502 37.9H48.1802C47.7702 37.9 47.4302 37.57 47.4302 37.15V34.76C47.4302 34.35 47.7602 34.01 48.1802 34.01H56.4502C56.8602 34.01 57.2002 34.34 57.2002 34.76V37.15C57.2002 37.56 56.8602 37.9 56.4502 37.9Z" fill="#F7941D"/>
<path d="M68.6899 37.9H60.4199C60.0099 37.9 59.6699 37.57 59.6699 37.15V34.76C59.6699 34.35 59.9999 34.01 60.4199 34.01H68.6899C69.0999 34.01 69.4399 34.34 69.4399 34.76V37.15C69.4399 37.56 69.0999 37.9 68.6899 37.9Z" fill="#F7941D"/>
</g>
<path d="M63.3498 53.3699H42.3398C41.4598 53.3699 40.7598 52.6599 40.7598 51.7899V8.26994C40.7598 7.38994 41.4698 6.68994 42.3398 6.68994H63.3498C64.2298 6.68994 64.9298 7.39994 64.9298 8.26994V51.7899C64.9298 52.6599 64.2198 53.3699 63.3498 53.3699Z" stroke="white" stroke-width="2" stroke-miterlimit="10" stroke-linecap="round" stroke-linejoin="round"/>
<path d="M50.9697 10.4299H54.7197" stroke="white" stroke-width="2" stroke-miterlimit="10" stroke-linecap="round" stroke-linejoin="round"/>
<path d="M52.8396 51.1699C53.5244 51.1699 54.0796 50.6148 54.0796 49.9299C54.0796 49.2451 53.5244 48.6899 52.8396 48.6899C52.1548 48.6899 51.5996 49.2451 51.5996 49.9299C51.5996 50.6148 52.1548 51.1699 52.8396 51.1699Z" fill="white"/>
</g>
<defs>
<clipPath id="clip0_4204_13670">
<rect width="69.44" height="54.37" fill="white"/>
</clipPath>
</defs>
</svg>
