<svg width="65" height="65" viewBox="0 0 65 65" fill="none" xmlns="http://www.w3.org/2000/svg">
<path d="M36.976 56.0705H6.69604C3.61658 56.0705 1.11899 53.5729 1.11899 50.4934V6.69607C1.11899 3.61661 3.61658 1.11902 6.69604 1.11902H50.4934C53.5728 1.11902 56.0704 3.61661 56.0704 6.69607V36.6045" stroke="white" stroke-width="2" stroke-linecap="round" stroke-linejoin="round"/>
<path d="M11.7987 11.7136H36M47.1051 11.7136H42" stroke="white" stroke-width="2" stroke-linecap="round" stroke-linejoin="round"/>
<path d="M11.7987 23.0915H47.1051" stroke="white" stroke-width="2" stroke-linecap="round" stroke-linejoin="round"/>
<path d="M11.7987 34.4694H22.0755" stroke="white" stroke-width="2" stroke-linecap="round" stroke-linejoin="round"/>
<path d="M11.8479 45.4758H28.5925" stroke="white" stroke-width="2" stroke-linecap="round" stroke-linejoin="round"/>
<path d="M56.1197 61.9295L31.2288 37.0386L30.3292 29.707L37.6608 30.6066L62.5516 55.4975C64.3286 57.2745 64.3286 60.1525 62.5516 61.9295C60.7747 63.7064 57.8966 63.7064 56.1197 61.9295Z" stroke="white" stroke-width="2" stroke-linecap="round" stroke-linejoin="round"/>
<path d="M57.7892 50.744L51.3617 57.1715" stroke="white" stroke-width="2" stroke-linecap="round" stroke-linejoin="round"/>
</svg>
