<svg width="79" height="51" viewBox="0 0 79 51" fill="none" xmlns="http://www.w3.org/2000/svg">
<g clip-path="url(#clip0_4542_13285)">
<path d="M78.9998 36.0789C78.8265 36.0914 78.6531 36.1039 78.4921 36.1039C69.3663 36.1039 60.2404 36.1039 51.1145 36.1164C50.7678 36.1164 50.4954 36.0289 50.2106 35.829C49.3686 35.2418 48.5018 34.6921 47.6475 34.1299C47.957 33.5801 48.2666 33.0054 48.6381 32.4557C48.7247 32.3182 48.9848 32.2308 49.1581 32.2308C53.3805 32.2183 57.6029 32.2183 61.8254 32.2183C66.5926 32.2183 71.3475 32.2183 76.1147 32.2183C76.2633 32.2183 76.4243 32.2183 76.7091 32.2183C74.9755 30.6066 73.341 29.0948 71.6942 27.5706C71.7066 27.5456 71.7313 27.5206 71.7437 27.4956C71.8551 27.5581 71.979 27.6205 72.0904 27.6955C74.3316 29.1573 76.5729 30.6316 78.8141 32.0934C78.876 32.1308 78.9379 32.1558 78.9998 32.1808C78.9998 33.4802 78.9998 34.7795 78.9998 36.0789Z" fill="white"/>
<path d="M0 32.1806C1.65925 31.1061 3.3185 30.0316 4.97774 28.9572C5.79498 28.4324 6.61223 27.8952 7.479 27.4204C5.79498 28.9821 4.09859 30.5439 2.31552 32.2056C3.28135 32.2056 4.11097 32.2056 4.9406 32.2056C12.6796 32.2056 20.4063 32.2056 28.1453 32.2056C28.7644 32.2056 29.3712 32.1931 29.9903 32.2181C30.1265 32.2181 30.2998 32.3055 30.3741 32.4055C30.7332 32.9802 31.0552 33.5674 31.3771 34.1171C30.4237 34.7543 29.4578 35.404 28.492 36.0412C28.4053 36.1037 28.2691 36.1037 28.1701 36.1037C18.8461 36.1037 9.5221 36.1037 0.185737 36.1037C0.123824 36.1037 0.0742947 36.0912 0.0123824 36.0787C0 34.7793 0 33.4799 0 32.1806Z" fill="white"/>
<path d="M35.8103 35.9289C34.1634 34.742 33.0119 33.2302 32.2318 31.4436C31.0431 28.6825 30.8821 25.9338 32.368 23.2102C33.9777 20.2866 37.42 18.5749 40.6642 19.0872C44.0446 19.6244 46.7688 22.1482 47.4746 25.4341C48.0442 28.0703 47.3879 30.4941 46.063 32.768C45.3448 34.0049 44.4037 35.0419 43.1903 35.9164C43.3884 35.9789 43.5246 36.0289 43.6608 36.0664C47.6232 37.3157 50.8178 39.6146 53.0219 43.2128C53.7029 44.3248 54.1487 45.5367 54.3097 46.8486C54.4087 47.6232 54.1487 48.1979 53.542 48.6477C52.5761 49.3598 51.4493 49.6972 50.3102 49.9845C48.2671 50.4968 46.1868 50.7841 44.0818 50.8591C41.7167 50.9466 39.3393 51.034 36.9619 50.984C34.1758 50.9216 31.3898 50.6592 28.678 49.972C27.836 49.7596 27.0064 49.4598 26.2139 49.11C24.7528 48.4603 24.4185 47.7231 24.7528 46.1364C25.1862 44.1374 26.2263 42.4632 27.5636 40.9639C29.7429 38.5276 32.4175 36.8785 35.5503 35.9789C35.637 35.9914 35.6865 35.9789 35.8103 35.9289Z" fill="#F7941D"/>
<path d="M60.2533 12.9277C61.4668 13.2775 62.7051 13.8023 63.8195 14.5519C65.875 15.9387 67.5466 17.6504 68.3391 20.0867C68.4629 20.4615 68.5 20.8738 68.5743 21.2736C68.6858 21.9358 68.3886 22.448 67.8314 22.6979C66.9894 23.0852 66.1226 23.4475 65.2311 23.6724C62.6927 24.2846 60.0924 24.3971 57.4797 24.422C57.4549 24.422 57.4301 24.3971 57.3558 24.3471C57.6778 24.0222 57.9873 23.7224 58.2969 23.41C58.9408 22.7729 59.5599 22.1107 60.2162 21.486C60.4143 21.2986 60.4391 21.1486 60.34 20.8863C59.5351 18.9622 58.7551 17.0257 57.9502 15.1016C57.8388 14.8392 57.8264 14.6643 58.0493 14.4519C58.3093 14.2021 58.5198 13.9147 58.7674 13.6273C58.2474 13.6898 57.7768 13.8023 57.3063 13.8023C56.8234 13.8023 56.3529 13.6898 55.8328 13.6148C56.0928 13.9147 56.3281 14.227 56.6005 14.5019C56.7739 14.6768 56.7615 14.8267 56.6748 15.0391C55.8699 16.9757 55.0775 18.9247 54.2726 20.8613C54.1612 21.1237 54.1735 21.2861 54.384 21.486C55.3251 22.423 56.2538 23.3975 57.2815 24.447C55.3994 24.3471 53.5916 24.2346 51.7466 24.1347C51.759 21.0612 50.756 18.45 48.7129 16.276C49.7283 15.1391 51.6104 13.7273 54.3964 12.8777C53.9754 12.4779 53.5297 12.1031 53.1582 11.6533C51.6104 9.8167 50.7931 7.71773 51.1275 5.26893C51.4742 2.73268 53.6163 0.52126 56.13 0.0964684C59.7209 -0.503238 62.9032 1.74566 63.4604 5.38138C63.7699 7.39289 63.1756 9.24199 62.0116 10.8912C61.4916 11.6283 60.8353 12.253 60.2533 12.9277Z" fill="white"/>
<path d="M21.2109 24.3222C20.2079 24.3222 19.2173 24.3597 18.2267 24.3097C16.1836 24.1972 14.1529 23.9599 12.1965 23.3352C11.7631 23.1977 11.3297 23.0228 10.9335 22.7979C10.1039 22.3357 9.91812 21.8359 10.0915 20.8864C10.3887 19.2247 11.243 17.8628 12.3575 16.6384C13.9919 14.8393 15.9979 13.6399 18.3134 12.9528C18.3629 12.9403 18.4125 12.9278 18.5363 12.8903C17.6324 12.2406 16.939 11.491 16.4065 10.5914C15.1435 8.44247 14.5987 6.18107 15.6388 3.79474C16.6542 1.48338 18.462 0.221496 20.9633 0.034088C25.2352 -0.290753 28.9128 3.95716 27.1173 8.86726C26.5354 10.4665 25.6067 11.8283 24.1455 12.8903C26.3868 13.54 28.306 14.6394 29.9281 16.2886C27.8727 18.475 26.8821 21.0738 26.8821 24.1598C25.0742 24.2597 23.2664 24.3722 21.4709 24.4721C21.4586 24.4346 21.4462 24.3971 21.4338 24.3597C21.5081 24.2722 21.5824 24.1723 21.6691 24.0973C22.5358 23.2227 23.4026 22.3357 24.2818 21.4736C24.4551 21.2987 24.4799 21.1737 24.3808 20.9488C23.5883 19.0373 22.8082 17.1132 22.0034 15.2017C21.8672 14.8768 21.8672 14.6519 22.1272 14.402C22.3625 14.1772 22.5606 13.9148 22.8454 13.565C21.7929 13.9023 20.8394 13.9023 19.7622 13.565C20.0841 13.9398 20.3194 14.2271 20.567 14.4895C20.7651 14.6894 20.7651 14.8518 20.6661 15.1017C19.8736 17.0008 19.1059 18.8998 18.301 20.7989C18.1648 21.1237 18.1896 21.3361 18.4496 21.586C19.2916 22.3981 20.0965 23.2352 20.9137 24.0598C21.0499 24.1348 21.1366 24.2472 21.2109 24.3222Z" fill="white"/>
</g>
<defs>
<clipPath id="clip0_4542_13285">
<rect width="79" height="51" fill="white"/>
</clipPath>
</defs>
</svg>
