<svg width="33" height="34" viewBox="0 0 33 34" fill="none" xmlns="http://www.w3.org/2000/svg">
<path d="M5.53453 25.2859H11.5847C13.6635 25.2859 15.3503 27.0015 15.3503 29.1158V31.4581C15.3503 31.8917 15.0037 32.2443 14.5774 32.2443H2.54189C2.11559 32.2443 1.76892 31.8917 1.76892 31.4581V29.1158C1.76892 27.0015 3.45573 25.2859 5.53453 25.2859Z" stroke="#686E79" stroke-width="2" stroke-linecap="round" stroke-linejoin="round"/>
<path d="M8.56023 25.1863C11.1331 25.1863 13.2189 23.065 13.2189 20.4481C13.2189 17.8313 11.1331 15.71 8.56023 15.71C5.98735 15.71 3.90161 17.8313 3.90161 20.4481C3.90161 23.065 5.98735 25.1863 8.56023 25.1863Z" stroke="#686E79" stroke-width="2" stroke-linecap="round" stroke-linejoin="round"/>
<path d="M21.4153 25.2859H27.4655C29.5443 25.2859 31.2311 27.0015 31.2311 29.1158V31.4581C31.2311 31.8917 30.8844 32.2443 30.4581 32.2443H18.4214C17.9951 32.2443 17.6484 31.8917 17.6484 31.4581V29.1158C17.6484 27.0015 19.3352 25.2859 21.414 25.2859H21.4153Z" stroke="#686E79" stroke-width="2" stroke-linecap="round" stroke-linejoin="round"/>
<path d="M24.4398 25.1863C27.0126 25.1863 29.0984 23.065 29.0984 20.4481C29.0984 17.8313 27.0126 15.71 24.4398 15.71C21.8669 15.71 19.7811 17.8313 19.7811 20.4481C19.7811 23.065 21.8669 25.1863 24.4398 25.1863Z" stroke="#686E79" stroke-width="2" stroke-linecap="round" stroke-linejoin="round"/>
<path d="M12.7216 18.3164H20.1878" stroke="#686E79" stroke-width="2" stroke-linecap="round" stroke-linejoin="round"/>
<path d="M23.2736 15.6615V15.1881C23.2736 13.0725 21.588 11.3582 19.5079 11.3582H13.4577C11.3777 11.3582 9.69214 13.0725 9.69214 15.1881V15.6615" stroke="#686E79" stroke-width="2" stroke-linecap="round" stroke-linejoin="round"/>
<path d="M16.4835 11.2583C19.0563 11.2583 21.1421 9.13699 21.1421 6.52016C21.1421 3.90334 19.0563 1.78198 16.4835 1.78198C13.9106 1.78198 11.8248 3.90334 11.8248 6.52016C11.8248 9.13699 13.9106 11.2583 16.4835 11.2583Z" stroke="#686E79" stroke-width="2" stroke-linecap="round" stroke-linejoin="round"/>
</svg>
