<svg width="37" height="52" viewBox="0 0 37 52" fill="none" xmlns="http://www.w3.org/2000/svg">
<path d="M28.5624 8.37805H33.2123C34.3783 8.37805 35.3223 9.32209 35.3223 10.4881V48.1904C35.3223 49.3564 34.3783 50.3004 33.2123 50.3004H3.81242C2.64643 50.3004 1.70239 49.3564 1.70239 48.1904V10.4853C1.70239 9.31928 2.64643 8.37524 3.81242 8.37524H8.8613" stroke="white" stroke-width="2" stroke-linecap="round" stroke-linejoin="round"/>
<path d="M24.0474 5.61328H13.5085C12.7155 5.61328 12.0728 6.25607 12.0728 7.049V9.98224C12.0728 10.7752 12.7155 11.418 13.5085 11.418H24.0474C24.8403 11.418 25.4831 10.7752 25.4831 9.98224V7.049C25.4831 6.25607 24.8403 5.61328 24.0474 5.61328Z" stroke="white" stroke-width="2" stroke-linecap="round" stroke-linejoin="round"/>
<path d="M17.8801 1.70239H19.6755C20.8976 1.70239 21.8894 2.69419 21.8894 3.91637V5.61338H15.6689V3.91637C15.6689 2.69419 16.6607 1.70239 17.8829 1.70239H17.8801Z" stroke="white" stroke-width="2" stroke-linecap="round" stroke-linejoin="round"/>
<path d="M10.4207 28.7534L15.4386 33.6562L26.6013 25.0222" stroke="white" stroke-width="2" stroke-linecap="round" stroke-linejoin="round"/>
</svg>
