<svg width="31" height="31" viewBox="0 0 31 31" fill="none" xmlns="http://www.w3.org/2000/svg">
<path d="M22.0005 7.18701C19.678 9.9055 16.7627 11.8034 13.2515 11.8034H5.21443C0.39217 11.8034 1.03965 20.1394 5.21443 20.1394H13.3965C15.9832 20.1394 19.8229 21.8441 22.0746 24.271" stroke="#686E79" stroke-width="2" stroke-linecap="round" stroke-linejoin="round"/>
<path d="M5.85205 20.1394H12.7488V26.4984C12.7488 28.3709 11.2026 29.8886 9.30204 29.8886C7.39827 29.8886 5.85527 28.3678 5.85527 26.4984V20.1394H5.85205Z" stroke="#686E79" stroke-width="2" stroke-linecap="round" stroke-linejoin="round"/>
<path d="M12.0917 11.8V20.1393" stroke="#686E79" stroke-width="2" stroke-linecap="round" stroke-linejoin="round"/>
<path d="M22.3196 24.2709V5.07988C22.3196 3.35944 23.7369 1.96851 25.4829 1.96851C27.232 1.96851 28.6462 3.3626 28.6462 5.07988V25.5379" stroke="#686E79" stroke-width="2" stroke-linecap="round" stroke-linejoin="round"/>
</svg>
