<svg width="46" height="63" viewBox="0 0 46 63" fill="none" xmlns="http://www.w3.org/2000/svg">
<g clip-path="url(#clip0_4480_13380)">
<path d="M39.81 4.57021C39.81 4.63021 39.81 4.69021 39.81 4.75021C39.81 6.85021 39.81 8.94021 39.81 11.0402C39.81 11.2402 39.81 11.2402 39.6 11.2402C39.21 11.2402 38.82 11.2402 38.43 11.2402C38.23 11.2402 38.22 11.2402 38.22 11.0302C38.22 8.85021 38.22 6.67021 38.22 4.50021C38.22 3.11021 38.22 1.72021 38.22 0.330212C38.22 0.170212 38.27 0.120212 38.42 0.130212C38.81 0.140212 39.21 0.130212 39.6 0.120212C39.7 0.120212 39.75 0.160212 39.78 0.250212C40.15 1.30021 40.53 2.35021 40.9 3.40021C41.2 4.24021 41.5 5.08021 41.81 5.92021C41.9 6.16021 41.98 6.40021 42.07 6.63021C42.08 6.66021 42.1 6.68021 42.14 6.70021C42.14 6.63021 42.14 6.55021 42.14 6.48021C42.14 4.42021 42.14 2.36021 42.14 0.300212C42.14 0.170212 42.18 0.110212 42.32 0.120212C42.72 0.130212 43.13 0.130212 43.53 0.120212C43.68 0.120212 43.73 0.160212 43.73 0.320212C43.72 1.45021 43.73 2.57021 43.73 3.70021C43.73 6.15021 43.73 8.61021 43.73 11.0602C43.73 11.2202 43.69 11.2602 43.53 11.2602C43.15 11.2502 42.76 11.2502 42.38 11.2602C42.27 11.2602 42.22 11.2202 42.19 11.1202C41.91 10.3302 41.63 9.54021 41.35 8.75021C41.03 7.86021 40.71 6.96021 40.39 6.07021C40.23 5.62021 40.07 5.17021 39.91 4.73021C39.89 4.68021 39.87 4.63021 39.84 4.58021C39.83 4.56021 39.82 4.57021 39.81 4.57021Z" fill="white"/>
<path d="M22.5201 5.6299C22.5201 6.6099 22.5301 7.5899 22.5201 8.5699C22.5101 9.7899 21.8501 10.6899 20.8001 11.0699C19.4901 11.5399 18.0801 10.9799 17.4801 9.7599C17.3001 9.3999 17.2301 9.0099 17.2301 8.6199C17.2201 6.6199 17.2101 4.6199 17.2301 2.6199C17.2401 1.4899 17.8501 0.5499 18.9901 0.1699C20.3001 -0.2701 21.8301 0.2899 22.3501 1.6899C22.4601 1.9999 22.5101 2.3499 22.5201 2.6799C22.5401 3.6599 22.5201 4.6499 22.5201 5.6299ZM18.8001 5.8499C18.8401 5.8199 18.8601 5.8099 18.8701 5.7999C19.4001 5.1499 19.9301 4.4899 20.4701 3.8399C20.7501 3.4999 21.0401 3.1699 20.9301 2.6799C20.9301 2.6699 20.9301 2.6499 20.9301 2.6299C20.9001 2.3299 20.8201 2.0599 20.5601 1.8699C20.1801 1.5999 19.7701 1.5599 19.3401 1.7599C18.9301 1.9499 18.8001 2.3099 18.8001 2.7299C18.7901 3.7099 18.8001 4.6899 18.8001 5.6699C18.7901 5.7199 18.8001 5.7699 18.8001 5.8499ZM20.9301 5.6899C20.9101 5.6799 20.8901 5.6699 20.8701 5.6599C20.8601 5.6899 20.8501 5.7199 20.8301 5.7399C20.2101 6.4999 19.5901 7.2699 18.9701 8.0299C18.9101 8.1099 18.8101 8.1999 18.8001 8.2799C18.7901 8.5299 18.7901 8.7799 18.8501 9.0199C19.0201 9.6299 19.7001 9.8099 20.2301 9.6399C20.6901 9.4899 20.9201 9.1299 20.9201 8.6199C20.9201 7.6899 20.9201 6.7599 20.9201 5.8399C20.9301 5.7899 20.9301 5.7399 20.9301 5.6899Z" fill="white"/>
<path d="M37.01 5.75998C37.01 6.65999 37 7.56998 37.01 8.46999C37.02 9.21999 36.82 9.88998 36.28 10.44C35.88 10.85 35.39 11.08 34.82 11.18C34.02 11.32 33.3 11.13 32.66 10.63C32.16 10.24 31.86 9.72999 31.77 9.09999C31.74 8.89999 31.72 8.68998 31.72 8.47998C31.72 6.51998 31.71 4.56998 31.72 2.60998C31.73 1.55998 32.19 0.759985 33.15 0.279985C34.37 -0.330015 35.89 0.0699847 36.6 1.18998C36.89 1.64998 37.01 2.15998 37.01 2.69998C37.01 3.71998 37.01 4.73998 37.01 5.75998ZM35.43 5.73998C35.43 4.76998 35.44 3.79998 35.43 2.82998C35.43 2.24998 35.21 1.87998 34.62 1.72998C34.1 1.58998 33.5 1.88998 33.35 2.39998C33.31 2.54998 33.29 2.71998 33.29 2.87998C33.29 4.79998 33.29 6.71999 33.29 8.62998C33.29 8.77998 33.31 8.93999 33.36 9.08998C33.5 9.52998 33.85 9.71999 34.28 9.74998C34.77 9.78998 35.29 9.51998 35.38 8.97998C35.4 8.83998 35.42 8.68999 35.42 8.54998C35.43 7.61999 35.43 6.67998 35.43 5.73998Z" fill="white"/>
<path d="M11.0801 5.62022C11.0801 3.83022 11.0801 2.03022 11.0801 0.240222C11.0801 0.040222 11.0801 0.040222 11.2901 0.040222C12.1401 0.040222 12.9801 0.020222 13.8301 0.050222C14.9501 0.090222 15.8201 0.810222 16.0701 1.88022C16.2301 2.55022 16.2401 3.23022 16.2001 3.92022C16.1701 4.33022 16.1501 4.74022 16.0001 5.13022C15.6901 5.93022 15.1501 6.50022 14.3001 6.67022C13.8601 6.76022 13.3901 6.73022 12.9401 6.75022C12.6501 6.76022 12.6801 6.72022 12.6801 7.01022C12.6801 8.36022 12.6801 9.71022 12.6801 11.0502C12.6801 11.2602 12.6801 11.2602 12.4801 11.2602C12.0801 11.2602 11.6801 11.2502 11.2801 11.2602C11.1201 11.2602 11.0901 11.2102 11.0901 11.0602C11.0901 9.24022 11.0901 7.43022 11.0801 5.62022ZM12.6701 3.38022C12.6701 3.95022 12.6701 4.52022 12.6701 5.09022C12.6701 5.21022 12.7001 5.26022 12.8301 5.25022C13.1301 5.24022 13.4301 5.26022 13.7301 5.23022C14.2301 5.19022 14.6001 4.91022 14.6701 4.35022C14.7601 3.70022 14.7501 3.05022 14.6701 2.40022C14.6101 1.91022 14.2501 1.56022 13.7701 1.53022C13.4701 1.51022 13.1601 1.52022 12.8501 1.51022C12.7101 1.50022 12.6701 1.55022 12.6701 1.68022C12.6801 2.25022 12.6701 2.82022 12.6701 3.38022Z" fill="white"/>
<path d="M27.9001 9.60984C27.9801 9.60984 28.0401 9.60984 28.0901 9.60984C28.9701 9.60984 29.8501 9.60984 30.7401 9.60984C30.8701 9.60984 30.9101 9.64984 30.9101 9.77984C30.9001 10.2298 30.9101 10.6698 30.9101 11.1198C30.9101 11.2298 30.8901 11.2798 30.7601 11.2798C29.3001 11.2798 27.8301 11.2798 26.3701 11.2798C26.2601 11.2798 26.2301 11.2398 26.2301 11.1398C26.2401 10.7498 26.2101 10.3498 26.2401 9.95984C26.2601 9.72984 26.3601 9.50984 26.4301 9.29984C26.8601 8.06984 27.3001 6.84984 27.7401 5.61984C28.1201 4.56984 28.4901 3.51984 28.8701 2.46984C28.9701 2.17984 29.0701 1.89984 29.1801 1.58984C29.1001 1.57984 29.0401 1.56984 28.9901 1.56984C28.1901 1.56984 27.3801 1.56984 26.5801 1.56984C26.3801 1.56984 26.3801 1.56984 26.3801 1.35984C26.3801 0.989844 26.3801 0.619844 26.3801 0.259844C26.3801 0.129844 26.4201 0.0898438 26.5501 0.0898438C27.9501 0.0898438 29.3501 0.0898438 30.7501 0.0898438C30.8701 0.0898438 30.9101 0.129844 30.9101 0.249844C30.9001 0.589844 30.9201 0.939844 30.9001 1.27984C30.8901 1.42984 30.8301 1.56984 30.7801 1.70984C30.3301 2.94984 29.8701 4.18984 29.4101 5.42984C28.9101 6.78984 28.4201 8.13984 27.9301 9.49984C27.9101 9.50984 27.9101 9.54984 27.9001 9.60984Z" fill="white"/>
<path d="M25.4 5.69012C25.4 7.47012 25.4 9.26012 25.4 11.0401C25.4 11.2601 25.4 11.2601 25.17 11.2601C24.78 11.2601 24.39 11.2501 24 11.2601C23.85 11.2601 23.8 11.2301 23.8 11.0601C23.8 7.53012 23.8 4.01012 23.8 0.480117C23.8 0.120117 23.8 0.120117 24.16 0.120117C24.51 0.120117 24.8501 0.130117 25.2001 0.120117C25.3501 0.120117 25.39 0.160117 25.39 0.310117C25.4 2.11012 25.4 3.90012 25.4 5.69012Z" fill="white"/>
<path d="M16.66 62.8702C16.06 62.8702 15.5 62.8802 14.95 62.8602C14.88 62.8602 14.79 62.7702 14.76 62.6902C14.63 62.4202 14.51 62.1402 14.4 61.8602C14.34 61.7202 14.26 61.6502 14.1 61.6502C13.14 61.6602 12.18 61.6502 11.23 61.6602C11.14 61.6602 11 61.7502 10.95 61.8402C10.8 62.1102 10.68 62.4002 10.54 62.6702C10.5 62.7402 10.41 62.8402 10.35 62.8402C9.81998 62.8502 9.28998 62.8502 8.72998 62.8502C8.78998 62.7302 8.81998 62.6402 8.86998 62.5602C9.80998 60.7602 10.75 58.9702 11.69 57.1702C11.78 57.0102 11.87 56.9402 12.06 56.9502C12.58 56.9602 13.11 56.9502 13.63 56.9602C13.72 56.9602 13.86 57.0302 13.9 57.1102C14.82 58.9802 15.73 60.8502 16.64 62.7202C16.63 62.7602 16.64 62.7902 16.66 62.8702ZM13.76 60.5302C13.41 59.7502 13.08 59.0002 12.71 58.1702C12.3 59.0002 11.94 59.7402 11.55 60.5302C12.31 60.5302 13.01 60.5302 13.76 60.5302Z" fill="white"/>
<path d="M36.1499 56.9902C36.1499 57.7602 36.1499 58.5202 36.1499 59.3302C36.2599 59.2602 36.3299 59.2302 36.3899 59.1802C37.1499 58.6002 37.9999 58.5402 38.8599 58.8202C39.6499 59.0802 39.9999 59.7202 40.0699 60.5002C40.0999 60.8402 40.0799 61.2002 39.9999 61.5302C39.7799 62.4902 38.9399 63.0502 37.9099 63.0002C37.2299 62.9602 36.6699 62.6802 36.1499 62.1802C36.1499 62.3502 36.1699 62.5202 36.1399 62.6902C36.1299 62.7602 36.0399 62.8702 35.9799 62.8702C35.5199 62.8802 35.0599 62.8802 34.6099 62.8802C34.6099 60.9102 34.6099 58.9602 34.6099 57.0002C35.1299 56.9902 35.6099 56.9902 36.1499 56.9902ZM37.3499 59.4502C36.7799 59.4502 36.3899 59.7002 36.2399 60.1802C36.0299 60.8102 36.1799 61.5602 36.5899 61.8502C36.7099 61.9302 36.8599 62.0002 36.9999 62.0302C37.9199 62.1902 38.5599 61.7202 38.4899 60.6002C38.4299 59.8402 38.0199 59.4502 37.3499 59.4502Z" fill="white"/>
<path d="M23.9701 59.31C24.3701 58.93 24.8401 58.73 25.3801 58.69C26.1901 58.63 26.9301 58.75 27.4401 59.46C28.2201 60.53 27.8101 62.31 26.6901 62.82C25.8501 63.2 24.7701 63 24.1201 62.35C24.0701 62.3 24.0101 62.25 23.9301 62.17C23.9201 62.26 23.9001 62.31 23.9001 62.36C23.8601 62.88 23.8601 62.88 23.3201 62.88C23.0101 62.88 22.7001 62.88 22.3901 62.88C22.3701 62.88 22.3601 62.87 22.3101 62.85C22.3301 62.55 22.3601 62.25 22.3601 61.94C22.3701 60.39 22.3701 58.84 22.3601 57.28C22.3601 57.04 22.4201 56.95 22.6701 56.97C22.9901 56.99 23.3101 56.99 23.6301 56.97C23.8601 56.96 23.9101 57.05 23.9101 57.26C23.9001 57.84 23.9101 58.41 23.9101 58.99C23.9101 59.08 23.9101 59.18 23.9101 59.27C23.9201 59.28 23.9401 59.29 23.9701 59.31ZM26.2301 60.74C26.2101 59.94 25.8001 59.46 25.1101 59.45C24.3201 59.44 23.8801 59.88 23.8801 60.72C23.8801 60.88 23.8901 61.04 23.9201 61.2C24.0301 61.76 24.4301 62.06 25.0301 62.07C25.6001 62.07 26.0201 61.77 26.1501 61.24C26.1901 61.07 26.2101 60.91 26.2301 60.74Z" fill="white"/>
<path d="M33.4801 62.8699C33.0701 62.8699 32.6401 62.8699 32.2101 62.8599C32.1601 62.8599 32.0801 62.7799 32.0701 62.7199C32.0301 62.5999 32.0201 62.4699 32.0001 62.3099C31.3601 62.9399 30.5901 63.0299 29.7701 62.9799C28.9501 62.9199 28.4701 62.4999 28.4401 61.8099C28.4001 61.0599 28.8801 60.4899 29.6901 60.3999C30.3201 60.3299 30.9601 60.3299 31.6001 60.3099C31.7101 60.3099 31.8301 60.3099 31.9401 60.3099C32.0401 59.8799 31.8501 59.5399 31.4301 59.4899C31.1601 59.4599 30.8701 59.5299 30.6001 59.5699C30.5201 59.5799 30.4201 59.6599 30.4001 59.7199C30.3101 60.0199 30.0801 59.9899 29.8501 59.9899C29.4901 59.9899 29.1301 59.9899 28.6701 59.9899C28.7801 59.7499 28.8501 59.5399 28.9701 59.3699C29.1701 59.0699 29.4801 58.9099 29.8301 58.8299C30.6501 58.6399 31.4801 58.6099 32.3101 58.7899C33.1401 58.9799 33.5101 59.4599 33.5101 60.2999C33.5101 60.9199 33.5101 61.5399 33.5101 62.1599C33.4801 62.3799 33.4801 62.6099 33.4801 62.8699ZM31.9501 61.0499C31.4001 61.0499 30.8601 60.9999 30.3401 61.2099C30.1401 61.2899 30.0401 61.4499 30.0601 61.6699C30.0701 61.8799 30.2001 62.0399 30.4001 62.0599C30.7101 62.0899 31.0401 62.1199 31.3401 62.0499C31.8001 61.9399 32.0001 61.5699 31.9501 61.0499Z" fill="white"/>
<path d="M45.7399 62.8701C45.3399 62.8701 44.9199 62.8801 44.4899 62.8601C44.4299 62.8601 44.3499 62.7501 44.3199 62.6801C44.2799 62.5801 44.2799 62.4601 44.2499 62.3301C43.4899 63.0101 42.6099 63.1001 41.6899 62.9201C41.0199 62.7901 40.6899 62.3701 40.6799 61.7701C40.6799 61.1301 41.0799 60.5701 41.7099 60.4601C42.2899 60.3601 42.8899 60.3501 43.4799 60.3101C43.7299 60.2901 43.9699 60.3101 44.2099 60.3101C44.2899 59.8801 44.1399 59.5701 43.7499 59.5101C43.4399 59.4701 43.1099 59.5501 42.7899 59.5901C42.7399 59.6001 42.6599 59.6501 42.6499 59.7001C42.5599 60.0501 42.2699 59.9801 42.0299 59.9801C41.6799 59.9801 41.3299 59.9801 40.9799 59.9801C40.9599 59.9501 40.9399 59.9301 40.9099 59.9001C41.0399 59.6801 41.1299 59.4101 41.3099 59.2501C41.5299 59.0601 41.8099 58.8901 42.0799 58.8201C42.9099 58.6201 43.7499 58.6001 44.5899 58.7901C45.3599 58.9701 45.7099 59.4201 45.7299 60.2101C45.7399 60.6601 45.7299 61.1101 45.7299 61.5701C45.7399 61.9901 45.7399 62.4101 45.7399 62.8701ZM43.7099 61.0401C43.7099 61.0301 43.6999 61.0101 43.6999 61.0001C43.3499 61.0601 42.9899 61.1101 42.6399 61.2001C42.4099 61.2601 42.2799 61.4301 42.2999 61.6801C42.3199 61.9201 42.4799 62.0401 42.6999 62.0801C42.9199 62.1101 43.1399 62.1501 43.3599 62.1201C43.7499 62.0701 44.0599 61.8901 44.1999 61.4901C44.3299 61.1301 44.2699 61.0501 43.8999 61.0501C43.8399 61.0401 43.7799 61.0401 43.7099 61.0401Z" fill="white"/>
<path d="M18.56 62.8702C18.08 62.8702 17.62 62.8802 17.17 62.8602C17.12 62.8602 17.04 62.7302 17.04 62.6602C17.03 62.2502 17.03 61.8402 17.03 61.4402C17.03 60.0702 17.03 58.7102 17.03 57.3402C17.03 56.9702 17.03 56.9702 17.41 56.9702C17.79 56.9702 18.17 56.9702 18.56 56.9702C18.56 58.9402 18.56 60.8802 18.56 62.8702Z" fill="white"/>
<path d="M21.1999 62.8503C20.6899 62.8503 20.1899 62.8503 19.6599 62.8503C19.6599 62.7403 19.6599 62.6403 19.6599 62.5503C19.6599 61.3803 19.6699 60.2103 19.6599 59.0403C19.6599 58.8203 19.7199 58.7403 19.9399 58.7503C20.2899 58.7703 20.6499 58.7603 20.9999 58.7503C21.1499 58.7503 21.2299 58.7903 21.2199 58.9603C21.2099 60.2103 21.2199 61.4603 21.2199 62.7103C21.2199 62.7603 21.2099 62.8003 21.1999 62.8503Z" fill="white"/>
<path d="M19.6299 56.98C20.1999 56.98 20.7199 56.98 21.2599 56.98C21.2599 57.34 21.2599 57.69 21.2599 58.05C20.7199 58.05 20.1899 58.05 19.6299 58.05C19.6299 57.7 19.6299 57.34 19.6299 56.98Z" fill="white"/>
<path d="M39.3001 25.9297C39.2101 25.8797 39.1601 25.8497 39.1001 25.8197C37.9101 25.2297 37.3501 24.1597 37.4901 22.8197C37.6301 21.4297 38.6501 20.2797 40.2001 19.9997C41.1301 19.8297 42.0601 19.8297 42.9601 20.1197C45.2101 20.8197 45.6701 23.1797 44.9201 24.6097C44.6401 25.1497 44.2101 25.5397 43.6801 25.8097C43.6201 25.8397 43.5701 25.8697 43.4701 25.9197C43.5601 25.9697 43.6101 25.9997 43.6601 26.0197C45.0901 26.6897 45.8001 27.9597 45.6501 29.5297C45.5501 30.6197 45.1401 31.5297 44.3001 32.2397C43.7101 32.7397 43.0301 33.0097 42.2701 33.1097C41.3601 33.2297 40.4701 33.1697 39.6001 32.8497C38.0901 32.2897 37.1701 30.9997 37.1301 29.3897C37.1101 28.2897 37.4101 27.3197 38.2601 26.5797C38.5101 26.3597 38.8101 26.2097 39.0901 26.0297C39.1601 25.9997 39.2201 25.9697 39.3001 25.9297ZM43.2301 29.0597C43.2501 29.0597 43.2601 29.0497 43.2801 29.0497C43.2101 28.7297 43.1801 28.3897 43.0601 28.0897C42.7801 27.4097 42.2601 27.0197 41.5201 26.9797C40.7701 26.9297 40.1901 27.2297 39.8401 27.9197C39.4501 28.6997 39.4701 29.4797 39.8601 30.2397C40.1701 30.8497 40.7101 31.1797 41.4101 31.1897C42.1001 31.1997 42.6101 30.8997 42.9601 30.3097C43.1801 29.9297 43.2401 29.4997 43.2301 29.0597ZM41.3701 24.9997C42.3501 24.9997 42.9501 24.3797 42.9401 23.3797C42.9401 22.4597 42.3001 21.8197 41.3801 21.8197C40.4201 21.8197 39.7901 22.4597 39.8001 23.4197C39.8101 24.3997 40.4101 24.9997 41.3701 24.9997Z" fill="#F7941D"/>
<path d="M29.2 25.9297C28.99 25.8197 28.82 25.7297 28.66 25.6297C27.66 24.9897 27.29 24.0397 27.39 22.8897C27.48 21.8397 27.98 21.0297 28.87 20.4597C29.36 20.1497 29.91 19.9897 30.49 19.9297C31.37 19.8297 32.23 19.8597 33.07 20.1797C34.42 20.6897 35.19 21.8397 35.16 23.2897C35.14 24.4297 34.6 25.2597 33.6 25.7997C33.54 25.8297 33.48 25.8697 33.38 25.9197C33.48 25.9697 33.54 25.9997 33.61 26.0297C35.01 26.6797 35.74 27.9997 35.57 29.5397C35.48 30.4097 35.21 31.1897 34.63 31.8497C33.98 32.5897 33.15 32.9897 32.19 33.1197C31.28 33.2397 30.39 33.1797 29.52 32.8497C28.01 32.2897 27.09 30.9897 27.06 29.3797C27.04 28.2897 27.34 27.3197 28.18 26.5797C28.43 26.3597 28.73 26.2097 29.01 26.0297C29.04 25.9997 29.1 25.9797 29.2 25.9297ZM33.18 29.0697C33.1 28.7297 33.07 28.3897 32.94 28.0797C32.66 27.3997 32.13 27.0197 31.39 26.9797C30.63 26.9397 30.05 27.2497 29.71 27.9497C29.34 28.7197 29.35 29.5097 29.75 30.2497C30.1 30.9197 30.7 31.2397 31.47 31.1897C32.17 31.1397 32.66 30.7797 32.92 30.1397C33.06 29.8097 33.1 29.4397 33.18 29.0697ZM31.26 24.9997C32.23 24.9997 32.83 24.3897 32.84 23.4097C32.84 22.4697 32.22 21.8297 31.29 21.8297C30.34 21.8297 29.7 22.4697 29.7 23.4197C29.7 24.3897 30.3 24.9997 31.26 24.9997Z" fill="#F7941D"/>
<path d="M25.3799 23.0998C24.5799 23.1898 23.7999 23.2698 23.0199 23.3598C22.9699 23.1598 22.9299 22.9798 22.8699 22.8098C22.5099 21.8298 21.2699 21.5998 20.4599 22.3498C20.0599 22.7198 19.8599 23.1798 19.7699 23.6898C19.6599 24.2798 19.5999 24.8898 19.5099 25.4898C19.5099 25.5098 19.5199 25.5398 19.5299 25.5798C19.5699 25.5498 19.6099 25.5298 19.6299 25.4998C20.6799 24.3098 22.3699 24.2798 23.5399 24.9498C24.7399 25.6298 25.3899 26.6898 25.5599 28.0498C25.6699 28.9498 25.6299 29.8398 25.2699 30.6798C24.6499 32.1398 23.5399 32.9698 21.9599 33.1398C20.3699 33.3098 19.0699 32.7798 18.0899 31.4998C17.5799 30.8298 17.3099 30.0498 17.1699 29.2298C16.8199 27.2298 16.8099 25.2398 17.3499 23.2698C17.7299 21.8698 18.5499 20.7798 19.9299 20.2298C21.2299 19.7198 22.5399 19.7098 23.7699 20.4598C24.6699 20.9998 25.0999 21.8698 25.3199 22.8598C25.3499 22.9098 25.3599 22.9898 25.3799 23.0998ZM23.2799 28.7998C23.1899 28.3298 23.1399 27.8598 22.9899 27.4298C22.7499 26.7098 22.1399 26.3198 21.3999 26.3298C20.7299 26.3398 20.1299 26.7798 19.8899 27.4698C19.6199 28.2798 19.6499 29.0998 19.9499 29.8998C20.0799 30.2498 20.3099 30.5398 20.5999 30.7698C21.4299 31.4398 22.6099 31.1498 22.9799 30.1498C23.1499 29.7198 23.1899 29.2498 23.2799 28.7998Z" fill="#F7941D"/>
<path d="M10.69 23.5596C9.78002 24.3896 8.74002 24.9996 7.54002 25.3996C7.53002 25.3196 7.52002 25.2596 7.52002 25.2096C7.52002 24.5996 7.52002 23.9797 7.52002 23.3696C7.52002 23.2296 7.57002 23.1696 7.70002 23.1096C8.90002 22.5996 9.96002 21.8896 10.73 20.8096C10.89 20.5796 11.02 20.3196 11.14 20.0596C11.2 19.9296 11.27 19.8896 11.41 19.8896C11.92 19.8996 12.44 19.8896 12.95 19.8896C13.21 19.8896 13.21 19.8896 13.21 20.1596C13.21 23.8596 13.21 27.5596 13.21 31.2496C13.21 31.7296 13.2 32.2096 13.21 32.6896C13.21 32.8796 13.17 32.9597 12.96 32.9496C12.31 32.9396 11.67 32.9396 11.02 32.9396C10.75 32.9396 10.75 32.9396 10.75 32.6696C10.75 29.7296 10.75 26.7796 10.75 23.8396C10.75 23.7596 10.75 23.6696 10.75 23.5896C10.72 23.5796 10.7 23.5696 10.69 23.5596Z" fill="#F7941D"/>
<path d="M26.7299 46.1901C26.7899 46.1801 26.8499 46.1801 26.9099 46.1701C27.0999 46.1401 27.1999 46.0301 27.2099 45.8401C27.2199 45.7701 27.2199 45.7101 27.2199 45.6401C27.2199 44.2801 27.2199 42.9201 27.2199 41.5501C27.2199 41.2201 27.0899 41.0801 26.7699 41.0501C26.7399 41.0501 26.6999 41.0401 26.6699 41.0401C26.6799 40.7501 26.9399 40.4601 27.2499 40.3701C27.5499 40.2901 27.8499 40.3101 28.1299 40.4401C28.4099 40.5701 28.5699 40.7801 28.5599 41.1101C28.5499 41.5401 28.5599 41.9801 28.5599 42.4101C28.5599 42.4501 28.5599 42.5001 28.5599 42.5601C29.1099 42.0701 29.7499 41.9801 30.4199 42.1201C31.2599 42.2901 31.7699 42.8301 31.9499 43.6501C32.0899 44.2801 32.0599 44.9201 31.8499 45.5301C31.5099 46.5601 30.7199 46.9601 29.7199 46.8901C29.5999 46.8801 29.4799 46.8701 29.3599 46.8401C28.9799 46.7601 28.7699 46.6201 28.4999 46.2901C28.3899 46.5301 28.2299 46.7101 27.9799 46.8001C27.7399 46.8901 27.4899 46.8901 27.2399 46.8001C26.9199 46.7001 26.7299 46.4701 26.7299 46.1901ZM30.5499 44.6301C30.5499 44.6001 30.5499 44.5701 30.5499 44.5401C30.5299 44.1301 30.5099 43.7201 30.3699 43.3301C30.1899 42.8201 29.7199 42.6001 29.2099 42.7901C28.8199 42.9301 28.6399 43.2501 28.5699 43.6201C28.4599 44.1901 28.4899 44.7601 28.5799 45.3301C28.6399 45.6901 28.8399 45.9801 29.1899 46.1401C29.6699 46.3601 30.1699 46.1401 30.3999 45.6101C30.5299 45.2901 30.5499 44.9601 30.5499 44.6301Z" fill="white"/>
<path d="M26.2699 44.5001C26.2399 45.6801 25.4499 46.7001 24.3599 46.9401C23.1399 47.2101 21.9399 46.5101 21.5399 45.3001C21.1099 44.0001 21.7799 42.5701 23.0299 42.1301C24.3999 41.6401 25.8799 42.4701 26.1899 43.9101C26.2299 44.1001 26.2399 44.3001 26.2699 44.5001ZM24.8099 44.4901C24.7699 44.2301 24.7399 43.9601 24.6799 43.7001C24.6099 43.3901 24.4699 43.1101 24.2199 42.9001C23.9699 42.6901 23.6799 42.6801 23.4399 42.9101C23.3199 43.0201 23.2099 43.1701 23.1299 43.3201C22.8299 43.9401 22.8099 44.5801 22.9699 45.2401C23.0399 45.5501 23.1699 45.8401 23.4099 46.0701C23.6799 46.3101 23.9899 46.3201 24.2499 46.0601C24.3599 45.9501 24.4499 45.8201 24.5199 45.6901C24.7199 45.3101 24.7799 44.9101 24.8099 44.4901Z" fill="white"/>
<path d="M38.1899 44.49C38.2199 43.25 39.0599 42.23 40.2599 42.01C41.2599 41.83 42.3099 42.38 42.7899 43.35C43.3799 44.55 42.9399 46.05 41.7999 46.69C40.4499 47.45 38.7599 46.75 38.3199 45.23C38.2599 44.99 38.2299 44.74 38.1899 44.49ZM41.6199 44.48C41.5699 44.21 41.5499 43.93 41.4799 43.67C41.3999 43.35 41.2499 43.05 40.9699 42.85C40.7599 42.71 40.5299 42.71 40.3199 42.85C40.1099 42.99 39.9699 43.2 39.8799 43.43C39.6199 44.11 39.6099 44.8 39.8599 45.49C39.9399 45.72 40.0599 45.92 40.2499 46.08C40.5099 46.29 40.7999 46.3 41.0399 46.07C41.1599 45.96 41.2599 45.83 41.3299 45.68C41.5299 45.31 41.5899 44.9 41.6199 44.48Z" fill="white"/>
<path d="M19.16 44.0199C19.16 43.7299 19.13 43.4799 19.04 43.2499C18.89 42.8899 18.62 42.6999 18.24 42.6799C17.63 42.6399 17.03 42.6799 16.43 42.8499C16.49 42.6199 16.6 42.4399 16.78 42.2999C17 42.1299 17.27 42.0599 17.54 42.0299C18.15 41.9699 18.75 41.9899 19.34 42.1699C20.03 42.3799 20.37 42.8399 20.37 43.5599C20.37 44.2899 20.37 45.0199 20.37 45.7499C20.37 45.8899 20.4 46.0399 20.53 46.1099C20.63 46.1699 20.76 46.1699 20.89 46.1999C20.91 46.4399 20.6 46.7599 20.23 46.8399C19.78 46.9399 19.31 46.7099 19.15 46.2899C18.94 46.6599 18.6 46.8299 18.2 46.8999C17.85 46.9599 17.5 46.9499 17.16 46.8499C16.57 46.6799 16.18 46.2999 16.05 45.6999C15.9 44.9999 16 44.3599 16.57 43.8599C17.01 43.4699 17.55 43.3699 18.12 43.4499C18.52 43.5199 18.88 43.6599 19.16 44.0199ZM19.16 45.1699C19.15 44.8899 19.07 44.6399 18.89 44.4199C18.56 44.0399 18.04 44.0299 17.69 44.3899C17.29 44.7999 17.29 45.5299 17.69 45.9399C18.04 46.3099 18.58 46.2899 18.91 45.8899C19.08 45.6899 19.15 45.4399 19.16 45.1699Z" fill="white"/>
<path d="M37.7501 46.1803C37.7101 46.5203 37.4001 46.8103 37.0201 46.8703C36.5801 46.9403 36.1901 46.7303 36.0001 46.3203C35.7301 46.7603 35.3101 46.9203 34.8301 46.9403C34.5601 46.9503 34.2801 46.9303 34.0201 46.8703C33.3401 46.7003 32.8901 46.1603 32.8601 45.4603C32.8501 45.2003 32.8601 44.9303 32.9201 44.6803C33.1001 43.9903 33.7201 43.5203 34.4601 43.4603C34.7601 43.4403 35.0501 43.4603 35.3401 43.5603C35.6001 43.6503 35.8301 43.7803 36.0001 44.0003C36.1701 43.4003 35.7001 42.7203 35.0901 42.6803C34.6101 42.6503 33.8401 42.6803 33.2901 42.8603C33.3401 42.6303 33.4601 42.4503 33.6401 42.3203C33.8701 42.1503 34.1401 42.0803 34.4101 42.0503C35.0001 41.9903 35.6001 42.0103 36.1701 42.1803C36.8801 42.3903 37.2201 42.8503 37.2201 43.5903C37.2201 44.3103 37.2201 45.0303 37.2201 45.7503C37.2201 45.8203 37.2301 45.8903 37.2501 45.9603C37.3101 46.1403 37.4301 46.2203 37.6201 46.2103C37.6701 46.1903 37.7001 46.1803 37.7501 46.1803ZM36.0101 45.1803C36.0001 44.9103 35.9301 44.6603 35.7601 44.4503C35.4201 44.0303 34.8301 44.0303 34.4901 44.4503C34.1601 44.8503 34.1601 45.4703 34.4801 45.8803C34.8301 46.3303 35.4301 46.3203 35.7801 45.8803C35.9401 45.6703 36.0001 45.4303 36.0101 45.1803Z" fill="white"/>
<path d="M10.95 41.8301C11.13 41.2601 11.64 40.9101 12.25 40.9401C12.9 40.9701 13.55 41.0001 14.2 41.0201C15.04 41.0501 15.87 40.9601 16.71 40.8501C16.7 40.8801 16.71 40.9201 16.69 40.9401C16.58 41.1201 16.47 41.3001 16.34 41.4601C16.21 41.6101 16.02 41.6801 15.81 41.6701C15.48 41.6701 15.15 41.6701 14.82 41.6701C14.6 41.6701 14.5 41.7701 14.5 41.9801C14.5 43.2301 14.5 44.4801 14.5 45.7301C14.5 46.0401 14.69 46.1901 15.06 46.1901C14.99 46.3801 14.88 46.5301 14.72 46.6401C14.34 46.9301 13.76 46.9501 13.36 46.6901C13.13 46.5401 13.02 46.3401 13.02 46.0601C13.02 44.7101 13.02 43.3501 13.02 42.0001C13.02 41.6901 12.99 41.6401 12.67 41.6401C12.26 41.6401 11.85 41.6401 11.45 41.6701C11.29 41.6901 11.12 41.7701 10.95 41.8301Z" fill="white"/>
<path d="M3.15 28.3201L0.04 29.9601L0 26.6401L3.15 28.3201Z" fill="#F7941D"/>
</g>
<defs>
<clipPath id="clip0_4480_13380">
<rect width="45.74" height="63" fill="white"/>
</clipPath>
</defs>
</svg>
