<svg width="49" height="46" viewBox="0 0 49 46" fill="none" xmlns="http://www.w3.org/2000/svg">
<g clip-path="url(#clip0_2794_11394)">
<path d="M18.0154 34.4281C18.0445 32.3831 16.238 31.3737 16.238 31.3737C11.6301 28.6189 8.5437 23.5805 8.5437 17.8206C8.5437 9.10529 15.6068 2.04224 24.3221 2.04224C33.0375 2.04224 40.1005 9.10529 40.1005 17.8206C40.1005 23.3536 37.2526 28.2232 32.9415 31.0391C32.9415 31.0391 31.0157 32.3191 31.0041 34.0965" stroke="white" stroke-width="2" stroke-linecap="round" stroke-linejoin="round"/>
<path d="M18.1143 37.3196H30.8586" stroke="white" stroke-width="2" stroke-linecap="round" stroke-linejoin="round"/>
<path d="M20.741 40.214H30.8556C30.8556 43.0066 28.5924 45.2727 25.7969 45.2727H23.1671C20.3745 45.2727 18.1084 43.0095 18.1084 40.214" stroke="white" stroke-width="2" stroke-linecap="round" stroke-linejoin="round"/>
<path d="M38.2942 31.3357L41.3515 34.3931" stroke="white" stroke-width="2" stroke-linecap="round" stroke-linejoin="round"/>
<path d="M44.1033 17.5442H48.2137" stroke="white" stroke-width="2" stroke-linecap="round" stroke-linejoin="round"/>
<path d="M41.3515 0.727295L38.2942 3.61011" stroke="white" stroke-width="2" stroke-linecap="round" stroke-linejoin="round"/>
<path d="M10.647 31.3357L7.5896 34.3931" stroke="white" stroke-width="2" stroke-linecap="round" stroke-linejoin="round"/>
<path d="M4.83771 17.5442H0.727295" stroke="white" stroke-width="2" stroke-linecap="round" stroke-linejoin="round"/>
<path d="M7.5896 0.727295L10.647 3.61011" stroke="white" stroke-width="2" stroke-linecap="round" stroke-linejoin="round"/>
<path d="M16.0925 17.5443L21.288 22.6176L32.8484 13.6782" stroke="white" stroke-width="2" stroke-linecap="round" stroke-linejoin="round"/>
</g>
<defs>
<clipPath id="clip0_2794_11394">
<rect width="48.941" height="46" fill="white"/>
</clipPath>
</defs>
</svg>
