<svg width="48" height="66" viewBox="0 0 48 66" fill="none" xmlns="http://www.w3.org/2000/svg">
<g clip-path="url(#clip0_4255_13366)">
<path d="M46.08 1H1V64.19H46.08V1Z" stroke="white" stroke-width="2" stroke-miterlimit="10" stroke-linecap="round" stroke-linejoin="round"/>
<path d="M38.7605 30.3501H20.2305V31.9501H38.7605V30.3501Z" fill="white"/>
<path d="M23.0902 35.1599H7.66016V36.7599H23.0902V35.1599Z" fill="#F7941D"/>
<path d="M23.0902 38.3999H7.66016V39.9999H23.0902V38.3999Z" fill="#F7941D"/>
<path d="M23.0902 41.6399H7.66016V43.2399H23.0902V41.6399Z" fill="#F7941D"/>
<path d="M38.7605 46.23H20.2305V47.83H38.7605V46.23Z" fill="white"/>
<path d="M38.7703 27.46H9.82031V29.06H38.7703V27.46Z" fill="white"/>
<path d="M14.1496 60.1499C16.5024 60.1499 18.4096 58.2426 18.4096 55.8899C18.4096 53.5371 16.5024 51.6299 14.1496 51.6299C11.7969 51.6299 9.88965 53.5371 9.88965 55.8899C9.88965 58.2426 11.7969 60.1499 14.1496 60.1499Z" stroke="#F7941D" stroke-miterlimit="10"/>
<path d="M17.6596 13.6899V19.1199H15.5996V13.6899H17.6596Z" fill="#F7941D"/>
<path d="M22.2995 19.2198H22.0195C21.3795 19.2198 20.8295 19.1598 20.3495 19.0298C19.8695 18.8998 19.4995 18.7498 19.2295 18.5598C18.9595 18.3698 18.7495 18.1498 18.5795 17.8898C18.4095 17.6298 18.3095 17.3898 18.2595 17.1698C18.2095 16.9498 18.1895 16.7198 18.1895 16.4798V16.2698C18.1895 16.0298 18.2095 15.7998 18.2595 15.5798C18.3095 15.3698 18.4095 15.1298 18.5695 14.8798C18.7295 14.6298 18.9395 14.4098 19.2095 14.2198C19.4695 14.0398 19.8495 13.8798 20.3295 13.7598C20.8095 13.6398 21.3795 13.5698 22.0295 13.5698H22.3095C22.7595 13.5698 23.1795 13.5998 23.5495 13.6598C23.9295 13.7198 24.2395 13.7898 24.4995 13.8898C24.7595 13.9798 24.9795 14.0898 25.1795 14.2198C25.3795 14.3498 25.5295 14.4798 25.6395 14.6098C25.7495 14.7398 25.8395 14.8798 25.9095 15.0298C25.9795 15.1798 26.0295 15.3098 26.0495 15.4298C26.0695 15.5498 26.0795 15.6598 26.0795 15.7698V15.8598H23.9295C23.7595 15.3098 23.1695 15.0298 22.1395 15.0298C20.9295 15.0298 20.3195 15.4498 20.3195 16.2998V16.3898C20.3195 16.5498 20.3495 16.6998 20.3995 16.8498C20.4595 16.9998 20.5495 17.1398 20.6795 17.2798C20.8095 17.4198 20.9995 17.5298 21.2495 17.6198C21.4995 17.6998 21.7995 17.7398 22.1395 17.7398C22.4395 17.7398 22.7095 17.7098 22.9295 17.6598C23.1495 17.6098 23.3295 17.5398 23.4495 17.4698C23.5695 17.3998 23.6595 17.3198 23.7395 17.2198C23.8195 17.1198 23.8595 17.0498 23.8795 16.9998C23.8895 16.9598 23.9095 16.9098 23.9195 16.8498H26.0595V16.9698C26.0595 17.1398 26.0395 17.2998 25.9895 17.4798C25.9395 17.6498 25.8295 17.8498 25.6695 18.0598C25.4995 18.2798 25.2895 18.4698 25.0295 18.6298C24.7695 18.7898 24.3995 18.9298 23.9295 19.0398C23.4695 19.1598 22.9195 19.2198 22.2995 19.2198Z" fill="#F7941D"/>
<path d="M31.1001 17.4097H28.6501V19.1097H26.5801V13.6797H31.1001C32.8201 13.6797 33.6701 14.2797 33.6701 15.4697V15.5897C33.6701 16.8097 32.8101 17.4097 31.1001 17.4097ZM28.6501 15.0397V16.0497H30.8501C31.3101 16.0497 31.5401 15.8797 31.5401 15.5497V15.5297C31.5401 15.1997 31.3101 15.0297 30.8501 15.0297H28.6501V15.0397Z" fill="#F7941D"/>
<path d="M7.07016 7.77002V10.55H6.49016V9.30002H5.24016V10.55H4.66016V7.77002H5.24016V8.76002H6.49016V7.77002H7.07016Z" fill="white"/>
<path d="M9.54984 7.77002V8.31002H8.16984V8.77002H9.21984V9.30002H8.16984V10.02H9.53984V10.56H7.58984V7.77002H9.54984Z" fill="white"/>
<path d="M12.1005 7.77002L11.0905 8.98002L12.3105 10.55H11.6005L10.5605 9.17002V10.55H9.98047V7.77002H10.5605V8.82002L11.4105 7.77002H12.1005Z" fill="white"/>
<path d="M13.6405 10.55C12.8305 10.55 12.2305 9.94002 12.2305 9.16002C12.2305 8.38002 12.8305 7.77002 13.6405 7.77002C14.4605 7.77002 15.0605 8.38002 15.0605 9.16002C15.0605 9.94002 14.4605 10.55 13.6405 10.55ZM13.6405 8.31002C13.1405 8.31002 12.8205 8.69002 12.8205 9.17002C12.8205 9.65002 13.1405 10.02 13.6405 10.02C14.1405 10.02 14.4605 9.65002 14.4605 9.17002C14.4705 8.68002 14.1405 8.31002 13.6405 8.31002Z" fill="white"/>
<path d="M15.76 7.77002L16.95 9.15002L18.14 7.77002H18.46V10.55H17.88V8.84002L16.96 9.93002L16.04 8.84002V10.55H15.46V7.77002H15.76Z" fill="white"/>
<path d="M19.2805 7.77002L20.4705 9.15002L21.6605 7.77002H21.9805V10.55H21.4005V8.84002L20.4805 9.93002L19.5605 8.84002V10.55H18.9805V7.77002H19.2805Z" fill="white"/>
<path d="M24.4502 7.77002V8.31002H23.0802V8.77002H24.1302V9.30002H23.0802V10.02H24.4502V10.56H22.4902V7.77002H24.4502Z" fill="white"/>
<path d="M24.8799 10.55V7.77002H26.2399C26.4799 7.77002 26.6399 7.81002 26.7699 7.90002C26.9899 8.04002 27.1399 8.29002 27.1399 8.60002C27.1399 8.90002 26.9899 9.15002 26.7699 9.30002C26.6399 9.38002 26.4799 9.43002 26.2399 9.43002H25.4599V10.55H24.8799ZM26.1699 8.90002C26.2799 8.90002 26.3299 8.89002 26.3799 8.87002C26.4899 8.83002 26.5799 8.74002 26.5799 8.60002C26.5799 8.47002 26.4999 8.38002 26.3799 8.33002C26.3299 8.31002 26.2799 8.30002 26.1699 8.30002H25.4699V8.90002H26.1699Z" fill="white"/>
<path d="M29.6504 7.77002V10.55H29.0704V9.49002C28.8704 9.56002 28.6604 9.59002 28.4404 9.59002C28.0504 9.59002 27.7304 9.47002 27.5504 9.19002C27.4104 8.97002 27.4004 8.75002 27.4004 8.49002V7.77002H27.9804V8.58002C27.9804 8.92002 28.1704 9.06002 28.5204 9.06002C28.7204 9.06002 28.9104 9.02002 29.0704 8.94002V7.77002H29.6504Z" fill="white"/>
<path d="M32.1299 7.77002V8.31002H30.7599V8.77002H31.8099V9.30002H30.7599V10.02H32.1299V10.56H30.1699V7.77002H32.1299Z" fill="white"/>
<path d="M34.5098 8.90002C34.3898 8.52002 34.1098 8.30002 33.7198 8.30002C33.2298 8.30002 32.8998 8.68002 32.8998 9.16002C32.8998 9.62002 33.2298 10.02 33.7198 10.02C34.1098 10.02 34.3998 9.80002 34.5198 9.41002L35.0698 9.58002C34.8998 10.16 34.3598 10.55 33.7198 10.55C32.9498 10.55 32.2998 9.96002 32.2998 9.16002C32.2998 8.38002 32.9098 7.77002 33.7198 7.77002C34.3298 7.77002 34.8798 8.11002 35.0598 8.73002L34.5098 8.90002Z" fill="white"/>
<path d="M37.5399 7.77002L36.5299 8.98002L37.7499 10.55H37.0299L35.9999 9.17002V10.55H35.4199V7.77002H35.9999V8.82002L36.8499 7.77002H37.5399Z" fill="white"/>
<path d="M39.75 10.09H38.52L38.35 10.55H37.75L38.85 7.77002H39.42L40.52 10.55H39.92L39.75 10.09ZM38.72 9.56002H39.55L39.14 8.45002L38.72 9.56002Z" fill="white"/>
<path d="M42.4105 10.5498V9.42979H41.8905L41.2305 10.5498H40.5605L41.2605 9.36978L41.2405 9.35978C41.0905 9.30978 40.9605 9.21978 40.8705 9.07978C40.7805 8.94978 40.7305 8.78978 40.7305 8.60978C40.7305 8.28978 40.8805 8.04978 41.1005 7.90978C41.2305 7.82978 41.4005 7.77979 41.6305 7.77979H42.9905V10.5598H42.4105V10.5498ZM42.4105 8.89978V8.30979H41.7105C41.6005 8.30979 41.5405 8.31979 41.5005 8.33979C41.3905 8.37979 41.3005 8.47978 41.3005 8.60978C41.3005 8.73978 41.3905 8.82979 41.5005 8.87979C41.5505 8.89979 41.6005 8.90978 41.7105 8.90978H42.4105V8.89978Z" fill="white"/>
<path d="M29.0898 57.6999C30.2098 56.9299 31.2198 55.9999 32.0698 54.9399C31.7698 55.7799 31.6998 56.6999 31.8698 57.5699C31.8898 57.6899 31.9298 57.8099 32.0198 57.8799C32.1198 57.9499 32.2498 57.9399 32.3698 57.9199C33.0198 57.7999 33.6298 57.4299 34.0198 56.8999C34.4198 57.1799 34.3998 57.7699 34.6698 58.1699C34.9898 58.6299 35.6598 58.7199 36.1798 58.5299C36.6998 58.3399 37.1198 57.9399 37.5198 57.5499C38.7698 56.3299 40.0098 55.1099 41.2598 53.8799" stroke="white" stroke-miterlimit="10" stroke-linecap="round" stroke-linejoin="round"/>
</g>
<defs>
<clipPath id="clip0_4255_13366">
<rect width="47.08" height="65.19" fill="white"/>
</clipPath>
</defs>
</svg>
