<svg width="60" height="66" viewBox="0 0 60 66" fill="none" xmlns="http://www.w3.org/2000/svg">
<path d="M37.9027 62.8639C37.7211 62.8426 37.5823 62.7892 37.4755 62.6396C37.4114 62.5435 37.3687 62.4474 37.3687 62.3299C37.3687 60.9093 37.3687 59.4888 37.3687 58.0682C37.3687 57.8119 37.5502 57.5982 37.8173 57.5448C39.0562 57.3099 40.2952 57.0856 41.5342 56.8506C42.9227 56.5942 44.3112 56.3272 45.6998 56.0709C45.7638 56.0602 45.8279 56.0495 45.9027 56.0281C45.9027 55.9961 45.9027 55.9534 45.9027 55.9213C45.9027 54.9067 45.892 53.892 45.9027 52.8773C45.9134 52.1723 45.7318 51.5208 45.3793 50.9227C45.0803 50.4207 44.7492 49.9293 44.4287 49.4273C44.0335 48.8079 43.6704 48.1563 43.4675 47.4407C43.0509 46.0201 43.1363 44.6209 43.8413 43.3072C44.621 41.8439 45.8279 40.904 47.4621 40.5729C49.4594 40.167 51.1684 40.7544 52.5462 42.2498C53.2618 43.0295 53.6891 43.9587 53.8386 45.0055C53.9881 46.0308 53.8493 47.0135 53.4648 47.9747C53.1978 48.637 52.8239 49.2351 52.4287 49.8332C52.1083 50.3139 51.7879 50.7838 51.5422 51.3179C51.3393 51.7771 51.2218 52.2471 51.2218 52.7491C51.2218 53.8172 51.2218 54.8746 51.2218 55.9427C51.2218 56.0175 51.2432 56.0388 51.3072 56.0495C52.0122 56.1777 52.7171 56.3165 53.4221 56.4447C54.1804 56.5836 54.9387 56.7224 55.6971 56.8719C56.6157 57.0428 57.5342 57.2137 58.4528 57.3846C58.7305 57.438 59.0082 57.4914 59.2859 57.5342C59.5849 57.5876 59.7558 57.7905 59.7558 58.1002C59.7558 59.4888 59.7558 60.888 59.7558 62.2765C59.7558 62.6183 59.5956 62.7998 59.2645 62.8639C59.2538 62.8639 59.2538 62.8639 59.2325 62.8746C59.2325 63.0241 59.2325 63.1737 59.2325 63.3339C59.2325 63.5368 59.2111 63.7291 59.147 63.9213C58.9334 64.5515 58.346 64.9787 57.6837 65.0001C57.6517 65.0001 57.6303 65.0001 57.5983 65.0001C51.5849 65.0001 45.5609 65.0001 39.5476 65.0001C38.7999 65.0001 38.1697 64.5408 37.9775 63.8466C37.9347 63.6864 37.9241 63.5155 37.9134 63.3446C37.892 63.1844 37.9027 63.0241 37.9027 62.8639ZM58.6984 58.4954C58.6664 58.4848 58.645 58.4848 58.6237 58.4741C58.0683 58.3673 57.5235 58.2711 56.9681 58.1643C56.103 58.0041 55.2271 57.8332 54.362 57.673C53.358 57.4808 52.3647 57.2992 51.3606 57.1069C51.1363 57.0642 50.9014 57.0001 50.6771 57.0001C49.2779 56.9894 47.8787 57.0001 46.4795 57.0001C46.4367 57.0001 46.394 57.0001 46.3513 57.0108C46.0522 57.0642 45.7425 57.1283 45.4434 57.1817C44.653 57.3312 43.852 57.4808 43.0616 57.6303C42.3032 57.7691 41.5556 57.9187 40.7972 58.0575C40.0389 58.1964 39.2805 58.3459 38.5222 58.4848C38.4474 58.4954 38.4261 58.5275 38.4261 58.6022C38.4261 59.6383 38.4261 60.6743 38.4261 61.7104C38.4261 61.7424 38.4261 61.7745 38.4261 61.7958C45.1871 61.7958 51.9374 61.7958 58.6984 61.7958C58.6984 60.685 58.6984 59.5956 58.6984 58.4954ZM50.1644 55.9213C50.1644 55.8893 50.1644 55.8573 50.1644 55.8252C50.1644 54.7785 50.1644 53.7318 50.1644 52.6957C50.1644 52.2151 50.2498 51.7558 50.41 51.2965C50.6023 50.7197 50.912 50.1964 51.2325 49.6837C51.5529 49.1817 51.8947 48.6797 52.1938 48.1563C52.7278 47.2378 52.9307 46.2551 52.7812 45.1977C52.621 44.0228 52.0549 43.0615 51.1043 42.3673C50.0362 41.5769 48.8399 41.3419 47.5582 41.6516C46.4047 41.9187 45.5182 42.5809 44.9094 43.5956C44.2258 44.7384 44.1404 45.9561 44.5142 47.2164C44.6958 47.8038 45.0055 48.3272 45.3366 48.8399C45.657 49.3419 45.9988 49.8439 46.2979 50.3673C46.7251 51.0936 46.9601 51.884 46.9601 52.7384C46.9601 53.7638 46.9601 54.7892 46.9601 55.8252C46.9601 55.8573 46.9601 55.9 46.9601 55.932C48.0389 55.9213 49.0963 55.9213 50.1644 55.9213Z" fill="white" stroke="white" stroke-width="0.25" stroke-miterlimit="10"/>
<path d="M53.4219 34.7196V1H1V61.251H27.5527" stroke="white" stroke-width="1.5" stroke-miterlimit="10" stroke-linecap="round" stroke-linejoin="round"/>
<path d="M16.167 27.0398H43.9053" stroke="white" stroke-width="1.5" stroke-miterlimit="10" stroke-linecap="round" stroke-linejoin="round"/>
<path d="M21.5923 36.2151H43.9047" stroke="white" stroke-width="1.5" stroke-miterlimit="10" stroke-linecap="round" stroke-linejoin="round"/>
<path d="M25.6729 31.2698H43.9052" stroke="white" stroke-width="1.5" stroke-miterlimit="10" stroke-linecap="round" stroke-linejoin="round"/>
<path d="M10.0469 5.72119H11.5422C12.1724 5.72119 12.6957 6.13775 12.6957 6.75724C12.6957 7.34469 12.1403 7.79329 11.5422 7.79329H10.6343V8.64776H10.0469V5.72119ZM11.5422 6.25524H10.6343V7.23788H11.5422C11.8626 7.23788 12.1083 7.02426 12.1083 6.74656C12.1083 6.46886 11.8626 6.25524 11.5422 6.25524Z" fill="white"/>
<path d="M13.0908 5.72119H15.5047V6.25524H13.6783V6.90677H15.4406V7.44082H13.6783V8.09235H15.5047V8.63708H13.0908V5.72119Z" fill="white"/>
<path d="M18.0577 5.72119V6.23388H16.6158V8.63708H16.0283V5.72119H18.0577Z" fill="white"/>
<path d="M20.7384 8.63708V6.69315L18.9333 8.63708H18.4634V5.72119H19.0508V7.65444L20.8666 5.72119H21.3365V8.63708H20.7384Z" fill="white"/>
<path d="M23.3126 8.14563C23.7291 8.14563 24.0602 7.95338 24.2205 7.63295H24.84C24.6584 8.28449 24.0602 8.70104 23.3126 8.70104C22.4047 8.70104 21.7104 8.04951 21.7104 7.18435C21.7104 6.30852 22.394 5.65698 23.3126 5.65698C24.0602 5.65698 24.6584 6.07354 24.84 6.72507H24.2205C24.0602 6.40465 23.7291 6.21239 23.3126 6.21239C22.7145 6.21239 22.2979 6.60758 22.2979 7.17367C22.2979 7.73976 22.7145 8.14563 23.3126 8.14563Z" fill="white"/>
<path d="M26.1005 6.25524H25.0645V5.72119H27.7026V6.25524H26.6773V8.63708H26.0898V6.25524H26.1005Z" fill="white"/>
<path d="M28.0547 5.72119H29.55C30.1695 5.72119 30.7036 6.13775 30.7036 6.75724C30.7036 7.34469 30.1481 7.79329 29.55 7.79329H28.6421V8.64776H28.0547V5.72119ZM29.5393 6.25524H28.6315V7.23788H29.5393C29.8598 7.23788 30.1054 7.02426 30.1054 6.74656C30.1054 6.46886 29.8704 6.25524 29.5393 6.25524Z" fill="white"/>
<path d="M32.0175 5.72119H32.6691L34.143 8.63708H33.4915L33.1497 7.9535H31.5583L31.2058 8.63708H30.5649L32.0175 5.72119ZM32.872 7.41946L32.338 6.37273L31.8039 7.41946H32.872Z" fill="white"/>
<path d="M34.3354 5.72119H34.9229V8.09235H36.6105V5.72119H37.1979V8.09235H37.6679V9.2993H37.1339V8.63708H34.3461V5.72119H34.3354Z" fill="white"/>
<path d="M40.3268 8.63708V6.69315L38.5217 8.63708H38.0518V5.72119H38.6392V7.65444L40.455 5.72119H40.9249V8.63708H40.3268Z" fill="white"/>
<path d="M41.1602 8.63708L41.8971 7.6758C41.534 7.5049 41.267 7.16311 41.267 6.75724C41.267 6.13775 41.7903 5.72119 42.4098 5.72119H43.9051V8.63708H43.3177V7.78261H42.538L41.8865 8.63708H41.1602ZM42.4098 7.23788H43.3284V6.25524H42.4098C42.0894 6.25524 41.8544 6.45817 41.8544 6.74656C41.8544 7.02426 42.0894 7.23788 42.4098 7.23788Z" fill="white"/>
<path d="M11.1681 10.2924H9.91846V9.64087H13.1227V10.2924H11.8837V13.1762H11.1788V10.2924H11.1681Z" fill="white"/>
<path d="M15.2696 9.56616C16.3804 9.56616 17.2029 10.3031 17.2029 11.414C17.2029 12.5034 16.3697 13.2511 15.2696 13.2511C14.1695 13.2511 13.3257 12.4607 13.3257 11.414C13.3257 10.3459 14.1588 9.56616 15.2696 9.56616ZM15.2696 12.5782C16.0066 12.5782 16.4979 12.0975 16.4979 11.414C16.4979 10.7197 16.0066 10.2391 15.2696 10.2391C14.5433 10.2391 14.0413 10.709 14.0413 11.414C14.0306 12.0975 14.5433 12.5782 15.2696 12.5782Z" fill="white"/>
<path d="M17.6836 9.64087H19.4673C20.2043 9.64087 20.6956 10.004 20.6956 10.5701C20.6956 10.9226 20.482 11.211 20.1402 11.3712C20.5781 11.5207 20.8558 11.8091 20.8558 12.2043C20.8558 12.7917 20.2684 13.1869 19.4673 13.1869H17.6836V9.64087ZM19.4673 10.2497H18.3885V11.0935H19.4673C19.7664 11.0935 20.0227 10.9119 20.0227 10.6769C20.0227 10.4206 19.7877 10.2497 19.4673 10.2497ZM19.4673 11.6809H18.3885V12.5674H19.4673C19.8732 12.5674 20.1402 12.3965 20.1402 12.1295C20.1402 11.8411 19.8945 11.6809 19.4673 11.6809Z" fill="white"/>
<path d="M22.6715 9.64087H23.4619L25.2456 13.1762H24.4552L24.0387 12.3431H22.1054L21.6889 13.1762H20.9092L22.6715 9.64087ZM23.7076 11.7023L23.0667 10.4313L22.4259 11.7023H23.7076Z" fill="white"/>
<path d="M25.4805 9.64087H27.2855C28.0439 9.64087 28.6741 10.1429 28.6741 10.8905C28.6741 11.6062 28.0012 12.1402 27.2855 12.1402H26.1854V13.1762H25.4805V9.64087ZM27.2855 10.2924H26.1854V11.4887H27.2855C27.6701 11.4887 27.9691 11.2323 27.9691 10.9012C27.9691 10.5487 27.6807 10.2924 27.2855 10.2924Z" fill="white"/>
<path d="M29.1655 9.64087H29.8705V11.0828H31.8037V9.64087H32.5087V13.1762H31.8037V11.7343H29.8705V13.1762H29.1655V9.64087Z" fill="white"/>
<path d="M34.9224 9.56616C36.0333 9.56616 36.8557 10.3031 36.8557 11.414C36.8557 12.5034 36.0226 13.2511 34.9224 13.2511C33.8116 13.2511 32.9785 12.4607 32.9785 11.414C32.9785 10.3459 33.8116 9.56616 34.9224 9.56616ZM34.9224 12.5782C35.6594 12.5782 36.1507 12.0975 36.1507 11.414C36.1507 10.7197 35.6594 10.2391 34.9224 10.2391C34.1961 10.2391 33.6941 10.709 33.6941 11.414C33.6941 12.0975 34.2068 12.5782 34.9224 12.5782Z" fill="white"/>
<path d="M39.793 9.64087V10.2604H38.0414V13.1762H37.3364V9.64087H39.793Z" fill="white"/>
<path d="M41.9718 9.56616C43.0826 9.56616 43.905 10.3031 43.905 11.414C43.905 12.5034 43.0719 13.2511 41.9718 13.2511C40.8716 13.2511 40.0278 12.4607 40.0278 11.414C40.0385 10.3459 40.8609 9.56616 41.9718 9.56616ZM41.9718 12.5782C42.7087 12.5782 43.2001 12.0975 43.2001 11.414C43.2001 10.7197 42.7087 10.2391 41.9718 10.2391C41.2455 10.2391 40.7435 10.709 40.7435 11.414C40.7435 12.0975 41.2561 12.5782 41.9718 12.5782Z" fill="white"/>
<path d="M10.0469 18.3353H11.2645C11.2645 19.0296 11.916 19.4995 12.8346 19.4995C13.6997 19.4995 14.2338 19.1791 14.2338 18.6557C14.2338 18.1324 13.7425 17.8119 12.7385 17.8119H12.1937V16.872H12.7278C13.6784 16.872 14.0522 16.6157 14.0522 16.0923C14.0522 15.6437 13.5609 15.366 12.7491 15.366C11.9801 15.366 11.4247 15.7719 11.4247 16.3593H10.2178C10.2178 15.1737 11.3286 14.2659 12.7385 14.2659C14.3192 14.2659 15.3766 14.9388 15.3766 15.9641C15.3766 16.5836 15.0242 17.0536 14.3726 17.3206C15.131 17.6197 15.5475 18.1324 15.5475 18.8053C15.5475 19.8947 14.4474 20.6103 12.8025 20.6103C11.2431 20.6103 10.0469 19.6277 10.0469 18.3353Z" fill="white"/>
<path d="M16.4126 14.394H17.6302V16.872H20.9627V14.394H22.1803V20.4822H20.9627V17.9935H17.6302V20.4822H16.4126V14.394Z" fill="white"/>
<path d="M25.6089 14.394H26.9654L30.0308 20.4822H28.6744L27.9587 19.0509H24.6263L23.9 20.4822H22.5542L25.6089 14.394ZM27.3926 17.9294L26.2925 15.7398L25.1924 17.9294H27.3926Z" fill="white"/>
<path d="M31.6439 20.4822H30.4263V14.394H31.6439V16.8827H32.3382L34.7093 14.394H36.3649L33.481 17.4381L36.5892 20.4822H34.8909L32.3061 17.9935H31.6332V20.4822H31.6439Z" fill="white"/>
<path d="M39.4835 14.394H40.8399L43.9053 20.4822H42.5489L41.8333 19.0509H38.5008L37.7745 20.4822H36.4287L39.4835 14.394ZM41.2672 17.9294L40.167 15.7398L39.0669 17.9294H41.2672Z" fill="white"/>
<mask id="mask0_3480_12469" style="mask-type:luminance" maskUnits="userSpaceOnUse" x="5" y="47" width="33" height="6">
<path d="M37.3577 47.2268H5.57129V52.8877H37.3577V47.2268Z" fill="white"/>
</mask>
<g mask="url(#mask0_3480_12469)">
<path d="M9.51212 50.7304L10.6763 47.2698H12.0008L9.98208 52.8238H8.6256L8.4013 49.6837L7.20504 52.8238H5.85925L5.58154 47.2698H6.85257L6.92734 50.7197L8.19837 47.2698H9.30918L9.51212 50.7304Z" fill="white"/>
<path d="M13.0052 52.8131H11.7021L12.6634 47.259H13.9665L13.0052 52.8131Z" fill="white"/>
<path d="M16.8387 51.3071C16.8921 51.0187 16.7425 50.7944 16.3687 50.6449L15.7385 50.3885C14.8627 49.9933 14.4461 49.4593 14.4889 48.7757C14.5102 48.466 14.617 48.1883 14.8093 47.9426C15.0015 47.6969 15.2792 47.5154 15.621 47.3765C15.9628 47.2377 16.3473 47.1736 16.7532 47.1842C17.2979 47.1949 17.7465 47.3551 18.0776 47.6649C18.4088 47.9746 18.5796 48.3912 18.569 48.9146H17.2766C17.2873 48.7009 17.2339 48.53 17.1377 48.4019C17.0416 48.2737 16.8814 48.2096 16.6571 48.1989C16.4328 48.1989 16.2405 48.2417 16.0803 48.3485C15.9094 48.4553 15.8133 48.5941 15.7813 48.7757C15.7278 49.032 15.9201 49.235 16.3473 49.4059C16.7746 49.5661 17.0843 49.7049 17.2766 49.8224C17.8854 50.1856 18.1738 50.6769 18.1311 51.2964C18.1097 51.6168 18.0029 51.8945 17.8213 52.1402C17.6397 52.3859 17.3834 52.5674 17.0523 52.6956C16.7212 52.8238 16.358 52.8879 15.9415 52.8879C15.6424 52.8879 15.3647 52.8344 15.1084 52.749C14.852 52.6636 14.6277 52.5354 14.4461 52.3645C14.0723 52.0227 13.9014 51.5741 13.9121 51.008H15.2258C15.2152 51.2964 15.2686 51.51 15.3861 51.6489C15.5142 51.7984 15.7172 51.8732 16.0162 51.8732C16.2405 51.8732 16.4221 51.8198 16.561 51.7236C16.7105 51.6275 16.7959 51.4887 16.8387 51.3071Z" fill="white"/>
<path d="M28.1934 48.2951H26.5806L25.8009 52.8131H24.4871L25.2775 48.2951H23.686L23.8676 47.259H28.375L28.1934 48.2951Z" fill="#F7941D"/>
<path d="M34.6337 52.8881C34.057 52.8774 33.5977 52.6851 33.2452 52.3113C32.8927 51.9481 32.7005 51.4461 32.6578 50.8266C32.6364 50.5169 32.6578 50.1644 32.7325 49.7479C32.8073 49.3313 32.9355 48.9575 33.1277 48.605C33.32 48.2525 33.555 47.9641 33.8327 47.7398C34.3026 47.3553 34.8473 47.1631 35.4668 47.1738C35.8407 47.1844 36.1718 47.2699 36.4602 47.4301C36.7485 47.601 36.9728 47.836 37.1437 48.1457C37.3146 48.4555 37.4108 48.8186 37.4428 49.2138C37.4642 49.4915 37.4428 49.8119 37.3894 50.1751C37.336 50.5382 37.2292 50.88 37.0903 51.2005C36.9408 51.5316 36.7592 51.82 36.5242 52.0656C36.2893 52.3113 36.0222 52.5142 35.7018 52.6637C35.3814 52.824 35.0289 52.8987 34.6337 52.8881ZM36.1184 49.2245C36.097 48.5943 35.8513 48.2632 35.3814 48.2312C35.0182 48.2098 34.7192 48.3593 34.4842 48.6584C34.2492 48.9575 34.089 49.4061 34.0142 50.0042C33.9608 50.3674 33.9501 50.6557 33.9608 50.8587C33.9822 51.4995 34.2385 51.8413 34.7085 51.852C35.0182 51.8627 35.2853 51.7559 35.5096 51.5209C35.7339 51.2859 35.8941 50.9334 35.9902 50.4848C36.097 50.0256 36.1397 49.609 36.1184 49.2245Z" fill="#F7941D"/>
<path d="M30.8525 52.8131H32.2089L31.1836 47.259H29.9553L28.1075 50.741H27.1675C26.9646 50.741 27.1675 51.243 27.6802 51.5528L27.0073 52.8131H28.4492L28.9406 51.7877H30.7243L30.8525 52.8131ZM30.3398 48.8291L30.5854 50.741H29.4319L30.3398 48.8291Z" fill="#F7941D"/>
<path d="M23.0773 48.2951L23.2588 47.259H19.5312L19.1467 49.47H18.3456C18.1213 49.47 18.3883 50.0254 19.0078 50.2924L18.5699 52.8131H22.2869L22.4685 51.7877H20.0546L20.2895 50.4633H22.3296L22.5005 49.47H20.4604L20.6634 48.2951H23.0773Z" fill="white"/>
</g>
</svg>
