<svg width="68" height="59" viewBox="0 0 68 59" fill="none" xmlns="http://www.w3.org/2000/svg">
<g clip-path="url(#clip0_2187_16103)">
<path d="M34.002 48.2619C47.0577 48.2619 57.6414 37.6782 57.6414 24.6225C57.6414 11.5669 47.0577 0.983154 34.002 0.983154C20.9464 0.983154 10.3627 11.5669 10.3627 24.6225C10.3627 37.6782 20.9464 48.2619 34.002 48.2619Z" stroke="white" stroke-width="2" stroke-linecap="round" stroke-linejoin="round"/>
<path d="M34.002 48.2619C40.2051 48.2619 45.2337 37.6782 45.2337 24.6225C45.2337 11.5669 40.2051 0.983154 34.002 0.983154C27.7989 0.983154 22.7703 11.5669 22.7703 24.6225C22.7703 37.6782 27.7989 48.2619 34.002 48.2619Z" stroke="white" stroke-width="2" stroke-linecap="round" stroke-linejoin="round"/>
<path d="M10.3586 24.6226H57.6413" stroke="white" stroke-width="2" stroke-linecap="round" stroke-linejoin="round"/>
<path d="M11.9671 40.9707H5.70237C3.095 40.9707 0.983154 43.0826 0.983154 45.6899V52.9103C0.983154 55.5177 3.095 57.6295 5.70237 57.6295H62.2976C64.905 57.6295 67.0168 55.5177 67.0168 52.9103V45.6899C67.0168 43.0826 64.905 40.9707 62.2976 40.9707H55.9935" stroke="white" stroke-width="2" stroke-linecap="round" stroke-linejoin="round"/>
<path d="M6.56763 51.6714H17.6696" stroke="white" stroke-width="2" stroke-linecap="round" stroke-linejoin="round"/>
</g>
<defs>
<clipPath id="clip0_2187_16103">
<rect width="68" height="58.6127" fill="white"/>
</clipPath>
</defs>
</svg>
