<svg width="72" height="70" viewBox="0 0 72 70" fill="none" xmlns="http://www.w3.org/2000/svg">
<g clip-path="url(#clip0_2344_64029)">
<path d="M25.1866 20.9632C26.4517 26.0271 30.5483 29.736 35.4047 29.736C41.2715 29.736 46.0496 24.3235 46.0261 17.6499C46.0261 16.9841 45.6148 16.2987 43.7193 15.2843C42.1057 14.4227 38.3655 14.3444 36.6344 13.4945C34.3746 12.3862 33.2819 10.3065 33.0783 9.69556C33.6109 14.2935 30.3446 14.36 29.2128 14.9632C28.0809 15.5663 27.5443 16.3339 27.8146 17.6459C28.0848 18.958 26.8629 19.6903 25.1945 20.9593" stroke="white" stroke-width="2" stroke-linecap="round" stroke-linejoin="round"/>
<path d="M45.3407 22.8429C45.7637 22.839 46.1945 22.9564 46.5744 23.2071C47.5888 23.8768 47.8669 25.2436 47.1971 26.258C46.5274 27.2724 45.1606 27.5504 44.1462 26.8807C43.782 26.6418 43.5157 26.3128 43.3512 25.9447" stroke="white" stroke-width="2" stroke-linecap="round" stroke-linejoin="round"/>
<path d="M27.4896 25.7804C27.3447 26.1799 27.0862 26.5402 26.7181 26.8104C25.735 27.5271 24.3564 27.3117 23.6397 26.3287C22.923 25.3457 23.1384 23.9671 24.1214 23.2504C24.4739 22.9958 24.8734 22.8587 25.2768 22.8313" stroke="white" stroke-width="2" stroke-linecap="round" stroke-linejoin="round"/>
<path d="M52.7781 38.5009C52.7781 38.5009 54.192 36.2685 53.8003 34.3103C53.299 31.7959 50.6045 31.8899 50.675 30.1471C50.7651 27.9774 53.5379 26.3677 53.2598 24.6915C53.0484 23.3991 51.3055 22.9565 51.0901 21.5544C50.7807 19.5492 51.7598 19.3377 51.5014 17.3677C51.2429 15.3978 49.1593 16.1732 49.1828 14.5283C49.3277 3.87948 39.5914 3.11185 32.628 5.3364C32.628 5.3364 22.0497 1.13013 20.7572 13.5453C20.5262 15.7502 18.9557 15.3703 18.2468 16.9643C17.816 17.9317 19.0536 19.3964 18.6854 21.3273C18.4426 22.6118 16.7664 23.6223 16.5627 24.4643C15.8891 27.2333 19.6332 28.6941 19.1241 30.5231C18.6149 32.3521 13.3786 33.4643 17.393 38.7711" stroke="white" stroke-width="2" stroke-linecap="round" stroke-linejoin="round"/>
<path d="M29.8199 8.49316C29.205 14.9671 22.7898 11.4932 25.1867 16.0597" stroke="white" stroke-width="2" stroke-linecap="round" stroke-linejoin="round"/>
<path d="M36.1724 7.57275C39.4504 13.8038 44.6162 9.7033 46.6019 14.172" stroke="white" stroke-width="2" stroke-linecap="round" stroke-linejoin="round"/>
<path d="M22.0535 68.8769C22.0535 68.8769 23.0326 60.4526 20.7728 56.1641C20.0209 58.5727 16.9347 68.8769 16.9347 68.8769" stroke="white" stroke-width="2" stroke-linecap="round" stroke-linejoin="round"/>
<path d="M48.0861 68.8769C48.0861 68.8769 47.107 60.4526 49.3668 56.1641C50.1188 58.5727 53.205 68.8769 53.205 68.8769" stroke="white" stroke-width="2" stroke-linecap="round" stroke-linejoin="round"/>
<path d="M34.876 55.185C34.876 48.5662 26.6397 44.0505 26.6397 44.0505C23.2559 45.9304 17.765 55.3338 23.5536 59.9239" stroke="white" stroke-width="2" stroke-linecap="round" stroke-linejoin="round"/>
<path d="M34.876 55.185C34.876 48.5662 43.1123 44.0505 43.1123 44.0505C46.4961 45.9304 51.9869 55.3338 46.1984 59.9239" stroke="white" stroke-width="2" stroke-linecap="round" stroke-linejoin="round"/>
<path d="M9.03918 68.3522L14.906 44.0545C16.1005 39.112 20.5222 35.6303 25.6058 35.6303H29.8238V28.5493" stroke="white" stroke-width="2" stroke-linecap="round" stroke-linejoin="round"/>
<path d="M60.9282 68.3522L55.0613 44.0545C53.8668 39.112 49.4451 35.6303 44.3616 35.6303H40.1436V28.5493" stroke="white" stroke-width="2" stroke-linecap="round" stroke-linejoin="round"/>
<path d="M30.0234 36.1394L33.7597 40.9253" stroke="white" stroke-width="2" stroke-linecap="round" stroke-linejoin="round"/>
<path d="M40.684 35.7791L36.5248 40.9253" stroke="white" stroke-width="2" stroke-linecap="round" stroke-linejoin="round"/>
<path d="M36.5248 40.9721C36.5248 40.2086 35.9058 39.5896 35.1423 39.5896C34.3787 39.5896 33.7598 40.2086 33.7598 40.9721V43.9917C33.7598 44.7552 34.3787 45.3742 35.1423 45.3742C35.9058 45.3742 36.5248 44.7552 36.5248 43.9917V40.9721Z" stroke="white" stroke-width="2" stroke-linecap="round" stroke-linejoin="round"/>
<path d="M68.5888 36.6407L67.7036 35.6341C67.5627 35.4736 67.3473 35.3913 67.1319 35.4148L65.8003 35.5754C65.2598 35.6381 64.8799 35.0584 65.158 34.5884L65.8433 33.4331C65.953 33.249 65.9647 33.0179 65.8747 32.8221L65.3107 31.6041C65.0835 31.1106 65.5183 30.5702 66.0509 30.6877L67.3629 30.9814C67.5744 31.0284 67.7937 30.9696 67.9543 30.8208L68.9412 29.9083C69.3407 29.5401 69.9909 29.7869 70.0418 30.3273L70.1671 31.6629C70.1867 31.8783 70.312 32.0702 70.5 32.1759L71.671 32.83C72.1449 33.0963 72.1097 33.7895 71.6123 34.0049L70.3786 34.5375C70.1788 34.6237 70.0379 34.7999 69.9948 35.0114L69.7324 36.3273C69.6266 36.86 68.9569 37.0401 68.5966 36.6328L68.5888 36.6407Z" fill="white"/>
<path d="M6.607 24.9853L5.31066 25.3339C5.10309 25.3887 4.93468 25.5454 4.86418 25.7491L4.41771 27.0141C4.23755 27.5271 3.54434 27.6094 3.25061 27.1511L2.51823 26.0271C2.40074 25.847 2.201 25.7334 1.98559 25.7295L0.642252 25.6942C0.0978653 25.6786 -0.191952 25.048 0.148779 24.625L0.994732 23.5793C1.13181 23.4109 1.17489 23.1877 1.11223 22.9801L0.73233 21.6916C0.579589 21.1707 1.08873 20.6968 1.59395 20.8927L2.84721 21.3744C3.04695 21.4527 3.27411 21.4253 3.45426 21.3039L4.56262 20.5441C5.00909 20.2347 5.61614 20.5754 5.58873 21.1198L5.51823 22.4592C5.50648 22.6746 5.60439 22.8822 5.7728 23.0154L6.83807 23.8339C7.26888 24.1629 7.13572 24.8483 6.61092 24.9893L6.607 24.9853Z" fill="white"/>
<path d="M15.7911 6.92267L14.5653 6.37828C14.3694 6.29212 14.1384 6.30387 13.9543 6.41745L12.8107 7.11849C12.3485 7.40048 11.7572 7.03233 11.8159 6.49186L11.9569 5.15635C11.9804 4.94095 11.8942 4.72946 11.7297 4.58847L10.7076 3.7151C10.2963 3.36262 10.4647 2.68899 10.9974 2.57541L12.3094 2.29734C12.5209 2.25426 12.6971 2.10544 12.7794 1.9057L13.2924 0.664185C13.5 0.16288 14.1932 0.115883 14.4673 0.585857L15.1371 1.74904C15.2467 1.93703 15.4386 2.05844 15.654 2.07411L16.9935 2.17985C17.5339 2.22293 17.7924 2.86915 17.4282 3.27254L16.5313 4.27123C16.3864 4.43181 16.3316 4.65113 16.3825 4.86262L16.6958 6.1668C16.8211 6.69552 16.2885 7.13808 15.7911 6.91875V6.92267Z" fill="white"/>
<path d="M43.1123 44.0545V35.7791" stroke="white" stroke-width="2" stroke-linecap="round" stroke-linejoin="round"/>
<path d="M26.5378 44.0545V35.7791" stroke="white" stroke-width="2" stroke-linecap="round" stroke-linejoin="round"/>
</g>
<defs>
<clipPath id="clip0_2344_64029">
<rect width="72" height="69.5953" fill="white" transform="translate(0 0.260742)"/>
</clipPath>
</defs>
</svg>
