<svg width="63" height="26" viewBox="0 0 63 26" fill="none" xmlns="http://www.w3.org/2000/svg">
<g clip-path="url(#clip0_4207_13919)">
<path d="M0 17.91V22.61H0.02C0.02 22.65 0 22.7 0 22.75C0 24.27 4.44 25.51 9.93 25.51C15.42 25.51 19.86 24.28 19.86 22.75C19.86 22.7 19.84 22.66 19.83 22.61H19.86V18C16.91 18.89 13.6 19.41 10.09 19.41C6.45 19.41 3.02 18.86 0 17.91Z" fill="#F7941D"/>
<path d="M9.93 0C4.44 0 0 1.23 0 2.76V8.69C2.97 9.67 6.41 10.24 10.08 10.24C13.62 10.24 16.95 9.72 19.85 8.8V2.76C19.85 1.23 15.41 0 9.93 0Z" fill="#F7941D"/>
<path d="M10.08 11.86C6.44 11.86 3.02 11.31 0 10.36V16.24C2.97 17.22 6.41 17.79 10.08 17.79C13.62 17.79 16.95 17.27 19.85 16.35V10.46C16.9 11.34 13.59 11.86 10.08 11.86Z" fill="#F7941D"/>
<path d="M42.7002 17.91V22.61H42.7202C42.7102 22.66 42.7002 22.7 42.7002 22.75C42.7002 24.27 47.1402 25.51 52.6302 25.51C58.1202 25.51 62.5602 24.28 62.5602 22.75C62.5602 22.7 62.5402 22.66 62.5302 22.61H62.5602V18C59.6102 18.89 56.3002 19.41 52.7902 19.41C49.1502 19.41 45.7202 18.86 42.7002 17.91Z" fill="white"/>
<path d="M52.6302 0C47.1502 0 42.7002 1.23 42.7002 2.76V8.69C45.6702 9.67 49.1102 10.24 52.7802 10.24C56.3202 10.24 59.6502 9.72 62.5502 8.8V2.76C62.5502 1.23 58.1102 0 52.6302 0Z" fill="white"/>
<path d="M52.7802 11.86C49.1402 11.86 45.7202 11.31 42.7002 10.36V16.24C45.6702 17.22 49.1102 17.79 52.7802 17.79C56.3202 17.79 59.6502 17.27 62.5502 16.35V10.46C59.6102 11.34 56.3002 11.86 52.7802 11.86Z" fill="white"/>
<path d="M32.3599 3.39004V12.82C32.3599 13.28 32.9199 13.51 33.2399 13.18L37.8899 8.47004C38.0899 8.27004 38.0899 7.95004 37.8899 7.75004L33.2399 3.04004C32.9199 2.70004 32.3599 2.93004 32.3599 3.39004Z" fill="#F7941D" stroke="#F7941D" stroke-miterlimit="10" stroke-linecap="round" stroke-linejoin="round"/>
<path d="M33.71 8.10999H22.75" stroke="#F7941D" stroke-miterlimit="10" stroke-linecap="round" stroke-linejoin="round"/>
<path d="M28.43 22.5V13.07C28.43 12.61 27.87 12.38 27.55 12.71L22.9 17.42C22.7 17.62 22.7 17.94 22.9 18.14L27.55 22.85C27.87 23.19 28.43 22.96 28.43 22.5Z" fill="white" stroke="white" stroke-miterlimit="10" stroke-linecap="round" stroke-linejoin="round"/>
<path d="M27.0898 17.79H38.0498" stroke="white" stroke-miterlimit="10" stroke-linecap="round" stroke-linejoin="round"/>
</g>
<defs>
<clipPath id="clip0_4207_13919">
<rect width="62.55" height="25.5" fill="white"/>
</clipPath>
</defs>
</svg>
