<svg width="61" height="63" viewBox="0 0 61 63" fill="none" xmlns="http://www.w3.org/2000/svg">
<g clip-path="url(#clip0_4259_13619)">
<path d="M52.87 18.49V61.83H7.79004V18.91" stroke="white" stroke-width="2" stroke-miterlimit="10" stroke-linecap="round" stroke-linejoin="round"/>
<path d="M22.0098 14.9299V21.4099H19.5498V14.9299H22.0098Z" fill="#F7941D"/>
<path d="M27.5401 21.52H27.2001C26.4401 21.52 25.7701 21.44 25.2001 21.29C24.6301 21.14 24.1801 20.95 23.8601 20.73C23.5401 20.51 23.2801 20.24 23.0901 19.93C22.8901 19.62 22.7701 19.34 22.7101 19.08C22.6501 18.82 22.6201 18.55 22.6201 18.26V18.01C22.6201 17.72 22.6501 17.45 22.7001 17.19C22.7501 16.94 22.8801 16.65 23.0701 16.35C23.2601 16.05 23.5201 15.78 23.8301 15.57C24.1501 15.35 24.5901 15.17 25.1701 15.02C25.7501 14.87 26.4201 14.8 27.1901 14.8H27.5301C28.0701 14.8 28.5601 14.83 29.0101 14.9C29.4601 14.97 29.8401 15.06 30.1401 15.17C30.4401 15.28 30.7101 15.41 30.9501 15.57C31.1901 15.72 31.3701 15.88 31.5001 16.03C31.6301 16.19 31.7401 16.35 31.8301 16.53C31.9101 16.71 31.9701 16.87 32.0001 17C32.0301 17.14 32.0401 17.28 32.0401 17.41V17.52H29.4701C29.2701 16.86 28.5601 16.53 27.3401 16.53C25.9001 16.53 25.1701 17.03 25.1701 18.04V18.14C25.1701 18.33 25.2001 18.52 25.2701 18.69C25.3401 18.86 25.4501 19.04 25.6001 19.2C25.7501 19.37 25.9801 19.5 26.2801 19.6C26.5801 19.7 26.9301 19.75 27.3501 19.75C27.7101 19.75 28.0301 19.72 28.3001 19.65C28.5701 19.58 28.7801 19.51 28.9201 19.43C29.0601 19.35 29.1801 19.25 29.2701 19.13C29.3601 19.01 29.4201 18.92 29.4401 18.87C29.4601 18.82 29.4701 18.76 29.4901 18.7H32.0501V18.84C32.0501 19.04 32.0201 19.24 31.9601 19.44C31.9001 19.65 31.7701 19.88 31.5801 20.14C31.3801 20.4 31.1301 20.63 30.8201 20.82C30.5101 21.02 30.0701 21.18 29.5101 21.31C28.9501 21.44 28.2801 21.52 27.5401 21.52Z" fill="#F7941D"/>
<path d="M38.0394 19.3702H35.1194V21.4002H32.6494V14.9202H38.0494C40.0994 14.9202 41.1194 15.6302 41.1194 17.0602V17.2002C41.1094 18.6502 40.0894 19.3702 38.0394 19.3702ZM35.1094 16.5502V17.7602H37.7394C38.2894 17.7602 38.5594 17.5602 38.5594 17.1702V17.1402C38.5594 16.7502 38.2894 16.5502 37.7394 16.5502H35.1094Z" fill="#F7941D"/>
<path d="M5.13 0V6.35H3.81V3.93C3.36 4.08 2.88 4.16 2.37 4.16C1.48 4.16 0.76 3.88 0.35 3.25C0.03 2.75 0 2.25 0 1.65V0H1.32V1.85C1.32 2.64 1.76 2.94 2.55 2.94C3.01 2.94 3.44 2.85 3.81 2.68V0H5.13Z" fill="white"/>
<path d="M11.5 0V1.23H9.41V6.35H8.08V1.23H6V0H11.5Z" fill="white"/>
<path d="M14.9702 6.35001C13.1102 6.35001 11.7402 4.96001 11.7402 3.18001C11.7402 1.40001 13.1102 0.0100098 14.9702 0.0100098C16.8302 0.0100098 18.2002 1.40001 18.2002 3.18001C18.2102 4.96001 16.8402 6.35001 14.9702 6.35001ZM14.9702 1.22001C13.8302 1.22001 13.1002 2.08001 13.1002 3.18001C13.1002 4.28001 13.8302 5.13001 14.9702 5.13001C16.1102 5.13001 16.8502 4.28001 16.8502 3.18001C16.8502 2.08001 16.1202 1.22001 14.9702 1.22001Z" fill="white"/>
<path d="M26.9297 0V6.35H25.5997V3.48H22.7497V6.34H21.4297V0H22.7497V2.26H25.5997V0H26.9297Z" fill="white"/>
<path d="M29.0503 0L30.6003 2.92L32.0903 0H33.5603L31.2503 4.32C30.9103 4.97 30.6703 5.36 30.3503 5.7C29.9903 6.08 29.5603 6.35 28.9703 6.35C28.5703 6.35 28.1803 6.22 27.8603 5.98L28.5403 4.86C28.6703 4.96 28.8303 5.02 29.0003 5.02C29.2703 5.02 29.4803 4.86 29.8403 4.28C29.8503 4.26 29.8903 4.2 29.8903 4.2L27.5703 0H29.0503Z" fill="white"/>
<path d="M40.8595 6.35L38.6495 3.19V6.35H37.3295V3.19L35.0995 6.35H33.5195L36.1095 2.77L33.9595 0H35.4995L37.3195 2.41V0H38.6395V2.41L40.4595 0H41.9995L39.8495 2.77L42.4395 6.35H40.8595Z" fill="white"/>
<path d="M48.5203 0V6.35H47.2003V3.48H44.3503V6.34H43.0303V0H44.3503V2.26H47.2003V0H48.5203Z" fill="white"/>
<path d="M52.6402 6.35001C50.7802 6.35001 49.4102 4.96001 49.4102 3.18001C49.4102 1.40001 50.7802 0.0100098 52.6402 0.0100098C54.5002 0.0100098 55.8702 1.40001 55.8702 3.18001C55.8702 4.96001 54.5002 6.35001 52.6402 6.35001ZM52.6402 1.22001C51.5002 1.22001 50.7702 2.08001 50.7702 3.18001C50.7702 4.28001 51.5002 5.13001 52.6402 5.13001C53.7802 5.13001 54.5202 4.28001 54.5202 3.18001C54.5102 2.08001 53.7802 1.22001 52.6402 1.22001Z" fill="white"/>
<path d="M58.0098 4.5C57.9898 3.56 58.3098 3.17 58.7898 2.82C59.1298 2.57 59.5198 2.35 59.5198 1.9C59.5198 1.51 59.1498 1.22 58.6198 1.22C57.9798 1.22 57.6898 1.61 57.6798 2.14H56.3398C56.3998 0.87 57.2398 0 58.6298 0C59.9298 0 60.8498 0.79 60.8498 1.92C60.8498 2.57 60.4898 2.95 60.0498 3.27C59.5498 3.63 59.1898 3.81 59.1798 4.5H58.0098ZM59.2398 6.35H57.9298V5.05H59.2398V6.35Z" fill="white"/>
<path d="M19.1004 33.03H14.8304C14.0604 33.03 13.4404 32.41 13.4404 31.64V27.37C13.4404 26.6 14.0604 25.98 14.8304 25.98H19.1004C19.8704 25.98 20.4904 26.6 20.4904 27.37V31.64C20.4904 32.41 19.8604 33.03 19.1004 33.03Z" stroke="#F7941D" stroke-width="2" stroke-miterlimit="10"/>
<path d="M25.1104 26.6799H47.2204" stroke="white" stroke-width="2" stroke-miterlimit="10" stroke-linecap="round" stroke-linejoin="round"/>
<path d="M25.1104 31.3401H42.4304" stroke="white" stroke-width="2" stroke-miterlimit="10" stroke-linecap="round" stroke-linejoin="round"/>
<path d="M19.1004 44.6H14.8304C14.0604 44.6 13.4404 43.98 13.4404 43.21V38.94C13.4404 38.17 14.0604 37.55 14.8304 37.55H19.1004C19.8704 37.55 20.4904 38.17 20.4904 38.94V43.21C20.4904 43.98 19.8604 44.6 19.1004 44.6Z" stroke="#F7941D" stroke-width="2" stroke-miterlimit="10"/>
<path d="M25.1104 39.25H47.2204" stroke="white" stroke-width="2" stroke-miterlimit="10" stroke-linecap="round" stroke-linejoin="round"/>
<path d="M25.1104 42.9099H42.4304" stroke="white" stroke-width="2" stroke-miterlimit="10" stroke-linecap="round" stroke-linejoin="round"/>
<path d="M19.1004 56.1701H14.8304C14.0604 56.1701 13.4404 55.5501 13.4404 54.7801V50.5101C13.4404 49.7401 14.0604 49.1201 14.8304 49.1201H19.1004C19.8704 49.1201 20.4904 49.7401 20.4904 50.5101V54.7801C20.4904 55.5501 19.8604 56.1701 19.1004 56.1701Z" stroke="#F7941D" stroke-width="2" stroke-miterlimit="10"/>
<path d="M25.1104 50.8201H47.2204" stroke="white" stroke-width="2" stroke-miterlimit="10" stroke-linecap="round" stroke-linejoin="round"/>
<path d="M25.1104 54.48H42.4304" stroke="white" stroke-width="2" stroke-miterlimit="10" stroke-linecap="round" stroke-linejoin="round"/>
<path d="M9.14008 9.49993C8.95008 8.88993 8.49008 8.52993 7.86008 8.52993C7.08008 8.52993 6.54008 9.12993 6.54008 9.91993C6.54008 10.6599 7.06008 11.2999 7.86008 11.2999C8.49008 11.2999 8.95008 10.9399 9.14008 10.3099L10.0301 10.5799C9.76008 11.5199 8.88008 12.1499 7.86008 12.1499C6.62008 12.1499 5.58008 11.1899 5.58008 9.91993C5.58008 8.66993 6.57008 7.67993 7.86008 7.67993C8.85008 7.67993 9.72008 8.21993 10.0201 9.20993L9.14008 9.49993Z" fill="white"/>
<path d="M14.0096 7.67993V8.53993H12.5396V12.1399H11.6096V8.53993H10.1396V7.67993H14.0096Z" fill="white"/>
<path d="M16.8301 11.3999H14.8601L14.5901 12.1399H13.6201L15.3901 7.67993H16.3101L18.0801 12.1399H17.1101L16.8301 11.3999ZM15.1801 10.5599H16.5101L15.8501 8.76993L15.1801 10.5599Z" fill="white"/>
<path d="M22.36 7.67993V12.1399H21.43V10.1299H19.43V12.1399H18.5V7.67993H19.43V9.26993H21.43V7.67993H22.36Z" fill="white"/>
<path d="M27.1597 11.2799H27.7697V13.0599H26.8397V12.1399H23.8597V13.0599H22.9297V11.2799H23.4597C23.7097 10.8199 23.8397 10.3099 23.9097 9.77993C24.0097 9.08993 24.0097 8.35993 24.0197 7.67993H27.1597V11.2799ZM24.9297 8.53993C24.9297 8.96993 24.9097 9.41993 24.8297 9.86993C24.7597 10.3299 24.6397 10.7899 24.4397 11.2799H26.2197V8.53993H24.9297Z" fill="white"/>
<path d="M31.1504 11.3999H29.1804L28.9104 12.1399H27.9404L29.7104 7.67993H30.6304L32.4004 12.1399H31.4304L31.1504 11.3999ZM29.5004 10.5599H30.8304L30.1704 8.76993L29.5004 10.5599Z" fill="white"/>
<path d="M32.8105 12.1499V7.68994H35.0005C35.3805 7.68994 35.6405 7.75994 35.8605 7.89994C36.2205 8.11994 36.4505 8.51994 36.4505 9.02994C36.4505 9.51994 36.2205 9.91994 35.8505 10.1499C35.6405 10.2799 35.3805 10.3599 35.0005 10.3599H33.7505V12.1599H32.8105V12.1499ZM34.8705 9.48994C35.0505 9.48994 35.1305 9.47994 35.2105 9.44994C35.3805 9.37994 35.5205 9.23994 35.5205 9.01994C35.5205 8.80994 35.3905 8.65994 35.2105 8.58994C35.1405 8.55994 35.0505 8.53994 34.8705 8.53994H33.7405V9.48994H34.8705Z" fill="white"/>
<path d="M40.6405 7.67993V8.53993H39.1705V12.1399H38.2405V8.53993H36.7705V7.67993H40.6405Z" fill="white"/>
<path d="M45.11 7.67993V12.1399H44.18V10.1299H42.18V12.1399H41.25V7.67993H42.18V9.26993H44.18V7.67993H45.11Z" fill="white"/>
<path d="M48.7403 11.3999H46.7703L46.5003 12.1399H45.5303L47.3003 7.67993H48.2203L49.9903 12.1399H49.0203L48.7403 11.3999ZM47.0903 10.5599H48.4203L47.7603 8.76993L47.0903 10.5599Z" fill="white"/>
<path d="M53.0198 12.1499V10.3499H52.1798L51.1198 12.1499H50.0498L51.1798 10.2499L51.1398 10.2299C50.8998 10.1499 50.6898 10.0099 50.5398 9.77993C50.3898 9.56993 50.3098 9.30993 50.3098 9.01993C50.3098 8.50993 50.5398 8.10993 50.8998 7.88993C51.1098 7.74993 51.3798 7.67993 51.7598 7.67993H53.9398V12.1399H53.0198V12.1499ZM53.0198 9.48993V8.53993H51.8898C51.7098 8.53993 51.6198 8.54993 51.5498 8.58993C51.3698 8.65993 51.2398 8.80993 51.2398 9.01993C51.2398 9.22993 51.3798 9.36993 51.5498 9.44993C51.6298 9.48993 51.7098 9.48993 51.8898 9.48993H53.0198Z" fill="white"/>
</g>
<defs>
<clipPath id="clip0_4259_13619">
<rect width="60.85" height="62.83" fill="white"/>
</clipPath>
</defs>
</svg>
