<svg width="79" height="65" viewBox="0 0 79 65" fill="none" xmlns="http://www.w3.org/2000/svg">
<g clip-path="url(#clip0_2406_79249)">
<path d="M8.65204 16.1886C12.8144 16.1886 16.1886 12.8144 16.1886 8.65203C16.1886 4.48971 12.8144 1.11548 8.65204 1.11548C4.48971 1.11548 1.11548 4.48971 1.11548 8.65203C1.11548 12.8144 4.48971 16.1886 8.65204 16.1886Z" stroke="white" stroke-width="2" stroke-linecap="round" stroke-linejoin="round"/>
<path d="M8.6521 1.11548H69.6674C73.8306 1.11548 77.204 4.48886 77.204 8.65203C77.204 12.8152 73.8306 16.1886 69.6674 16.1886H8.6521" stroke="white" stroke-width="2" stroke-linecap="round" stroke-linejoin="round"/>
<path d="M8.65204 11.0973C10.0025 11.0973 11.0973 10.0025 11.0973 8.65204C11.0973 7.30156 10.0025 6.20679 8.65204 6.20679C7.30156 6.20679 6.20679 7.30156 6.20679 8.65204C6.20679 10.0025 7.30156 11.0973 8.65204 11.0973Z" stroke="white" stroke-width="2" stroke-linecap="round" stroke-linejoin="round"/>
<path d="M8.65204 36.8216C12.8144 36.8216 16.1886 33.4474 16.1886 29.2851C16.1886 25.1228 12.8144 21.7485 8.65204 21.7485C4.48971 21.7485 1.11548 25.1228 1.11548 29.2851C1.11548 33.4474 4.48971 36.8216 8.65204 36.8216Z" stroke="white" stroke-width="2" stroke-linecap="round" stroke-linejoin="round"/>
<path d="M20.3652 36.8215H8.6521" stroke="white" stroke-width="2" stroke-linecap="round" stroke-linejoin="round"/>
<path d="M66.0442 21.7441H69.6675C73.8306 21.7441 77.204 25.1175 77.204 29.2807C77.204 33.4439 73.8306 36.8173 69.6675 36.8173H66.0442" stroke="white" stroke-width="2" stroke-linecap="round" stroke-linejoin="round"/>
<path d="M8.6521 21.7441H20.3652" stroke="white" stroke-width="2" stroke-linecap="round" stroke-linejoin="round"/>
<path d="M8.65204 31.7304C10.0025 31.7304 11.0973 30.6356 11.0973 29.2851C11.0973 27.9346 10.0025 26.8398 8.65204 26.8398C7.30156 26.8398 6.20679 27.9346 6.20679 29.2851C6.20679 30.6356 7.30156 31.7304 8.65204 31.7304Z" stroke="white" stroke-width="2" stroke-linecap="round" stroke-linejoin="round"/>
<path d="M21.3916 16.1887H65.0135V58.5255C65.0135 61.4795 62.6129 63.8801 59.6589 63.8801H26.7462C23.7922 63.8801 21.3916 61.4795 21.3916 58.5255V16.1887Z" stroke="white" stroke-width="2" stroke-linecap="round" stroke-linejoin="round"/>
<path d="M46.6606 36.9509L50.8684 44.2376L55.0762 51.5198H46.6606H38.2495L42.4528 44.2376L46.6606 36.9509Z" stroke="white" stroke-width="2" stroke-linecap="round" stroke-linejoin="round"/>
<path d="M37.9059 51.52H31.3376L34.6218 45.8308L37.9059 40.146L41.1901 45.8308" stroke="white" stroke-width="2" stroke-linecap="round" stroke-linejoin="round"/>
<path d="M36.2638 35.0055C37.4714 35.0055 38.4503 34.0266 38.4503 32.819C38.4503 31.6115 37.4714 30.6326 36.2638 30.6326C35.0563 30.6326 34.0774 31.6115 34.0774 32.819C34.0774 34.0266 35.0563 35.0055 36.2638 35.0055Z" stroke="white" stroke-width="2" stroke-linecap="round" stroke-linejoin="round"/>
</g>
<defs>
<clipPath id="clip0_2406_79249">
<rect width="78.3195" height="65" fill="white"/>
</clipPath>
</defs>
</svg>
