<svg width="99" height="62" viewBox="0 0 99 62" fill="none" xmlns="http://www.w3.org/2000/svg">
<path d="M65.1318 38.1228H84.8813C91.667 38.1228 97.1732 43.629 97.1732 50.4147V57.9322C97.1732 59.3238 96.0416 60.4554 94.65 60.4554H55.3591C53.9676 60.4554 52.8359 59.3238 52.8359 57.9322V50.4147C52.8359 43.629 58.3421 38.1228 65.1278 38.1228H65.1318Z" stroke="white" stroke-width="2" stroke-linecap="round" stroke-linejoin="round"/>
<path d="M60.3047 40.4181L64.8872 44.9126C65.5949 45.6084 66.7266 45.6284 67.4623 44.9646L73.7042 39.3025C74.436 38.6387 75.5556 38.6547 76.2634 39.3385L82.0215 44.8766C82.7572 45.5844 83.9288 45.5724 84.6486 44.8486L90.1668 39.3225" stroke="white" stroke-width="2" stroke-linecap="round" stroke-linejoin="round"/>
<path d="M69.6172 44.7886L71.4326 47.6276H78.2463L80.5735 44.2208" stroke="white" stroke-width="2" stroke-linecap="round" stroke-linejoin="round"/>
<path d="M70.0176 59.6036L71.6051 48.1354" stroke="white" stroke-width="2" stroke-linecap="round" stroke-linejoin="round"/>
<path d="M79.775 59.6036L78.1875 48.1354" stroke="white" stroke-width="2" stroke-linecap="round" stroke-linejoin="round"/>
<path d="M75.0038 37.8029C83.4024 37.8029 90.2108 30.9945 90.2108 22.5959C90.2108 14.1974 83.4024 7.38898 75.0038 7.38898C66.6053 7.38898 59.7969 14.1974 59.7969 22.5959C59.7969 30.9945 66.6053 37.8029 75.0038 37.8029Z" stroke="white" stroke-width="2" stroke-linecap="round" stroke-linejoin="round"/>
<path d="M13.2919 38.1228H33.0413C39.8271 38.1228 45.3332 43.629 45.3332 50.4147V57.9322C45.3332 59.3238 44.2016 60.4554 42.8101 60.4554H3.52316C2.13162 60.4554 1 59.3238 1 57.9322V50.4147C1 43.629 6.50617 38.1228 13.2919 38.1228Z" stroke="white" stroke-width="2" stroke-linecap="round" stroke-linejoin="round"/>
<path d="M22.9237 37.8029C31.3223 37.8029 38.1307 30.9945 38.1307 22.5959C38.1307 14.1974 31.3223 7.38898 22.9237 7.38898C14.5252 7.38898 7.7168 14.1974 7.7168 22.5959C7.7168 30.9945 14.5252 37.8029 22.9237 37.8029Z" stroke="white" stroke-width="2" stroke-linecap="round" stroke-linejoin="round"/>
<path d="M33.3199 22.8918C33.3199 25.8407 32.0596 28.4959 30.0426 30.3577C28.5157 28.1433 25.9494 26.6902 23.0437 26.6902C20.1381 26.6902 17.5717 28.1433 16.0448 30.3577C14.0279 28.4959 12.7676 25.8407 12.7676 22.8918H33.3199Z" stroke="white" stroke-width="2" stroke-linecap="round" stroke-linejoin="round"/>
<path d="M30.0427 30.3577C28.2088 32.0485 25.7475 33.0849 23.0438 33.0849C20.3401 33.0849 17.8788 32.0485 16.0449 30.3577C17.5718 28.1433 20.1381 26.6902 23.0438 26.6902C25.9494 26.6902 28.5158 28.1433 30.0427 30.3577Z" stroke="white" stroke-width="2" stroke-linecap="round" stroke-linejoin="round"/>
<path d="M82.2781 28.8842C80.43 30.1336 77.9496 30.8994 75.225 30.8994C72.5004 30.8994 70.02 30.1336 68.1719 28.8842" stroke="white" stroke-width="2" stroke-linecap="round" stroke-linejoin="round"/>
<path d="M26.707 18.2387C26.707 16.7241 27.9431 15.498 29.47 15.498C30.9968 15.498 32.2329 16.7241 32.2329 18.2387" stroke="white" stroke-width="2" stroke-linecap="round" stroke-linejoin="round"/>
<path d="M13.6934 18.2387C13.6934 16.7241 14.9294 15.498 16.4563 15.498C17.9832 15.498 19.2192 16.7241 19.2192 18.2387" stroke="white" stroke-width="2" stroke-linecap="round" stroke-linejoin="round"/>
<path d="M37.2521 8.14698C37.2985 8.10962 37.3423 8.07052 37.3836 8.02997C37.4249 8.07052 37.4687 8.10962 37.5152 8.14698C37.4687 8.18434 37.4249 8.22345 37.3836 8.264C37.3423 8.22345 37.2985 8.18434 37.2521 8.14698Z" fill="white" stroke="white" stroke-width="3"/>
<mask id="path-15-inside-1_2881_16640" fill="white">
<path d="M15.3177 0.144242L15.8913 1.3703C15.9129 1.41571 15.9452 1.45578 15.9856 1.47982L17.0331 2.15028C17.1974 2.25446 17.1974 2.52959 17.0331 2.63376L15.9856 3.30422C15.9452 3.32826 15.9129 3.36833 15.8913 3.41374L15.3177 4.6398C15.2289 4.83212 14.9946 4.83212 14.903 4.6398L14.3294 3.41374C14.3079 3.36833 14.2756 3.32826 14.2352 3.30422L13.1877 2.63376C13.0234 2.52959 13.0234 2.25446 13.1877 2.15028L14.2352 1.47982C14.2756 1.45578 14.3079 1.41571 14.3294 1.3703L14.903 0.144242C14.9919 -0.0480808 15.2262 -0.0480808 15.3177 0.144242Z"/>
</mask>
<path d="M15.3177 0.144242L15.8913 1.3703C15.9129 1.41571 15.9452 1.45578 15.9856 1.47982L17.0331 2.15028C17.1974 2.25446 17.1974 2.52959 17.0331 2.63376L15.9856 3.30422C15.9452 3.32826 15.9129 3.36833 15.8913 3.41374L15.3177 4.6398C15.2289 4.83212 14.9946 4.83212 14.903 4.6398L14.3294 3.41374C14.3079 3.36833 14.2756 3.32826 14.2352 3.30422L13.1877 2.63376C13.0234 2.52959 13.0234 2.25446 13.1877 2.15028L14.2352 1.47982C14.2756 1.45578 14.3079 1.41571 14.3294 1.3703L14.903 0.144242C14.9919 -0.0480808 15.2262 -0.0480808 15.3177 0.144242Z" fill="white"/>
<path d="M15.3177 0.144242L18.0351 -1.12701L18.0308 -1.13616L18.0265 -1.14529L15.3177 0.144242ZM15.8913 1.3703L13.174 2.64156L13.1774 2.64888L13.1809 2.65619L15.8913 1.3703ZM15.9856 1.47982L17.6028 -1.04696L17.5618 -1.07323L17.5199 -1.09815L15.9856 1.47982ZM17.0331 2.15028L15.4159 4.67708L15.4264 4.68377L17.0331 2.15028ZM17.0331 2.63376L15.4264 0.100251L15.4159 0.106984L17.0331 2.63376ZM15.9856 3.30422L17.5199 5.8822L17.5618 5.85727L17.6028 5.831L15.9856 3.30422ZM15.8913 3.41374L13.1809 2.12785L13.1774 2.13516L13.174 2.14248L15.8913 3.41374ZM15.3177 4.6398L12.6004 3.36855L12.5974 3.37499L12.5944 3.38144L15.3177 4.6398ZM14.903 4.6398L12.1857 5.91106L12.19 5.92021L12.1943 5.92933L14.903 4.6398ZM14.3294 3.41374L17.0468 2.14248L17.0434 2.13516L17.0399 2.12785L14.3294 3.41374ZM14.2352 3.30422L12.618 5.831L12.659 5.85727L12.7009 5.8822L14.2352 3.30422ZM13.1877 2.63376L14.8049 0.106962L14.7943 0.100273L13.1877 2.63376ZM13.1877 2.15028L14.7944 4.68379L14.8049 4.67706L13.1877 2.15028ZM14.2352 1.47982L12.7009 -1.09815L12.659 -1.07323L12.618 -1.04696L14.2352 1.47982ZM14.3294 1.3703L17.0399 2.65619L17.0434 2.64888L17.0468 2.64156L14.3294 1.3703ZM14.903 0.144242L17.6204 1.4155L17.6234 1.40906L17.6264 1.4026L14.903 0.144242ZM12.6004 1.4155L13.174 2.64156L18.6087 0.0990485L18.0351 -1.12701L12.6004 1.4155ZM13.1809 2.65619C13.3888 3.09449 13.7769 3.65645 14.4513 4.0578L17.5199 -1.09815C18.1134 -0.744892 18.4369 -0.26306 18.6018 0.0844149L13.1809 2.65619ZM14.3684 4.0066L15.4159 4.67706L18.6503 -0.376496L17.6028 -1.04696L14.3684 4.0066ZM15.4264 4.68377C14.4614 4.07178 14.1563 3.09222 14.1563 2.39202C14.1563 1.69182 14.4614 0.712266 15.4264 0.100273L18.6398 5.16725C19.7691 4.45108 20.1563 3.28187 20.1563 2.39202C20.1563 1.50217 19.7691 0.332962 18.6398 -0.383206L15.4264 4.68377ZM15.4159 0.106984L14.3684 0.777444L17.6028 5.831L18.6503 5.16054L15.4159 0.106984ZM14.4513 0.726247C13.7769 1.12759 13.3888 1.68956 13.1809 2.12785L18.6018 4.69963C18.4369 5.0471 18.1134 5.52893 17.5199 5.8822L14.4513 0.726247ZM13.174 2.14248L12.6004 3.36855L18.0351 5.91106L18.6087 4.68499L13.174 2.14248ZM12.5944 3.38144C12.9977 2.50867 13.9239 1.78404 15.1114 1.78404C16.2926 1.78404 17.2069 2.49994 17.6117 3.35027L12.1943 5.92933C12.6907 6.97199 13.7679 7.78404 15.1114 7.78404C16.4612 7.78404 17.5489 6.96326 18.0411 5.89816L12.5944 3.38144ZM17.6204 3.36855L17.0468 2.14248L11.6121 4.68499L12.1857 5.91106L17.6204 3.36855ZM17.0399 2.12785C16.832 1.68956 16.4438 1.12759 15.7695 0.726247L12.7009 5.8822C12.1073 5.52893 11.7839 5.0471 11.619 4.69963L17.0399 2.12785ZM15.8524 0.777444L14.8049 0.106984L11.5704 5.16054L12.618 5.831L15.8524 0.777444ZM14.7943 0.100273C15.7594 0.712266 16.0645 1.69182 16.0645 2.39202C16.0645 3.09222 15.7594 4.07178 14.7943 4.68377L11.581 -0.383206C10.4517 0.332962 10.0645 1.50217 10.0645 2.39202C10.0645 3.28187 10.4517 4.45108 11.581 5.16725L14.7943 0.100273ZM14.8049 4.67706L15.8524 4.0066L12.618 -1.04696L11.5704 -0.376496L14.8049 4.67706ZM15.7695 4.0578C16.4438 3.65645 16.832 3.09449 17.0399 2.65619L11.619 0.0844149C11.7839 -0.26306 12.1073 -0.744892 12.7009 -1.09815L15.7695 4.0578ZM17.0468 2.64156L17.6204 1.4155L12.1857 -1.12701L11.6121 0.0990485L17.0468 2.64156ZM17.6264 1.4026C17.2231 2.27538 16.2969 3 15.1094 3C13.9282 3 13.0139 2.28411 12.609 1.43377L18.0265 -1.14529C17.5301 -2.18794 16.4529 -3 15.1094 -3C13.7596 -3 12.6719 -2.17921 12.1797 -1.11412L17.6264 1.4026Z" fill="white" mask="url(#path-15-inside-1_2881_16640)"/>
<path d="M6.26725 10.7086C6.26725 10.6182 6.33784 10.5656 6.39925 10.5656C6.46066 10.5656 6.53125 10.6182 6.53125 10.7086C6.53125 10.7991 6.46066 10.8517 6.39925 10.8517C6.33784 10.8517 6.26725 10.7991 6.26725 10.7086Z" fill="white" stroke="white" stroke-width="3"/>
<path d="M30.1852 1.49585C30.1852 1.15608 30.4595 0.901376 30.7723 0.901376C31.085 0.901376 31.3594 1.15609 31.3594 1.49585C31.3594 1.83562 31.085 2.09033 30.7723 2.09033C30.4595 2.09033 30.1852 1.83563 30.1852 1.49585Z" fill="white" stroke="white" stroke-width="3"/>
<circle cx="69.5152" cy="19.48" r="2.01518" fill="white"/>
<circle cx="80.2632" cy="19.48" r="2.01518" fill="white"/>
</svg>
