<svg width="67" height="63" viewBox="0 0 67 63" fill="none" xmlns="http://www.w3.org/2000/svg">
<path d="M60.2061 51.0311V52.0483C60.2061 54.1006 58.5426 55.7641 56.4903 55.7641H49.7925L45.0467 60.6645C44.2201 61.5168 42.778 60.9323 42.778 59.7452V55.7641H41.5214C39.469 55.7641 37.8055 54.1006 37.8055 52.0483V41.5986C37.8055 39.5463 39.469 37.8828 41.5214 37.8828H56.4903C58.5426 37.8828 60.2061 39.5463 60.2061 41.5986V46.3188" stroke="white" stroke-width="2" stroke-linecap="round" stroke-linejoin="round"/>
<path d="M16.1518 4.61523H13.3114C11.0299 4.61523 9.18103 6.46414 9.18103 8.74565V20.3644C9.18103 22.6459 11.0299 24.4948 13.3114 24.4948H20.7586L26.0349 29.9411C26.9516 30.8887 28.5585 30.2398 28.5585 28.9188V24.4922H29.9541C32.2357 24.4922 34.0846 22.6433 34.0846 20.3618V8.74823C34.0846 6.46671 32.2357 4.61781 29.9541 4.61781H20.7586" stroke="white" stroke-width="2" stroke-linecap="round" stroke-linejoin="round"/>
<path d="M23.313 10.7158H21.3611C20.4367 10.7158 19.6848 11.4652 19.6848 12.3922V12.7064C19.6848 13.6308 20.4341 14.3827 21.3611 14.3827H21.6367C22.5611 14.3827 23.313 15.1321 23.313 16.0591C23.313 16.9835 22.5637 17.7355 21.6367 17.7355H19.6848" stroke="white" stroke-width="2" stroke-linecap="round" stroke-linejoin="round"/>
<path d="M21.7757 9.41553V10.7159" stroke="white" stroke-width="2" stroke-linecap="round" stroke-linejoin="round"/>
<path d="M21.1834 17.7329V19.0333" stroke="white" stroke-width="2" stroke-linecap="round" stroke-linejoin="round"/>
<path d="M35.8176 39.1936C34.1103 39.1936 32.7275 37.8108 32.7275 36.1036V26.0942" stroke="white" stroke-width="2" stroke-linecap="round" stroke-linejoin="round"/>
<path d="M33.106 3.2504C33.6313 2.29247 34.6485 1.64355 35.8176 1.64355H62.2661C63.9734 1.64355 65.3562 3.02637 65.3562 4.73364V36.1032C65.3562 37.8105 63.9734 39.1933 62.2661 39.1933" stroke="white" stroke-width="2" stroke-linecap="round" stroke-linejoin="round"/>
<path d="M59.0025 7H38.9975C38.4466 7 38 7.47806 38 8.06778V11.9322C38 12.5219 38.4466 13 38.9975 13H59.0025C59.5534 13 60 12.5219 60 11.9322V8.06778C60 7.47806 59.5534 7 59.0025 7Z" stroke="white" stroke-width="2" stroke-linecap="round" stroke-linejoin="round"/>
<path d="M42.3876 18H37.6124C37.2742 18 37 18.2943 37 18.6573V20.3427C37 20.7057 37.2742 21 37.6124 21H42.3876C42.7258 21 43 20.7057 43 20.3427V18.6573C43 18.2943 42.7258 18 42.3876 18Z" fill="white"/>
<path d="M51.3876 18H46.6124C46.2742 18 46 18.2943 46 18.6573V20.3427C46 20.7057 46.2742 21 46.6124 21H51.3876C51.7258 21 52 20.7057 52 20.3427V18.6573C52 18.2943 51.7258 18 51.3876 18Z" fill="white"/>
<path d="M60.3876 18H55.6124C55.2742 18 55 18.2943 55 18.6573V20.3427C55 20.7057 55.2742 21 55.6124 21H60.3876C60.7258 21 61 20.7057 61 20.3427V18.6573C61 18.2943 60.7258 18 60.3876 18Z" fill="white"/>
<path d="M42.3876 24H37.6124C37.2742 24 37 24.2943 37 24.6573V26.3427C37 26.7057 37.2742 27 37.6124 27H42.3876C42.7258 27 43 26.7057 43 26.3427V24.6573C43 24.2943 42.7258 24 42.3876 24Z" fill="white"/>
<path d="M51.3876 24H46.6124C46.2742 24 46 24.2943 46 24.6573V26.3427C46 26.7057 46.2742 27 46.6124 27H51.3876C51.7258 27 52 26.7057 52 26.3427V24.6573C52 24.2943 51.7258 24 51.3876 24Z" fill="white"/>
<path d="M60.3876 24H55.6124C55.2742 24 55 24.2943 55 24.6573V26.3427C55 26.7057 55.2742 27 55.6124 27H60.3876C60.7258 27 61 26.7057 61 26.3427V24.6573C61 24.2943 60.7258 24 60.3876 24Z" fill="white"/>
<path d="M42.3876 30H37.6124C37.2742 30 37 30.2943 37 30.6573V32.3427C37 32.7057 37.2742 33 37.6124 33H42.3876C42.7258 33 43 32.7057 43 32.3427V30.6573C43 30.2943 42.7258 30 42.3876 30Z" fill="white"/>
<path d="M51.3876 30H46.6124C46.2742 30 46 30.2943 46 30.6573V32.3427C46 32.7057 46.2742 33 46.6124 33H51.3876C51.7258 33 52 32.7057 52 32.3427V30.6573C52 30.2943 51.7258 30 51.3876 30Z" fill="white"/>
<path d="M60.3876 30H55.6124C55.2742 30 55 30.2943 55 30.6573V32.3427C55 32.7057 55.2742 33 55.6124 33H60.3876C60.7258 33 61 32.7057 61 32.3427V30.6573C61 30.2943 60.7258 30 60.3876 30Z" fill="white"/>
<path d="M42.8011 42.9814H55.1306" stroke="white" stroke-width="2" stroke-linecap="round" stroke-linejoin="round"/>
<path d="M42.8011 46.6382H55.1306" stroke="white" stroke-width="2" stroke-linecap="round" stroke-linejoin="round"/>
<path d="M42.8011 50.292H52.1821" stroke="white" stroke-width="2" stroke-linecap="round" stroke-linejoin="round"/>
<path d="M10.6982 48.2261H21.9789C25.8549 48.2261 29 51.3712 29 55.2471V59.5411C29 60.3359 28.3536 60.9823 27.5588 60.9823H5.11834C4.3235 60.9823 3.67712 60.3359 3.67712 59.5411V55.2471C3.67712 51.3712 6.82221 48.2261 10.6982 48.2261Z" stroke="white" stroke-width="1.72538" stroke-linecap="round" stroke-linejoin="round"/>
<path d="M7.94366 49.5373L10.5611 52.1045C10.9654 52.5019 11.6118 52.5134 12.0321 52.1342L15.5974 48.9001C16.0154 48.5209 16.6549 48.53 17.0592 48.9206L20.3482 52.084C20.7684 52.4882 21.4376 52.4814 21.8488 52.068L25.0007 48.9115" stroke="white" stroke-width="1.72538" stroke-linecap="round" stroke-linejoin="round"/>
<path d="M13.2609 52.0333L14.2978 53.655H18.1898L19.5191 51.709" stroke="white" stroke-width="1.72538" stroke-linecap="round" stroke-linejoin="round"/>
<path d="M13.4893 60.4959L14.396 53.9453" stroke="white" stroke-width="1.72538" stroke-linecap="round" stroke-linejoin="round"/>
<path d="M19.0623 60.4959L18.1555 53.9453" stroke="white" stroke-width="1.72538" stroke-linecap="round" stroke-linejoin="round"/>
<path d="M16.3398 48.0433C20.4939 48.0433 23.8614 44.6757 23.8614 40.5217C23.8614 36.3676 20.4939 33 16.3398 33C12.1857 33 8.81812 36.3676 8.81812 40.5217C8.81812 44.6757 12.1857 48.0433 16.3398 48.0433Z" stroke="white" stroke-width="1.49408" stroke-linecap="round" stroke-linejoin="round"/>
</svg>
