<svg width="72" height="70" viewBox="0 0 72 70" fill="none" xmlns="http://www.w3.org/2000/svg">
<g clip-path="url(#clip0_2493_6026)">
<path d="M25.1867 20.7024C26.4517 25.7664 30.5483 29.4753 35.4047 29.4753C41.2716 29.4753 46.0496 24.0628 46.0261 17.3891C46.0261 16.7233 45.6149 16.0379 43.7193 15.0236C42.1058 14.162 38.3656 14.0836 36.6345 13.2338C34.3747 12.1254 33.282 10.0458 33.0784 9.43481C33.611 14.0327 30.3447 14.0993 29.2128 14.7024C28.081 15.3056 27.5444 16.0732 27.8146 17.3852C28.0849 18.6972 26.8629 19.4296 25.1945 20.6985" stroke="white" stroke-width="2" stroke-linecap="round" stroke-linejoin="round"/>
<path d="M45.3407 22.5821C45.7637 22.5782 46.1945 22.6957 46.5744 22.9464C47.5888 23.6161 47.8669 24.9829 47.1971 25.9973C46.5274 27.0116 45.1606 27.2897 44.1462 26.62C43.782 26.3811 43.5157 26.0521 43.3512 25.684" stroke="white" stroke-width="2" stroke-linecap="round" stroke-linejoin="round"/>
<path d="M27.4896 25.5196C27.3447 25.9191 27.0862 26.2794 26.7181 26.5497C25.735 27.2664 24.3564 27.051 23.6397 26.0679C22.923 25.0849 23.1384 23.7063 24.1214 22.9896C24.4739 22.735 24.8734 22.598 25.2768 22.5706" stroke="white" stroke-width="2" stroke-linecap="round" stroke-linejoin="round"/>
<path d="M52.7781 38.2401C52.7781 38.2401 54.1919 36.0078 53.8003 34.0495C53.2989 31.5352 50.6044 31.6292 50.6749 29.8863C50.765 27.7166 53.5379 26.107 53.2598 24.4307C53.0483 23.1383 51.3055 22.6958 51.0901 21.2937C50.7807 19.2884 51.7598 19.077 51.5013 17.107C51.2428 15.137 49.1593 15.9125 49.1828 14.2676C49.3277 3.61873 39.5914 2.85111 32.6279 5.07565C32.6279 5.07565 22.0496 0.869388 20.7572 13.2845C20.5261 15.4895 18.9556 15.1096 18.2467 16.7036C17.8159 17.671 19.0535 19.1357 18.6854 21.0665C18.4425 22.3511 16.7663 23.3615 16.5626 24.2036C15.889 26.9725 19.6331 28.4333 19.124 30.2623C18.6149 32.0913 13.3786 33.2036 17.3929 38.5104" stroke="white" stroke-width="2" stroke-linecap="round" stroke-linejoin="round"/>
<path d="M29.8199 8.23242C29.205 14.7063 22.7898 11.2324 25.1867 15.799" stroke="white" stroke-width="2" stroke-linecap="round" stroke-linejoin="round"/>
<path d="M36.1723 7.31201C39.4504 13.5431 44.6162 9.44256 46.6018 13.9112" stroke="white" stroke-width="2" stroke-linecap="round" stroke-linejoin="round"/>
<path d="M22.0536 68.6161C22.0536 68.6161 23.0327 60.1918 20.7729 55.9033C20.0209 58.3119 16.9348 68.6161 16.9348 68.6161" stroke="white" stroke-width="2" stroke-linecap="round" stroke-linejoin="round"/>
<path d="M48.0861 68.6161C48.0861 68.6161 47.107 60.1918 49.3668 55.9033C50.1188 58.3119 53.205 68.6161 53.205 68.6161" stroke="white" stroke-width="2" stroke-linecap="round" stroke-linejoin="round"/>
<path d="M34.876 54.9243C34.876 48.3055 26.6397 43.7898 26.6397 43.7898C23.2559 45.6697 17.765 55.0731 23.5536 59.6632" stroke="white" stroke-width="2" stroke-linecap="round" stroke-linejoin="round"/>
<path d="M34.876 54.9243C34.876 48.3055 43.1123 43.7898 43.1123 43.7898C46.4961 45.6697 51.9869 55.0731 46.1984 59.6632" stroke="white" stroke-width="2" stroke-linecap="round" stroke-linejoin="round"/>
<path d="M9.03918 68.0914L14.906 43.7938C16.1005 38.8512 20.5222 35.3695 25.6058 35.3695H29.8238V28.2886" stroke="white" stroke-width="2" stroke-linecap="round" stroke-linejoin="round"/>
<path d="M60.9282 68.0914L55.0614 43.7938C53.8669 38.8512 49.4452 35.3695 44.3616 35.3695H40.1436V28.2886" stroke="white" stroke-width="2" stroke-linecap="round" stroke-linejoin="round"/>
<path d="M30.0235 35.8787L33.7598 40.6646" stroke="white" stroke-width="2" stroke-linecap="round" stroke-linejoin="round"/>
<path d="M40.684 35.5183L36.5248 40.6645" stroke="white" stroke-width="2" stroke-linecap="round" stroke-linejoin="round"/>
<path d="M36.5248 40.7114C36.5248 39.9478 35.9058 39.3289 35.1423 39.3289C34.3787 39.3289 33.7598 39.9478 33.7598 40.7114V43.7309C33.7598 44.4945 34.3787 45.1135 35.1423 45.1135C35.9058 45.1135 36.5248 44.4945 36.5248 43.7309V40.7114Z" stroke="white" stroke-width="2" stroke-linecap="round" stroke-linejoin="round"/>
<path d="M68.5888 36.3799L67.7036 35.3734C67.5627 35.2128 67.3473 35.1306 67.1319 35.1541L65.8003 35.3146C65.2598 35.3773 64.8799 34.7977 65.158 34.3277L65.8433 33.1724C65.953 32.9883 65.9647 32.7572 65.8747 32.5614L65.3107 31.3434C65.0835 30.8499 65.5183 30.3094 66.0509 30.4269L67.3629 30.7207C67.5744 30.7677 67.7937 30.7089 67.9543 30.5601L68.9412 29.6475C69.3407 29.2794 69.9909 29.5261 70.0418 30.0666L70.1671 31.4021C70.1867 31.6175 70.312 31.8094 70.5 31.9152L71.671 32.5692C72.1449 32.8355 72.1097 33.5287 71.6123 33.7442L70.3786 34.2768C70.1788 34.363 70.0379 34.5392 69.9948 34.7507L69.7324 36.0666C69.6266 36.5992 68.9569 36.7794 68.5966 36.3721L68.5888 36.3799Z" fill="white"/>
<path d="M6.60707 24.7246L5.31072 25.0732C5.10315 25.128 4.93474 25.2847 4.86425 25.4883L4.41777 26.7533C4.23761 27.2664 3.5444 27.3486 3.25067 26.8904L2.51829 25.7664C2.4008 25.5862 2.20106 25.4726 1.98566 25.4687L0.642313 25.4335C0.0979263 25.4178 -0.191891 24.7873 0.14884 24.3643L0.994793 23.3186C1.13187 23.1502 1.17495 22.927 1.11229 22.7194L0.732391 21.4309C0.57965 20.91 1.08879 20.4361 1.59401 20.6319L2.84727 21.1136C3.04701 21.192 3.27417 21.1646 3.45432 21.0431L4.56268 20.2834C5.00915 19.974 5.6162 20.3147 5.58879 20.8591L5.51829 22.1985C5.50654 22.4139 5.60445 22.6215 5.77286 22.7546L6.83814 23.5732C7.26895 23.9021 7.13579 24.5875 6.61098 24.7285L6.60707 24.7246Z" fill="white"/>
<path d="M15.7911 6.66193L14.5653 6.11754C14.3694 6.03138 14.1384 6.04313 13.9543 6.15671L12.8107 6.85775C12.3485 7.13974 11.7572 6.77159 11.8159 6.23112L11.9569 4.89561C11.9804 4.6802 11.8942 4.46872 11.7297 4.32772L10.7076 3.45436C10.2963 3.10188 10.4647 2.42825 10.9974 2.31467L12.3094 2.0366C12.5209 1.99352 12.6971 1.8447 12.7794 1.64496L13.2924 0.403443C13.5 -0.0978621 14.1932 -0.14486 14.4673 0.325114L15.1371 1.4883C15.2467 1.67629 15.4386 1.7977 15.654 1.81336L16.9935 1.91911C17.5339 1.96219 17.7924 2.6084 17.4282 3.0118L16.5313 4.01049C16.3864 4.17107 16.3316 4.39039 16.3825 4.60188L16.6958 5.90605C16.8211 6.43477 16.2885 6.87733 15.7911 6.65801V6.66193Z" fill="white"/>
<path d="M43.1123 43.7938V35.5183" stroke="white" stroke-width="2" stroke-linecap="round" stroke-linejoin="round"/>
<path d="M26.5378 43.7938V35.5183" stroke="white" stroke-width="2" stroke-linecap="round" stroke-linejoin="round"/>
</g>
<defs>
<clipPath id="clip0_2493_6026">
<rect width="72" height="69.5953" fill="white"/>
</clipPath>
</defs>
</svg>
