<svg width="69" height="64" viewBox="0 0 69 64" fill="none" xmlns="http://www.w3.org/2000/svg">
<g clip-path="url(#clip0_2493_7480)">
<path d="M24.7518 5.23364H5.25173C2.85045 5.23364 0.905518 7.17857 0.905518 9.57986V47.7433C0.905518 50.1445 2.85045 52.0895 5.25173 52.0895H62.7884C65.1897 52.0895 67.1346 50.1445 67.1346 47.7433V24.7083" stroke="white" stroke-width="2" stroke-linecap="round" stroke-linejoin="round"/>
<path d="M23.618 62.2415H44.4219" stroke="white" stroke-width="2" stroke-linecap="round" stroke-linejoin="round"/>
<path d="M30.4452 52.0894V62.2414" stroke="white" stroke-width="2" stroke-linecap="round" stroke-linejoin="round"/>
<path d="M37.3123 52.0894V62.2414" stroke="white" stroke-width="2" stroke-linecap="round" stroke-linejoin="round"/>
<path d="M0.905518 44.0452H67.1346" stroke="white" stroke-width="2" stroke-linecap="round" stroke-linejoin="round"/>
<path d="M42.908 34.9002C44.1682 34.9002 45.1897 33.8786 45.1897 32.6184C45.1897 31.3582 44.1682 30.3367 42.908 30.3367C41.6478 30.3367 40.6262 31.3582 40.6262 32.6184C40.6262 33.8786 41.6478 34.9002 42.908 34.9002Z" stroke="white" stroke-width="2" stroke-linecap="round" stroke-linejoin="round"/>
<path d="M54.5486 34.9002C55.8088 34.9002 56.8304 33.8786 56.8304 32.6184C56.8304 31.3582 55.8088 30.3367 54.5486 30.3367C53.2884 30.3367 52.2668 31.3582 52.2668 32.6184C52.2668 33.8786 53.2884 34.9002 54.5486 34.9002Z" stroke="white" stroke-width="2" stroke-linecap="round" stroke-linejoin="round"/>
<path d="M60.5899 30.3366H37.7215L36.6313 23.6217L32.9552 0.905518H25.6173" stroke="white" stroke-width="2" stroke-linecap="round" stroke-linejoin="round"/>
<path d="M36.6313 23.5855H62.2124L67.1345 7.5769H34.0344" stroke="white" stroke-width="2" stroke-linecap="round" stroke-linejoin="round"/>
<path d="M19.6123 11.0068H28.6669" stroke="white" stroke-width="2" stroke-linecap="round" stroke-linejoin="round"/>
<path d="M19.9745 25.8491H28.6669" stroke="white" stroke-width="2" stroke-linecap="round" stroke-linejoin="round"/>
<path d="M14.567 18.917H25.0667" stroke="white" stroke-width="2" stroke-linecap="round" stroke-linejoin="round"/>
</g>
<defs>
<clipPath id="clip0_2493_7480">
<rect width="68.04" height="63.1469" fill="white"/>
</clipPath>
</defs>
</svg>
