<svg width="67" height="67" viewBox="0 0 67 67" fill="none" xmlns="http://www.w3.org/2000/svg">
<g clip-path="url(#clip0_2493_4626)">
<path d="M12.8853 46.1908C6.21904 45.3794 1.05481 39.6912 1.05481 32.7984C1.05481 25.3479 7.08397 19.3046 14.5265 19.3046C18.4377 19.3046 21.9607 20.9739 24.4204 23.6448" stroke="white" stroke-width="2" stroke-linecap="round" stroke-linejoin="round"/>
<path d="M28.3442 11.4822C29.7323 5.51079 35.0779 1.05652 41.4657 1.05652C48.9041 1.05652 54.9374 7.09556 54.9374 14.5503C54.9374 16.1605 54.6548 17.703 54.14 19.1356" stroke="white" stroke-width="2" stroke-linecap="round" stroke-linejoin="round"/>
<path d="M47.3388 20.3189C48.921 19.6638 50.6551 19.3046 52.4735 19.3046C59.9119 19.3046 65.9452 25.3437 65.9452 32.7984C65.9452 39.763 60.6755 45.4935 53.9122 46.2162" stroke="white" stroke-width="2" stroke-linecap="round" stroke-linejoin="round"/>
<path d="M16.3196 19.423C16.7795 14.787 20.6822 11.1695 25.4288 11.1695C28.2936 11.1695 30.8462 12.4838 32.5254 14.5461" stroke="white" stroke-width="2" stroke-linecap="round" stroke-linejoin="round"/>
<path d="M49.2374 35.8159H17.5643C14.7681 35.8159 12.5013 38.0863 12.5013 40.8871V44.0736C12.5013 46.8744 14.7681 49.1449 17.5643 49.1449H49.2374C52.0336 49.1449 54.3004 46.8744 54.3004 44.0736V40.8871C54.3004 38.0863 52.0336 35.8159 49.2374 35.8159Z" stroke="white" stroke-width="2" stroke-linecap="round" stroke-linejoin="round"/>
<path d="M49.2374 52.6102H17.5643C14.7681 52.6102 12.5013 54.8807 12.5013 57.6815V60.868C12.5013 63.6687 14.7681 65.9392 17.5643 65.9392H49.2374C52.0336 65.9392 54.3004 63.6687 54.3004 60.868V57.6815C54.3004 54.8807 52.0336 52.6102 49.2374 52.6102Z" stroke="white" stroke-width="2" stroke-linecap="round" stroke-linejoin="round"/>
<path d="M19.2182 52.6103V49.1491" stroke="white" stroke-width="2" stroke-linecap="round" stroke-linejoin="round"/>
<path d="M47.5877 49.1491V52.6103" stroke="white" stroke-width="2" stroke-linecap="round" stroke-linejoin="round"/>
<ellipse cx="17.8639" cy="42.4888" rx="1.05479" ry="1.05652" fill="white"/>
<ellipse cx="21.8847" cy="42.4888" rx="1.05479" ry="1.05652" fill="white"/>
<ellipse cx="25.8676" cy="42.4888" rx="1.05479" ry="1.05652" fill="white"/>
<path d="M31.3187 42.4888H48.1489" stroke="white" stroke-width="2" stroke-linecap="round" stroke-linejoin="round"/>
<ellipse cx="17.8639" cy="59.2748" rx="1.05479" ry="1.05652" fill="white"/>
<ellipse cx="21.8847" cy="59.2748" rx="1.05479" ry="1.05652" fill="white"/>
<ellipse cx="25.8676" cy="59.2748" rx="1.05479" ry="1.05652" fill="white"/>
<path d="M31.3187 59.2748H48.1489" stroke="white" stroke-width="2" stroke-linecap="round" stroke-linejoin="round"/>
</g>
<defs>
<clipPath id="clip0_2493_4626">
<rect width="67" height="67" fill="white"/>
</clipPath>
</defs>
</svg>
