<svg width="68" height="59" viewBox="0 0 68 59" fill="none" xmlns="http://www.w3.org/2000/svg">
<g clip-path="url(#clip0_2187_17430)">
<path d="M34.002 48.2619C47.0576 48.2619 57.6413 37.6782 57.6413 24.6225C57.6413 11.5669 47.0576 0.983185 34.002 0.983185C20.9463 0.983185 10.3626 11.5669 10.3626 24.6225C10.3626 37.6782 20.9463 48.2619 34.002 48.2619Z" stroke="white" stroke-width="2" stroke-linecap="round" stroke-linejoin="round"/>
<path d="M34.0019 48.2619C40.2051 48.2619 45.2337 37.6782 45.2337 24.6225C45.2337 11.5669 40.2051 0.983185 34.0019 0.983185C27.7988 0.983185 22.7702 11.5669 22.7702 24.6225C22.7702 37.6782 27.7988 48.2619 34.0019 48.2619Z" stroke="white" stroke-width="2" stroke-linecap="round" stroke-linejoin="round"/>
<path d="M10.3587 24.6225H57.6413" stroke="white" stroke-width="2" stroke-linecap="round" stroke-linejoin="round"/>
<path d="M11.9671 40.9707H5.70237C3.095 40.9707 0.983154 43.0826 0.983154 45.6899V52.9103C0.983154 55.5177 3.095 57.6295 5.70237 57.6295H62.2976C64.905 57.6295 67.0168 55.5177 67.0168 52.9103V45.6899C67.0168 43.0826 64.905 40.9707 62.2976 40.9707H55.9935" stroke="white" stroke-width="2" stroke-linecap="round" stroke-linejoin="round"/>
<path d="M6.56757 51.6715H17.6695" stroke="white" stroke-width="2" stroke-linecap="round" stroke-linejoin="round"/>
</g>
<defs>
<clipPath id="clip0_2187_17430">
<rect width="68" height="58.6127" fill="white"/>
</clipPath>
</defs>
</svg>
