<svg width="61" height="65" viewBox="0 0 61 65" fill="none" xmlns="http://www.w3.org/2000/svg">
<g clip-path="url(#clip0_2493_9031)">
<path d="M25.3616 18.473V7.73307C25.3616 3.98395 28.3961 0.946777 32.1419 0.946777H52.9405C56.6863 0.946777 59.7208 3.98395 59.7208 7.73307V28.3949C59.7208 32.1441 56.6863 35.1812 52.9405 35.1812H50.2768L43.5912 41.0321L43.576 35.1812H32.1419C30.7382 35.1812 29.4328 34.7533 28.3507 34.0224" stroke="white" stroke-width="2" stroke-linecap="round" stroke-linejoin="round"/>
<path d="M37.072 60.7207H35.5547L31.7522 64.0494L31.7408 60.7207H25.233C23.1028 60.7207 21.3737 58.99 21.3737 56.8579V45.0993C21.3737 42.9672 23.1028 41.2366 25.233 41.2366H37.072C39.2022 41.2366 40.9313 42.9672 40.9313 45.0993V56.8579C40.9313 58.99 39.2022 60.7207 37.072 60.7207Z" stroke="white" stroke-width="2" stroke-linecap="round" stroke-linejoin="round"/>
<path d="M31.1203 48.7916C28.0707 44.8607 22.5655 51.1054 31.0522 55.6006H31.0938C39.974 50.8971 34.011 45.0652 31.1203 48.7916Z" stroke="white" stroke-width="2" stroke-linecap="round" stroke-linejoin="round"/>
<path d="M21.2602 44.9857L15.2745 49.5718L15.2594 44.9706H6.27325C3.32959 44.9706 0.942123 42.581 0.942123 39.6347V23.3923C0.942123 20.446 3.32959 18.0564 6.27325 18.0564H22.6223C25.566 18.0564 27.9534 20.446 27.9534 23.3923V39.6347C27.9534 40.1535 27.8778 40.6572 27.7415 41.1344" stroke="white" stroke-width="2" stroke-linecap="round" stroke-linejoin="round"/>
<path d="M7.9948 33.9883H20.8251" stroke="white" stroke-width="2" stroke-linecap="round" stroke-linejoin="round"/>
<path d="M7.9948 29.7014H20.8251" stroke="white" stroke-width="2" stroke-linecap="round" stroke-linejoin="round"/>
<path d="M11.2866 38.226L13.1746 25.5244" stroke="white" stroke-width="2" stroke-linecap="round" stroke-linejoin="round"/>
<path d="M15.668 38.226L17.5522 25.5244" stroke="white" stroke-width="2" stroke-linecap="round" stroke-linejoin="round"/>
<path d="M37.8855 17.4959C42.2934 13.2809 43.4966 11.2284 43.1825 9.3576C42.9517 7.98292 44.5749 7.09298 45.6305 9.10766C46.5764 10.9103 46.4629 12.925 44.8776 15.8637H49.365C50.9655 15.8637 52.2632 17.1626 52.2632 18.7645V25.1267C52.2632 26.7286 50.9655 28.0275 49.365 28.0275H41.1432C38.9978 28.0275 37.8855 25.8007 37.8855 25.8007V17.4921V17.4959Z" stroke="white" stroke-width="2" stroke-linecap="round" stroke-linejoin="round"/>
<path d="M36.3115 16.3484H33.9429C33.2032 16.3484 32.6035 16.9486 32.6035 17.689V26.4332C32.6035 27.1736 33.2032 27.7738 33.9429 27.7738H36.3115C37.0512 27.7738 37.6509 27.1736 37.6509 26.4332V17.689C37.6509 16.9486 37.0512 16.3484 36.3115 16.3484Z" stroke="white" stroke-width="2" stroke-linecap="round" stroke-linejoin="round"/>
</g>
<defs>
<clipPath id="clip0_2493_9031">
<rect width="60.6667" height="65" fill="white"/>
</clipPath>
</defs>
</svg>
