<svg width="67" height="68" viewBox="0 0 67 68" fill="none" xmlns="http://www.w3.org/2000/svg">
<g clip-path="url(#clip0_2493_3636)">
<path d="M9.80043 51.6079H22.8767C27.3696 51.6079 31.0153 55.2536 31.0153 59.7465V64.7239C31.0153 65.6452 30.266 66.3945 29.3446 66.3945H3.33247C2.41112 66.3945 1.66187 65.6452 1.66187 64.7239V59.7465C1.66187 55.2536 5.30754 51.6079 9.80043 51.6079Z" stroke="white" stroke-width="2" stroke-linecap="round" stroke-linejoin="round"/>
<path d="M6.60748 53.1274L9.64158 56.1032C10.1102 56.5639 10.8594 56.5771 11.3466 56.1376L15.4794 52.3887C15.9639 51.9492 16.7052 51.9598 17.1739 52.4125L20.9863 56.0794C21.4735 56.548 22.2492 56.5401 22.7258 56.0609L26.3794 52.4019" stroke="white" stroke-width="2" stroke-linecap="round" stroke-linejoin="round"/>
<path d="M12.771 56.0215L13.973 57.9012H18.4844L20.0253 55.6455" stroke="white" stroke-width="2" stroke-linecap="round" stroke-linejoin="round"/>
<path d="M13.0358 65.8305L14.0868 58.2373" stroke="white" stroke-width="2" stroke-linecap="round" stroke-linejoin="round"/>
<path d="M19.4958 65.8305L18.4447 58.2373" stroke="white" stroke-width="2" stroke-linecap="round" stroke-linejoin="round"/>
<path d="M16.3399 51.3961C21.9007 51.3961 26.4086 46.8882 26.4086 41.3274C26.4086 35.7667 21.9007 31.2588 16.3399 31.2588C10.7792 31.2588 6.2713 35.7667 6.2713 41.3274C6.2713 46.8882 10.7792 51.3961 16.3399 51.3961Z" stroke="white" stroke-width="2" stroke-linecap="round" stroke-linejoin="round"/>
<path d="M12.816 43.2868L14.5184 44.9203L20.1736 37.7349" stroke="white" stroke-width="2" stroke-linecap="round" stroke-linejoin="round"/>
<path d="M44.1233 51.6079H57.1995C61.6924 51.6079 65.3381 55.2536 65.3381 59.7465V64.7239C65.3381 65.6452 64.5888 66.3945 63.6675 66.3945H37.6527C36.7313 66.3945 35.9821 65.6452 35.9821 64.7239V59.7465C35.9821 55.2536 39.6277 51.6079 44.1206 51.6079H44.1233Z" stroke="white" stroke-width="2" stroke-linecap="round" stroke-linejoin="round"/>
<path d="M40.9277 53.1274L43.9618 56.1032C44.4304 56.5639 45.1796 56.5771 45.6668 56.1376L49.7996 52.3887C50.2841 51.9492 51.0254 51.9598 51.494 52.4125L55.3065 56.0794C55.7937 56.548 56.5694 56.5401 57.046 56.0609L60.6996 52.4019" stroke="white" stroke-width="2" stroke-linecap="round" stroke-linejoin="round"/>
<path d="M47.0939 56.0215L48.2959 57.9012H52.8073L54.3482 55.6455" stroke="white" stroke-width="2" stroke-linecap="round" stroke-linejoin="round"/>
<path d="M47.3586 65.8305L48.4097 58.2373" stroke="white" stroke-width="2" stroke-linecap="round" stroke-linejoin="round"/>
<path d="M53.8187 65.8305L52.7676 58.2373" stroke="white" stroke-width="2" stroke-linecap="round" stroke-linejoin="round"/>
<path d="M50.6601 51.3961C56.2208 51.3961 60.7287 46.8882 60.7287 41.3274C60.7287 35.7667 56.2208 31.2588 50.6601 31.2588C45.0993 31.2588 40.5914 35.7667 40.5914 41.3274C40.5914 46.8882 45.0993 51.3961 50.6601 51.3961Z" stroke="white" stroke-width="2" stroke-linecap="round" stroke-linejoin="round"/>
<path d="M46.9879 37.6128L54.3349 45.0418" stroke="white" stroke-width="2" stroke-linecap="round" stroke-linejoin="round"/>
<path d="M54.3746 37.6553L46.9456 44.9996" stroke="white" stroke-width="2" stroke-linecap="round" stroke-linejoin="round"/>
<path d="M25.3336 36.7979H41.4704" stroke="white" stroke-width="2" stroke-linecap="round" stroke-linejoin="round"/>
<path d="M48.1396 31.1559V30.1498C48.1396 25.6543 44.4966 22.0112 40.0011 22.0112H26.9248C22.4293 22.0112 18.7863 25.6543 18.7863 30.1498V31.1559" stroke="white" stroke-width="2" stroke-linecap="round" stroke-linejoin="round"/>
<path d="M23.7319 23.5307L26.766 26.5065C27.2346 26.9672 27.9838 26.9805 28.471 26.541L32.6038 22.792C33.0883 22.3525 33.8296 22.3631 34.2982 22.8159L38.1107 26.4827C38.5979 26.9513 39.3736 26.9434 39.8502 26.4642L43.5038 22.8053" stroke="white" stroke-width="2" stroke-linecap="round" stroke-linejoin="round"/>
<path d="M29.8954 26.4248L31.0974 28.3045H35.6088L37.1497 26.0488" stroke="white" stroke-width="2" stroke-linecap="round" stroke-linejoin="round"/>
<path d="M30.1601 36.2338L31.2112 28.6406" stroke="white" stroke-width="2" stroke-linecap="round" stroke-linejoin="round"/>
<path d="M36.6202 36.2338L35.5691 28.6406" stroke="white" stroke-width="2" stroke-linecap="round" stroke-linejoin="round"/>
<path d="M33.4643 21.7994C39.025 21.7994 43.5329 17.2915 43.5329 11.7307C43.5329 6.16999 39.025 1.66211 33.4643 1.66211C27.9035 1.66211 23.3956 6.16999 23.3956 11.7307C23.3956 17.2915 27.9035 21.7994 33.4643 21.7994Z" stroke="white" stroke-width="2" stroke-linecap="round" stroke-linejoin="round"/>
<path d="M29.9404 13.6901L31.6427 15.3236L37.2979 8.13818" stroke="white" stroke-width="2" stroke-linecap="round" stroke-linejoin="round"/>
</g>
<defs>
<clipPath id="clip0_2493_3636">
<rect width="67" height="68" fill="white"/>
</clipPath>
</defs>
</svg>
