<svg width="621" height="547" viewBox="0 0 621 547" fill="none" xmlns="http://www.w3.org/2000/svg">
<path opacity="0.4" d="M211.516 403.453C115.674 404.349 62.527 405.693 19.9576 351.361C-16.5306 280.225 -4.74296 200.926 69.9028 123.894C201.255 -11.6569 377.524 -12.7357 505.259 13.0451C613.494 34.89 643.863 134.679 601.902 290.394C559.941 446.109 331.319 402.333 211.516 403.453Z" fill="url(#paint0_linear_7754_15565)"/>
<g clip-path="url(#clip0_7754_15565)">
<path d="M183.735 418.179C139.953 456.152 224.354 502.899 342.402 546.869H575.994C452.43 513.767 327.148 475.008 290.055 451.589C228.768 412.876 519.313 378.681 563.243 329.282C598.857 289.238 487.942 280.521 356.518 258.218C253.451 240.727 216.506 237.894 232.851 228.21C249.288 217.115 349.625 216.569 376.389 197.758C390.187 188.063 390.323 177.867 324.065 166.203C274.153 157.418 161.6 144.195 183.576 138.858C205.552 133.521 309.961 134.819 279.795 119.183C269.398 113.801 230.144 111.73 217.04 110.523C233.238 112.799 277.076 117.897 279.806 122.745C284.834 131.667 184.27 127.9 162.578 135.137C141.523 142.158 190.548 152.753 247.741 161.981C318.64 173.418 370.509 179.358 355.983 190.919C341.457 202.481 178.389 207.147 186.34 233.9C194.757 260.175 271.969 264.579 372.579 282.752C473.189 300.925 514.388 305.704 500.283 321.715C485.86 338.102 232.248 376.086 183.724 418.168L183.735 418.179Z" fill="url(#paint1_linear_7754_15565)" fill-opacity="0.5"/>
<g style="mix-blend-mode:multiply" opacity="0.3">
<path d="M474.057 319.417C511.216 319.417 541.339 315.264 541.339 310.142C541.339 305.02 511.216 300.868 474.057 300.868C436.898 300.868 406.775 305.02 406.775 310.142C406.775 315.264 436.898 319.417 474.057 319.417Z" fill="#989898"/>
</g>
<path d="M526.621 174.379V306.33V174.379Z" fill="#F09123"/>
<path d="M526.621 174.379V306.33" stroke="#F09123" stroke-width="1.72159" stroke-linecap="round" stroke-linejoin="round"/>
<path d="M526.629 300.2C530.018 300.2 532.767 302.949 532.767 306.34C532.767 309.732 530.018 312.481 526.629 312.481C523.239 312.481 520.491 309.732 520.491 306.34C520.491 302.949 523.239 300.2 526.629 300.2Z" fill="#F09123" stroke="#F09123" stroke-width="0.782542"/>
<g style="mix-blend-mode:multiply" opacity="0.3">
<path d="M166.617 241.127C199.643 241.127 226.415 237.438 226.415 232.888C226.415 228.338 199.643 224.649 166.617 224.649C133.592 224.649 106.82 228.338 106.82 232.888C106.82 237.438 133.592 241.127 166.617 241.127Z" fill="#989898"/>
</g>
<path d="M213.354 119.603V229.497" stroke="#FF8A00" stroke-width="1.53378" stroke-linecap="round" stroke-linejoin="round"/>
<path d="M219.157 229.498C219.157 226.289 216.552 223.694 213.356 223.694C210.16 223.694 207.555 226.3 207.555 229.498C207.555 232.696 210.16 235.301 213.356 235.301C216.552 235.301 219.157 232.696 219.157 229.498Z" fill="#FF8A00"/>
<g style="mix-blend-mode:multiply" opacity="0.3">
<path d="M326.341 194.094C355.239 194.094 378.665 190.864 378.665 186.88C378.665 182.895 355.239 179.665 326.341 179.665C297.444 179.665 274.018 182.895 274.018 186.88C274.018 190.864 297.444 194.094 326.341 194.094Z" fill="#989898"/>
</g>
<path d="M367.23 93.7783V183.922" stroke="#F09123" stroke-width="1.33815" stroke-linecap="round" stroke-linejoin="round"/>
<path d="M372.319 183.911C372.319 181.1 370.044 178.824 367.235 178.824C364.425 178.824 362.15 181.1 362.15 183.911C362.15 186.722 364.425 188.997 367.235 188.997C370.044 188.997 372.319 186.722 372.319 183.911Z" fill="#F09123"/>
<g style="mix-blend-mode:multiply" opacity="0.3">
<path d="M172.298 458.613C216.575 458.613 252.468 453.666 252.468 447.563C252.468 441.461 216.575 436.514 172.298 436.514C128.022 436.514 92.1289 441.461 92.1289 447.563C92.1289 453.666 128.022 458.613 172.298 458.613Z" fill="#989898"/>
</g>
<path d="M234.945 329.715V443.032V329.715Z" fill="#F09123"/>
<path d="M234.945 329.715V443.032" stroke="#F09123" stroke-width="2.05809" stroke-linecap="round" stroke-linejoin="round"/>
<path d="M242.335 443.032C242.335 447.114 239.027 450.424 234.946 450.424C230.866 450.424 227.557 447.114 227.557 443.032C227.557 438.949 230.866 435.639 234.946 435.639C239.027 435.639 242.335 438.949 242.335 443.032Z" fill="#F09123" stroke="#F09123" stroke-width="0.782542"/>
<path d="M253.994 330.106C253.994 340.694 245.41 349.278 234.821 349.278C224.233 349.278 215.649 340.694 215.649 330.106C215.649 319.517 224.233 310.933 234.821 310.933C245.41 310.933 253.994 319.517 253.994 330.106Z" fill="#F09123" stroke="#F09123" stroke-width="0.782542"/>
<path d="M545.88 182.988C545.88 193.577 537.297 202.161 526.708 202.161C516.12 202.161 507.536 193.577 507.536 182.988C507.536 172.4 516.12 163.816 526.708 163.816C537.297 163.816 545.88 172.4 545.88 182.988Z" fill="#F09123" stroke="#F09123" stroke-width="0.782542"/>
<path d="M386.242 79.6925C386.242 90.281 377.658 98.8647 367.069 98.8647C356.481 98.8647 347.897 90.281 347.897 79.6925C347.897 69.1039 356.481 60.5202 367.069 60.5202C377.658 60.5202 386.242 69.1039 386.242 79.6925Z" fill="#F09123" stroke="#F09123" stroke-width="0.782542"/>
<path d="M232.863 123.515C232.863 134.103 224.279 142.687 213.69 142.687C203.102 142.687 194.518 134.103 194.518 123.515C194.518 112.926 203.102 104.342 213.69 104.342C224.279 104.342 232.863 112.926 232.863 123.515Z" fill="#F09123" stroke="#F09123" stroke-width="0.782542"/>
</g>
<defs>
<linearGradient id="paint0_linear_7754_15565" x1="317.902" y1="-2.10596" x2="317.902" y2="405.894" gradientUnits="userSpaceOnUse">
<stop stop-color="#E5EDF3" stop-opacity="0.5"/>
<stop offset="1" stop-color="#1F232A" stop-opacity="0"/>
</linearGradient>
<linearGradient id="paint1_linear_7754_15565" x1="205.472" y1="94.9563" x2="351.578" y2="546.817" gradientUnits="userSpaceOnUse">
<stop stop-color="white" stop-opacity="0"/>
<stop offset="0.159873" stop-color="white"/>
<stop offset="0.625957" stop-color="white"/>
<stop offset="1" stop-color="#696969" stop-opacity="0"/>
</linearGradient>
<clipPath id="clip0_7754_15565">
<rect width="511" height="525.868" fill="white" transform="translate(65 21)"/>
</clipPath>
</defs>
</svg>
