<svg width="61" height="60" viewBox="0 0 61 60" fill="none" xmlns="http://www.w3.org/2000/svg">
<g clip-path="url(#clip0_3480_12521)">
<path d="M32.6098 54.67L30.9398 35.97C30.6998 33.31 28.3598 31.36 25.6998 31.59L9.07979 33.08L1.52979 41.52L3.01979 58.19" stroke="white" stroke-width="1.5" stroke-miterlimit="10" stroke-linecap="round" stroke-linejoin="round"/>
<path d="M1.5498 42.3101L8.6898 41.6701C9.3298 41.6101 9.7898 41.0501 9.7398 40.4201L9.0998 33.3101" stroke="white" stroke-width="1.5" stroke-miterlimit="10"/>
<path d="M16.5998 51.48L15.0298 51.62L15.3498 55.16L16.9198 55.02C17.9598 54.93 18.6698 54.12 18.5798 53.08C18.4898 52.04 17.6498 51.39 16.5998 51.48Z" fill="#F7941D"/>
<path d="M0 48.74L0.95 59.31L34.82 56.28L33.87 45.71L0 48.74ZM11.09 54.97L9.3 55.13L9.45 56.8L8.3 56.9L7.79 51.16L10.73 50.9C11.96 50.79 13.07 51.51 13.18 52.73C13.27 53.89 12.26 54.86 11.09 54.97ZM17.02 56.12L14.31 56.36L13.8 50.62L16.51 50.38C18.11 50.24 19.58 51.28 19.73 52.98C19.88 54.62 18.54 55.99 17.02 56.12ZM25.1 50.68L21.51 51L21.64 52.48L25.1 52.17L25.2 53.24L21.74 53.55L21.93 55.67L20.78 55.77L20.27 50.03L25 49.62L25.1 50.68Z" fill="#F7941D"/>
<path d="M10.8198 51.96L9.02979 52.12L9.19979 54.05L10.9898 53.89C11.6198 53.83 12.0698 53.37 12.0198 52.83C11.9698 52.27 11.4598 51.9 10.8198 51.96Z" fill="#F7941D"/>
<path d="M37.4 50.8399L59.71 48.6899L56.82 21.6699L28.54 24.3899L28.75 26.3699" stroke="white" stroke-width="1.5" stroke-miterlimit="10" stroke-linecap="round" stroke-linejoin="round"/>
<path d="M44.7901 43.31L45.4901 43.25L45.6701 45.34C45.7401 46.19 45.0601 46.88 44.2801 46.94C43.4901 47 42.8301 46.56 42.6201 45.8L43.3201 45.74C43.4301 46.1 43.8001 46.33 44.2201 46.29C44.6801 46.25 45.0001 45.85 44.9701 45.39L44.7901 43.31Z" fill="white"/>
<path d="M46.1104 43.19L47.8904 43.04C48.6404 42.98 49.3103 43.41 49.3703 44.16C49.4303 44.86 48.8103 45.45 48.1003 45.51L47.0103 45.6L47.1003 46.62L46.4004 46.68L46.1104 43.19ZM47.9504 43.68L46.8604 43.77L46.9604 44.95L48.0504 44.86C48.4304 44.83 48.7104 44.55 48.6804 44.22C48.6504 43.87 48.3404 43.65 47.9504 43.68Z" fill="white"/>
<path d="M49.75 42.8799L52.63 42.6299L52.69 43.2699L50.51 43.4599L50.58 44.2399L52.68 44.0599L52.74 44.6999L50.64 44.8799L50.71 45.6599L52.89 45.4699L52.95 46.1199L50.07 46.3699L49.75 42.8799Z" fill="white"/>
<path d="M55.1902 45.35C55.7202 45.3 56.1102 44.96 56.2102 44.47L55.0902 44.57L55.0402 43.99L56.9702 43.82L57.1402 45.77L56.5102 45.82L56.4102 45.36C56.1102 45.74 55.6802 45.97 55.1602 46.01C54.1202 46.1 53.2802 45.39 53.1902 44.35C53.1002 43.3 53.8202 42.46 54.9002 42.37C55.7902 42.29 56.5302 42.74 56.8202 43.52L56.1202 43.58C55.9002 43.18 55.4702 42.96 54.9402 43.01C54.2602 43.07 53.8202 43.6 53.8802 44.29C53.9402 44.97 54.4902 45.41 55.1902 45.35Z" fill="white"/>
<path d="M36.8101 38.82L38.5801 35.32L41.5701 38.51L44.4901 32.71L48.5501 37.95" stroke="white" stroke-width="1.5" stroke-miterlimit="10" stroke-linecap="round" stroke-linejoin="round"/>
<path d="M50.7598 30.4498C51.9804 30.4498 52.9698 29.4603 52.9698 28.2398C52.9698 27.0192 51.9804 26.0298 50.7598 26.0298C49.5393 26.0298 48.5498 27.0192 48.5498 28.2398C48.5498 29.4603 49.5393 30.4498 50.7598 30.4498Z" stroke="white" stroke-width="1.5" stroke-miterlimit="10" stroke-linecap="round" stroke-linejoin="round"/>
<path d="M36.4603 16.9799C39.045 16.9799 41.1403 14.8846 41.1403 12.2999C41.1403 9.71518 39.045 7.61987 36.4603 7.61987C33.8756 7.61987 31.7803 9.71518 31.7803 12.2999C31.7803 14.8846 33.8756 16.9799 36.4603 16.9799Z" stroke="white" stroke-width="1.5" stroke-miterlimit="10"/>
<path d="M40.8803 17.9698C39.6903 17.3498 38.3403 17.0498 36.9303 17.1598C35.3603 17.2798 33.9503 17.8998 32.8003 18.8598" stroke="white" stroke-width="1.5" stroke-miterlimit="10" stroke-linecap="round" stroke-linejoin="round"/>
<path d="M3.39015 30.4299L1.53015 7.00988C1.40015 5.39988 2.60015 3.98988 4.21015 3.86988L43.2601 0.759884C44.8701 0.629884 46.2801 1.82988 46.4101 3.43988L47.4501 16.5699" stroke="white" stroke-width="1.5" stroke-miterlimit="10" stroke-linecap="round" stroke-linejoin="round"/>
<path d="M8.02002 15.85L22.29 14.71" stroke="white" stroke-width="1.5" stroke-miterlimit="10" stroke-linecap="round" stroke-linejoin="round"/>
<path d="M8.43018 20.9399L18.7202 20.1199" stroke="white" stroke-width="1.5" stroke-miterlimit="10" stroke-linecap="round" stroke-linejoin="round"/>
<path d="M8.83008 26.0298L24.3301 24.7898" stroke="white" stroke-width="1.5" stroke-miterlimit="10" stroke-linecap="round" stroke-linejoin="round"/>
<path d="M15.6504 9.2199L26.0704 8.3999" stroke="white" stroke-width="1.5" stroke-miterlimit="10" stroke-linecap="round" stroke-linejoin="round"/>
<path d="M7.55029 9.86993L9.88029 9.67993" stroke="white" stroke-width="1.5" stroke-miterlimit="10" stroke-linecap="round" stroke-linejoin="round"/>
</g>
<defs>
<clipPath id="clip0_3480_12521">
<rect width="60.46" height="59.31" fill="white"/>
</clipPath>
</defs>
</svg>
