<svg width="68" height="63" viewBox="0 0 68 63" fill="none" xmlns="http://www.w3.org/2000/svg">
<g clip-path="url(#clip0_4481_13565)">
<path d="M27.43 53.85H1V1H53.85V18.28" stroke="white" stroke-width="2" stroke-miterlimit="10" stroke-linecap="round" stroke-linejoin="round"/>
<path d="M33.3799 1H20.6699V18.28H33.3799V1Z" stroke="white" stroke-width="2" stroke-miterlimit="10" stroke-linecap="round" stroke-linejoin="round"/>
<path d="M66.0902 36.25V34.25C66.0902 32.88 66.0902 31.64 66.0902 30.39C66.0802 28.96 65.1302 27.89 63.7102 27.74C58.6402 27.18 53.8802 25.57 49.5702 22.95C49.0302 22.62 48.5202 22.46 48.0102 22.46C47.4902 22.46 46.9802 22.63 46.4302 22.96C42.1802 25.55 37.5002 27.15 32.5102 27.73C30.8102 27.93 29.9102 28.92 29.9102 30.59V40.3C29.9102 41.45 29.9902 42.48 30.1602 43.46C31.1802 49.47 34.2602 54.15 39.3402 57.35C40.8102 58.28 42.3702 59.13 43.8902 59.95C44.7702 60.43 45.6502 60.91 46.5202 61.4C47.5502 61.99 48.4602 61.99 49.4702 61.42C51.1402 60.48 53.1102 59.37 55.1402 58.27C57.4902 57 59.3902 55.54 60.9202 53.81C63.9202 50.44 65.6302 46.47 66.0102 42.02C66.1202 40.77 66.1002 39.52 66.0902 38.32C66.0802 37.59 66.0702 36.9 66.0902 36.25Z" stroke="#F7941D" stroke-width="2" stroke-miterlimit="10" stroke-linecap="round" stroke-linejoin="round"/>
<path d="M42.23 42.6L46.1 46.17L56.27 37.55" stroke="#F7941D" stroke-width="2" stroke-miterlimit="10" stroke-linecap="round" stroke-linejoin="round"/>
</g>
<defs>
<clipPath id="clip0_4481_13565">
<rect width="67.1" height="62.84" fill="white"/>
</clipPath>
</defs>
</svg>
