<svg width="63" height="63" viewBox="0 0 63 63" fill="none" xmlns="http://www.w3.org/2000/svg">
<g clip-path="url(#clip0_4207_13809)">
<path d="M31.4298 40.06C36.207 40.06 40.0798 36.1873 40.0798 31.41C40.0798 26.6327 36.207 22.76 31.4298 22.76C26.6525 22.76 22.7798 26.6327 22.7798 31.41C22.7798 36.1873 26.6525 40.06 31.4298 40.06Z" stroke="#F7941D" stroke-width="2" stroke-miterlimit="10"/>
<path d="M48.67 38.91L45.05 36.3C45.17 35.96 45.29 35.62 45.38 35.26C45.78 33.77 45.93 32.27 45.86 30.81L50.04 29.33C50.8 29.06 51.2 28.23 50.93 27.47L49.15 22.44C48.88 21.68 48.05 21.28 47.29 21.55L43.2 23C41.73 20.89 39.7 19.17 37.26 18.05L37.76 14.2C37.86 13.4 37.3 12.67 36.5 12.57L31.21 11.89C30.41 11.79 29.68 12.35 29.58 13.15L29.11 16.83C26.54 17.18 24.12 18.22 22.09 19.78L18.95 17.52C18.3 17.05 17.39 17.2 16.92 17.85L13.8 22.18C13.33 22.83 13.48 23.74 14.13 24.21L17.21 26.43C17.06 26.84 16.92 27.26 16.81 27.69C16.38 29.31 16.25 30.93 16.36 32.51L12.76 33.78C12 34.05 11.6 34.88 11.87 35.64L13.65 40.67C13.92 41.43 14.75 41.83 15.51 41.56L19.2 40.25C20.76 42.37 22.9 44.08 25.45 45.13L25 48.58C24.9 49.38 25.46 50.11 26.26 50.21L31.55 50.89C32.35 50.99 33.08 50.43 33.18 49.63L33.64 46.03C36.08 45.6 38.36 44.56 40.27 43.04L43.84 45.61C44.49 46.08 45.4 45.93 45.87 45.28L49 40.95C49.47 40.29 49.33 39.38 48.67 38.91Z" stroke="white" stroke-width="2" stroke-miterlimit="10" stroke-linecap="round" stroke-linejoin="round"/>
<path d="M45.82 58.15C41.53 60.47 36.61 61.79 31.39 61.79C14.61 61.78 1 48.18 1 31.39C1 28.3 1.46 25.31 2.32 22.5" stroke="white" stroke-width="2" stroke-miterlimit="10" stroke-linecap="round" stroke-linejoin="round"/>
<path d="M14.4502 6.16C19.2902 2.9 25.1202 1 31.3902 1C48.1802 1 61.7802 14.61 61.7802 31.39C61.7802 34.89 61.1902 38.25 60.1002 41.37" stroke="white" stroke-width="2" stroke-miterlimit="10" stroke-linecap="round" stroke-linejoin="round"/>
<path d="M44.5601 61.7801L48.9801 56.3401H41.3501L44.5601 61.7801Z" fill="white"/>
<path d="M12.4702 3.94995L8.4502 9.69995L16.0702 9.14995L12.4702 3.94995Z" fill="white"/>
</g>
<defs>
<clipPath id="clip0_4207_13809">
<rect width="62.78" height="62.78" fill="white"/>
</clipPath>
</defs>
</svg>
