<svg width="50" height="49" viewBox="0 0 50 49" fill="none" xmlns="http://www.w3.org/2000/svg">
<path d="M0 10.4899C0.03 8.85993 0.31 7.29993 1.06 5.83993C1.9 4.22993 3.16 3.35993 5.04 3.22993C8.7 2.98993 12.35 2.60993 16 2.28993C19.64 1.96993 23.27 1.65993 26.91 1.34993C30.57 1.02993 34.22 0.709928 37.87 0.379928C39.26 0.259928 40.64 0.119928 42.03 0.0199277C43.54 -0.100072 44.68 0.599928 45.61 1.70993C46.81 3.13993 47.4 4.82993 47.67 6.64993C47.96 8.63993 47.86 10.6099 47.03 12.4599C46.68 13.2299 46.15 13.9499 45.6 14.5899C45.03 15.2499 44.22 15.5099 43.33 15.5799C40.09 15.8399 36.84 16.1299 33.6 16.4099C30.38 16.6899 27.15 16.9799 23.93 17.2599C20.26 17.5799 16.58 17.8999 12.91 18.2299C10.47 18.4399 8.04 18.6699 5.6 18.8699C4.31 18.9799 3.31 18.3799 2.46 17.4699C1.14 16.0599 0.5 14.3199 0.19 12.4499C0.09 11.7999 0.06 11.1399 0 10.4899ZM7.93 11.4099C7.88 9.85993 7.43 8.48993 6.68 7.55993C5.38 5.94993 3.61 6.10993 2.66 7.95993C1.98 9.27993 1.89 10.6899 2.18 12.1299C2.41 13.2799 2.85 14.3199 3.74 15.1199C4.76 16.0299 6.05 15.9199 6.9 14.8499C7.69 13.8399 7.89 12.6499 7.93 11.4099Z" fill="white"/>
<path d="M42.1401 46.6399C40.8701 46.7499 39.7101 46.8599 38.5601 46.9599C34.8701 47.2799 31.1801 47.6099 27.4801 47.9299C24.3101 48.2099 21.1501 48.4799 17.9801 48.7699C17.5601 48.8099 17.2901 48.6699 17.0201 48.3499C15.0301 45.9499 14.3401 43.1499 14.8501 40.1499C15.3101 37.4699 16.0801 34.8499 16.7401 32.1999C17.2001 30.3699 17.6101 28.5399 17.6101 26.6399C17.6101 24.2499 16.8701 22.1299 15.3701 20.2799C15.2401 20.1199 15.1301 19.9599 14.9401 19.7099C16.0701 19.5999 17.0901 19.5099 18.1201 19.4199C21.8901 19.0899 25.6501 18.7599 29.4201 18.4299C32.6101 18.1499 35.7901 17.8899 38.9801 17.5899C39.5201 17.5399 39.8501 17.7299 40.1701 18.1299C42.0901 20.5299 42.7201 23.2999 42.2201 26.2599C41.7901 28.7699 41.0801 31.2399 40.4501 33.7099C39.9201 35.8099 39.4001 37.8999 39.4701 40.0999C39.5501 42.3599 40.3101 44.3599 41.7401 46.1099C41.8401 46.2499 41.9401 46.3899 42.1401 46.6399ZM38.6201 44.9199C38.6301 44.8299 38.6501 44.7899 38.6301 44.7599C38.5801 44.6399 38.5401 44.5099 38.4801 44.3999C37.8401 43.1199 37.5201 41.7599 37.4701 40.3299C37.4001 38.4099 37.7701 36.5599 38.2301 34.7099C38.9201 31.9399 39.6801 29.1899 40.2201 26.3899C40.6301 24.2299 40.3101 22.0799 39.2901 20.0799C39.1301 19.7699 38.9701 19.6099 38.5601 19.6499C35.4001 19.9599 32.2301 20.2299 29.0701 20.5099C26.2601 20.7499 23.4501 20.9799 20.6401 21.2299C19.9001 21.2899 19.1701 21.3799 18.3801 21.4599C18.4801 21.6899 18.5401 21.8499 18.6101 21.9899C19.2901 23.3399 19.5901 24.7699 19.6201 26.2799C19.6601 28.5499 19.1201 30.7099 18.5301 32.8699C17.7601 35.6699 16.8101 38.4399 16.7401 41.3899C16.7001 43.1499 17.0201 44.8299 17.8801 46.3799C17.9601 46.5299 18.2201 46.6899 18.3801 46.6799C20.8701 46.4899 23.3601 46.2699 25.8501 46.0599C29.2001 45.7699 32.5501 45.4699 35.9101 45.1799C36.8101 45.0999 37.7201 45.0099 38.6201 44.9199Z" fill="white"/>
<path d="M16.78 26.3199C16.76 28.8599 16.25 30.7999 15.73 32.7499C15.54 33.4399 15.32 34.1199 15.16 34.8099C15.06 35.2199 14.86 35.3999 14.43 35.4299C12.2 35.6099 9.96004 35.7399 7.75004 36.0299C5.79004 36.2799 4.38004 35.4799 3.39004 33.9399C1.17004 30.4799 0.870044 26.7999 2.58004 23.0399C3.26004 21.5499 4.43004 20.6099 6.15004 20.4799C8.55004 20.2999 10.95 20.0799 13.34 19.8699C13.71 19.8399 13.97 19.9399 14.22 20.2199C15.95 22.0799 16.83 24.2699 16.78 26.3199ZM3.54004 28.1799C3.57004 29.3999 3.90004 30.8099 4.91004 31.9799C6.09004 33.3599 7.70004 33.2199 8.66004 31.6899C9.91004 29.6899 9.61004 26.2999 8.03004 24.5499C6.83004 23.2299 5.28004 23.3599 4.32004 24.8799C3.73004 25.7999 3.53004 26.8299 3.54004 28.1799Z" fill="white"/>
<path d="M41.53 33.0399C41.9 31.6199 42.28 30.3099 42.6 28.9699C43.15 26.6499 43.46 24.3099 42.91 21.9399C42.59 20.5499 42 19.2799 41.17 18.1199C41.04 17.9399 40.91 17.7599 40.73 17.4999C41 17.4599 41.19 17.4199 41.38 17.3999C42 17.3499 42.62 17.3299 43.23 17.2399C44.64 17.0299 45.78 17.5199 46.75 18.4999C47.98 19.7399 48.64 21.2899 49.01 22.9699C49.48 25.1499 49.45 27.3099 48.64 29.4099C48.41 30.0199 48.08 30.5999 47.7 31.1299C46.99 32.1199 46.04 32.7199 44.76 32.7599C43.72 32.7999 42.67 32.9399 41.53 33.0399Z" fill="white"/>
<path d="M19.4902 35.91C19.6602 35.29 19.7802 34.76 19.9702 34.26C20.0302 34.1 20.2802 33.94 20.4502 33.92C23.6302 33.63 26.8102 33.37 29.9902 33.1C31.6602 32.96 33.3202 32.8 34.9902 32.66C35.1702 32.64 35.3602 32.66 35.6002 32.66C35.4402 33.24 35.3202 33.79 35.1402 34.31C35.0902 34.45 34.8502 34.61 34.6802 34.62C32.4002 34.83 30.1102 35.01 27.8302 35.21C25.4402 35.42 23.0402 35.64 20.6502 35.85C20.3002 35.88 19.9502 35.89 19.4902 35.91Z" fill="white"/>
<path d="M34.7298 35.95C34.5998 36.62 34.4798 37.2399 34.3498 37.9199C29.2098 38.3699 24.0598 38.82 18.7798 39.29C18.9098 38.63 19.0098 38.04 19.1398 37.45C19.1598 37.38 19.3498 37.3099 19.4598 37.2999C21.9898 37.0699 24.5198 36.8399 27.0398 36.6199C29.4898 36.3999 31.9498 36.1899 34.3998 35.9799C34.4898 35.9699 34.5798 35.96 34.7298 35.95Z" fill="white"/>
<path d="M20.4399 32.57C20.5899 31.97 20.7099 31.41 20.8899 30.87C20.9399 30.73 21.1799 30.59 21.3399 30.58C22.3999 30.46 23.4699 30.38 24.5399 30.28C27.3799 30.03 30.2299 29.78 33.0699 29.53C34.1899 29.43 35.3099 29.34 36.5299 29.24C36.3699 29.88 36.2299 30.45 36.0599 31.01C36.0299 31.11 35.8599 31.22 35.7399 31.23C33.5899 31.43 31.4399 31.62 29.2899 31.8C26.8599 32.01 24.4299 32.23 21.9899 32.44C21.4999 32.49 20.9999 32.53 20.4399 32.57Z" fill="white"/>
<path d="M18.6101 42.57C18.6101 41.97 18.6201 41.47 18.6101 40.97C18.6001 40.6 18.8701 40.6 19.1001 40.58C20.4701 40.46 21.8301 40.35 23.2001 40.23C25.6501 40.02 28.1101 39.8 30.5601 39.58C31.7401 39.48 32.9101 39.39 34.1501 39.29C34.1501 39.95 34.1501 40.54 34.1501 41.21C29.0401 41.66 23.8801 42.11 18.6101 42.57Z" fill="white"/>
<path d="M21.5202 28.45C21.4202 26.66 21.3302 24.94 21.2402 23.18C21.9802 23.11 22.8502 23.02 23.7302 22.94C24.4602 22.87 25.1902 22.8 25.9202 22.78C26.0702 22.78 26.3302 22.95 26.3802 23.09C26.8302 24.59 26.8302 26.13 26.6302 27.67C26.6102 27.8 26.4602 27.99 26.3602 28C24.7002 28.17 23.0402 28.32 21.5202 28.45Z" fill="#F7941D"/>
<path d="M27.79 27.8298C27.83 27.1898 27.83 26.5998 27.91 26.0298C27.93 25.8898 28.18 25.6898 28.34 25.6798C30.21 25.4998 32.08 25.3498 33.95 25.1998C34.49 25.1598 35.02 25.1098 35.64 25.0598C35.59 25.7598 35.57 26.3798 35.47 26.9798C35.45 27.1098 35.14 27.2498 34.94 27.2698C33.56 27.4098 32.17 27.5198 30.79 27.6398C30.04 27.6998 29.29 27.7798 28.54 27.8398C28.31 27.8498 28.07 27.8298 27.79 27.8298Z" fill="#F7941D"/>
<path d="M35.58 24.0998C33.07 24.3098 30.69 24.5198 28.31 24.6998C28.15 24.7098 27.87 24.5898 27.84 24.4698C27.69 23.8798 27.6 23.2698 27.48 22.6398C28.92 22.5098 30.32 22.3798 31.72 22.2598C32.71 22.1698 33.71 22.1098 34.7 22.0098C35.06 21.9698 35.22 22.0898 35.28 22.4398C35.37 22.9698 35.48 23.4998 35.58 24.0998Z" fill="#F7941D"/>
</svg>
