<svg width="86" height="60" viewBox="0 0 86 60" fill="none" xmlns="http://www.w3.org/2000/svg">
<g clip-path="url(#clip0_2275_63650)">
<path d="M67.6795 15.3814H18.5445C15.8117 15.3814 13.5971 13.1668 13.5971 10.434C13.5971 7.70117 15.8117 5.48657 18.5445 5.48657H58.2433" stroke="white" stroke-width="2" stroke-linecap="round" stroke-linejoin="round"/>
<path d="M68.5259 23.4829H18.071C15.6001 23.4829 13.5971 25.486 13.5971 27.9568V32.4979C13.5971 34.9688 15.6001 36.9718 18.071 36.9718H68.5259C70.9967 36.9718 72.9998 34.9688 72.9998 32.4979V27.9568C72.9998 25.486 70.9967 23.4829 68.5259 23.4829Z" stroke="white" stroke-width="2" stroke-linecap="round" stroke-linejoin="round"/>
<path d="M57.7809 44.488H18.071C15.6001 44.488 13.5971 46.4911 13.5971 48.962V53.503C13.5971 55.9739 15.6001 57.977 18.071 57.977H57.7809C60.2518 57.977 62.2549 55.9739 62.2549 53.503V48.962C62.2549 46.4911 60.2518 44.488 57.7809 44.488Z" stroke="white" stroke-width="2" stroke-linecap="round" stroke-linejoin="round"/>
<path d="M4.85052 24.0885L4.85052 24.0885L4.84509 24.0889C4.32524 24.1267 3.8376 24.4117 3.56024 24.8842L3.29572 25.3301L3.10128 24.847L3.10131 24.847L3.09829 24.8397C2.8995 24.3569 2.47741 23.9859 1.94771 23.8679C1.94743 23.8678 1.94715 23.8678 1.94687 23.8677L1.44138 23.7545L1.83698 23.4236C1.83729 23.4233 1.8376 23.4231 1.83791 23.4228C2.25142 23.0777 2.46042 22.5534 2.41266 22.028L2.41266 22.028L2.41239 22.0251L2.36383 21.5076L2.80657 21.7845L2.80656 21.7845L2.81172 21.7877C3.25213 22.0594 3.81277 22.1172 4.31352 21.8984L4.78878 21.6932L4.66314 22.1973L4.66313 22.1973L4.66224 22.2009C4.53926 22.7023 4.65712 23.2566 5.0246 23.6672L5.3661 24.0538L4.85052 24.0885Z" fill="black" stroke="white" stroke-width="2"/>
<path d="M82.2047 23.9175L82.1028 24.4282L81.899 24.1978L81.8938 24.203L81.7557 24.046C81.7556 24.0459 81.7555 24.0458 81.7554 24.0457C81.7554 24.0456 81.7553 24.0456 81.7553 24.0455C81.4011 23.6425 80.8729 23.4461 80.3515 23.503L80.3515 23.5029L80.3403 23.5043L79.8294 23.5659L80.0925 23.1224C80.0927 23.122 80.0929 23.1216 80.0931 23.1213C80.3669 22.6608 80.3936 22.0935 80.1717 21.611L80.1717 21.611L80.1706 21.6088L79.953 21.1386L80.4615 21.2525L80.463 21.2528C80.9845 21.3687 81.5283 21.2225 81.9222 20.8577C81.9224 20.8575 81.9225 20.8574 81.9227 20.8572L82.3054 20.5034L82.3537 21.0177C82.4029 21.5524 82.7132 22.025 83.176 22.2853L83.176 22.2854L83.1787 22.2868L83.6296 22.5387L83.1546 22.7437C83.1546 22.7437 83.1546 22.7437 83.1545 22.7438C83.1545 22.7438 83.1544 22.7438 83.1543 22.7438C82.6596 22.9574 82.3108 23.3962 82.2055 23.9134L82.2055 23.9134L82.2047 23.9175Z" fill="black" stroke="white" stroke-width="2"/>
<path d="M82.8392 38.307L82.839 38.3076C82.5873 38.7818 82.5865 39.3471 82.8365 39.8219L83.0724 40.2758L82.5652 40.1857C82.0328 40.0887 81.4958 40.2671 81.125 40.638L81.1249 40.6379L81.1206 40.6423L80.7574 41.0101L80.6863 40.496L80.6864 40.496L80.6853 40.489C80.6086 39.9611 80.2809 39.5085 79.811 39.2687L79.811 39.2687L79.8049 39.2656L79.3409 39.0329L79.8035 38.8076C80.2934 38.5712 80.6224 38.1103 80.6998 37.5847L80.7761 37.0776L81.1325 37.4475C81.5083 37.8409 82.0509 38.0109 82.5697 37.9248C82.5697 37.9248 82.5697 37.9248 82.5697 37.9248C82.57 37.9247 82.5703 37.9247 82.5706 37.9246L83.088 37.8389L82.8392 38.307ZM78.6564 39.3663C78.655 39.367 78.6535 39.3677 78.6521 39.3683L78.6521 39.3684L78.6564 39.3663Z" fill="black" stroke="white" stroke-width="2"/>
<path d="M67.989 11.0156C70.4722 11.0156 72.4853 9.00249 72.4853 6.51925C72.4853 4.03601 70.4722 2.02295 67.989 2.02295C65.5057 2.02295 63.4927 4.03601 63.4927 6.51925C63.4927 9.00249 65.5057 11.0156 67.989 11.0156Z" stroke="white" stroke-width="2" stroke-linecap="round" stroke-linejoin="round"/>
<path d="M71.4301 9.72192L74.7185 13.0103" stroke="white" stroke-width="2" stroke-linecap="round" stroke-linejoin="round"/>
<path d="M43.6135 28.2849H66.0577" stroke="white" stroke-width="2" stroke-linecap="round" stroke-linejoin="round"/>
<path d="M18.757 28.2849H37.9092" stroke="white" stroke-width="2" stroke-linecap="round" stroke-linejoin="round"/>
<path d="M30.7061 32.2371H56.051" stroke="white" stroke-width="2" stroke-linecap="round" stroke-linejoin="round"/>
<path d="M18.757 32.2371H25.6096" stroke="white" stroke-width="2" stroke-linecap="round" stroke-linejoin="round"/>
<path d="M35.5454 10.4341H40.2729" stroke="white" stroke-width="2" stroke-linecap="round" stroke-linejoin="round"/>
<path d="M18.757 10.4341H30.5943" stroke="white" stroke-width="2" stroke-linecap="round" stroke-linejoin="round"/>
<path d="M44.0459 49.2566H57.8331" stroke="white" stroke-width="2" stroke-linecap="round" stroke-linejoin="round"/>
<path d="M18.0561 49.2566H39.4303" stroke="white" stroke-width="2" stroke-linecap="round" stroke-linejoin="round"/>
<path d="M32.9431 53.2085H47.8264" stroke="white" stroke-width="2" stroke-linecap="round" stroke-linejoin="round"/>
<path d="M18.0561 53.2085H29.0508" stroke="white" stroke-width="2" stroke-linecap="round" stroke-linejoin="round"/>
</g>
<defs>
<clipPath id="clip0_2275_63650">
<rect width="85.0909" height="60" fill="white"/>
</clipPath>
</defs>
</svg>
