<svg width="64" height="68" viewBox="0 0 64 68" fill="none" xmlns="http://www.w3.org/2000/svg">
<path d="M6.99905 66.5905H31.7239C34.9941 66.5905 37.6566 63.939 37.6566 60.6579V21.1621C37.6566 17.892 35.0051 15.2295 31.7239 15.2295H11.2303L1.06641 24.7306V60.6689C1.06641 63.939 3.71787 66.5905 6.99905 66.5905Z" stroke="white" stroke-width="1.5" stroke-miterlimit="10" stroke-linecap="round" stroke-linejoin="round"/>
<path d="M1 25.7028H9.81611C10.6005 25.7028 11.2302 25.062 11.2302 24.2887V15.5278" stroke="white" stroke-width="1.5" stroke-miterlimit="10"/>
<path d="M54.2834 52.361H57.0674C60.3375 52.361 63.0001 49.7095 63.0001 46.4284V6.93264C63.0001 3.66251 60.3486 1 57.0674 1H36.5849L32.2983 5.01033" stroke="white" stroke-width="1.5" stroke-miterlimit="10" stroke-linecap="round" stroke-linejoin="round"/>
<path d="M36.585 5.46328V1.28723" stroke="white" stroke-width="1.5" stroke-miterlimit="10"/>
<path d="M40.7053 59.763H43.6329C46.9031 59.763 49.5656 57.1115 49.5656 53.8303V14.3346C49.5656 11.0645 46.9141 8.40198 43.6329 8.40198H23.1504L19.9023 11.4401" stroke="white" stroke-width="1.5" stroke-miterlimit="10" stroke-linecap="round" stroke-linejoin="round"/>
<path d="M23.1509 11.8378V8.68921" stroke="white" stroke-width="1.5" stroke-miterlimit="10"/>
<path d="M11.23 34.0769H30.6188" stroke="white" stroke-width="1.5" stroke-miterlimit="10" stroke-linecap="round" stroke-linejoin="round"/>
<path d="M15.8921 38.5292H30.6187" stroke="white" stroke-width="1.5" stroke-miterlimit="10" stroke-linecap="round" stroke-linejoin="round"/>
<path d="M26.3879 55.841C29.0725 55.841 31.2489 53.6647 31.2489 50.98C31.2489 48.2954 29.0725 46.119 26.3879 46.119C23.7032 46.119 21.5269 48.2954 21.5269 50.98C21.5269 53.6647 23.7032 55.841 26.3879 55.841Z" stroke="white" stroke-width="1.5" stroke-miterlimit="10" stroke-linecap="round" stroke-linejoin="round"/>
<path d="M29.404 54.8688V62.1824L26.3328 60.9119L23.3057 62.1824V55.0897" stroke="white" stroke-width="1.5" stroke-miterlimit="10" stroke-linecap="round" stroke-linejoin="round"/>
<path d="M5.27539 56.1393C8.83277 53.3332 9.1863 51.6429 8.72229 50.9911C8.45714 50.6265 7.87161 50.4277 7.51808 50.6265C6.41331 51.2341 5.99349 56.2609 8.18095 57.1557C9.05372 57.5093 10.1585 56.7801 10.5341 56.0068C10.8656 55.3218 10.6556 53.9519 9.82707 53.6867C8.74439 53.3443 8.43505 55.8742 8.88801 56.4597C9.32992 57.0342 10.1033 57.443 10.8103 57.5756C11.7604 57.7413 12.7326 56.8243 12.9867 55.9294C13.3403 54.7252 12.346 53.7641 12.7547 53.3553C13.1193 52.9907 14.2351 53.3664 14.8869 54.0071C15.5167 54.6258 15.7708 55.5759 15.5608 56.3493C15.3288 57.211 14.5886 57.675 14.5886 57.675C14.5886 57.675 16.058 56.7249 16.6988 55.0235C17.3395 53.3001 16.9087 51.4441 16.6767 51.433C16.4336 51.433 16.1022 53.4658 15.6713 60.8567" stroke="white" stroke-width="0.75" stroke-miterlimit="10" stroke-linecap="round" stroke-linejoin="round"/>
</svg>
