<svg width="505" height="553" viewBox="0 0 505 553" fill="none" xmlns="http://www.w3.org/2000/svg">
<path d="M58.9395 107.155C58.9395 107.155 -11.7822 190.382 1.71163 305.853C15.2054 421.323 47.0387 384.905 112.222 459.108C177.406 533.31 215.595 585.816 282.273 529.027C348.951 472.238 417.925 483.717 455.681 381.311C493.437 278.923 517.949 257.216 497.73 151.262C477.526 45.3257 356.521 -21.6166 236.015 6.38676C115.493 34.3901 58.9395 107.155 58.9395 107.155Z" fill="url(#paint0_linear_7754_15268)"/>
<g clip-path="url(#clip0_7754_15268)">
<path d="M472 488.5C472 503.129 375.744 515 257.005 515C138.266 515 42 503.144 42 488.5C42 473.856 138.256 462 256.995 462C375.734 462 471.99 473.871 471.99 488.5H472Z" fill="url(#paint1_linear_7754_15268)"/>
<path d="M146.32 473.281C146.32 473.281 140.48 472.871 128.94 473.501C117.82 474.111 100.46 475.861 100.46 475.861C99.6303 476.241 83.0303 478.591 63.9803 486.151C63.8303 486.211 63.7103 486.261 63.5703 486.311H105.74C105.74 486.311 133.46 474.461 146.32 473.281Z" fill="url(#paint2_linear_7754_15268)"/>
<path opacity="0.2" d="M109.409 484.621C109.299 484.661 107.109 482.451 106.439 482.581C106.439 482.581 96.3886 476.081 101.759 475.741C101.759 475.741 121.009 474.591 126.189 479.101L109.409 484.621Z" fill="black"/>
<path d="M155.349 486.38C155.349 486.38 118.289 475.21 99.8789 476.09C99.8389 475.43 134.299 471.88 148.749 473.51C163.049 475.12 207.799 486.38 207.799 486.38H155.349Z" fill="url(#paint3_linear_7754_15268)"/>
<path d="M254.261 197.21C254.391 198.44 248.961 221.51 250.421 229.43C251.891 237.34 262.741 267.58 260.911 272.5C259.081 277.42 235.961 270.58 235.961 270.58L205.871 156.71C207.711 155.01 225.781 153.95 232.441 159.17C233.151 159.73 236.201 162.54 236.981 163.16C243.431 168.3 252.261 178.14 254.261 197.22V197.21Z" fill="#F4A046"/>
<path d="M287.38 184.23L261.24 197.31C261.24 197.31 258.26 190.05 254.78 182.91C251.23 175.62 245 163.45 238.22 162.59C235.99 162.31 232.9 161.53 231.52 162.09C220.64 166.48 235.29 194.76 235.29 194.76C235.29 194.76 248.59 215.34 254.64 218.13C260.69 220.92 293.17 194.73 293.17 194.73L287.39 184.23H287.38Z" fill="#F4A046"/>
<g opacity="0.3">
<path d="M252.47 209.84C253.19 205.61 254.43 201.54 254.64 197.22C254.95 190.69 253.2 184.33 250.12 178.59C247.51 173.73 244.05 169.38 240.29 165.37C239.96 165.02 239.43 165.55 239.76 165.9C245.63 172.17 250.9 179.46 252.99 187.92C254.27 193.08 254.11 198.33 253.06 203.51C252.65 205.55 252.1 207.57 251.75 209.63C251.67 210.1 252.39 210.3 252.47 209.83V209.84Z" fill="black"/>
</g>
<path d="M147.59 490C146.98 488.44 146.08 487 144.94 485.77C144.94 485.77 143.13 479.35 148.22 465.93L143.6 461.48C141.96 459.95 139.53 459.6 137.52 460.6C137.23 460.72 136.98 460.9 136.76 461.12C135.73 462.25 134.78 463.45 133.91 464.71C131 469.03 128.36 473.52 126 478.16L126.96 478.75L132.2 470.47C133.99 467.65 134.3 472.31 133.15 475.76C131.99 479.2 131.45 483.28 137.77 487.04C145.17 491.38 148.47 492.79 147.59 490Z" fill="#263238"/>
<path d="M149.839 461.01C149.839 461.01 147.729 467.27 145.989 474.54C144.909 478.18 144.549 482 144.929 485.77C144.929 485.77 139.649 483.92 139.419 479.56C139.189 475.21 142.619 462.78 137.449 460.63C138.309 460.05 139.229 459.57 140.209 459.21C141.669 458.55 149.829 461.01 149.829 461.01H149.839Z" fill="#E7E8E8"/>
<path d="M242.14 487.5C240.84 486.43 239.34 485.61 237.73 485.08C237.73 485.08 232.97 480.35 230.75 466.18L224.52 464.52C222.34 463.98 220.04 464.84 218.78 466.68C218.59 466.92 218.45 467.2 218.38 467.5C218.04 468.98 217.81 470.49 217.67 472.01C217.28 477.18 217.2 482.37 217.44 487.55L218.57 487.6L219.04 477.86C219.2 474.54 221.79 478.46 222.48 482.02C223.18 485.58 224.73 489.4 232.1 489.64C240.71 489.87 244.29 489.52 242.13 487.5H242.14Z" fill="#263238"/>
<path d="M229.732 461.12C229.732 461.12 230.992 467.6 233.082 474.77C233.942 478.47 235.522 481.97 237.732 485.08C237.732 485.08 232.212 486 229.842 482.31C227.482 478.62 224.312 466.13 218.742 466.74C219.202 465.82 219.772 464.96 220.442 464.18C221.392 462.9 229.732 461.12 229.732 461.12Z" fill="#E7E8E8"/>
<path d="M242.69 234.73C242.69 234.73 258.78 274.17 246.01 337.22C245.67 373.93 232.66 463.72 232.66 463.72C228.33 464.93 214.61 464.1 210.2 463.19C210.2 463.19 209.82 391.81 212.89 332.01C203.57 270.64 204.2 238.16 204.2 238.16L242.69 234.74V234.73Z" fill="url(#paint4_linear_7754_15268)"/>
<path d="M234.381 236.81C234.381 236.81 218.751 317.49 208.161 352.13C197.031 388.5 155.281 464.52 154.031 466.95C148.951 465.85 138.301 461.48 135.191 458.75C135.191 458.75 159.681 384.54 174.051 344.94C177.311 324.64 179.541 312.76 178.971 291.28C177.901 251.45 196.661 234.32 196.661 234.32L234.401 236.81H234.381Z" fill="url(#paint5_linear_7754_15268)"/>
<path opacity="0.2" d="M225.562 279.96L238.912 269.25L227.692 285.8L211.852 354.12L212.642 335.89L225.562 279.96Z" fill="black"/>
<path d="M245.361 183.01C245.361 183.01 252.111 198.09 247.871 206.96C239.271 232.72 249.951 233.87 246.661 238.63C241.741 242.51 211.411 247.7 195.491 235.36C197.601 224.88 198.091 206.88 190.341 177.06C188.661 170.63 192.601 164.08 199.131 162.43C199.551 162.33 199.971 162.24 200.391 162.18C202.301 161.91 204.331 161.65 206.411 161.46C213.681 160.63 217.831 160.56 225.151 160.74C226.421 160.8 225.381 160.59 229.261 161.5C229.261 161.5 237.011 167.25 239.211 170.71C241.561 174.42 245.271 182.7 245.371 183L245.361 183.01Z" fill="#868F93"/>
<path d="M214.379 106.21C214.379 106.21 218.439 102.78 223.449 103.01C227.849 103.21 236.149 105.27 239.619 108.16C244.339 112.09 247.279 118.03 245.839 124.67C244.279 131.89 240.669 142.4 236.179 148.08C234.319 150.43 232.909 151.27 230.339 150.48L229.089 151.66C220.649 152.48 219.909 159.2 198.209 136.49C191.859 129.84 195.159 102.6 214.399 106.21H214.379Z" fill="url(#paint6_linear_7754_15268)"/>
<path d="M224.151 160.251C222.881 159.161 223.361 156.791 223.551 154.501C223.671 152.731 224.151 150.881 224.751 149.071L222.241 146.641L209.281 135.811C210.281 143.691 213.031 156.361 207.131 161.191L203.801 161.611C205.981 163.081 211.961 170.361 224.911 170.911C231.921 171.211 230.341 164.131 228.311 161.161C225.121 160.471 224.161 160.241 224.161 160.241L224.151 160.251Z" fill="#E7E8E8"/>
<path opacity="0.2" d="M223.332 156.86C219.882 156.24 215.142 152.88 214.132 149.08C213.712 147.52 213.592 145.95 213.632 144.91L224.122 150.69C224.072 152.19 223.562 154.29 223.332 156.86Z" fill="black"/>
<path d="M207.321 122.2C207.161 134.36 206.831 139.49 212.461 146.49C220.931 157.02 235.861 155.42 239.641 143.77C243.051 133.28 242.741 115.15 231.291 108.78C220.011 102.5 207.491 110.04 207.321 122.2Z" fill="#E7E8E8"/>
<path d="M209.82 143.79C199.15 134.36 202.42 103.72 223.87 105.32C245.32 106.93 242.62 135.81 242.62 135.81C237.61 117.14 219.37 113.29 219.37 113.29C222.01 123.17 212.82 127.95 212.82 127.95C208.94 133.61 210.38 140.99 209.82 143.78V143.79Z" fill="url(#paint7_linear_7754_15268)"/>
<path d="M202.572 131.61C203.752 134.24 205.932 136.04 208.022 136.81C211.172 137.96 213.382 133.02 212.622 129.71C211.932 126.73 208.962 124.48 205.742 124.76C202.572 125.04 201.212 128.61 202.562 131.61H202.572Z" fill="#E7E8E8"/>
<path d="M207.582 157.07C208.282 161.03 217.912 202.21 219.052 214.32C220.192 226.43 206.722 276.23 203.292 279.4C199.862 282.58 170.142 262.74 171.142 262.46C172.142 262.17 187.822 237.04 189.982 226.22C192.142 215.41 182.892 175.54 182.462 170.93C182.032 166.32 195.222 164.2 202.302 161.23L205.882 156.7L207.592 157.07H207.582Z" fill="#F4A046"/>
<path d="M183.01 269.67C182.8 269.16 182.51 268.55 182.2 267.89L179.83 261.92L171.78 263.84C172.48 266.22 171.72 268.79 171.56 270.65C171.3 273.64 173.65 276.16 173.4 277.45C172.73 280.9 168.99 286.44 170.76 287.47C172.53 288.51 175.82 282 175.82 282C175.82 282 173.18 289.38 174.85 290.31C177.17 291.59 177.4 290.64 177.4 290.64C177.4 290.64 178.2 292.07 179.72 291.46C180.66 291.08 183.13 286.78 183.66 280.4C183.66 280.4 183.98 282.45 184.19 285.79C184.28 287.13 183.48 288.7 183.99 290.25C184.7 292.43 187.63 288.63 187.62 284.81C187.61 280.99 184.96 274.35 183 269.67H183.01Z" fill="#E7E8E8"/>
<path d="M177.451 290.72C178.481 288.76 179.501 286.76 179.971 284.58C180.511 282.06 180.301 279.47 179.901 276.95C179.821 276.47 179.101 276.68 179.181 277.15C179.571 279.59 179.771 282.11 179.221 284.54C178.751 286.6 177.791 288.48 176.811 290.34C176.591 290.77 177.231 291.15 177.461 290.72H177.451Z" fill="#9FA3A3"/>
<path d="M176.059 282.31C176.299 281.25 176.589 280.19 176.739 279.11C176.869 278.12 176.799 277.12 176.319 276.23C176.089 275.81 175.439 276.18 175.669 276.61C176.109 277.41 176.109 278.35 175.969 279.23C175.809 280.2 175.559 281.16 175.339 282.11C175.229 282.58 175.959 282.78 176.059 282.31Z" fill="#9FA3A3"/>
<path d="M192.199 165.66C188.169 165.89 181.209 168.31 179.879 171.72C174.859 184.52 163.569 207.54 161.479 214.8C160.159 219.4 166.759 266.88 166.759 266.88L185.369 264.94C185.369 264.94 180.519 223.11 181.519 220.86C185.249 212.44 196.459 192.28 198.179 184.66C199.899 177.04 201.519 170.02 197.239 166.88C195.959 165.94 193.719 165.58 192.199 165.67V165.66Z" fill="#F4A046"/>
<g opacity="0.3">
<path d="M216.341 201.03C213.861 197.47 211.431 193.88 209.041 190.27C207.991 188.68 206.531 186.95 206.151 185.03C205.771 183.11 207.141 181.57 207.231 179.72C207.371 176.67 204.021 175.22 202.621 172.93C200.671 169.75 201.531 165 202.711 161.68C202.871 161.22 202.151 161.03 201.991 161.48C200.891 164.57 200.191 168.63 201.281 171.81C201.801 173.32 202.761 174.45 203.901 175.54C205.301 176.88 206.861 178.25 206.371 180.39C205.991 182.06 205.051 183.45 205.431 185.23C205.811 187.01 207.121 188.7 208.131 190.24C210.601 194 213.121 197.72 215.691 201.41C215.961 201.8 216.611 201.43 216.341 201.03Z" fill="black"/>
</g>
<path d="M203.75 137.35C203.34 135.27 202.21 133.42 201.11 131.62L197.38 126.07C196.69 123.75 195.31 121.52 193.16 120.42C191.01 119.32 188.01 119.72 186.65 121.71C185.41 123.53 185.81 125.98 186.42 128.09C187.45 131.66 188.94 135.09 190.85 138.27C192.05 140.27 193.49 142.24 195.52 143.39C197.55 144.54 200.32 144.68 202.1 143.17C203.72 141.8 204.16 139.43 203.75 137.35Z" fill="url(#paint8_linear_7754_15268)"/>
<path d="M204.529 450.16C204.529 450.16 194.989 451.01 189.359 457.38C183.729 463.75 155.539 486.38 155.539 486.38L217.769 486.17L250.499 450.16H204.529Z" fill="url(#paint9_linear_7754_15268)"/>
<path opacity="0.2" d="M198.691 451.5C212.881 458.12 222.901 466.07 227.581 475.73L234.041 468.26C234.041 468.26 218.301 444.5 198.691 451.5Z" fill="black"/>
<path d="M244.601 486.18C244.601 486.18 229.631 454.68 204.531 450.15H253.271C259.661 450.15 265.461 452.02 268.111 454.93L296.471 486.18H244.601Z" fill="#407BFF"/>
<path d="M244.601 486.18C244.601 486.18 229.631 454.68 204.531 450.15H253.271C259.661 450.15 265.461 452.02 268.111 454.93L296.471 486.18H244.601Z" fill="url(#paint10_linear_7754_15268)"/>
<path opacity="0.2" d="M264.382 452.35L240.672 479.23L244.262 486.01C244.262 486.01 256.322 480.7 260.652 473.74C264.982 466.78 266.092 453.27 266.092 453.27L264.382 452.34V452.35Z" fill="black"/>
<path d="M341.801 294.49C332.621 280.37 312.941 269.36 290.711 273.01C268.481 276.66 260.681 261.26 264.191 249.1C268.621 233.75 299.251 177.73 299.291 175.78H257.041C257.041 175.78 208.431 269.77 236.121 288.01C263.811 306.25 286.941 292.35 304.801 315.72C328.881 347.23 258.181 473.9 244.281 486.03C243.861 486.4 296.151 486.03 296.151 486.03C325.041 435.83 368.711 335.88 341.821 294.49H341.801Z" fill="url(#paint11_linear_7754_15268)"/>
<path d="M293.399 195.51C293.559 195.43 298.239 188.04 297.989 185.17C297.739 182.3 287.159 178.2 285.679 179.75C284.199 181.31 294.359 184.43 292.889 185.41C292.889 185.41 284.529 183.44 283.049 185.82C281.569 188.2 283.709 188.61 283.709 188.61C283.709 188.61 282.069 191.73 284.939 192.63C287.809 193.53 288.959 193.37 288.799 193.37C288.639 193.37 281.739 194.35 283.059 196C284.369 197.64 287.909 197.69 287.939 197.75C287.969 197.81 286.249 199.72 286.779 199.95C287.319 200.18 288.529 201.42 290.259 200.35C291.989 199.28 293.389 195.51 293.389 195.51H293.399Z" fill="#E7E8E8"/>
<path opacity="0.2" d="M165.428 476.5C165.298 476.47 148.648 484.48 148.648 484.48L155.528 486.38L167.038 476.84L165.418 476.5H165.428Z" fill="black"/>
<path d="M420.372 123.55H326.322C323.201 123.55 320.672 126.079 320.672 129.2V234.19C320.672 237.31 323.201 239.84 326.322 239.84H420.372C423.492 239.84 426.022 237.31 426.022 234.19V129.2C426.022 126.079 423.492 123.55 420.372 123.55Z" fill="url(#paint12_linear_7754_15268)"/>
<path opacity="0.8" d="M416.114 131.6H332.344C331.239 131.6 330.344 132.495 330.344 133.6V157.37C330.344 158.474 331.239 159.37 332.344 159.37H416.114C417.218 159.37 418.114 158.474 418.114 157.37V133.6C418.114 132.495 417.218 131.6 416.114 131.6Z" fill="url(#paint13_linear_7754_15268)"/>
<path d="M357.633 131.6C357.633 131.6 335.703 146.14 343.713 146.69C351.733 147.25 374.553 148.36 370.433 152.37C366.313 156.38 360.193 159.37 360.193 159.37H368.873C368.873 159.37 392.033 148.73 379.673 145.49C367.313 142.25 344.823 147.48 347.273 144.03C349.723 140.58 368.653 131.61 368.653 131.61H357.633V131.6Z" fill="url(#paint14_linear_7754_15268)"/>
<path opacity="0.5" d="M415.234 165.64H333.224C331.633 165.64 330.344 166.929 330.344 168.52V228.51C330.344 230.1 331.633 231.39 333.224 231.39H415.234C416.824 231.39 418.114 230.1 418.114 228.51V168.52C418.114 166.929 416.824 165.64 415.234 165.64Z" fill="#263238"/>
<path d="M346.16 165.64V231.88C346.16 232.36 346.91 232.36 346.91 231.88V165.64C346.91 165.16 346.16 165.16 346.16 165.64Z" fill="#DCDCDC"/>
<path d="M364.082 165.64V231.88C364.082 232.36 364.832 232.36 364.832 231.88V165.64C364.832 165.16 364.082 165.16 364.082 165.64Z" fill="#DCDCDC"/>
<path d="M382.012 166.219V232.459C382.012 232.939 382.762 232.939 382.762 232.459V166.219C382.762 165.739 382.012 165.739 382.012 166.219Z" fill="#DCDCDC"/>
<path d="M399.941 166.589V232.829C399.941 233.309 400.691 233.309 400.691 232.829V166.589C400.691 166.109 399.941 166.109 399.941 166.589Z" fill="#DCDCDC"/>
<path d="M329.942 183.81H418.582C419.062 183.81 419.062 183.06 418.582 183.06H329.942C329.462 183.06 329.462 183.81 329.942 183.81Z" fill="#DCDCDC"/>
<path d="M329.942 200.689H418.582C419.062 200.689 419.062 199.939 418.582 199.939H329.942C329.462 199.939 329.462 200.689 329.942 200.689Z" fill="#DCDCDC"/>
<path d="M329.942 217.56H400.322C400.802 217.56 400.802 216.81 400.322 216.81H329.942C329.462 216.81 329.462 217.56 329.942 217.56Z" fill="#DCDCDC"/>
</g>
<defs>
<linearGradient id="paint0_linear_7754_15268" x1="252.5" y1="0" x2="264.889" y2="431.96" gradientUnits="userSpaceOnUse">
<stop stop-color="#E5EDF3" stop-opacity="0.2"/>
<stop offset="1" stop-color="#1F232A" stop-opacity="0"/>
</linearGradient>
<linearGradient id="paint1_linear_7754_15268" x1="257" y1="462" x2="257" y2="515" gradientUnits="userSpaceOnUse">
<stop stop-color="#E5EDF3" stop-opacity="0.2"/>
<stop offset="1" stop-color="#1F232A" stop-opacity="0"/>
</linearGradient>
<linearGradient id="paint2_linear_7754_15268" x1="77.5" y1="514.5" x2="113.5" y2="475.5" gradientUnits="userSpaceOnUse">
<stop stop-color="#E5EDF3"/>
<stop offset="1" stop-color="#1F232A"/>
</linearGradient>
<linearGradient id="paint3_linear_7754_15268" x1="153.839" y1="473.086" x2="153.839" y2="486.38" gradientUnits="userSpaceOnUse">
<stop stop-color="#E5EDF3"/>
<stop offset="1" stop-color="#1F232A"/>
</linearGradient>
<linearGradient id="paint4_linear_7754_15268" x1="196.5" y1="1023" x2="239.5" y2="235" gradientUnits="userSpaceOnUse">
<stop stop-color="#E5EDF3"/>
<stop offset="1" stop-color="#1F232A"/>
</linearGradient>
<linearGradient id="paint5_linear_7754_15268" x1="201.5" y1="242" x2="155.5" y2="605.5" gradientUnits="userSpaceOnUse">
<stop stop-color="#1F232A"/>
<stop offset="1" stop-color="#E5EDF3"/>
</linearGradient>
<linearGradient id="paint6_linear_7754_15268" x1="192" y1="24" x2="227" y2="132" gradientUnits="userSpaceOnUse">
<stop stop-color="#E5EDF3"/>
<stop offset="1" stop-color="#1F232A"/>
</linearGradient>
<linearGradient id="paint7_linear_7754_15268" x1="179" y1="23" x2="230" y2="130.5" gradientUnits="userSpaceOnUse">
<stop stop-color="#E5EDF3"/>
<stop offset="1" stop-color="#1F232A"/>
</linearGradient>
<linearGradient id="paint8_linear_7754_15268" x1="132.5" y1="127.5" x2="202.5" y2="138" gradientUnits="userSpaceOnUse">
<stop stop-color="#E5EDF3"/>
<stop offset="1" stop-color="#1F232A"/>
</linearGradient>
<linearGradient id="paint9_linear_7754_15268" x1="192" y1="496.5" x2="222.5" y2="437" gradientUnits="userSpaceOnUse">
<stop stop-color="#E5EDF3"/>
<stop offset="1" stop-color="#1F232A"/>
</linearGradient>
<linearGradient id="paint10_linear_7754_15268" x1="249.277" y1="450.452" x2="262.225" y2="497.698" gradientUnits="userSpaceOnUse">
<stop stop-color="#E5EDF3"/>
<stop offset="1" stop-color="#1F232A"/>
</linearGradient>
<linearGradient id="paint11_linear_7754_15268" x1="288.913" y1="175.78" x2="207" y2="720.5" gradientUnits="userSpaceOnUse">
<stop offset="0.0146086" stop-color="#E5EDF3"/>
<stop offset="0.122839" stop-color="#D9E0E6"/>
<stop offset="0.24679" stop-color="#90969D"/>
<stop offset="0.405079" stop-color="#E2EAF0"/>
<stop offset="1" stop-color="#1F232A"/>
</linearGradient>
<linearGradient id="paint12_linear_7754_15268" x1="426" y1="14" x2="294.5" y2="340.5" gradientUnits="userSpaceOnUse">
<stop stop-color="#E5EDF3"/>
<stop offset="1" stop-color="#1F232A"/>
</linearGradient>
<linearGradient id="paint13_linear_7754_15268" x1="384" y1="60" x2="374.229" y2="159.37" gradientUnits="userSpaceOnUse">
<stop stop-color="#E5EDF3"/>
<stop offset="1" stop-color="#1F232A"/>
</linearGradient>
<linearGradient id="paint14_linear_7754_15268" x1="362.629" y1="131.6" x2="362.629" y2="159.37" gradientUnits="userSpaceOnUse">
<stop stop-color="#E5EDF3" stop-opacity="0.2"/>
<stop offset="1" stop-color="#1F232A" stop-opacity="0"/>
</linearGradient>
<clipPath id="clip0_7754_15268">
<rect width="430" height="424" fill="white" transform="translate(42 103)"/>
</clipPath>
</defs>
</svg>
