<svg width="528" height="451" viewBox="0 0 528 451" fill="none" xmlns="http://www.w3.org/2000/svg">
<path d="M64.2896 78.9005C64.2896 78.9005 -6.85218 147.419 6.7218 242.481C20.2958 337.543 107.429 339.51 173 400.598C238.571 461.686 327.926 462.607 395 415.855C462.074 369.103 425.408 388.909 463.388 304.602C501.369 220.311 526.026 202.44 505.687 115.212C485.363 27.9989 352.223 -16.0956 231 6.9584C109.763 30.0124 64.2896 78.9005 64.2896 78.9005Z" fill="url(#paint0_linear_7754_14393)"/>
<g clip-path="url(#clip0_7754_14393)">
<path d="M112.173 398.693C121.584 398.693 130.715 398.973 139.456 399.495C158.568 395.876 182.711 393.715 208.974 393.715C211.714 393.715 214.414 393.751 217.105 393.788C226.736 381.329 272.421 371.895 327.357 371.895C389.304 371.895 439.52 383.891 439.52 398.693C439.52 404.534 431.669 409.938 418.388 414.333C479.154 414.661 528 426.512 528 441.108C528 455.703 477.784 467.895 415.837 467.895C353.89 467.895 303.674 455.898 303.674 441.108C303.674 437.878 306.075 434.781 310.465 431.904C292.533 440.998 253.829 447.288 208.964 447.288C199.553 447.288 190.422 447.009 181.681 446.487C162.568 450.106 138.426 452.267 112.163 452.267C50.2157 452.267 0 440.27 0 425.48C0 410.69 50.2157 398.693 112.163 398.693H112.173Z" fill="url(#paint1_linear_7754_14393)"/>
<path d="M376.341 380.995C371.781 378.565 371.111 372.415 371.011 367.245C370.741 353.175 370.481 339.105 370.211 325.045C370.171 322.785 370.111 320.465 369.231 318.385C368.351 316.305 366.441 314.495 364.181 314.435C361.781 314.375 359.701 316.305 358.801 318.525C357.911 320.755 357.951 323.225 358.001 325.625C358.321 339.705 358.651 353.785 358.971 367.865C359.031 370.675 358.831 374.025 356.431 375.495C353.481 377.305 349.821 374.865 347.241 372.545C343.551 369.235 339.741 365.745 337.921 361.135C336.381 357.215 336.441 352.875 336.521 348.675C336.781 335.125 337.041 321.575 337.301 308.025C337.341 305.765 337.371 303.425 336.531 301.325C335.681 299.225 333.711 297.405 331.451 297.465C329.291 297.515 327.461 299.265 326.641 301.265C325.821 303.265 325.801 305.495 325.791 307.665C325.721 328.865 326.121 350.185 324.131 371.305C323.851 374.255 323.021 377.825 320.181 378.635C318.211 379.195 316.041 377.995 315.001 376.235C313.951 374.475 313.841 372.295 314.121 370.265C314.511 367.375 315.611 364.585 315.671 361.675C315.731 358.765 314.341 355.475 311.531 354.705C308.481 353.865 305.391 356.495 304.381 359.505C303.371 362.505 303.811 365.775 303.881 368.935C303.981 373.165 303.281 377.665 300.541 380.885C297.791 384.105 292.501 385.395 289.231 382.705C286.151 380.175 286.061 375.585 286.221 371.605C286.831 356.785 287.441 341.975 288.051 327.155C288.181 323.925 287.851 319.925 284.891 318.655C282.451 317.605 279.531 319.295 278.291 321.645C277.051 323.995 277.051 326.775 277.071 329.425C277.141 336.855 277.221 344.275 277.291 351.705C277.341 356.825 277.381 362.005 276.141 366.965C274.901 371.925 272.201 376.735 267.861 379.445C264.481 381.555 259.751 382.115 256.681 379.575C253.941 377.315 253.351 373.465 253.051 369.895C253.531 358.475 254.011 347.045 254.501 335.625C255.461 312.915 256.421 290.215 257.371 267.505C257.461 265.375 257.551 263.245 257.641 261.115C257.841 256.325 261.781 252.555 266.571 252.555H377.051C381.841 252.555 385.781 256.335 385.981 261.115C386.701 278.115 387.411 295.105 388.131 312.105C388.961 331.675 389.781 351.245 390.611 370.825C390.351 372.395 389.931 373.935 389.231 375.385C386.971 380.105 380.981 383.465 376.361 381.005L376.341 380.995Z" fill="url(#paint2_linear_7754_14393)"/>
<path d="M253 370.665C253.01 370.405 253.02 370.155 253.03 369.895C253.33 373.475 253.93 377.315 256.66 379.575C259.73 382.105 264.46 381.555 267.84 379.445C272.18 376.735 274.88 371.935 276.12 366.965C277.36 362.005 277.32 356.815 277.27 351.705C277.2 344.275 277.12 336.855 277.05 329.425C277.02 326.775 277.03 323.985 278.27 321.645C279.51 319.295 282.43 317.605 284.87 318.655C287.84 319.925 288.17 323.935 288.03 327.155C287.42 341.975 286.81 356.785 286.2 371.605C286.04 375.585 286.13 380.185 289.21 382.705C292.48 385.385 297.77 384.095 300.52 380.885C303.27 377.665 303.96 373.165 303.86 368.935C303.79 365.765 303.35 362.505 304.36 359.505C305.37 356.505 308.46 353.865 311.51 354.705C314.32 355.475 315.72 358.765 315.65 361.675C315.59 364.585 314.49 367.375 314.1 370.265C313.83 372.295 313.94 374.465 314.98 376.235C316.03 377.995 318.19 379.195 320.16 378.635C323.01 377.825 323.84 374.255 324.11 371.305C326.11 350.185 325.71 328.855 325.77 307.665C325.77 305.495 325.8 303.275 326.62 301.265C327.44 299.265 329.27 297.515 331.43 297.465C333.69 297.415 335.66 299.225 336.51 301.325C337.36 303.425 337.33 305.765 337.28 308.025C337.02 321.575 336.76 335.125 336.5 348.675C336.42 352.885 336.36 357.225 337.9 361.135C339.72 365.745 343.53 369.235 347.22 372.545C349.8 374.855 353.46 377.305 356.41 375.495C358.81 374.025 359.02 370.675 358.95 367.865C358.63 353.785 358.3 339.705 357.98 325.625C357.92 323.225 357.88 320.755 358.78 318.525C359.67 316.295 361.76 314.365 364.16 314.435C366.42 314.495 368.33 316.305 369.21 318.385C370.09 320.465 370.15 322.785 370.19 325.045C370.46 339.115 370.72 353.185 370.99 367.245C371.09 372.415 371.75 378.565 376.32 380.995C380.94 383.455 386.93 380.105 389.19 375.375C389.89 373.925 390.3 372.385 390.57 370.815C390.72 374.355 390.87 377.905 391.02 381.455C391.06 382.315 391.5 384.145 391.17 384.945C389.84 388.145 385.74 384.405 382.54 384.825C379.63 385.215 377.01 386.705 374.37 387.985C371.73 389.265 368.83 390.385 365.93 389.945C361.66 389.305 358.31 385.435 354 385.175C347.25 384.755 343.19 392.915 336.78 395.065C331.32 396.905 325.48 394.015 320.55 391.025C315.62 388.035 310.21 384.715 304.53 385.655C297.36 386.845 291.81 394.605 284.62 393.565C280.85 393.015 277.92 390.135 275.03 387.645C272.14 385.155 268.49 382.805 264.77 383.635C262.5 384.145 260.66 385.755 258.63 386.895C255.15 388.835 253.59 388.395 252.92 386.855C252.42 385.705 252.42 383.945 252.5 382.095C252.66 378.285 252.82 374.485 252.98 370.675L253 370.665Z" fill="url(#paint3_linear_7754_14393)"/>
<path d="M324.381 250.295H333.801V252.545H324.381H314.961V250.295H324.381Z" fill="url(#paint4_linear_7754_14393)"/>
<path d="M317.83 200.745C317.83 191.125 302.88 187.435 301.65 182.345H311.96C312.19 183.635 312.78 184.905 313.54 185.965C315.03 188.025 317.08 189.635 318.58 191.685C321.6 195.815 322.02 201.695 319.61 206.215C317.9 209.415 315.01 211.795 312.77 214.655C307.95 220.795 306.32 229.305 308.54 236.785C310.17 242.285 313.86 247.115 318.62 250.285H314.96C314.96 250.285 297.15 246.595 297.15 227.475C297.15 208.355 317.83 210.365 317.83 200.735V200.745Z" fill="#F4A046"/>
<path d="M308.541 236.794C306.321 229.314 307.951 220.794 312.771 214.664C315.011 211.814 317.901 209.424 319.611 206.224C322.021 201.704 321.601 195.824 318.581 191.694C317.081 189.644 315.031 188.034 313.541 185.974C312.781 184.914 312.191 183.634 311.961 182.354H347.111C345.881 187.444 330.941 191.134 330.941 200.754C330.941 210.374 351.621 208.365 351.621 227.494C351.621 246.624 333.811 250.304 333.811 250.304H318.631C313.861 247.124 310.171 242.304 308.551 236.804L308.541 236.794Z" fill="url(#paint5_linear_7754_14393)"/>
<path d="M334.721 216.695C333.711 215.885 333.331 214.385 333.831 213.195C334.481 211.675 336.531 210.955 337.981 211.735C339.431 212.515 339.971 214.625 339.061 216.005C338.151 217.385 336.011 217.725 334.721 216.695Z" fill="#F4A046"/>
<path d="M339.17 220.195C339.38 218.915 340.67 217.985 341.97 217.945C343.27 217.905 344.51 218.625 345.34 219.625C346.17 220.625 346.65 221.865 346.99 223.115C348.11 227.215 347.86 231.675 346.31 235.635C344.76 239.595 341.9 243.025 338.29 245.265C337.66 245.655 336.78 245.995 336.23 245.495C335.83 245.125 335.85 244.455 336.13 243.975C336.4 243.495 336.86 243.165 337.29 242.825C340.01 240.645 341.9 237.465 342.5 234.035C343.1 230.605 342.41 226.965 340.59 223.995C339.87 222.815 338.94 221.575 339.16 220.205L339.17 220.195Z" fill="#F4A046"/>
<path d="M96 336.895L59.7496 405.155C59.0196 406.505 59.9896 408.145 61.5296 408.145C62.2696 408.145 62.9596 407.735 63.3096 407.085L99.2 339.505C98 338.815 96.92 337.925 96 336.895Z" fill="url(#paint6_linear_7754_14393)"/>
<path d="M142.039 403.954L104 338.395C103 339.285 102 340.175 101 341.065L138.659 405.994C139.019 406.584 139.659 406.944 140.349 406.944C141.889 406.944 142.829 405.264 142.039 403.954Z" fill="url(#paint7_linear_7754_14393)"/>
<path d="M114.001 411.935C112.931 411.935 112.011 411.185 111.791 410.135L97.1406 339.795H101.751L116.201 409.215C116.491 410.615 115.421 411.935 113.991 411.935H114.001Z" fill="url(#paint8_linear_7754_14393)"/>
<path d="M101.639 119.145H97.0293V331.405H101.639V119.145Z" fill="url(#paint9_linear_7754_14393)"/>
<path d="M95.9102 331.404H102.76C104.24 331.404 105.43 332.604 105.43 334.074V339.214C105.43 340.694 104.23 341.884 102.76 341.884H95.9102C94.4302 341.884 93.2402 340.684 93.2402 339.214V334.074C93.2402 332.594 94.4402 331.404 95.9102 331.404Z" fill="#CBCAFA"/>
<path d="M112.91 139.574L94.0796 134.644C88.6296 133.214 85.7096 126.324 87.5596 119.244C89.4096 112.164 95.3296 107.584 100.78 109.014L119.61 113.944L112.91 139.574Z" fill="url(#paint10_linear_7754_14393)"/>
<path d="M158.21 81.4141L115.13 101.964L103.67 143.734L122 183.064L158.21 81.4141Z" fill="url(#paint11_linear_7754_14393)"/>
<path d="M227.07 87.9042L158.75 79.0142C157.47 78.8442 156.25 79.5942 155.82 80.8142L119.8 181.914C119.21 183.554 120.3 185.324 122.03 185.544L190.35 194.434C191.63 194.604 192.85 193.854 193.28 192.634L229.3 91.5342C229.89 89.8942 228.8 88.1242 227.07 87.9042Z" fill="#F2F0FD"/>
<path d="M122 183.064L190.89 192.034L227.1 90.3841L158.21 81.4141L122 183.064Z" fill="white"/>
<path d="M196.11 220.604H200.43V212.364H196.11V220.604Z" fill="#F2F0FD"/>
<path d="M121.031 413.525L193.5 224.395C194.44 225.555 195.38 226.725 196.32 227.885L124.661 414.945C124.371 415.695 123.651 416.185 122.841 416.185C121.471 416.185 120.531 414.805 121.031 413.525Z" fill="url(#paint12_linear_7754_14393)"/>
<path d="M193.979 229.095H202.539C204.102 229.095 205.369 227.828 205.369 226.265V223.435C205.369 221.872 204.102 220.605 202.539 220.605H193.979C192.416 220.605 191.149 221.872 191.149 223.435V226.265C191.149 227.828 192.416 229.095 193.979 229.095Z" fill="url(#paint13_linear_7754_14393)"/>
<path d="M275.5 413.524C276 414.804 275.06 416.184 273.69 416.184C272.89 416.184 272.17 415.694 271.87 414.944L200.58 230.125C201.55 229.045 202.53 227.965 203.5 226.895L275.5 413.524Z" fill="url(#paint14_linear_7754_14393)"/>
<path d="M196.17 229.095V425.735C196.17 426.895 197.11 427.825 198.26 427.825C199.42 427.825 200.35 426.885 200.35 425.735V229.095H196.16H196.17Z" fill="url(#paint15_linear_7754_14393)"/>
<path d="M206.789 174.894V176.854C206.789 177.444 206.309 177.924 205.719 177.924H203.869V190.884C203.869 191.674 203.229 192.304 202.449 192.304H196.279V173.824H205.719C206.309 173.824 206.789 174.304 206.789 174.894Z" fill="url(#paint16_linear_7754_14393)"/>
<path d="M194.79 192.295H196.96C198.462 192.295 199.68 191.077 199.68 189.575V176.535C199.68 175.033 198.462 173.815 196.96 173.815H194.79C193.287 173.815 192.07 175.033 192.07 176.535V189.575C192.07 191.077 193.287 192.295 194.79 192.295Z" fill="url(#paint17_linear_7754_14393)"/>
<path d="M194.51 194.635H198.77V192.295H194.51V194.635Z" fill="#3E3C61"/>
<path d="M198.78 194.635H201.98V192.295H198.78V194.635Z" fill="#4D4C79"/>
<path d="M234.059 203.505C234.059 198.905 230.949 195.175 227.109 195.175H237.919C241.759 195.175 244.869 198.905 244.869 203.505C244.869 208.105 241.759 211.835 237.919 211.835H227.109C230.949 211.835 234.059 208.105 234.059 203.505Z" fill="url(#paint18_linear_7754_14393)"/>
<path d="M227.1 195.175C230.94 195.175 234.05 198.905 234.05 203.505C234.05 208.105 230.94 211.835 227.1 211.835C223.26 211.835 220.15 208.105 220.15 203.505C220.15 198.905 223.26 195.175 227.1 195.175Z" fill="url(#paint19_linear_7754_14393)"/>
<path d="M200.241 197.395H224.711C227.531 197.395 229.821 200.135 229.821 203.505C229.821 206.875 227.531 209.615 224.711 209.615H200.241C197.421 209.615 195.131 206.875 195.131 203.505C195.131 200.135 197.421 197.395 200.241 197.395Z" fill="url(#paint20_linear_7754_14393)"/>
<path d="M203.681 207.905V199.115C203.681 196.645 201.681 194.645 199.211 194.645H204.531C207.001 194.645 209.001 196.645 209.001 199.115V207.905C209.001 210.375 207.001 212.375 204.531 212.375H199.211C201.681 212.375 203.681 210.375 203.681 207.905Z" fill="url(#paint21_linear_7754_14393)"/>
<path d="M199.211 194.645C201.681 194.645 203.681 196.645 203.681 199.115V207.905C203.681 210.375 201.681 212.375 199.211 212.375H184.251C181.801 212.375 179.811 210.385 179.811 207.935V199.085C179.811 196.635 181.801 194.645 184.251 194.645H199.211Z" fill="url(#paint22_linear_7754_14393)"/>
<path d="M172.52 229.845C169.35 229.275 166.53 227.365 164.41 224.945C162.29 222.525 160.81 219.605 159.61 216.615C157.67 211.785 156.38 206.555 156.98 201.395C157.58 196.225 160.31 191.115 164.86 188.595C169.56 185.975 175.42 186.445 180.54 188.125C183.45 189.085 186.38 190.515 188.14 193.025C189.87 195.505 190.23 198.665 190.44 201.675C190.74 205.965 190.84 210.315 190.01 214.535C189.19 218.755 187.37 222.875 184.29 225.875C181.21 228.875 176.75 230.615 172.52 229.845Z" fill="white"/>
<path d="M162.23 193.324C164.83 190.024 165.82 185.534 164.93 181.444C166.67 181.074 168.46 180.914 170.22 180.974C177.15 181.204 183.35 183.534 187.82 188.484C188.97 189.764 189.67 191.414 189.67 193.134C189.68 197.314 189.13 201.494 188.03 205.524C188.77 208.294 188.3 210.954 187.33 213.644C187.16 211.934 187.1 210.604 186.42 209.014C185.74 207.424 184.49 205.994 182.82 205.544C180.66 204.954 178.23 206.284 177.28 208.314C176.33 210.344 176.74 212.854 178.04 214.684C179.34 216.514 181.42 217.684 183.6 218.214C181.22 221.204 177.15 223.564 173.33 223.784C171.78 223.874 170.14 223.814 168.52 223.644C163.63 223.124 157.47 219.434 155.11 215.114C153.01 211.264 152.22 206.834 152 202.454C151.94 201.204 151.94 199.924 152 198.644C155.94 198.364 159.77 196.424 162.23 193.314V193.324Z" fill="url(#paint23_linear_7754_14393)"/>
<path d="M164.92 181.435C165.81 185.535 164.83 190.025 162.22 193.315C159.76 196.425 155.94 198.365 151.99 198.645C152.22 193.825 153.48 189.035 156.81 185.655C158.99 183.445 161.86 182.085 164.91 181.425L164.92 181.435Z" fill="url(#paint24_linear_7754_14393)"/>
<path d="M140.109 180.664C140.109 186.814 145.089 191.794 151.239 191.794C157.389 191.794 162.369 186.814 162.369 180.664C162.369 174.514 157.389 169.534 151.239 169.534C145.089 169.534 140.109 174.514 140.109 180.664Z" fill="url(#paint25_linear_7754_14393)"/>
<path d="M80.7505 316.995C79.5705 315.565 77.6305 314.925 76.4805 313.465C74.6205 311.115 75.5105 307.735 76.1105 304.795C77.3505 298.715 72.8205 295.525 69.6105 291.035C68.3005 289.205 67.0505 287.025 68.0305 285.005L81.5405 297.285L86.0205 329.835C86.0605 330.135 86.0805 330.435 86.1105 330.725C84.4305 328.995 83.1305 327.015 82.6205 324.635C82.0605 322.035 82.4305 319.045 80.7405 316.985L80.7505 316.995Z" fill="url(#paint26_linear_7754_14393)"/>
<path d="M60.3295 335.094C53.5795 314.514 48.8595 293.274 46.2695 271.784C45.7995 267.934 45.4095 263.994 46.2095 260.194C46.9995 256.394 49.1895 252.344 52.8095 250.924C59.0695 248.464 99.0595 248.774 112.37 266.114C124.39 283.474 134.56 302.114 142.65 321.614C145.46 328.394 146.42 335.804 145.59 343.094L138.06 409.394H114.1C112.26 367.934 122.09 337.524 122.09 337.524L81.5495 297.294L68.0395 285.014C67.0595 287.044 68.3095 289.214 69.6195 291.044C72.8295 295.534 77.3595 298.724 76.1195 304.804C75.5195 307.744 74.6295 311.124 76.4895 313.474C77.6395 314.934 79.5895 315.564 80.7595 317.004C82.4495 319.064 82.0795 322.054 82.6395 324.654C83.1495 327.034 84.4495 329.014 86.1295 330.744C86.8295 336.904 86.0295 343.134 83.7595 348.914L62.5095 402.944H37.0195C46.5395 358.104 60.3295 335.094 60.3295 335.094Z" fill="url(#paint27_linear_7754_14393)"/>
<path d="M151.761 426.135C152.141 426.815 152.451 427.525 152.651 428.295L152.961 429.515H115.641L115.851 426.135H151.761Z" fill="url(#paint28_linear_7754_14393)"/>
<path d="M116.87 409.395H136.07L144.59 419.795C145.44 420.835 146.51 421.675 147.72 422.265C149.46 423.105 150.84 424.475 151.76 426.135H115.85L116.87 409.395Z" fill="url(#paint29_linear_7754_14393)"/>
<path d="M75.1705 419.685C75.5505 420.365 75.8605 421.075 76.0605 421.845L76.3705 423.065H39.0605L39.2705 419.685H75.1805H75.1705Z" fill="url(#paint30_linear_7754_14393)"/>
<path d="M40.2898 402.944H59.4798L67.9998 413.344C68.8498 414.384 69.9198 415.224 71.1298 415.814C72.8698 416.654 74.2598 418.024 75.1698 419.684H39.2598L40.2798 402.944H40.2898Z" fill="url(#paint31_linear_7754_14393)"/>
<path d="M195.499 260.644L190.199 253.024C190.999 252.414 191.799 251.794 192.649 251.244C193.069 243.024 193.489 234.794 193.909 226.574C197.129 237.594 197.749 249.384 195.499 260.644Z" fill="white"/>
<path d="M190.19 253.035L195.49 260.655C197.74 249.395 197.12 237.605 193.9 226.585C194.09 222.875 194.28 219.165 194.47 215.455C192.62 213.915 191.17 211.705 190.69 209.345C190.21 206.985 190.56 204.475 191.67 202.335C192.33 202.065 193.4 202.565 193.57 203.255C193.73 203.955 193.53 204.675 193.46 205.385C193.39 206.095 193.5 206.915 194.09 207.325C194.62 207.685 195.37 207.575 195.89 207.195C196.41 206.825 196.74 206.235 197 205.655C198.57 202.185 198.28 197.945 196.25 194.725C195.84 194.085 196.94 192.785 197.69 192.705C198.45 192.625 199.19 193.055 199.67 193.635C200.15 194.225 200.42 194.955 200.63 195.695C201.18 197.615 201.41 199.625 201.32 201.625C202.45 203.185 203.67 204.605 204.88 206.055C206.34 207.805 206.68 210.235 205.8 212.345C205.29 213.585 204.78 214.825 204.2 215.965C204.74 226.135 205.2 236.565 205.74 246.735C206.15 254.495 206.51 262.585 203.34 269.685C202.08 272.515 200.12 275.225 197.27 276.425C193.25 278.105 188.44 276.275 185.4 273.155C182.36 270.035 180.68 265.855 179.09 261.805C183.08 259.215 186.44 255.895 190.2 253.045L190.19 253.035Z" fill="white"/>
<path d="M139.66 257.505C140.89 257.385 142.21 257.475 143.29 256.855C145.59 255.515 145.27 251.905 147.21 250.075C148.61 248.765 150.73 248.755 152.64 248.585C154.55 248.415 156.76 247.715 157.32 245.885C157.67 244.765 157.27 243.565 157.14 242.395C157.11 242.095 157.1 241.795 157.13 241.495C157.25 240.285 157.96 238.965 159.05 239.845C159.52 240.225 159.9 241.025 160.26 241.515C161.5 243.235 162.75 244.955 163.99 246.675C165.81 249.195 167.64 251.725 169.46 254.245C156.2 256.295 143.19 259.995 131.02 265.545C131.19 264.435 131.49 263.345 132.14 262.265C133.72 259.625 136.6 257.805 139.66 257.505Z" fill="#F09123"/>
<path d="M53.6091 248.035C57.5991 242.335 63.0891 237.885 68.7091 233.785C83.4491 223.025 99.8991 214.015 117.859 210.775C135.819 207.535 155.479 210.665 169.739 222.055C179.269 229.665 186.719 240.955 193.049 251.375C190.569 258.145 184.329 263.395 177.229 264.675C174.599 261.425 172.079 257.485 169.449 254.235C167.629 251.715 165.799 249.185 163.979 246.665C162.739 244.945 161.489 243.225 160.249 241.505C159.889 241.015 159.519 240.215 159.039 239.835C157.949 238.955 157.239 240.285 157.119 241.485C157.089 241.785 157.099 242.085 157.129 242.385C157.259 243.555 157.659 244.755 157.309 245.875C156.739 247.705 154.529 248.405 152.629 248.575C150.719 248.745 148.599 248.755 147.199 250.065C145.259 251.885 145.579 255.505 143.279 256.845C142.209 257.465 140.889 257.375 139.649 257.495C136.589 257.795 133.709 259.615 132.129 262.255C131.479 263.335 131.179 264.425 131.009 265.535C126.419 267.625 121.949 269.965 117.639 272.605C101.509 282.505 78.9991 269.885 61.9691 261.635C59.3791 260.375 56.7691 258.975 54.9091 256.775C53.0491 254.575 51.9591 250.385 53.6091 248.025V248.035Z" fill="#F4A046"/>
<path d="M455.39 182.494L418.92 74.3944C418.27 72.4744 416.19 71.4444 414.27 72.0844L344.83 95.2544C342.9 95.8944 341.86 97.9844 342.51 99.9144L378.98 208.014C379.63 209.934 381.71 210.964 383.63 210.324L453.07 187.154C455 186.514 456.04 184.424 455.39 182.494Z" fill="#F2F0FD"/>
<path d="M406.949 107.284L444.559 94.7344L464.079 152.594L426.469 165.144L406.949 107.284Z" fill="url(#paint32_linear_7754_14393)"/>
<path d="M406.949 107.285L344.449 97.9746L381.699 208.385L426.469 165.145L406.949 107.285Z" fill="url(#paint33_linear_7754_14393)"/>
<path d="M444.559 94.7342L416.199 74.0342L344.449 97.9742L406.949 107.284L444.559 94.7342Z" fill="url(#paint34_linear_7754_14393)"/>
<path d="M464.079 152.595L453.449 184.445L381.699 208.385L426.469 165.145L464.079 152.595Z" fill="url(#paint35_linear_7754_14393)"/>
<path d="M439.3 375.664L406.58 435.944C405.79 437.404 406.84 439.184 408.51 439.184C409.31 439.184 410.05 438.744 410.44 438.034L442.76 378.484C441.46 377.734 440.3 376.774 439.3 375.664Z" fill="url(#paint36_linear_7754_14393)"/>
<path d="M444.991 365.175L439.301 375.665C440.301 376.785 441.471 377.745 442.761 378.485L449.981 365.175H444.991Z" fill="url(#paint37_linear_7754_14393)"/>
<path d="M453.72 365.175H448.73L457.42 379.565C458.5 378.605 459.59 377.635 460.67 376.675L453.72 365.175Z" fill="url(#paint38_linear_7754_14393)"/>
<path d="M495.69 434.644L460.67 376.664C459.59 377.624 458.5 378.594 457.42 379.554L492.03 436.854C492.42 437.494 493.11 437.884 493.86 437.884C495.52 437.884 496.55 436.064 495.69 434.644Z" fill="url(#paint39_linear_7754_14393)"/>
<path d="M465.32 443.284C464.16 443.284 463.16 442.474 462.93 441.334L447.07 365.164H452.06L467.71 440.334C468.03 441.854 466.87 443.274 465.32 443.274V443.284Z" fill="url(#paint40_linear_7754_14393)"/>
<path d="M451.939 126.234H446.949V356.084H451.939V126.234Z" fill="url(#paint41_linear_7754_14393)"/>
<path d="M445.73 356.085H453.15C454.75 356.085 456.04 357.385 456.04 358.975V364.535C456.04 366.135 454.74 367.425 453.15 367.425H445.73C444.13 367.425 442.84 366.125 442.84 364.535V358.975C442.84 357.375 444.14 356.085 445.73 356.085Z" fill="url(#paint42_linear_7754_14393)"/>
<path d="M463.969 137.454L442.409 143.974C436.169 145.864 429.119 140.824 426.669 132.714C424.219 124.614 427.289 116.514 433.539 114.624L455.099 108.104L463.969 137.454Z" fill="url(#paint43_linear_7754_14393)"/>
<path d="M455.09 108.104C448.85 109.994 445.77 118.094 448.23 126.194C450.68 134.294 457.73 139.334 463.97 137.454C470.21 135.564 473.29 127.464 470.83 119.364C468.38 111.264 461.33 106.224 455.09 108.104Z" fill="url(#paint44_linear_7754_14393)"/>
</g>
<defs>
<linearGradient id="paint0_linear_7754_14393" x1="259" y1="0.894531" x2="259" y2="448.895" gradientUnits="userSpaceOnUse">
<stop stop-color="#E5EDF3" stop-opacity="0.2"/>
<stop offset="1" stop-color="#1F232A" stop-opacity="0"/>
</linearGradient>
<linearGradient id="paint1_linear_7754_14393" x1="264" y1="371.895" x2="264" y2="467.895" gradientUnits="userSpaceOnUse">
<stop stop-color="#E5EDF3" stop-opacity="0.2"/>
<stop offset="1" stop-color="#1F232A" stop-opacity="0"/>
</linearGradient>
<linearGradient id="paint2_linear_7754_14393" x1="322" y1="503.395" x2="317" y2="247.395" gradientUnits="userSpaceOnUse">
<stop stop-color="#E5EDF3"/>
<stop offset="0.555" stop-color="#777D83"/>
<stop offset="0.94" stop-color="#2C3037"/>
<stop offset="1" stop-color="#1F232A"/>
</linearGradient>
<linearGradient id="paint3_linear_7754_14393" x1="314" y1="392.895" x2="314" y2="259.895" gradientUnits="userSpaceOnUse">
<stop stop-color="#E5EDF3"/>
<stop offset="1" stop-color="#1F232A"/>
</linearGradient>
<linearGradient id="paint4_linear_7754_14393" x1="324" y1="242.395" x2="324" y2="254.895" gradientUnits="userSpaceOnUse">
<stop stop-color="#E5EDF3"/>
<stop offset="1" stop-color="#1F232A"/>
</linearGradient>
<linearGradient id="paint5_linear_7754_14393" x1="310" y1="220.895" x2="352" y2="221.395" gradientUnits="userSpaceOnUse">
<stop stop-color="#F09123"/>
<stop offset="1" stop-color="#8A5314"/>
</linearGradient>
<linearGradient id="paint6_linear_7754_14393" x1="50.5" y1="417.895" x2="102" y2="333.895" gradientUnits="userSpaceOnUse">
<stop stop-color="#E5EDF3"/>
<stop offset="1" stop-color="#1F232A"/>
</linearGradient>
<linearGradient id="paint7_linear_7754_14393" x1="145.5" y1="412.395" x2="100" y2="334.895" gradientUnits="userSpaceOnUse">
<stop stop-color="#E5EDF3"/>
<stop offset="1" stop-color="#1F232A"/>
</linearGradient>
<linearGradient id="paint8_linear_7754_14393" x1="118" y1="421.895" x2="100" y2="331.395" gradientUnits="userSpaceOnUse">
<stop stop-color="#E5EDF3"/>
<stop offset="1" stop-color="#1F232A"/>
</linearGradient>
<linearGradient id="paint9_linear_7754_14393" x1="99.3343" y1="119.145" x2="97" y2="460.895" gradientUnits="userSpaceOnUse">
<stop stop-color="#E5EDF3"/>
<stop offset="1" stop-color="#1F232A"/>
</linearGradient>
<linearGradient id="paint10_linear_7754_14393" x1="74.5" y1="114.395" x2="108.5" y2="127.395" gradientUnits="userSpaceOnUse">
<stop stop-color="#E5EDF3"/>
<stop offset="1" stop-color="#1F232A"/>
</linearGradient>
<linearGradient id="paint11_linear_7754_14393" x1="40.5" y1="88.8945" x2="134.5" y2="128.395" gradientUnits="userSpaceOnUse">
<stop stop-color="#E5EDF3"/>
<stop offset="1" stop-color="#1F232A"/>
</linearGradient>
<linearGradient id="paint12_linear_7754_14393" x1="110.5" y1="442.395" x2="221.5" y2="173.895" gradientUnits="userSpaceOnUse">
<stop stop-color="#E5EDF3"/>
<stop offset="1" stop-color="#1F232A"/>
</linearGradient>
<linearGradient id="paint13_linear_7754_14393" x1="183.5" y1="224.895" x2="210.5" y2="224.895" gradientUnits="userSpaceOnUse">
<stop stop-color="#E5EDF3"/>
<stop offset="1" stop-color="#1F232A"/>
</linearGradient>
<linearGradient id="paint14_linear_7754_14393" x1="284.5" y1="442.395" x2="199" y2="215.395" gradientUnits="userSpaceOnUse">
<stop stop-color="#E5EDF3"/>
<stop offset="1" stop-color="#1F232A"/>
</linearGradient>
<linearGradient id="paint15_linear_7754_14393" x1="198" y1="445.895" x2="198" y2="217.395" gradientUnits="userSpaceOnUse">
<stop stop-color="#E5EDF3"/>
<stop offset="1" stop-color="#1F232A"/>
</linearGradient>
<linearGradient id="paint16_linear_7754_14393" x1="201" y1="165.895" x2="201.534" y2="192.304" gradientUnits="userSpaceOnUse">
<stop stop-color="#E5EDF3"/>
<stop offset="1" stop-color="#1F232A"/>
</linearGradient>
<linearGradient id="paint17_linear_7754_14393" x1="186" y1="180.895" x2="201" y2="182.895" gradientUnits="userSpaceOnUse">
<stop stop-color="#E5EDF3"/>
<stop offset="1" stop-color="#1F232A"/>
</linearGradient>
<linearGradient id="paint18_linear_7754_14393" x1="235.5" y1="190.895" x2="235.989" y2="211.835" gradientUnits="userSpaceOnUse">
<stop stop-color="#E5EDF3"/>
<stop offset="1" stop-color="#1F232A"/>
</linearGradient>
<linearGradient id="paint19_linear_7754_14393" x1="239.5" y1="200.395" x2="220.5" y2="204.395" gradientUnits="userSpaceOnUse">
<stop stop-color="#E5EDF3"/>
<stop offset="1" stop-color="#1F232A"/>
</linearGradient>
<linearGradient id="paint20_linear_7754_14393" x1="212.5" y1="194.395" x2="212.476" y2="209.615" gradientUnits="userSpaceOnUse">
<stop stop-color="#E5EDF3"/>
<stop offset="1" stop-color="#1F232A"/>
</linearGradient>
<linearGradient id="paint21_linear_7754_14393" x1="203.5" y1="187.395" x2="204.106" y2="212.375" gradientUnits="userSpaceOnUse">
<stop stop-color="#E5EDF3"/>
<stop offset="1" stop-color="#1F232A"/>
</linearGradient>
<linearGradient id="paint22_linear_7754_14393" x1="192" y1="166.895" x2="191.746" y2="212.375" gradientUnits="userSpaceOnUse">
<stop stop-color="#E5EDF3"/>
<stop offset="1" stop-color="#1F232A"/>
</linearGradient>
<linearGradient id="paint23_linear_7754_14393" x1="124" y1="75.3945" x2="170.813" y2="223.826" gradientUnits="userSpaceOnUse">
<stop stop-color="#E5EDF3"/>
<stop offset="1" stop-color="#1F232A"/>
</linearGradient>
<linearGradient id="paint24_linear_7754_14393" x1="117" y1="154.895" x2="163.5" y2="196.895" gradientUnits="userSpaceOnUse">
<stop stop-color="#E5EDF3"/>
<stop offset="1" stop-color="#1F232A"/>
</linearGradient>
<linearGradient id="paint25_linear_7754_14393" x1="127" y1="163.895" x2="161" y2="191.895" gradientUnits="userSpaceOnUse">
<stop stop-color="#E5EDF3"/>
<stop offset="1" stop-color="#1F232A"/>
</linearGradient>
<linearGradient id="paint26_linear_7754_14393" x1="80.5" y1="532.895" x2="77" y2="281.395" gradientUnits="userSpaceOnUse">
<stop stop-color="#E5EDF3"/>
<stop offset="1" stop-color="#1F232A"/>
</linearGradient>
<linearGradient id="paint27_linear_7754_14393" x1="57" y1="544.395" x2="91" y2="244.895" gradientUnits="userSpaceOnUse">
<stop stop-color="#E5EDF3"/>
<stop offset="1" stop-color="#1F232A"/>
</linearGradient>
<linearGradient id="paint28_linear_7754_14393" x1="134.5" y1="424.395" x2="134.5" y2="434.395" gradientUnits="userSpaceOnUse">
<stop stop-color="#E5EDF3"/>
<stop offset="1" stop-color="#1F232A"/>
</linearGradient>
<linearGradient id="paint29_linear_7754_14393" x1="131.5" y1="383.895" x2="133.805" y2="426.135" gradientUnits="userSpaceOnUse">
<stop stop-color="#E5EDF3"/>
<stop offset="1" stop-color="#1F232A"/>
</linearGradient>
<linearGradient id="paint30_linear_7754_14393" x1="58" y1="415.395" x2="58" y2="426.895" gradientUnits="userSpaceOnUse">
<stop stop-color="#E5EDF3"/>
<stop offset="1" stop-color="#1F232A"/>
</linearGradient>
<linearGradient id="paint31_linear_7754_14393" x1="56" y1="372.895" x2="57.2148" y2="419.684" gradientUnits="userSpaceOnUse">
<stop stop-color="#E5EDF3"/>
<stop offset="1" stop-color="#1F232A"/>
</linearGradient>
<linearGradient id="paint32_linear_7754_14393" x1="541" y1="88.8945" x2="391.5" y2="152.895" gradientUnits="userSpaceOnUse">
<stop stop-color="#E5EDF3"/>
<stop offset="1" stop-color="#1F232A"/>
</linearGradient>
<linearGradient id="paint33_linear_7754_14393" x1="510" y1="94.8945" x2="360.5" y2="149.895" gradientUnits="userSpaceOnUse">
<stop stop-color="#E5EDF3"/>
<stop offset="1" stop-color="#1F232A"/>
</linearGradient>
<linearGradient id="paint34_linear_7754_14393" x1="432" y1="192.895" x2="381.5" y2="80.8945" gradientUnits="userSpaceOnUse">
<stop stop-color="#E5EDF3"/>
<stop offset="1" stop-color="#1F232A"/>
</linearGradient>
<linearGradient id="paint35_linear_7754_14393" x1="466" y1="99.3945" x2="423" y2="199.895" gradientUnits="userSpaceOnUse">
<stop stop-color="#E5EDF3"/>
<stop offset="1" stop-color="#1F232A"/>
</linearGradient>
<linearGradient id="paint36_linear_7754_14393" x1="404.5" y1="444.895" x2="449" y2="362.395" gradientUnits="userSpaceOnUse">
<stop stop-color="#E5EDF3"/>
<stop offset="1" stop-color="#1F232A"/>
</linearGradient>
<linearGradient id="paint37_linear_7754_14393" x1="404.5" y1="445.395" x2="450" y2="362.895" gradientUnits="userSpaceOnUse">
<stop stop-color="#E5EDF3"/>
<stop offset="1" stop-color="#1F232A"/>
</linearGradient>
<linearGradient id="paint38_linear_7754_14393" x1="497.5" y1="441.395" x2="452" y2="366.895" gradientUnits="userSpaceOnUse">
<stop stop-color="#E5EDF3"/>
<stop offset="1" stop-color="#1F232A"/>
</linearGradient>
<linearGradient id="paint39_linear_7754_14393" x1="504" y1="444.395" x2="454" y2="366.895" gradientUnits="userSpaceOnUse">
<stop stop-color="#E5EDF3"/>
<stop offset="1" stop-color="#1F232A"/>
</linearGradient>
<linearGradient id="paint40_linear_7754_14393" x1="467" y1="450.895" x2="450" y2="364.895" gradientUnits="userSpaceOnUse">
<stop stop-color="#E5EDF3"/>
<stop offset="1" stop-color="#1F232A"/>
</linearGradient>
<linearGradient id="paint41_linear_7754_14393" x1="449.444" y1="126.234" x2="441.5" y2="541.895" gradientUnits="userSpaceOnUse">
<stop stop-color="#E5EDF3"/>
<stop offset="1" stop-color="#1F232A"/>
</linearGradient>
<linearGradient id="paint42_linear_7754_14393" x1="440" y1="360.895" x2="457" y2="361.895" gradientUnits="userSpaceOnUse">
<stop stop-color="#E5EDF3"/>
<stop offset="1" stop-color="#1F232A"/>
</linearGradient>
<linearGradient id="paint43_linear_7754_14393" x1="444.898" y1="108.104" x2="444.898" y2="144.371" gradientUnits="userSpaceOnUse">
<stop stop-color="#E5EDF3"/>
<stop offset="1" stop-color="#1F232A"/>
</linearGradient>
<linearGradient id="paint44_linear_7754_14393" x1="454.5" y1="91.8945" x2="460" y2="151.395" gradientUnits="userSpaceOnUse">
<stop stop-color="#E5EDF3"/>
<stop offset="1" stop-color="#1F232A"/>
</linearGradient>
<clipPath id="clip0_7754_14393">
<rect width="527.93" height="379.05" fill="white" transform="translate(0 71.8945)"/>
</clipPath>
</defs>
</svg>
