<svg width="59" height="64" viewBox="0 0 59 64" fill="none" xmlns="http://www.w3.org/2000/svg">
<g clip-path="url(#clip0_4541_13440)">
<path d="M47.81 28.4199L44.04 32.3799L46.91 37.1599" stroke="#F7941D" stroke-width="2" stroke-miterlimit="10" stroke-linecap="round" stroke-linejoin="round"/>
<path d="M52.46 28.8098L55.85 32.3798L52.98 37.1598" stroke="#F7941D" stroke-width="2" stroke-miterlimit="10" stroke-linecap="round" stroke-linejoin="round"/>
<path d="M13.7504 52.3898C13.6804 52.0198 13.6504 51.6398 13.6504 51.2498C13.6504 47.6898 16.5404 44.7998 20.1004 44.7998C23.6604 44.7998 26.5504 47.6898 26.5504 51.2498C26.5504 51.6298 26.5204 51.9998 26.4604 52.3598" stroke="#F7941D" stroke-width="2" stroke-miterlimit="10" stroke-linecap="round" stroke-linejoin="round"/>
<path d="M53.8105 21.72V26.09C53.8105 27.91 52.3405 29.38 50.5205 29.38C48.7005 29.38 47.2305 27.91 47.2305 26.09V23.19" stroke="white" stroke-width="2" stroke-miterlimit="10" stroke-linecap="round" stroke-linejoin="round"/>
<path d="M9.57 45.7798L3.31001 25.7098C2.48001 23.0398 4.02 20.1998 6.71001 19.4398C8.79 18.8598 11.02 19.6898 12.2 21.4898L24.05 39.5198" stroke="#F7941D" stroke-width="2" stroke-miterlimit="10" stroke-linecap="round" stroke-linejoin="round"/>
<path d="M9.12988 19.1599L30.7599 2.10989C32.6799 0.619885 35.3599 0.619886 37.2699 2.12989C39.8599 4.17989 39.9499 8.07989 37.4599 10.2399L16.6799 28.2999" stroke="#F7941D" stroke-width="2" stroke-miterlimit="10" stroke-linecap="round" stroke-linejoin="round"/>
<path d="M39.9602 6.0498L52.5302 14.9898C54.4902 16.3798 55.0802 19.0298 53.8902 21.1198C52.5402 23.4998 49.4402 24.2198 47.1702 22.6798L34.2002 13.8198" stroke="#F7941D" stroke-width="2" stroke-miterlimit="10" stroke-linecap="round" stroke-linejoin="round"/>
<path d="M33.18 53.2698H6.01C3.24 53.2698 1 55.5098 1 58.2798V61.3098C1 62.0398 1.59 62.6298 2.32 62.6298H36.87C37.6 62.6298 38.19 62.0398 38.19 61.3098V58.2798C38.19 55.5098 35.95 53.2698 33.18 53.2698Z" stroke="white" stroke-width="2" stroke-miterlimit="10" stroke-linecap="round" stroke-linejoin="round"/>
<path d="M8.60969 52.9299C8.48969 52.2599 8.42969 51.5699 8.42969 50.8599C8.42969 44.4099 13.6597 39.1799 20.1097 39.1799C26.5597 39.1799 31.7897 44.4099 31.7897 50.8599C31.7897 51.5399 31.7297 52.2099 31.6197 52.8599" stroke="white" stroke-width="2" stroke-miterlimit="10" stroke-linecap="round" stroke-linejoin="round"/>
<path d="M53.3005 49.6099V55.2899H47.2305V49.6099" stroke="white" stroke-width="2" stroke-miterlimit="10" stroke-linecap="round" stroke-linejoin="round"/>
<path d="M56.71 62.5698H43.76C43.18 62.5698 42.71 62.0998 42.71 61.5198V50.0898C42.71 49.5098 43.18 49.0398 43.76 49.0398H56.72C57.3 49.0398 57.77 49.5098 57.77 50.0898V61.5198C57.77 62.0998 57.29 62.5698 56.71 62.5698Z" stroke="#F7941D" stroke-width="2" stroke-miterlimit="10" stroke-linecap="round" stroke-linejoin="round"/>
<path d="M7.91023 26.6999C9.10869 26.6999 10.0802 25.7283 10.0802 24.5299C10.0802 23.3314 9.10869 22.3599 7.91023 22.3599C6.71178 22.3599 5.74023 23.3314 5.74023 24.5299C5.74023 25.7283 6.71178 26.6999 7.91023 26.6999Z" stroke="white" stroke-width="2" stroke-miterlimit="10" stroke-linecap="round" stroke-linejoin="round"/>
<path d="M34.21 8.75992C35.4085 8.75992 36.38 7.78838 36.38 6.58992C36.38 5.39146 35.4085 4.41992 34.21 4.41992C33.0116 4.41992 32.04 5.39146 32.04 6.58992C32.04 7.78838 33.0116 8.75992 34.21 8.75992Z" stroke="white" stroke-width="2" stroke-miterlimit="10" stroke-linecap="round" stroke-linejoin="round"/>
</g>
<defs>
<clipPath id="clip0_4541_13440">
<rect width="58.77" height="63.63" fill="white"/>
</clipPath>
</defs>
</svg>
