<svg width="61" height="44" viewBox="0 0 61 44" fill="none" xmlns="http://www.w3.org/2000/svg">
<g clip-path="url(#clip0_4271_13446)">
<path d="M1 26.65L5.05 22.29C6.24 21.01 7.9 20.29 9.65 20.29L29.82 17.3C30.5 17.17 31.21 17.17 31.86 17.4C33.4 17.95 34.5 19.43 34.5 21.16C34.5 22.22 34.08 23.23 33.33 23.98L32.24 25.07" stroke="white" stroke-width="2" stroke-miterlimit="10" stroke-linecap="round" stroke-linejoin="round"/>
<path d="M2.83984 42.83L8.72984 36.94C9.28984 36.38 10.0498 36.07 10.8398 36.07H31.2598C32.2498 36.07 33.1998 35.68 33.8898 34.98L58.2298 22.26C59.6198 20.87 59.6198 18.61 58.2298 17.22C57.1498 16.14 55.5498 15.9 54.2298 16.49L49.8398 18.48L33.3298 24.89C32.9498 25.25 32.4398 25.46 31.9198 25.46L17.7498 28.48" stroke="white" stroke-width="2" stroke-miterlimit="10" stroke-linecap="round" stroke-linejoin="round"/>
<path d="M24.1595 10.1H23.6495C22.5095 10.1 21.5095 9.99 20.6495 9.76C19.7895 9.53 19.1195 9.25 18.6395 8.92C18.1595 8.58 17.7695 8.18 17.4795 7.72C17.1795 7.26 16.9895 6.83 16.8995 6.44C16.8095 6.05 16.7695 5.64 16.7695 5.21V4.83C16.7695 4.39 16.8095 3.98 16.8895 3.6C16.9695 3.22 17.1595 2.8 17.4495 2.34C17.7395 1.88 18.1195 1.49 18.5895 1.16C19.0695 0.84 19.7395 0.56 20.5995 0.34C21.4595 0.12 22.4895 0 23.6495 0H24.1595C24.9695 0 25.7095 0.05 26.3895 0.16C27.0695 0.27 27.6295 0.4 28.0895 0.56C28.5495 0.73 28.9495 0.92 29.3095 1.16C29.6595 1.39 29.9395 1.63 30.1395 1.86C30.3395 2.1 30.4995 2.35 30.6295 2.61C30.7595 2.87 30.8395 3.11 30.8795 3.32C30.9195 3.53 30.9395 3.73 30.9395 3.94V4.11H27.0795C26.7795 3.12 25.7195 2.62 23.8795 2.62C21.7095 2.62 20.6195 3.38 20.6195 4.9V5.06C20.6195 5.35 20.6695 5.62 20.7695 5.88C20.8695 6.14 21.0395 6.4 21.2695 6.65C21.4995 6.9 21.8395 7.1 22.2895 7.25C22.7395 7.4 23.2695 7.47 23.8895 7.47C24.4295 7.47 24.9095 7.42 25.3195 7.32C25.7295 7.22 26.0395 7.11 26.2495 6.99C26.4595 6.87 26.6295 6.71 26.7695 6.53C26.9095 6.35 26.9895 6.22 27.0195 6.14C27.0495 6.06 27.0695 5.97 27.0995 5.88H30.9495V6.09C30.9495 6.39 30.9095 6.69 30.8195 7C30.7295 7.31 30.5395 7.66 30.2395 8.05C29.9395 8.44 29.5595 8.78 29.0995 9.07C28.6295 9.36 27.9795 9.61 27.1195 9.81C26.2595 10 25.2795 10.1 24.1595 10.1Z" fill="#2F3743"/>
<path d="M31.8293 0.180054H35.9893L41.6393 5.71005V0.180054H45.3293V9.91005H41.6093L35.5093 4.01005V9.91005H31.8193V0.180054H31.8293Z" fill="#2F3743"/>
</g>
<defs>
<clipPath id="clip0_4271_13446">
<rect width="60.27" height="43.83" fill="white"/>
</clipPath>
</defs>
</svg>
