<svg width="65" height="64" viewBox="0 0 65 64" fill="none" xmlns="http://www.w3.org/2000/svg">
<g clip-path="url(#clip0_4541_13285)">
<path d="M18.54 50.1402L22.03 58.0402L18.44 62.2502L1 44.8102L4.59 40.9102L13.82 45.0102" stroke="white" stroke-width="2" stroke-miterlimit="10" stroke-linecap="round" stroke-linejoin="round"/>
<path d="M44.0902 11.88L6.2302 1L2.9502 3.98L21.8302 17.83" stroke="#F7941D" stroke-width="2" stroke-miterlimit="10" stroke-linecap="round" stroke-linejoin="round"/>
<path d="M52.2498 20.0298L63.1198 57.8898L60.1498 61.1698L46.2998 42.2998" stroke="#F7941D" stroke-width="2" stroke-miterlimit="10" stroke-linecap="round" stroke-linejoin="round"/>
<path d="M17.7305 4.40993L19.9505 1.92993C20.8905 0.869935 22.5205 0.779935 23.5705 1.72993C24.6305 2.66993 24.7205 4.29993 23.7705 5.34993L23.3605 5.80993" stroke="#F7941D" stroke-width="2" stroke-miterlimit="10" stroke-linejoin="round"/>
<path d="M26.3496 6.90984L28.8796 4.07984C29.8196 3.01984 31.4496 2.92984 32.4996 3.87984C33.5596 4.81984 33.6496 6.44984 32.6996 7.49984L31.9896 8.29984" stroke="#F7941D" stroke-width="2" stroke-miterlimit="10" stroke-linejoin="round"/>
<path d="M59.22 45.9601L61.74 43.7101C62.8 42.7701 62.89 41.1401 61.94 40.0901C61 39.0301 59.37 38.9401 58.32 39.8901L57.54 40.5901" stroke="#F7941D" stroke-width="2" stroke-miterlimit="10" stroke-linejoin="round"/>
<path d="M56.9495 37.1299L59.5695 34.7799C60.6295 33.8399 60.7195 32.2099 59.7695 31.1599C58.8295 30.0999 57.1995 30.0099 56.1495 30.9599L55.5195 31.5199" stroke="#F7941D" stroke-width="2" stroke-miterlimit="10" stroke-linejoin="round"/>
<path d="M8.58984 52.3002L24.9098 32.2602C26.6198 30.1602 28.3998 28.1302 30.2598 26.1702L38.0898 17.9002C40.6598 15.1902 43.3598 12.6102 46.1898 10.1702L50.4298 6.52018C52.5498 4.70018 54.9498 3.22018 57.5398 2.16018L57.6298 2.12018C58.8598 1.61018 60.2198 1.57018 61.4498 1.95018L62.0798 2.42018C62.5498 3.72018 62.5298 5.17018 61.9898 6.48018L61.9498 6.57018C60.8798 9.16018 59.4098 11.5602 57.5898 13.6802L53.9398 17.9202C51.5098 20.7502 48.9298 23.4602 46.2098 26.0202L37.9398 33.8502C35.9798 35.7102 33.9398 37.4902 31.8498 39.2002L11.8198 55.5202L8.58984 52.3002Z" stroke="white" stroke-width="2" stroke-miterlimit="10" stroke-linecap="round" stroke-linejoin="round"/>
</g>
<defs>
<clipPath id="clip0_4541_13285">
<rect width="64.12" height="63.25" fill="white"/>
</clipPath>
</defs>
</svg>
