<svg width="62" height="62" viewBox="0 0 62 62" fill="none" xmlns="http://www.w3.org/2000/svg">
<path d="M38.8897 60.18H22.1997C18.3497 60.18 15.2197 57.06 15.2197 53.2V7.98C15.2197 4.12 18.3497 1 22.1997 1H38.8897C42.7397 1 45.8697 4.12 45.8697 7.98V53.2C45.8697 57.05 42.7397 60.18 38.8897 60.18Z" stroke="white" stroke-width="2" stroke-miterlimit="10" stroke-linecap="round" stroke-linejoin="round"/>
<path d="M28.1699 4.49023H32.9199" stroke="white" stroke-width="2" stroke-miterlimit="10" stroke-linecap="round" stroke-linejoin="round"/>
<path d="M28.1699 57.02H32.9199" stroke="white" stroke-width="2" stroke-miterlimit="10" stroke-linecap="round" stroke-linejoin="round"/>
<path d="M30.5605 34.7997C32.7917 34.7997 34.6005 32.991 34.6005 30.7597C34.6005 28.5285 32.7917 26.7197 30.5605 26.7197C28.3293 26.7197 26.5205 28.5285 26.5205 30.7597C26.5205 32.991 28.3293 34.7997 30.5605 34.7997Z" stroke="#F7941D" stroke-miterlimit="10"/>
<path d="M38.62 34.2698L36.93 33.0498C36.98 32.8898 37.04 32.7298 37.08 32.5698C37.26 31.8698 37.34 31.1698 37.3 30.4898L39.25 29.7998C39.6 29.6698 39.79 29.2798 39.67 28.9298L38.84 26.5798C38.71 26.2298 38.32 26.0398 37.97 26.1598L36.06 26.8398C35.37 25.8498 34.42 25.0498 33.28 24.5198L33.51 22.7198C33.56 22.3498 33.29 21.9998 32.92 21.9598L30.45 21.6398C30.08 21.5898 29.73 21.8598 29.69 22.2298L29.47 23.9498C28.27 24.1098 27.14 24.5998 26.19 25.3298L24.72 24.2698C24.41 24.0498 23.99 24.1198 23.77 24.4298L22.31 26.4598C22.09 26.7698 22.16 27.1898 22.47 27.4098L23.91 28.4498C23.84 28.6398 23.77 28.8398 23.72 29.0398C23.52 29.7998 23.46 30.5598 23.51 31.2898L21.83 31.8898C21.48 32.0198 21.29 32.4098 21.41 32.7598L22.24 35.1098C22.37 35.4598 22.76 35.6498 23.11 35.5298L24.84 34.9198C25.57 35.9098 26.57 36.7098 27.76 37.1998L27.55 38.8098C27.5 39.1798 27.77 39.5298 28.14 39.5698L30.61 39.8898C30.98 39.9398 31.33 39.6698 31.37 39.2998L31.59 37.6198C32.73 37.4198 33.79 36.9298 34.69 36.2198L36.36 37.4198C36.67 37.6398 37.09 37.5698 37.31 37.2598L38.77 35.2298C39 34.9098 38.93 34.4898 38.62 34.2698Z" stroke="white" stroke-width="2" stroke-miterlimit="10" stroke-linecap="round" stroke-linejoin="round"/>
<path d="M50.1602 49.3701H53.9602" stroke="white" stroke-width="2" stroke-miterlimit="10" stroke-linecap="round" stroke-linejoin="round"/>
<path d="M54.9505 45.3604H57.1905C58.7905 45.3604 60.0805 46.6604 60.0805 48.2504V50.4904C60.0805 52.0904 58.7805 53.3804 57.1905 53.3804H54.9505C53.3505 53.3804 52.0605 52.0804 52.0605 50.4904V48.2504C52.0605 46.6504 53.3505 45.3604 54.9505 45.3604Z" fill="#F7941D" stroke="white" stroke-width="2" stroke-miterlimit="10"/>
<path d="M50.1602 30.75H53.9602" stroke="white" stroke-width="2" stroke-miterlimit="10" stroke-linecap="round" stroke-linejoin="round"/>
<path d="M54.9505 26.7402H57.1905C58.7905 26.7402 60.0805 28.0402 60.0805 29.6302V31.8702C60.0805 33.4702 58.7805 34.7602 57.1905 34.7602H54.9505C53.3505 34.7602 52.0605 33.4602 52.0605 31.8702V29.6302C52.0605 28.0302 53.3505 26.7402 54.9505 26.7402Z" fill="#F7941D" stroke="white" stroke-width="2" stroke-miterlimit="10"/>
<path d="M50.1602 12.1299H53.9602" stroke="white" stroke-width="2" stroke-miterlimit="10" stroke-linecap="round" stroke-linejoin="round"/>
<path d="M54.9505 8.12012H57.1905C58.7905 8.12012 60.0805 9.42012 60.0805 11.0101V13.2501C60.0805 14.8501 58.7805 16.1401 57.1905 16.1401H54.9505C53.3505 16.1401 52.0605 14.8401 52.0605 13.2501V11.0101C52.0605 9.41012 53.3505 8.12012 54.9505 8.12012Z" fill="#F7941D" stroke="white" stroke-width="2" stroke-miterlimit="10"/>
<path d="M10.9299 12.1299H7.12988" stroke="white" stroke-width="2" stroke-miterlimit="10" stroke-linecap="round" stroke-linejoin="round"/>
<path d="M6.13977 16.1499H3.89977C2.29977 16.1499 1.00977 14.8499 1.00977 13.2599V11.0199C1.00977 9.41988 2.30977 8.12988 3.89977 8.12988H6.13977C7.73977 8.12988 9.02977 9.42988 9.02977 11.0199V13.2599C9.02977 14.8499 7.73977 16.1499 6.13977 16.1499Z" fill="#F7941D" stroke="white" stroke-width="2" stroke-miterlimit="10"/>
<path d="M10.9299 30.75H7.12988" stroke="white" stroke-width="2" stroke-miterlimit="10" stroke-linecap="round" stroke-linejoin="round"/>
<path d="M6.14 34.77H3.89C2.29 34.77 1 33.47 1 31.88V29.64C1 28.04 2.3 26.75 3.89 26.75H6.13C7.73 26.75 9.02 28.05 9.02 29.64V31.88C9.03 33.47 7.74 34.77 6.14 34.77Z" fill="#F7941D" stroke="white" stroke-width="2" stroke-miterlimit="10"/>
<path d="M10.9299 49.3701H7.12988" stroke="white" stroke-width="2" stroke-miterlimit="10" stroke-linecap="round" stroke-linejoin="round"/>
<path d="M6.14 53.3901H3.89C2.29 53.3901 1 52.0901 1 50.5001V48.2601C1 46.6601 2.3 45.3701 3.89 45.3701H6.13C7.73 45.3701 9.02 46.6701 9.02 48.2601V50.5001C9.03 52.0901 7.74 53.3901 6.14 53.3901Z" fill="#F7941D" stroke="white" stroke-width="2" stroke-miterlimit="10"/>
<path d="M26.6297 13.13H26.4297C25.9797 13.13 25.5897 13.09 25.2497 13C24.9097 12.91 24.6497 12.8 24.4597 12.67C24.2697 12.54 24.1197 12.39 23.9997 12.21C23.8797 12.03 23.8097 11.87 23.7697 11.71C23.7297 11.55 23.7197 11.4 23.7197 11.24V11.09C23.7197 10.92 23.7397 10.76 23.7697 10.61C23.7997 10.46 23.8797 10.3 23.9897 10.12C24.0997 9.93996 24.2497 9.78996 24.4397 9.65996C24.6297 9.52996 24.8897 9.42996 25.2297 9.33996C25.5697 9.24996 25.9697 9.20996 26.4297 9.20996H26.6297C26.9497 9.20996 27.2397 9.22996 27.5097 9.26996C27.7797 9.30996 27.9997 9.35996 28.1797 9.42996C28.3597 9.48996 28.5197 9.56996 28.6597 9.65996C28.7997 9.74996 28.9097 9.83996 28.9897 9.92996C29.0697 10.02 29.1297 10.12 29.1797 10.22C29.2297 10.32 29.2597 10.41 29.2797 10.5C29.2997 10.58 29.2997 10.66 29.2997 10.74V10.81H27.7797C27.6597 10.43 27.2397 10.23 26.5197 10.23C25.6697 10.23 25.2397 10.52 25.2397 11.11V11.17C25.2397 11.28 25.2597 11.39 25.2997 11.49C25.3397 11.59 25.3997 11.69 25.4997 11.79C25.5897 11.89 25.7197 11.96 25.8997 12.02C26.0797 12.08 26.2897 12.11 26.5297 12.11C26.7397 12.11 26.9297 12.09 27.0897 12.05C27.2497 12.01 27.3697 11.97 27.4597 11.92C27.5397 11.87 27.6097 11.81 27.6697 11.74C27.7197 11.67 27.7597 11.62 27.7697 11.59C27.7797 11.56 27.7897 11.53 27.7997 11.49H29.3097V11.57C29.3097 11.68 29.2897 11.8 29.2597 11.92C29.2297 12.04 29.1497 12.18 29.0297 12.32C28.9097 12.47 28.7597 12.6 28.5797 12.72C28.3997 12.83 28.1397 12.93 27.7997 13.01C27.4597 13.09 27.0697 13.13 26.6297 13.13Z" fill="white"/>
<path d="M29.6494 9.29004H31.2894L33.5094 11.43V9.29004H34.9594V13.05H33.4994L31.0994 10.77V13.05H29.6494V9.29004Z" fill="white"/>
</svg>
