<svg width="68" height="56" viewBox="0 0 68 56" fill="none" xmlns="http://www.w3.org/2000/svg">
<g clip-path="url(#clip0_4255_13477)">
<path d="M52.17 17.8H1" stroke="white" stroke-width="2" stroke-miterlimit="10" stroke-linecap="round" stroke-linejoin="round"/>
<path d="M9.95 12.7501C11.3031 12.7501 12.4 11.6532 12.4 10.3001C12.4 8.947 11.3031 7.8501 9.95 7.8501C8.5969 7.8501 7.5 8.947 7.5 10.3001C7.5 11.6532 8.5969 12.7501 9.95 12.7501Z" fill="white"/>
<path d="M18.3797 12.7501C19.7328 12.7501 20.8297 11.6532 20.8297 10.3001C20.8297 8.947 19.7328 7.8501 18.3797 7.8501C17.0266 7.8501 15.9297 8.947 15.9297 10.3001C15.9297 11.6532 17.0266 12.7501 18.3797 12.7501Z" fill="white"/>
<path d="M26.7996 12.7501C28.1527 12.7501 29.2496 11.6532 29.2496 10.3001C29.2496 8.947 28.1527 7.8501 26.7996 7.8501C25.4465 7.8501 24.3496 8.947 24.3496 10.3001C24.3496 11.6532 25.4465 12.7501 26.7996 12.7501Z" fill="white"/>
<path d="M14.0198 36.1301H12.1298L10.5498 32.0701H12.2698L13.1898 34.7501L13.9998 32.0701H15.7498L16.5698 34.7001L17.4598 32.0701H19.0498L17.4698 36.1301H15.6798L14.8298 33.5701L14.0198 36.1301Z" fill="#F7941D"/>
<path d="M22.4397 36.1301H20.5497L18.9697 32.0701H20.6897L21.6097 34.7501L22.4197 32.0701H24.1697L24.9997 34.7101L25.8897 32.0801H27.4797L25.8997 36.1401H24.1097L23.2597 33.5801L22.4397 36.1301Z" fill="#F7941D"/>
<path d="M30.8694 36.1301H28.9794L27.3994 32.0701H29.1194L30.0394 34.7501L30.8494 32.0701H32.5994L33.4194 34.7001L34.3094 32.0701H35.8994L34.3194 36.1301H32.5294L31.6794 33.5701L30.8694 36.1301Z" fill="#F7941D"/>
<path d="M39.4198 34.9902V36.1302H37.7598V34.9902H39.4198Z" fill="white"/>
<path d="M43.5602 36.2102H43.3302C42.8202 36.2102 42.3702 36.1602 41.9802 36.0602C41.5902 35.9602 41.2902 35.8302 41.0802 35.6802C40.8602 35.5302 40.6902 35.3502 40.5602 35.1402C40.4302 34.9302 40.3402 34.7402 40.3002 34.5602C40.2602 34.3802 40.2402 34.2002 40.2402 34.0102V33.8402C40.2402 33.6402 40.2602 33.4602 40.3002 33.2902C40.3402 33.1202 40.4202 32.9302 40.5502 32.7202C40.6802 32.5102 40.8502 32.3402 41.0602 32.1902C41.2702 32.0402 41.5702 31.9202 41.9602 31.8202C42.3502 31.7202 42.8002 31.6702 43.3302 31.6702H43.5602C43.9202 31.6702 44.2602 31.6902 44.5602 31.7402C44.8602 31.7902 45.1202 31.8502 45.3202 31.9202C45.5302 31.9902 45.7102 32.0802 45.8702 32.1902C46.0302 32.2902 46.1502 32.4002 46.2402 32.5002C46.3302 32.6102 46.4002 32.7202 46.4602 32.8402C46.5202 32.9602 46.5502 33.0702 46.5702 33.1602C46.5902 33.2502 46.6002 33.3502 46.6002 33.4402V33.5202H44.8702C44.7402 33.0702 44.2602 32.8502 43.4302 32.8502C42.4602 32.8502 41.9702 33.1902 41.9702 33.8702V33.9402C41.9702 34.0702 41.9902 34.1902 42.0402 34.3102C42.0902 34.4302 42.1602 34.5402 42.2602 34.6602C42.3602 34.7702 42.5202 34.8602 42.7202 34.9302C42.9202 35.0002 43.1602 35.0302 43.4402 35.0302C43.6802 35.0302 43.9002 35.0102 44.0802 34.9602C44.2602 34.9202 44.4002 34.8702 44.5002 34.8102C44.5902 34.7602 44.6702 34.6902 44.7302 34.6002C44.7902 34.5102 44.8302 34.4602 44.8402 34.4202C44.8502 34.3802 44.8602 34.3502 44.8802 34.3002H46.6102V34.3902C46.6102 34.5202 46.5902 34.6602 46.5502 34.8002C46.5102 34.9402 46.4202 35.1002 46.2902 35.2702C46.1602 35.4402 45.9902 35.6002 45.7802 35.7302C45.5702 35.8602 45.2802 35.9702 44.8902 36.0602C44.5102 36.1702 44.0602 36.2102 43.5602 36.2102Z" fill="white"/>
<path d="M47 31.7603H48.87L51.41 34.2403V31.7603H53.07V36.1303H51.4L48.66 33.4803V36.1303H47V31.7603Z" fill="white"/>
<path d="M59.4 54.25H8.1C4.18 54.25 1 51.07 1 47.15V8.1C1 4.18 4.18 1 8.1 1H59.4C63.32 1 66.5 4.18 66.5 8.1V47.14C66.5 51.07 63.32 54.25 59.4 54.25Z" stroke="white" stroke-width="2" stroke-miterlimit="10" stroke-linecap="round"/>
</g>
<defs>
<clipPath id="clip0_4255_13477">
<rect width="67.5" height="55.25" fill="white"/>
</clipPath>
</defs>
</svg>
