<svg width="51" height="28" viewBox="0 0 51 28" fill="none" xmlns="http://www.w3.org/2000/svg">
<g clip-path="url(#clip0_3255_12486)">
<path d="M30.67 0L12.23 21.48L19.52 27.77L38.17 5.12L30.67 0Z" fill="#46BCC3"/>
<path d="M44.1802 12.0799C44.1802 12.1699 44.1802 12.2699 44.1802 12.3599C44.1802 15.5799 44.1802 18.8099 44.1802 22.0299C44.1802 22.3399 44.1802 22.3399 43.8602 22.3399C43.2602 22.3399 42.6602 22.3399 42.0702 22.3399C41.7602 22.3399 41.7502 22.3399 41.7502 22.0199C41.7502 18.6699 41.7502 15.3199 41.7502 11.9699C41.7502 9.82992 41.7502 7.68992 41.7402 5.55992C41.7402 5.31992 41.8102 5.23992 42.0502 5.24992C42.6602 5.25992 43.2602 5.24992 43.8702 5.22992C44.0302 5.22992 44.1002 5.28992 44.1502 5.41992C44.7202 7.03992 45.3002 8.64992 45.8802 10.2699C46.3402 11.5599 46.8102 12.8599 47.2802 14.1499C47.4102 14.5199 47.5402 14.8799 47.6802 15.2499C47.6902 15.2899 47.7202 15.3199 47.7902 15.3499C47.7902 15.2399 47.7902 15.1199 47.7902 15.0099C47.7902 11.8399 47.7902 8.67992 47.7902 5.50992C47.7902 5.30992 47.8502 5.22992 48.0602 5.22992C48.6802 5.23992 49.3002 5.23992 49.9302 5.22992C50.1702 5.21992 50.2402 5.28992 50.2402 5.53992C50.2302 7.26992 50.2302 8.99992 50.2302 10.7299C50.2302 14.4999 50.2302 18.2799 50.2402 22.0499C50.2402 22.2899 50.1802 22.3599 49.9302 22.3599C49.3402 22.3399 48.7502 22.3499 48.1602 22.3599C48.0002 22.3599 47.9102 22.2999 47.8602 22.1499C47.4302 20.9399 47.0002 19.7199 46.5602 18.5099C46.0702 17.1299 45.5702 15.7599 45.0802 14.3799C44.8302 13.6899 44.5902 12.9999 44.3402 12.3099C44.3102 12.2299 44.2702 12.1499 44.2402 12.0699C44.2202 12.0799 44.2002 12.0799 44.1802 12.0799Z" fill="white"/>
<path d="M17.6 13.7199C17.6 15.2299 17.61 16.7299 17.6 18.2399C17.58 20.1099 16.58 21.4999 14.95 22.0899C12.94 22.8099 10.77 21.9599 9.84002 20.0799C9.57002 19.5299 9.45002 18.9299 9.45002 18.3199C9.44002 15.2399 9.43002 12.1599 9.45002 9.07993C9.47002 7.33993 10.4 5.89993 12.16 5.30993C14.18 4.62993 16.53 5.49993 17.32 7.64993C17.5 8.11993 17.57 8.65993 17.58 9.16993C17.62 10.6899 17.6 12.2099 17.6 13.7199ZM11.88 14.0499C11.94 14.0099 11.97 13.9999 11.98 13.9799C12.8 12.9699 13.61 11.9599 14.44 10.9699C14.88 10.4499 15.32 9.93993 15.15 9.17993C15.14 9.15993 15.15 9.12993 15.15 9.10993C15.1 8.64993 14.97 8.22993 14.58 7.94993C13.99 7.52993 13.36 7.47993 12.71 7.78993C12.08 8.08993 11.88 8.63993 11.87 9.27993C11.86 10.7899 11.87 12.2899 11.87 13.7999C11.86 13.8599 11.87 13.9299 11.88 14.0499ZM15.14 13.7999C15.11 13.7799 15.08 13.7699 15.05 13.7499C15.03 13.7899 15.01 13.8399 14.98 13.8799C14.03 15.0599 13.08 16.2299 12.13 17.4099C12.03 17.5299 11.88 17.6699 11.88 17.7999C11.87 18.1799 11.86 18.5699 11.96 18.9299C12.22 19.8599 13.27 20.1499 14.08 19.8799C14.78 19.6499 15.14 19.0999 15.14 18.3199C15.14 16.8899 15.14 15.4699 15.14 14.0399C15.14 13.9599 15.14 13.8799 15.14 13.7999Z" fill="white"/>
<path d="M39.8701 13.92C39.8701 15.31 39.8601 16.7 39.8701 18.08C39.8801 19.24 39.5701 20.27 38.7501 21.11C38.1301 21.74 37.3701 22.09 36.5101 22.24C35.2801 22.45 34.1701 22.16 33.1901 21.39C32.4301 20.79 31.9601 20 31.8201 19.04C31.7801 18.73 31.7501 18.41 31.7401 18.09C31.7301 15.08 31.7201 12.07 31.7401 9.07003C31.7501 7.45003 32.4701 6.22003 33.9401 5.49003C35.8101 4.56003 38.1501 5.17003 39.2401 6.89003C39.6901 7.60003 39.8601 8.38003 39.8601 9.21003C39.8701 10.78 39.8801 12.35 39.8701 13.92C39.8801 13.92 39.8801 13.92 39.8701 13.92ZM37.4501 13.89C37.4501 12.4 37.4601 10.91 37.4501 9.42003C37.4401 8.52003 37.1101 7.96003 36.2001 7.72003C35.4101 7.51003 34.4801 7.97003 34.2501 8.75003C34.1801 8.98003 34.1601 9.24003 34.1601 9.48003C34.1501 12.43 34.1501 15.38 34.1601 18.33C34.1601 18.57 34.1901 18.81 34.2701 19.03C34.4901 19.71 35.0201 20 35.6901 20.05C36.4401 20.11 37.2401 19.7 37.3901 18.87C37.4301 18.65 37.4601 18.43 37.4601 18.21C37.4601 16.78 37.4501 15.33 37.4501 13.89Z" fill="white"/>
<path d="M0 13.6999C0 10.9399 0 8.17992 0 5.41992C0 5.10992 0 5.10992 0.32 5.10992C1.62 5.10992 2.92 5.07992 4.22 5.11992C5.95 5.17992 7.28 6.28992 7.67 7.92992C7.91 8.95992 7.94 10.0099 7.87 11.0699C7.83 11.6999 7.79 12.3299 7.56 12.9199C7.08 14.1499 6.26 15.0299 4.94 15.2999C4.26 15.4399 3.55 15.3999 2.85 15.4199C2.4 15.4399 2.45 15.3699 2.45 15.8099C2.45 17.8799 2.45 19.9599 2.45 22.0299C2.45 22.3499 2.45 22.3499 2.14 22.3499C1.53 22.3499 0.91 22.3399 0.3 22.3499C0.05 22.3699 0 22.2799 0 22.0499C0.01 19.2699 0 16.4899 0 13.6999ZM2.45 10.2599C2.45 11.1399 2.46 12.0099 2.45 12.8899C2.45 13.0699 2.5 13.1499 2.69 13.1399C3.15 13.1199 3.62 13.1499 4.08 13.1199C4.85 13.0599 5.41 12.6199 5.53 11.7599C5.66 10.7599 5.65 9.75992 5.52 8.75992C5.42 7.99992 4.87 7.45992 4.13 7.41992C3.66 7.38992 3.19 7.39992 2.72 7.37992C2.51 7.36992 2.44 7.43992 2.44 7.64992C2.45 8.51992 2.45 9.38992 2.45 10.2599Z" fill="white"/>
<path d="M25.8602 19.8399C25.9802 19.8399 26.0702 19.8399 26.1602 19.8399C27.5202 19.8399 28.8702 19.8399 30.2302 19.8399C30.4302 19.8399 30.4902 19.8999 30.4902 20.0999C30.4802 20.7899 30.4802 21.4699 30.4902 22.1599C30.4902 22.3299 30.4502 22.3999 30.2702 22.3999C28.0202 22.3899 25.7702 22.3899 23.5202 22.3999C23.3502 22.3999 23.3002 22.3399 23.3002 22.1799C23.3102 21.5699 23.2702 20.9599 23.3202 20.3599C23.3502 20.0099 23.5002 19.6699 23.6202 19.3399C24.2902 17.4499 24.9602 15.5699 25.6402 13.6799C26.2202 12.0599 26.8002 10.4499 27.3802 8.83991C27.5402 8.39991 27.6902 7.95991 27.8602 7.47991C27.7402 7.46991 27.6502 7.44991 27.5602 7.44991C26.3202 7.44991 25.0902 7.44991 23.8502 7.44991C23.5402 7.44991 23.5402 7.44991 23.5402 7.12991C23.5402 6.55991 23.5502 5.99991 23.5402 5.42991C23.5402 5.22991 23.6102 5.15991 23.8002 5.15991C25.9502 5.15991 28.1102 5.15991 30.2602 5.15991C30.4502 5.15991 30.5102 5.21991 30.5102 5.40991C30.5002 5.93991 30.5202 6.45991 30.5002 6.98991C30.4902 7.20991 30.4002 7.43991 30.3202 7.64991C29.6202 9.55991 28.9102 11.4699 28.2102 13.3799C27.4502 15.4699 26.6902 17.5599 25.9302 19.6399C25.8902 19.6899 25.8802 19.7499 25.8602 19.8399Z" fill="white"/>
<path d="M22.0301 13.8101C22.0301 16.5501 22.0301 19.3001 22.0301 22.0401C22.0301 22.3801 22.0301 22.3801 21.6801 22.3801C21.0801 22.3801 20.4801 22.3701 19.8901 22.3901C19.6601 22.4001 19.5801 22.3401 19.5801 22.0901C19.5901 16.6701 19.5901 11.2401 19.5901 5.82011C19.5901 5.27011 19.5901 5.27011 20.1501 5.27011C20.6801 5.27011 21.2201 5.28011 21.7501 5.27011C21.9801 5.26011 22.0501 5.34011 22.0501 5.57011C22.0201 8.31011 22.0301 11.0601 22.0301 13.8101Z" fill="white"/>
</g>
<defs>
<clipPath id="clip0_3255_12486">
<rect width="50.23" height="27.77" fill="white"/>
</clipPath>
</defs>
</svg>
