<svg width="142" height="130" viewBox="0 0 142 130" fill="none" xmlns="http://www.w3.org/2000/svg">
<path d="M96.5836 52.445V28.2255C96.5836 26.1591 95.7297 24.1876 94.2194 22.7862L75.8198 5.61331L22.4239 23.4988C19.3955 24.5122 17.3555 27.3546 17.3555 30.5533V127.344" stroke="#F09123" stroke-width="3" stroke-miterlimit="10" stroke-linecap="round"/>
<path d="M39.33 17.6715V6.4683C39.33 3.99014 37.3216 1.97119 34.8388 1.97119C32.3639 1.97119 30.3477 3.98222 30.3477 6.4683V20.8385" stroke="#F09123" stroke-width="3" stroke-miterlimit="10" stroke-linecap="round"/>
<path d="M75.8203 5.61331V128.468" stroke="#F09123" stroke-width="3" stroke-miterlimit="10" stroke-linecap="round"/>
<path d="M30.3555 35.3036L75.8207 20.1496" stroke="#F09123" stroke-width="3" stroke-miterlimit="10" stroke-linecap="round"/>
<path d="M30.3555 54.5125L75.8207 39.3664" stroke="#F09123" stroke-width="3" stroke-miterlimit="10" stroke-linecap="round"/>
<path d="M60.623 63.6421L75.8203 58.575" stroke="#F09123" stroke-width="3" stroke-miterlimit="10" stroke-linecap="round"/>
<path d="M30.3555 73.729L53.0881 66.152" stroke="#F09123" stroke-width="3" stroke-miterlimit="10" stroke-linecap="round"/>
<path d="M30.3555 92.9455L75.8207 77.7915" stroke="#F09123" stroke-width="3" stroke-miterlimit="10" stroke-linecap="round"/>
<path d="M31.0742 128.468V111.889C31.0742 110.424 32.0468 109.126 33.4542 108.722L50.0668 103.892C52.178 103.283 54.2813 104.866 54.2813 107.059V128.468" stroke="#F09123" stroke-width="3" stroke-miterlimit="10" stroke-linecap="round"/>
<path d="M1.97656 128.468H129.88" stroke="#F09123" stroke-width="3" stroke-miterlimit="10" stroke-linecap="round"/>
<path d="M1.97656 128.468V113.172C1.97656 106.228 7.59844 100.599 14.5329 100.599H17.3478" stroke="#F09123" stroke-width="3" stroke-miterlimit="10" stroke-linecap="round"/>
<path d="M99.3549 87.419L92.3184 94.5402L86.1718 87.419" stroke="#F09123" stroke-width="3" stroke-linecap="round" stroke-linejoin="round"/>
</svg>
