<svg width="20" height="18" viewBox="0 0 20 18" fill="none" xmlns="http://www.w3.org/2000/svg">
<path d="M0 17.3412V12.9969C0 11.5368 0.215418 10.0169 0.646255 8.43721C1.10103 6.83355 1.74728 5.30168 2.58502 3.84163C3.44669 2.35763 4.47591 1.07709 5.67268 0L9.22708 2.62092C8.26966 4.20066 7.53964 5.82826 7.03699 7.50373C6.53435 9.15527 6.28303 10.9504 6.28303 12.8892V17.3412H0ZM10.2324 17.3412V12.9969C10.2324 11.5368 10.4478 10.0169 10.8786 8.43721C11.3334 6.83355 11.9796 5.30168 12.8174 3.84163C13.6791 2.35763 14.7083 1.07709 15.905 0L19.4594 2.62092C18.502 4.20066 17.772 5.82826 17.2694 7.50373C16.7667 9.15527 16.5154 10.9504 16.5154 12.8892V17.3412H10.2324Z" fill="#F09123"/>
</svg>
