<svg width="61" height="62" viewBox="0 0 61 62" fill="none" xmlns="http://www.w3.org/2000/svg">
<g clip-path="url(#clip0_4240_13323)">
<path d="M38.1003 33.03V9.05004C38.1003 5.73004 35.4104 3.04004 32.0904 3.04004H18.8604" stroke="white" stroke-width="2" stroke-miterlimit="10" stroke-linecap="round" stroke-linejoin="round"/>
<path d="M1 25.47V49.11C1 52.43 3.69 55.12 7.01 55.12H23.5" stroke="white" stroke-width="2" stroke-miterlimit="10" stroke-linecap="round" stroke-linejoin="round"/>
<path d="M11.3096 28.25H30.9696" stroke="white" stroke-width="2" stroke-miterlimit="10" stroke-linecap="round" stroke-linejoin="round"/>
<path d="M16.0303 32.76H30.9703" stroke="white" stroke-width="2" stroke-miterlimit="10" stroke-linecap="round" stroke-linejoin="round"/>
<path d="M13.3605 13.7V24.3L8.91051 22.46L4.52051 24.3V14.01" stroke="#F7941D" stroke-width="2" stroke-miterlimit="10" stroke-linecap="round" stroke-linejoin="round"/>
<path d="M8.99043 15.1C12.884 15.1 16.0404 11.9436 16.0404 8.05C16.0404 4.15639 12.884 1 8.99043 1C5.09682 1 1.94043 4.15639 1.94043 8.05C1.94043 11.9436 5.09682 15.1 8.99043 15.1Z" stroke="white" stroke-width="2" stroke-miterlimit="10" stroke-linecap="round" stroke-linejoin="round"/>
<path d="M5.34961 40.68C8.95961 37.83 9.31961 36.12 8.83961 35.46C8.56961 35.09 7.97961 34.89 7.61961 35.09C6.49961 35.7 6.07961 40.8 8.28961 41.71C9.16961 42.07 10.2996 41.33 10.6796 40.54C11.0196 39.84 10.7996 38.45 9.95961 38.19C8.85961 37.84 8.54961 40.41 8.99961 41C9.43961 41.58 10.2296 42 10.9396 42.13C11.8996 42.3 12.8896 41.36 13.1496 40.46C13.5096 39.24 12.4996 38.27 12.9096 37.84C13.2796 37.47 14.4096 37.85 15.0696 38.5C15.7096 39.13 15.9596 40.09 15.7596 40.87C15.5296 41.74 14.7696 42.22 14.7696 42.21C14.7696 42.21 16.2596 41.25 16.9096 39.52C17.5596 37.78 17.1196 35.89 16.8796 35.88C16.6296 35.88 16.2996 37.94 15.8596 45.44" stroke="white" stroke-miterlimit="10" stroke-linecap="round" stroke-linejoin="round"/>
<path d="M27.9092 44.95V58.97C27.9092 58.97 37.1292 61.86 50.2392 58.97V49.08" stroke="#F7941D" stroke-width="2" stroke-miterlimit="10" stroke-linecap="round" stroke-linejoin="round"/>
<path d="M21.1396 42.84L39.0597 36.75L57.2197 42.84L39.5797 48.58L21.1396 42.84Z" stroke="white" stroke-width="2" stroke-miterlimit="10" stroke-linecap="round" stroke-linejoin="round"/>
<path d="M57.2197 50.9701V42.8401" stroke="white" stroke-width="2" stroke-miterlimit="10" stroke-linecap="round" stroke-linejoin="round"/>
<path d="M55.5195 50.9701L57.2195 47.5701L59.7795 50.9701" stroke="white" stroke-width="2" stroke-miterlimit="10" stroke-linecap="round" stroke-linejoin="round"/>
</g>
<defs>
<clipPath id="clip0_4240_13323">
<rect width="60.78" height="61.26" fill="white"/>
</clipPath>
</defs>
</svg>
