<svg width="60" height="65" viewBox="0 0 60 65" fill="none" xmlns="http://www.w3.org/2000/svg">
<g clip-path="url(#clip0_2181_13319)">
<path d="M37.3931 56.703H6.77156C3.65736 56.703 1.13159 54.1772 1.13159 51.063V6.77156C1.13159 3.65736 3.65736 1.13159 6.77156 1.13159H51.063C54.1772 1.13159 56.703 3.65736 56.703 6.77156V31.5856" stroke="white" stroke-width="2" stroke-linecap="round" stroke-linejoin="round"/>
<path d="M11.9318 11.8457H47.6365" stroke="white" stroke-width="2" stroke-linecap="round" stroke-linejoin="round"/>
<path d="M11.9318 23.3521H47.6365" stroke="white" stroke-width="2" stroke-linecap="round" stroke-linejoin="round"/>
<path d="M11.9318 34.8584H35.75" stroke="white" stroke-width="2" stroke-linecap="round" stroke-linejoin="round"/>
<path d="M11.9816 45.9888H28.9151" stroke="white" stroke-width="2" stroke-linecap="round" stroke-linejoin="round"/>
<path d="M52.9823 53.6838V63.8684L48.0846 60.6999L43.1915 63.8684V54.2949" stroke="white" stroke-width="2" stroke-linecap="round" stroke-linejoin="round"/>
<path d="M45.3234 35.1707L46.9575 36.411C47.6998 36.9768 48.7228 36.9949 49.4832 36.4562L51.1625 35.2748C52.6834 34.2021 54.752 35.4468 54.5212 37.2936L54.2632 39.3305C54.1455 40.2539 54.6434 41.1502 55.4898 41.544L57.3547 42.404C59.0431 43.1826 59.0024 45.5997 57.2869 46.3194L55.3948 47.116C54.5348 47.4782 54.0097 48.3518 54.0912 49.2842L54.2768 51.3302C54.4442 53.1815 52.3304 54.3539 50.8502 53.2268L49.2162 51.9865C48.4738 51.4207 47.4509 51.4026 46.6904 51.9413L45.0111 53.1227C43.4902 54.1954 41.4216 52.9507 41.6525 51.1039L41.9105 49.067C42.0281 48.1436 41.5302 47.2473 40.6838 46.8535L38.8189 45.9935C37.1305 45.2149 37.1713 42.7978 38.8868 42.0781L40.7788 41.2814C41.6389 40.9193 42.1639 40.0457 42.0825 39.1133L41.8969 37.0673C41.7294 35.216 43.8433 34.0436 45.3234 35.1707Z" stroke="white" stroke-width="2" stroke-linecap="round" stroke-linejoin="round"/>
</g>
<defs>
<clipPath id="clip0_2181_13319">
<rect width="59.7267" height="65" fill="white"/>
</clipPath>
</defs>
</svg>
