<svg width="67" height="63" viewBox="0 0 67 63" fill="none" xmlns="http://www.w3.org/2000/svg">
<g clip-path="url(#clip0_4480_13465)">
<path d="M34.75 19.3V6.47C34.75 3.45 32.3 1 29.28 1H10.38L1 9.76V42.92C1 45.94 3.45 48.39 6.47 48.39H19.69" stroke="white" stroke-width="2" stroke-miterlimit="10" stroke-linecap="round" stroke-linejoin="round"/>
<path d="M0.939941 10.66H10.3799V1.26001" stroke="white" stroke-width="2" stroke-miterlimit="10"/>
<path d="M7.82986 23.91C7.98986 24.08 8.22986 24.17 8.48986 24.17C9.41986 24.18 13.1199 24.19 16.7399 24.19C20.0999 24.19 23.3799 24.19 24.2999 24.17C24.5899 24.17 24.8199 24.08 24.9799 23.92C25.1199 23.77 25.1899 23.56 25.1799 23.31C25.1599 22.82 24.8499 22.57 24.2599 22.56C23.5999 22.55 22.9399 22.55 22.2799 22.56H21.5199H20.2599C16.9799 22.56 9.28986 22.55 8.51986 22.56C7.98986 22.57 7.61986 22.88 7.60986 23.34C7.60986 23.55 7.68986 23.75 7.82986 23.91Z" fill="#F7941D"/>
<path d="M21.7098 18.12C21.3298 18.11 14.8998 18.11 11.8098 18.12C10.8198 18.12 10.1298 18.12 10.0098 18.12H9.5398C9.1998 18.12 8.8498 18.11 8.5098 18.13C7.9998 18.14 7.6998 18.41 7.6898 18.88C7.6798 19.12 7.7598 19.34 7.8998 19.49C8.0298 19.63 8.2198 19.71 8.4398 19.72C9.5398 19.76 20.7398 19.75 21.7598 19.72C21.9898 19.71 22.1998 19.61 22.3498 19.43C22.4798 19.27 22.5498 19.07 22.5198 18.89C22.4498 18.39 22.1798 18.13 21.7098 18.12Z" fill="#F7941D"/>
<path d="M58.9002 34.9401V41.4701C58.9002 41.8101 58.8602 42.1401 58.7702 42.4601L58.3302 44.1201C58.1302 44.8701 58.0502 45.6501 58.0902 46.4201L58.8902 61.5901H25.6602V28.3501H47.1802" stroke="white" stroke-width="2" stroke-miterlimit="10" stroke-linecap="round" stroke-linejoin="round"/>
<path d="M43.4201 38.35L45.2501 28.99H39.2001L37.3701 38.35L39.8701 38C40.1701 37.96 40.4801 37.96 40.7801 38L43.4201 38.35Z" stroke="white" stroke-width="2" stroke-miterlimit="10" stroke-linecap="round" stroke-linejoin="round"/>
<path d="M48.4697 32.3L56.8697 16L65.2697 32.3H48.4697Z" stroke="#F7941D" stroke-width="2" stroke-miterlimit="10" stroke-linecap="round" stroke-linejoin="round"/>
<path d="M57.0302 27.4101C56.8002 27.4101 56.6102 27.2301 56.6002 27.0101L56.2602 22.3301C56.2402 22.0801 56.4402 21.8601 56.6902 21.8601H57.3702C57.6202 21.8601 57.8202 22.0701 57.8002 22.3301L57.4602 27.0101C57.4402 27.2301 57.2602 27.4101 57.0302 27.4101Z" fill="white"/>
<path d="M56.9702 29.3501C57.2353 29.3501 57.4502 29.1352 57.4502 28.8701C57.4502 28.605 57.2353 28.3901 56.9702 28.3901C56.7051 28.3901 56.4902 28.605 56.4902 28.8701C56.4902 29.1352 56.7051 29.3501 56.9702 29.3501Z" fill="white" stroke="white" stroke-miterlimit="10" stroke-linecap="round" stroke-linejoin="round"/>
</g>
<defs>
<clipPath id="clip0_4480_13465">
<rect width="66.27" height="62.6" fill="white"/>
</clipPath>
</defs>
</svg>
