<svg width="66" height="38" viewBox="0 0 66 38" fill="none" xmlns="http://www.w3.org/2000/svg">
<g clip-path="url(#clip0_4541_13325)">
<path d="M21.9704 31.88H40.3704L44.7604 4.18C45.0204 2.51 43.7304 1 42.0504 1H7.69043" stroke="white" stroke-width="2" stroke-miterlimit="10" stroke-linecap="round" stroke-linejoin="round"/>
<path d="M7.82031 31.8799H11.2303" stroke="white" stroke-width="2" stroke-miterlimit="10" stroke-linecap="round" stroke-linejoin="round"/>
<path d="M5.17969 6.28003H18.3697" stroke="#F7941D" stroke-width="2" stroke-miterlimit="10" stroke-linecap="round" stroke-linejoin="round"/>
<path d="M1 12.1899H16.12" stroke="#F7941D" stroke-width="2" stroke-miterlimit="10" stroke-linecap="round" stroke-linejoin="round"/>
<path d="M14.6398 18.6299H4.7998" stroke="#F7941D" stroke-width="2" stroke-miterlimit="10" stroke-linecap="round" stroke-linejoin="round"/>
<path d="M16.8396 36.4499C19.7556 36.4499 22.1196 34.086 22.1196 31.1699C22.1196 28.2538 19.7556 25.8899 16.8396 25.8899C13.9235 25.8899 11.5596 28.2538 11.5596 31.1699C11.5596 34.086 13.9235 36.4499 16.8396 36.4499Z" stroke="white" stroke-width="2" stroke-miterlimit="10" stroke-linecap="round" stroke-linejoin="round"/>
<path d="M51.2605 36.4499C54.1765 36.4499 56.5405 34.086 56.5405 31.1699C56.5405 28.2538 54.1765 25.8899 51.2605 25.8899C48.3444 25.8899 45.9805 28.2538 45.9805 31.1699C45.9805 34.086 48.3444 36.4499 51.2605 36.4499Z" stroke="white" stroke-width="2" stroke-miterlimit="10" stroke-linecap="round" stroke-linejoin="round"/>
<path d="M56.4596 31.8801H61.0896C62.7996 31.8801 64.1796 30.5001 64.1796 28.7901V18.9001C64.1796 18.5101 64.0896 18.1201 63.9196 17.7701L58.2596 6.08008H44.8096" stroke="white" stroke-width="2" stroke-miterlimit="10" stroke-linecap="round" stroke-linejoin="round"/>
<path d="M40.3701 31.8799H44.9401" stroke="white" stroke-width="2" stroke-miterlimit="10" stroke-linecap="round" stroke-linejoin="round"/>
<path d="M57.7699 19.46H47.1299V10H55.3599L58.6999 18.06C58.9799 18.73 58.4999 19.46 57.7699 19.46Z" stroke="#F7941D" stroke-width="2" stroke-miterlimit="10" stroke-linecap="round" stroke-linejoin="round"/>
</g>
<defs>
<clipPath id="clip0_4541_13325">
<rect width="65.18" height="37.45" fill="white"/>
</clipPath>
</defs>
</svg>
