<svg width="61" height="63" viewBox="0 0 61 63" fill="none" xmlns="http://www.w3.org/2000/svg">
<g clip-path="url(#clip0_4255_13438)">
<path d="M52.87 18.49V61.83H7.79004V18.91" stroke="white" stroke-width="2" stroke-miterlimit="10" stroke-linecap="round" stroke-linejoin="round"/>
<path d="M22.0098 14.9299V21.4099H19.5498V14.9299H22.0098Z" fill="#2F3743"/>
<path d="M27.5401 21.52H27.2001C26.4401 21.52 25.7701 21.44 25.2001 21.29C24.6301 21.14 24.1801 20.95 23.8601 20.73C23.5401 20.51 23.2801 20.24 23.0901 19.93C22.8901 19.62 22.7701 19.34 22.7101 19.08C22.6501 18.82 22.6201 18.55 22.6201 18.26V18.01C22.6201 17.72 22.6501 17.45 22.7001 17.19C22.7501 16.94 22.8801 16.65 23.0701 16.35C23.2601 16.05 23.5201 15.78 23.8301 15.57C24.1501 15.35 24.5901 15.17 25.1701 15.02C25.7501 14.87 26.4201 14.8 27.1901 14.8H27.5301C28.0701 14.8 28.5601 14.83 29.0101 14.9C29.4601 14.97 29.8401 15.06 30.1401 15.17C30.4401 15.28 30.7101 15.41 30.9501 15.57C31.1901 15.72 31.3701 15.88 31.5001 16.03C31.6301 16.19 31.7401 16.35 31.8301 16.53C31.9101 16.71 31.9701 16.87 32.0001 17C32.0301 17.14 32.0401 17.28 32.0401 17.41V17.52H29.4701C29.2701 16.86 28.5601 16.53 27.3401 16.53C25.9001 16.53 25.1701 17.03 25.1701 18.04V18.14C25.1701 18.33 25.2001 18.52 25.2701 18.69C25.3401 18.86 25.4501 19.04 25.6001 19.2C25.7501 19.37 25.9801 19.5 26.2801 19.6C26.5801 19.7 26.9301 19.75 27.3501 19.75C27.7101 19.75 28.0301 19.72 28.3001 19.65C28.5701 19.58 28.7801 19.51 28.9201 19.43C29.0601 19.35 29.1801 19.25 29.2701 19.13C29.3601 19.01 29.4201 18.92 29.4401 18.87C29.4601 18.82 29.4701 18.76 29.4901 18.7H32.0501V18.84C32.0501 19.04 32.0201 19.24 31.9601 19.44C31.9001 19.65 31.7701 19.88 31.5801 20.14C31.3801 20.4 31.1301 20.63 30.8201 20.82C30.5101 21.02 30.0701 21.18 29.5101 21.31C28.9401 21.46 28.2801 21.52 27.5401 21.52Z" fill="#2F3743"/>
<path d="M38.0394 19.3702H35.1194V21.4002H32.6494V14.9202H38.0494C40.0994 14.9202 41.1194 15.6302 41.1194 17.0602V17.2002C41.1094 18.6502 40.0894 19.3702 38.0394 19.3702ZM35.1194 16.5502V17.7602H37.7494C38.2994 17.7602 38.5694 17.5602 38.5694 17.1702V17.1402C38.5694 16.7502 38.2994 16.5502 37.7494 16.5502H35.1194Z" fill="#2F3743"/>
<path d="M11.8599 9.30005L10.5599 10.85L12.1299 12.86H11.2099L9.86988 11.09V12.86H9.12988V9.30005H9.87988V10.65L10.9699 9.30005H11.8599Z" fill="white"/>
<path d="M13.8395 12.8701C12.7995 12.8701 12.0195 12.0901 12.0195 11.0901C12.0195 10.0901 12.7895 9.31006 13.8395 9.31006C14.8895 9.31006 15.6595 10.0901 15.6595 11.0901C15.6595 12.0801 14.8895 12.8701 13.8395 12.8701ZM13.8395 9.98006C13.1995 9.98006 12.7895 10.4701 12.7895 11.0801C12.7895 11.7001 13.1995 12.1801 13.8395 12.1801C14.4795 12.1801 14.8895 11.7001 14.8895 11.0801C14.8995 10.4701 14.4795 9.98006 13.8395 9.98006Z" fill="white"/>
<path d="M16.5594 9.30005L18.0794 11.07L19.5994 9.30005H20.0094V12.87H19.2694V10.68L18.0794 12.08L16.8894 10.68V12.87H16.1494V9.30005H16.5594Z" fill="white"/>
<path d="M21.0797 9.30005L22.5997 11.07L24.1197 9.30005H24.5297V12.87H23.7997V10.68L22.6097 12.08L21.4197 10.68V12.87H20.6797V9.30005H21.0797Z" fill="white"/>
<path d="M27.72 9.30005V9.99005H25.96V10.58H27.31V11.26H25.96V12.19H27.72V12.88H25.21V9.30005H27.72Z" fill="white"/>
<path d="M28.2695 12.87V9.30005H30.0195C30.3195 9.30005 30.5295 9.36005 30.6995 9.47005C30.9895 9.65005 31.1695 9.97005 31.1695 10.37C31.1695 10.76 30.9795 11.08 30.6895 11.27C30.5195 11.38 30.3095 11.44 30.0095 11.44H29.0095V12.88H28.2695V12.87ZM29.9195 10.75C30.0595 10.75 30.1295 10.74 30.1895 10.71C30.3295 10.65 30.4395 10.54 30.4395 10.37C30.4395 10.2 30.3295 10.08 30.1895 10.03C30.1295 10.01 30.0595 9.99005 29.9195 9.99005H29.0195V10.75H29.9195Z" fill="white"/>
<path d="M34.3902 9.30005V12.87H33.6402V11.51C33.3902 11.59 33.1202 11.64 32.8302 11.64C32.3302 11.64 31.9202 11.48 31.6902 11.13C31.5102 10.85 31.4902 10.57 31.4902 10.23V9.30005H32.2302V10.34C32.2302 10.78 32.4802 10.95 32.9202 10.95C33.1802 10.95 33.4202 10.9 33.6302 10.8V9.30005H34.3902Z" fill="white"/>
<path d="M37.5696 9.30005V9.99005H35.8096V10.58H37.1596V11.26H35.8096V12.19H37.5696V12.88H35.0596V9.30005H37.5696Z" fill="white"/>
<path d="M40.63 10.75C40.48 10.27 40.11 9.97004 39.61 9.97004C38.99 9.97004 38.56 10.45 38.56 11.08C38.56 11.67 38.98 12.18 39.61 12.18C40.11 12.18 40.48 11.89 40.63 11.39L41.34 11.61C41.13 12.36 40.42 12.86 39.61 12.86C38.62 12.86 37.79 12.1 37.79 11.08C37.79 10.08 38.58 9.29004 39.61 9.29004C40.4 9.29004 41.09 9.72004 41.33 10.52L40.63 10.75Z" fill="white"/>
<path d="M44.5198 9.30005L43.2198 10.85L44.7898 12.86H43.8698L42.5298 11.09V12.86H41.7998V9.30005H42.5498V10.65L43.6398 9.30005H44.5198Z" fill="white"/>
<path d="M47.3598 12.27H45.7898L45.5698 12.86H44.7998L46.2198 9.30005H46.9598L48.3698 12.86H47.5998L47.3598 12.27ZM46.0398 11.6H47.0998L46.5698 10.17L46.0398 11.6Z" fill="white"/>
<path d="M50.7802 12.8701V11.4301H50.1102L49.2702 12.8701H48.4102L49.3102 11.3601L49.2802 11.3501C49.0902 11.2901 48.9202 11.1701 48.8002 10.9901C48.6802 10.8201 48.6202 10.6101 48.6202 10.3801C48.6202 9.97006 48.8102 9.66006 49.1002 9.48006C49.2702 9.37006 49.4802 9.31006 49.7802 9.31006H51.5202V12.8701H50.7802ZM50.7802 10.7401V9.99006H49.8802C49.7302 9.99006 49.6702 10.0001 49.6102 10.0301C49.4702 10.0901 49.3602 10.2101 49.3602 10.3701C49.3602 10.5401 49.4702 10.6501 49.6102 10.7101C49.6702 10.7401 49.7402 10.7501 49.8802 10.7501H50.7802V10.7401Z" fill="white"/>
<path d="M5.13 0V6.35H3.81V3.93C3.36 4.08 2.88 4.16 2.37 4.16C1.48 4.16 0.75 3.88 0.35 3.25C0.03 2.75 0 2.25 0 1.65V0H1.32V1.85C1.32 2.64 1.76 2.94 2.55 2.94C3.01 2.94 3.44 2.85 3.81 2.68V0H5.13Z" fill="white"/>
<path d="M11.5 0V1.23H9.41V6.35H8.08V1.23H6V0H11.5Z" fill="white"/>
<path d="M14.9702 6.35001C13.1102 6.35001 11.7402 4.96001 11.7402 3.18001C11.7402 1.40001 13.1102 0.0100098 14.9702 0.0100098C16.8302 0.0100098 18.2002 1.40001 18.2002 3.18001C18.2102 4.96001 16.8402 6.35001 14.9702 6.35001ZM14.9702 1.22001C13.8302 1.22001 13.1002 2.08001 13.1002 3.18001C13.1002 4.28001 13.8302 5.13001 14.9702 5.13001C16.1102 5.13001 16.8502 4.28001 16.8502 3.18001C16.8502 2.08001 16.1202 1.22001 14.9702 1.22001Z" fill="white"/>
<path d="M26.9297 0V6.35H25.5997V3.48H22.7497V6.34H21.4297V0H22.7497V2.26H25.5997V0H26.9297Z" fill="white"/>
<path d="M29.0503 0L30.6003 2.92L32.0903 0H33.5603L31.2503 4.32C30.9103 4.97 30.6703 5.36 30.3503 5.7C29.9903 6.08 29.5603 6.35 28.9703 6.35C28.5703 6.35 28.1803 6.22 27.8603 5.98L28.5403 4.86C28.6703 4.96 28.8303 5.02 29.0003 5.02C29.2703 5.02 29.4803 4.86 29.8403 4.28C29.8503 4.26 29.8903 4.2 29.8903 4.2L27.5703 0H29.0503Z" fill="white"/>
<path d="M40.8595 6.35L38.6495 3.19V6.35H37.3295V3.19L35.0995 6.35H33.5195L36.1095 2.77L33.9595 0H35.4995L37.3195 2.41V0H38.6395V2.41L40.4595 0H41.9995L39.8495 2.77L42.4395 6.35H40.8595Z" fill="white"/>
<path d="M48.5203 0V6.35H47.2003V3.48H44.3503V6.34H43.0303V0H44.3503V2.26H47.2003V0H48.5203Z" fill="white"/>
<path d="M52.6402 6.35001C50.7802 6.35001 49.4102 4.96001 49.4102 3.18001C49.4102 1.40001 50.7802 0.0100098 52.6402 0.0100098C54.5002 0.0100098 55.8702 1.40001 55.8702 3.18001C55.8702 4.96001 54.5002 6.35001 52.6402 6.35001ZM52.6402 1.22001C51.5002 1.22001 50.7702 2.08001 50.7702 3.18001C50.7702 4.28001 51.5002 5.13001 52.6402 5.13001C53.7802 5.13001 54.5202 4.28001 54.5202 3.18001C54.5102 2.08001 53.7802 1.22001 52.6402 1.22001Z" fill="white"/>
<path d="M58.0196 4.5C57.9996 3.56 58.3196 3.17 58.7996 2.82C59.1396 2.57 59.5296 2.35 59.5296 1.9C59.5296 1.51 59.1596 1.22 58.6296 1.22C57.9896 1.22 57.7096 1.61 57.6896 2.14H56.3496C56.3996 0.87 57.2396 0 58.6296 0C59.9296 0 60.8496 0.79 60.8496 1.92C60.8496 2.57 60.4896 2.95 60.0496 3.27C59.5496 3.63 59.1896 3.81 59.1796 4.5H58.0196ZM59.2496 6.35H57.9396V5.05H59.2496V6.35Z" fill="white"/>
<path d="M19.1004 33.03H14.8304C14.0604 33.03 13.4404 32.41 13.4404 31.64V27.37C13.4404 26.6 14.0604 25.98 14.8304 25.98H19.1004C19.8704 25.98 20.4904 26.6 20.4904 27.37V31.64C20.4904 32.41 19.8604 33.03 19.1004 33.03Z" stroke="#2F3743" stroke-width="2" stroke-miterlimit="10"/>
<path d="M25.1104 26.6799H47.2204" stroke="white" stroke-width="2" stroke-miterlimit="10" stroke-linecap="round" stroke-linejoin="round"/>
<path d="M25.1104 31.3401H42.4304" stroke="white" stroke-width="2" stroke-miterlimit="10" stroke-linecap="round" stroke-linejoin="round"/>
<path d="M19.1004 44.6H14.8304C14.0604 44.6 13.4404 43.98 13.4404 43.21V38.94C13.4404 38.17 14.0604 37.55 14.8304 37.55H19.1004C19.8704 37.55 20.4904 38.17 20.4904 38.94V43.21C20.4904 43.98 19.8604 44.6 19.1004 44.6Z" stroke="#2F3743" stroke-width="2" stroke-miterlimit="10"/>
<path d="M25.1104 39.25H47.2204" stroke="white" stroke-width="2" stroke-miterlimit="10" stroke-linecap="round" stroke-linejoin="round"/>
<path d="M25.1104 42.9099H42.4304" stroke="white" stroke-width="2" stroke-miterlimit="10" stroke-linecap="round" stroke-linejoin="round"/>
<path d="M19.1004 56.1701H14.8304C14.0604 56.1701 13.4404 55.5501 13.4404 54.7801V50.5101C13.4404 49.7401 14.0604 49.1201 14.8304 49.1201H19.1004C19.8704 49.1201 20.4904 49.7401 20.4904 50.5101V54.7801C20.4904 55.5501 19.8604 56.1701 19.1004 56.1701Z" stroke="#2F3743" stroke-width="2" stroke-miterlimit="10"/>
<path d="M25.1104 50.8201H47.2204" stroke="white" stroke-width="2" stroke-miterlimit="10" stroke-linecap="round" stroke-linejoin="round"/>
<path d="M25.1104 54.48H42.4304" stroke="white" stroke-width="2" stroke-miterlimit="10" stroke-linecap="round" stroke-linejoin="round"/>
</g>
<defs>
<clipPath id="clip0_4255_13438">
<rect width="60.85" height="62.83" fill="white"/>
</clipPath>
</defs>
</svg>
