<svg width="11" height="53" viewBox="0 0 11 53" fill="none" xmlns="http://www.w3.org/2000/svg">
<path d="M5.73793 36.5952C4.18842 36.5952 2.89972 35.4373 2.79233 33.9378L0.460389 3.07311C0.337656 1.41036 1.68773 0 3.406 0H8.03919C9.75746 0 11.1075 1.41036 10.9848 3.07311L8.6682 33.9527C8.56081 35.4373 7.28745 36.5952 5.73793 36.5952Z" fill="white"/>
<path d="M5.30824 51.5151C7.39259 51.5151 9.0823 49.88 9.0823 47.863C9.0823 45.846 7.39259 44.2109 5.30824 44.2109C3.22388 44.2109 1.53418 45.846 1.53418 47.863C1.53418 49.88 3.22388 51.5151 5.30824 51.5151Z" fill="white"/>
<path d="M5.30823 53C2.37796 53 0 50.6988 0 47.8633C0 45.0277 2.37796 42.7266 5.30823 42.7266C8.23849 42.7266 10.6165 45.0277 10.6165 47.8633C10.6165 50.6988 8.22315 53 5.30823 53ZM5.30823 45.7106C4.08089 45.7106 3.06834 46.6756 3.06834 47.8781C3.06834 49.0658 4.06555 50.0456 5.30823 50.0456C6.53556 50.0456 7.54812 49.0806 7.54812 47.8781C7.54812 46.6756 6.53556 45.7106 5.30823 45.7106Z" fill="white"/>
</svg>
