<svg width="30" height="30" viewBox="0 0 30 30" fill="none" xmlns="http://www.w3.org/2000/svg">
<path d="M1.5 1.54272L5.59893 5.64166M5.59893 5.64166L9.69786 1.54272M5.59893 5.64166V12.6684" stroke="#686E79" stroke-width="2" stroke-linecap="round"/>
<path d="M3.84229 7.39844H7.35566" stroke="#686E79" stroke-width="2" stroke-linecap="round"/>
<path d="M3.84229 10.9119H7.35566" stroke="#686E79" stroke-width="2" stroke-linecap="round"/>
<path d="M21.9734 28.4571V16.7458M20.2167 25.5293H24.9012" stroke="#686E79" stroke-width="2" stroke-linecap="round"/>
<path d="M21.3879 22.6015H26.0724C27.6894 22.6015 29.0002 21.2906 29.0002 19.6737C29.0002 18.0567 27.6894 16.7458 26.0724 16.7458H21.9735" stroke="#686E79" stroke-width="2"/>
<path d="M13.7861 23.1979C11.1989 23.1979 9.10156 21.1006 9.10156 18.5134" stroke="#686E79" stroke-width="2" stroke-linecap="round"/>
<path d="M20.8129 10.3154C20.8129 7.72818 18.7156 5.63086 16.1284 5.63086" stroke="#686E79" stroke-width="2" stroke-linecap="round"/>
<path d="M23.1551 8.55884L21.3984 10.9011L18.4706 10.3155" stroke="#686E79" stroke-width="2" stroke-linecap="round" stroke-linejoin="round"/>
<path d="M6.63011 19.3786L8.66898 17.2774L11.4992 18.2286" stroke="#686E79" stroke-width="2" stroke-linecap="round" stroke-linejoin="round"/>
</svg>
