<svg width="68" height="54" viewBox="0 0 68 54" fill="none" xmlns="http://www.w3.org/2000/svg">
<g clip-path="url(#clip0_4543_13303)">
<path d="M51.84 35.0399C54.38 35.0499 56.92 35.0899 59.46 35.0599C61.6 35.0399 63.7 34.6899 65.67 33.7899C66.12 33.5799 66.53 33.2699 66.96 33.0199C67.07 32.9599 67.31 32.9099 67.35 32.9599C67.43 33.0699 67.48 33.2699 67.44 33.3899C66.55 36.0399 64.8 37.9099 62.24 39.0099C61.04 39.5199 59.77 39.7599 58.42 39.7499C58.41 39.8999 58.4 40.0299 58.4 40.1699C58.4 42.9899 58.4 45.8099 58.39 48.6299C58.39 48.8199 58.39 49.0099 58.39 49.1999C58.39 49.3999 58.39 49.6099 58.39 49.8099C58.39 49.8899 58.43 50.1099 58.37 50.1699C58.32 50.2199 58.11 50.1999 58.05 50.1999C57.95 50.1999 57.85 50.1999 57.75 50.2099C57.5 50.2199 57.23 50.2299 56.99 50.2299C56.61 50.2299 56.23 50.2299 55.85 50.2299C54.23 50.2299 52.62 50.2299 51 50.2299C49.38 50.2299 47.77 50.2299 46.15 50.2299C44.53 50.2299 42.91 50.2299 41.3 50.2299C40.89 50.2299 36.46 50.2699 36.46 50.2299C36.45 50.0499 36.43 49.8699 36.43 49.6999C36.43 47.1499 36.42 44.5899 36.44 42.0399C36.44 41.6899 36.36 41.5599 35.98 41.5599C34.53 41.5799 33.08 41.5699 31.63 41.5699C31.51 41.5699 31.38 41.5699 31.21 41.5699C31.21 44.4699 31.21 47.3299 31.21 50.2199C24.05 50.2199 16.94 50.2199 9.84002 50.2199C9.67002 49.9699 9.47002 49.7399 9.33002 49.4699C9.21002 49.2399 9.11002 48.9799 9.11002 48.7299C9.09002 45.8999 9.10002 43.0699 9.11002 40.2399C9.11002 39.8799 9.04002 39.7599 8.64002 39.7299C5.49002 39.5699 2.91002 38.2899 1.13002 35.6299C0.670019 34.9399 0.370019 34.1299 0.0200191 33.3599C-0.0299809 33.2499 0.0200191 33.0399 0.100019 32.9599C0.170019 32.8999 0.390019 32.9299 0.490019 32.9999C1.99002 34.0799 3.69002 34.5999 5.50002 34.7999C6.70002 34.9299 7.91002 35.0199 9.11002 35.0199C22.37 35.0399 35.62 35.0299 48.88 35.0299M45.41 41.5699C43.72 41.5699 42.09 41.5699 40.45 41.5699C40.16 41.5699 40.2 41.7499 40.2 41.9299C40.2 43.4099 40.21 44.8999 40.19 46.3799C40.19 46.7099 40.3 46.7899 40.61 46.7899C41.9 46.7799 43.2 46.7799 44.49 46.7799C45.41 46.7799 45.41 46.7799 45.41 45.8699C45.41 44.4599 45.41 43.0399 45.41 41.5699ZM22.28 41.5899C22.26 41.6599 22.24 41.7099 22.24 41.7599C22.24 43.3499 22.24 44.9299 22.23 46.5199C22.23 46.7499 22.34 46.7899 22.54 46.7899C24.05 46.7899 25.56 46.7799 27.07 46.7899C27.36 46.7899 27.43 46.6999 27.43 46.4199C27.42 44.9199 27.43 43.4199 27.42 41.9199C27.42 41.8099 27.4 41.6999 27.39 41.5899C25.69 41.5899 24 41.5899 22.28 41.5899ZM49.22 41.5899C49.21 41.6599 49.19 41.6999 49.19 41.7499C49.19 43.3399 49.19 44.9299 49.18 46.5099C49.18 46.8199 49.37 46.7799 49.56 46.7799C51.03 46.7799 52.51 46.7699 53.98 46.7899C54.3 46.7899 54.39 46.6899 54.39 46.3699C54.38 44.8799 54.38 43.3999 54.38 41.9099C54.38 41.7999 54.36 41.6899 54.35 41.5799C52.62 41.5899 50.93 41.5899 49.22 41.5899ZM13.26 41.5799C13.26 41.7899 13.26 41.9499 13.26 42.1099C13.24 43.5499 13.22 44.9999 13.21 46.4399C13.21 46.6799 13.32 46.7899 13.59 46.7899C15.08 46.7799 16.56 46.7799 18.05 46.7899C18.37 46.7899 18.45 46.6799 18.45 46.3699C18.44 44.9099 18.45 43.4499 18.44 41.9899C18.44 41.8599 18.43 41.7199 18.42 41.5799C16.69 41.5799 15 41.5799 13.26 41.5799Z" fill="#F7941D"/>
<path d="M50.3601 34.2501C39.3701 34.2601 28.3701 34.2601 17.3801 34.2601C14.8601 34.2601 12.3501 34.2801 9.83008 34.2501C7.83008 34.2301 5.85008 34.0501 3.91008 33.5401C3.11008 33.3301 2.35008 32.9901 1.58008 32.7001C1.59008 32.6601 1.60008 32.6101 1.61008 32.5701C2.31008 32.4501 3.00008 32.3401 3.70008 32.2001C4.74008 32.0001 5.80008 31.8201 6.83008 31.5601C8.61008 31.1101 10.3701 30.6101 12.1401 30.1101C12.8201 29.9201 13.4801 29.6501 14.1401 29.4001C14.2401 29.3601 14.3701 29.2201 14.3801 29.1101C14.4101 28.7501 14.3901 28.3801 14.3901 28.0001C13.2701 27.8401 12.1101 27.8301 11.0501 27.4201C10.1001 27.0501 9.11008 26.5101 8.31008 25.9001C6.86008 24.7901 5.92008 23.3101 5.34008 21.6001C5.30008 21.4701 5.36008 21.3101 5.38008 21.1601C5.53008 21.1801 5.70008 21.1601 5.82008 21.2201C6.62008 21.6101 7.39008 22.0901 8.21008 22.4201C9.14008 22.7801 10.1201 22.9701 11.1101 23.0601C11.6001 23.1101 12.1001 23.1301 12.6001 23.1401C13.0001 23.1501 13.3801 23.2301 13.7801 23.2401C15.9201 23.3401 18.0801 23.2401 20.2201 23.2401C24.5401 23.2401 28.8701 23.2401 33.1901 23.2401C37.5101 23.2401 41.8401 23.2401 46.1601 23.2401C48.6501 23.2401 51.1301 23.2401 53.6201 23.2401C55.6501 23.2401 57.6501 23.0101 59.5701 22.3101C60.2601 22.0601 60.9001 21.6501 61.5701 21.3301C61.7501 21.2401 62.0001 21.1001 62.1301 21.1701C62.4401 21.3201 62.2101 21.5901 62.1401 21.8001C61.5001 23.5901 60.4501 25.1001 58.8801 26.1901C57.2901 27.2901 55.5201 27.8901 53.5801 27.9401C53.2101 27.9501 53.1101 28.0601 53.1201 28.4301C53.1401 29.3801 53.1201 29.3801 54.0001 29.6601C55.0801 30.0101 56.1601 30.3901 57.2501 30.6901C58.7701 31.1101 60.3101 31.4901 61.8501 31.8401C63.1701 32.1301 64.5101 32.3501 65.9701 32.6201C65.5301 32.8101 65.2001 32.9801 64.8401 33.1201C62.3901 34.0501 59.8301 34.2301 57.2501 34.2501C55.3801 34.2701 53.5201 34.2601 51.6501 34.2501H50.3601ZM17.7401 29.4501C17.7801 29.4801 17.7901 29.5001 17.8001 29.5001C19.4501 29.5101 21.1001 29.5201 22.7501 29.5201C22.8201 29.5201 22.9601 29.4201 22.9601 29.3701C22.9801 28.8101 22.9701 28.2401 22.9701 27.6801C21.1901 27.6801 19.4701 27.6801 17.7401 27.6801C17.7401 28.2901 17.7401 28.8701 17.7401 29.4501ZM38.3801 27.6401C37.6101 27.6501 36.8301 27.6601 36.0601 27.6501C35.8201 27.6501 35.7101 27.7101 35.7201 27.9701C35.7301 28.3901 35.7201 28.8101 35.7101 29.2301C35.7001 29.4701 35.8001 29.5401 36.0201 29.5401C37.5601 29.5301 39.0901 29.5301 40.6301 29.5401C40.8701 29.5401 40.9401 29.4501 40.9301 29.2201C40.9201 28.8001 40.9201 28.3801 40.9301 27.9601C40.9401 27.7101 40.8401 27.6301 40.5901 27.6401C39.8501 27.6501 39.1201 27.6401 38.3801 27.6401ZM31.9001 27.6501C30.1701 27.6501 28.4901 27.6501 26.7301 27.6501C26.7301 28.1501 26.7501 28.6401 26.7201 29.1301C26.7001 29.4601 26.8301 29.5401 27.1401 29.5301C28.6001 29.5201 30.0601 29.5201 31.5201 29.5201C31.6401 29.5201 31.7601 29.5101 31.9001 29.5001C31.9001 28.8801 31.9001 28.2801 31.9001 27.6501ZM49.8901 27.6701C48.1301 27.6701 46.4301 27.6701 44.7401 27.6701C44.7401 28.3001 44.7401 28.9001 44.7401 29.5301C46.4101 29.5301 48.0401 29.5301 49.6801 29.5201C49.7501 29.5201 49.8801 29.4201 49.8801 29.3601C49.8901 28.7901 49.8901 28.2301 49.8901 27.6701Z" fill="white"/>
<path d="M60.7603 20.6C60.4803 20.76 60.2803 20.88 60.0803 20.99C58.0803 22.02 55.9203 22.2 53.7303 22.26C53.5503 22.26 53.3703 22.26 53.2003 22.26C42.2203 22.28 31.2503 22.31 20.2703 22.32C17.9103 22.32 15.5503 22.3 13.1903 22.24C11.5503 22.2 9.92027 22.02 8.37027 21.44C7.82027 21.23 7.31027 20.95 6.78027 20.7C6.79027 20.66 6.80027 20.63 6.82027 20.59C7.30027 20.5 7.77027 20.41 8.25027 20.32C9.32027 20.11 10.4003 19.94 11.4503 19.68C12.9603 19.31 14.4703 18.93 15.9503 18.45C17.1503 18.06 18.3003 17.54 19.4703 17.05C19.9103 16.86 19.6103 16.44 19.7103 16.11C19.2903 16.06 18.9103 16.01 18.5403 15.98C16.3503 15.8 14.4803 14.89 12.9003 13.4C11.8203 12.38 11.0903 11.11 10.6303 9.69001C10.5903 9.57001 10.6503 9.41001 10.6703 9.27001C10.8203 9.29001 10.9903 9.27001 11.1203 9.33001C11.9003 9.70001 12.6603 10.13 13.4503 10.47C14.6303 10.98 15.8903 11.14 17.1603 11.23C18.2603 11.31 19.3703 11.35 20.4703 11.35C28.9203 11.36 37.3703 11.36 45.8203 11.36C47.6503 11.36 49.5003 11.48 51.3203 11.19C53.1903 10.89 54.6903 10.19 56.3803 9.36001C56.5203 9.29001 56.7003 9.29001 56.8503 9.26001C56.8603 9.42001 56.9303 9.59001 56.8803 9.73001C55.8503 12.8 53.7003 14.74 50.6503 15.67C49.8603 15.91 49.0003 15.93 48.1703 16.01C47.8603 16.04 47.7603 16.15 47.8003 16.43C47.8403 16.71 47.8303 16.95 48.1903 17.12C49.8903 17.91 51.6503 18.55 53.4603 19.02C55.1003 19.45 56.7603 19.8 58.4103 20.17C59.1403 20.34 59.8903 20.44 60.7603 20.6ZM36.3503 15.51C34.6103 15.51 32.9103 15.51 31.2003 15.51C31.2003 16.12 31.2003 16.72 31.2003 17.31C32.9403 17.31 34.6503 17.31 36.3503 17.31C36.3503 16.71 36.3503 16.13 36.3503 15.51ZM40.1503 17.35C41.8203 17.35 43.4603 17.35 45.1003 17.35C45.3103 17.35 45.3603 17.25 45.3603 17.07C45.3603 16.69 45.3403 16.31 45.3703 15.93C45.3903 15.61 45.3003 15.49 44.9503 15.5C43.4603 15.52 41.9803 15.51 40.4903 15.51C40.3803 15.51 40.2703 15.52 40.1603 15.53C40.1503 16.13 40.1503 16.71 40.1503 17.35ZM22.1903 15.51C22.1903 16.14 22.1903 16.73 22.1903 17.31C23.9303 17.31 25.6403 17.31 27.3203 17.31C27.3203 16.69 27.3203 16.1 27.3203 15.51C25.6103 15.51 23.9203 15.51 22.1903 15.51Z" fill="#F7941D"/>
<path d="M58.6303 51.52C58.6303 51.7 58.6303 51.88 58.6603 52.04C58.7103 52.29 58.6803 52.55 58.5903 52.79C58.4203 53.2 58.0003 53.53 57.5403 53.51C57.0403 53.51 56.5403 53.51 56.0403 53.51C55.2503 53.51 54.4603 53.51 53.6703 53.51C53.0603 53.51 52.4603 53.51 51.8503 53.51C50.9303 53.51 50.0103 53.52 49.0803 53.52C47.4603 53.52 45.8303 53.52 44.2103 53.52C42.5903 53.52 40.9603 53.52 39.3403 53.52C37.7203 53.52 36.0903 53.52 34.4703 53.52C32.8503 53.52 31.2203 53.52 29.6003 53.52C27.9803 53.52 26.3503 53.52 24.7303 53.52C23.1103 53.52 21.4803 53.52 19.8603 53.52C18.2403 53.52 16.6103 53.52 14.9903 53.52C13.3703 53.52 11.7403 53.52 10.1203 53.52C9.07028 53.52 8.53028 52.85 8.77028 51.88C8.89028 51.41 9.34028 51.05 9.86028 51.03C10.2503 51.02 10.6503 51.02 11.0403 51.02C25.7003 51.02 40.3703 51.02 55.0303 51.02C55.4203 51.02 55.8003 51.02 56.1903 51.02C56.4603 51.02 56.7303 51.03 57.0103 51.03H58.6303C58.6403 51.2 58.6303 51.36 58.6303 51.52Z" fill="white"/>
<path d="M52.9398 9.55998C53.4298 9.41998 53.9098 9.31998 54.3798 9.11998C54.2498 8.81998 53.9898 8.56998 53.6898 8.43998C53.3198 8.27998 52.9198 8.29998 52.5298 8.30998C52.1198 8.31998 51.7498 8.25998 51.3498 8.19998C50.8998 8.12998 50.4498 8.03998 50.0098 7.92998C47.5898 7.32998 45.1998 6.61998 42.9198 5.60998C39.8398 4.24998 36.9698 2.53998 34.3698 0.38998C33.7298 -0.13002 33.7298 -0.13002 33.0798 0.39998C31.1698 1.97998 29.1098 3.33998 26.9098 4.45998C25.5598 5.13998 24.1798 5.78998 22.7698 6.30998C21.1698 6.89998 19.5298 7.36998 17.8798 7.79998C16.5198 8.14998 15.1298 8.36998 13.7498 8.64998C13.4398 8.70998 13.1298 8.76998 12.8098 8.82998C12.8098 8.86998 12.7998 8.90998 12.7998 8.94998C13.3098 9.14998 13.8198 9.38998 14.3398 9.53998C16.0798 10.05 17.8898 10.17 19.6898 10.21C21.5598 10.26 23.4298 10.22 25.2898 10.22C32.8398 10.22 40.3898 10.24 47.9298 10.18C48.6098 10.18 49.2898 10.22 49.9698 10.16C50.2398 10.14 50.5198 10.12 50.7798 10.07C50.9198 10.05 51.0498 9.99998 51.1798 9.96998C51.2298 9.95998 51.2898 9.94998 51.3398 9.93998C51.8498 9.84998 52.3598 9.72998 52.8498 9.57998C52.8898 9.56998 52.9098 9.55998 52.9398 9.55998Z" fill="white"/>
</g>
<defs>
<clipPath id="clip0_4543_13303">
<rect width="67.46" height="53.53" fill="white"/>
</clipPath>
</defs>
</svg>
