<svg width="43" height="52" viewBox="0 0 43 52" fill="none" xmlns="http://www.w3.org/2000/svg">
<path d="M34.1267 24.8672H19.9531" stroke="white" stroke-width="2" stroke-linecap="round" stroke-linejoin="round"/>
<path d="M20.6316 9.64429H41.5102L35.5111 16.9866L41.5102 24.8672H37.1537" stroke="white" stroke-width="2" stroke-linecap="round" stroke-linejoin="round"/>
<path d="M19.9531 7.52651C21.5657 7.52651 22.873 6.21924 22.873 4.60664C22.873 2.99404 21.5657 1.68677 19.9531 1.68677C18.3405 1.68677 17.0332 2.99404 17.0332 4.60664C17.0332 6.21924 18.3405 7.52651 19.9531 7.52651Z" stroke="white" stroke-width="2" stroke-linecap="round" stroke-linejoin="round"/>
<path d="M19.9531 7.52637V39.8922" stroke="white" stroke-width="2" stroke-linecap="round" stroke-linejoin="round"/>
<path d="M24.7491 14.4788H19.9531" stroke="white" stroke-width="2" stroke-linecap="round" stroke-linejoin="round"/>
<path d="M30.2124 14.4788H27.7073" stroke="white" stroke-width="2" stroke-linecap="round" stroke-linejoin="round"/>
<path d="M19.4284 40.2054H20.7167C23.1449 40.2054 25.1144 42.1777 25.1144 44.6031V44.9959H15.0308V44.6031C15.0308 42.1749 17.003 40.2054 19.4284 40.2054Z" stroke="white" stroke-width="2" stroke-linecap="round" stroke-linejoin="round"/>
<path d="M11.1467 50.5032H7.01001L8.97399 47.1961C9.78431 45.8309 11.2539 44.9958 12.8415 44.9958H27.1662C28.1194 44.9958 29.0286 45.298 29.7785 45.8336" stroke="white" stroke-width="2" stroke-linecap="round" stroke-linejoin="round"/>
<path d="M31.6491 48.2317L32.9978 50.5033H16.3191" stroke="white" stroke-width="2" stroke-linecap="round" stroke-linejoin="round"/>
<path d="M15.6379 50.5033H38.2333" stroke="white" stroke-width="2" stroke-linecap="round" stroke-linejoin="round"/>
<path d="M1.68677 50.5033H11.4655" stroke="white" stroke-width="2" stroke-linecap="round" stroke-linejoin="round"/>
</svg>
