<svg width="52" height="46" viewBox="0 0 52 46" fill="none" xmlns="http://www.w3.org/2000/svg">
<g id="Icons/airplane">
<path id="Vector" d="M41.0089 17.5686L41.6429 17.752C41.7303 17.7754 41.8176 17.7871 41.9049 17.7871C42.3301 17.7871 42.7173 17.4984 42.8388 17.0614C42.9831 16.5308 42.6832 15.9806 42.1669 15.8324L41.5328 15.649C41.0203 15.5007 40.4812 15.809 40.337 16.3396C40.1927 16.8702 40.4926 17.4203 41.0089 17.5686Z" fill="white"/>
<path id="Vector_2" d="M14.6009 22.7504C14.6009 22.2003 14.1681 21.7555 13.6328 21.7555H12.0345C11.4992 21.7555 11.0664 22.2003 11.0664 22.7504C11.0664 23.3005 11.4992 23.7453 12.0345 23.7453H13.6328C14.1681 23.7453 14.6009 23.3005 14.6009 22.7504Z" fill="white"/>
<path id="Vector_3" d="M10.1669 22.7504C10.1669 22.2003 9.73408 21.7555 9.19878 21.7555H1.93998V20.0505L20.8652 14.5999C20.964 16.7536 21.093 19.2077 21.2487 21.7555H16.4955C15.9602 21.7555 15.5275 22.2003 15.5275 22.7504C15.5275 23.3005 15.9602 23.7453 16.4955 23.7453H21.374C21.4157 24.4047 21.4613 25.0641 21.5068 25.7235C21.7764 29.4963 22.0725 32.7464 22.3838 35.4346L15.4098 39.7693C15.0795 39.9761 14.8972 40.3663 14.9504 40.7603L15.3262 43.5422C15.3642 43.8114 15.5009 44.0494 15.7135 44.2094C15.8805 44.3342 16.0817 44.4006 16.2829 44.4006C16.3399 44.4006 16.393 44.3967 16.45 44.385L23.724 43.0779C24.2631 44.8102 24.8933 45.5008 25.774 45.5008C26.6548 45.5008 27.285 44.8102 27.8241 43.0779L35.0943 44.385C35.1513 44.3928 35.2044 44.4006 35.2614 44.4006C35.4664 44.4006 35.6638 44.3342 35.8308 44.2094C36.0434 44.0494 36.1839 43.8114 36.2181 43.5422L36.5977 40.7603C36.6509 40.3663 36.4724 39.9761 36.1383 39.7693L29.1643 35.4346C29.4794 32.7464 29.7717 29.4963 30.0412 25.7235C30.0868 25.0641 30.1324 24.4047 30.1779 23.7453H50.58C51.1153 23.7453 51.5481 23.3005 51.5481 22.7504V19.2936C51.5481 18.8449 51.2596 18.4547 50.8382 18.3338L44.8967 16.6249C44.3804 16.4766 43.8451 16.7848 43.7008 17.3154C43.5566 17.8461 43.8565 18.3962 44.3728 18.5445L49.6081 20.0505V21.7555H30.2994C30.4551 19.2077 30.5803 16.7575 30.6828 14.5999L38.1998 16.7653C38.2871 16.7887 38.3744 16.8043 38.4618 16.8043C38.887 16.8043 39.2742 16.5156 39.3957 16.0786C39.5399 15.548 39.24 14.9979 38.7237 14.8496L30.774 12.5594C30.922 9.15323 30.9904 6.87077 30.9904 6.82785V6.79664C30.9904 3.04717 28.648 0 25.7665 0C22.885 0 20.5426 3.05108 20.5426 6.79664V6.82785C20.5426 6.87467 20.6109 9.15323 20.7589 12.5594L0.706138 18.3338C0.28853 18.4547 0 18.8449 0 19.2936V22.7504C0 23.3005 0.432794 23.7453 0.968093 23.7453H9.19878C9.73408 23.7453 10.1669 23.3005 10.1669 22.7504ZM34.597 41.1349L34.4451 42.2469L28.3063 41.1466C28.4467 40.4521 28.5872 39.664 28.7239 38.7744C28.7846 38.3999 28.8416 38.0058 28.8947 37.5961L34.5932 41.1388L34.597 41.1349ZM25.7816 1.98593C27.5584 1.98593 29.0618 4.17865 29.0694 6.77713C29.058 7.19461 28.7922 15.7158 28.2 24.4515C27.5014 34.705 26.7421 39.4806 26.1955 41.7045C26.1917 41.7279 26.1803 41.7475 26.1765 41.767V41.7748C26.0246 42.3756 25.8917 42.7853 25.7816 43.0623C25.6715 42.7853 25.5387 42.3795 25.3868 41.7787V41.7709C25.383 41.7475 25.3754 41.7279 25.3678 41.7045C24.8211 39.4806 24.0619 34.705 23.3633 24.4593C22.7673 15.7197 22.5053 7.19851 22.4939 6.77713C22.4977 4.17865 24.0011 1.98593 25.7816 1.98593ZM22.661 37.5922C22.7179 38.0019 22.7749 38.396 22.8318 38.7705C22.9685 39.664 23.1089 40.4482 23.2494 41.1427L17.1106 42.243L16.9587 41.131L22.6572 37.5883L22.661 37.5922Z" fill="white"/>
<path id="Vector_4" d="M6.49153 25.2709C5.95623 25.2709 5.52344 25.7157 5.52344 26.2658V29.7538C5.52344 30.304 5.95623 30.7488 6.49153 30.7488C7.02683 30.7488 7.45962 30.304 7.45962 29.7538V26.2658C7.45962 25.7157 7.02683 25.2709 6.49153 25.2709Z" fill="white"/>
<path id="Vector_5" d="M6.49153 31.6417C5.95623 31.6417 5.52344 32.0864 5.52344 32.6366V33.1399C5.52344 33.69 5.95623 34.1348 6.49153 34.1348C7.02683 34.1348 7.45962 33.69 7.45962 33.1399V32.6366C7.45962 32.0864 7.02683 31.6417 6.49153 31.6417Z" fill="white"/>
<path id="Vector_6" d="M39.446 26.2658C39.446 25.7157 39.0132 25.2709 38.4779 25.2709C37.9426 25.2709 37.5098 25.7157 37.5098 26.2658V31.4472C37.5098 31.9973 37.9426 32.4421 38.4779 32.4421C39.0132 32.4421 39.446 31.9973 39.446 31.4472V26.2658Z" fill="white"/>
<path id="Vector_7" d="M38.4779 33.336C37.9426 33.336 37.5098 33.7808 37.5098 34.3309V35.954C37.5098 36.5041 37.9426 36.9489 38.4779 36.9489C39.0132 36.9489 39.446 36.5041 39.446 35.954V34.3309C39.446 33.7808 39.0132 33.336 38.4779 33.336Z" fill="white"/>
<path id="Vector_8" d="M14.0534 26.2658C14.0534 25.7157 13.6206 25.2709 13.0853 25.2709C12.55 25.2709 12.1172 25.7157 12.1172 26.2658V31.4472C12.1172 31.9973 12.55 32.4421 13.0853 32.4421C13.6206 32.4421 14.0534 31.9973 14.0534 31.4472V26.2658Z" fill="white"/>
<path id="Vector_9" d="M13.0833 33.336C12.548 33.336 12.1152 33.7808 12.1152 34.3309V35.954C12.1152 36.5041 12.548 36.9489 13.0833 36.9489C13.6186 36.9489 14.0514 36.5041 14.0514 35.954V34.3309C14.0514 33.7808 13.6186 33.336 13.0833 33.336Z" fill="white"/>
<path id="Vector_10" d="M46.0358 26.2658C46.0358 25.7157 45.603 25.2709 45.0677 25.2709C44.5324 25.2709 44.0996 25.7157 44.0996 26.2658V29.7538C44.0996 30.304 44.5324 30.7488 45.0677 30.7488C45.603 30.7488 46.0358 30.304 46.0358 29.7538V26.2658Z" fill="white"/>
<path id="Vector_11" d="M45.0677 31.6417C44.5324 31.6417 44.0996 32.0864 44.0996 32.6366V33.1399C44.0996 33.69 44.5324 34.1348 45.0677 34.1348C45.603 34.1348 46.0358 33.69 46.0358 33.1399V32.6366C46.0358 32.0864 45.603 31.6417 45.0677 31.6417Z" fill="white"/>
</g>
</svg>
