<svg width="49" height="63" viewBox="0 0 49 63" fill="none" xmlns="http://www.w3.org/2000/svg">
<path d="M43.5213 63.01C30.5813 63.01 17.6313 63.01 4.69134 63.01C4.63134 62.99 4.58134 62.96 4.52134 62.95C3.41134 62.83 2.46134 62.35 1.65134 61.6C0.541338 60.55 0.0113379 59.23 0.0113379 57.7C0.0113379 52.49 0.0113379 47.29 0.0113379 42.08C0.0113379 40.24 -0.0386621 38.39 0.0713379 36.56C0.201338 34.53 1.35134 33.14 3.17134 32.29C4.03134 31.89 4.96134 31.85 5.89134 31.9C6.42134 31.92 6.77134 31.76 7.00134 31.25C7.25134 30.71 7.71134 30.41 8.33134 30.41C8.62134 30.41 8.91134 30.42 9.20134 30.4C9.97134 30.36 10.5513 30.64 10.8713 31.37C11.0413 31.75 11.3313 31.89 11.7413 31.88C13.8513 31.87 15.9613 31.87 18.0713 31.88C18.8213 31.88 19.3513 31.58 19.6613 30.88C20.0413 30.02 20.4513 29.18 20.8113 28.32C21.7013 26.21 23.2413 25.12 25.5613 25.2C25.6813 25.2 25.8113 25.2 25.9313 25.2C25.9313 24.92 25.9313 24.69 25.9313 24.46C25.3813 24.35 25.2013 24.13 25.2013 23.57C25.2013 23.14 25.2013 22.7 25.2013 22.24C24.4413 22.24 23.7313 22.25 23.0113 22.24C20.9713 22.22 19.2813 20.59 19.2713 18.59C19.2613 13.61 19.2513 8.63 19.2813 3.65C19.2913 2.19 20.0113 1.08 21.3213 0.41C21.7013 0.21 22.1413 0.13 22.5513 0C26.7913 0 31.0413 0 35.2813 0C35.4113 0.03 35.5413 0.07 35.6713 0.1C37.4213 0.54 38.5613 2 38.5613 3.81C38.5613 8.54 38.5613 13.28 38.5613 18.01C38.5613 18.36 38.5413 18.72 38.5013 19.07C38.3513 20.48 37.1913 21.79 35.8013 22.11C35.4413 22.19 35.0613 22.23 34.6913 22.24C34.0113 22.26 33.3313 22.25 32.6313 22.25C32.6313 22.73 32.6413 23.17 32.6313 23.61C32.6213 24.11 32.4913 24.27 32.0213 24.46C31.9613 24.48 31.8913 24.57 31.8913 24.63C31.8713 24.82 31.8813 25.01 31.8813 25.21C32.1813 25.21 32.4413 25.2 32.6913 25.21C34.4913 25.27 35.8613 26.07 36.6813 27.69C37.2013 28.72 37.6613 29.79 38.1313 30.85C38.4513 31.57 38.9813 31.91 39.7613 31.9C40.8013 31.89 41.8413 31.89 42.8813 31.9C43.2813 31.91 43.7013 31.92 44.0913 32.01C46.5513 32.56 48.1913 34.62 48.1913 37.14C48.1913 42.37 48.1913 47.59 48.1913 52.82C48.1913 54.65 48.2513 56.49 48.1313 58.31C48.0013 60.31 46.9013 61.74 45.0613 62.56C44.5813 62.78 44.0313 62.87 43.5213 63.01ZM28.9313 1.49C26.9713 1.49 25.0113 1.49 23.0513 1.49C21.7413 1.49 20.7613 2.47 20.7613 3.78C20.7613 5.46 20.7613 7.14 20.7613 8.83C20.7613 10.16 21.7413 11.14 23.0713 11.14C26.9713 11.14 30.8713 11.14 34.7713 11.14C36.0613 11.14 37.0613 10.23 37.0813 8.95C37.1113 7.18 37.1113 5.41 37.0813 3.65C37.0513 2.41 36.0513 1.51 34.8213 1.51C32.8513 1.49 30.8913 1.49 28.9313 1.49ZM28.5713 35.58C22.3813 35.6 17.2613 40.46 17.0713 46.71C16.8813 53.15 21.8513 58.43 28.3413 58.56C34.5913 58.69 39.7913 53.82 40.0213 47.47C40.2613 41.1 35.2513 35.66 28.5713 35.58ZM17.0513 38.93C17.0713 37.93 16.2613 37.1 15.2413 37.09C14.2513 37.07 13.4013 37.86 13.3613 38.8C13.3113 39.96 14.2113 40.75 15.1113 40.77C16.2213 40.8 17.0313 40.02 17.0513 38.93ZM28.1913 24.49C28.1913 24.73 28.1913 24.96 28.1913 25.19C28.6913 25.19 29.1713 25.19 29.6413 25.19C29.6413 24.95 29.6413 24.72 29.6413 24.49C29.1613 24.49 28.7013 24.49 28.1913 24.49Z" fill="white"/>
<path d="M28.1914 24.49C28.7014 24.49 29.1614 24.49 29.6414 24.49C29.6414 24.73 29.6414 24.95 29.6414 25.19C29.1714 25.19 28.6914 25.19 28.1914 25.19C28.1914 24.96 28.1914 24.73 28.1914 24.49Z" fill="white"/>
<path d="M37.8012 47.08C37.8112 52.15 33.7812 56.11 29.0312 56.32C23.5612 56.57 19.3912 52.3 19.2912 47.31C19.1812 41.92 23.3912 37.98 28.2112 37.82C33.6812 37.63 37.8512 42.06 37.8012 47.08Z" fill="#F7941D"/>
</svg>
