<svg width="63" height="42" viewBox="0 0 63 42" fill="none" xmlns="http://www.w3.org/2000/svg">
<g clip-path="url(#clip0_4204_13548)">
<path d="M45.1099 5.47998H49.3799" stroke="#F7941D" stroke-width="2" stroke-miterlimit="10" stroke-linecap="round"/>
<path d="M4.52002 5.47998H17.29" stroke="#F7941D" stroke-width="2" stroke-miterlimit="10" stroke-linecap="round"/>
<path opacity="0.34" d="M60.1201 7.75H2.58008V19.63H60.1201V7.75Z" fill="white"/>
<path d="M53.79 5.47998H58.06" stroke="#F7941D" stroke-width="2" stroke-miterlimit="10" stroke-linecap="round"/>
<path d="M21.7999 27.2999H11.7899C11.1699 27.2999 10.6699 26.7999 10.6699 26.1799V23.5499C10.6699 22.9299 11.1699 22.4299 11.7899 22.4299H21.7999C22.4199 22.4299 22.9199 22.9299 22.9199 23.5499V26.1799C22.9199 26.7999 22.4199 27.2999 21.7999 27.2999Z" fill="#F7941D"/>
<path d="M37.1498 27.2999H27.1298C26.5098 27.2999 26.0098 26.7999 26.0098 26.1799V23.5499C26.0098 22.9299 26.5098 22.4299 27.1298 22.4299H37.1398C37.7598 22.4299 38.2598 22.9299 38.2598 23.5499V26.1799C38.2598 26.7999 37.7598 27.2999 37.1498 27.2999Z" fill="#F7941D"/>
<path d="M52.4899 27.2999H42.4799C41.8599 27.2999 41.3599 26.7999 41.3599 26.1799V23.5499C41.3599 22.9299 41.8599 22.4299 42.4799 22.4299H52.4899C53.1099 22.4299 53.6099 22.9299 53.6099 23.5499V26.1799C53.6099 26.7999 53.1099 27.2999 52.4899 27.2999Z" fill="#F7941D"/>
<path d="M25.5 30.3899H38.78" stroke="white" stroke-width="2" stroke-miterlimit="10" stroke-linecap="round"/>
<path d="M22.5501 17.58L26.0601 14.15C26.2501 13.96 26.5601 13.97 26.7401 14.16L29.8801 17.5C30.0601 17.69 30.3701 17.7 30.5601 17.51L36.1301 12.06C36.3201 11.88 36.6201 11.88 36.8001 12.07L42.2601 17.58C42.5601 17.88 42.3401 18.39 41.9201 18.39H22.8801C22.4501 18.4 22.2401 17.88 22.5501 17.58Z" fill="white"/>
<path d="M30.3799 12.75C31.3354 12.75 32.1099 11.9755 32.1099 11.02C32.1099 10.0646 31.3354 9.29004 30.3799 9.29004C29.4244 9.29004 28.6499 10.0646 28.6499 11.02C28.6499 11.9755 29.4244 12.75 30.3799 12.75Z" fill="white"/>
<path opacity="0.61" d="M63 2.05C63 0.92 62.08 0 60.95 0H2.05C0.92 0 0 0.92 0 2.05V35.11H63V2.05ZM60.12 33.3H2.58V2.7H60.12V33.3Z" fill="white"/>
<path d="M2.05 41.6101H60.94C62.07 41.6101 62.99 40.6901 62.99 39.5601V35.1201H0V39.5601C0 40.6901 0.92 41.6101 2.05 41.6101Z" fill="white"/>
<path d="M30.7598 39.3899C31.4501 39.3899 32.0098 38.8302 32.0098 38.1399C32.0098 37.4495 31.4501 36.8899 30.7598 36.8899C30.0694 36.8899 29.5098 37.4495 29.5098 38.1399C29.5098 38.8302 30.0694 39.3899 30.7598 39.3899Z" fill="black"/>
</g>
<defs>
<clipPath id="clip0_4204_13548">
<rect width="63" height="41.61" fill="white"/>
</clipPath>
</defs>
</svg>
