<svg width="63" height="63" viewBox="0 0 63 63" fill="none" xmlns="http://www.w3.org/2000/svg">
<g clip-path="url(#clip0_4207_13742)">
<path d="M57.2 0H5.2C2.33 0 0 2.33 0 5.2V57.2C0 60.07 2.33 62.4 5.2 62.4H57.2C60.07 62.4 62.4 60.07 62.4 57.2V5.2C62.4 2.33 60.07 0 57.2 0ZM5.2 2.08H57.2C58.92 2.08 60.32 3.48 60.32 5.2V8.32H2.08V5.2C2.08 3.48 3.48 2.08 5.2 2.08ZM57.2 60.32H5.2C3.48 60.32 2.08 58.92 2.08 57.2V10.4H60.32V57.2C60.32 58.93 58.93 60.32 57.2 60.32Z" fill="white"/>
<path d="M6.2402 6.23991H7.2802C7.8502 6.23991 8.3202 5.76991 8.3202 5.19991C8.3202 4.62991 7.8502 4.15991 7.2802 4.15991H6.2402C5.6702 4.15991 5.2002 4.62991 5.2002 5.19991C5.2002 5.76991 5.6702 6.23991 6.2402 6.23991Z" fill="white"/>
<path d="M11.4399 6.23991H12.4799C13.0499 6.23991 13.5199 5.76991 13.5199 5.19991C13.5199 4.62991 13.0499 4.15991 12.4799 4.15991H11.4399C10.8699 4.15991 10.3999 4.62991 10.3999 5.19991C10.3999 5.76991 10.8699 6.23991 11.4399 6.23991Z" fill="white"/>
<path d="M16.6401 6.23991H17.6801C18.2501 6.23991 18.7201 5.76991 18.7201 5.19991C18.7201 4.62991 18.2501 4.15991 17.6801 4.15991H16.6401C16.0701 4.15991 15.6001 4.62991 15.6001 5.19991C15.6001 5.76991 16.0701 6.23991 16.6401 6.23991Z" fill="white"/>
<path d="M22.5699 21.4L16.1699 17.15C15.2399 16.53 14.0399 16.47 13.0499 17C12.0599 17.53 11.4399 18.56 11.4399 19.68V28.17C11.4399 29.29 12.0599 30.32 13.0499 30.84C14.0399 31.37 15.2399 31.31 16.1699 30.69L22.5699 26.45C23.4199 25.89 23.9299 24.94 23.9299 23.93C23.9299 22.91 23.4199 21.96 22.5699 21.4ZM21.4199 24.71L15.0199 28.96C14.7199 29.16 14.3399 29.18 14.0299 29.01C13.7199 28.85 13.5299 28.53 13.5299 28.18V19.68C13.5299 19.33 13.7199 19.01 14.0299 18.85C14.1699 18.77 14.3299 18.73 14.4999 18.73C14.6899 18.73 14.8699 18.79 15.0299 18.9L21.4299 23.14C21.6999 23.31 21.8599 23.61 21.8599 23.93C21.8399 24.24 21.6799 24.54 21.4199 24.71Z" fill="white"/>
<path d="M26.0002 12.48H8.32016C6.02016 12.48 4.16016 14.34 4.16016 16.64V31.2C4.16016 33.5 6.02016 35.36 8.32016 35.36H26.0002C28.3002 35.36 30.1602 33.5 30.1602 31.2V16.64C30.1602 14.34 28.3002 12.48 26.0002 12.48ZM28.0802 31.2C28.0802 32.35 27.1502 33.28 26.0002 33.28H8.32016C7.17016 33.28 6.24016 32.35 6.24016 31.2V16.64C6.24016 15.49 7.17016 14.56 8.32016 14.56H26.0002C27.1502 14.56 28.0802 15.49 28.0802 16.64V31.2Z" fill="#F7941D"/>
<path d="M54.0802 35.3601H36.4002C34.1002 35.3601 32.2402 37.2201 32.2402 39.5201V54.0801C32.2402 56.3801 34.1002 58.2401 36.4002 58.2401H54.0802C56.3802 58.2401 58.2402 56.3801 58.2402 54.0801V39.5201C58.2402 37.2201 56.3802 35.3601 54.0802 35.3601ZM56.1602 54.0801C56.1602 55.2301 55.2302 56.1601 54.0802 56.1601H36.4002C35.2502 56.1601 34.3202 55.2301 34.3202 54.0801V39.5201C34.3202 38.3701 35.2502 37.4401 36.4002 37.4401H54.0802C55.2302 37.4401 56.1602 38.3701 56.1602 39.5201V54.0801Z" fill="#F7941D"/>
<path d="M27.0402 39.52H7.28023C6.71023 39.52 6.24023 39.99 6.24023 40.56C6.24023 41.13 6.71023 41.6 7.28023 41.6H27.0402C27.6102 41.6 28.0802 41.13 28.0802 40.56C28.0802 39.99 27.6202 39.52 27.0402 39.52Z" fill="white"/>
<path d="M7.28023 45.7599H11.4402C12.0102 45.7599 12.4802 45.2899 12.4802 44.7199C12.4802 44.1499 12.0102 43.6799 11.4402 43.6799H7.28023C6.71023 43.6799 6.24023 44.1499 6.24023 44.7199C6.24023 45.2999 6.71023 45.7599 7.28023 45.7599Z" fill="white"/>
<path d="M27.0401 43.6799H15.6001C15.0301 43.6799 14.5601 44.1499 14.5601 44.7199C14.5601 45.2899 15.0301 45.7599 15.6001 45.7599H27.0401C27.6101 45.7599 28.0801 45.2899 28.0801 44.7199C28.0801 44.1499 27.6201 43.6799 27.0401 43.6799Z" fill="white"/>
<path d="M27.0398 47.8401H22.8798C22.3098 47.8401 21.8398 48.3101 21.8398 48.8801C21.8398 49.4501 22.3098 49.9201 22.8798 49.9201H27.0398C27.6098 49.9201 28.0798 49.4501 28.0798 48.8801C28.0798 48.3101 27.6198 47.8401 27.0398 47.8401Z" fill="white"/>
<path d="M18.7202 47.8401H7.28023C6.71023 47.8401 6.24023 48.3101 6.24023 48.8801C6.24023 49.4501 6.71023 49.9201 7.28023 49.9201H18.7202C19.2902 49.9201 19.7602 49.4501 19.7602 48.8801C19.7602 48.3101 19.3002 47.8401 18.7202 47.8401Z" fill="white"/>
<path d="M18.7202 52H7.28023C6.71023 52 6.24023 52.47 6.24023 53.04C6.24023 53.61 6.71023 54.08 7.28023 54.08H18.7202C19.2902 54.08 19.7602 53.61 19.7602 53.04C19.7602 52.47 19.3002 52 18.7202 52Z" fill="white"/>
<path d="M22.1398 52.3101C21.9498 52.5101 21.8398 52.7701 21.8398 53.0501C21.8398 53.1201 21.8498 53.1901 21.8598 53.2601C21.8698 53.3301 21.8898 53.3901 21.9198 53.4501C21.9398 53.5201 21.9698 53.5801 22.0098 53.6401L22.1298 53.8001C22.2298 53.8901 22.3498 53.9701 22.4698 54.0201C22.5898 54.0701 22.7298 54.1001 22.8698 54.1001C23.1498 54.1001 23.4098 53.9901 23.6098 53.8001L23.7298 53.6401C23.7698 53.5801 23.7998 53.5201 23.8198 53.4501C23.8498 53.3901 23.8698 53.3301 23.8798 53.2601C23.8898 53.1901 23.8998 53.1201 23.8998 53.0501C23.8998 52.6301 23.6498 52.2501 23.2598 52.0801C22.8898 51.9201 22.4398 52.0101 22.1398 52.3101Z" fill="white"/>
<path d="M35.3598 18.7199H55.1198C55.6898 18.7199 56.1598 18.2499 56.1598 17.6799C56.1598 17.1099 55.6898 16.6399 55.1198 16.6399H35.3598C34.7898 16.6399 34.3198 17.1099 34.3198 17.6799C34.3198 18.2599 34.7898 18.7199 35.3598 18.7199Z" fill="white"/>
<path d="M35.3598 22.88H39.5198C40.0898 22.88 40.5598 22.41 40.5598 21.84C40.5598 21.27 40.0898 20.8 39.5198 20.8H35.3598C34.7898 20.8 34.3198 21.27 34.3198 21.84C34.3198 22.42 34.7898 22.88 35.3598 22.88Z" fill="white"/>
<path d="M55.1201 20.8H43.6801C43.1101 20.8 42.6401 21.27 42.6401 21.84C42.6401 22.41 43.1101 22.88 43.6801 22.88H55.1201C55.6901 22.88 56.1601 22.41 56.1601 21.84C56.1601 21.27 55.7001 20.8 55.1201 20.8Z" fill="white"/>
<path d="M56.1599 26C56.1599 25.43 55.6899 24.96 55.1199 24.96H50.9599C50.3899 24.96 49.9199 25.43 49.9199 26C49.9199 26.57 50.3899 27.04 50.9599 27.04H55.1199C55.6999 27.04 56.1599 26.58 56.1599 26Z" fill="white"/>
<path d="M35.3598 27.04H46.7998C47.3698 27.04 47.8398 26.57 47.8398 26C47.8398 25.43 47.3698 24.96 46.7998 24.96H35.3598C34.7898 24.96 34.3198 25.43 34.3198 26C34.3198 26.58 34.7898 27.04 35.3598 27.04Z" fill="white"/>
<path d="M35.3598 31.2001H46.7998C47.3698 31.2001 47.8398 30.7301 47.8398 30.1601C47.8398 29.5901 47.3698 29.1201 46.7998 29.1201H35.3598C34.7898 29.1201 34.3198 29.5901 34.3198 30.1601C34.3198 30.7401 34.7898 31.2001 35.3598 31.2001Z" fill="white"/>
<path d="M50.2302 29.42C50.0402 29.62 49.9302 29.88 49.9302 30.16C49.9302 30.23 49.9402 30.3 49.9502 30.37C49.9602 30.44 49.9802 30.5 50.0102 30.56C50.0302 30.63 50.0602 30.69 50.1002 30.75L50.2202 30.91C50.3202 31 50.4402 31.08 50.5602 31.13C50.6902 31.18 50.8202 31.21 50.9602 31.21C51.2402 31.21 51.5002 31.1 51.7002 30.91L51.8202 30.75C51.8602 30.69 51.8902 30.63 51.9102 30.56C51.9402 30.5 51.9602 30.44 51.9702 30.37C51.9902 30.3 52.0002 30.23 52.0002 30.16C52.0002 29.74 51.7502 29.36 51.3602 29.19C50.9702 29.03 50.5202 29.12 50.2302 29.42Z" fill="white"/>
<path d="M54.1698 44.2901C54.1698 45.5501 53.1498 46.5801 51.8798 46.5801C50.6098 46.5801 49.5898 45.5501 49.5898 44.2901C49.5898 43.0201 50.6098 42.0001 51.8798 42.0001C53.1398 41.9901 54.1698 43.0201 54.1698 44.2901Z" fill="white"/>
<path d="M48.2201 48.14C46.8301 48.14 46.9701 51.11 45.0701 51.11C43.1601 51.11 42.1301 43.52 39.7701 43.52C37.4001 43.52 35.8101 54.27 35.8101 54.27H54.4001C54.4001 54.27 49.6101 48.14 48.2201 48.14Z" fill="white"/>
</g>
<defs>
<clipPath id="clip0_4207_13742">
<rect width="62.4" height="62.4" fill="white"/>
</clipPath>
</defs>
</svg>
