<svg width="63" height="60" viewBox="0 0 63 60" fill="none" xmlns="http://www.w3.org/2000/svg">
<g clip-path="url(#clip0_4207_13777)">
<path d="M45.88 15.73H1" stroke="white" stroke-width="2" stroke-miterlimit="10" stroke-linecap="round" stroke-linejoin="round"/>
<path d="M8.8502 11.31C10.0376 11.31 11.0002 10.3474 11.0002 9.16001C11.0002 7.9726 10.0376 7.01001 8.8502 7.01001C7.66278 7.01001 6.7002 7.9726 6.7002 9.16001C6.7002 10.3474 7.66278 11.31 8.8502 11.31Z" fill="white"/>
<path d="M16.2398 11.31C17.4273 11.31 18.3898 10.3474 18.3898 9.16001C18.3898 7.9726 17.4273 7.01001 16.2398 7.01001C15.0524 7.01001 14.0898 7.9726 14.0898 9.16001C14.0898 10.3474 15.0524 11.31 16.2398 11.31Z" fill="white"/>
<path d="M23.63 11.31C24.8174 11.31 25.78 10.3474 25.78 9.16001C25.78 7.9726 24.8174 7.01001 23.63 7.01001C22.4426 7.01001 21.48 7.9726 21.48 9.16001C21.48 10.3474 22.4426 11.31 23.63 11.31Z" fill="white"/>
<path d="M12.4201 31.81H10.7601L9.37012 28.25H10.8801L11.6901 30.6L12.4001 28.25H13.9301L14.6501 30.56L15.4301 28.25H16.8201L15.4301 31.81H13.8601L13.1201 29.56L12.4201 31.81Z" fill="#F7941D"/>
<path d="M19.8103 31.81H18.1503L16.7603 28.25H18.2703L19.0803 30.6L19.7903 28.25H21.3203L22.0403 30.56L22.8203 28.25H24.2103L22.8203 31.81H21.2503L20.5103 29.56L19.8103 31.81Z" fill="#F7941D"/>
<path d="M27.1999 31.81H25.5399L24.1499 28.25H25.6599L26.4699 30.6L27.1799 28.25H28.7099L29.4299 30.56L30.2099 28.25H31.5999L30.2099 31.81H28.6399L27.8999 29.56L27.1999 31.81Z" fill="#F7941D"/>
<path d="M38.02 49.04H5.44C2.99 49.04 1 47.05 1 44.6V5.44C1 2.99 2.99 1 5.44 1H54C56.45 1 58.44 2.99 58.44 5.44V29.46" stroke="white" stroke-width="2" stroke-miterlimit="10" stroke-linecap="round" stroke-linejoin="round"/>
<path d="M34.7 30.8101V31.8101H33.25V30.8101H34.7Z" fill="white"/>
<path d="M38.3299 31.8899H38.1299C37.6799 31.8899 37.2899 31.8499 36.9499 31.7599C36.6099 31.6699 36.3499 31.5599 36.1599 31.4299C35.9699 31.2999 35.8199 31.1399 35.6999 30.9599C35.5799 30.7799 35.5099 30.6099 35.4699 30.4599C35.4299 30.3099 35.4199 30.1399 35.4199 29.9799V29.8299C35.4199 29.6599 35.4399 29.4999 35.4699 29.3499C35.4999 29.1999 35.5799 29.0299 35.6899 28.8499C35.7999 28.6699 35.9499 28.5199 36.1399 28.3899C36.3299 28.2599 36.5899 28.1499 36.9299 28.0699C37.2699 27.9899 37.6699 27.9399 38.1299 27.9399H38.3299C38.6499 27.9399 38.9399 27.9599 39.2099 27.9999C39.4799 28.0399 39.6999 28.0899 39.8799 28.1599C40.0599 28.2299 40.2199 28.2999 40.3599 28.3899C40.4999 28.4799 40.6099 28.5699 40.6899 28.6699C40.7699 28.7599 40.8299 28.8599 40.8799 28.9699C40.9299 29.0799 40.9599 29.1699 40.9799 29.2499C40.9899 29.2999 40.9999 29.3799 40.9999 29.4599V29.5299H39.4799C39.3599 29.1399 38.9399 28.9399 38.2199 28.9399C37.3699 28.9399 36.9399 29.2399 36.9399 29.8399V29.8999C36.9399 30.0099 36.9599 30.1199 36.9999 30.2199C37.0399 30.3199 37.0999 30.4299 37.1999 30.5199C37.2899 30.6199 37.4199 30.6999 37.5999 30.7599C37.7799 30.8199 37.9899 30.8499 38.2299 30.8499C38.4399 30.8499 38.6299 30.8299 38.7899 30.7899C38.9499 30.7499 39.0699 30.7099 39.1599 30.6599C39.2399 30.6099 39.3099 30.5499 39.3699 30.4799C39.4299 30.4099 39.4599 30.3599 39.4699 30.3299C39.4799 30.2999 39.4899 30.2599 39.4999 30.2299H40.9999V30.3099C40.9999 30.4299 40.9799 30.5499 40.9499 30.6699C40.9199 30.7899 40.8399 30.9299 40.7199 31.0799C40.5999 31.2299 40.4499 31.3699 40.2699 31.4799C40.0899 31.5899 39.8299 31.6899 39.4899 31.7699C39.1599 31.8499 38.7699 31.8899 38.3299 31.8899Z" fill="white"/>
<path d="M41.3501 27.98H42.9901L45.2101 30.16V27.98H46.6601V31.81H45.2001L42.8001 29.49V31.81H41.3501V27.98Z" fill="white"/>
<path d="M52.6498 58.37C47.5998 58.37 43.5098 54.28 43.5098 49.23V42.69C43.5098 37.64 47.5998 33.55 52.6498 33.55C57.6998 33.55 61.7898 37.64 61.7898 42.69V49.23C61.7898 54.27 57.6998 58.37 52.6498 58.37Z" stroke="white" stroke-width="2" stroke-miterlimit="10"/>
<path d="M52.6499 38.6299V43.1399" stroke="white" stroke-width="2" stroke-miterlimit="10" stroke-linecap="round"/>
</g>
<defs>
<clipPath id="clip0_4207_13777">
<rect width="62.79" height="59.37" fill="white"/>
</clipPath>
</defs>
</svg>
