<svg width="62" height="61" viewBox="0 0 62 61" fill="none" xmlns="http://www.w3.org/2000/svg">
<g clip-path="url(#clip0_4271_13350)">
<path d="M54.01 22.57C54.01 16.75 49.87 11.9 44.38 10.78C43.33 5.22 38.44 1 32.57 1C27.75 1 23.6 3.84 21.68 7.94C20.88 7.71 20.03 7.58 19.16 7.58C14.22 7.58 10.21 11.53 10.09 16.44H10.08C5.07 16.44 1 20.5 1 25.52C1 29.91 4.11 33.57 8.25 34.42" stroke="white" stroke-width="2" stroke-miterlimit="10" stroke-linecap="round" stroke-linejoin="round"/>
<path d="M13.7695 30.7V36.27C13.7695 36.65 14.0695 36.95 14.4495 36.95H38.1995C38.5795 36.95 38.8795 36.65 38.8795 36.27V30.7C38.8795 30.32 38.5795 30.02 38.1995 30.02H14.4495C14.0695 30.02 13.7695 30.33 13.7695 30.7ZM17.6895 35.23H16.1795V31.53H17.6895V35.23ZM20.8295 35.23H19.3195V31.53H20.8295V35.23ZM34.7495 35.22C33.7295 35.22 32.9095 34.39 32.9095 33.38C32.9095 32.36 33.7395 31.54 34.7495 31.54C35.7695 31.54 36.5895 32.37 36.5895 33.38C36.5895 34.39 35.7595 35.22 34.7495 35.22Z" fill="#F7941D"/>
<path d="M13.7695 20.98V26.55C13.7695 26.93 14.0695 27.23 14.4495 27.23H38.1995C38.5795 27.23 38.8795 26.93 38.8795 26.55V20.98C38.8795 20.6 38.5795 20.3 38.1995 20.3H14.4495C14.0695 20.3 13.7695 20.61 13.7695 20.98ZM17.6895 25.51H16.1795V21.81H17.6895V25.51ZM20.8295 25.51H19.3195V21.81H20.8295V25.51ZM34.7495 25.5C33.7295 25.5 32.9095 24.67 32.9095 23.66C32.9095 22.64 33.7395 21.82 34.7495 21.82C35.7695 21.82 36.5895 22.65 36.5895 23.66C36.5895 24.67 35.7595 25.5 34.7495 25.5Z" fill="#F7941D"/>
<path d="M60.7203 40.77H36.5303V59.46H60.7203V40.77Z" stroke="white" stroke-width="2" stroke-miterlimit="10" stroke-linecap="round" stroke-linejoin="round"/>
<path d="M42.3506 40.7701V30.6001C42.3506 27.1301 45.1606 24.3201 48.6306 24.3201C52.1006 24.3201 54.9106 27.1301 54.9106 30.6001V40.7701" stroke="white" stroke-width="2" stroke-miterlimit="10" stroke-linecap="round" stroke-linejoin="round"/>
<path d="M50.6898 50.07C50.6898 48.93 49.7598 48 48.6198 48C47.4698 48 46.5498 48.93 46.5498 50.07C46.5498 50.81 46.9398 51.45 47.5198 51.82V53.78C47.5198 54.39 48.0098 54.88 48.6298 54.88C49.2398 54.88 49.7298 54.39 49.7298 53.78V51.82C50.3098 51.45 50.6898 50.8 50.6898 50.07Z" stroke="#F7941D" stroke-miterlimit="10" stroke-linecap="round" stroke-linejoin="round"/>
<path d="M17.8102 45.6501H17.5802C17.0702 45.6501 16.6202 45.6001 16.2302 45.5001C15.8402 45.4001 15.5402 45.2701 15.3302 45.1201C15.1102 44.9701 14.9402 44.7901 14.8102 44.5801C14.6802 44.3701 14.5902 44.1801 14.5502 44.0001C14.5102 43.8201 14.4902 43.6401 14.4902 43.4501V43.2801C14.4902 43.0801 14.5102 42.9001 14.5502 42.7301C14.5902 42.5601 14.6702 42.3701 14.8002 42.1601C14.9302 41.9501 15.1002 41.7801 15.3102 41.6301C15.5202 41.4801 15.8202 41.3601 16.2102 41.2601C16.6002 41.1601 17.0502 41.1101 17.5802 41.1101H17.8102C18.1702 41.1101 18.5102 41.1301 18.8102 41.1801C19.1102 41.2301 19.3702 41.2901 19.5702 41.3601C19.7802 41.4301 19.9602 41.5201 20.1202 41.6301C20.2802 41.7301 20.4002 41.8401 20.4902 41.9401C20.5802 42.0501 20.6502 42.1601 20.7102 42.2801C20.7702 42.4001 20.8002 42.5101 20.8202 42.6001C20.8402 42.6901 20.8502 42.7901 20.8502 42.8801V42.9601H19.1202C18.9902 42.5101 18.5102 42.2901 17.6802 42.2901C16.7102 42.2901 16.2202 42.6301 16.2202 43.3101V43.3801C16.2202 43.5101 16.2402 43.6301 16.2902 43.7501C16.3402 43.8701 16.4102 43.9801 16.5102 44.1001C16.6102 44.2101 16.7702 44.3001 16.9702 44.3701C17.1702 44.4401 17.4102 44.4701 17.6902 44.4701C17.9302 44.4701 18.1502 44.4501 18.3302 44.4001C18.5102 44.3601 18.6502 44.3101 18.7502 44.2501C18.8402 44.2001 18.9202 44.1301 18.9802 44.0401C19.0402 43.9501 19.0802 43.9001 19.0902 43.8601C19.1002 43.8201 19.1102 43.7901 19.1302 43.7401H20.8602V43.8301C20.8602 43.9601 20.8402 44.1001 20.8002 44.2401C20.7602 44.3801 20.6702 44.5401 20.5402 44.7101C20.4102 44.8801 20.2402 45.0401 20.0302 45.1701C19.8202 45.3001 19.5302 45.4101 19.1402 45.5001C18.7602 45.6101 18.3102 45.6501 17.8102 45.6501Z" fill="white"/>
<path d="M21.25 41.2002H23.12L25.66 43.6802V41.2002H27.32V45.5702H25.65L22.91 42.9202V45.5702H21.25V41.2002Z" fill="white"/>
</g>
<defs>
<clipPath id="clip0_4271_13350">
<rect width="61.71" height="60.46" fill="white"/>
</clipPath>
</defs>
</svg>
