<svg width="65" height="66" viewBox="0 0 65 66" fill="none" xmlns="http://www.w3.org/2000/svg">
<g clip-path="url(#clip0_2194_19022)">
<path d="M18.0625 58.4182H46.1465" stroke="white" stroke-width="2" stroke-linecap="round" stroke-linejoin="round" stroke-dasharray="4 4"/>
<path d="M7.04199 47.6548L7.04199 19.5708" stroke="white" stroke-width="2" stroke-linecap="round" stroke-linejoin="round" stroke-dasharray="4 4"/>
<path d="M18.0625 7.41821H46.1465" stroke="white" stroke-width="2" stroke-linecap="round" stroke-linejoin="round" stroke-dasharray="4 4"/>
<path d="M60.0798 1.63354H53.9918C52.2982 1.63354 50.9253 3.00645 50.9253 4.70001V10.788C50.9253 12.4816 52.2982 13.8545 53.9918 13.8545H60.0798C61.7733 13.8545 63.1462 12.4816 63.1462 10.788V4.70001C63.1462 3.00645 61.7733 1.63354 60.0798 1.63354Z" stroke="white" stroke-width="2" stroke-linecap="round" stroke-linejoin="round"/>
<path d="M10.1752 1.63354H4.08721C2.39365 1.63354 1.02075 3.00645 1.02075 4.70001V10.788C1.02075 12.4816 2.39365 13.8545 4.08721 13.8545H10.1752C11.8688 13.8545 13.2417 12.4816 13.2417 10.788V4.70001C13.2417 3.00645 11.8688 1.63354 10.1752 1.63354Z" stroke="white" stroke-width="2" stroke-linecap="round" stroke-linejoin="round"/>
<path d="M60.0798 52.3711H53.9918C52.2982 52.3711 50.9253 53.744 50.9253 55.4376V61.5256C50.9253 63.2191 52.2982 64.592 53.9918 64.592H60.0798C61.7733 64.592 63.1462 63.2191 63.1462 61.5256V55.4376C63.1462 53.744 61.7733 52.3711 60.0798 52.3711Z" stroke="white" stroke-width="2" stroke-linecap="round" stroke-linejoin="round"/>
<path d="M10.1752 52.3711H4.08721C2.39365 52.3711 1.02075 53.744 1.02075 55.4376V61.5256C1.02075 63.2191 2.39365 64.592 4.08721 64.592H10.1752C11.8688 64.592 13.2417 63.2191 13.2417 61.5256V55.4376C13.2417 53.744 11.8688 52.3711 10.1752 52.3711Z" stroke="white" stroke-width="2" stroke-linecap="round" stroke-linejoin="round"/>
<path d="M33.0491 22.4745L35.6705 27.7826C35.8134 28.0685 36.0829 28.2645 36.4014 28.3135L42.2608 29.1628C43.0529 29.2771 43.3714 30.253 42.7957 30.8124L38.5573 34.9445C38.3287 35.165 38.2266 35.4876 38.2797 35.802L39.28 41.6368C39.4148 42.429 38.5859 43.0292 37.8754 42.6576L32.6367 39.9015C32.355 39.7545 32.0161 39.7545 31.7343 39.9015L26.4956 42.6576C25.7852 43.0292 24.9563 42.429 25.091 41.6368L26.0914 35.802C26.1445 35.4876 26.0424 35.1691 25.8137 34.9445L21.5754 30.8124C20.9997 30.253 21.3182 29.2771 22.1103 29.1628L27.9697 28.3135C28.2841 28.2685 28.5576 28.0685 28.7006 27.7826L31.3219 22.4745C31.6772 21.7559 32.7021 21.7559 33.0573 22.4745H33.0491Z" stroke="white" stroke-width="2" stroke-linecap="round" stroke-linejoin="round"/>
<path d="M57.042 46.6548V18.5708" stroke="white" stroke-width="2" stroke-linecap="round" stroke-linejoin="round" stroke-dasharray="4 4"/>
</g>
<defs>
<clipPath id="clip0_2194_19022">
<rect width="64.167" height="65" fill="white" transform="translate(0 0.612793)"/>
</clipPath>
</defs>
</svg>
