<svg width="64" height="26" viewBox="0 0 64 26" fill="none" xmlns="http://www.w3.org/2000/svg">
<g clip-path="url(#clip0_4207_13768)">
<path d="M39.4601 12.83C39.4601 10.63 39.7101 8.46005 40.5701 6.41005C41.9101 3.21005 44.2901 1.23005 47.6501 0.440048C50.2701 -0.169952 52.9001 -0.159952 55.5001 0.530048C58.9001 1.44005 61.2001 3.60005 62.3001 6.91005C63.6201 10.88 63.6401 14.92 62.2601 18.88C60.9701 22.6 58.2301 24.76 54.3801 25.5C51.9101 25.97 49.4301 25.92 47.0201 25.18C43.2401 24.02 40.9401 21.41 40.0201 17.62C39.6401 16.06 39.5401 14.44 39.3101 12.84C39.3601 12.85 39.4101 12.84 39.4601 12.83ZM57.7501 12.93C57.7901 12.92 57.8301 12.92 57.8701 12.91C57.6901 11.62 57.5901 10.32 57.3101 9.05005C56.9601 7.46005 56.1801 6.09005 54.7201 5.23005C51.0801 3.08005 46.5401 4.88005 45.4501 8.95005C44.7601 11.53 44.7701 14.15 45.4301 16.74C46.2101 19.76 48.0101 21.2 51.1201 21.37C54.0801 21.54 56.2201 20.08 57.1601 17.27C57.6301 15.86 57.7601 14.4 57.7501 12.93Z" fill="white"/>
<path d="M20.9201 25.3701C20.9101 25.2101 20.9001 25.0501 20.9001 24.8901C20.9001 16.9301 20.9001 8.98013 20.8901 1.02013C20.8901 0.530127 21.0001 0.380127 21.5101 0.380127C25.8901 0.400127 30.2701 0.400127 34.6401 0.380127C35.1101 0.380127 35.3001 0.470127 35.2801 1.00013C35.2401 2.21013 35.2701 3.41013 35.2701 4.70013C32.2201 4.70013 29.2201 4.70013 26.1701 4.70013C26.1601 4.93013 26.1401 5.09013 26.1401 5.25013C26.1401 6.74013 26.1501 8.22013 26.1301 9.71013C26.1201 10.1401 26.2401 10.2701 26.6801 10.2601C29.1001 10.2401 31.5201 10.2501 33.9301 10.2501C34.1401 10.2501 34.3501 10.2501 34.5901 10.2501C34.5901 11.6901 34.5901 13.0901 34.5901 14.5401C34.3901 14.5401 34.2201 14.5401 34.0401 14.5401C31.6101 14.5401 29.1701 14.5601 26.7401 14.5301C26.2201 14.5201 26.1201 14.6901 26.1201 15.1701C26.1501 16.9301 26.1501 18.7001 26.1201 20.4601C26.1101 20.9901 26.2901 21.0701 26.7601 21.0701C29.3901 21.0501 32.0201 21.0601 34.6501 21.0601C34.8301 21.0601 35.0001 21.0601 35.2201 21.0601C35.2201 22.5201 35.2201 23.9301 35.2201 25.3801C30.4801 25.3701 25.7201 25.3701 20.9201 25.3701Z" fill="white"/>
<path d="M16.12 1.86994C15.56 3.19994 15.01 4.53994 14.45 5.88994C13.46 5.54993 12.51 5.17993 11.53 4.88994C10.25 4.50993 8.95 4.30994 7.61 4.53994C6.56 4.70994 5.78 5.24994 5.49 6.30994C5.19 7.38994 5.5 8.35993 6.44 8.97993C7.39 9.59993 8.41 10.1299 9.42 10.6499C10.98 11.4399 12.53 12.2199 13.91 13.3199C17.52 16.2099 17.13 22.6399 12.32 24.7299C10.24 25.6399 8.06 25.8099 5.84 25.6799C3.96 25.5699 2.13 25.1799 0.39 24.3999C0.1 24.2699 0 24.1099 0 23.7799C0.02 22.3299 0.01 20.8799 0.01 19.3799C1 19.7599 1.94 20.1399 2.88 20.4899C4.33 21.0199 5.82 21.4099 7.37 21.3899C8.12 21.3799 8.92 21.2799 9.62 21.0199C11.26 20.3999 11.68 18.3699 10.44 17.1199C9.95 16.6299 9.35 16.2299 8.75 15.8899C7.15 15.0099 5.49 14.2399 3.91 13.3199C2.24 12.3399 0.96 10.9299 0.51 9.00994C-0.42 4.99994 1.35 1.37994 5.89 0.359935C8.87 -0.310065 11.76 0.119935 14.58 1.19994C15.05 1.37994 15.52 1.56994 15.99 1.75994C16.03 1.77994 16.06 1.81994 16.12 1.86994Z" fill="white"/>
</g>
<defs>
<clipPath id="clip0_4207_13768">
<rect width="63.29" height="25.81" fill="white"/>
</clipPath>
</defs>
</svg>
