<svg width="69" height="69" viewBox="0 0 69 69" fill="none" xmlns="http://www.w3.org/2000/svg">
<g clip-path="url(#clip0_4271_13314)">
<path d="M50.74 38.53C46.76 45.33 39.38 49.91 30.95 49.91C22.61 49.91 15.3 45.43 11.29 38.76" stroke="white" stroke-width="2" stroke-miterlimit="10" stroke-linecap="round" stroke-linejoin="round"/>
<path d="M17.0596 38.75C20.3996 42.69 25.3796 45.19 30.9396 45.19C36.4896 45.19 41.4796 42.69 44.8196 38.75" stroke="white" stroke-width="2" stroke-miterlimit="10" stroke-linecap="round" stroke-linejoin="round"/>
<path d="M42.1396 46.3201L54.2796 64.5301C56.6696 68.1201 61.6897 68.7601 64.9097 65.8901C67.9597 63.1701 68.0896 58.4601 65.2096 55.5701L50.0296 40.3901" stroke="white" stroke-width="2" stroke-miterlimit="10" stroke-linejoin="round"/>
<path d="M11.49 23.73V33.09H8.35V25.94H3.14V33.09H0V23.73H11.49Z" fill="#F7941D"/>
<path d="M21.54 24.17C22.47 24.6 23.2 25.18 23.73 25.93C24.26 26.68 24.52 27.52 24.52 28.45C24.52 29.38 24.26 30.21 23.73 30.96C23.2 31.7 22.48 32.29 21.55 32.71C20.62 33.14 19.58 33.35 18.42 33.35C17.31 33.35 16.28 33.14 15.33 32.71C14.39 32.28 13.64 31.7 13.08 30.95C12.53 30.2 12.25 29.37 12.25 28.45C12.25 27.52 12.53 26.68 13.08 25.93C13.63 25.18 14.38 24.59 15.32 24.16C16.26 23.73 17.29 23.52 18.4 23.52C19.57 23.53 20.61 23.74 21.54 24.17ZM19.78 30.68C20.21 30.48 20.57 30.19 20.84 29.81C21.11 29.43 21.24 28.98 21.24 28.46C21.24 27.94 21.1 27.48 20.83 27.1C20.56 26.72 20.2 26.42 19.76 26.23C19.32 26.03 18.87 25.93 18.39 25.93C17.91 25.93 17.45 26.03 17.02 26.23C16.59 26.43 16.24 26.73 15.98 27.11C15.71 27.49 15.58 27.94 15.58 28.46C15.58 28.98 15.71 29.43 15.98 29.81C16.25 30.19 16.6 30.48 17.04 30.68C17.47 30.88 17.93 30.98 18.41 30.98C18.89 30.98 19.35 30.88 19.78 30.68Z" fill="#F7941D"/>
<path d="M28.42 23.73V29.54L33.61 23.73H36.72V33.09H33.61V27.27L28.42 33.09H25.29V23.73H28.42Z" fill="#F7941D"/>
<path d="M38.3297 25.9C38.8797 25.15 39.6397 24.56 40.5897 24.14C41.5497 23.71 42.6097 23.5 43.7697 23.5C44.8197 23.5 45.7597 23.67 46.5997 24C47.4397 24.33 48.1397 24.8 48.6797 25.4C49.2197 26 49.5797 26.71 49.7597 27.52H46.5197C46.3897 27.18 46.1797 26.89 45.8797 26.64C45.5797 26.39 45.2497 26.2 44.8697 26.08C44.4997 25.95 44.1397 25.89 43.7797 25.89C43.2797 25.89 42.7997 25.99 42.3297 26.19C41.8597 26.39 41.4797 26.69 41.1897 27.07C40.8997 27.45 40.7497 27.91 40.7497 28.43C40.7497 28.95 40.8897 29.41 41.1797 29.79C41.4697 30.17 41.8397 30.46 42.2997 30.66C42.7597 30.86 43.2497 30.96 43.7697 30.96C44.3497 30.96 44.8897 30.82 45.3797 30.54C45.8697 30.26 46.2397 29.87 46.4697 29.35H49.7197C49.5297 30.15 49.1697 30.85 48.6297 31.46C48.0897 32.06 47.3997 32.53 46.5697 32.86C45.7397 33.19 44.7897 33.35 43.7497 33.35C42.5897 33.35 41.5397 33.13 40.5797 32.7C39.6197 32.27 38.8697 31.68 38.3097 30.93C37.7497 30.18 37.4697 29.34 37.4697 28.42C37.4997 27.49 37.7797 26.65 38.3297 25.9Z" fill="#F7941D"/>
<path d="M56.2 28.02L61.3 33.09H57.47L53.67 29.17V33.09H50.54V23.73H53.67V26.98L57.24 23.73H61.11L56.2 28.02Z" fill="#F7941D"/>
<path d="M40.3703 20.66C38.8403 18.49 36.5703 16.82 33.8103 16.09C29.1303 14.85 24.3603 16.63 21.5703 20.23" stroke="#F7941D" stroke-width="2" stroke-miterlimit="10" stroke-linecap="round" stroke-linejoin="round"/>
<path d="M56.1003 19.14L54.7303 15.28C54.3703 14.25 53.2403 13.72 52.2203 14.08L46.7003 16.04C44.7103 13.19 41.9703 10.86 38.6703 9.35005L39.3403 4.15004C39.4803 3.07004 38.7203 2.08004 37.6403 1.95004L30.4903 1.03004C29.4103 0.890045 28.4203 1.65004 28.2803 2.73004L27.6403 7.70004C24.1603 8.18004 20.9003 9.57005 18.1603 11.68L13.9103 8.63004C13.0303 7.99004 11.8003 8.20004 11.1603 9.08004L6.95031 14.93C6.32031 15.81 6.52031 17.04 7.40031 17.68L11.5703 20.68" stroke="white" stroke-width="2" stroke-miterlimit="10" stroke-linecap="round" stroke-linejoin="round"/>
</g>
<defs>
<clipPath id="clip0_4271_13314">
<rect width="68.29" height="68.69" fill="white"/>
</clipPath>
</defs>
</svg>
