<svg width="67" height="67" viewBox="0 0 67 67" fill="none" xmlns="http://www.w3.org/2000/svg">
<g clip-path="url(#clip0_2396_75828)">
<path d="M34.5918 60.9969H4.70169C3.0091 60.9969 1.63818 59.626 1.63818 57.9334V5.55765C1.63818 3.86506 3.0091 2.49414 4.70169 2.49414H41.6553C43.3479 2.49414 44.7188 3.86506 44.7188 5.55765V28.3414" stroke="white" stroke-width="2" stroke-linecap="round" stroke-linejoin="round"/>
<path d="M50.9173 65.4111C63.9117 60.5631 65.4843 46.3535 65.3567 38.8454C65.3107 36.1929 63.1407 34.0688 60.4882 34.0688H39.881C37.2285 34.0688 35.0586 36.1903 35.0126 38.8454C34.885 46.3535 36.4576 60.5656 49.4519 65.4111C49.9242 65.5872 50.445 65.5872 50.9199 65.4111H50.9173Z" stroke="white" stroke-width="2" stroke-linecap="round" stroke-linejoin="round"/>
<path d="M44.6602 51.8117L47.3126 54.3569L56.1151 43.1675" stroke="white" stroke-width="2" stroke-linecap="round" stroke-linejoin="round"/>
<path d="M8.27075 22.9404H38.0864" stroke="white" stroke-width="2" stroke-linecap="round" stroke-linejoin="round"/>
<path d="M8.27075 27.7656H38.0864" stroke="white" stroke-width="2" stroke-linecap="round" stroke-linejoin="round"/>
<path d="M8.27075 32.5933H30.6778" stroke="white" stroke-width="2" stroke-linecap="round" stroke-linejoin="round"/>
<path d="M8.27075 41.3931H26.9505" stroke="white" stroke-width="2" stroke-linecap="round" stroke-linejoin="round"/>
<path d="M8.27075 45.8198H26.9505" stroke="white" stroke-width="2" stroke-linecap="round" stroke-linejoin="round"/>
<path d="M8.27075 53.374H14.9543" stroke="white" stroke-width="2" stroke-linecap="round" stroke-linejoin="round"/>
<path d="M10.5953 13.2447H8.90058L8.89489 12.039H10.3394C10.5669 12.039 10.7527 12.0011 10.8967 11.9253C11.0446 11.8457 11.1526 11.73 11.2209 11.5784C11.2929 11.4229 11.3289 11.2353 11.3289 11.0154C11.3289 10.7613 11.2967 10.5585 11.2323 10.4069C11.1678 10.2514 11.0635 10.1377 10.9195 10.0656C10.7754 9.9936 10.5877 9.95758 10.3565 9.95758H9.46928V16.856H7.80298V8.57563H10.3565C10.7697 8.57563 11.1394 8.62112 11.4654 8.71212C11.7915 8.80311 12.0683 8.94149 12.2957 9.12727C12.5232 9.31305 12.6957 9.54811 12.8133 9.83246C12.9346 10.1168 12.9952 10.4523 12.9952 10.8391C12.9952 11.1803 12.927 11.495 12.7905 11.7831C12.654 12.0713 12.4398 12.3063 12.1479 12.4883C11.8597 12.6703 11.4825 12.7727 11.0162 12.7954L10.5953 13.2447ZM10.5384 16.856H8.42855L9.09394 15.4797H10.5384C10.7583 15.4797 10.9365 15.4323 11.073 15.3375C11.2095 15.2427 11.3081 15.1157 11.3688 14.9565C11.4294 14.7935 11.4597 14.6077 11.4597 14.3992C11.4597 14.1641 11.4313 13.9594 11.3744 13.785C11.3214 13.6106 11.2323 13.4779 11.1071 13.3869C10.982 13.2921 10.8133 13.2447 10.601 13.2447H9.16787L9.17924 12.039H10.9195L11.3119 12.5167C11.7555 12.5016 12.11 12.5869 12.3754 12.7727C12.6408 12.9546 12.8303 13.1935 12.9441 13.4892C13.0616 13.7812 13.1204 14.0921 13.1204 14.4219C13.1204 14.9527 13.0199 15.4001 12.8189 15.764C12.6218 16.1242 12.3318 16.3972 11.9488 16.583C11.5659 16.765 11.0958 16.856 10.5384 16.856ZM14.116 8.57563H16.7718C17.3254 8.57563 17.7974 8.67041 18.1879 8.85998C18.5784 9.04955 18.8779 9.33011 19.0865 9.70166C19.295 10.0732 19.3992 10.532 19.3992 11.0779C19.3992 11.5253 19.3386 11.9082 19.2173 12.2267C19.0959 12.5414 18.9234 12.8049 18.6997 13.0172C18.4761 13.2257 18.2088 13.3925 17.8979 13.5177L17.3917 13.8191H15.2363L15.2306 12.4371H16.7263C16.9538 12.4371 17.1415 12.3878 17.2894 12.2893C17.441 12.1869 17.5529 12.0447 17.6249 11.8627C17.7007 11.677 17.7386 11.4609 17.7386 11.2144C17.7386 10.9528 17.7045 10.7291 17.6363 10.5433C17.5718 10.3538 17.4676 10.2097 17.3235 10.1111C17.1832 10.0088 16.9993 9.95758 16.7718 9.95758H15.7823V16.856H14.116V8.57563ZM17.8751 16.856L16.3567 13.1651L18.1026 13.1594L19.6552 16.7763V16.856H17.8751ZM23.3237 10.0543L21.5437 16.856H19.7864L22.374 8.57563H23.4716L23.3237 10.0543ZM24.7284 16.856L22.937 10.0543L22.7721 8.57563H23.8867L26.4971 16.856H24.7284ZM24.791 13.7679V15.1498H21.0546V13.7679H24.791ZM32.8442 8.57563V16.856H31.2348L28.6358 11.6751V16.856H27.0548V8.57563H28.6415L31.2632 13.8134V8.57563H32.8442ZM36.1146 16.856H34.6531L34.6645 15.4797H36.1146C36.5165 15.4797 36.8293 15.4077 37.053 15.2636C37.2767 15.1195 37.434 14.892 37.525 14.5811C37.6198 14.2702 37.6672 13.8627 37.6672 13.3584V12.0675C37.6672 11.6845 37.6426 11.3604 37.5933 11.095C37.544 10.8258 37.4606 10.6097 37.343 10.4467C37.2255 10.2798 37.0682 10.1566 36.871 10.077C36.6739 9.99739 36.4293 9.95758 36.1374 9.95758H34.6246V8.57563H36.1374C36.6151 8.57563 37.0492 8.65335 37.4397 8.8088C37.8302 8.96424 38.1658 9.19172 38.4463 9.49124C38.7269 9.78697 38.943 10.1528 39.0947 10.5888C39.2463 11.0248 39.3221 11.5215 39.3221 12.0788V13.3584C39.3221 13.9195 39.2463 14.4162 39.0947 14.8484C38.943 15.2806 38.7269 15.6465 38.4463 15.946C38.1696 16.2418 37.834 16.4673 37.4397 16.6228C37.0454 16.7782 36.6037 16.856 36.1146 16.856ZM35.6199 8.57563V16.856H33.9536V8.57563H35.6199Z" fill="white"/>
</g>
<defs>
<clipPath id="clip0_2396_75828">
<rect width="67" height="66" fill="white" transform="translate(0 0.855957)"/>
</clipPath>
</defs>
</svg>
