<svg width="56" height="61" viewBox="0 0 56 61" fill="none" xmlns="http://www.w3.org/2000/svg">
<g clip-path="url(#clip0_3480_12551)">
<path d="M54.48 48.3701C54.48 49.5001 48.54 50.4201 41.22 50.4201C33.9 50.4201 27.96 49.5001 27.96 48.3701" stroke="white" stroke-width="2" stroke-miterlimit="10" stroke-linecap="round" stroke-linejoin="round"/>
<path d="M54.48 52.8201C54.48 53.9501 48.54 54.8701 41.22 54.8701C33.9 54.8701 27.96 53.9501 27.96 52.8201" stroke="white" stroke-width="2" stroke-miterlimit="10" stroke-linecap="round" stroke-linejoin="round"/>
<path d="M54.48 53.07V48.79" stroke="white" stroke-width="2" stroke-miterlimit="10" stroke-linecap="round" stroke-linejoin="round"/>
<path d="M27.9502 48.79V52.82" stroke="white" stroke-width="2" stroke-miterlimit="10" stroke-linecap="round" stroke-linejoin="round"/>
<path d="M54.48 52.8201C54.48 53.9501 48.54 54.8701 41.22 54.8701C33.9 54.8701 27.96 53.9501 27.96 52.8201" stroke="white" stroke-width="2" stroke-miterlimit="10" stroke-linecap="round" stroke-linejoin="round"/>
<path d="M54.48 57.27C54.48 58.4 48.54 59.32 41.22 59.32C33.9 59.32 27.96 58.4 27.96 57.27" stroke="white" stroke-width="2" stroke-miterlimit="10" stroke-linecap="round" stroke-linejoin="round"/>
<path d="M54.48 57.51V53.23" stroke="white" stroke-width="2" stroke-miterlimit="10" stroke-linecap="round" stroke-linejoin="round"/>
<path d="M27.9502 53.23V57.27" stroke="white" stroke-width="2" stroke-miterlimit="10" stroke-linecap="round" stroke-linejoin="round"/>
<path d="M41.2102 45.9001C48.5335 45.9001 54.4702 44.9822 54.4702 43.85C54.4702 42.7179 48.5335 41.8 41.2102 41.8C33.8869 41.8 27.9502 42.7179 27.9502 43.85C27.9502 44.9822 33.8869 45.9001 41.2102 45.9001Z" stroke="white" stroke-width="2" stroke-miterlimit="10" stroke-linecap="round" stroke-linejoin="round"/>
<path d="M54.48 48.3C54.48 49.43 48.54 50.35 41.22 50.35C33.9 50.35 27.96 49.43 27.96 48.3" stroke="white" stroke-width="2" stroke-miterlimit="10" stroke-linecap="round" stroke-linejoin="round"/>
<path d="M54.48 48.55V44.27" stroke="white" stroke-width="2" stroke-miterlimit="10" stroke-linecap="round" stroke-linejoin="round"/>
<path d="M27.9502 44.27V48.3" stroke="white" stroke-width="2" stroke-miterlimit="10" stroke-linecap="round" stroke-linejoin="round"/>
<path d="M46.83 32.28V3.87C46.83 2.28 45.54 1 43.96 1H3.87C2.29 1 1 2.29 1 3.87V59.94L4.77 58.72C6.19 58.26 7.73 58.27 9.14 58.75L10.38 59.17C11.85 59.67 13.45 59.66 14.92 59.14L15.89 58.8C17.35 58.29 18.94 58.27 20.4 58.76" stroke="white" stroke-width="2" stroke-miterlimit="10" stroke-linecap="round" stroke-linejoin="round"/>
<path d="M35.77 8.40991H41.21" stroke="white" stroke-width="2" stroke-miterlimit="10" stroke-linecap="round"/>
<path d="M6.56982 8.40991H20.5298" stroke="white" stroke-width="2" stroke-miterlimit="10" stroke-linecap="round"/>
<path d="M35.77 14.3201H41.21" stroke="white" stroke-width="2" stroke-miterlimit="10" stroke-linecap="round"/>
<path d="M6.56982 14.3201H18.7298" stroke="white" stroke-width="2" stroke-miterlimit="10" stroke-linecap="round"/>
<path d="M35.77 20.23H41.21" stroke="white" stroke-width="2" stroke-miterlimit="10" stroke-linecap="round"/>
<path d="M6.56982 20.23H29.9498" stroke="white" stroke-width="2" stroke-miterlimit="10" stroke-linecap="round"/>
<path d="M35.77 26.1399H41.21" stroke="white" stroke-width="2" stroke-miterlimit="10" stroke-linecap="round"/>
<path d="M6.56982 26.1399H21.7898" stroke="white" stroke-width="2" stroke-miterlimit="10" stroke-linecap="round"/>
<path d="M35.77 32.05H41.21" stroke="white" stroke-width="2" stroke-miterlimit="10" stroke-linecap="round"/>
<path d="M6.56982 32.05H15.3398" stroke="white" stroke-width="2" stroke-miterlimit="10" stroke-linecap="round"/>
<path d="M6.93994 53.1399C6.93994 50.3699 6.93994 47.6199 6.93994 44.8299C7.29994 44.8299 7.64994 44.8199 7.99994 44.8399C8.03994 44.8399 8.10994 44.9799 8.10994 45.0499C8.11994 45.7499 8.11994 46.4499 8.10994 47.1499C8.10994 47.3699 8.15994 47.4499 8.38994 47.4399C9.71994 47.4299 11.0499 47.4399 12.3799 47.4299C12.5899 47.4299 12.6499 47.4799 12.6399 47.6899C12.6299 49.4199 12.6399 51.1599 12.6399 52.8899C12.6399 53.0299 12.6499 53.1499 12.4399 53.1399C10.6599 53.1299 8.87994 53.1399 7.09994 53.1299C7.05994 53.1499 7.01994 53.1499 6.93994 53.1399ZM11.2599 51.7699C11.2599 50.7799 11.2599 49.8099 11.2599 48.8399C10.2699 48.8399 9.29994 48.8399 8.32994 48.8399C8.32994 49.8299 8.32994 50.7999 8.32994 51.7699C9.30994 51.7699 10.2699 51.7699 11.2599 51.7699Z" fill="#F7941D"/>
<path d="M6.95002 37.71C8.85002 37.71 10.73 37.71 12.63 37.71C12.64 37.78 12.65 37.86 12.65 37.93C12.65 39.68 12.65 41.43 12.66 43.18C12.66 43.39 12.59 43.44 12.4 43.43C11.99 43.42 11.57 43.43 11.16 43.42C10.99 43.42 10.94 43.48 10.94 43.64C10.95 44.33 10.94 45.02 10.94 45.71C10.94 45.8 10.94 45.89 10.94 46.01C10.57 46.01 10.22 46.02 9.87002 46C9.83002 46 9.78002 45.87 9.78002 45.79C9.77002 45.1 9.78002 44.41 9.78002 43.72C9.78002 43.42 9.78002 43.42 9.49002 43.42C8.72002 43.42 7.96002 43.42 7.19002 43.42C7.03002 43.42 6.95002 43.39 6.95002 43.2C6.96002 41.43 6.95002 39.65 6.95002 37.88C6.93002 37.84 6.94002 37.79 6.95002 37.71ZM8.33002 39.09C8.32002 39.14 8.31002 39.16 8.31002 39.18C8.31002 40.08 8.31002 40.98 8.30002 41.88C8.30002 42.05 8.39002 42.06 8.51002 42.06C9.36002 42.06 10.21 42.06 11.06 42.06C11.23 42.06 11.28 42 11.27 41.83C11.26 40.97 11.27 40.12 11.27 39.26C11.27 39.2 11.26 39.15 11.25 39.08C10.27 39.09 9.31002 39.09 8.33002 39.09Z" fill="#F7941D"/>
<path d="M16.68 37.72C18.58 37.72 20.47 37.72 22.37 37.72C22.37 37.8 22.38 37.87 22.38 37.94C22.38 39.68 22.38 41.43 22.39 43.17C22.39 43.38 22.32 43.43 22.12 43.43C20.39 43.42 18.66 43.43 16.94 43.43C16.77 43.43 16.66 43.42 16.67 43.19C16.68 41.43 16.67 39.67 16.68 37.92C16.66 37.86 16.67 37.8 16.68 37.72ZM18.07 39.08C18.05 39.13 18.04 39.15 18.04 39.17C18.04 40.09 18.04 41 18.03 41.92C18.03 42.07 18.12 42.07 18.23 42.07C19.09 42.07 19.94 42.07 20.8 42.07C20.95 42.07 21.01 42.02 21.01 41.86C21 41 21 40.15 21.01 39.29C21.01 39.12 20.95 39.08 20.79 39.08C19.99 39.09 19.18 39.08 18.38 39.08C18.27 39.08 18.17 39.08 18.07 39.08Z" fill="#F7941D"/>
<path d="M15.8101 45.8101C15.8101 45.4401 15.8001 45.1101 15.8201 44.7801C15.8201 44.7301 15.9101 44.6401 15.9601 44.6401C16.6701 44.6301 17.3701 44.6301 18.0801 44.6401C18.1301 44.6401 18.2101 44.7501 18.2201 44.8101C18.2401 45.0601 18.2301 45.3001 18.2301 45.5501C18.2301 45.8601 18.2301 45.8601 18.5501 45.8601C18.8401 45.8601 19.1301 45.8601 19.4401 45.8601C19.4401 46.5801 19.4401 47.2601 19.4401 47.9501C19.0601 47.9901 18.6801 48.0301 18.2601 48.0801C18.2601 47.8101 18.2501 47.5301 18.2601 47.2601C18.2701 47.0801 18.2001 47.0301 18.0301 47.0301C17.7601 47.0401 17.4901 47.0301 17.2201 47.0301C17.0901 47.0301 17.0301 46.9901 17.0401 46.8501C17.0501 46.6101 17.0401 46.3701 17.0401 46.1301C17.0401 45.8101 17.0401 45.8101 16.7001 45.8101C16.4101 45.8101 16.1301 45.8101 15.8101 45.8101Z" fill="#F7941D"/>
<path d="M14.05 46.04C14.44 46.04 14.84 46.04 15.25 46.04C15.25 46.49 15.25 46.89 15.25 47.32C15.66 47.32 16.05 47.32 16.47 47.32C16.47 47.76 16.47 48.16 16.47 48.56C16.47 48.83 16.47 49.1 16.47 49.37C16.47 49.63 16.36 49.73 16.1 49.73C15.84 49.73 15.58 49.73 15.28 49.73C15.28 49.31 15.28 48.91 15.28 48.47C14.94 48.47 14.63 48.46 14.31 48.47C14.11 48.48 14.04 48.42 14.04 48.21C14.07 47.49 14.06 46.76 14.05 46.04Z" fill="#F7941D"/>
<path d="M14.0798 39.99C14.4698 39.99 14.8498 39.99 15.2398 39.99C15.2498 40.06 15.2498 40.11 15.2498 40.16C15.2498 41.24 15.2498 42.32 15.2498 43.4C15.2498 43.55 15.2098 43.62 15.0498 43.61C14.7798 43.6 14.5098 43.6 14.2398 43.61C14.1098 43.61 14.0498 43.57 14.0498 43.43C14.0598 42.31 14.0498 41.19 14.0498 40.07C14.0598 40.05 14.0698 40.03 14.0798 39.99Z" fill="#F7941D"/>
<path d="M19.98 44.52C20.78 44.52 21.56 44.52 22.36 44.52C22.36 44.91 22.36 45.29 22.36 45.68C21.56 45.68 20.78 45.68 19.98 45.68C19.98 45.3 19.98 44.92 19.98 44.52Z" fill="#F7941D"/>
<path d="M14.0599 46.0301C13.6599 46.0301 13.2699 46.0301 12.8599 46.0301C12.8599 45.6301 12.8599 45.2501 12.8599 44.8301C13.2199 44.8301 13.5799 44.8301 13.9399 44.8401C13.9699 44.8401 14.0199 44.9501 14.0299 45.0101C14.0399 45.3501 14.0399 45.7001 14.0599 46.0301Z" fill="#F7941D"/>
<path d="M14.1201 49.8C14.4801 49.8 14.8201 49.8001 15.1601 49.8101C15.2001 49.8101 15.2701 49.89 15.2801 49.93C15.2901 50.24 15.2901 50.54 15.2801 50.85C15.2801 50.9 15.2001 50.98 15.1501 50.98C14.8101 50.99 14.4801 50.9901 14.1201 50.9901C14.1201 50.5901 14.1201 50.22 14.1201 49.8Z" fill="#F7941D"/>
<path d="M21.7399 48.3399C21.1699 48.3399 21.1699 48.3399 21.1699 47.7799C21.1699 47.1699 21.1699 47.1699 21.7899 47.1699C22.3399 47.1699 22.3399 47.1699 22.3399 47.7299C22.3499 48.3399 22.3499 48.3399 21.7399 48.3399Z" fill="#F7941D"/>
<path d="M10.37 49.72C10.37 50.11 10.37 50.49 10.37 50.88C9.97996 50.88 9.59996 50.88 9.20996 50.88C9.20996 50.5 9.20996 50.12 9.20996 49.72C9.57996 49.72 9.95996 49.72 10.37 49.72Z" fill="#F7941D"/>
<path d="M9.2002 41.14C9.2002 40.75 9.2002 40.38 9.2002 39.99C9.5902 39.99 9.9802 39.99 10.3702 39.99C10.3702 40.38 10.3702 40.75 10.3702 41.14C9.9902 41.14 9.6102 41.14 9.2002 41.14Z" fill="#F7941D"/>
<path d="M20.1102 39.97C20.1102 40.38 20.1102 40.75 20.1102 41.14C19.7202 41.14 19.3402 41.14 18.9302 41.14C18.9302 40.79 18.9302 40.44 18.9302 40.09C18.9302 40.05 19.0002 39.98 19.0302 39.98C19.3902 39.97 19.7402 39.97 20.1102 39.97Z" fill="#F7941D"/>
<path d="M20.1102 49.7899C20.1102 50.1999 20.1102 50.5699 20.1102 50.9599C19.7202 50.9599 19.3402 50.9599 18.9302 50.9599C18.9302 50.6099 18.9302 50.2599 18.9302 49.9099C18.9302 49.8699 19.0002 49.7999 19.0302 49.7999C19.3902 49.7799 19.7402 49.7899 20.1102 49.7899Z" fill="#F7941D"/>
</g>
<defs>
<clipPath id="clip0_3480_12551">
<rect width="55.48" height="60.95" fill="white"/>
</clipPath>
</defs>
</svg>
