<svg width="64" height="56" viewBox="0 0 64 56" fill="none" xmlns="http://www.w3.org/2000/svg">
<g clip-path="url(#clip0_4203_13434)">
<path d="M18.3001 6.09003C18.9101 6.28003 19.5201 6.46003 20.1201 6.67003C20.5201 6.81003 20.8701 6.77003 21.2401 6.56003C21.8001 6.24003 22.3801 5.96003 22.9501 5.64003C24.4101 4.83003 25.9701 4.72003 27.5801 4.95003C28.0001 5.01003 28.4001 5.12003 28.8001 5.25003C28.9001 5.28003 29.0001 5.32003 29.1001 5.28003C30.2901 4.80003 31.4701 4.97003 32.6701 5.27003C34.2201 5.65003 35.7901 5.99003 37.3401 6.37003C37.8301 6.49003 38.3101 6.51003 38.8001 6.41003C39.5301 6.25003 40.2701 6.12003 41.0001 5.98003C41.2601 6.44003 41.5601 6.88003 41.7601 7.37003C41.0801 7.49003 40.4001 7.59003 39.7301 7.75003C38.6901 8.00003 37.6601 8.00003 36.5901 7.73003C34.8301 7.27003 33.0601 6.88003 31.2801 6.51003C30.4501 6.34003 29.6501 6.50003 28.9901 7.08003C27.5201 8.36003 26.0601 9.66003 24.5901 10.95C24.4901 11.04 24.4301 11.13 24.4001 11.25C23.8301 13.26 23.2601 15.28 22.6801 17.29C22.6201 17.48 22.6601 17.57 22.8401 17.64C23.4701 17.89 24.0901 17.87 24.7001 17.6C25.4801 17.26 25.9001 16.6 26.2201 15.85C26.6701 14.8 27.1301 13.76 27.5701 12.71C27.7101 12.39 27.9301 12.2 28.2601 12.12C29.0701 11.9 29.8801 11.68 30.6901 11.44C31.0101 11.35 31.2901 11.39 31.5601 11.59C32.7601 12.44 33.9701 13.27 35.1801 14.11C37.8301 15.95 40.4901 17.79 43.1401 19.63C43.3301 19.76 43.5301 19.84 43.7601 19.89C44.2101 19.97 44.6401 19.88 45.0501 19.71C46.1701 19.25 47.0301 18.49 47.6901 17.47C48.0301 17.83 48.4201 18.14 48.8201 18.43C47.7601 19.93 46.4301 21.02 44.5701 21.36C44.4501 21.38 44.4301 21.43 44.4501 21.55C44.6601 23.2 43.8601 24.32 42.2301 24.65C42.0201 24.69 42.0001 24.79 42.0201 24.97C42.1501 26.61 40.8001 28.19 39.2301 28.34C39.0801 28.36 39.0601 28.42 39.0501 28.55C38.9401 30.24 37.5201 31.49 35.8401 31.38C35.6801 31.37 35.5801 31.37 35.5301 31.57C35.0801 33.39 33.3001 34.17 31.6501 33.27C31.5101 33.2 31.4001 33.12 31.2301 33.21C29.8801 33.93 28.2901 33.26 27.6501 31.93C27.5801 31.78 27.5301 31.72 27.3301 31.78C25.9101 32.22 24.3501 31.48 23.7901 30.08C23.7001 29.86 23.6201 29.83 23.3901 29.87C21.8401 30.16 20.2901 29.12 19.9601 27.58C19.9101 27.36 19.8501 27.27 19.5901 27.27C18.1101 27.31 16.8301 26.23 16.6201 24.77C16.5801 24.52 16.4801 24.41 16.2601 24.31C15.1301 23.79 14.1401 23.06 13.2001 22.25C12.1501 21.34 11.1901 20.34 10.4101 19.18C10.3001 19.02 10.2101 18.84 10.1201 18.68C10.5401 18.43 10.9301 18.14 11.3101 17.83C12.0301 19.11 13.0501 20.14 14.1401 21.11C14.9101 21.79 15.7101 22.43 16.6001 22.96C16.8501 23.11 17.0101 23.12 17.1801 22.83C17.5301 22.25 17.9801 21.76 18.6301 21.5C19.8901 21 21.3901 21.51 22.1501 22.72C22.2201 22.83 22.2501 22.99 22.4601 22.86C23.9201 21.92 25.8201 22.7 26.5201 24.07C26.6201 24.26 26.7001 24.28 26.8901 24.21C28.4501 23.65 30.2901 24.66 30.6201 26.28C30.6901 26.65 30.7901 26.86 31.1601 27.08C32.5201 27.87 33.8201 28.76 35.1301 29.62C35.4701 29.84 35.8101 29.94 36.2101 29.91C36.8001 29.86 37.3701 29.38 37.5201 28.8C37.6401 28.33 37.4401 27.96 36.8601 27.57C34.2501 25.79 31.6401 24.01 29.0401 22.24C28.5901 21.93 28.4801 21.52 28.7401 21.14C28.9901 20.77 29.4301 20.72 29.8801 21.02C30.5401 21.46 31.1901 21.91 31.8401 22.36C33.9101 23.77 35.9901 25.18 38.0601 26.6C39.2701 27.42 40.4001 26.34 40.5201 25.4C40.6001 24.76 40.3001 24.33 39.7801 23.99C37.8501 22.71 35.9401 21.41 34.0201 20.12C33.5301 19.79 33.0401 19.47 32.5601 19.14C32.1701 18.87 32.0801 18.44 32.3101 18.1C32.5501 17.74 32.9701 17.67 33.3701 17.91C33.4701 17.97 33.5801 18.05 33.6801 18.11C35.9901 19.66 38.3001 21.22 40.6201 22.77C40.9501 22.99 41.2901 23.17 41.6901 23.23C42.4901 23.34 43.1401 22.69 43.0001 21.9C42.9301 21.53 42.7201 21.24 42.4201 21.02C41.7201 20.52 41.0101 20.02 40.3001 19.53C37.2301 17.39 34.1501 15.26 31.0801 13.12C30.9301 13.01 30.8001 13 30.6301 13.05C30.1201 13.21 29.6101 13.36 29.0901 13.48C28.8901 13.53 28.8001 13.62 28.7201 13.8C28.3201 14.75 27.9101 15.69 27.5001 16.63C27.2901 17.11 27.0201 17.56 26.6801 17.97C25.3301 19.58 22.8501 19.82 21.3201 18.48C21.0401 18.23 20.9601 17.94 21.0501 17.6C21.7101 15.27 22.3801 12.94 23.0401 10.61C23.1001 10.39 23.2101 10.22 23.3801 10.07C24.4801 9.11003 25.5801 8.14003 26.6701 7.18003C26.9201 6.96003 27.1601 6.74003 27.4401 6.49003C25.5801 6.23003 24.5301 6.46003 23.3101 7.16003C22.8301 7.44003 22.3301 7.68003 21.8401 7.95003C21.2801 8.21003 20.6501 8.36003 20.0001 8.16003C19.1801 7.92003 18.3801 7.64003 17.5701 7.38003C17.7801 6.93003 18.0301 6.51003 18.3001 6.09003ZM26.4401 30.42C26.9401 30.41 27.2801 30.19 27.5201 29.83C28.0301 29.05 28.5301 28.26 29.0301 27.47C29.1801 27.22 29.2701 26.95 29.2201 26.65C29.1201 26.08 28.6801 25.65 28.0601 25.52C27.5801 25.42 27.0901 25.63 26.7901 26.14C26.3401 26.91 25.8301 27.65 25.3501 28.4C25.0801 28.81 25.0201 29.24 25.2701 29.68C25.5301 30.14 25.9601 30.37 26.4401 30.42ZM25.3601 25.31C25.3601 24.71 24.9601 24.19 24.3501 23.98C23.7901 23.79 23.2601 23.94 22.9001 24.43C22.4501 25.06 22.0201 25.7 21.6101 26.35C21.1901 27.02 21.4001 27.75 22.0901 28.18C22.7601 28.6 23.4801 28.45 23.9201 27.8C24.3501 27.16 24.7601 26.51 25.1801 25.86C25.3101 25.68 25.3801 25.5 25.3601 25.31ZM19.6801 22.76C19.4201 22.76 19.1901 22.83 18.9901 22.98C18.6301 23.25 18.3701 23.61 18.2101 24.03C18.0101 24.52 18.1201 24.97 18.5101 25.35C19.1801 25.98 20.0301 25.91 20.5801 25.18C20.6601 25.07 20.7301 24.96 20.8101 24.85C21.0901 24.44 21.2001 24.01 20.9501 23.55C20.6801 23.04 20.2401 22.79 19.6801 22.76ZM30.2901 29.35C29.6301 29.35 28.8901 30.11 28.8901 30.78C28.8901 31.39 29.4501 31.99 30.0501 32C30.6801 32.01 31.4601 31.23 31.4701 30.57C31.4801 29.93 30.9201 29.35 30.2901 29.35ZM32.9501 29.91C32.9301 29.92 32.9001 29.93 32.8801 29.94C33.0301 30.64 32.9201 31.29 32.5701 31.9C32.4901 32.04 32.6001 32.06 32.6801 32.08C33.0701 32.21 33.4301 32.17 33.7401 31.87C34.0501 31.57 34.1901 31.19 34.1301 30.75C34.1201 30.7 34.0801 30.63 34.0301 30.6C33.6701 30.37 33.3101 30.14 32.9501 29.91Z" fill="white"/>
<path d="M18.2999 6.09C18.0299 6.51 17.7799 6.94 17.5599 7.39C17.4999 7.48 17.4399 7.56 17.3899 7.65C15.9299 10.22 14.4599 12.79 12.9999 15.35C12.5099 16.21 12.0499 17.1 11.3299 17.81C10.9499 18.12 10.5599 18.41 10.1399 18.66C9.46988 18.96 8.78988 19.2 8.04988 19.27C6.93988 19.38 5.88988 19.2 4.91988 18.67C3.40988 17.84 1.90988 16.98 0.419876 16.12C-0.0401242 15.85 -0.120124 15.47 0.169876 14.96C1.71988 12.23 3.27988 9.5 4.83988 6.77C5.99988 4.7 7.16988 2.65 8.33988 0.600001C8.71988 -0.0699994 9.03988 -0.149999 9.69988 0.220001C12.4199 1.77 15.1399 3.32 17.8699 4.87C18.4399 5.2 18.5399 5.47 18.2999 6.09ZM7.56988 17.82C9.01988 17.75 10.2699 17.12 11.0599 15.75C12.9099 12.54 14.7299 9.31 16.5699 6.09C16.6699 5.91 16.6199 5.86 16.4699 5.77C14.1799 4.47 11.8999 3.17 9.61988 1.87C9.42988 1.76 9.35988 1.79 9.24988 1.97C6.79988 6.3 4.33988 10.62 1.86988 14.93C1.75988 15.13 1.79988 15.2 1.97988 15.3C3.12988 15.94 4.26988 16.6 5.40988 17.25C6.03988 17.62 6.72988 17.81 7.56988 17.82Z" fill="#F7941D"/>
<path d="M41.7699 7.35996C41.5699 6.86996 41.2599 6.42996 41.0099 5.96996C40.8599 5.42996 40.9599 5.17996 41.4499 4.89996C44.2099 3.31996 46.9799 1.74996 49.7499 0.169961C50.2999 -0.140039 50.6599 -0.0500391 50.9799 0.509961C53.7199 5.30996 56.4499 10.11 59.1799 14.91C59.5099 15.49 59.4099 15.83 58.8399 16.16C57.4499 16.95 56.0699 17.76 54.6599 18.54C52.7799 19.57 50.8899 19.54 49.0199 18.51C48.9599 18.48 48.8899 18.45 48.8299 18.41C48.4299 18.12 48.0399 17.81 47.6999 17.45C47.3699 17.04 47.0799 16.61 46.8199 16.15C45.2099 13.31 43.5899 10.48 41.9799 7.64996C41.9199 7.55996 41.8799 7.43996 41.7699 7.35996ZM51.7699 17.82C52.6199 17.81 53.3199 17.62 53.9599 17.25C55.0899 16.6 56.2199 15.95 57.3599 15.32C57.5799 15.2 57.5899 15.11 57.4699 14.91C56.3499 12.96 55.2399 11 54.1299 9.04996C52.7899 6.69996 51.4499 4.34996 50.1199 1.99996C50.0499 1.87996 50.0199 1.70996 49.7899 1.83996C47.4799 3.15996 45.1699 4.47996 42.8599 5.78996C42.7199 5.86996 42.6999 5.91996 42.7799 6.06996C44.6299 9.31996 46.4699 12.57 48.3399 15.81C49.1099 17.15 50.3499 17.76 51.7699 17.82Z" fill="#F7941D"/>
<path d="M39.4497 34.8999H61.3897C61.9197 34.8999 62.3497 35.3299 62.3497 35.8599V53.5499C62.3497 54.0799 61.9197 54.5099 61.3897 54.5099H31.8697C31.3397 54.5099 30.9097 54.0799 30.9097 53.5499V36.9299" stroke="white" stroke-width="2" stroke-miterlimit="10" stroke-linecap="round" stroke-linejoin="round"/>
<path d="M52.0595 34.82V31.01C52.0595 30.58 51.7095 30.23 51.2795 30.23H42.4695C42.0395 30.23 41.6895 30.58 41.6895 31.01V34.33" stroke="white" stroke-width="2" stroke-miterlimit="10" stroke-linecap="round" stroke-linejoin="round"/>
</g>
<defs>
<clipPath id="clip0_4203_13434">
<rect width="63.35" height="55.51" fill="white"/>
</clipPath>
</defs>
</svg>
