<svg width="58" height="68" viewBox="0 0 58 68" fill="none" xmlns="http://www.w3.org/2000/svg">
<g clip-path="url(#clip0_2401_78232)">
<path d="M15.7887 65.5801H44.435" stroke="white" stroke-width="2" stroke-linecap="round" stroke-linejoin="round"/>
<path d="M13.1152 65.5801H11.0107" stroke="white" stroke-width="2" stroke-linecap="round" stroke-linejoin="round"/>
<path d="M49.5397 65.5801H47.4352" stroke="white" stroke-width="2" stroke-linecap="round" stroke-linejoin="round"/>
<path d="M26.3439 50.7371C26.3439 55.4252 19.7009 61.2868 19.7009 61.2868H40.9746C40.9746 61.2868 34.3317 55.4252 34.3317 50.7371" stroke="white" stroke-width="2" stroke-linecap="round" stroke-linejoin="round"/>
<path d="M8.9525 15.8208H4.94768C3.14265 15.8208 1.68066 17.2828 1.68066 19.0878V47.47C1.68066 49.275 3.14265 50.737 4.94768 50.737H53.4492C55.2543 50.737 56.7163 49.275 56.7163 47.47V19.0878C56.7163 17.2828 55.2543 15.8208 53.4492 15.8208H49.9399" stroke="white" stroke-width="2" stroke-linecap="round" stroke-linejoin="round"/>
<path d="M2.2605 45.5234H56.7162" stroke="white" stroke-width="2" stroke-linecap="round" stroke-linejoin="round"/>
<path d="M9.06689 45.5234V5.20842C9.06689 3.4034 10.5289 1.94141 12.3339 1.94141H46.27C48.0751 1.94141 49.5371 3.4034 49.5371 5.20842V45.5234" stroke="white" stroke-width="2" stroke-linecap="round" stroke-linejoin="round"/>
<path d="M35.9381 17.4924C35.0015 20.871 31.906 23.3485 28.2306 23.3485C23.8147 23.3485 20.2346 19.7684 20.2346 15.3525C20.2346 10.9365 23.8147 7.35645 28.2306 7.35645C30.915 7.35645 33.2891 8.67959 34.7402 10.7079" stroke="white" stroke-width="2" stroke-linecap="round" stroke-linejoin="round"/>
<path d="M33.2128 13.2318L35.2084 14.8734L38.5162 11.0864" stroke="white" stroke-width="2" stroke-linecap="round" stroke-linejoin="round"/>
<path d="M30.3813 12.8614C30.3813 14.1627 29.4448 15.4777 28.2877 15.4777C27.1306 15.4777 26.1941 14.1627 26.1941 12.8614C26.1941 11.56 27.1306 10.5037 28.2877 10.5037C29.4448 10.5037 30.3813 11.56 30.3813 12.8614Z" stroke="white" stroke-width="2" stroke-linecap="round" stroke-linejoin="round"/>
<path d="M33.3979 21.4537C32.4886 19.5452 30.542 18.2275 28.2877 18.2275C26.0335 18.2275 23.9562 19.6351 23.0905 21.647" stroke="white" stroke-width="2" stroke-linecap="round" stroke-linejoin="round"/>
<path d="M16.1726 29.9451H42.434" stroke="white" stroke-width="2" stroke-linecap="round" stroke-linejoin="round"/>
<path d="M22.7665 34.7939H35.84" stroke="white" stroke-width="2" stroke-linecap="round" stroke-linejoin="round"/>
<path d="M26.9728 39.1499H31.6337" stroke="white" stroke-width="2" stroke-linecap="round" stroke-linejoin="round"/>
</g>
<defs>
<clipPath id="clip0_2401_78232">
<rect width="58" height="67" fill="white" transform="translate(0 0.260742)"/>
</clipPath>
</defs>
</svg>
