<svg width="65" height="26" viewBox="0 0 65 26" fill="none" xmlns="http://www.w3.org/2000/svg">
<g clip-path="url(#clip0_4541_13389)">
<path d="M19.4941 13.0254C19.5145 11.7015 19.5654 10.4285 19.7283 9.15546C19.9319 7.60748 20.2678 6.10023 20.899 4.66428C21.3673 3.60513 21.9577 2.63764 22.7925 1.82291C23.8614 0.773951 25.1441 0.173089 26.6406 0.0406957C28.0149 -0.0815134 29.3078 0.152721 30.5192 0.845239C31.5576 1.4461 32.3414 2.29138 32.9726 3.29961C33.6852 4.43004 34.1433 5.6725 34.4589 6.96588C34.7338 8.1065 34.8966 9.2573 34.9883 10.4285C35.0901 11.7117 35.1104 13.0051 35.0595 14.2882C34.9984 16.1825 34.7745 18.0564 34.2248 19.8793C33.8379 21.1523 33.2984 22.3439 32.484 23.403C31.5169 24.6557 30.3054 25.5315 28.7377 25.837C26.1418 26.336 23.9428 25.6333 22.2326 23.566C21.3571 22.5068 20.7972 21.2745 20.39 19.971C20.0642 18.9118 19.8606 17.8323 19.7181 16.7324C19.5552 15.4696 19.5145 14.2271 19.4941 13.0254ZM32.484 12.8828C32.484 12.2514 32.4534 11.5182 32.4025 10.7849C32.3313 9.78688 32.1989 8.78884 31.9648 7.81116C31.7103 6.7011 31.3336 5.64195 30.7228 4.67446C30.4785 4.27728 30.2138 3.90047 29.8677 3.59495C29.0431 2.85151 28.0658 2.54598 26.9663 2.63764C25.8974 2.71911 25.0321 3.1774 24.3501 4.00231C23.6883 4.80685 23.2506 5.73361 22.935 6.72146C22.4158 8.31018 22.2122 9.94982 22.141 11.5996C22.0901 12.9134 22.1002 14.217 22.2122 15.5307C22.314 16.6408 22.4769 17.7407 22.7823 18.81C23.047 19.7469 23.4135 20.6431 23.953 21.468C24.2992 21.9976 24.7064 22.4661 25.2561 22.8123C26.1519 23.3725 27.1292 23.5049 28.1472 23.291C29.0431 23.1077 29.7659 22.629 30.3156 21.906C30.7432 21.356 31.0689 20.7551 31.3438 20.1136C31.8528 18.9118 32.1175 17.649 32.2804 16.3658C32.4229 15.2354 32.484 14.1151 32.484 12.8828Z" fill="white"/>
<path d="M4.31607 23.3723C4.40769 23.3723 4.49931 23.3723 4.58075 23.3723C7.7773 23.3723 10.984 23.3723 14.1806 23.3723C14.5573 23.3723 14.8932 23.4639 15.1681 23.7287C15.5753 24.1259 15.6872 24.6045 15.504 25.1341C15.3309 25.6331 14.8525 25.9692 14.3129 25.9896C14.2722 25.9896 14.2315 25.9896 14.1908 25.9896C9.92531 25.9896 5.65984 25.9896 1.3842 25.9896C1.02789 25.9896 0.702128 25.9081 0.427265 25.6637C-0.122461 25.1647 -0.173362 24.3703 0.315284 23.8102C0.671588 23.4028 1.03807 23.0056 1.40456 22.5983C3.98012 19.7467 6.55569 16.8952 9.13126 14.0436C9.96603 13.1169 10.811 12.1901 11.6457 11.2736C12.4194 10.4181 12.847 9.42005 12.9386 8.25906C13.1626 5.65193 11.5643 3.80861 9.87441 3.05499C9.20252 2.74947 8.50009 2.61707 7.76712 2.62726C5.5784 2.64762 4.02084 3.72714 3.04355 5.69267C2.72797 6.33427 2.61599 7.02679 2.61599 7.74986C2.61599 8.13685 2.49383 8.47293 2.20878 8.7479C1.80158 9.12471 1.31293 9.20618 0.814109 9.0025C0.305104 8.79882 0.0200605 8.39146 0.00988037 7.83133C-0.0104799 5.91672 0.590147 4.20579 1.85248 2.74947C2.86031 1.58848 4.06156 0.743199 5.54786 0.315467C6.51497 0.0404963 7.50244 -0.0307923 8.50009 0.0404963C11.9511 0.284915 14.4046 2.91241 15.1681 5.23439C15.5345 6.33427 15.6363 7.45452 15.5345 8.59514C15.3717 10.4283 14.5878 11.9661 13.3255 13.29C12.5212 14.1251 11.7679 15.0111 10.984 15.8768C9.48756 17.5368 7.99109 19.1968 6.49461 20.867C5.782 21.6511 5.07958 22.4455 4.36697 23.2297C4.35679 23.2602 4.31607 23.2806 4.31607 23.3723Z" fill="#F09224"/>
<path d="M61.3249 11.5486C61.5998 11.7421 61.8543 11.9152 62.0884 12.1087C63.4526 13.229 64.4095 14.614 64.7862 16.3555C65.2646 18.5858 64.9694 20.7041 63.6358 22.5983C62.5771 24.1056 61.1926 25.1953 59.4009 25.6841C57.1307 26.2952 54.942 26.0609 52.9569 24.7472C51.2263 23.5964 50.0556 22.0179 49.5975 19.9607C49.4651 19.3802 49.4244 18.7793 49.4142 18.1886C49.404 17.5878 49.913 16.9156 50.7071 16.9054C51.4095 16.8953 52 17.4656 52.0101 18.1784C52.0203 18.8608 52.1018 19.5329 52.3766 20.1542C53.1707 21.9364 54.5043 23.0668 56.4588 23.3418C59.4111 23.7593 61.4064 21.8651 62.0477 20.0625C63.2286 16.7629 61.1824 13.8909 58.5763 13.1984C58.1182 13.0762 57.6499 13.0151 57.1816 13.0253C56.7642 13.0253 56.4181 12.8522 56.1636 12.5263C55.8379 12.1087 55.787 11.6403 56.0109 11.1718C56.2349 10.7033 56.6115 10.4385 57.1511 10.4283C58.0571 10.4182 58.8817 10.1636 59.5943 9.58307C60.3375 8.97202 60.8465 8.20822 61.0195 7.24073C61.4675 4.73544 59.5841 2.96341 57.8841 2.68844C55.4205 2.28107 53.7204 4.0531 53.3946 5.64182C53.3336 5.92698 53.3132 6.21213 53.303 6.50747C53.2928 6.8741 53.1809 7.19999 52.906 7.45459C52.4988 7.8314 52.0203 7.93325 51.5113 7.72956C50.9819 7.5157 50.6969 7.09815 50.6969 6.51766C50.6969 5.1428 51.0634 3.87997 51.8778 2.76991C52.7533 1.57837 53.8629 0.702536 55.3085 0.295172C58.4847 -0.601028 61.5591 0.753457 63.0556 3.68648C63.6155 4.79654 63.7682 5.9779 63.646 7.21017C63.5035 8.63595 62.8927 9.84786 61.9561 10.9172C61.7729 11.1107 61.5591 11.3245 61.3249 11.5486Z" fill="#F09224"/>
<path d="M42.8885 3.16715C42.7663 3.12641 42.6849 3.18752 42.6034 3.20789C41.9825 3.41157 41.3513 3.62543 40.7303 3.82912C40.0177 4.06335 39.2949 3.69672 39.0608 3.0042C38.8368 2.32187 39.2033 1.58861 39.8955 1.35438C41.0357 0.967384 42.1657 0.590573 43.3059 0.213761C43.5197 0.142472 43.7334 0.0508155 43.9574 0.0100791C44.8125 -0.152866 45.515 0.570204 45.4844 1.24235C45.4844 1.30346 45.4844 1.36456 45.4844 1.42567C45.4844 9.13503 45.4844 16.8546 45.4844 24.5639C45.4844 24.9204 45.4132 25.2259 45.179 25.5009C44.8227 25.9082 44.2832 26.061 43.7742 25.8879C43.2651 25.7147 42.9088 25.2361 42.8885 24.6963C42.8885 24.5945 42.8885 24.4926 42.8885 24.3908C42.8885 17.4045 42.8885 10.4182 42.8885 3.44212C42.8885 3.36065 42.8885 3.25881 42.8885 3.16715Z" fill="white"/>
</g>
<defs>
<clipPath id="clip0_4541_13389">
<rect width="65" height="26" fill="white"/>
</clipPath>
</defs>
</svg>
