<?xml version="1.0" encoding="iso-8859-1"?>
<!-- Generator: Adobe Illustrator 18.0.0, SVG Export Plug-In . SVG Version: 6.00 Build 0)  -->
<!DOCTYPE svg PUBLIC "-//W3C//DTD SVG 1.1//EN" "http://www.w3.org/Graphics/SVG/1.1/DTD/svg11.dtd">
<svg version="1.1" id="&#x421;&#x43B;&#x43E;&#x439;_1"
	 xmlns="http://www.w3.org/2000/svg" xmlns:xlink="http://www.w3.org/1999/xlink" x="0px" y="0px" viewBox="0 0 512 512"
	 style="enable-background:new 0 0 512 512;" xml:space="preserve">
<path style="fill:#9C9B9B;" d="M464.399,512H47.601C21.42,512,0,490.58,0,464.399V47.601C0,21.42,21.42,0,47.601,0h416.798
	C490.58,0,512,21.42,512,47.601v416.798C512,490.58,490.58,512,464.399,512z"/>
<linearGradient id="SVGID_1_" gradientUnits="userSpaceOnUse" x1="256" y1="509.8333" x2="256" y2="2.1667">
	<stop  offset="0" style="stop-color:#F5F5F5"/>
	<stop  offset="1" style="stop-color:#D9D9D9"/>
</linearGradient>
<path style="fill:url(#SVGID_1_);" d="M462.232,509.833H49.768c-26.18,0-47.601-21.42-47.601-47.601V49.768
	c0-26.18,21.42-47.601,47.601-47.601h412.465c26.18,0,47.601,21.42,47.601,47.601v412.465
	C509.833,488.413,488.413,509.833,462.232,509.833z"/>
<g>
	<linearGradient id="SVGID_2_" gradientUnits="userSpaceOnUse" x1="255.9968" y1="121.9824" x2="255.9968" y2="390.0176">
		<stop  offset="0" style="stop-color:#E20613"/>
		<stop  offset="1" style="stop-color:#BD1622"/>
	</linearGradient>
	<path style="fill-rule:evenodd;clip-rule:evenodd;fill:url(#SVGID_2_);" d="M369.52,390.018c-11.924,0-22.468-4.555-29.69-12.825
		c-7.021-8.039-10.164-18.712-8.909-30.168H219.869c-6.385,24.174-30.122,42.993-54.419,42.993c-11.995,0-22.557-4.53-29.74-12.755
		c-7.001-8.017-10.125-18.715-8.859-30.238H98.796l20.319-108.366H68.458l5.122-26.567h174.331l3.704-18.782H52.554l5.126-26.272
		h190.525l3.704-18.782H89.069l5.126-26.273H349.2c3.152,0,5.89,1.22,7.706,3.437c1.848,2.253,2.514,5.249,1.876,8.436
		l-8.888,47.022h44.654c3.704,0,6.834,1.809,8.587,4.964l38.854,68.654h17.449l-7.308,38.366l-2.408,12.577h9.711l-7.758,41.586
		h-27.729C417.85,371.198,394.112,390.018,369.52,390.018z M382.771,319.933c-12.924,0-25.534,10.712-28.11,23.877
		c-1.213,6.204,0.103,12.031,3.705,16.407c3.594,4.363,9.019,6.768,15.276,6.768c12.956,0,25.565-10.579,28.11-23.583
		c1.229-6.281-0.122-12.202-3.803-16.673C394.342,322.347,388.951,319.933,382.771,319.933z M178.701,319.933
		c-13.086,0-25.829,10.712-28.404,23.877c-1.102,6.338,0.314,12.248,3.992,16.62c3.555,4.227,8.878,6.555,14.989,6.555
		c13.238,0,25.846-10.569,28.105-23.562c1.251-6.397-0.087-12.369-3.765-16.837C190.086,322.296,184.789,319.933,178.701,319.933z
		 M413.342,254.79L384.8,204.205h-39.137l-9.607,50.584H413.342z"/>
	<path style="fill:#FFFFFF;" d="M349.201,123.046c5.889,0,9.717,4.712,8.54,10.601l-9.129,48.293h45.938
		c3.534,0,6.184,1.767,7.656,4.417l39.165,69.201h16.785l-7.068,37.103l-2.65,13.84h9.718l-7.362,39.459h-27.68
		c-5.595,23.852-29.153,42.993-53.594,42.993c-24.147,0-40.637-19.141-37.398-42.993H219.044
		c-5.889,23.852-29.447,42.993-53.594,42.993c-24.441,0-40.637-19.141-37.398-42.993h-27.975l20.319-108.366H69.746l4.711-24.441
		h174.328l4.123-20.908H53.845l4.712-24.147H249.08l4.123-20.907H90.359l4.712-24.147h182.867H349.201 M334.771,255.853h80.391
		l-29.742-52.711h-40.637L334.771,255.853 M373.642,368.047c13.546,0,26.503-10.896,29.153-24.441
		c2.65-13.546-6.478-24.736-20.024-24.736c-13.546,0-26.503,11.19-29.153,24.736C350.967,357.151,360.096,368.047,373.642,368.047
		 M169.278,368.047c13.546,0,26.797-10.896,29.153-24.441c2.65-13.546-6.184-24.736-19.73-24.736
		c-13.546,0-26.797,11.19-29.447,24.736C146.898,357.151,155.732,368.047,169.278,368.047 M349.201,120.92h-71.262H95.071H93.32
		l-0.335,1.719l-4.712,24.147l-0.494,2.533h2.581h160.257l-3.284,16.655H58.556h-1.751l-0.335,1.719l-4.712,24.147l-0.494,2.533
		h2.581h196.477l-3.284,16.656H74.458h-1.755l-0.332,1.724l-4.712,24.441l-0.487,2.528h2.575h48.088L97.987,345.57l-0.472,2.518
		h2.562h25.602c-0.966,11.373,2.27,21.906,9.23,29.875c7.388,8.46,18.235,13.118,30.541,13.118
		c24.491,0,48.422-18.757,55.231-42.993h109.068c-0.952,11.307,2.301,21.815,9.279,29.805c7.428,8.505,18.256,13.188,30.491,13.188
		c24.786,0,48.718-18.755,55.25-42.993h26.024h1.766l0.324-1.736l7.362-39.459l0.469-2.516h-2.559h-7.146l2.167-11.314l7.068-37.105
		l0.481-2.524h-2.569H442.61l-38.554-68.122c-1.937-3.487-5.405-5.496-9.507-5.496h-43.372l8.652-45.773
		c0.697-3.483-0.048-6.792-2.101-9.297C355.706,122.278,352.677,120.92,349.201,120.92L349.201,120.92z M346.544,205.268h37.635
		l27.343,48.459h-74.182L346.544,205.268L346.544,205.268z M373.642,365.921c-5.935,0-11.069-2.266-14.456-6.381
		c-3.397-4.126-4.633-9.64-3.482-15.526c2.483-12.692,14.625-23.018,27.066-23.018c5.857,0,10.956,2.276,14.359,6.409
		c3.475,4.22,4.745,9.829,3.579,15.792C398.257,355.727,386.115,365.921,373.642,365.921L373.642,365.921z M169.278,365.921
		c-5.792,0-10.826-2.193-14.176-6.175c-3.472-4.128-4.805-9.731-3.754-15.776c2.433-12.433,14.963-22.974,27.353-22.974
		c5.764,0,10.77,2.225,14.096,6.266c3.473,4.218,4.732,9.877,3.547,15.936C194.161,355.747,182.023,365.921,169.278,365.921
		L169.278,365.921z"/>
</g>
</svg>
