<svg width="66" height="52" viewBox="0 0 66 52" fill="none" xmlns="http://www.w3.org/2000/svg">
<g clip-path="url(#clip0_4207_13826)">
<path d="M51.54 41.31C58.91 40.65 64.68 34.46 64.68 26.92C64.68 19.93 59.71 14.1 53.11 12.76C51.85 6.07 45.98 1 38.93 1C33.14 1 28.15 4.42 25.85 9.34C24.89 9.06 23.87 8.9 22.82 8.9C16.88 8.9 12.07 13.64 11.92 19.54H11.91C5.88 19.55 1 24.43 1 30.46C1 35.73 4.74 40.13 9.71 41.15" stroke="white" stroke-width="2" stroke-miterlimit="10" stroke-linecap="round" stroke-linejoin="round"/>
<path d="M16.3398 43.86V50.55C16.3398 51 16.7098 51.37 17.1598 51.37H45.6998C46.1498 51.37 46.5198 51 46.5198 50.55V43.86C46.5198 43.41 46.1498 43.04 45.6998 43.04H17.1598C16.7098 43.04 16.3398 43.41 16.3398 43.86ZM21.0498 49.29H19.2298V44.84H21.0498V49.29ZM24.8298 49.29H23.0098V44.84H24.8298V49.29ZM41.5398 49.29C40.3198 49.29 39.3298 48.3 39.3298 47.08C39.3298 45.86 40.3198 44.87 41.5398 44.87C42.7598 44.87 43.7498 45.86 43.7498 47.08C43.7598 48.29 42.7598 49.29 41.5398 49.29Z" fill="#F7941D"/>
<path d="M16.3398 34.2099V40.8999C16.3398 41.3499 16.7098 41.7199 17.1598 41.7199H45.6998C46.1498 41.7199 46.5198 41.3499 46.5198 40.8999V34.2099C46.5198 33.7599 46.1498 33.3899 45.6998 33.3899H17.1598C16.7098 33.3899 16.3398 33.7599 16.3398 34.2099ZM21.0498 39.6399H19.2298V35.1999H21.0498V39.6399ZM24.8298 39.6399H23.0098V35.1999H24.8298V39.6399ZM41.5398 39.6299C40.3198 39.6299 39.3298 38.6399 39.3298 37.4199C39.3298 36.1999 40.3198 35.2099 41.5398 35.2099C42.7598 35.2099 43.7498 36.1999 43.7498 37.4199C43.7598 38.6399 42.7598 39.6299 41.5398 39.6299Z" fill="#F7941D"/>
<path d="M16.3398 24.56V31.25C16.3398 31.7 16.7098 32.07 17.1598 32.07H45.6998C46.1498 32.07 46.5198 31.7 46.5198 31.25V24.56C46.5198 24.11 46.1498 23.74 45.6998 23.74H17.1598C16.7098 23.74 16.3398 24.11 16.3398 24.56ZM21.0498 29.99H19.2298V25.54H21.0498V29.99ZM24.8298 29.99H23.0098V25.54H24.8298V29.99ZM41.5398 29.98C40.3198 29.98 39.3298 28.99 39.3298 27.77C39.3298 26.55 40.3198 25.56 41.5398 25.56C42.7598 25.56 43.7498 26.55 43.7498 27.77C43.7598 28.99 42.7598 29.98 41.5398 29.98Z" fill="#F7941D"/>
</g>
<defs>
<clipPath id="clip0_4207_13826">
<rect width="65.68" height="51.37" fill="white"/>
</clipPath>
</defs>
</svg>
