<svg width="621" height="418" viewBox="0 0 621 418" fill="none" xmlns="http://www.w3.org/2000/svg">
<path opacity="0.4" d="M211.516 404.348C115.674 405.244 62.527 406.588 19.9576 352.256C-16.5306 281.119 -4.74296 201.821 69.9028 124.789C201.255 -10.7624 377.524 -11.8412 505.259 13.9396C613.494 35.7846 643.863 135.574 601.902 291.289C559.941 447.004 331.319 403.227 211.516 404.348Z" fill="url(#paint0_linear_7754_14456)"/>
<g clip-path="url(#clip0_7754_14456)">
<path d="M199.253 255.647C159.993 264.568 159.143 356.62 159.143 356.62C159.143 356.62 268.766 335.708 277.79 312.341C286.814 288.974 238.53 246.725 199.253 255.662V255.647Z" fill="url(#paint1_linear_7754_14456)"/>
<path d="M287.475 302.476L333.019 300.242L381.618 273.303L291.805 218.953L287.475 302.476Z" fill="#958383" fill-opacity="0.2"/>
<path d="M293.856 131.92C294.454 109.041 299.872 84.3682 299.872 84.3682H230.012C230.012 84.3682 237.241 112.172 235.43 132.565C233.619 152.958 219.981 194.138 220.374 199.865C220.374 199.865 216.311 227.009 264.942 228.032C313.573 229.055 309.51 199.865 309.51 199.865C309.51 199.865 293.257 154.799 293.856 131.92Z" fill="url(#paint2_linear_7754_14456)"/>
<path d="M290.877 63.0942C276.546 54.8332 253.333 54.8332 239.002 63.0942C224.671 71.3553 224.671 84.7618 239.002 93.0228C253.333 101.284 276.546 101.284 290.877 93.0228C305.192 84.7618 305.192 71.3553 290.877 63.0942Z" fill="#958383"/>
<path d="M355.856 167.92C356.454 145.041 361.872 120.368 361.872 120.368H292.012C292.012 120.368 299.241 148.172 297.43 168.565C295.619 188.958 281.981 230.138 282.374 235.865C282.374 235.865 278.311 263.009 326.942 264.032C375.573 265.055 371.51 235.865 371.51 235.865C371.51 235.865 355.257 190.799 355.856 167.92Z" fill="url(#paint3_linear_7754_14456)"/>
<path d="M353.084 99.4106C338.753 91.1496 315.54 91.1496 301.209 99.4106C286.894 107.672 286.894 121.078 301.209 129.339C315.54 137.6 338.753 137.6 353.084 129.339C367.399 121.078 367.399 107.672 353.084 99.4106Z" fill="#958383"/>
<path d="M171.143 235.364L287.475 302.476V227.119L171.143 160.008V235.364Z" fill="url(#paint4_linear_7754_14456)"/>
<path d="M287.475 227.12V302.476L333.019 276.214V200.842L287.475 227.12Z" fill="url(#paint5_linear_7754_14456)"/>
<path d="M171.143 160.008L287.475 227.119L333.019 200.841L216.687 133.762L171.143 160.008Z" fill="url(#paint6_linear_7754_14456)"/>
<path d="M216.811 139.411L324.655 202.305L328.104 200.26L216.811 136.091V139.411Z" fill="url(#paint7_linear_7754_14456)"/>
<path d="M177.837 161.488L216.814 139.411V136.091L175.16 160.103L177.837 161.488Z" fill="url(#paint8_linear_7754_14456)"/>
<path d="M189.645 211.636L190.464 211.463L182.07 194.106L189.645 211.636Z" fill="#AA9B9E"/>
<path d="M295.9 257.882L302.861 241.737L295.145 257.74L295.9 257.882Z" fill="#AA9B9E"/>
<mask id="mask0_7754_14456" style="mask-type:luminance" maskUnits="userSpaceOnUse" x="228" y="56" width="74" height="44">
<path d="M290.875 63.0942C276.544 54.8332 253.331 54.8332 239 63.0942C224.685 71.3553 224.685 84.7618 239 93.0228C253.331 101.284 276.544 101.284 290.875 93.0228C305.19 84.7618 305.19 71.3553 290.875 63.0942Z" fill="white"/>
</mask>
<g mask="url(#mask0_7754_14456)">
<path d="M290.875 63.0942C276.544 54.8332 253.331 54.8332 239 63.0942C224.685 71.3553 224.685 84.7618 239 93.0228C253.331 101.284 276.544 101.284 290.875 93.0228C305.19 84.7618 305.19 71.3553 290.875 63.0942Z" fill="url(#paint9_linear_7754_14456)"/>
<path d="M287.508 71.8589C275.413 64.8882 255.806 64.8882 243.712 71.8589C231.617 78.8297 231.617 90.1434 243.712 97.1299C255.806 104.101 275.413 104.101 287.508 97.1299C299.602 90.1591 299.602 78.8454 287.508 71.8589Z" fill="url(#paint10_linear_7754_14456)"/>
<path d="M284.021 77.3024C273.485 71.2286 256.398 71.2286 245.847 77.3024C235.311 83.3763 235.311 93.2423 245.847 99.3162C256.383 105.39 273.469 105.39 284.021 99.3162C294.556 93.2423 294.556 83.3763 284.021 77.3024Z" fill="url(#paint11_linear_7754_14456)"/>
</g>
<mask id="mask1_7754_14456" style="mask-type:luminance" maskUnits="userSpaceOnUse" x="290" y="93" width="74" height="43">
<path d="M353.076 99.4116C338.761 91.1506 315.532 91.1506 301.201 99.4116C286.886 107.673 286.886 121.079 301.201 129.34C315.532 137.601 338.745 137.601 353.076 129.34C367.407 121.079 367.407 107.673 353.076 99.4116Z" fill="white"/>
</mask>
<g mask="url(#mask1_7754_14456)">
<path d="M352.875 99.0942C338.544 90.8332 315.331 90.8332 301 99.0942C286.685 107.355 286.685 120.762 301 129.023C315.331 137.284 338.544 137.284 352.875 129.023C367.19 120.762 367.19 107.355 352.875 99.0942Z" fill="url(#paint12_linear_7754_14456)"/>
<path d="M349.508 107.859C337.413 100.888 317.806 100.888 305.712 107.859C293.617 114.83 293.617 126.143 305.712 133.13C317.806 140.101 337.413 140.101 349.508 133.13C361.602 126.159 361.602 114.845 349.508 107.859Z" fill="url(#paint13_linear_7754_14456)"/>
<path d="M346.021 113.302C335.485 107.229 318.398 107.229 307.847 113.302C297.311 119.376 297.311 129.242 307.847 135.316C318.383 141.39 335.469 141.39 346.021 135.316C356.556 129.242 356.556 119.376 346.021 113.302Z" fill="url(#paint14_linear_7754_14456)"/>
</g>
<path d="M391.888 268.85L411.385 280.1C412.487 284.868 413.952 289.73 415.763 294.608L402.156 302.46L400.44 303.452L402.156 306.426L422.172 341.075L423.889 344.049L425.605 343.058L439.259 335.19C442.393 338.935 445.653 342.412 449.023 345.591V370.579L451.448 371.979L479.764 388.312L482.189 389.713V365.276C485.953 366.22 486.748 369.36 490.197 369.265L503.567 392.412L504.783 395.386L506.5 394.395L525 383.895L526.717 382.903L525 379.929L511.913 357.286C513.976 354.186 520.473 346.834 521.67 342.837L540.127 353.49L542.552 354.891V316.622L540.127 315.222L521.434 304.443C520.268 299.423 518.709 294.294 516.772 289.164L529.859 281.611L531.576 280.62L529.859 277.646L509.843 242.997L508.126 240.023L506.41 241.014L493.039 248.724C489.827 244.932 486.457 241.407 482.992 238.197V213.509L480.567 212.108L452.251 195.775L449.826 194.374V219.063C446.173 218.229 442.629 217.883 439.259 218.009L425.605 194.374L423.889 191.4L422.172 192.392L402.156 203.941L400.44 204.933L402.156 207.907L415.763 231.447C413.826 234.452 412.282 237.883 411.148 241.706L391.872 230.597L389.447 229.197V267.465L391.872 268.865L391.888 268.85ZM466.425 252.579C485.386 263.515 485 290.022 485 311.895C485 333.767 485.386 342.837 466.425 331.901C447.464 320.965 432.046 294.278 432.046 272.406C432.046 250.534 447.464 241.628 466.425 252.579Z" fill="url(#paint15_linear_7754_14456)"/>
<path d="M516.359 370.72L542.58 354.843V316.574L516.359 332.451V370.72Z" fill="url(#paint16_linear_7754_14456)"/>
<path d="M505.385 296.45L531.59 280.588L508.141 239.991L481.936 255.868L505.385 296.45Z" fill="url(#paint17_linear_7754_14456)"/>
<path d="M456.805 229.354L483.01 213.493L449.844 194.358L423.639 210.22L456.805 229.354Z" fill="url(#paint18_linear_7754_14456)"/>
<path d="M397.684 207.262L400.739 205.421L423.889 191.4L400.44 204.933L374.234 220.794L397.684 207.262Z" fill="#C0ACA4"/>
<path d="M476.094 259.235L456.803 241.737V254.042L466.85 264.569L476.094 259.235Z" fill="#9C8C82"/>
<path d="M413.052 233.869L417.714 235.427L415.761 231.446L400.737 205.42L396.643 207.89L413.052 233.869Z" fill="#9C8C82"/>
<path d="M363.256 245.058L381.886 234.043L391.556 250.25L384.122 263.138L363.256 245.058Z" fill="#9C8C82"/>
<path d="M455.981 405.542L474.06 394.873L466.012 379.516H453.965L455.981 405.542Z" fill="#373A41"/>
<path d="M432.69 265.074C432.69 265.074 428.69 279.283 439.808 301.989C439.808 301.989 451.997 327.763 473.935 335.3L473.242 355.63L439.147 354.592L399.051 310.36C399.051 310.36 398.469 242.903 432.674 265.074H432.69Z" fill="url(#paint19_linear_7754_14456)"/>
<path d="M365.679 284.727L385.176 295.977C386.278 300.745 387.743 305.607 389.554 310.485L375.947 318.337L374.231 319.329L375.947 322.303L395.963 356.952L397.68 359.926L399.396 358.934L413.05 351.067C416.184 354.812 419.444 358.289 422.814 361.468V386.455L425.239 387.856L453.555 404.189L455.98 405.59V381.153C459.744 382.097 463.382 382.522 466.83 382.427L480.201 405.574L481.917 408.548L483.634 407.557L503.65 396.007L505.367 395.015L503.65 392.042L490.563 369.398C492.626 366.299 494.28 362.711 495.461 358.714L513.918 369.367L516.343 370.767V332.499L513.918 331.099L495.225 320.32C494.059 315.3 492.5 310.171 490.563 305.041L503.65 297.488L505.367 296.497L503.65 293.523L483.634 258.873L481.917 255.899L480.201 256.891L466.83 264.601C463.618 260.809 460.248 257.284 456.783 254.074V232.186V229.385L454.358 227.985L426.042 211.652L423.617 210.251V234.94C419.964 234.106 416.42 233.76 413.05 233.901L399.396 210.267L397.68 207.293L395.963 208.284L375.947 219.834L374.231 220.825L375.947 223.799L389.554 247.339C387.617 250.329 386.073 253.775 384.939 257.599L365.664 246.49L363.238 245.089V283.358L365.664 284.758L365.679 284.727ZM440.216 268.456C459.177 279.392 474.594 306.079 474.594 327.951C474.594 349.824 459.177 358.73 440.216 347.794C421.255 336.858 405.837 310.171 405.837 288.283C405.837 266.395 421.255 257.504 440.216 268.456Z" fill="url(#paint20_linear_7754_14456)"/>
<path d="M324.249 322.413L337.557 330.092C338.312 333.349 339.305 336.669 340.549 339.989L331.257 345.339L330.092 346.016L331.257 348.046L344.927 371.696L346.092 373.726L347.257 373.049L356.58 367.668C358.722 370.217 360.943 372.593 363.242 374.764V391.821L364.896 392.781L384.219 403.937L385.872 404.897V388.218C388.439 388.863 388.654 390.957 391 390.895L400.5 406.235L401.665 408.265L404.739 406.235L413.335 401.071L414.5 400.395L413.335 398.365L404.405 382.913C405.823 380.804 412.014 375.63 412.818 372.892L425.416 380.161L427.07 381.121V355.001L425.416 354.041L412.66 346.677C411.873 343.246 410.802 339.753 409.479 336.244L418.408 331.099L419.574 330.422L418.408 328.392L404.739 304.742L403.573 302.712L402.408 303.389L393.274 308.66C391.085 306.079 388.786 303.672 386.423 301.485V286.536V284.632L384.77 283.672L365.447 272.516L363.793 271.556V288.409C361.305 287.842 358.88 287.606 356.58 287.701L347.257 271.572L346.092 269.542L344.927 270.219L329.5 280.188L328.335 280.865L329.5 282.895L338.791 298.96C337.469 301.006 338.171 301.264 337.399 303.876L324.249 296.292L322.596 295.332V297.236V319.533V321.437L324.249 322.397V322.413ZM375.132 311.304C388.077 318.762 389 335.962 389 350.895C389 365.827 388.061 372.923 375.132 365.449C362.187 357.99 351.667 339.769 351.667 324.836C351.667 309.903 362.203 303.829 375.132 311.304Z" fill="url(#paint21_linear_7754_14456)"/>
<path d="M409.227 391.947L427.101 381.121V355L409.227 365.826V391.947Z" fill="url(#paint22_linear_7754_14456)"/>
<path d="M401.729 341.263L419.603 330.422L403.603 302.728L385.713 313.553L401.729 341.263Z" fill="url(#paint23_linear_7754_14456)"/>
<path d="M368.562 295.459L386.436 284.633L363.806 271.572L345.916 282.398L368.562 295.459Z" fill="url(#paint24_linear_7754_14456)"/>
<path d="M381.73 315.851L368.564 303.924V312.311L375.415 319.502L381.73 315.851Z" fill="url(#paint25_linear_7754_14456)"/>
<path d="M304.701 306.174L317.41 298.652L324.024 309.714L318.938 318.526L304.701 306.174Z" fill="#9C8C82"/>
<path d="M367.997 415.723L380.344 408.438L374.848 397.958H366.627L367.997 415.723Z" fill="url(#paint26_linear_7754_14456)"/>
<path d="M352.104 319.832C352.104 319.832 349.38 329.541 356.955 345.024C356.955 345.024 365.27 362.616 380.246 367.762L379.774 381.641L356.498 380.932L329.127 350.736C329.127 350.736 328.734 304.695 352.088 319.832H352.104Z" fill="url(#paint27_linear_7754_14456)"/>
<path d="M306.36 333.255L319.668 340.933C320.424 344.191 321.416 347.511 322.66 350.831L313.368 356.197L312.203 356.873L313.368 358.903L327.038 382.553L328.203 384.583L329.369 383.907L338.692 378.525C340.833 381.074 343.054 383.45 345.353 385.622V400.759V402.663L347.007 403.623L366.33 414.764L367.984 415.723V399.044C370.55 399.689 373.039 399.972 375.401 399.909L384.535 415.708L385.7 417.738L386.866 417.061L400.535 409.177L401.701 408.501L400.535 406.471L391.606 391.019C393.023 388.895 394.141 386.456 394.945 383.718L407.543 390.987L409.197 391.947V365.827L407.543 364.867L394.787 357.503C394 354.072 392.929 350.579 391.606 347.086L400.535 341.94L401.701 341.264L400.535 339.234L386.866 315.584L385.7 313.554L384.535 314.23L375.401 319.502C373.212 316.921 370.913 314.514 368.55 312.327V295.474L366.897 294.514L347.574 283.358L345.92 282.398V299.25C343.432 298.684 341.007 298.448 338.707 298.542L329.384 282.414L328.219 280.384L327.054 281.06L313.384 288.944L312.219 289.62L313.384 291.65L322.676 307.716C321.353 309.762 320.298 312.106 319.526 314.718L306.376 307.134L304.723 306.174V332.295L306.376 333.255H306.36ZM357.243 322.145C370.188 329.604 380.708 347.825 380.708 362.758C380.708 377.691 370.173 383.765 357.243 376.291C344.298 368.832 333.778 350.611 333.778 335.678C333.778 320.745 344.314 314.671 357.243 322.145Z" fill="url(#paint28_linear_7754_14456)"/>
<path d="M203.284 220.321H64.6523V319.281C67.4083 352.152 116.842 358.037 116.842 358.037C116.842 358.037 146.622 363.812 175.567 351.271C204.513 338.73 203.284 319.281 203.284 319.281V220.321Z" fill="url(#paint29_linear_7754_14456)"/>
<path d="M182.989 192.046C155.918 176.437 112.027 176.437 84.9558 192.046C57.8845 207.655 57.8845 232.989 84.9558 248.599C112.027 264.208 155.918 264.208 182.989 248.599C210.06 232.989 210.06 207.655 182.989 192.046Z" fill="url(#paint30_linear_7754_14456)"/>
<path d="M68.4023 305.308L107.647 327.952V318.211L68.4023 295.584V305.308Z" fill="#EFEFEF"/>
<path d="M68.4023 333.993L74.8749 337.723V306.252L68.4023 302.507V333.993Z" fill="#EFEFEF"/>
<path d="M101.156 352.892L107.629 356.621L107.645 325.15L101.156 321.405V352.892Z" fill="#EFEFEF"/>
<path fill-rule="evenodd" clip-rule="evenodd" d="M90.2265 338.209L90.229 338.21V328.486L51 305.843V312.782V315.583V344.253L57.4725 347.998V319.316L83.7539 334.476V363.151L90.2265 366.896V338.209Z" fill="url(#paint31_linear_7754_14456)"/>
<path d="M90.2285 366.896L107.63 356.621L107.646 318.211L90.2285 328.486V366.896Z" fill="url(#paint32_linear_7754_14456)"/>
<path d="M57.4746 347.998L74.8765 337.723V329.352L57.4746 319.312V347.998Z" fill="url(#paint33_linear_7754_14456)"/>
<path d="M51 305.843L90.229 328.487L107.647 318.211L68.4019 295.584L51 305.843Z" fill="url(#paint34_linear_7754_14456)"/>
<path d="M74.873 337.723L83.7551 342.554V334.481L74.873 329.352V337.723Z" fill="url(#paint35_linear_7754_14456)"/>
<path d="M57.4746 347.999L83.7585 363.152V342.554L74.8765 337.724L57.4746 347.999Z" fill="url(#paint36_linear_7754_14456)"/>
<path d="M254.341 391.255L180.607 392.734V396.558C182.072 414.04 208.372 417.171 208.372 417.171C208.372 417.171 224.214 420.239 239.6 413.568C255.002 406.896 254.341 396.558 254.341 396.558V391.239V391.255Z" fill="url(#paint37_linear_7754_14456)"/>
<path d="M243.54 377.707C229.146 369.399 205.791 369.399 191.397 377.707C177.003 386.015 177.003 399.484 191.397 407.793C205.791 416.101 229.146 416.101 243.54 407.793C257.934 399.484 257.934 386.015 243.54 377.707Z" fill="url(#paint38_linear_7754_14456)"/>
<path d="M250.958 307.826H183.996V392.828C185.319 408.705 209.209 411.553 209.209 411.553C209.209 411.553 223.587 414.339 237.572 408.281C251.556 402.222 250.958 392.828 250.958 392.828V307.826Z" fill="url(#paint39_linear_7754_14456)"/>
<path d="M241.145 294.168C228.074 286.63 206.861 286.63 193.79 294.168C180.719 301.705 180.719 313.947 193.79 321.484C206.861 329.021 228.074 329.021 241.145 321.484C254.216 313.947 254.216 301.705 241.145 294.168Z" fill="url(#paint40_linear_7754_14456)"/>
<path d="M336.341 342.255L262.607 343.734V347.558C264.072 365.04 290.372 368.171 290.372 368.171C290.372 368.171 306.214 371.239 321.6 364.568C337.002 357.896 336.341 347.558 336.341 347.558V342.239V342.255Z" fill="url(#paint41_linear_7754_14456)"/>
<path d="M325.54 328.707C311.146 320.399 287.791 320.399 273.397 328.707C259.003 337.015 259.003 350.484 273.397 358.793C287.791 367.101 311.146 367.101 325.54 358.793C339.934 350.484 339.934 337.015 325.54 328.707Z" fill="url(#paint42_linear_7754_14456)"/>
<path d="M332.958 258.826H265.996V343.828C267.319 359.705 291.209 362.553 291.209 362.553C291.209 362.553 305.587 365.339 319.572 359.281C333.556 353.222 332.958 343.828 332.958 343.828V258.826Z" fill="url(#paint43_linear_7754_14456)"/>
<path d="M323.145 245.168C310.074 237.63 288.861 237.63 275.79 245.168C262.719 252.705 262.719 264.947 275.79 272.484C288.861 280.021 310.074 280.021 323.145 272.484C336.216 264.947 336.216 252.705 323.145 245.168Z" fill="url(#paint44_linear_7754_14456)"/>
<path d="M423.341 291.255L349.607 292.734V296.558C351.072 314.04 377.372 317.171 377.372 317.171C377.372 317.171 393.214 320.239 408.6 313.568C424.002 306.896 423.341 296.558 423.341 296.558V291.239V291.255Z" fill="url(#paint45_linear_7754_14456)"/>
<path d="M412.54 277.707C398.146 269.399 374.791 269.399 360.397 277.707C346.003 286.015 346.003 299.484 360.397 307.793C374.791 316.101 398.146 316.101 412.54 307.793C426.934 299.484 426.934 286.015 412.54 277.707Z" fill="url(#paint46_linear_7754_14456)"/>
<path d="M419.958 207.826H352.996V292.828C354.319 308.705 378.209 311.553 378.209 311.553C378.209 311.553 392.587 314.339 406.572 308.281C420.556 302.222 419.958 292.828 419.958 292.828V207.826Z" fill="url(#paint47_linear_7754_14456)"/>
<path d="M410.145 194.168C397.074 186.63 375.861 186.63 362.79 194.168C349.719 201.705 349.719 213.947 362.79 221.484C375.861 229.021 397.074 229.021 410.145 221.484C423.216 213.947 423.216 201.705 410.145 194.168Z" fill="url(#paint48_linear_7754_14456)"/>
<path d="M505.341 242.255L431.607 243.734V247.558C433.072 265.04 459.372 268.171 459.372 268.171C459.372 268.171 475.214 271.239 490.6 264.568C506.002 257.896 505.341 247.558 505.341 247.558V242.239V242.255Z" fill="url(#paint49_linear_7754_14456)"/>
<path d="M494.54 228.707C480.146 220.399 456.791 220.399 442.397 228.707C428.003 237.015 428.003 250.484 442.397 258.793C456.791 267.101 480.146 267.101 494.54 258.793C508.934 250.484 508.934 237.015 494.54 228.707Z" fill="url(#paint50_linear_7754_14456)"/>
<path d="M501.958 158.826H434.996V243.828C436.319 259.705 460.209 262.553 460.209 262.553C460.209 262.553 474.587 265.339 488.572 259.281C502.556 253.222 501.958 243.828 501.958 243.828V158.826Z" fill="url(#paint51_linear_7754_14456)"/>
<path d="M492.145 145.168C479.074 137.63 457.861 137.63 444.79 145.168C431.719 152.705 431.719 164.947 444.79 172.484C457.861 180.021 479.074 180.021 492.145 172.484C505.216 164.947 505.216 152.705 492.145 145.168Z" fill="url(#paint52_linear_7754_14456)"/>
<path d="M489.891 149.937L482.19 145.39L196.186 310.375L203.886 314.922L211.713 310.422L232.785 322.569L240.58 318.085L219.493 305.921L295.463 262.02L315.416 273.538L323.195 269.038L303.195 257.504L383.921 211.022L402.724 221.863L410.52 217.379L391.685 206.506L467.087 163.108L484.379 173.037L492.174 168.552L474.804 158.717L489.891 149.937Z" fill="#7A8086"/>
<path d="M489.84 147.64L482.139 143.093L196.15 308.093L203.851 312.641L211.662 308.125L232.734 320.288L240.529 315.788L219.458 303.625L295.428 259.739L315.365 271.241L323.16 266.757L303.144 255.207L383.87 208.741L402.689 219.582L410.469 215.082L391.634 204.225L467.052 160.811L484.344 170.755L492.124 166.255L474.753 156.421L489.84 147.64Z" fill="#EE942C"/>
<path d="M489.842 147.64L482.141 143.093L196.137 308.078L203.838 312.625L211.649 308.109L232.72 320.273L240.515 315.772L219.444 303.609L295.5 259.895L315.351 271.21L323.147 266.71L303.131 255.16L383.856 208.693L402.675 219.535L410.471 215.035L391.636 204.162L467.039 160.764L484.33 170.693L492.126 166.192L474.755 156.358L489.842 147.577V147.64ZM489.055 166.271L484.346 168.993L467.826 159.505L467.07 159.064L466.314 159.505L390.911 202.903L388.612 204.225L390.911 205.546L407.447 215.098L402.723 217.836L384.675 207.435L383.919 206.994L383.163 207.435L302.438 253.901L300.138 255.223L302.438 256.545L320.154 266.772L315.43 269.495L296.249 258.433L295.477 257.992L294.705 258.433L218.736 302.334L216.452 303.656L218.736 304.978L237.523 315.82L232.783 318.542L212.468 306.819L211.696 306.378L210.94 306.819L203.901 310.879L199.223 308.125L482.188 144.887L486.881 147.656L474.047 155.13L471.747 156.468L474.062 157.774L489.102 166.287L489.055 166.271Z" fill="white"/>
<path d="M196.182 310.375L198.387 311.681V309.416L196.15 308.094L196.182 310.375Z" fill="#7A8086"/>
<path d="M203.852 312.641L203.883 314.923L211.71 310.422L211.663 308.125L203.852 312.641Z" fill="#7A8086"/>
<path d="M232.734 320.287L232.782 322.569L240.577 318.084L240.53 315.787L232.734 320.287Z" fill="#7A8086"/>
<path d="M219.459 303.624L221.428 304.773L295.46 262.02L295.429 259.738L219.459 303.624Z" fill="#7A8086"/>
<path d="M315.367 271.241L315.414 273.539L323.194 269.038L323.163 266.757L315.367 271.241Z" fill="#7A8086"/>
<path d="M303.145 255.208L305.192 256.388L383.917 211.023L383.87 208.741L303.145 255.208Z" fill="#7A8086"/>
<path d="M402.688 219.582L402.719 221.864L410.514 217.379L410.467 215.082L402.688 219.582Z" fill="#7A8086"/>
<path d="M391.637 204.224L393.652 205.373L467.087 163.108L467.055 160.811L391.637 204.224Z" fill="#7A8086"/>
<path d="M474.754 156.42L476.77 157.569L489.888 149.937L489.841 147.64L474.754 156.42Z" fill="#7A8086"/>
<path d="M484.348 170.755L484.379 173.037L492.175 168.552L492.127 166.255L484.348 170.755Z" fill="#7A8086"/>
</g>
<defs>
<linearGradient id="paint0_linear_7754_14456" x1="317.902" y1="-1.21143" x2="317.902" y2="406.789" gradientUnits="userSpaceOnUse">
<stop stop-color="#E5EDF3" stop-opacity="0.5"/>
<stop offset="1" stop-color="#1F232A" stop-opacity="0"/>
</linearGradient>
<linearGradient id="paint1_linear_7754_14456" x1="219.017" y1="254.44" x2="219.017" y2="356.62" gradientUnits="userSpaceOnUse">
<stop stop-color="#E5EDF3" stop-opacity="0.2"/>
<stop offset="1" stop-color="#1F232A" stop-opacity="0"/>
</linearGradient>
<linearGradient id="paint2_linear_7754_14456" x1="220" y1="118.895" x2="300.5" y2="117.395" gradientUnits="userSpaceOnUse">
<stop stop-color="#E5EDF3"/>
<stop offset="1" stop-color="#1F232A"/>
</linearGradient>
<linearGradient id="paint3_linear_7754_14456" x1="282" y1="154.895" x2="362.5" y2="153.395" gradientUnits="userSpaceOnUse">
<stop stop-color="#E5EDF3"/>
<stop offset="1" stop-color="#1F232A"/>
</linearGradient>
<linearGradient id="paint4_linear_7754_14456" x1="304" y1="255.395" x2="176" y2="186.895" gradientUnits="userSpaceOnUse">
<stop stop-color="#E5EDF3"/>
<stop offset="1" stop-color="#1F232A"/>
</linearGradient>
<linearGradient id="paint5_linear_7754_14456" x1="294.5" y1="238.895" x2="348.5" y2="222.895" gradientUnits="userSpaceOnUse">
<stop stop-color="#E5EDF3"/>
<stop offset="1" stop-color="#1F232A"/>
</linearGradient>
<linearGradient id="paint6_linear_7754_14456" x1="233" y1="226.895" x2="218.5" y2="34.8945" gradientUnits="userSpaceOnUse">
<stop stop-color="#E5EDF3"/>
<stop offset="1" stop-color="#1F232A"/>
</linearGradient>
<linearGradient id="paint7_linear_7754_14456" x1="370" y1="227.895" x2="182" y2="114.895" gradientUnits="userSpaceOnUse">
<stop stop-color="#E5EDF3"/>
<stop offset="1" stop-color="#1F232A"/>
</linearGradient>
<linearGradient id="paint8_linear_7754_14456" x1="155" y1="174.395" x2="255" y2="116.395" gradientUnits="userSpaceOnUse">
<stop stop-color="#E5EDF3"/>
<stop offset="1" stop-color="#1F232A"/>
</linearGradient>
<linearGradient id="paint9_linear_7754_14456" x1="264.937" y1="56.8984" x2="264.937" y2="99.2186" gradientUnits="userSpaceOnUse">
<stop stop-color="#E5EDF3"/>
<stop offset="1" stop-color="#1F232A"/>
</linearGradient>
<linearGradient id="paint10_linear_7754_14456" x1="262.5" y1="-2.60547" x2="265.61" y2="102.358" gradientUnits="userSpaceOnUse">
<stop stop-color="#E5EDF3"/>
<stop offset="1" stop-color="#1F232A"/>
</linearGradient>
<linearGradient id="paint11_linear_7754_14456" x1="264" y1="41.3945" x2="264.934" y2="103.872" gradientUnits="userSpaceOnUse">
<stop stop-color="#E5EDF3"/>
<stop offset="1" stop-color="#1F232A"/>
</linearGradient>
<linearGradient id="paint12_linear_7754_14456" x1="326.937" y1="92.8984" x2="326.937" y2="135.219" gradientUnits="userSpaceOnUse">
<stop stop-color="#E5EDF3"/>
<stop offset="1" stop-color="#1F232A"/>
</linearGradient>
<linearGradient id="paint13_linear_7754_14456" x1="324.5" y1="33.3945" x2="327.61" y2="138.358" gradientUnits="userSpaceOnUse">
<stop stop-color="#E5EDF3"/>
<stop offset="1" stop-color="#1F232A"/>
</linearGradient>
<linearGradient id="paint14_linear_7754_14456" x1="326" y1="77.3945" x2="326.934" y2="139.872" gradientUnits="userSpaceOnUse">
<stop stop-color="#E5EDF3"/>
<stop offset="1" stop-color="#1F232A"/>
</linearGradient>
<linearGradient id="paint15_linear_7754_14456" x1="466" y1="191.4" x2="475.5" y2="406.895" gradientUnits="userSpaceOnUse">
<stop stop-color="#E5EDF3"/>
<stop offset="1" stop-color="#1F232A"/>
</linearGradient>
<linearGradient id="paint16_linear_7754_14456" x1="518" y1="342.395" x2="551" y2="337.395" gradientUnits="userSpaceOnUse">
<stop stop-color="#D5E4EA"/>
<stop offset="1" stop-color="#4D565A"/>
</linearGradient>
<linearGradient id="paint17_linear_7754_14456" x1="495" y1="273.895" x2="522" y2="257.895" gradientUnits="userSpaceOnUse">
<stop stop-color="#A4B2C0"/>
<stop offset="1" stop-color="#4D545A"/>
</linearGradient>
<linearGradient id="paint18_linear_7754_14456" x1="453.324" y1="194.358" x2="453.324" y2="229.354" gradientUnits="userSpaceOnUse">
<stop stop-color="#E5EDF3"/>
<stop offset="1" stop-color="#1F232A"/>
</linearGradient>
<linearGradient id="paint19_linear_7754_14456" x1="436.493" y1="260.601" x2="436.493" y2="355.63" gradientUnits="userSpaceOnUse">
<stop stop-color="#E5EDF3"/>
<stop offset="1" stop-color="#1F232A"/>
</linearGradient>
<linearGradient id="paint20_linear_7754_14456" x1="533.5" y1="374.395" x2="391.5" y2="345.395" gradientUnits="userSpaceOnUse">
<stop stop-color="#E5EDF3"/>
<stop offset="1" stop-color="#1F232A"/>
</linearGradient>
<linearGradient id="paint21_linear_7754_14456" x1="374.833" y1="269.542" x2="374.833" y2="408.265" gradientUnits="userSpaceOnUse">
<stop stop-color="#E5EDF3"/>
<stop offset="1" stop-color="#1F232A"/>
</linearGradient>
<linearGradient id="paint22_linear_7754_14456" x1="409.227" y1="373.473" x2="439" y2="367.895" gradientUnits="userSpaceOnUse">
<stop stop-color="#F8FCFF"/>
<stop offset="1" stop-color="#51608F"/>
</linearGradient>
<linearGradient id="paint23_linear_7754_14456" x1="406.5" y1="344.895" x2="395.5" y2="312.895" gradientUnits="userSpaceOnUse">
<stop stop-color="#E5EDF3"/>
<stop offset="1" stop-color="#1F232A"/>
</linearGradient>
<linearGradient id="paint24_linear_7754_14456" x1="340.5" y1="280.895" x2="356.5" y2="287.895" gradientUnits="userSpaceOnUse">
<stop stop-color="#E5EDF3"/>
<stop offset="1" stop-color="#1F232A"/>
</linearGradient>
<linearGradient id="paint25_linear_7754_14456" x1="375.147" y1="303.924" x2="375.147" y2="319.502" gradientUnits="userSpaceOnUse">
<stop stop-color="#E5EDF3"/>
<stop offset="1" stop-color="#1F232A"/>
</linearGradient>
<linearGradient id="paint26_linear_7754_14456" x1="384.5" y1="420.395" x2="367" y2="396.395" gradientUnits="userSpaceOnUse">
<stop stop-color="#E5EDF3"/>
<stop offset="1" stop-color="#1F232A"/>
</linearGradient>
<linearGradient id="paint27_linear_7754_14456" x1="354.687" y1="316.777" x2="354.687" y2="381.641" gradientUnits="userSpaceOnUse">
<stop stop-color="#E5EDF3"/>
<stop offset="1" stop-color="#1F232A"/>
</linearGradient>
<linearGradient id="paint28_linear_7754_14456" x1="455" y1="332.395" x2="307.5" y2="335.395" gradientUnits="userSpaceOnUse">
<stop stop-color="#E5EDF3"/>
<stop offset="1" stop-color="#1F232A"/>
</linearGradient>
<linearGradient id="paint29_linear_7754_14456" x1="29.5" y1="278.895" x2="208" y2="278.395" gradientUnits="userSpaceOnUse">
<stop stop-color="#E5EDF3"/>
<stop offset="1" stop-color="#1F232A"/>
</linearGradient>
<linearGradient id="paint30_linear_7754_14456" x1="136.5" y1="259.895" x2="132" y2="179.895" gradientUnits="userSpaceOnUse">
<stop stop-color="#E5EDF3"/>
<stop offset="1" stop-color="#1F232A"/>
</linearGradient>
<linearGradient id="paint31_linear_7754_14456" x1="90.5" y1="313.895" x2="66.5" y2="357.895" gradientUnits="userSpaceOnUse">
<stop stop-color="#E5EDF3"/>
<stop offset="1" stop-color="#1F232A"/>
</linearGradient>
<linearGradient id="paint32_linear_7754_14456" x1="88.5" y1="306.395" x2="103.5" y2="359.395" gradientUnits="userSpaceOnUse">
<stop stop-color="#E5EDF3"/>
<stop offset="1" stop-color="#1F232A"/>
</linearGradient>
<linearGradient id="paint33_linear_7754_14456" x1="62" y1="354.895" x2="66.5" y2="316.895" gradientUnits="userSpaceOnUse">
<stop stop-color="#E5EDF3"/>
<stop offset="1" stop-color="#1F232A"/>
</linearGradient>
<linearGradient id="paint34_linear_7754_14456" x1="74.5" y1="311.895" x2="18" y2="399.395" gradientUnits="userSpaceOnUse">
<stop stop-color="#E5EDF3"/>
<stop offset="0.154599" stop-color="#C6CED4"/>
</linearGradient>
<linearGradient id="paint35_linear_7754_14456" x1="92" y1="289.895" x2="78" y2="340.395" gradientUnits="userSpaceOnUse">
<stop stop-color="#E5EDF3"/>
<stop offset="0.628758" stop-color="#1F232A"/>
</linearGradient>
<linearGradient id="paint36_linear_7754_14456" x1="55" y1="366.395" x2="80.5" y2="339.895" gradientUnits="userSpaceOnUse">
<stop stop-color="#E5EDF3"/>
<stop offset="1" stop-color="#1F232A"/>
</linearGradient>
<linearGradient id="paint37_linear_7754_14456" x1="217" y1="426.395" x2="218" y2="395.395" gradientUnits="userSpaceOnUse">
<stop stop-color="#E5EDF3"/>
<stop offset="1" stop-color="#1F232A"/>
</linearGradient>
<linearGradient id="paint38_linear_7754_14456" x1="219" y1="431.895" x2="218" y2="379.395" gradientUnits="userSpaceOnUse">
<stop stop-color="#E5EDF3"/>
<stop offset="1" stop-color="#1F232A"/>
</linearGradient>
<linearGradient id="paint39_linear_7754_14456" x1="142" y1="349.895" x2="259" y2="354.895" gradientUnits="userSpaceOnUse">
<stop stop-color="#E5EDF3"/>
<stop offset="1" stop-color="#1F232A"/>
</linearGradient>
<linearGradient id="paint40_linear_7754_14456" x1="217.467" y1="288.515" x2="217.467" y2="327.137" gradientUnits="userSpaceOnUse">
<stop stop-color="#999999"/>
<stop offset="1" stop-color="white"/>
</linearGradient>
<linearGradient id="paint41_linear_7754_14456" x1="299" y1="377.395" x2="300" y2="346.395" gradientUnits="userSpaceOnUse">
<stop stop-color="#E5EDF3"/>
<stop offset="1" stop-color="#1F232A"/>
</linearGradient>
<linearGradient id="paint42_linear_7754_14456" x1="301" y1="382.895" x2="300" y2="330.395" gradientUnits="userSpaceOnUse">
<stop stop-color="#E5EDF3"/>
<stop offset="1" stop-color="#1F232A"/>
</linearGradient>
<linearGradient id="paint43_linear_7754_14456" x1="224" y1="300.895" x2="341" y2="305.895" gradientUnits="userSpaceOnUse">
<stop stop-color="#E5EDF3"/>
<stop offset="1" stop-color="#1F232A"/>
</linearGradient>
<linearGradient id="paint44_linear_7754_14456" x1="299.467" y1="239.515" x2="299.467" y2="278.137" gradientUnits="userSpaceOnUse">
<stop stop-color="#999999"/>
<stop offset="1" stop-color="white"/>
</linearGradient>
<linearGradient id="paint45_linear_7754_14456" x1="386" y1="326.395" x2="387" y2="295.395" gradientUnits="userSpaceOnUse">
<stop stop-color="#E5EDF3"/>
<stop offset="1" stop-color="#1F232A"/>
</linearGradient>
<linearGradient id="paint46_linear_7754_14456" x1="388" y1="331.895" x2="387" y2="279.395" gradientUnits="userSpaceOnUse">
<stop stop-color="#E5EDF3"/>
<stop offset="1" stop-color="#1F232A"/>
</linearGradient>
<linearGradient id="paint47_linear_7754_14456" x1="311" y1="249.895" x2="428" y2="254.895" gradientUnits="userSpaceOnUse">
<stop stop-color="#E5EDF3"/>
<stop offset="1" stop-color="#1F232A"/>
</linearGradient>
<linearGradient id="paint48_linear_7754_14456" x1="386.467" y1="188.515" x2="386.467" y2="227.137" gradientUnits="userSpaceOnUse">
<stop stop-color="#999999"/>
<stop offset="1" stop-color="white"/>
</linearGradient>
<linearGradient id="paint49_linear_7754_14456" x1="468" y1="277.395" x2="469" y2="246.395" gradientUnits="userSpaceOnUse">
<stop stop-color="#E5EDF3"/>
<stop offset="1" stop-color="#1F232A"/>
</linearGradient>
<linearGradient id="paint50_linear_7754_14456" x1="470" y1="282.895" x2="469" y2="230.395" gradientUnits="userSpaceOnUse">
<stop stop-color="#E5EDF3"/>
<stop offset="1" stop-color="#1F232A"/>
</linearGradient>
<linearGradient id="paint51_linear_7754_14456" x1="393" y1="200.895" x2="510" y2="205.895" gradientUnits="userSpaceOnUse">
<stop stop-color="#E5EDF3"/>
<stop offset="1" stop-color="#1F232A"/>
</linearGradient>
<linearGradient id="paint52_linear_7754_14456" x1="468.467" y1="139.515" x2="468.467" y2="178.137" gradientUnits="userSpaceOnUse">
<stop stop-color="#999999"/>
<stop offset="1" stop-color="white"/>
</linearGradient>
<clipPath id="clip0_7754_14456">
<rect width="495" height="361" fill="white" transform="translate(51 56.8945)"/>
</clipPath>
</defs>
</svg>
