<svg width="659" height="458" viewBox="0 0 659 458" fill="none" xmlns="http://www.w3.org/2000/svg">
<path opacity="0.4" d="M225.516 403.453C129.674 404.349 76.527 405.693 33.9576 351.361C-2.53057 280.225 9.25704 200.926 83.9028 123.894C215.255 -11.6569 391.524 -12.7357 519.259 13.0451C627.494 34.89 657.863 134.679 615.902 290.394C573.941 446.109 345.319 402.333 225.516 403.453Z" fill="url(#paint0_linear_7754_15339)"/>
<g clip-path="url(#clip0_7754_15339)">
<path d="M546.211 243.654L544.739 241.105H542.455L470.212 198.86L141.124 385.52L141.074 382.147L470.212 195.461L470.947 195.885L548.337 241.103L546.211 243.654Z" fill="#565656"/>
<g style="mix-blend-mode:overlay">
<path d="M502.793 263.248C505.804 264.987 505.801 269.336 502.787 271.071L445.381 304.118C443.984 304.922 442.265 304.92 440.87 304.114L333.206 241.924C330.197 240.186 330.197 235.843 333.206 234.105L390.511 201.002C391.909 200.195 393.631 200.195 395.028 201.002L502.793 263.248Z" fill="#D3D3D3"/>
</g>
<path d="M292.301 211.302V217.81L409.104 285.279V278.773L292.301 211.302Z" fill="url(#paint1_linear_7754_15339)"/>
<path d="M475.425 240.454V246.964L409.093 285.28V278.772L408.975 278.707L475.425 240.454Z" fill="url(#paint2_linear_7754_15339)"/>
<path d="M475.428 240.453L408.978 278.706L292.291 211.304L358.623 172.988L475.428 240.453Z" fill="url(#paint3_linear_7754_15339)"/>
<path d="M409.098 285.521C409.056 285.521 409.014 285.509 408.978 285.488L292.181 218.019C292.106 217.975 292.06 217.897 292.06 217.809L292.055 211.303C292.055 211.217 292.101 211.137 292.175 211.093L358.505 172.779C358.58 172.735 358.674 172.735 358.748 172.779L475.551 240.248C475.626 240.292 475.671 240.372 475.671 240.458V246.964C475.671 247.05 475.626 247.131 475.551 247.175L409.221 285.488C409.182 285.509 409.14 285.521 409.1 285.521H409.098ZM292.542 217.668L409.097 284.997L475.184 246.823V240.596L358.622 173.266L292.534 211.441L292.54 217.668H292.542Z" fill="#626262"/>
<path d="M446.652 247.348C445.166 247.348 443.961 246.143 443.961 244.656V229.087C443.961 227.6 445.166 226.395 446.652 226.395C448.138 226.395 449.343 227.6 449.343 229.087V244.656C449.343 246.143 448.138 247.348 446.652 247.348Z" fill="#626262"/>
<path d="M395.995 250.756C395.995 249.269 394.791 248.063 393.304 248.063C391.818 248.063 390.613 249.269 390.613 250.756V266.327C390.613 267.814 391.818 269.019 393.304 269.019C394.791 269.019 395.995 267.814 395.995 266.327V250.756Z" fill="#626262"/>
<path d="M292.301 185.151V191.658L409.104 259.127V252.62L292.301 185.151Z" fill="url(#paint4_linear_7754_15339)"/>
<path d="M475.425 214.305V220.813L409.093 259.129V252.62L408.975 252.557L475.425 214.305Z" fill="url(#paint5_linear_7754_15339)"/>
<path d="M475.428 214.306L408.978 252.558L292.291 185.156L358.623 146.839L475.428 214.306Z" fill="url(#paint6_linear_7754_15339)"/>
<path d="M409.098 259.37C409.056 259.37 409.014 259.359 408.978 259.338L292.181 191.869C292.106 191.825 292.06 191.747 292.06 191.659L292.055 185.153C292.055 185.067 292.101 184.986 292.175 184.942L358.505 146.629C358.58 146.585 358.674 146.585 358.748 146.629L475.551 214.098C475.626 214.141 475.671 214.222 475.671 214.308V220.814C475.671 220.9 475.626 220.98 475.551 221.024L409.221 259.338C409.182 259.359 409.14 259.37 409.1 259.37H409.098ZM292.542 191.519L409.097 258.849L475.184 220.675V214.447L358.622 147.118L292.534 185.292L292.54 191.519H292.542Z" fill="#626262"/>
<path d="M395.995 218.128C395.995 216.641 394.791 215.436 393.304 215.436C391.818 215.436 390.613 216.641 390.613 218.128V233.699C390.613 235.186 391.818 236.391 393.304 236.391C394.791 236.391 395.995 235.186 395.995 233.699V218.128Z" fill="#626262"/>
<path d="M446.652 214.722C445.166 214.722 443.961 213.516 443.961 212.029V196.46C443.961 194.973 445.166 193.768 446.652 193.768C448.138 193.768 449.343 194.973 449.343 196.46V212.029C449.343 213.516 448.138 214.722 446.652 214.722Z" fill="#626262"/>
<path d="M315.781 190.849C314.295 190.849 313.09 189.644 313.09 188.157V172.588C313.09 171.101 314.295 169.896 315.781 169.896C317.267 169.896 318.472 171.101 318.472 172.588V188.157C318.472 189.644 317.267 190.849 315.781 190.849Z" fill="#626262"/>
<path d="M292.301 153.862V160.369L409.104 227.837V221.331L292.301 153.862Z" fill="url(#paint7_linear_7754_15339)"/>
<path d="M475.425 183.016V189.524L409.093 227.841V221.331L408.975 221.268L475.425 183.016Z" fill="url(#paint8_linear_7754_15339)"/>
<path d="M475.428 183.016L408.978 221.268L292.291 153.866L358.623 115.551L475.428 183.016Z" fill="url(#paint9_linear_7754_15339)"/>
<path d="M409.098 228.08C409.056 228.08 409.014 228.069 408.978 228.048L292.181 160.579C292.106 160.535 292.06 160.457 292.06 160.369L292.055 153.863C292.055 153.777 292.101 153.696 292.175 153.652L358.505 115.339C358.58 115.295 358.674 115.295 358.748 115.339L475.551 182.807C475.626 182.851 475.671 182.932 475.671 183.018V189.524C475.671 189.61 475.626 189.69 475.551 189.734L409.221 228.048C409.182 228.069 409.14 228.08 409.1 228.08H409.098ZM292.542 160.229L409.097 227.559L475.184 189.384V183.157L358.622 115.828L292.534 154.002L292.54 160.229H292.542Z" fill="#626262"/>
<path d="M386.704 127.621C386.704 126.717 386.341 125.857 385.705 125.221C385.634 125.108 385.535 125.009 385.407 124.934L355.895 107.888C354.386 107.017 352.528 107.017 351.019 107.888L321.886 124.716C321.788 124.774 321.703 124.841 321.632 124.917L321.33 125.246C320.616 125.928 320.211 126.874 320.211 127.862V128.708L322.484 127.625L350.105 143.691L354.921 150.549L358.136 142.183L384.553 126.923L384.431 127.208L386.704 127.621Z" fill="url(#paint10_linear_7754_15339)"/>
<path d="M353.456 178.149L321.468 159.671C320.69 159.222 320.211 158.391 320.211 157.493V127.617C320.211 126.757 321.141 126.22 321.886 126.65L351.432 143.716C352.687 144.44 353.458 145.78 353.458 147.228V178.149H353.456Z" fill="url(#paint11_linear_7754_15339)"/>
<path d="M353.459 178.148L386.706 158.945V127.179C386.706 126.514 385.986 126.098 385.41 126.43L355.485 143.716C354.231 144.44 353.459 145.779 353.459 147.228V178.148Z" fill="url(#paint12_linear_7754_15339)"/>
<path d="M440.061 154.79C440.061 153.886 439.698 153.026 439.062 152.39C438.992 152.277 438.892 152.178 438.764 152.103L409.253 135.057C407.744 134.185 405.886 134.185 404.377 135.057L375.243 151.885C375.146 151.943 375.06 152.01 374.989 152.086L374.688 152.415C373.973 153.097 373.568 154.043 373.568 155.031V155.877L375.841 154.794L403.462 170.86L408.279 177.718L411.493 169.352L437.911 154.092L437.788 154.377L440.061 154.79Z" fill="url(#paint13_linear_7754_15339)"/>
<path d="M406.814 205.318L374.825 186.84C374.048 186.391 373.568 185.56 373.568 184.662V154.786C373.568 153.926 374.498 153.389 375.243 153.819L404.789 170.885C406.044 171.609 406.816 172.948 406.816 174.397V205.318H406.814Z" fill="url(#paint14_linear_7754_15339)"/>
<path d="M406.816 205.317L440.064 186.114V154.348C440.064 153.683 439.344 153.267 438.767 153.599L408.843 170.885C407.588 171.609 406.816 172.948 406.816 174.397V205.317Z" fill="url(#paint15_linear_7754_15339)"/>
<path d="M415.723 107.009C415.723 106.106 415.36 105.246 414.724 104.61C414.654 104.497 414.554 104.397 414.426 104.323L384.915 87.2765C383.406 86.4052 381.548 86.4052 380.039 87.2765L350.905 104.105C350.808 104.162 350.722 104.229 350.651 104.306L350.35 104.634C349.635 105.317 349.23 106.262 349.23 107.25V108.097L351.503 107.013L379.124 123.079L383.941 129.937L387.155 121.572L413.573 106.312L413.45 106.597L415.723 107.009Z" fill="url(#paint16_linear_7754_15339)"/>
<path d="M382.476 157.537L350.487 139.06C349.71 138.611 349.23 137.78 349.23 136.881V107.006C349.23 106.146 350.161 105.609 350.905 106.039L380.451 123.105C381.706 123.829 382.478 125.168 382.478 126.617V157.537H382.476Z" fill="url(#paint17_linear_7754_15339)"/>
<path d="M382.479 157.537L415.726 138.333V106.568C415.726 105.903 415.006 105.487 414.429 105.819L384.505 123.104C383.25 123.828 382.479 125.168 382.479 126.616V157.537Z" fill="url(#paint18_linear_7754_15339)"/>
<g style="mix-blend-mode:overlay">
<path d="M396.376 324.316C399.388 326.056 399.385 330.404 396.371 332.139L338.963 365.186C337.566 365.99 335.847 365.989 334.452 365.183L226.788 302.993C223.779 301.255 223.779 296.912 226.788 295.173L284.094 262.072C285.491 261.265 287.213 261.265 288.61 262.072L396.376 324.316Z" fill="#D3D3D3"/>
</g>
<path d="M185.883 272.368V278.876L302.686 346.345V339.839L185.883 272.368Z" fill="url(#paint19_linear_7754_15339)"/>
<path d="M369.009 301.522V308.033L302.677 346.348V339.84L302.559 339.777L369.009 301.522Z" fill="url(#paint20_linear_7754_15339)"/>
<path d="M369.01 301.523L302.56 339.777L185.873 272.375L252.205 234.058L369.01 301.523Z" fill="url(#paint21_linear_7754_15339)"/>
<path d="M302.68 346.588C302.638 346.588 302.596 346.577 302.56 346.556L185.763 279.087C185.688 279.043 185.642 278.965 185.642 278.877L185.637 272.37C185.637 272.284 185.683 272.204 185.757 272.16L252.088 233.846C252.162 233.802 252.256 233.802 252.33 233.846L369.133 301.315C369.208 301.359 369.253 301.439 369.253 301.525V308.032C369.253 308.118 369.208 308.198 369.133 308.242L302.803 346.556C302.765 346.577 302.722 346.588 302.682 346.588H302.68ZM186.126 278.735L302.68 346.065L368.768 307.89V301.663L252.206 234.334L186.118 272.508L186.124 278.735H186.126Z" fill="#626262"/>
<path d="M209.365 284.545C207.879 284.545 206.674 283.339 206.674 281.852V266.283C206.674 264.797 207.879 263.591 209.365 263.591C210.851 263.591 212.056 264.797 212.056 266.283V281.852C212.056 283.339 210.851 284.545 209.365 284.545Z" fill="#626262"/>
<path d="M289.581 311.823C289.581 310.336 288.376 309.131 286.89 309.131C285.404 309.131 284.199 310.336 284.199 311.823V327.394C284.199 328.881 285.404 330.087 286.89 330.087C288.376 330.087 289.581 328.881 289.581 327.394V311.823Z" fill="#626262"/>
<path d="M340.234 308.416C338.748 308.416 337.543 307.21 337.543 305.724V290.154C337.543 288.668 338.748 287.462 340.234 287.462C341.72 287.462 342.925 288.668 342.925 290.154V305.724C342.925 307.21 341.72 308.416 340.234 308.416Z" fill="#626262"/>
<path d="M185.883 246.219V252.725L302.686 320.194V313.688L185.883 246.219Z" fill="url(#paint22_linear_7754_15339)"/>
<path d="M369.009 275.373V281.881L302.677 320.199V313.689L302.559 313.626L369.009 275.373Z" fill="url(#paint23_linear_7754_15339)"/>
<path d="M369.01 275.372L302.56 313.625L185.873 246.223L252.205 207.905L369.01 275.372Z" fill="url(#paint24_linear_7754_15339)"/>
<path d="M302.68 320.437C302.638 320.437 302.596 320.425 302.56 320.404L185.763 252.935C185.688 252.892 185.642 252.813 185.642 252.725L185.637 246.219C185.637 246.133 185.683 246.053 185.757 246.009L252.088 207.695C252.162 207.651 252.256 207.651 252.33 207.695L369.133 275.164C369.208 275.208 369.253 275.288 369.253 275.374V281.88C369.253 281.966 369.208 282.047 369.133 282.091L302.803 320.404C302.765 320.425 302.722 320.437 302.682 320.437H302.68ZM186.126 252.586L302.68 319.915L368.768 281.741V275.514L252.206 208.184L186.118 246.358L186.124 252.586H186.126Z" fill="#626262"/>
<path d="M289.581 279.196C289.581 277.709 288.376 276.504 286.89 276.504C285.404 276.504 284.199 277.709 284.199 279.196V294.767C284.199 296.254 285.404 297.46 286.89 297.46C288.376 297.46 289.581 296.254 289.581 294.767V279.196Z" fill="#626262"/>
<path d="M340.234 275.789C338.748 275.789 337.543 274.583 337.543 273.097V257.527C337.543 256.041 338.748 254.835 340.234 254.835C341.72 254.835 342.925 256.041 342.925 257.527V273.097C342.925 274.583 341.72 275.789 340.234 275.789Z" fill="#626262"/>
<path d="M209.365 251.917C207.879 251.917 206.674 250.711 206.674 249.225V233.655C206.674 232.169 207.879 230.963 209.365 230.963C210.851 230.963 212.056 232.169 212.056 233.655V249.225C212.056 250.711 210.851 251.917 209.365 251.917Z" fill="#626262"/>
<path d="M185.883 214.93V221.436L302.686 288.907V282.399L185.883 214.93Z" fill="url(#paint25_linear_7754_15339)"/>
<path d="M369.009 244.083V250.591L302.677 288.909V282.401L302.559 282.336L369.009 244.083Z" fill="url(#paint26_linear_7754_15339)"/>
<path d="M369.01 244.082L302.56 282.335L185.873 214.933L252.205 176.617L369.01 244.082Z" fill="url(#paint27_linear_7754_15339)"/>
<path d="M302.68 289.148C302.638 289.148 302.596 289.136 302.56 289.115L185.763 221.646C185.688 221.602 185.642 221.524 185.642 221.436L185.637 214.93C185.637 214.844 185.683 214.764 185.757 214.72L252.088 176.406C252.162 176.362 252.256 176.362 252.33 176.406L369.133 243.875C369.208 243.919 369.253 243.999 369.253 244.085V250.591C369.253 250.677 369.208 250.758 369.133 250.802L302.803 289.115C302.765 289.136 302.722 289.148 302.682 289.148H302.68ZM186.126 221.297L302.68 288.626L368.768 250.452V244.225L252.206 176.895L186.118 215.069L186.124 221.297H186.126Z" fill="#626262"/>
<path d="M280.928 188.517C280.928 187.613 280.565 186.754 279.929 186.117C279.859 186.005 279.759 185.905 279.632 185.831L250.12 168.784C248.611 167.913 246.753 167.913 245.244 168.784L216.111 185.613C216.013 185.67 215.927 185.737 215.857 185.814L215.555 186.142C214.84 186.824 214.436 187.77 214.436 188.758V189.605L216.708 188.521L244.329 204.587L249.146 211.445L252.36 203.08L278.778 187.82L278.656 188.105L280.928 188.517Z" fill="url(#paint28_linear_7754_15339)"/>
<path d="M247.681 239.045L215.692 220.568C214.915 220.119 214.436 219.287 214.436 218.389V188.514C214.436 187.654 215.366 187.117 216.111 187.547L245.657 204.612C246.911 205.337 247.683 206.676 247.683 208.124V239.045H247.681Z" fill="url(#paint29_linear_7754_15339)"/>
<path d="M247.684 239.045L280.931 219.841V188.076C280.931 187.411 280.211 186.994 279.634 187.327L249.71 204.612C248.455 205.336 247.684 206.676 247.684 208.124V239.045Z" fill="url(#paint30_linear_7754_15339)"/>
<path d="M333.348 216.623C333.348 215.719 332.985 214.859 332.349 214.223C332.279 214.11 332.179 214.011 332.051 213.936L302.54 196.89C301.031 196.018 299.173 196.018 297.664 196.89L268.53 213.718C268.433 213.776 268.347 213.843 268.276 213.919L267.975 214.248C267.26 214.93 266.855 215.876 266.855 216.864V217.71L269.128 216.627L296.749 232.693L301.566 239.551L304.78 231.185L331.198 215.925L331.075 216.21L333.348 216.623Z" fill="url(#paint31_linear_7754_15339)"/>
<path d="M300.101 267.151L268.112 248.673C267.335 248.224 266.855 247.393 266.855 246.495V216.619C266.855 215.759 267.786 215.222 268.53 215.652L298.076 232.718C299.331 233.442 300.103 234.781 300.103 236.23V267.151H300.101Z" fill="url(#paint32_linear_7754_15339)"/>
<path d="M300.104 267.15L333.351 247.947V216.181C333.351 215.516 332.631 215.1 332.054 215.432L302.13 232.718C300.875 233.442 300.104 234.781 300.104 236.23V267.15Z" fill="url(#paint33_linear_7754_15339)"/>
<path d="M309.01 167.906C309.01 167.002 308.647 166.142 308.011 165.506C307.941 165.393 307.842 165.294 307.714 165.219L278.202 148.173C276.693 147.302 274.835 147.302 273.326 148.173L244.193 165.002C244.095 165.059 244.009 165.126 243.939 165.202L243.637 165.531C242.922 166.213 242.518 167.159 242.518 168.147V168.993L244.79 167.91L272.411 183.976L277.228 190.834L280.442 182.468L306.86 167.209L306.738 167.493L309.01 167.906Z" fill="url(#paint34_linear_7754_15339)"/>
<path d="M275.763 218.434L243.774 199.956C242.997 199.507 242.518 198.676 242.518 197.778V167.902C242.518 167.043 243.448 166.506 244.193 166.936L273.739 184.001C274.993 184.725 275.765 186.065 275.765 187.513V218.434H275.763Z" fill="url(#paint35_linear_7754_15339)"/>
<path d="M275.766 218.434L309.013 199.23V167.465C309.013 166.8 308.293 166.383 307.716 166.716L277.792 184.001C276.537 184.725 275.766 186.064 275.766 187.513V218.434Z" fill="url(#paint36_linear_7754_15339)"/>
<g style="mix-blend-mode:overlay">
<path d="M279.003 391.873C282.015 393.612 282.012 397.961 278.998 399.696L227.231 429.495C222.343 432.309 216.326 432.305 211.442 429.484L109.415 370.55C106.406 368.811 106.406 364.468 109.415 362.73L166.721 329.629C168.118 328.822 169.84 328.822 171.237 329.629L279.003 391.873Z" fill="#D3D3D3"/>
</g>
<path d="M68.5098 339.927V346.435L185.315 413.904V407.398L68.5098 339.927Z" fill="url(#paint37_linear_7754_15339)"/>
<path d="M251.636 369.082V375.59L185.304 413.906V407.398L185.186 407.335L251.636 369.082Z" fill="url(#paint38_linear_7754_15339)"/>
<path d="M251.639 369.083L185.189 407.336L68.502 339.934L134.834 301.616L251.639 369.083Z" fill="url(#paint39_linear_7754_15339)"/>
<path d="M185.309 414.148C185.267 414.148 185.225 414.136 185.189 414.115L68.3917 346.646C68.3172 346.602 68.2714 346.524 68.2714 346.436L68.2656 339.93C68.2656 339.844 68.3115 339.764 68.3859 339.72L134.716 301.406C134.791 301.362 134.884 301.362 134.959 301.406L251.762 368.875C251.837 368.919 251.882 368.999 251.882 369.085V375.591C251.882 375.677 251.837 375.758 251.762 375.802L185.432 414.115C185.393 414.136 185.351 414.148 185.311 414.148H185.309ZM68.7527 346.297L185.307 413.626L251.395 375.452V369.225L134.833 301.895L68.745 340.069L68.7507 346.297H68.7527Z" fill="#626262"/>
<path d="M222.863 375.975C221.377 375.975 220.172 374.77 220.172 373.283V357.714C220.172 356.227 221.377 355.021 222.863 355.021C224.349 355.021 225.554 356.227 225.554 357.714V373.283C225.554 374.77 224.349 375.975 222.863 375.975Z" fill="#626262"/>
<path d="M172.208 379.382C172.208 377.895 171.003 376.689 169.517 376.689C168.031 376.689 166.826 377.895 166.826 379.382V394.953C166.826 396.44 168.031 397.645 169.517 397.645C171.003 397.645 172.208 396.44 172.208 394.953V379.382Z" fill="#626262"/>
<path d="M91.9938 352.103C90.5079 352.103 89.3027 350.898 89.3027 349.411V333.842C89.3027 332.355 90.5079 331.149 91.9938 331.149C93.4797 331.149 94.6848 332.355 94.6848 333.842V349.411C94.6848 350.898 93.4797 352.103 91.9938 352.103Z" fill="#626262"/>
<path d="M68.5098 313.778V320.285L185.315 387.753V381.247L68.5098 313.778Z" fill="url(#paint40_linear_7754_15339)"/>
<path d="M251.636 342.932V349.44L185.304 387.757V381.247L185.186 381.184L251.636 342.932Z" fill="url(#paint41_linear_7754_15339)"/>
<path d="M251.639 342.931L185.189 381.183L68.502 313.781L134.834 275.464L251.639 342.931Z" fill="url(#paint42_linear_7754_15339)"/>
<path d="M185.309 387.995C185.267 387.995 185.225 387.984 185.189 387.963L68.3917 320.494C68.3172 320.45 68.2714 320.372 68.2714 320.284L68.2656 313.778C68.2656 313.692 68.3115 313.611 68.3859 313.567L134.716 275.254C134.791 275.21 134.884 275.21 134.959 275.254L251.762 342.723C251.837 342.766 251.882 342.847 251.882 342.933V349.439C251.882 349.525 251.837 349.605 251.762 349.649L185.432 387.963C185.393 387.984 185.351 387.995 185.311 387.995H185.309ZM68.7527 320.144L185.307 387.474L251.395 349.3V343.072L134.833 275.743L68.745 313.917L68.7507 320.144H68.7527Z" fill="#626262"/>
<path d="M172.208 346.755C172.208 345.268 171.003 344.062 169.517 344.062C168.031 344.062 166.826 345.268 166.826 346.755V362.326C166.826 363.813 168.031 365.018 169.517 365.018C171.003 365.018 172.208 363.813 172.208 362.326V346.755Z" fill="#626262"/>
<path d="M222.863 343.348C221.377 343.348 220.172 342.142 220.172 340.655V325.086C220.172 323.599 221.377 322.394 222.863 322.394C224.349 322.394 225.554 323.599 225.554 325.086V340.655C225.554 342.142 224.349 343.348 222.863 343.348Z" fill="#626262"/>
<path d="M91.9938 319.475C90.5079 319.475 89.3027 318.27 89.3027 316.783V301.214C89.3027 299.727 90.5079 298.521 91.9938 298.521C93.4797 298.521 94.6848 299.727 94.6848 301.214V316.783C94.6848 318.27 93.4797 319.475 91.9938 319.475Z" fill="#626262"/>
<path d="M68.5098 282.489V288.996L185.315 356.466V349.958L68.5098 282.489Z" fill="url(#paint43_linear_7754_15339)"/>
<path d="M251.636 311.642V318.152L185.304 356.467V349.959L185.186 349.894L251.636 311.642Z" fill="url(#paint44_linear_7754_15339)"/>
<path d="M251.639 311.641L185.189 349.893L68.502 282.491L134.834 244.176L251.639 311.641Z" fill="url(#paint45_linear_7754_15339)"/>
<path d="M185.309 356.707C185.267 356.707 185.225 356.696 185.189 356.675L68.3917 289.206C68.3172 289.162 68.2714 289.084 68.2714 288.996L68.2656 282.489C68.2656 282.403 68.3115 282.323 68.3859 282.279L134.716 243.966C134.791 243.922 134.884 243.922 134.959 243.966L251.762 311.434C251.837 311.478 251.882 311.559 251.882 311.645V318.151C251.882 318.237 251.837 318.317 251.762 318.361L185.432 356.675C185.393 356.696 185.351 356.707 185.311 356.707H185.309ZM68.7527 288.854L185.307 356.184L251.395 318.01V311.782L134.833 244.453L68.745 282.627L68.7507 288.854H68.7527Z" fill="#626262"/>
<path d="M156.131 254.876L152.716 256.85L124.641 240.633L128.056 238.659L156.131 254.876Z" fill="#CECECE"/>
<path d="M129.686 306.659V275.342C129.686 274.03 128.984 272.801 127.853 272.134L126.768 271.496L99.176 255.558L96.676 257.199L96.5977 256.034C96.5977 254.845 96.93 253.955 97.6156 253.301C97.9957 252.938 98.4178 252.623 98.8723 252.359L127.341 235.915C128.902 235.013 130.842 235.013 132.402 235.915L161.914 252.961C162.057 253.043 162.174 253.154 162.263 253.292C162.689 253.722 163.001 254.26 163.167 254.849C163.255 255.006 163.302 255.183 163.302 255.367V287.239L163.211 287.293L129.688 306.657L129.686 306.659ZM99.1646 255.128L99.2619 255.185L126.953 271.181L128.038 271.819C129.282 272.551 130.053 273.902 130.053 275.344V306.022L162.932 287.031V255.373C162.932 255.246 162.899 255.128 162.836 255.021L162.817 254.975C162.668 254.432 162.382 253.937 161.988 253.544L161.964 253.511C161.904 253.418 161.824 253.341 161.729 253.286L132.217 236.24C130.769 235.405 128.972 235.405 127.524 236.24L99.0557 252.684C98.626 252.932 98.2287 253.23 97.8696 253.573C97.2604 254.153 96.9644 254.956 96.9644 256.026L97.0006 256.551L99.1646 255.132V255.128Z" fill="#A9A9A9"/>
<path d="M129.87 306.339L97.8817 287.862C97.1044 287.413 96.625 286.581 96.625 285.683V255.808C96.625 254.948 97.5551 254.411 98.3 254.841L127.846 271.906C129.101 272.63 129.872 273.97 129.872 275.418V306.339H129.87Z" fill="#A9A9A9"/>
<path d="M129.686 306.658V275.418C129.686 273.908 130.497 272.5 131.806 271.745L161.73 254.46C162.058 254.271 162.45 254.271 162.778 254.46C163.107 254.649 163.302 254.99 163.302 255.368V287.24L163.21 287.294L129.687 306.658H129.686ZM162.253 254.688C162.136 254.688 162.02 254.718 161.913 254.779L131.989 272.065C130.795 272.754 130.054 274.038 130.054 275.418V306.02L162.933 287.028V255.37C162.933 255.123 162.805 254.904 162.593 254.781C162.486 254.72 162.369 254.69 162.253 254.69V254.688Z" fill="#A9A9A9"/>
<path d="M162.981 255.971C162.981 255.068 162.618 254.208 161.982 253.571C161.912 253.459 161.812 253.359 161.684 253.285L132.173 236.238C130.664 235.367 128.806 235.367 127.297 236.238L98.1632 253.067C98.0658 253.124 97.9799 253.191 97.9092 253.268L97.6075 253.596C96.8932 254.278 96.4883 255.224 96.4883 256.212V257.059L98.761 255.975L126.382 272.041L131.199 278.899L134.413 270.534L160.831 255.274L160.708 255.559L162.981 255.971Z" fill="url(#paint46_linear_7754_15339)"/>
<path d="M129.734 306.499L97.745 288.022C96.9677 287.573 96.4883 286.741 96.4883 285.843V255.968C96.4883 255.108 97.4184 254.571 98.1632 255.001L127.709 272.066C128.964 272.791 129.736 274.13 129.736 275.579V306.499H129.734Z" fill="url(#paint47_linear_7754_15339)"/>
<path d="M129.736 306.499L162.984 287.295V255.53C162.984 254.865 162.264 254.448 161.687 254.781L131.763 272.066C130.508 272.79 129.736 274.13 129.736 275.578V306.499Z" fill="url(#paint48_linear_7754_15339)"/>
<path d="M155.338 289.004L158.755 287.03V258.941L155.338 260.915V289.004Z" fill="#8A8A8A"/>
<path d="M150.062 292.052L153.477 290.078V261.989L150.062 263.963V292.052Z" fill="#8A8A8A"/>
<path d="M183.036 334.088L151.048 315.611C150.27 315.162 149.791 314.33 149.791 313.432V283.557C149.791 282.697 150.721 282.16 151.466 282.59L181.012 299.655C182.267 300.38 183.038 301.719 183.038 303.167V334.088H183.036Z" fill="#A9A9A9"/>
<path d="M216.338 283.14C216.338 282.237 215.976 281.377 215.34 280.74C215.269 280.628 215.17 280.528 215.042 280.454L185.53 263.407C184.021 262.536 182.163 262.536 180.654 263.407L151.521 280.236C151.423 280.293 151.337 280.36 151.267 280.437L150.965 280.765C150.251 281.447 149.846 282.393 149.846 283.381V284.228L152.118 283.144L179.739 299.21L184.556 306.068L187.77 297.703L214.188 282.443L214.066 282.728L216.338 283.14Z" fill="url(#paint49_linear_7754_15339)"/>
<path d="M183.091 333.668L151.102 315.191C150.325 314.742 149.846 313.91 149.846 313.012V283.137C149.846 282.277 150.776 281.74 151.521 282.17L181.067 299.235C182.321 299.96 183.093 301.299 183.093 302.747V333.668H183.091Z" fill="url(#paint50_linear_7754_15339)"/>
<path d="M183.094 333.668L216.341 314.464V282.699C216.341 282.034 215.621 281.617 215.044 281.95L185.12 299.235C183.865 299.959 183.094 301.299 183.094 302.747V333.668Z" fill="url(#paint51_linear_7754_15339)"/>
<path d="M158.571 286.208V254.891C158.571 253.579 157.868 252.35 156.738 251.683L155.653 251.045L128.061 235.107L125.561 236.748L125.482 235.582C125.482 234.394 125.815 233.504 126.5 232.85C126.88 232.487 127.303 232.172 127.757 231.908L156.226 215.464C157.786 214.562 159.725 214.562 161.287 215.464L190.799 232.51C190.94 232.592 191.058 232.703 191.148 232.84C191.574 233.272 191.885 233.809 192.052 234.398C192.141 234.554 192.187 234.732 192.187 234.916V266.788L192.096 266.841L158.573 286.206L158.571 286.208ZM128.049 234.677L128.147 234.734L155.838 250.729L156.923 251.368C158.166 252.1 158.938 253.45 158.938 254.893V285.571L191.817 266.58V234.921C191.817 234.793 191.784 234.677 191.721 234.57L191.702 234.524C191.553 233.981 191.267 233.486 190.873 233.093L190.848 233.06C190.789 232.965 190.709 232.89 190.613 232.835L161.102 215.788C159.654 214.953 157.857 214.953 156.409 215.788L127.94 232.233C127.511 232.481 127.112 232.779 126.754 233.121C126.145 233.702 125.849 234.505 125.849 235.575L125.885 236.1L128.049 234.681V234.677Z" fill="#A9A9A9"/>
<path d="M158.753 285.888L126.765 267.41C125.987 266.961 125.508 266.13 125.508 265.232V235.357C125.508 234.497 126.438 233.96 127.183 234.39L156.729 251.455C157.984 252.179 158.755 253.519 158.755 254.967V285.888H158.753Z" fill="#A9A9A9"/>
<path d="M158.57 286.207V254.967C158.57 253.457 159.382 252.049 160.688 251.294L190.613 234.009C190.941 233.82 191.333 233.82 191.661 234.009C191.99 234.198 192.186 234.538 192.186 234.917V266.789L192.095 266.843L158.572 286.207H158.57ZM191.138 234.236C191.021 234.236 190.905 234.267 190.798 234.328L160.874 251.613C159.68 252.303 158.939 253.587 158.939 254.967V285.569L191.818 266.577V234.919C191.818 234.672 191.69 234.452 191.478 234.33C191.371 234.269 191.254 234.238 191.138 234.238V234.236Z" fill="#A9A9A9"/>
<path d="M192.001 235.361C192.001 234.457 191.638 233.597 191.002 232.961C190.931 232.848 190.832 232.749 190.704 232.674L161.192 215.628C159.683 214.757 157.825 214.757 156.316 215.628L127.183 232.457C127.085 232.514 126.999 232.581 126.929 232.657L126.627 232.986C125.913 233.668 125.508 234.614 125.508 235.602V236.448L127.781 235.365L155.401 251.431L160.218 258.289L163.432 249.923L189.85 234.664L189.728 234.948L192.001 235.361Z" fill="url(#paint52_linear_7754_15339)"/>
<path d="M158.753 285.889L126.765 267.411C125.987 266.962 125.508 266.131 125.508 265.233V235.358C125.508 234.498 126.438 233.961 127.183 234.391L156.729 251.456C157.984 252.18 158.755 253.52 158.755 254.968V285.889H158.753Z" fill="url(#paint53_linear_7754_15339)"/>
<path d="M158.756 285.889L192.003 266.685V234.92C192.003 234.255 191.283 233.838 190.706 234.171L160.782 251.456C159.527 252.18 158.756 253.519 158.756 254.968V285.889Z" fill="url(#paint54_linear_7754_15339)"/>
<path d="M389.388 378.905C380.719 383.911 380.719 392.031 389.388 397.037C398.057 402.043 412.11 402.043 420.779 397.037C429.448 392.031 429.448 383.911 420.779 378.905C412.11 373.899 398.057 373.899 389.388 378.905Z" fill="#191C24"/>
<path d="M368.91 325.328L376.703 320.828V310.059L368.91 314.559V325.328Z" fill="#626262"/>
<path d="M369.812 325.799L377.603 321.299V310.527L369.812 315.027V325.799Z" fill="#444957"/>
<path d="M377.604 310.527L376.703 310.059L368.91 314.559L369.814 315.027L377.604 310.527Z" fill="#1E2433"/>
<path d="M368.91 314.56V325.329L369.814 325.799V315.028L368.91 314.56Z" fill="#1E2433"/>
<path d="M371.332 315.931L376.718 312.82V312.222L371.332 315.332V315.931Z" fill="#B56E1B"/>
<path d="M371.332 317.5L376.718 314.387V313.789L371.332 316.902V317.5Z" fill="#B56E1B"/>
<path d="M371.332 319.066L376.718 315.954V315.355L371.332 318.468V319.066Z" fill="#B56E1B"/>
<path d="M371.332 320.633L376.718 317.522V316.924L371.332 320.035V320.633Z" fill="#B56E1B"/>
<path d="M371.332 322.203L376.718 319.09V318.492L371.332 321.605V322.203Z" fill="#B56E1B"/>
<path d="M370.768 323.792C370.768 324.183 371.085 324.317 371.476 324.092C371.868 323.866 372.185 323.364 372.185 322.972C372.185 322.58 371.868 322.447 371.476 322.672C371.085 322.897 370.768 323.4 370.768 323.792Z" fill="#B56E1B"/>
<path d="M370.344 320.55L370.726 320.33L370.741 320.32V320.722L370.359 320.941L370.344 320.951V320.55ZM370.72 320.355L370.365 320.561V320.915L370.72 320.708V320.355Z" fill="#626262"/>
<path d="M370.608 320.771L370.826 320.429L370.772 320.395L370.585 320.693L369.972 320.435L369.947 320.492L370.608 320.771Z" fill="#626262"/>
<path d="M369.56 314.904C369.56 314.904 369.565 314.904 369.565 314.9C369.567 314.896 369.565 314.893 369.561 314.891L369.061 314.631C369.061 314.631 369.053 314.631 369.052 314.635C369.05 314.639 369.052 314.642 369.055 314.644L369.556 314.904C369.556 314.904 369.558 314.904 369.56 314.904Z" fill="#FDFDFD"/>
<path d="M368.84 322.497V318.914L367.265 319.636L366.031 321.591C365.723 322.078 365.748 322.705 366.094 323.166L367.188 324.249L368.84 322.497Z" fill="#D9D9D9"/>
<path d="M387.139 382.573L395.023 385.336C396.954 386.208 399.161 384.828 399.171 382.74C399.171 382.732 399.171 382.724 399.171 382.717C399.171 382.717 399.163 382.535 399.146 382.453C399.054 381.99 398.716 381.612 398.26 381.455L392.154 379.205C390.515 378.601 388.68 378.826 387.242 379.806L386.673 380.261C385.823 380.934 386.092 382.269 387.139 382.573Z" fill="#F09123"/>
<path d="M395.104 341.499L399.546 361.219L404.063 371.396L409.422 380.885L415.056 378.454L415.052 378.437L414.861 377.774C413.948 374.592 412.908 371.453 411.737 368.365C410.566 365.275 409.265 362.231 407.837 359.25L404.857 339.468L396.664 341.172L395.105 341.497L395.104 341.499Z" fill="url(#paint55_linear_7754_15339)"/>
<path d="M396.277 341.782L401.037 360.561L405.55 370.734L410.909 380.227L415.055 378.439L414.864 377.776C413.951 374.594 412.911 371.455 411.74 368.367C410.569 365.277 409.268 362.233 407.84 359.252L404.86 339.47L396.281 341.784L396.277 341.782Z" fill="url(#paint56_linear_7754_15339)"/>
<path d="M387.225 342.796L388.384 364.075L392.209 381.594L398.844 381.71V381.672L398.791 379.841C398.707 377.04 398.445 374.246 397.998 371.487C397.548 368.722 396.923 365.992 396.115 363.307L398.008 341.747L398.029 341.497L387.228 342.795L387.225 342.796Z" fill="url(#paint57_linear_7754_15339)"/>
<path d="M389.289 342.797L390.452 364.076L394.278 381.594L398.84 381.672L398.787 379.842C398.703 377.041 398.441 374.247 397.994 371.488C397.544 368.723 396.919 365.992 396.111 363.308L399.171 341.608L389.291 342.795L389.289 342.797Z" fill="url(#paint58_linear_7754_15339)"/>
<path d="M393.153 312.784C389.089 313.482 386.085 317.485 386.01 321.61C385.884 328.604 385.073 339.306 386.049 346.025C386.186 346.972 386.96 347.699 387.915 347.764L391.335 347.999C396.372 348.344 399.206 345.427 403.952 343.707C405.82 343.03 407.012 341.198 406.874 339.215L404.947 327.232L406.977 313.992C407.015 310.78 403.992 308.408 400.883 309.211L393.152 312.784H393.153Z" fill="url(#paint59_linear_7754_15339)"/>
<path d="M386.106 318.484L379.116 330.441L384.232 329.948L369.054 322.139C368.464 321.835 367.742 322.001 367.343 322.531L367.297 322.592C366.804 323.247 366.921 324.174 367.559 324.688L379.484 334.261C380.775 335.925 383.329 335.799 384.448 334.013L384.603 333.766L391.958 322.03C392.972 320.412 392.466 318.275 390.833 317.285C389.2 316.296 387.072 316.836 386.108 318.485L386.106 318.484Z" fill="url(#paint60_linear_7754_15339)"/>
<path d="M400.422 309.558L399.465 307.227L400.848 303.246C402.093 301.114 401.908 298.439 400.382 296.497C398.961 294.69 396.637 293.843 394.387 294.315L391.677 294.883C390.542 295.12 389.828 296.247 390.097 297.375L390.105 297.405C390.221 297.894 390.246 298.389 390.181 298.88L389.876 301.171C389.622 301.972 389.576 302.822 389.744 303.646L389.939 304.605C390.445 306.17 392.122 307.032 393.69 306.533L394.184 312.483L400.424 309.558H400.422Z" fill="#D9D9D9"/>
<path d="M390.207 298.59L392.09 300.19C392.09 300.19 392.398 301.361 392.199 302.683C392.001 304.004 394.556 305.741 394.556 305.741L396.025 307.621C396.338 308.02 396.829 308.238 397.335 308.198L399.054 308.062C399.995 307.988 400.813 307.384 401.153 306.503C401.462 305.704 401.791 304.779 401.852 304.306C401.913 303.822 402.341 302.842 402.738 302.009C403.257 300.92 403.406 299.683 403.124 298.51C402.956 297.809 402.707 297.079 402.35 296.592C401.451 295.363 401.265 294.069 398.897 293.513C396.529 292.957 392.751 292.785 391.787 293.334C390.822 293.884 390.963 294.23 390.073 295.613C389.183 296.999 390.203 298.592 390.203 298.592L390.207 298.59Z" fill="#7A441B"/>
<path d="M400.859 309.463L399.91 308.312L394.034 310.701L393.875 312.65L400.859 309.463Z" fill="#DF8621"/>
<path d="M392.299 303.901L392.883 303.053C393.116 302.713 393.681 302.636 394.041 302.896C394.253 303.049 394.339 303.284 394.262 303.506L393.489 305.776L391.777 305.044L392.299 303.899V303.901Z" fill="#D9D9D9"/>
<path d="M398.847 378.617L396.754 378.969L391.564 378.479L392.42 383.574L397.762 383.9C398.574 383.95 399.238 383.268 399.172 382.458L398.849 378.617H398.847Z" fill="#F09123"/>
<path d="M409.422 380.888L409.331 382.443C409.283 383.263 408.603 383.905 407.782 383.905H405.698C405.1 383.905 404.543 384.203 404.208 384.7C403.511 385.737 404.063 387.153 405.278 387.445L406.204 387.669C407.942 388.088 409.757 388.076 411.489 387.633L416.288 386.406C417.847 386.007 418.576 384.212 417.736 382.839L415.057 378.457L409.42 380.889L409.422 380.888Z" fill="#8A8A8A"/>
<path d="M409.422 380.888L409.331 382.443C409.283 383.263 408.603 383.905 407.782 383.905H405.698C405.1 383.905 404.543 384.203 404.208 384.7C403.511 385.737 404.063 387.153 405.278 387.445L406.204 387.669C407.942 388.088 409.757 388.076 411.489 387.633L416.288 386.406C417.847 386.007 418.576 384.212 417.736 382.839L415.057 378.457L409.42 380.889L409.422 380.888Z" fill="#F09123"/>
<path d="M369.916 320.084L370.029 320.006C370.336 319.792 370.745 319.792 371.053 320.008C371.179 320.096 371.19 320.279 371.077 320.382L370.424 320.982C370.396 321.007 370.363 321.026 370.327 321.036L368.568 321.527C368.451 321.559 368.329 321.5 368.281 321.389L368.033 320.805C367.974 320.665 368.056 320.507 368.203 320.474L369.832 320.121C369.863 320.113 369.893 320.102 369.918 320.082L369.916 320.084Z" fill="#D9D9D9"/>
<g style="mix-blend-mode:overlay">
<path d="M623.655 327.968C626.664 329.706 626.664 334.049 623.655 335.788L515.01 398.543C510.12 401.368 504.093 401.368 499.202 398.543L442.262 365.653C438.5 363.48 438.5 358.051 442.262 355.878L554.86 290.839C556.258 290.032 557.979 290.032 559.377 290.839L623.655 327.968Z" fill="#D3D3D3"/>
</g>
<path d="M547.15 235.791V266.717L546.38 267.164L546.348 267.151L544.241 266.091L544.218 237.866L526.722 247.972L516.139 254.087L512.552 256.156L512.067 256.437C511.701 256.647 511.34 256.875 510.983 257.123C506.575 260.115 502.831 265.416 501.685 270.432L494.386 303.596L492.888 310.4L491.662 310.129L491.681 309.89L492.68 297.718L498.824 269.788C500.152 263.989 504.512 257.864 509.615 254.505C509.944 254.291 510.272 254.087 510.599 253.896L512.552 252.768L544.543 234.285C545.702 233.616 547.152 234.453 547.152 235.791H547.15Z" fill="#B1B1B0"/>
<path d="M547.151 235.443V266.719L546.382 267.167L546.349 267.186V238.579L546.359 236.752L544.218 237.866L526.721 247.972L516.138 254.087L513.486 255.62L512.554 256.157L512.068 256.437C511.702 256.648 511.341 256.875 510.984 257.123C506.576 260.116 502.832 265.416 501.686 270.432L494.387 303.596L494.811 298.433L500.955 270.503C502.282 264.704 506.642 258.579 511.746 255.22C511.912 255.111 512.078 255.006 512.244 254.901C512.407 254.802 512.567 254.706 512.729 254.611L514.683 253.483L514.893 253.365L525.476 247.25L546.531 235.088L547.153 235.445L547.151 235.443Z" fill="#7D7D7D"/>
<path d="M557.169 295.008L536.416 306.997L538.836 287.231L543.001 269.776L553.584 263.663C555.565 262.519 557.169 263.199 557.169 265.179V295.01V295.008Z" fill="#A9A9A9"/>
<path d="M514.619 306.997L519.9 285.739L542.309 272.751L537.253 293.877L514.619 306.997Z" fill="#818181"/>
<path d="M552.177 293.199L489.783 329.24V318.133L491.252 310.023L502.847 303.326L506.176 307.14L515.886 301.53L517.599 294.804L552.177 274.83V293.199Z" fill="#A9A9A9"/>
<path d="M496.284 325.486C496.284 329.078 493.373 333.672 489.783 335.745C486.192 337.819 483.281 336.588 483.281 332.996C483.281 329.403 486.192 324.81 489.783 322.736C493.373 320.663 496.284 321.894 496.284 325.486Z" fill="#818181"/>
<path d="M549.419 297.249C549.419 300.841 546.508 305.435 542.917 307.508C539.327 309.581 536.416 308.351 536.416 304.758C536.416 301.166 539.327 296.572 542.917 294.499C546.508 292.426 549.419 293.657 549.419 297.249Z" fill="#818181"/>
<path d="M543.002 269.774L577.603 289.907L576.91 292.884L542.309 272.751L543.002 269.774Z" fill="#7D7D7D"/>
<path d="M542.309 272.752L576.91 292.884L554.57 305.868L519.969 285.736L542.309 272.752Z" fill="url(#paint61_linear_7754_15339)"/>
<path d="M519.97 285.735L515.887 301.53L550.488 321.662L554.575 305.873L519.97 285.735Z" fill="#A9A9A9"/>
<path d="M515.886 301.53L550.487 321.663L540.777 327.273L506.176 307.14L515.886 301.53Z" fill="#B1B1B0"/>
<path d="M534.687 296.178L527.32 305.3L533.172 309.83L534.687 296.178Z" fill="#282828"/>
<path d="M493.797 298.468L505.394 291.769L539.995 311.903L528.398 318.6L493.797 298.468Z" fill="url(#paint62_linear_7754_15339)"/>
<path d="M538.941 305.687C537.838 305.687 536.6 305.318 535.341 304.59C531.506 302.375 528.502 297.61 528.502 293.742C528.502 291.917 529.19 290.515 530.439 289.792C531.898 288.95 533.945 289.164 536.054 290.383C539.889 292.598 542.893 297.363 542.893 301.231C542.893 303.055 542.205 304.458 540.956 305.18C540.368 305.52 539.686 305.689 538.941 305.689V305.687ZM532.463 290.708C531.968 290.708 531.525 290.815 531.153 291.029C530.353 291.491 529.929 292.429 529.929 293.742C529.929 297.092 532.677 301.403 536.054 303.353C537.71 304.309 539.236 304.525 540.242 303.944C541.042 303.482 541.466 302.543 541.466 301.231C541.466 297.881 538.718 293.57 535.341 291.619C534.298 291.017 533.305 290.708 532.463 290.708Z" fill="#282828"/>
<path d="M533.473 303.646L533.045 297.699L529.424 291.407L530.66 290.696L534.445 297.271L534.896 303.543L533.473 303.646Z" fill="#282828"/>
<path d="M539.743 294.437L533.492 296.802L533.997 298.137L540.248 295.772L539.743 294.437Z" fill="#282828"/>
<path d="M528.464 318.599L526.058 330.199L524.385 338.265L489.783 318.133L490.444 306.996L492.415 297.484L495.135 299.21L527.076 317.789L528.464 318.599Z" fill="#A6A6A6"/>
<path d="M489.783 318.133V329.24L524.385 349.373V338.265L489.783 318.133Z" fill="#858585"/>
<path d="M588.186 283.793L581.551 287.629L580.747 288.09L577.603 289.907L550.538 274.158L549.291 273.434L543.004 269.777L553.587 263.662L559.874 267.321L561.119 268.044L580.747 279.463L581.551 279.935L588.186 283.793Z" fill="url(#paint63_linear_7754_15339)"/>
<path d="M548.898 327.359L554.577 305.873L576.913 292.884L571.857 314.01L548.898 327.359Z" fill="#8A8A8A"/>
<path d="M589.135 316.662L588.94 316.777L588.069 317.277L582.48 311.562L573.578 316.41L571.088 321.919L570.834 322.544L574.186 314.341L585.149 308.507L589.135 316.662Z" fill="#282828"/>
<path d="M535.699 342.838L530.886 345.616C530.886 342.024 527.975 340.795 524.385 342.871V340.258L530.672 337.023C531.675 336.509 532.907 336.924 533.388 337.946L535.699 342.838Z" fill="#282828"/>
<path d="M591.769 285.311V315.141L589.947 316.197L589.134 316.664L585.148 308.508L574.185 314.342L570.831 322.459L568.112 324.116L567.094 324.706L536.556 342.345L535.695 342.84L533.384 337.948C532.903 336.926 531.673 336.511 530.668 337.025L524.381 340.26V338.267L524.566 337.358L528.329 318.914L539.924 312.215L540.775 327.274L550.487 321.664L552.198 314.936L574.731 301.922L577.6 289.906L588.183 283.792C590.165 282.649 591.769 283.329 591.769 285.309V285.311Z" fill="url(#paint64_linear_7754_15339)"/>
<path d="M581.55 255.399V286.79L580.78 287.237L580.748 287.224L578.641 286.163L578.618 257.939L561.122 268.045L550.539 274.16L546.952 276.229L546.467 276.51C546.101 276.72 545.74 276.947 545.383 277.196C540.974 280.188 537.231 285.489 536.085 290.505L530.226 316.182L527.078 317.793L533.222 289.863C534.55 284.063 538.91 277.939 544.013 274.58C544.342 274.366 544.67 274.161 544.997 273.97L546.951 272.843L579.342 254.129C580.324 253.561 581.548 254.27 581.548 255.403L581.55 255.399Z" fill="#B1B1B0"/>
<path d="M581.549 255.487V286.792L580.78 287.239L580.747 287.258V258.651L580.757 256.824L578.616 257.938L561.119 268.045L550.536 274.159L546.95 276.229L546.465 276.509C546.098 276.72 545.737 276.947 545.38 277.195C540.972 280.188 537.228 285.488 535.786 291.804L530.267 315.996L529.285 316.663L535.351 290.577C536.678 284.778 541.039 278.653 546.142 275.294C546.47 275.08 546.799 274.876 547.125 274.685L549.079 273.557L549.289 273.439L559.872 267.324L580.951 255.147C581.217 254.994 581.549 255.185 581.549 255.492V255.487Z" fill="#626262"/>
<path d="M531.024 344L533.444 340.072L529.779 337.924L529.775 337.931C528.574 337.268 526.83 337.494 524.941 338.749C521.587 340.977 519.043 345.607 519.261 349.091C519.341 350.384 519.794 351.338 520.501 351.911H520.502C520.713 352.081 520.947 352.217 521.2 352.318L524.658 354.338L527.237 350.151C528.994 348.487 530.378 346.211 531.026 344H531.024Z" fill="#272727"/>
<path d="M534.892 343.047C535.11 346.529 532.568 351.159 529.212 353.389C525.858 355.617 522.961 354.602 522.743 351.119C522.526 347.637 525.068 343.007 528.423 340.777C531.777 338.549 534.675 339.564 534.892 343.047Z" fill="#393939"/>
<path d="M533.222 344.156C533.381 346.682 531.538 350.037 529.106 351.654C527.642 352.626 526.299 352.747 525.428 352.137C524.849 351.734 524.479 351.014 524.416 350.008C524.257 347.482 526.1 344.127 528.533 342.51C529.511 341.861 530.438 341.589 531.202 341.666C532.34 341.775 533.127 342.646 533.222 344.156Z" fill="#FDFDFD"/>
<path d="M532.214 343.796C532.372 346.322 530.529 349.677 528.096 351.294C527.118 351.943 526.192 352.213 525.428 352.138C524.849 351.735 524.479 351.015 524.416 350.009C524.257 347.483 526.1 344.128 528.533 342.511C529.511 341.862 530.438 341.59 531.202 341.667C531.78 342.07 532.151 342.79 532.214 343.796Z" fill="#C6C6C6"/>
<path d="M581.545 253.046V255.121C581.555 255.444 581.402 255.773 581.079 255.958L548.783 274.497L547.194 275.41C547.07 275.481 546.932 275.525 546.795 275.534V273.369C546.932 273.36 547.07 273.322 547.194 273.251L548.783 272.332L581.079 253.799C581.373 253.627 581.532 253.342 581.545 253.048V253.046Z" fill="#626262"/>
<path d="M581.544 253.045C581.53 253.34 581.372 253.626 581.078 253.796L548.781 272.329L547.192 273.248C547.068 273.319 546.931 273.357 546.793 273.367V275.532C546.627 275.545 546.451 275.509 546.298 275.432L543.86 274.171L512.02 255.638L511.978 255.615L510.732 254.891L510.328 254.658C510.047 254.492 509.9 254.221 509.875 253.936H509.871V251.78H509.875L512.438 251.822L544.102 233.546C544.392 233.379 544.75 233.379 545.04 233.546L546.352 234.306L546.999 234.677L578.759 252.996L581.545 253.044L581.544 253.045Z" fill="#7D7D7D"/>
<path d="M581.544 253.045C581.531 253.34 581.373 253.626 581.078 253.796L548.782 272.329L547.193 273.248C547.069 273.319 546.932 273.357 546.794 273.367C546.628 273.38 546.452 273.348 546.299 273.268L543.86 272.012L512.021 253.479L511.979 253.451L510.733 252.732L510.328 252.493C510.053 252.331 509.901 252.059 509.876 251.779C509.834 251.437 509.99 251.073 510.332 250.875L544.103 231.384C544.393 231.218 544.75 231.218 545.041 231.384L546.353 232.141L547 232.512L581.086 252.172C581.418 252.363 581.571 252.709 581.548 253.044L581.544 253.045Z" fill="url(#paint65_linear_7754_15339)"/>
<path d="M583.611 316.824L586.116 312.754L582.319 310.53L582.316 310.538C581.07 309.85 579.264 310.085 577.306 311.384C573.83 313.692 571.196 318.49 571.422 322.098C571.506 323.439 571.974 324.425 572.707 325.02L572.709 325.022C572.927 325.197 573.169 325.337 573.431 325.444L577.014 327.536L579.686 323.199C581.506 321.473 582.942 319.115 583.611 316.826V316.824Z" fill="#272727"/>
<path d="M587.615 315.837C587.841 319.444 585.207 324.24 581.731 326.551C578.255 328.859 575.254 327.806 575.029 324.198C574.804 320.591 577.437 315.795 580.913 313.484C584.389 311.176 587.39 312.229 587.615 315.837Z" fill="#393939"/>
<path d="M585.885 316.986C586.05 319.602 584.14 323.079 581.621 324.753C580.104 325.76 578.712 325.884 577.808 325.256C577.211 324.839 576.825 324.09 576.76 323.049C576.596 320.433 578.505 316.955 581.027 315.281C582.041 314.607 582.999 314.328 583.792 314.408C584.97 314.523 585.788 315.423 585.885 316.988V316.986Z" fill="#FDFDFD"/>
<path d="M584.841 316.613C585.005 319.229 583.095 322.707 580.574 324.38C579.56 325.055 578.601 325.332 577.808 325.254C577.211 324.837 576.825 324.088 576.76 323.047C576.596 320.431 578.505 316.953 581.027 315.279C582.041 314.605 582.999 314.326 583.792 314.406C584.39 314.823 584.776 315.572 584.841 316.613Z" fill="#C6C6C6"/>
<path d="M589.737 317.168C589.668 317.207 589.582 317.18 589.548 317.111L586.532 310.939C586.037 309.925 584.8 309.523 583.805 310.054L575.785 314.321C575.063 314.705 574.513 315.346 574.244 316.117L572.452 321.229C572.103 322.226 571.408 323.065 570.493 323.593L570.141 323.795C569.187 324.347 568.086 323.348 568.545 322.343L572.353 313.987C572.659 313.316 573.182 312.77 573.837 312.437L583.9 307.314C584.916 306.797 586.16 307.236 586.626 308.277L590.102 316.051C590.285 316.461 590.128 316.945 589.737 317.168Z" fill="#CECECE"/>
<path d="M536.507 344.217C536.44 344.256 536.354 344.227 536.322 344.156L535.699 342.838L533.388 337.946C532.907 336.924 531.677 336.509 530.672 337.023L524.385 340.258L522.597 341.181C521.87 341.558 521.314 342.19 521.033 342.96L519.173 348.047C518.806 349.036 518.103 349.87 517.181 350.384L516.829 350.584C515.863 351.121 514.78 350.108 515.25 349.109L519.169 340.807C519.482 340.14 520.015 339.599 520.672 339.274L524.572 337.356L530.808 334.287C531.83 333.782 533.067 334.239 533.518 335.286L536.562 342.343L536.891 343.103C537.067 343.518 536.904 343.998 536.511 344.217H536.507Z" fill="#CECECE"/>
<path d="M490.25 330.839L441.651 358.911C441.359 359.079 441.103 359.262 440.881 359.453L439.884 358.84V361.041C439.689 362.077 440.276 363.153 441.651 363.946C444.057 365.337 447.961 365.337 450.367 363.946L498.967 335.874L490.25 330.839Z" fill="#797979"/>
<path d="M441.651 361.755C439.244 360.364 439.244 358.109 441.651 356.72L490.25 328.648L498.966 333.683L450.367 361.755C447.961 363.146 444.057 363.146 441.651 361.755Z" fill="#9B9B9A"/>
<path d="M502.697 338.64L454.098 366.711C453.806 366.88 453.55 367.063 453.328 367.254L452.331 366.641V368.842C452.137 369.878 452.723 370.953 454.098 371.746C456.504 373.137 460.408 373.137 462.815 371.746L511.414 343.675L502.697 338.64Z" fill="#797979"/>
<path d="M454.098 369.558C451.691 368.167 451.691 365.912 454.098 364.523L502.697 336.451L511.414 341.486L462.815 369.558C460.408 370.949 456.504 370.949 454.098 369.558Z" fill="#9B9B9A"/>
<path d="M521.422 267.99V272.801L517.47 270.516L491.137 255.309V250.498L517.47 265.706L521.422 267.99Z" fill="#B1B1B0"/>
<path d="M520.542 273.969L488.223 255.308V250.498L520.542 269.159V273.969Z" fill="#7D7D7D"/>
<path d="M495.981 335.017L492.025 337.302V250.958L495.981 248.675V335.017Z" fill="#626262"/>
<path d="M492.028 337.302L488.074 335.017V248.675L492.028 250.958V337.302Z" fill="#7D7D7D"/>
<path d="M495.949 248.717L492.026 250.984L488.104 248.717L492.026 246.451L495.949 248.717Z" fill="#B1B1B0"/>
<path d="M521.422 263.299V349.641L517.471 351.924V265.582L521.422 263.299Z" fill="#626262"/>
<path d="M517.471 351.926L513.518 349.643V263.299L517.471 265.584V351.926Z" fill="#7D7D7D"/>
<path d="M521.391 263.341L517.468 265.608L513.545 263.341L517.468 261.075L521.391 263.341Z" fill="#B1B1B0"/>
<path d="M524.777 358.642L472.992 328.728V286.561L524.777 316.474V358.642Z" fill="url(#paint66_linear_7754_15339)"/>
<path d="M472.992 286.561L476.978 284.738L528.763 314.65L524.777 316.475L472.992 286.561Z" fill="url(#paint67_linear_7754_15339)"/>
<path d="M528.763 314.65V356.818L524.777 358.643V316.475L528.763 314.65Z" fill="#626262"/>
<path d="M504.651 319.679C504.651 318.776 504.288 317.916 503.652 317.279C503.581 317.167 503.482 317.067 503.354 316.993L473.843 299.946C472.334 299.075 470.475 299.075 468.967 299.946L439.833 316.775C439.736 316.832 439.65 316.899 439.579 316.976L439.277 317.304C438.563 317.986 438.158 318.932 438.158 319.92V320.767L440.431 319.683L468.052 335.749L472.869 342.607L476.083 334.242L502.5 318.982L502.378 319.267L504.651 319.679Z" fill="url(#paint68_linear_7754_15339)"/>
<path d="M471.404 370.207L439.415 351.73C438.638 351.281 438.158 350.449 438.158 349.551V319.676C438.158 318.816 439.088 318.279 439.833 318.709L469.379 335.774C470.634 336.499 471.406 337.838 471.406 339.287V370.207H471.404Z" fill="url(#paint69_linear_7754_15339)"/>
<path d="M471.406 370.207L504.654 351.003V319.238C504.654 318.573 503.934 318.156 503.357 318.489L473.433 335.774C472.178 336.498 471.406 337.838 471.406 339.286V370.207Z" fill="url(#paint70_linear_7754_15339)"/>
<path d="M588.404 165.302C588.404 151.453 577.181 133.745 563.338 125.748C555.974 121.495 549.35 120.847 544.765 123.261L534.711 129.029L538.691 142.449C540.519 159.113 548.239 193.733 558.103 207.917L561.172 218.27L570.032 213.386C570.168 213.317 570.302 213.241 570.435 213.164L570.569 213.09V213.086C580.886 206.864 588.406 176.639 588.406 165.302H588.404ZM563.336 165.971C563.126 165.851 562.918 165.724 562.71 165.595C558.073 162.696 554.765 158.083 553.254 152.827L552.06 148.669C550.173 142.101 557.19 136.508 563.143 139.86C563.208 139.896 563.271 139.932 563.336 139.969C570.516 144.115 576.331 153.297 576.331 160.475C576.331 167.654 570.516 170.117 563.336 165.971Z" fill="#5A370F"/>
<path d="M555.032 130.368C541.193 122.374 529.971 127.116 529.971 140.966C529.971 154.815 541.193 209.843 555.032 217.836C568.875 225.833 580.098 183.77 580.098 169.92C580.098 156.071 568.875 138.363 555.032 130.367V130.368ZM555.032 170.591C547.857 166.446 542.041 157.265 542.041 150.086C542.041 142.907 547.857 140.444 555.032 144.589C562.212 148.735 568.027 157.917 568.027 165.096C568.027 172.274 562.212 174.737 555.032 170.591Z" fill="url(#paint71_linear_7754_15339)"/>
</g>
<defs>
<linearGradient id="paint0_linear_7754_15339" x1="331.902" y1="-2.10596" x2="331.902" y2="405.894" gradientUnits="userSpaceOnUse">
<stop stop-color="#E5EDF3" stop-opacity="0.5"/>
<stop offset="1" stop-color="#1F232A" stop-opacity="0"/>
</linearGradient>
<linearGradient id="paint1_linear_7754_15339" x1="292.301" y1="248.29" x2="409.104" y2="248.29" gradientUnits="userSpaceOnUse">
<stop stop-color="#7D7D7D"/>
<stop offset="1" stop-color="#E3E3E3"/>
</linearGradient>
<linearGradient id="paint2_linear_7754_15339" x1="408.975" y1="262.867" x2="475.425" y2="262.867" gradientUnits="userSpaceOnUse">
<stop stop-color="#626262"/>
<stop offset="1" stop-color="#C8C8C8"/>
</linearGradient>
<linearGradient id="paint3_linear_7754_15339" x1="292.291" y1="225.847" x2="475.428" y2="225.847" gradientUnits="userSpaceOnUse">
<stop stop-color="#B1B1B0"/>
<stop offset="1" stop-color="#4B4B4B"/>
</linearGradient>
<linearGradient id="paint4_linear_7754_15339" x1="292.301" y1="222.139" x2="409.104" y2="222.139" gradientUnits="userSpaceOnUse">
<stop stop-color="#7D7D7D"/>
<stop offset="1" stop-color="#E3E3E3"/>
</linearGradient>
<linearGradient id="paint5_linear_7754_15339" x1="408.975" y1="236.717" x2="475.425" y2="236.717" gradientUnits="userSpaceOnUse">
<stop stop-color="#626262"/>
<stop offset="1" stop-color="#C8C8C8"/>
</linearGradient>
<linearGradient id="paint6_linear_7754_15339" x1="292.291" y1="199.699" x2="475.428" y2="199.699" gradientUnits="userSpaceOnUse">
<stop stop-color="#B1B1B0"/>
<stop offset="1" stop-color="#4B4B4B"/>
</linearGradient>
<linearGradient id="paint7_linear_7754_15339" x1="292.301" y1="190.85" x2="409.104" y2="190.85" gradientUnits="userSpaceOnUse">
<stop stop-color="#7D7D7D"/>
<stop offset="1" stop-color="#E3E3E3"/>
</linearGradient>
<linearGradient id="paint8_linear_7754_15339" x1="408.975" y1="205.428" x2="475.425" y2="205.428" gradientUnits="userSpaceOnUse">
<stop stop-color="#626262"/>
<stop offset="1" stop-color="#C8C8C8"/>
</linearGradient>
<linearGradient id="paint9_linear_7754_15339" x1="292.291" y1="168.41" x2="475.428" y2="168.41" gradientUnits="userSpaceOnUse">
<stop stop-color="#B1B1B0"/>
<stop offset="1" stop-color="#4B4B4B"/>
</linearGradient>
<linearGradient id="paint10_linear_7754_15339" x1="353.838" y1="145.596" x2="353.838" y2="105.779" gradientUnits="userSpaceOnUse">
<stop stop-color="#CECECE"/>
<stop offset="1" stop-color="#686868"/>
</linearGradient>
<linearGradient id="paint11_linear_7754_15339" x1="350.094" y1="145.128" x2="320.131" y2="158.694" gradientUnits="userSpaceOnUse">
<stop stop-color="#A9A9A9"/>
<stop offset="1" stop-color="#434343"/>
</linearGradient>
<linearGradient id="paint12_linear_7754_15339" x1="353.839" y1="145.128" x2="392.223" y2="155.418" gradientUnits="userSpaceOnUse">
<stop stop-color="#A9A9A9"/>
<stop offset="1" stop-color="#434343"/>
</linearGradient>
<linearGradient id="paint13_linear_7754_15339" x1="407.196" y1="172.765" x2="407.196" y2="132.948" gradientUnits="userSpaceOnUse">
<stop stop-color="#CECECE"/>
<stop offset="1" stop-color="#686868"/>
</linearGradient>
<linearGradient id="paint14_linear_7754_15339" x1="403.452" y1="172.297" x2="373.488" y2="185.863" gradientUnits="userSpaceOnUse">
<stop stop-color="#A9A9A9"/>
<stop offset="1" stop-color="#434343"/>
</linearGradient>
<linearGradient id="paint15_linear_7754_15339" x1="407.197" y1="172.297" x2="445.58" y2="182.586" gradientUnits="userSpaceOnUse">
<stop stop-color="#A9A9A9"/>
<stop offset="1" stop-color="#434343"/>
</linearGradient>
<linearGradient id="paint16_linear_7754_15339" x1="382.858" y1="124.985" x2="382.858" y2="85.1679" gradientUnits="userSpaceOnUse">
<stop stop-color="#CECECE"/>
<stop offset="1" stop-color="#686868"/>
</linearGradient>
<linearGradient id="paint17_linear_7754_15339" x1="379.114" y1="124.517" x2="349.151" y2="138.083" gradientUnits="userSpaceOnUse">
<stop stop-color="#A9A9A9"/>
<stop offset="1" stop-color="#434343"/>
</linearGradient>
<linearGradient id="paint18_linear_7754_15339" x1="382.859" y1="124.517" x2="421.242" y2="134.806" gradientUnits="userSpaceOnUse">
<stop stop-color="#A9A9A9"/>
<stop offset="1" stop-color="#434343"/>
</linearGradient>
<linearGradient id="paint19_linear_7754_15339" x1="185.883" y1="309.357" x2="302.686" y2="309.357" gradientUnits="userSpaceOnUse">
<stop stop-color="#7D7D7D"/>
<stop offset="1" stop-color="#E3E3E3"/>
</linearGradient>
<linearGradient id="paint20_linear_7754_15339" x1="335.784" y1="301.522" x2="335.784" y2="346.348" gradientUnits="userSpaceOnUse">
<stop stop-color="#626262"/>
<stop offset="1" stop-color="#C8C8C8"/>
</linearGradient>
<linearGradient id="paint21_linear_7754_15339" x1="185.873" y1="286.917" x2="369.01" y2="286.917" gradientUnits="userSpaceOnUse">
<stop stop-color="#B1B1B0"/>
<stop offset="1" stop-color="#4B4B4B"/>
</linearGradient>
<linearGradient id="paint22_linear_7754_15339" x1="185.883" y1="283.206" x2="302.686" y2="283.206" gradientUnits="userSpaceOnUse">
<stop stop-color="#7D7D7D"/>
<stop offset="1" stop-color="#E3E3E3"/>
</linearGradient>
<linearGradient id="paint23_linear_7754_15339" x1="335.784" y1="275.373" x2="335.784" y2="320.199" gradientUnits="userSpaceOnUse">
<stop stop-color="#626262"/>
<stop offset="1" stop-color="#C8C8C8"/>
</linearGradient>
<linearGradient id="paint24_linear_7754_15339" x1="185.873" y1="260.765" x2="369.01" y2="260.765" gradientUnits="userSpaceOnUse">
<stop stop-color="#B1B1B0"/>
<stop offset="1" stop-color="#4B4B4B"/>
</linearGradient>
<linearGradient id="paint25_linear_7754_15339" x1="185.883" y1="251.918" x2="302.686" y2="251.918" gradientUnits="userSpaceOnUse">
<stop stop-color="#7D7D7D"/>
<stop offset="1" stop-color="#E3E3E3"/>
</linearGradient>
<linearGradient id="paint26_linear_7754_15339" x1="335.784" y1="244.083" x2="335.784" y2="288.909" gradientUnits="userSpaceOnUse">
<stop stop-color="#626262"/>
<stop offset="1" stop-color="#C8C8C8"/>
</linearGradient>
<linearGradient id="paint27_linear_7754_15339" x1="185.873" y1="229.476" x2="369.01" y2="229.476" gradientUnits="userSpaceOnUse">
<stop stop-color="#B1B1B0"/>
<stop offset="1" stop-color="#4B4B4B"/>
</linearGradient>
<linearGradient id="paint28_linear_7754_15339" x1="248.063" y1="206.493" x2="248.063" y2="166.676" gradientUnits="userSpaceOnUse">
<stop stop-color="#CECECE"/>
<stop offset="1" stop-color="#686868"/>
</linearGradient>
<linearGradient id="paint29_linear_7754_15339" x1="244.319" y1="206.025" x2="214.356" y2="219.591" gradientUnits="userSpaceOnUse">
<stop stop-color="#A9A9A9"/>
<stop offset="1" stop-color="#434343"/>
</linearGradient>
<linearGradient id="paint30_linear_7754_15339" x1="248.064" y1="206.025" x2="286.447" y2="216.314" gradientUnits="userSpaceOnUse">
<stop stop-color="#A9A9A9"/>
<stop offset="1" stop-color="#434343"/>
</linearGradient>
<linearGradient id="paint31_linear_7754_15339" x1="300.483" y1="234.598" x2="300.483" y2="194.781" gradientUnits="userSpaceOnUse">
<stop stop-color="#CECECE"/>
<stop offset="1" stop-color="#686868"/>
</linearGradient>
<linearGradient id="paint32_linear_7754_15339" x1="296.739" y1="234.13" x2="266.776" y2="247.696" gradientUnits="userSpaceOnUse">
<stop stop-color="#A9A9A9"/>
<stop offset="1" stop-color="#434343"/>
</linearGradient>
<linearGradient id="paint33_linear_7754_15339" x1="300.484" y1="234.13" x2="338.867" y2="244.419" gradientUnits="userSpaceOnUse">
<stop stop-color="#A9A9A9"/>
<stop offset="1" stop-color="#434343"/>
</linearGradient>
<linearGradient id="paint34_linear_7754_15339" x1="276.145" y1="185.881" x2="276.145" y2="146.064" gradientUnits="userSpaceOnUse">
<stop stop-color="#CECECE"/>
<stop offset="1" stop-color="#686868"/>
</linearGradient>
<linearGradient id="paint35_linear_7754_15339" x1="272.401" y1="185.414" x2="242.438" y2="198.979" gradientUnits="userSpaceOnUse">
<stop stop-color="#A9A9A9"/>
<stop offset="1" stop-color="#434343"/>
</linearGradient>
<linearGradient id="paint36_linear_7754_15339" x1="276.146" y1="185.413" x2="314.53" y2="195.703" gradientUnits="userSpaceOnUse">
<stop stop-color="#A9A9A9"/>
<stop offset="1" stop-color="#434343"/>
</linearGradient>
<linearGradient id="paint37_linear_7754_15339" x1="126.912" y1="339.927" x2="126.912" y2="413.904" gradientUnits="userSpaceOnUse">
<stop stop-color="#7D7D7D"/>
<stop offset="1" stop-color="#E3E3E3"/>
</linearGradient>
<linearGradient id="paint38_linear_7754_15339" x1="218.411" y1="369.082" x2="218.411" y2="413.906" gradientUnits="userSpaceOnUse">
<stop stop-color="#626262"/>
<stop offset="1" stop-color="#C8C8C8"/>
</linearGradient>
<linearGradient id="paint39_linear_7754_15339" x1="160.071" y1="301.616" x2="160.071" y2="407.336" gradientUnits="userSpaceOnUse">
<stop stop-color="#B1B1B0"/>
<stop offset="1" stop-color="#4B4B4B"/>
</linearGradient>
<linearGradient id="paint40_linear_7754_15339" x1="126.912" y1="313.778" x2="126.912" y2="387.753" gradientUnits="userSpaceOnUse">
<stop stop-color="#7D7D7D"/>
<stop offset="1" stop-color="#E3E3E3"/>
</linearGradient>
<linearGradient id="paint41_linear_7754_15339" x1="218.411" y1="342.932" x2="218.411" y2="387.757" gradientUnits="userSpaceOnUse">
<stop stop-color="#626262"/>
<stop offset="1" stop-color="#C8C8C8"/>
</linearGradient>
<linearGradient id="paint42_linear_7754_15339" x1="160.071" y1="275.464" x2="160.071" y2="381.183" gradientUnits="userSpaceOnUse">
<stop stop-color="#B1B1B0"/>
<stop offset="1" stop-color="#4B4B4B"/>
</linearGradient>
<linearGradient id="paint43_linear_7754_15339" x1="126.912" y1="282.489" x2="126.912" y2="356.466" gradientUnits="userSpaceOnUse">
<stop stop-color="#7D7D7D"/>
<stop offset="1" stop-color="#E3E3E3"/>
</linearGradient>
<linearGradient id="paint44_linear_7754_15339" x1="218.411" y1="311.642" x2="218.411" y2="356.467" gradientUnits="userSpaceOnUse">
<stop stop-color="#626262"/>
<stop offset="1" stop-color="#C8C8C8"/>
</linearGradient>
<linearGradient id="paint45_linear_7754_15339" x1="160.071" y1="244.176" x2="160.071" y2="349.893" gradientUnits="userSpaceOnUse">
<stop stop-color="#B1B1B0"/>
<stop offset="1" stop-color="#4B4B4B"/>
</linearGradient>
<linearGradient id="paint46_linear_7754_15339" x1="130.116" y1="273.947" x2="130.116" y2="234.13" gradientUnits="userSpaceOnUse">
<stop stop-color="#CECECE"/>
<stop offset="1" stop-color="#686868"/>
</linearGradient>
<linearGradient id="paint47_linear_7754_15339" x1="126.372" y1="273.479" x2="96.4084" y2="287.045" gradientUnits="userSpaceOnUse">
<stop stop-color="#A9A9A9"/>
<stop offset="1" stop-color="#434343"/>
</linearGradient>
<linearGradient id="paint48_linear_7754_15339" x1="130.117" y1="273.479" x2="168.5" y2="283.768" gradientUnits="userSpaceOnUse">
<stop stop-color="#A9A9A9"/>
<stop offset="1" stop-color="#434343"/>
</linearGradient>
<linearGradient id="paint49_linear_7754_15339" x1="183.473" y1="301.116" x2="183.473" y2="261.299" gradientUnits="userSpaceOnUse">
<stop stop-color="#CECECE"/>
<stop offset="1" stop-color="#686868"/>
</linearGradient>
<linearGradient id="paint50_linear_7754_15339" x1="179.729" y1="300.648" x2="149.766" y2="314.214" gradientUnits="userSpaceOnUse">
<stop stop-color="#A9A9A9"/>
<stop offset="1" stop-color="#434343"/>
</linearGradient>
<linearGradient id="paint51_linear_7754_15339" x1="183.474" y1="300.648" x2="221.858" y2="310.937" gradientUnits="userSpaceOnUse">
<stop stop-color="#A9A9A9"/>
<stop offset="1" stop-color="#434343"/>
</linearGradient>
<linearGradient id="paint52_linear_7754_15339" x1="159.135" y1="253.336" x2="159.135" y2="213.519" gradientUnits="userSpaceOnUse">
<stop stop-color="#CECECE"/>
<stop offset="1" stop-color="#686868"/>
</linearGradient>
<linearGradient id="paint53_linear_7754_15339" x1="155.391" y1="252.869" x2="125.428" y2="266.434" gradientUnits="userSpaceOnUse">
<stop stop-color="#A9A9A9"/>
<stop offset="1" stop-color="#434343"/>
</linearGradient>
<linearGradient id="paint54_linear_7754_15339" x1="159.136" y1="252.868" x2="197.52" y2="263.158" gradientUnits="userSpaceOnUse">
<stop stop-color="#A9A9A9"/>
<stop offset="1" stop-color="#434343"/>
</linearGradient>
<linearGradient id="paint55_linear_7754_15339" x1="405.08" y1="339.468" x2="405.08" y2="380.885" gradientUnits="userSpaceOnUse">
<stop stop-color="#F09123"/>
<stop offset="1" stop-color="#8A5314"/>
</linearGradient>
<linearGradient id="paint56_linear_7754_15339" x1="405.666" y1="339.47" x2="405.666" y2="380.227" gradientUnits="userSpaceOnUse">
<stop offset="0.3" stop-color="#F09123"/>
<stop offset="1" stop-color="#2D1D00"/>
</linearGradient>
<linearGradient id="paint57_linear_7754_15339" x1="393.035" y1="341.497" x2="393.035" y2="381.71" gradientUnits="userSpaceOnUse">
<stop stop-color="#F09123"/>
<stop offset="1" stop-color="#8A5314"/>
</linearGradient>
<linearGradient id="paint58_linear_7754_15339" x1="394.23" y1="341.608" x2="394.23" y2="381.672" gradientUnits="userSpaceOnUse">
<stop offset="0.3" stop-color="#F09123"/>
<stop offset="1" stop-color="#2D1D00"/>
</linearGradient>
<linearGradient id="paint59_linear_7754_15339" x1="396.276" y1="309.054" x2="396.276" y2="348.027" gradientUnits="userSpaceOnUse">
<stop stop-color="#F09123"/>
<stop offset="1" stop-color="#8A5314"/>
</linearGradient>
<linearGradient id="paint60_linear_7754_15339" x1="379.736" y1="316.79" x2="379.736" y2="335.435" gradientUnits="userSpaceOnUse">
<stop stop-color="#F09123"/>
<stop offset="1" stop-color="#8A5314"/>
</linearGradient>
<linearGradient id="paint61_linear_7754_15339" x1="548.439" y1="272.752" x2="548.439" y2="305.868" gradientUnits="userSpaceOnUse">
<stop stop-color="#CECECE"/>
<stop offset="1" stop-color="#686868"/>
</linearGradient>
<linearGradient id="paint62_linear_7754_15339" x1="516.896" y1="291.769" x2="505.47" y2="308.603" gradientUnits="userSpaceOnUse">
<stop stop-color="#B1B1B0"/>
<stop offset="1" stop-color="#4B4B4B"/>
</linearGradient>
<linearGradient id="paint63_linear_7754_15339" x1="583.179" y1="283.317" x2="551.812" y2="270.219" gradientUnits="userSpaceOnUse">
<stop stop-color="#B1B1B0"/>
<stop offset="1" stop-color="#4B4B4B"/>
</linearGradient>
<linearGradient id="paint64_linear_7754_15339" x1="566.797" y1="323.601" x2="556.488" y2="307.214" gradientUnits="userSpaceOnUse">
<stop stop-color="#626262"/>
<stop offset="1" stop-color="#C8C8C8"/>
</linearGradient>
<linearGradient id="paint65_linear_7754_15339" x1="545.71" y1="231.26" x2="545.71" y2="273.37" gradientUnits="userSpaceOnUse">
<stop stop-color="#B1B1B0"/>
<stop offset="1" stop-color="#4B4B4B"/>
</linearGradient>
<linearGradient id="paint66_linear_7754_15339" x1="494.719" y1="332.033" x2="513.461" y2="307.221" gradientUnits="userSpaceOnUse">
<stop stop-color="#7D7D7D"/>
<stop offset="1" stop-color="#E3E3E3"/>
</linearGradient>
<linearGradient id="paint67_linear_7754_15339" x1="500.878" y1="284.738" x2="500.878" y2="316.475" gradientUnits="userSpaceOnUse">
<stop stop-color="#B1B1B0"/>
<stop offset="1" stop-color="#4B4B4B"/>
</linearGradient>
<linearGradient id="paint68_linear_7754_15339" x1="471.786" y1="337.655" x2="471.786" y2="297.838" gradientUnits="userSpaceOnUse">
<stop stop-color="#FFAB3C"/>
<stop offset="1" stop-color="#623E15"/>
</linearGradient>
<linearGradient id="paint69_linear_7754_15339" x1="468.041" y1="337.187" x2="438.078" y2="350.753" gradientUnits="userSpaceOnUse">
<stop stop-color="#C67400"/>
<stop offset="1" stop-color="#704D19"/>
</linearGradient>
<linearGradient id="paint70_linear_7754_15339" x1="471.787" y1="337.187" x2="510.17" y2="347.476" gradientUnits="userSpaceOnUse">
<stop stop-color="#FFA200"/>
<stop offset="1" stop-color="#7E4F38"/>
</linearGradient>
<linearGradient id="paint71_linear_7754_15339" x1="554.557" y1="165.782" x2="555.035" y2="218.838" gradientUnits="userSpaceOnUse">
<stop stop-color="#F09123"/>
<stop offset="1" stop-color="#8A5314"/>
</linearGradient>
<clipPath id="clip0_7754_15339">
<rect width="659" height="371" fill="white" transform="translate(0 86.1055)"/>
</clipPath>
</defs>
</svg>
