<svg width="621" height="483" viewBox="0 0 621 483" fill="none" xmlns="http://www.w3.org/2000/svg">
<path opacity="0.4" d="M211.516 403.453C115.674 404.349 62.527 405.693 19.9576 351.361C-16.5306 280.225 -4.74296 200.926 69.9028 123.894C201.255 -11.6569 377.524 -12.7357 505.259 13.0451C613.494 34.89 643.863 134.679 601.902 290.394C559.941 446.109 331.319 402.333 211.516 403.453Z" fill="url(#paint0_linear_7754_15336)"/>
<g clip-path="url(#clip0_7754_15336)">
<path d="M181.362 235.726C186.602 238.62 191.303 231.219 191.44 226.976C191.577 222.709 189.049 216.166 183.879 218.133C181.648 219.975 179.452 221.371 178.445 224.516C177.313 228.085 177.645 233.667 181.362 235.715V235.726ZM182.129 221.988C182.3 221.233 184.325 219.277 184.325 219.243C184.966 221.359 185.549 223.521 186.075 225.717C186.11 225.855 186.144 226.003 186.087 226.175C186.018 226.392 185.847 226.552 185.686 226.69C185.343 226.987 185 227.273 184.668 227.57C184.794 228.017 184.931 228.474 185.057 228.92C185.526 228.428 186.052 228.074 186.579 227.891C186.819 228.154 186.83 228.714 186.59 229.183C186.304 229.755 185.778 230.076 185.309 230.327C185.172 230.808 185.309 231.277 185.606 231.402C185.915 231.528 186.361 231.311 186.647 230.888C186.762 231.643 186.876 232.409 187.002 233.164C186.544 233.542 186.087 233.919 185.618 234.297C185.458 234.434 185.275 234.571 185.103 234.582C184.806 234.605 184.68 234.228 184.611 233.896C184.234 232.226 183.868 230.545 183.49 228.875C183.41 228.52 183.33 228.142 183.399 227.719C183.467 227.296 183.73 226.804 184.062 226.644C184.108 226.324 184.154 225.98 184.062 225.729C183.971 225.477 183.673 225.397 183.444 225.637C183.33 225.763 183.238 225.958 183.113 225.98C183.01 226.003 182.952 225.866 182.93 225.752C182.701 224.825 181.843 223.132 182.106 221.954L182.129 221.988Z" fill="#848484"/>
<path d="M233.168 183.37C229.233 182.718 225.298 182.066 221.363 181.403C223.971 186.664 226.854 191.789 230 196.753C231.887 199.728 233.855 202.656 235.914 205.516C237.893 208.284 239.826 212.059 242.514 214.106C246.117 216.852 256.424 208.638 260.004 206.374C266.136 202.507 272.004 198.275 277.678 193.768C273.891 192.132 270.093 190.519 266.227 189.124C265.495 188.861 265.049 188.174 265.243 187.396C271.935 161.087 294.95 140.131 320.585 132.467C324.966 131.163 327.449 132.067 326.831 126.896C326.259 122.115 325.527 117.356 324.52 112.655C323.708 108.88 322.518 105.254 321.5 101.536C320.677 98.5393 320.917 98.7566 318.092 98.8825C305.406 99.4544 293.749 104.167 282.539 109.864C282.516 109.864 282.505 109.875 282.482 109.887C274.966 114.233 268.08 119.655 261.937 126.45C247.753 142.144 239.471 161.945 234.873 182.398C234.69 183.187 233.878 183.484 233.168 183.359V183.37Z" fill="url(#paint1_linear_7754_15336)"/>
<path d="M70.953 188.506C65.4165 183.382 59.9601 177.948 56.4254 171.291C52.8793 164.622 51.4495 156.478 54.2635 149.466C52.2044 155.048 53.6 160.996 56.2195 166.349C58.8276 171.691 62.8885 176.175 67.0752 180.408C73.6983 187.099 80.7905 193.322 88.2602 199.053C88.9465 198.218 89.6443 197.394 90.3764 196.582C72.0397 184.148 43.9912 162.266 62.0992 137.867C67.67 130.351 77.6219 126.222 86.8761 127.983C92.058 128.967 96.4391 131.918 100.546 135.087C105.625 138.999 111.23 145.199 117.556 146.8C118.253 146.32 119.065 145.965 119.809 145.645C120.45 145.37 121.685 144.661 122.394 145.165C123.218 145.748 123.298 147.727 123.481 148.631C123.607 149.225 123.778 149.946 123.893 150.667C124.236 151.033 124.59 151.33 124.934 151.605C124.442 148.711 126.444 145.839 128.823 144.055C129.589 143.472 130.436 142.945 131.374 142.739C132.312 142.534 133.376 142.671 134.096 143.311C132.621 143.277 131.225 144.032 130.161 145.05C129.097 146.068 128.331 147.349 127.565 148.608C127.073 149.431 126.558 150.346 126.718 151.296C126.935 152.623 129.2 152.829 130.951 152.463C134.668 150.587 136.556 144.444 132.541 140.761C126.283 135.018 118.882 130.031 111.882 125.261C103.188 119.336 94.666 114.28 83.6846 114.92C68.8139 115.778 56.2767 125.261 48.6584 137.638C39.7245 152.142 39.4499 167.516 50.1225 181.254C58.7476 192.35 71.1932 200.346 82.0031 209.211C83.0326 206.626 84.4968 204.132 86.2126 201.753C81.0079 197.497 75.9175 193.093 70.9873 188.518L70.953 188.506Z" fill="url(#paint2_linear_7754_15336)"/>
<path d="M122.038 148.424C121.924 147.864 121.821 147.292 121.741 146.731C121.638 146.022 121.889 146.125 121.237 146.434C120.677 146.697 120.139 146.926 119.602 147.2C120.997 147.429 121.26 147.486 122.038 148.424Z" fill="#E7E7E7"/>
<path d="M190.309 305.462C190.229 305.611 190.114 305.702 190 305.759C206.827 320.962 284.978 387.513 296.509 398.586C296.509 398.586 296.509 398.575 296.509 398.563C306.564 379.003 323.493 364.235 341.51 352.144C359.606 340.007 379.121 330.17 397.378 318.274C416.492 305.817 435.035 291.873 450.409 274.909C464.079 259.821 474.877 242.308 482.095 223.274C488.981 205.12 492.253 186.132 494.632 166.949C472.235 158.404 449.917 149.63 427.6 140.902C407.879 133.181 387.117 126.009 368.414 116C367.545 134.863 362.866 153.153 354.299 170.014C337.62 202.832 306.655 221.306 275.106 237.801C242.86 254.662 208.474 272.266 190.286 305.462H190.309ZM293.146 387.307C262.112 359.877 230.071 333.064 200.307 304.261C200.078 304.044 200.409 303.735 200.65 303.918C232.782 330.101 263.21 358.733 294.129 386.323C294.793 386.918 293.82 387.891 293.157 387.296L293.146 387.307ZM379.064 322.3C348.396 340.236 318.712 358.184 297.081 387.044C296.749 387.49 296.028 387.101 296.314 386.598C312.924 357.703 344.141 339.927 372.086 323.741C402.182 306.32 434.28 288.51 454.802 259.455C454.836 259.409 454.916 259.455 454.882 259.501C436.625 288.098 407.73 305.519 379.064 322.289V322.3ZM309.469 240.592C315.314 229.279 327.028 221.821 338.684 217.6C361.642 209.284 396.76 211.961 409.412 235.845C410.979 238.522 412.283 241.496 413.267 244.825C418.151 261.445 404.276 277.105 391.144 285.021C367.453 299.297 333.411 298.107 315.589 275.229C307.65 265.037 303.189 252.729 309.469 240.592ZM378.286 127.439C393.729 135.332 409.812 141.692 425.987 147.949C434.063 151.072 442.184 154.034 450.34 156.94C458.119 159.708 466.103 162.202 473.63 165.61C473.893 165.725 473.699 166.125 473.447 166.057C464.925 163.792 456.62 160.394 448.373 157.294C440.263 154.252 432.164 151.197 424.076 148.086C415.966 144.963 407.925 141.703 399.917 138.34C392.516 135.24 384.852 132.14 378.183 127.61C378.069 127.53 378.172 127.37 378.286 127.427V127.439ZM236.671 265.46C262.443 247.639 292.07 236.223 317.442 217.783C348.304 195.351 367.007 163.3 375.186 126.398C375.358 125.632 376.444 125.975 376.33 126.718C373.264 146.771 364.708 166.034 353.463 182.814C334.852 210.565 307.513 227.449 278.71 243.029C264.743 250.578 250.673 257.979 237.575 267.016C230.334 272.015 223.413 277.494 217.042 283.568C210.659 289.642 205.466 296.574 199.597 303.094C199.288 303.437 198.762 302.991 198.98 302.614C207.456 287.469 222.613 275.195 236.671 265.46Z" fill="url(#paint3_linear_7754_15336)"/>
<path d="M330.847 285.955C342.389 292.864 358.873 293.584 371.833 290.942C383.341 288.597 395.146 281.722 403.073 273.029C411.71 263.557 414.65 252.233 410.063 240.359C404.766 226.633 391.932 220.101 378.445 216.681C376.969 216.372 375.505 216.097 374.075 215.88C359.411 213.672 343.979 216.223 330.87 223.178C319.935 228.989 308.873 239.238 308.598 252.507C308.324 265.776 320.026 279.492 330.847 285.966V285.955Z" fill="url(#paint4_linear_7754_15336)"/>
<path d="M448.176 339.728C448.542 342.359 448.519 351.727 451.012 353.375C452.236 354.187 456.526 353.523 458.002 353.489C460.244 353.443 462.497 353.317 464.728 353.089C481.394 351.441 497.203 344.692 509.923 333.803C531.84 315.031 544.858 285.45 544.034 256.625C544.012 256.007 544.618 255.343 545.258 255.401C551.218 255.938 557.269 255.892 563.275 255.812C551.573 243.378 539.676 231.127 528.031 218.647C515.586 230.075 502.316 240.541 488.224 249.864C492.296 250.768 496.368 251.683 500.44 252.587C501.413 252.804 501.573 253.73 501.23 254.428C501.939 260.64 499.399 267.377 497.1 272.994C494.103 280.292 489.882 287.121 484.414 292.84C474.039 303.707 459.18 310.639 444.172 311.543C446.025 320.854 446.883 330.325 448.164 339.728H448.176Z" fill="url(#paint5_linear_7754_15336)"/>
<path d="M499.743 255.183C494.859 254.153 489.974 253.147 485.09 252.117C486.016 254.725 485.994 258.043 486.463 260.582C486.714 261.955 486.646 262.447 487.641 263.316C488.522 264.082 489.826 264.322 490.912 264.711C492.788 265.386 494.664 266.038 496.529 266.736C497.593 262.87 498.405 258.958 499.743 255.194V255.183Z" fill="#D17D1B"/>
<path d="M445.751 359.083C446.106 358.5 446.518 357.939 446.815 357.447C447.238 356.75 447.593 355.789 448.108 355.034C448.085 354.977 448.039 354.919 448.028 354.851C445.431 340.632 443.864 326.196 442.228 311.829C441.965 312.092 441.679 312.344 441.427 312.618C440.798 313.282 440.226 313.98 439.769 314.769C439.723 314.86 439.677 314.94 439.62 315.032C439.471 315.661 439.414 316.37 439.517 317.24C439.78 319.493 440.306 321.735 440.661 323.977C441.061 326.551 441.485 329.113 441.873 331.687C443.063 339.42 444.07 347.187 445.305 354.919C445.591 356.704 445.568 358.054 445.751 359.083Z" fill="#864B06"/>
<path d="M564.911 271.827C565.14 269.071 565.289 266.302 565.415 263.534C565.472 262.15 565.838 260 565.746 258.478C560.507 258.501 555.268 258.467 550.029 258.192C548.21 258.101 547.329 257.941 546.906 258.135C548.222 262.722 548.702 267.641 548.576 272.662C553.998 272.148 559.455 271.965 564.9 271.827H564.911Z" fill="#E48920"/>
<path d="M546.267 266.313C546.152 267.686 546.026 269.059 545.855 270.42C543.121 292.566 533.123 314.185 517.452 330.154C499.447 348.502 475.036 357.047 449.55 355.765C449.241 356.578 448.669 357.378 448.303 358.019C447.903 358.728 447.479 359.426 447.09 360.147C446.953 360.41 446.839 360.661 446.713 360.913C447.17 361.256 447.822 361.519 448.783 361.702C453.576 362.629 458.575 362.8 463.448 362.64C481.842 362 499.412 354.736 512.91 342.222C532.883 323.702 548.566 294.499 546.255 266.325L546.267 266.313Z" fill="#9A580C"/>
<path d="M153.004 270.271C157.614 268.178 161.355 263.774 164.81 260.17C171.547 253.124 178.25 246.032 184.977 238.974C192.012 231.585 199.035 224.195 206.047 216.794C211.378 211.155 217.143 206.488 218.184 198.767C218.207 198.423 218.218 198.08 218.207 197.737C214.684 192.441 210.714 191.103 206.299 193.768C205.75 194.1 205.201 194.443 204.652 194.774C202.581 196.124 200.808 198.012 199.046 199.75C196.301 202.461 193.59 205.207 190.879 207.952C184.896 213.98 178.937 220.031 173.068 226.163C167.212 232.294 161.549 238.608 156.036 245.06C150.419 251.626 141.657 259.587 142.904 268.978C142.972 269.516 142.149 269.573 142 269.104C139.026 260.113 150.03 250.333 155.098 244.145C163.391 234.01 172.302 224.31 181.43 214.918C186.269 209.942 191.176 205.012 196.084 200.094C199.367 196.799 202.741 192.979 207.214 191.308C209.536 190.439 212.419 190.348 214.821 191.103C213.54 189.982 212.11 188.986 210.932 188.06C207.374 185.28 203.736 182.603 200.087 179.95C192.469 174.425 184.748 169.037 176.992 163.718C170.483 159.257 163.952 154.841 157.328 150.575C155.727 149.545 154.034 148.15 152.261 147.429C148.52 145.919 144.208 147.612 140.444 149.728C133.81 153.835 128.09 161.041 122.771 166.28C117.12 171.851 111.538 177.479 106.013 183.175C100.557 188.792 94.86 194.317 89.8154 200.311C84.3247 206.842 82.3571 213.157 82.3457 221.336C82.7118 222.445 83.2723 223.497 84.1531 224.447C85.2398 225.625 86.6696 226.586 87.9165 227.581C93.4187 231.951 99.0238 236.183 104.606 240.438C116.949 249.841 129.84 258.844 141.428 269.207C144.78 271.392 148.463 272.33 153.004 270.271ZM183.844 217.24C187.962 215.525 191.44 219.654 192.069 223.886C192.801 228.782 190.227 235.005 185.182 236.675C180.367 238.276 177.278 233.095 177.084 228.954C176.901 224.939 179.429 218.373 183.833 217.24H183.844Z" fill="url(#paint6_linear_7754_15336)" style="mix-blend-mode:hard-light"/>
<path d="M232.494 180.465C232.997 178.337 233.535 176.221 234.13 174.116C233.398 173.979 232.677 173.83 231.933 173.704C229.852 173.361 228.845 173.327 227.141 174.528C225.242 175.866 223.343 177.388 221.307 178.6C225.036 179.218 228.765 179.836 232.494 180.453V180.465Z" fill="#90530A"/>
<path d="M330.161 131.689C330.435 131.895 330.675 132.101 330.801 132.193C331.728 132.902 332.723 133.588 333.627 134.355C333.158 127.571 332.494 120.868 330.973 114.222C329.589 108.182 328.376 103.676 323.949 100.312C327.45 110.424 329.051 121.051 330.161 131.678V131.689Z" fill="#E68B21"/>
<path d="M330.184 133.977C329.955 133.782 329.6 133.542 329.246 133.268C329.211 133.268 329.188 133.302 329.154 133.302C302.124 138.507 276.958 158.559 268.768 185.257C269.225 185.028 269.683 184.811 270.072 184.594C271.227 183.93 272.439 183.164 273.698 182.661C276.855 169.186 286.429 160.069 297.102 151.844C307.523 143.814 319.179 137.797 332.174 135.647C331.488 135.098 330.824 134.514 330.161 133.954L330.184 133.977Z" fill="#B96D15"/>
<path d="M270.964 186.116C270.357 186.424 269.682 186.836 268.996 187.179C272.931 188.689 276.809 190.371 280.664 192.041C281.945 190.828 283.261 189.684 284.599 188.541C281.236 187.099 277.884 185.647 274.555 184.171C273.446 184.937 272.153 185.509 270.952 186.116H270.964Z" fill="#92540A"/>
<ellipse cx="251.631" cy="483" rx="0.57195" ry="0.571944" fill="white"/>
<path d="M391.566 284.775C404.698 276.86 418.584 261.211 413.689 244.579C412.705 241.25 411.401 238.265 409.834 235.6C397.182 211.715 362.064 209.039 339.106 217.355C327.45 221.576 315.736 229.034 309.891 240.347C303.611 252.483 308.072 264.792 316.011 274.984C333.833 297.861 367.875 299.051 391.566 284.775ZM330.882 223.177C343.991 216.222 359.422 213.671 374.087 215.879C375.517 216.096 376.981 216.371 378.456 216.68C391.943 220.111 404.778 226.632 410.074 240.358C414.661 252.232 411.71 263.568 403.085 273.028C395.157 281.71 383.352 288.585 371.845 290.941C358.884 293.583 342.401 292.863 330.859 285.954C320.049 279.479 308.335 265.775 308.61 252.495C308.884 239.226 319.946 228.977 330.882 223.166V223.177Z" fill="#0F1116"/>
<path d="M455.223 259.21C434.702 288.265 402.604 306.075 372.508 323.497C344.562 339.683 313.345 357.447 296.736 386.353C296.45 386.857 297.17 387.245 297.502 386.799C319.133 357.939 348.829 339.991 379.485 322.055C408.163 305.286 437.047 287.865 455.303 259.267C455.337 259.21 455.257 259.164 455.223 259.222V259.21Z" fill="#0F1116"/>
<path d="M200.018 302.838C205.887 296.329 211.091 289.397 217.463 283.312C223.835 277.238 230.755 271.758 237.996 266.76C251.082 257.723 265.164 250.322 279.131 242.772C307.934 227.192 335.273 210.309 353.885 182.558C365.129 165.777 373.697 146.514 376.751 126.462C376.866 125.718 375.767 125.386 375.607 126.141C367.417 163.043 348.726 195.095 317.863 217.527C292.491 235.966 262.864 247.382 237.092 265.204C223.022 274.927 207.866 287.212 199.401 302.357C199.183 302.735 199.71 303.181 200.018 302.838Z" fill="#0F1116"/>
<path d="M201.07 303.673C200.841 303.478 200.51 303.787 200.727 304.016C230.503 332.819 262.532 359.632 293.566 387.062C294.229 387.646 295.213 386.685 294.538 386.09C263.619 358.499 233.191 329.856 201.059 303.684L201.07 303.673Z" fill="#0F1116"/>
<path d="M400.327 138.107C408.335 141.47 416.376 144.73 424.487 147.853C432.574 150.964 440.673 154.007 448.783 157.061C457.03 160.161 465.335 163.558 473.857 165.823C474.12 165.892 474.303 165.491 474.04 165.377C466.513 161.968 458.529 159.463 450.75 156.706C442.594 153.812 434.461 150.838 426.397 147.715C410.222 141.458 394.139 135.098 378.696 127.205C378.57 127.148 378.479 127.308 378.593 127.388C385.251 131.918 392.926 135.018 400.327 138.118V138.107Z" fill="#0F1116"/>
<path d="M242.446 218.259C242.847 218.739 243.59 218.728 244.093 218.476C257.363 211.784 269.774 203.754 281.35 194.42C281.659 194.168 281.785 193.722 281.751 193.299C283.627 191.995 285.423 190.599 287.241 189.204C287.825 188.758 288.088 187.682 287.241 187.294C284.896 186.218 278.994 184.731 277.45 182.844C274.761 179.572 278.422 174.036 280.298 171.188C284.038 165.525 289.255 160.858 294.437 156.546C305.967 146.937 319.282 139.342 334.359 137.42C334.851 137.363 335.159 137.02 335.285 136.642C335.411 136.505 335.503 136.322 335.514 136.082C335.823 127.011 334.347 118.065 332.094 109.292C330.504 103.103 328.307 99.7518 322.748 96.9607C322.519 96.4231 322.073 95.977 321.444 95.9999C306.962 96.5146 294.025 100.77 281.202 107.519C280.858 107.702 280.664 107.953 280.572 108.228C257.706 121.875 242.469 146.045 234.668 172.423C232.471 171.679 229.806 170.902 227.781 171.874C226.157 172.652 224.647 174.116 223.194 175.18C221.822 176.175 220.426 177.136 219.202 178.291C218.07 178.211 217.292 179.241 217.807 180.316C224.281 193.985 232.735 206.728 242.492 218.259H242.446ZM284.61 188.552C283.272 189.684 281.945 190.84 280.675 192.052C276.809 190.371 272.943 188.701 269.008 187.191C269.694 186.847 270.357 186.436 270.975 186.127C272.176 185.532 273.457 184.96 274.578 184.182C277.919 185.669 281.27 187.111 284.622 188.552H284.61ZM273.709 182.672C272.451 183.176 271.238 183.953 270.083 184.605C269.694 184.823 269.248 185.04 268.779 185.269C276.958 158.571 302.124 138.518 329.165 133.313C329.2 133.313 329.223 133.279 329.257 133.279C329.6 133.554 329.966 133.794 330.195 133.988C330.858 134.537 331.522 135.132 332.208 135.681C319.213 137.82 307.557 143.849 297.136 151.879C286.464 160.092 276.889 169.22 273.732 182.695L273.709 182.672ZM330.973 114.222C332.494 120.868 333.169 127.571 333.627 134.354C332.723 133.588 331.728 132.902 330.801 132.192C330.675 132.09 330.435 131.895 330.161 131.689C329.051 121.062 327.45 110.436 323.949 100.324C328.365 103.687 329.589 108.182 330.973 114.233V114.222ZM282.483 109.887C282.483 109.887 282.517 109.875 282.54 109.864C293.75 104.179 305.407 99.4544 318.092 98.8825C320.906 98.7566 320.678 98.5393 321.501 101.536C322.519 105.254 323.709 108.88 324.521 112.655C325.528 117.356 326.26 122.115 326.832 126.896C327.461 132.067 324.967 131.163 320.586 132.467C294.963 140.131 271.936 161.087 265.244 187.396C265.05 188.174 265.496 188.861 266.228 189.124C270.094 190.531 273.892 192.144 277.678 193.768C272.005 198.275 266.125 202.507 260.005 206.374C256.425 208.627 246.118 216.852 242.515 214.106C239.827 212.059 237.905 208.284 235.915 205.516C233.867 202.656 231.888 199.728 230.001 196.753C226.855 191.789 223.972 186.664 221.364 181.403C225.299 182.055 229.234 182.707 233.169 183.37C233.878 183.484 234.691 183.198 234.874 182.409C239.472 161.956 247.754 142.156 261.938 126.462C268.081 119.667 274.979 114.233 282.483 109.898V109.887ZM227.129 174.539C228.834 173.338 229.84 173.361 231.922 173.716C232.666 173.841 233.387 173.99 234.119 174.127C233.524 176.232 232.986 178.348 232.483 180.476C228.754 179.858 225.025 179.241 221.296 178.623C223.32 177.41 225.219 175.889 227.129 174.551V174.539Z" fill="url(#paint7_linear_7754_15336)"/>
<path d="M567.577 256.271C566.822 254.761 564.649 253.262 563.482 252.061C563.482 252.061 563.482 252.05 563.471 252.038C552.089 239.833 540.535 227.788 529.165 215.571C528.616 214.976 527.655 215.045 527.095 215.571C513.642 228.04 499.195 239.227 483.867 249.293C483.226 249.716 483.031 250.597 483.329 251.238C483.054 253.011 483.535 254.887 483.809 256.671C484.141 258.867 484.153 261.773 485.125 263.752C485.743 264.999 486.498 265.136 487.847 265.628C490.558 266.611 493.269 267.595 496.003 268.556C495.489 270.238 494.905 271.908 494.162 273.543C491.29 279.926 487.401 285.92 482.505 290.942C471.878 301.832 457.889 307.38 442.984 308.981C442.732 309.004 442.537 309.095 442.354 309.21H442.331C441.531 309.519 441.016 310.422 440.547 311.097C439.735 312.275 438.236 314.254 438.236 315.867C438.133 316.359 438.053 316.862 438.042 317.423C437.962 321.186 438.911 325.19 439.426 328.919C440.467 336.389 441.428 343.87 442.537 351.339C442.972 354.245 442.698 361.142 445.271 363.133C447.445 364.814 453.061 364.608 455.601 364.78C495.34 367.479 528.673 338.871 542.091 302.918C545.157 294.705 547.822 284.914 548.451 275.282C554.308 274.985 560.176 274.607 566.033 274.241C566.719 274.195 567.223 273.715 567.257 273.017C567.463 269.357 567.566 265.696 567.726 262.036C567.795 260.251 568.389 257.872 567.577 256.259V256.271ZM490.913 264.713C489.826 264.324 488.522 264.083 487.641 263.317C486.646 262.459 486.726 261.956 486.463 260.583C485.994 258.055 486.017 254.726 485.091 252.118C489.975 253.148 494.859 254.154 499.744 255.184C498.406 258.947 497.593 262.859 496.53 266.726C494.665 266.039 492.778 265.376 490.913 264.701V264.713ZM484.427 292.852C489.883 287.133 494.116 280.304 497.113 273.006C499.424 267.378 501.963 260.64 501.242 254.44C501.586 253.743 501.425 252.816 500.453 252.599C496.381 251.695 492.309 250.78 488.236 249.876C502.329 240.554 515.598 230.087 528.044 218.66C539.689 231.139 551.585 243.391 563.288 255.825C557.282 255.905 551.231 255.95 545.271 255.413C544.619 255.356 544.024 256.019 544.047 256.637C544.871 285.463 531.853 315.044 509.936 333.815C497.216 344.705 481.407 351.465 464.741 353.101C462.498 353.318 460.256 353.455 458.014 353.501C456.539 353.535 452.249 354.199 451.025 353.387C448.531 351.74 448.543 342.371 448.188 339.74C446.896 330.337 446.038 320.866 444.196 311.555C459.204 310.651 474.063 303.719 484.438 292.852H484.427ZM441.885 331.676C441.485 329.102 441.073 326.54 440.673 323.966C440.318 321.724 439.792 319.47 439.529 317.228C439.426 316.359 439.483 315.65 439.632 315.021C439.678 314.929 439.723 314.849 439.781 314.758C440.25 313.968 440.822 313.271 441.439 312.607C441.691 312.333 441.977 312.081 442.24 311.818C443.876 326.185 445.443 340.621 448.04 354.839C448.051 354.908 448.097 354.965 448.12 355.022C447.605 355.777 447.25 356.738 446.827 357.436C446.53 357.928 446.118 358.488 445.763 359.072C445.592 358.042 445.603 356.681 445.317 354.908C444.082 347.175 443.075 339.42 441.885 331.676ZM512.922 342.211C499.412 354.725 481.853 361.989 463.459 362.629C458.586 362.801 453.587 362.629 448.795 361.691C447.834 361.508 447.182 361.245 446.724 360.902C446.85 360.662 446.964 360.399 447.102 360.136C447.491 359.415 447.914 358.717 448.314 358.008C448.669 357.367 449.252 356.567 449.561 355.755C475.047 357.036 499.458 348.479 517.463 330.143C533.134 314.174 543.132 292.555 545.866 270.409C546.038 269.048 546.163 267.675 546.278 266.303C548.588 294.488 532.906 323.691 512.933 342.199L512.922 342.211ZM546.907 258.135C547.33 257.941 548.211 258.101 550.03 258.192C555.257 258.455 560.508 258.49 565.747 258.478C565.838 260 565.484 262.15 565.415 263.534C565.289 266.303 565.141 269.071 564.912 271.828C559.467 271.965 554.011 272.148 548.588 272.663C548.714 267.652 548.234 262.734 546.918 258.135H546.907Z" fill="url(#paint8_linear_7754_15336)"/>
<path d="M185.183 236.675C190.227 235.005 192.801 228.782 192.069 223.886C191.44 219.654 187.962 215.524 183.844 217.24C179.44 218.372 176.912 224.938 177.095 228.953C177.278 233.094 180.378 238.265 185.194 236.675H185.183ZM178.445 224.515C179.452 221.369 181.648 219.974 183.879 218.132C189.049 216.153 191.577 222.696 191.44 226.974C191.302 231.218 186.601 238.619 181.362 235.725C177.644 233.666 177.313 228.084 178.445 224.527V224.515Z" fill="#2F2F2F"/>
<path d="M183.135 226.003C183.261 225.98 183.352 225.786 183.467 225.66C183.684 225.408 183.981 225.5 184.084 225.751C184.176 226.003 184.13 226.346 184.084 226.667C183.753 226.827 183.49 227.319 183.421 227.742C183.352 228.165 183.432 228.543 183.512 228.897C183.89 230.567 184.256 232.249 184.633 233.919C184.714 234.251 184.828 234.628 185.125 234.605C185.297 234.594 185.468 234.445 185.64 234.319C186.098 233.942 186.555 233.564 187.024 233.187C186.91 232.432 186.795 231.665 186.67 230.91C186.384 231.334 185.937 231.551 185.629 231.425C185.32 231.299 185.194 230.83 185.331 230.35C185.8 230.098 186.326 229.778 186.612 229.206C186.853 228.737 186.841 228.165 186.601 227.913C186.075 228.096 185.549 228.451 185.08 228.943C184.954 228.497 184.816 228.039 184.691 227.593C185.034 227.296 185.377 227.01 185.709 226.712C185.869 226.575 186.052 226.415 186.109 226.198C186.155 226.026 186.121 225.877 186.098 225.74C185.56 223.544 184.977 221.382 184.347 219.266C184.347 219.3 182.323 221.256 182.151 222.011C181.888 223.178 182.746 224.871 182.975 225.809C183.009 225.923 183.055 226.049 183.158 226.037L183.135 226.003Z" fill="#2F2F2F"/>
</g>
<defs>
<linearGradient id="paint0_linear_7754_15336" x1="317.902" y1="-2.10596" x2="317.902" y2="405.894" gradientUnits="userSpaceOnUse">
<stop stop-color="#E5EDF3" stop-opacity="0.5"/>
<stop offset="1" stop-color="#1F232A" stop-opacity="0"/>
</linearGradient>
<linearGradient id="paint1_linear_7754_15336" x1="311.5" y1="87" x2="239" y2="215" gradientUnits="userSpaceOnUse">
<stop stop-color="#F09123"/>
<stop offset="1" stop-color="#824806"/>
</linearGradient>
<linearGradient id="paint2_linear_7754_15336" x1="88.409" y1="114.865" x2="88.409" y2="209.211" gradientUnits="userSpaceOnUse">
<stop stop-color="#E7E7E7" stop-opacity="0.4"/>
<stop offset="1" stop-color="#818181" stop-opacity="0.2"/>
</linearGradient>
<linearGradient id="paint3_linear_7754_15336" x1="397.578" y1="116.245" x2="285.078" y2="398.245" gradientUnits="userSpaceOnUse">
<stop stop-color="#E8E8E8" stop-opacity="0.6"/>
<stop offset="0.545" stop-color="#828282" stop-opacity="0.4"/>
<stop offset="1" stop-color="#F0E9E9" stop-opacity="0.6"/>
</linearGradient>
<linearGradient id="paint4_linear_7754_15336" x1="399.5" y1="236" x2="328.5" y2="325" gradientUnits="userSpaceOnUse">
<stop stop-color="#C7C7C7" stop-opacity="0.6"/>
<stop offset="1" stop-color="#767575" stop-opacity="0.4"/>
</linearGradient>
<linearGradient id="paint5_linear_7754_15336" x1="529" y1="219" x2="468" y2="354" gradientUnits="userSpaceOnUse">
<stop stop-color="#F09123"/>
<stop offset="1" stop-color="#733E00"/>
</linearGradient>
<linearGradient id="paint6_linear_7754_15336" x1="150.279" y1="146.852" x2="150" y2="271" gradientUnits="userSpaceOnUse">
<stop stop-color="#EEEEEE"/>
<stop offset="1" stop-color="#7D7D7D"/>
</linearGradient>
<linearGradient id="paint7_linear_7754_15336" x1="306.5" y1="105.5" x2="239.5" y2="219" gradientUnits="userSpaceOnUse">
<stop stop-color="#894D00"/>
<stop offset="1" stop-color="#FBB768"/>
</linearGradient>
<linearGradient id="paint8_linear_7754_15336" x1="537.5" y1="229.5" x2="449.5" y2="343.5" gradientUnits="userSpaceOnUse">
<stop stop-color="#6E3D04"/>
<stop offset="1" stop-color="#C4853C"/>
</linearGradient>
<clipPath id="clip0_7754_15336">
<rect width="526" height="387" fill="white" transform="translate(42 96)"/>
</clipPath>
</defs>
</svg>
