<svg width="614" height="435" viewBox="0 0 614 435" fill="none" xmlns="http://www.w3.org/2000/svg">
<path opacity="0.4" d="M209.46 399.11C114.549 399.994 61.9192 401.321 19.7636 347.694C-16.3699 277.481 -4.69686 199.212 69.2234 123.18C199.299 -10.611 373.854 -11.6758 500.348 13.7702C607.531 35.3316 637.605 133.825 596.052 287.519C554.498 441.212 328.099 398.004 209.46 399.11Z" fill="url(#paint0_linear_7754_14881)"/>
<g clip-path="url(#clip0_7754_14881)">
<path d="M520 411.395C520 421.072 426.424 428.895 311.005 428.895C195.586 428.895 102 421.044 102 411.395C102 401.745 195.576 393.895 310.995 393.895C426.414 393.895 519.99 401.745 519.99 411.395H520Z" fill="url(#paint1_linear_7754_14881)"/>
<path d="M439.39 355.575L223.93 335.695C221.23 335.445 219.25 333.055 219.5 330.365L233.13 182.645L343.56 114.065C347.61 111.535 352.83 111.955 356.44 115.085L458.35 203.425L444.72 351.185C444.45 353.865 442.07 355.825 439.39 355.575Z" fill="url(#paint2_linear_7754_14881)"/>
<path d="M458.35 203.424L444.72 351.194C444.47 353.664 442.41 355.564 439.92 355.604L439.43 355.564L223.93 335.684L223.43 335.634C221 335.134 219.34 332.894 219.54 330.424L233.17 182.654L322.99 257.714L327.9 261.864L335.78 268.464L345.21 263.464L351.09 260.314L458.34 203.434L458.35 203.424Z" fill="url(#paint3_linear_7754_14881)"/>
<path opacity="0.2" d="M444.901 349.265L444.771 350.715C444.621 353.325 442.541 355.415 439.931 355.585L439.441 355.535L223.941 335.655L223.441 335.605C220.911 334.955 219.271 332.525 219.591 329.935L219.731 328.475L323.011 257.705L327.921 261.855L335.801 268.455L345.231 263.455L351.111 260.305L444.901 349.275V349.265Z" fill="black"/>
<path d="M438.41 214.004L351.1 260.304L323.69 258.284L251.49 197.944L258.82 118.484L445.63 135.724L438.41 214.004Z" fill="url(#paint4_radial_7754_14881)"/>
<path d="M444.889 349.665L444.759 351.045C444.499 353.835 442.109 355.885 439.409 355.645L223.949 335.765C221.249 335.515 219.279 333.055 219.529 330.265L219.659 328.885L328.139 259.035L330.339 257.625C334.399 255.005 339.619 255.415 343.219 258.635L345.499 260.635L444.889 349.665Z" fill="url(#paint5_linear_7754_14881)"/>
<path d="M404.605 156.099C404.605 156.099 404.532 156.32 404.483 156.442C404.14 157.397 403.724 158.352 403.259 159.282C403.161 159.478 403.063 159.649 402.965 159.845C402.549 160.604 402.108 161.363 401.619 162.097C401.521 162.244 401.423 162.415 401.3 162.562C400.86 163.223 400.395 163.884 399.905 164.521C399.807 164.668 399.685 164.79 399.587 164.937C399.122 165.549 398.632 166.136 398.142 166.7C398.02 166.822 397.922 166.944 397.8 167.091C397.31 167.654 396.82 168.193 396.306 168.707C396.184 168.829 396.086 168.952 395.964 169.05C395.449 169.564 394.935 170.078 394.446 170.567C394.323 170.69 394.201 170.788 394.103 170.91C393.589 171.4 393.05 171.889 392.561 172.355C392.438 172.453 392.316 172.575 392.218 172.673C391.679 173.162 391.141 173.603 390.651 174.044C390.529 174.142 390.406 174.24 390.284 174.338C389.721 174.803 389.182 175.243 388.668 175.635C388.546 175.733 388.423 175.831 388.301 175.929C387.665 176.418 387.102 176.835 386.685 177.153C386.538 177.251 386.416 177.349 386.318 177.422C385.926 177.691 385.731 177.838 385.731 177.838L310.428 171.522C310.428 171.522 310.232 171.351 309.913 171.008C309.816 170.91 309.718 170.812 309.595 170.69C309.228 170.323 308.738 169.809 308.2 169.221C308.102 169.123 308.004 169.001 307.882 168.878C307.465 168.413 307 167.899 306.511 167.336C306.413 167.214 306.315 167.091 306.217 166.969C305.776 166.455 305.336 165.941 304.895 165.353C304.797 165.231 304.699 165.108 304.601 164.986C304.185 164.447 303.744 163.884 303.304 163.321C303.206 163.199 303.108 163.052 303.01 162.929C302.594 162.366 302.178 161.779 301.761 161.167C301.663 161.02 301.566 160.898 301.492 160.751C301.076 160.139 300.684 159.527 300.293 158.89C300.195 158.743 300.121 158.596 300.023 158.449C299.632 157.813 299.24 157.128 298.873 156.467C298.799 156.32 298.701 156.148 298.628 156.001C298.261 155.291 297.893 154.557 297.575 153.847C297.502 153.676 297.428 153.504 297.355 153.333C297.012 152.525 296.694 151.717 296.425 150.885C296.351 150.689 296.302 150.493 296.229 150.273C295.91 149.269 295.666 148.265 295.494 147.262C295.494 147.262 295.445 147.017 295.445 146.895C295.445 146.895 295.494 146.968 295.568 147.041C295.739 147.286 296.155 147.751 296.792 148.412C296.89 148.51 296.988 148.608 297.086 148.706C297.453 149.073 297.893 149.465 298.383 149.906C298.481 149.979 298.579 150.077 298.677 150.15C299.093 150.493 299.534 150.86 300.023 151.228C300.121 151.301 300.219 151.375 300.341 151.472C300.782 151.791 301.223 152.133 301.737 152.476C301.835 152.55 301.957 152.623 302.055 152.696C302.496 152.99 302.961 153.309 303.475 153.627C303.573 153.7 303.695 153.749 303.793 153.823C304.258 154.116 304.724 154.386 305.238 154.679C305.336 154.753 305.458 154.802 305.556 154.875C306.021 155.145 306.511 155.414 307.025 155.683C307.123 155.732 307.245 155.806 307.367 155.855C307.833 156.099 308.322 156.369 308.836 156.613C308.959 156.662 309.057 156.736 309.179 156.785C309.669 157.03 310.158 157.25 310.672 157.495C310.795 157.544 310.893 157.593 311.015 157.642C311.505 157.862 311.994 158.082 312.533 158.303C312.655 158.352 312.753 158.401 312.876 158.449C313.365 158.67 313.879 158.866 314.394 159.086C314.516 159.135 314.614 159.184 314.736 159.233C315.226 159.429 315.74 159.625 316.279 159.82C316.401 159.869 316.499 159.918 316.621 159.943C317.135 160.139 317.649 160.31 318.164 160.506C318.286 160.555 318.384 160.579 318.506 160.628C318.629 160.677 318.751 160.702 318.873 160.751L321.028 156.393L321.64 155.12L323.256 151.84C323.256 151.84 323.476 151.889 323.868 151.987C323.966 151.987 324.088 152.036 324.21 152.06C324.602 152.158 325.116 152.28 325.728 152.403C325.85 152.403 325.948 152.452 326.071 152.476C326.536 152.574 327.05 152.696 327.613 152.794C327.736 152.794 327.833 152.843 327.956 152.868C328.445 152.966 328.96 153.064 329.498 153.186C329.621 153.186 329.719 153.235 329.841 153.26C330.331 153.357 330.845 153.455 331.383 153.553C331.506 153.553 331.604 153.602 331.726 153.627C332.216 153.725 332.73 153.823 333.268 153.896C333.391 153.896 333.489 153.945 333.611 153.969C334.101 154.067 334.639 154.141 335.153 154.239C335.276 154.239 335.374 154.288 335.496 154.288C336.01 154.361 336.524 154.459 337.038 154.533C337.161 154.533 337.283 154.582 337.381 154.582C337.895 154.655 338.409 154.728 338.923 154.826C339.046 154.826 339.168 154.851 339.266 154.875C339.78 154.949 340.294 155.022 340.808 155.096C340.931 155.096 341.053 155.12 341.151 155.145C341.665 155.218 342.179 155.291 342.718 155.34C342.84 155.34 342.963 155.365 343.061 155.389C343.575 155.463 344.089 155.512 344.627 155.585C344.75 155.585 344.872 155.61 344.97 155.634C345.484 155.683 345.998 155.757 346.537 155.806C346.659 155.806 346.782 155.83 346.88 155.83C347.394 155.879 347.908 155.928 348.446 155.977C348.569 155.977 348.691 155.977 348.789 156.001C349.058 156.001 349.303 156.05 349.572 156.075C349.842 156.075 350.086 156.124 350.356 156.148C350.478 156.148 350.601 156.148 350.723 156.173C351.237 156.222 351.776 156.246 352.29 156.295C352.412 156.295 352.535 156.295 352.657 156.295C353.196 156.32 353.71 156.369 354.224 156.393C354.346 156.393 354.469 156.393 354.566 156.393C355.105 156.418 355.619 156.442 356.133 156.467C356.256 156.467 356.378 156.467 356.476 156.467C357.015 156.467 357.529 156.515 358.043 156.515C358.165 156.515 358.288 156.515 358.385 156.515C358.924 156.515 359.438 156.54 359.952 156.564C360.075 156.564 360.197 156.564 360.295 156.564C360.834 156.564 361.348 156.564 361.862 156.589C361.984 156.589 362.107 156.589 362.229 156.589C362.768 156.589 363.282 156.589 363.796 156.589C363.918 156.589 364.041 156.589 364.138 156.589C364.677 156.589 365.191 156.589 365.705 156.589C365.828 156.589 365.95 156.589 366.048 156.589C366.587 156.589 367.101 156.589 367.615 156.589C367.737 156.589 367.86 156.589 367.957 156.589C368.496 156.589 369.035 156.589 369.524 156.564C369.647 156.564 369.769 156.564 369.892 156.564C370.455 156.564 370.969 156.54 371.458 156.515C371.581 156.515 371.703 156.515 371.801 156.515C372.364 156.515 372.903 156.467 373.368 156.442C373.49 156.442 373.613 156.442 373.711 156.442C374.347 156.418 374.861 156.369 375.277 156.344C375.4 156.344 375.522 156.344 375.62 156.344C376.036 156.32 376.232 156.295 376.232 156.295L377.285 159.796L377.676 161.142L379.072 165.794C379.194 165.794 379.341 165.745 379.464 165.72L379.831 165.647C380.369 165.549 380.932 165.451 381.446 165.353C381.569 165.353 381.691 165.304 381.814 165.28C382.352 165.182 382.891 165.059 383.429 164.961C383.552 164.937 383.674 164.912 383.797 164.888C384.335 164.766 384.874 164.643 385.412 164.521C385.535 164.496 385.657 164.472 385.78 164.423C386.318 164.3 386.857 164.154 387.371 164.007C387.493 163.982 387.616 163.933 387.738 163.909C388.277 163.762 388.815 163.615 389.329 163.444C389.452 163.395 389.574 163.37 389.696 163.346C390.235 163.174 390.774 163.003 391.288 162.832C391.41 162.783 391.533 162.758 391.655 162.709C392.194 162.513 392.732 162.342 393.222 162.146C393.344 162.097 393.467 162.048 393.564 162.024C394.103 161.828 394.617 161.608 395.131 161.412C395.254 161.363 395.376 161.314 395.474 161.265C396.013 161.044 396.527 160.8 397.016 160.579C397.139 160.53 397.261 160.481 397.359 160.408C397.898 160.163 398.412 159.894 398.901 159.649C399.024 159.6 399.122 159.527 399.244 159.478C399.783 159.184 400.297 158.89 400.762 158.621C400.884 158.547 400.982 158.474 401.105 158.425C401.668 158.082 402.157 157.764 402.598 157.47C402.72 157.397 402.818 157.323 402.941 157.225C403.7 156.687 404.165 156.271 404.385 156.075C404.458 156.001 404.507 155.952 404.532 155.952L404.605 156.099Z" fill="url(#paint6_linear_7754_14881)"/>
<path d="M299.161 183.615L296.697 183.408L294.58 208.68L297.044 208.887L299.161 183.615Z" fill="url(#paint7_linear_7754_14881)"/>
<path d="M416.305 173.53C416.208 173.873 416.11 174.24 415.987 174.583C415.914 174.827 415.816 175.048 415.718 175.293C415.351 176.174 414.91 177.006 414.396 177.839C414.298 178.01 414.176 178.157 414.078 178.328C413.637 178.989 413.147 179.65 412.633 180.262C412.511 180.385 412.413 180.531 412.291 180.654C411.801 181.217 411.287 181.755 410.773 182.294C410.65 182.416 410.528 182.514 410.43 182.637C409.916 183.126 409.402 183.616 408.863 184.081C408.741 184.179 408.619 184.301 408.496 184.399C407.958 184.865 407.419 185.281 406.88 185.721C406.758 185.819 406.636 185.917 406.513 186.015C405.975 186.431 405.412 186.848 404.873 187.215C404.751 187.313 404.628 187.386 404.506 187.484C403.943 187.876 403.38 188.243 402.841 188.61C402.719 188.684 402.596 188.781 402.449 188.855C401.862 189.222 401.299 189.589 400.76 189.908C400.638 189.981 400.491 190.054 400.369 190.128C399.757 190.495 399.169 190.813 398.655 191.107C398.532 191.181 398.386 191.254 398.263 191.327C397.553 191.719 396.966 192.013 396.525 192.233C396.378 192.307 396.231 192.38 396.133 192.429C395.937 192.527 395.815 192.576 395.815 192.576L297.99 184.375C297.99 184.375 297.892 184.302 297.696 184.179C297.598 184.106 297.476 184.032 297.329 183.91C296.962 183.641 296.423 183.224 295.786 182.735C295.664 182.637 295.566 182.563 295.444 182.465C294.979 182.098 294.464 181.682 293.926 181.217C293.803 181.119 293.706 181.021 293.583 180.923C293.118 180.507 292.604 180.066 292.09 179.601C291.992 179.503 291.87 179.405 291.747 179.283C291.282 178.842 290.792 178.377 290.303 177.888C290.205 177.79 290.082 177.667 289.984 177.569C289.519 177.104 289.03 176.615 288.565 176.1C288.467 175.978 288.344 175.88 288.246 175.758C287.781 175.244 287.316 174.729 286.875 174.191C286.777 174.069 286.68 173.946 286.582 173.824C286.141 173.261 285.7 172.698 285.284 172.135C285.186 172.012 285.088 171.865 284.99 171.743C284.55 171.131 284.134 170.494 283.766 169.858C283.668 169.711 283.595 169.564 283.497 169.417C283.081 168.707 282.714 167.997 282.395 167.263C282.322 167.091 282.249 166.896 282.175 166.724C281.808 165.818 281.49 164.913 281.294 164.007C281.245 163.762 281.196 163.517 281.147 163.272C281.073 162.905 281.049 162.538 281 162.195C281 162.244 281.073 162.465 281.294 162.832C281.367 162.954 281.465 163.101 281.563 163.248C281.832 163.664 282.249 164.178 282.861 164.766C282.958 164.864 283.056 164.962 283.179 165.06C283.571 165.427 284.06 165.818 284.599 166.235C284.697 166.308 284.819 166.406 284.941 166.479C285.382 166.798 285.896 167.14 286.435 167.459C286.557 167.532 286.655 167.606 286.777 167.655C287.243 167.948 287.757 168.218 288.32 168.511C288.442 168.56 288.565 168.634 288.663 168.683C289.152 168.928 289.691 169.197 290.254 169.442C290.376 169.491 290.499 169.54 290.621 169.613C291.135 169.833 291.674 170.054 292.237 170.298C292.359 170.347 292.481 170.396 292.604 170.445C293.118 170.641 293.657 170.862 294.244 171.057C294.367 171.106 294.489 171.155 294.611 171.18C295.15 171.376 295.689 171.547 296.252 171.743C296.374 171.792 296.496 171.816 296.619 171.865C297.157 172.037 297.72 172.208 298.283 172.355C298.406 172.379 298.528 172.428 298.675 172.453C299.214 172.6 299.777 172.771 300.34 172.918C300.462 172.942 300.585 172.991 300.732 173.016C301.27 173.163 301.833 173.285 302.421 173.432C302.543 173.456 302.666 173.505 302.812 173.53C303.351 173.652 303.939 173.799 304.502 173.922C304.624 173.946 304.746 173.971 304.893 173.995C305.456 174.117 306.019 174.24 306.582 174.338C306.705 174.362 306.827 174.387 306.974 174.411C307.537 174.509 308.1 174.632 308.688 174.729C308.81 174.729 308.957 174.778 309.08 174.803C309.447 174.876 309.814 174.925 310.181 174.999C310.181 174.999 310.402 174.999 310.793 175.048C310.916 175.048 311.038 175.048 311.185 175.072C311.625 175.097 312.213 175.146 312.923 175.195C313.045 175.195 313.192 175.195 313.315 175.219C313.853 175.268 314.416 175.293 315.053 175.342C315.175 175.342 315.322 175.342 315.445 175.366C315.983 175.415 316.571 175.439 317.183 175.488C317.305 175.488 317.452 175.488 317.574 175.513C318.137 175.562 318.7 175.611 319.312 175.635C319.435 175.635 319.582 175.635 319.704 175.66C320.267 175.709 320.83 175.758 321.442 175.782C321.565 175.782 321.712 175.782 321.834 175.807C322.397 175.856 322.985 175.905 323.548 175.929C323.67 175.929 323.817 175.929 323.939 175.954C324.502 176.003 325.09 176.051 325.653 176.076C325.775 176.076 325.922 176.076 326.045 176.1C326.608 176.149 327.195 176.174 327.758 176.223C327.881 176.223 328.028 176.223 328.15 176.247C328.713 176.296 329.301 176.345 329.864 176.37C329.986 176.37 330.133 176.37 330.255 176.394C330.818 176.443 331.406 176.492 331.969 176.517C332.091 176.517 332.238 176.517 332.361 176.541C332.924 176.59 333.511 176.639 334.074 176.663C334.197 176.663 334.344 176.663 334.466 176.688C335.029 176.737 335.617 176.786 336.18 176.81C336.302 176.81 336.449 176.81 336.572 176.835C337.159 176.884 337.722 176.933 338.285 176.957C338.408 176.957 338.554 176.957 338.677 176.982C339.264 177.031 339.827 177.08 340.391 177.104C340.513 177.104 340.66 177.104 340.782 177.129C341.37 177.178 341.933 177.227 342.496 177.251C342.618 177.251 342.765 177.251 342.888 177.276C343.475 177.324 344.063 177.373 344.601 177.422C344.724 177.422 344.871 177.422 344.993 177.447C345.605 177.496 346.192 177.545 346.707 177.594H347.098C347.416 177.643 347.686 177.667 347.955 177.692C348.224 177.716 348.494 177.741 348.812 177.765H349.204C349.718 177.839 350.281 177.888 350.917 177.936C351.04 177.936 351.162 177.936 351.309 177.961C351.848 178.01 352.411 178.059 353.023 178.108C353.145 178.108 353.267 178.108 353.414 178.132C353.953 178.181 354.54 178.23 355.128 178.279C355.25 178.279 355.373 178.279 355.52 178.304C356.083 178.353 356.646 178.402 357.233 178.451C357.356 178.451 357.478 178.451 357.625 178.475C358.188 178.524 358.751 178.573 359.339 178.622C359.461 178.622 359.608 178.622 359.73 178.646C360.293 178.695 360.856 178.744 361.444 178.793C361.566 178.793 361.689 178.793 361.836 178.818C362.399 178.867 362.962 178.916 363.549 178.965C363.672 178.965 363.819 178.989 363.941 178.989C364.504 179.038 365.092 179.087 365.655 179.136C365.777 179.136 365.924 179.136 366.046 179.161C366.609 179.209 367.197 179.258 367.76 179.307C367.882 179.307 368.029 179.307 368.152 179.332C368.739 179.381 369.302 179.43 369.865 179.479C369.988 179.479 370.135 179.479 370.257 179.503C370.845 179.552 371.408 179.601 371.971 179.65C372.093 179.65 372.24 179.65 372.362 179.675C372.95 179.724 373.513 179.773 374.076 179.821C374.198 179.821 374.345 179.822 374.468 179.846C375.055 179.895 375.643 179.944 376.181 179.993C376.304 179.993 376.451 179.993 376.573 180.017C377.161 180.066 377.748 180.115 378.311 180.164C378.434 180.164 378.581 180.164 378.703 180.189C379.315 180.238 379.878 180.287 380.441 180.336C380.563 180.336 380.71 180.36 380.833 180.385C381.469 180.434 382.032 180.482 382.571 180.556C382.718 180.556 382.84 180.556 382.963 180.58C383.673 180.654 384.26 180.703 384.701 180.752C384.848 180.752 384.97 180.776 385.092 180.776C385.484 180.801 385.704 180.825 385.704 180.825C386.096 180.825 386.463 180.825 386.831 180.825C386.953 180.825 387.1 180.825 387.222 180.825C387.81 180.825 388.397 180.825 388.96 180.801C389.083 180.801 389.23 180.801 389.352 180.801C389.94 180.801 390.527 180.752 391.09 180.727C391.213 180.727 391.36 180.727 391.482 180.727C392.07 180.703 392.657 180.678 393.22 180.629C393.342 180.629 393.489 180.629 393.612 180.605C394.199 180.556 394.787 180.531 395.35 180.482C395.472 180.482 395.619 180.482 395.742 180.458C396.329 180.409 396.917 180.36 397.48 180.287C397.602 180.287 397.749 180.262 397.871 180.238C398.459 180.164 399.047 180.091 399.585 180.017C399.708 180.017 399.854 179.968 399.977 179.968C400.564 179.87 401.152 179.797 401.69 179.699C401.813 179.699 401.96 179.65 402.082 179.626C402.67 179.528 403.257 179.405 403.796 179.307C403.918 179.283 404.065 179.258 404.188 179.234C404.775 179.112 405.338 178.965 405.877 178.842C405.999 178.818 406.122 178.769 406.268 178.744C406.856 178.597 407.419 178.426 407.958 178.255C408.08 178.206 408.202 178.181 408.349 178.132C408.937 177.936 409.5 177.741 410.014 177.545C410.136 177.496 410.259 177.447 410.381 177.398C410.993 177.153 411.532 176.908 412.021 176.663C412.144 176.615 412.266 176.541 412.389 176.492C413.001 176.174 413.539 175.856 413.98 175.562C414.102 175.488 414.225 175.39 414.323 175.317C415.008 174.827 415.498 174.387 415.84 174.044C415.963 173.897 416.085 173.775 416.183 173.677C416.452 173.334 416.575 173.138 416.575 173.089L416.305 173.53Z" fill="url(#paint8_linear_7754_14881)"/>
<path d="M389.942 216.272L392.406 216.479L394.536 191.059L392.072 190.852L389.942 216.272Z" fill="url(#paint9_linear_7754_14881)"/>
<path d="M292.131 208.05L291.596 214.441L393.373 222.97L393.909 216.578L292.131 208.05Z" fill="url(#paint10_linear_7754_14881)"/>
<path d="M358.155 213.649L360.619 213.855L362.79 187.948L360.326 187.741L358.155 213.649Z" fill="url(#paint11_linear_7754_14881)"/>
<path d="M326.397 210.976L328.861 211.183L330.98 185.899L328.516 185.693L326.397 210.976Z" fill="url(#paint12_linear_7754_14881)"/>
<path d="M386.264 171.179C378.284 174.044 366.239 175.831 348.074 174.288C329.934 172.771 318.33 169.001 310.937 164.863L310.08 174.998L385.383 181.314L386.24 171.179H386.264Z" fill="url(#paint13_linear_7754_14881)"/>
<path d="M400.194 185.843L395.812 192.576L297.986 184.375L294.779 177.006C305.306 180.702 321.659 184.326 347.07 186.455C372.481 188.585 389.202 187.753 400.194 185.843Z" fill="#1E2633"/>
<path d="M179.831 84.6041C178.251 82.7741 175.871 81.6741 173.451 81.6641C171.041 81.6541 168.641 82.7341 167.051 84.5441C165.961 85.7741 165.271 87.2941 164.521 88.7541C162.731 92.2641 160.581 95.5941 158.121 98.6741C156.721 100.434 155.181 102.144 153.191 103.194C150.201 104.794 146.641 104.694 143.251 104.804C139.861 104.914 136.201 105.384 133.771 107.754C133.281 108.234 132.841 108.804 132.701 109.474C132.351 111.164 134.031 112.644 135.711 113.024C137.391 113.404 139.161 113.114 140.851 113.424C139.501 114.144 138.211 115.084 137.481 116.424C136.751 117.764 136.741 119.584 137.771 120.704C138.491 121.484 139.571 121.814 140.621 122.014C143.361 122.524 146.231 122.294 148.851 121.364C147.331 122.984 145.701 125.004 146.221 127.164C146.791 129.524 149.621 130.534 152.051 130.644C157.601 130.904 162.971 128.594 167.691 125.664C174.241 121.584 180.251 115.694 181.861 108.144C182.601 104.674 182.381 101.004 183.581 97.6641L179.821 84.5841L179.831 84.6041Z" fill="#263238"/>
<path d="M202.13 81.1943C208.01 85.3643 209.55 91.1643 209.35 95.3243C208.44 100.924 204.81 104.724 203.14 110.144L190.75 76.9443C194.21 77.7343 195.8 77.0643 202.13 81.2043V81.1943Z" fill="#263238"/>
<path d="M194.74 78.0745C188.98 75.1845 183.16 78.2245 179.75 80.3645C176 83.3645 173.72 87.8145 173.47 92.6045C173.34 97.0845 173.18 102.515 175.83 104.935C177.31 106.335 179.31 107.045 181.35 106.885L204.1 87.0745C201.79 83.3245 198.57 80.2345 194.74 78.0745Z" fill="#263238"/>
<path d="M194.51 129.794C193.08 128.644 189.86 124.414 190.22 122.064L191.88 114.194C191.88 114.104 191.88 114.024 191.88 113.944L186.62 111.164C185.31 109.794 183.14 109.754 181.78 111.064C181.27 111.534 180.89 111.334 180.74 112.004C180.7 112.154 180.8 113.104 180.78 113.264C180.58 118.524 179.68 121.834 176.73 124.124L188.49 137.364C194.98 133.004 195.39 130.564 194.53 129.804L194.51 129.794Z" fill="#E7E8E8"/>
<path opacity="0.2" d="M190.331 121.614C190.351 121.394 190.441 120.944 190.501 120.724C190.861 118.924 191.291 116.864 191.901 113.924C191.891 113.834 191.891 113.744 191.901 113.644L186.381 110.674C184.971 109.244 182.681 109.224 181.241 110.624C180.721 111.134 180.861 111.764 180.711 112.474C182.961 116.684 185.941 120.114 190.191 122.294C190.191 122.064 190.291 121.864 190.331 121.634V121.604V121.614Z" fill="black"/>
<path d="M176.751 94.0144C176.681 104.384 176.431 108.754 181.181 114.524C188.351 123.184 200.831 121.294 203.981 111.204C206.741 102.124 206.441 86.7244 196.811 81.6844C187.181 76.6444 176.831 83.6344 176.751 94.0144Z" fill="#E7E8E8"/>
<path d="M171.9 102.755C172.88 105.025 174.72 106.585 176.5 107.255C179.17 108.255 181.09 104.005 180.46 101.145C179.9 98.5747 177.39 96.6247 174.65 96.8647C171.96 97.0947 170.77 100.175 171.9 102.765V102.755Z" fill="#E7E8E8"/>
<path d="M180.262 96.6341C180.262 96.6341 186.382 90.0441 186.732 84.2641C186.732 84.2641 208.042 80.1741 205.562 98.4041C205.562 98.4041 210.592 82.7241 193.372 79.6441C176.142 76.5641 171.922 99.0541 179.532 107.164C179.562 107.084 176.482 100.774 180.262 96.6341Z" fill="#263238"/>
<path d="M201.17 82.1346C203.38 84.3846 204.82 87.2846 205.28 90.4046C205.21 92.6546 202.1 94.2046 202.1 94.2046L198.49 89.1846L198.37 93.5046C192.25 92.6546 188.8 89.2946 186.83 84.5246L190.43 78.5146C190.43 78.5146 199.19 80.3146 201.17 82.1446V82.1346Z" fill="#263238"/>
<path d="M207.931 130.684C208.001 130.614 208.281 130.594 208.721 130.684C210.021 130.964 212.671 132.274 214.951 136.364C217.981 141.804 223.421 161.934 224.781 159.804C226.141 157.664 229.541 147.294 229.541 147.294L236.641 146.244C236.641 146.244 236.521 171.504 230.771 176.654C225.021 181.814 220.271 178.214 217.561 175.704C215.171 173.484 204.231 149.734 204.211 149.704" fill="url(#paint14_linear_7754_14881)"/>
<path d="M204.891 147.574C203.191 152.664 201.871 157.074 200.791 161.024C197.901 170.924 196.041 181.094 195.231 191.374L154.391 186.984C153.321 157.804 154.391 141.714 155.281 133.694C156.271 125.164 157.601 124.874 157.601 124.874C157.601 124.874 166.891 124.154 174.951 124.384C181.191 124.714 187.391 125.484 193.521 126.704C199.331 127.784 205.051 129.284 210.641 131.204C209.651 133.854 208.741 136.404 207.911 138.774C206.801 141.934 205.791 144.854 204.891 147.564V147.574Z" fill="url(#paint15_linear_7754_14881)"/>
<path opacity="0.2" d="M161.651 181.175L177.521 172.965L187.531 171.165L197.511 174.585L199.111 167.905L182.301 163.975L153.941 174.545L154.911 180.725L161.651 181.175Z" fill="black"/>
<path d="M223.942 117.154C222.652 117.554 199.832 128.794 204.542 156.184L229.282 155.324C229.282 155.324 226.672 145.814 230.452 139.234C234.232 132.654 245.312 126.324 245.072 126.444C244.832 126.564 223.942 117.154 223.942 117.154Z" fill="url(#paint16_linear_7754_14881)"/>
<path d="M207.89 159.354L201.11 149.734C201.11 149.734 183.69 151.754 183.46 152.274L178.13 164.714C177.9 165.264 178.15 165.894 178.7 166.134C178.72 166.134 178.74 166.154 178.76 166.154L200.92 173.664C201.45 173.834 202.02 173.584 202.25 173.074L207.81 160.584C207.93 160.184 207.96 159.764 207.89 159.354Z" fill="#F4A046"/>
<path opacity="0.1" d="M207.941 159.794C204.671 161.034 201.141 161.374 197.701 160.774C191.981 159.494 183.461 152.234 183.461 152.234C183.691 151.714 201.111 149.694 201.111 149.694L207.891 159.314C207.891 159.314 207.921 159.544 207.941 159.794Z" fill="black"/>
<path d="M157.6 124.874C157.6 124.874 151.75 125.674 147.12 133.814C141.42 143.854 128.04 163.984 137.16 177.224C146.29 190.464 175.93 169.964 175.93 169.964L172.82 162.094C172.82 162.094 150.23 168.114 150 165.914C149.5 161.144 156.43 148.814 156.43 148.814L157.6 124.884V124.874Z" fill="url(#paint17_linear_7754_14881)"/>
<path d="M173.911 162.214C173.911 162.214 174.511 159.204 176.641 157.814C178.771 156.424 180.101 154.754 181.751 153.834C183.401 152.914 182.531 155.314 181.801 156.494C181.081 157.674 180.271 159.024 181.241 159.424C182.221 159.824 191.211 158.644 192.501 159.344C193.791 160.054 192.391 160.704 192.391 160.704C192.391 160.704 194.581 160.474 194.911 161.314C194.991 161.534 194.841 162.184 193.851 162.444C191.641 163.034 186.941 164.024 186.941 164.024C187.211 163.964 193.101 163.154 194.001 163.144C195.171 163.144 195.731 163.734 195.711 164.414C195.691 165.384 188.421 166.634 188.151 166.904C188.151 166.904 192.311 166.044 193.121 166.994C193.931 167.944 191.341 168.634 188.941 168.804C186.741 168.964 182.471 169.844 180.221 169.784C177.451 169.714 175.601 169.044 174.591 166.644C173.581 164.244 173.911 162.204 173.911 162.204V162.214Z" fill="#E7E8E8"/>
<g opacity="0.2">
<path d="M224.241 165.905C225.421 167.435 224.321 161.865 224.551 159.935C224.021 159.795 223.631 158.925 223.231 158.125C223.231 158.125 221.401 162.225 224.241 165.905Z" fill="black"/>
</g>
<path opacity="0.2" d="M225.23 133.294C225.1 133.474 221.08 138.774 222.11 141.324C223.14 143.874 228.47 146.334 228.47 146.334L229.13 142.424L225.23 133.284V133.294Z" fill="black"/>
<path d="M235.852 146.274L235.032 141.414C235.032 141.414 236.122 138.484 235.592 137.274C234.592 134.884 228.262 131.934 227.302 131.404C226.352 130.874 221.872 137.984 222.462 139.424C223.052 140.864 230.392 144.164 230.392 144.164V147.094L235.852 146.264V146.274Z" fill="#E7E8E8"/>
<path opacity="0.2" d="M154.071 153.635L154.191 153.425L158.131 146.335C157.911 153.075 156.941 159.255 153.951 163.965" fill="black"/>
<path d="M165.742 387.055C165.652 387.535 170.112 401.385 170.112 401.385H180.442L179.372 386.145L165.752 387.055H165.742Z" fill="#E7E8E8"/>
<path d="M218.611 384.905C218.521 385.385 222.981 399.235 222.981 399.235H233.311L229.641 378.345L218.611 384.905Z" fill="#E7E8E8"/>
<path d="M163.83 124.465C168.27 131.585 175.67 136.345 183.99 137.435C197.77 139.015 202.56 128.685 202.56 128.685C202.56 128.685 183.99 122.035 163.83 124.465Z" fill="#E7E8E8"/>
<path d="M241.561 379.965C241.591 380.035 241.621 380.065 241.641 380.055C241.691 380.005 241.661 379.975 241.561 379.965Z" fill="#263238"/>
<path d="M171.391 227.064C174.041 229.464 190.371 341.844 216.841 385.284C216.841 385.284 232.701 381.094 234.351 381.284C232.471 377.604 208.751 264.704 205.171 217.704L171.401 227.064H171.391Z" fill="url(#paint18_linear_7754_14881)"/>
<path d="M154.27 180.324C154.27 180.324 140.82 193.274 140.49 219.644C140.16 246.014 154.17 372.254 165.24 389.054C165.24 389.054 184.56 388.834 182.75 389.054C180.95 389.274 171.46 279.844 178.85 238.724L205.15 217.714C203.84 204.344 201.09 193.004 195.85 185.164L154.27 180.324Z" fill="url(#paint19_linear_7754_14881)"/>
<path opacity="0.2" d="M177.131 252.885L176.531 228.175L182.301 222.895C181.441 223.325 182.701 275.595 181.741 275.175L177.141 252.885H177.131Z" fill="black"/>
<path d="M181.79 397.885L178.16 397.785C177.34 397.765 176.56 398.135 176.03 398.755C173.77 401.415 172.26 400.345 170.15 397.715C168.71 397.515 168.23 399.085 168.08 399.505L164.78 408.825C164.5 409.605 164.92 410.435 165.73 410.685C165.87 410.725 166.02 410.755 166.18 410.755C170.58 410.885 172.67 410.945 178.15 411.095L194.91 411.575C199.48 411.705 200.7 407.345 198.84 406.885C190.49 404.855 184.64 402.315 182.18 399.895C181.72 399.475 182.24 399.175 181.79 397.885Z" fill="url(#paint20_linear_7754_14881)"/>
<path d="M234.09 391.944L230.59 392.884C229.8 393.094 229.15 393.674 228.83 394.414C227.42 397.614 225.67 397.014 222.9 395.104C221.47 395.324 221.45 396.964 221.43 397.414L220.93 407.284C220.88 408.114 221.52 408.784 222.37 408.794C222.52 408.794 222.67 408.774 222.82 408.734C227.08 407.594 229.09 407.064 234.39 405.644L250.59 401.314C255.01 400.134 254.93 395.604 253.02 395.694C244.44 396.144 238.11 395.374 235.05 393.754C234.49 393.474 234.9 393.054 234.1 391.944H234.09Z" fill="url(#paint21_linear_7754_14881)"/>
</g>
<defs>
<linearGradient id="paint0_linear_7754_14881" x1="314.812" y1="-1.18409" x2="314.812" y2="401.519" gradientUnits="userSpaceOnUse">
<stop stop-color="#E5EDF3" stop-opacity="0.5"/>
<stop offset="1" stop-color="#1F232A" stop-opacity="0"/>
</linearGradient>
<linearGradient id="paint1_linear_7754_14881" x1="311" y1="393.895" x2="311" y2="428.895" gradientUnits="userSpaceOnUse">
<stop stop-color="#E5EDF3" stop-opacity="0.2"/>
<stop offset="1" stop-color="#1F232A" stop-opacity="0"/>
</linearGradient>
<linearGradient id="paint2_linear_7754_14881" x1="343.5" y1="42.3945" x2="318.5" y2="223.895" gradientUnits="userSpaceOnUse">
<stop stop-color="#ECCF99"/>
<stop offset="1" stop-color="#F09123"/>
</linearGradient>
<linearGradient id="paint3_linear_7754_14881" x1="355.5" y1="-55.1055" x2="320" y2="344.895" gradientUnits="userSpaceOnUse">
<stop stop-color="#ECCF99"/>
<stop offset="1" stop-color="#F4A046"/>
</linearGradient>
<radialGradient id="paint4_radial_7754_14881" cx="0" cy="0" r="1" gradientUnits="userSpaceOnUse" gradientTransform="translate(354 125.395) rotate(95.0901) scale(135.12 184.968)">
<stop offset="0.79" stop-color="white"/>
<stop offset="1" stop-color="#B8B8B8"/>
</radialGradient>
<linearGradient id="paint5_linear_7754_14881" x1="346" y1="169.395" x2="332.199" y2="355.664" gradientUnits="userSpaceOnUse">
<stop stop-color="#ECCF99"/>
<stop offset="1" stop-color="#F09123"/>
</linearGradient>
<linearGradient id="paint6_linear_7754_14881" x1="353.831" y1="135.878" x2="350.025" y2="177.838" gradientUnits="userSpaceOnUse">
<stop stop-color="#E5EDF3"/>
<stop offset="1" stop-color="#1F232A"/>
</linearGradient>
<linearGradient id="paint7_linear_7754_14881" x1="292.628" y1="238.698" x2="297.524" y2="183.616" gradientUnits="userSpaceOnUse">
<stop stop-color="#E5EDF3"/>
<stop offset="1" stop-color="#1F232A"/>
</linearGradient>
<linearGradient id="paint8_linear_7754_14881" x1="353.83" y1="148.119" x2="348.787" y2="192.576" gradientUnits="userSpaceOnUse">
<stop stop-color="#E5EDF3"/>
<stop offset="1" stop-color="#1F232A"/>
</linearGradient>
<linearGradient id="paint9_linear_7754_14881" x1="388.103" y1="243.594" x2="393.304" y2="190.955" gradientUnits="userSpaceOnUse">
<stop stop-color="#E5EDF3"/>
<stop offset="1" stop-color="#1F232A"/>
</linearGradient>
<linearGradient id="paint10_linear_7754_14881" x1="344.038" y1="205.648" x2="342.814" y2="219.113" gradientUnits="userSpaceOnUse">
<stop stop-color="#E5EDF3"/>
<stop offset="1" stop-color="#1F232A"/>
</linearGradient>
<linearGradient id="paint11_linear_7754_14881" x1="357.502" y1="233.801" x2="361.558" y2="187.844" gradientUnits="userSpaceOnUse">
<stop stop-color="#E5EDF3"/>
<stop offset="1" stop-color="#1F232A"/>
</linearGradient>
<linearGradient id="paint12_linear_7754_14881" x1="325.677" y1="232.577" x2="329.748" y2="185.796" gradientUnits="userSpaceOnUse">
<stop stop-color="#E5EDF3"/>
<stop offset="1" stop-color="#1F232A"/>
</linearGradient>
<linearGradient id="paint13_linear_7754_14881" x1="346.486" y1="206.873" x2="348.172" y2="181.314" gradientUnits="userSpaceOnUse">
<stop stop-color="#E5EDF3"/>
<stop offset="1" stop-color="#1F232A"/>
</linearGradient>
<linearGradient id="paint14_linear_7754_14881" x1="281" y1="207.395" x2="207.5" y2="132.395" gradientUnits="userSpaceOnUse">
<stop stop-color="#E5EDF3"/>
<stop offset="1" stop-color="#1F232A"/>
</linearGradient>
<linearGradient id="paint15_linear_7754_14881" x1="169.5" y1="279.895" x2="179" y2="132.395" gradientUnits="userSpaceOnUse">
<stop stop-color="#E5EDF3"/>
<stop offset="1" stop-color="#6B7079"/>
</linearGradient>
<linearGradient id="paint16_linear_7754_14881" x1="224.489" y1="117.154" x2="194" y2="186.895" gradientUnits="userSpaceOnUse">
<stop offset="0.0666469" stop-color="#E5EDF3"/>
<stop offset="1" stop-color="#1F232A"/>
</linearGradient>
<linearGradient id="paint17_linear_7754_14881" x1="144.5" y1="233.395" x2="149" y2="134.395" gradientUnits="userSpaceOnUse">
<stop stop-color="#E5EDF3"/>
<stop offset="1" stop-color="#6B7079"/>
</linearGradient>
<linearGradient id="paint18_linear_7754_14881" x1="228.5" y1="439.395" x2="185" y2="192.895" gradientUnits="userSpaceOnUse">
<stop stop-color="#E5EDF3"/>
<stop offset="1" stop-color="#1F232A"/>
</linearGradient>
<linearGradient id="paint19_linear_7754_14881" x1="166.5" y1="516.895" x2="164.5" y2="179.895" gradientUnits="userSpaceOnUse">
<stop stop-color="#E5EDF3"/>
<stop offset="1" stop-color="#1F232A"/>
</linearGradient>
<linearGradient id="paint20_linear_7754_14881" x1="184.5" y1="430.895" x2="175" y2="395.395" gradientUnits="userSpaceOnUse">
<stop stop-color="#E5EDF3"/>
<stop offset="1" stop-color="#1F232A"/>
</linearGradient>
<linearGradient id="paint21_linear_7754_14881" x1="240.5" y1="425.395" x2="229.5" y2="387.395" gradientUnits="userSpaceOnUse">
<stop stop-color="#E5EDF3"/>
<stop offset="1" stop-color="#1F232A"/>
</linearGradient>
<clipPath id="clip0_7754_14881">
<rect width="418" height="358" fill="white" transform="translate(102 76.8945)"/>
</clipPath>
</defs>
</svg>
