<svg width="709" height="551" viewBox="0 0 709 551" fill="none" xmlns="http://www.w3.org/2000/svg">
<path opacity="0.4" d="M237.516 436.453C141.674 437.349 88.527 438.693 45.9576 384.361C9.46943 313.225 21.257 233.926 95.9028 156.894C227.255 21.3431 403.524 20.2643 531.259 46.0451C639.494 67.89 669.863 167.679 627.902 323.394C585.941 479.109 357.319 435.333 237.516 436.453Z" fill="url(#paint0_linear_7754_15551)"/>
<path d="M283.765 431.931L233.83 382.109C231.702 379.986 228.251 379.986 226.123 382.109L203.447 404.734C201.319 406.858 201.319 410.3 203.447 412.423L253.382 462.245C255.51 464.369 258.961 464.369 261.089 462.245L283.765 439.62C285.893 437.497 285.893 434.055 283.765 431.931Z" fill="url(#paint1_linear_7754_15551)"/>
<path d="M364.728 301.344L265.39 400.457L248.637 383.742C263.144 369.268 254.712 335.508 254.712 335.508C254.712 335.508 270.949 319.307 282.29 307.993C326.878 301.784 421.025 235.256 421.025 235.256L424.007 238.231L365.133 296.972C363.844 298.258 363.66 300.241 364.802 301.344H364.728Z" fill="url(#paint2_linear_7754_15551)"/>
<path d="M358.065 383.631L330.487 411.146C330.487 411.146 296.65 402.734 282.143 417.208L265.391 400.493L364.729 301.38C365.834 302.482 367.822 302.335 369.111 301.049L427.985 242.309L430.967 245.284C430.967 245.284 364.287 339.181 358.028 383.668L358.065 383.631Z" fill="url(#paint3_linear_7754_15551)" fill-opacity="0.8"/>
<path d="M442.092 441.05L440.288 439.25C468.97 410.632 484.766 372.574 484.766 332.128C484.766 291.682 468.97 253.624 440.288 225.006C381.083 165.935 284.763 165.935 225.521 225.006L223.717 223.206C283.916 163.143 381.856 163.143 442.055 223.206C471.216 252.301 487.27 290.984 487.27 332.128C487.27 373.272 471.216 411.955 442.055 441.05H442.092Z" fill="url(#paint4_linear_7754_15551)"/>
<path d="M304.912 86.3288L303.115 88.1211L577.526 361.909L579.323 360.117L304.912 86.3288Z" fill="url(#paint5_linear_7754_15551)"/>
<path d="M452.546 224.123L441.221 212.823L429.895 224.123L441.221 235.422L452.546 224.123Z" fill="white"/>
<path d="M441.207 237.459L427.842 224.124L441.207 210.789L454.573 224.124L441.207 237.459ZM431.929 224.124L441.207 233.382L450.486 224.124L441.207 214.867L431.929 224.124Z" fill="#D8D8D8"/>
<path d="M236.032 224.104L224.707 212.805L213.382 224.104L224.707 235.404L236.032 224.104Z" fill="white"/>
<path d="M224.666 237.459L211.301 224.124L224.666 210.789L238.032 224.124L224.666 237.459ZM215.388 224.124L224.666 233.382L233.945 224.124L224.666 214.867L215.388 224.124Z" fill="#D8D8D8"/>
<path d="M452.987 440.613L441.662 429.313L430.337 440.613L441.662 451.913L452.987 440.613Z" fill="white"/>
<path d="M441.682 453.98L428.316 440.645L441.682 427.31L455.047 440.645L441.682 453.98ZM432.403 440.645L441.682 449.902L450.96 440.645L441.682 431.387L432.403 440.645Z" fill="#D8D8D8"/>
<path d="M584.541 367.137C581.411 370.26 576.33 370.26 573.201 367.137C570.071 364.014 570.071 358.945 573.201 355.822C576.33 352.7 581.411 352.7 584.541 355.822C587.671 358.945 587.671 364.014 584.541 367.137Z" fill="white"/>
<path d="M578.875 370.885C576.445 370.885 574.051 369.966 572.174 368.129C568.492 364.456 568.492 358.468 572.174 354.794C575.855 351.121 581.857 351.121 585.539 354.794C589.221 358.468 589.221 364.456 585.539 368.129C583.698 369.966 581.268 370.885 578.838 370.885H578.875ZM578.875 354.941C577.181 354.941 575.524 355.566 574.235 356.851C571.658 359.423 571.658 363.574 574.235 366.109C576.813 368.68 580.973 368.68 583.514 366.109C586.091 363.537 586.091 359.386 583.514 356.851C582.225 355.566 580.568 354.941 578.875 354.941Z" fill="#D8D8D8"/>
<path d="M309.686 92.8675C306.556 95.99 301.475 95.99 298.345 92.8675C295.216 89.7449 295.216 84.6754 298.345 81.5528C301.475 78.4303 306.556 78.4303 309.686 81.5528C312.815 84.6754 312.815 89.7449 309.686 92.8675Z" fill="white"/>
<path d="M304.019 96.6521C301.589 96.6521 299.196 95.7337 297.318 93.8969C293.636 90.2233 293.636 84.2354 297.318 80.5618C301 76.8882 307.002 76.8882 310.684 80.5618C312.451 82.3251 313.445 84.713 313.445 87.211C313.445 89.709 312.451 92.0969 310.684 93.8969C308.843 95.7337 306.412 96.6521 303.982 96.6521H304.019ZM304.019 80.672C302.326 80.672 300.669 81.2965 299.38 82.5823C296.803 85.1538 296.803 89.3049 299.38 91.8397C301.957 94.4112 306.118 94.4112 308.658 91.8397C309.91 90.5907 310.573 88.9743 310.573 87.211C310.573 85.4477 309.873 83.8313 308.658 82.5823C307.37 81.2965 305.713 80.672 304.019 80.672Z" fill="#D8D8D8"/>
<defs>
<linearGradient id="paint0_linear_7754_15551" x1="343.902" y1="30.894" x2="343.902" y2="438.894" gradientUnits="userSpaceOnUse">
<stop stop-color="#E5EDF3" stop-opacity="0.5"/>
<stop offset="1" stop-color="#1F232A" stop-opacity="0"/>
</linearGradient>
<linearGradient id="paint1_linear_7754_15551" x1="217.88" y1="391.557" x2="277.666" y2="448.908" gradientUnits="userSpaceOnUse">
<stop stop-color="#FF9500" stop-opacity="0.9"/>
<stop offset="1" stop-color="#FF8800" stop-opacity="0.5"/>
</linearGradient>
<linearGradient id="paint2_linear_7754_15551" x1="317.668" y1="357.933" x2="273.198" y2="306.955" gradientUnits="userSpaceOnUse">
<stop stop-color="#919191" stop-opacity="0.4"/>
<stop offset="1" stop-color="#383838"/>
</linearGradient>
<linearGradient id="paint3_linear_7754_15551" x1="377.325" y1="355.763" x2="337.193" y2="317.801" gradientUnits="userSpaceOnUse">
<stop stop-color="#5E5E5E"/>
<stop offset="0.5" stop-color="#DDDBDB"/>
<stop offset="1" stop-color="white"/>
</linearGradient>
<linearGradient id="paint4_linear_7754_15551" x1="238.499" y1="201.744" x2="467.36" y2="430.604" gradientUnits="userSpaceOnUse">
<stop stop-color="white" stop-opacity="0.8"/>
<stop offset="1" stop-color="#494848"/>
</linearGradient>
<linearGradient id="paint5_linear_7754_15551" x1="304.013" y1="87.2249" x2="577.801" y2="361.635" gradientUnits="userSpaceOnUse">
<stop stop-color="#6D6767" stop-opacity="0.9"/>
<stop offset="1" stop-color="white" stop-opacity="0.8"/>
</linearGradient>
</defs>
</svg>
