<svg width="614" height="436" viewBox="0 0 614 436" fill="none" xmlns="http://www.w3.org/2000/svg">
<path opacity="0.4" d="M209.46 399.11C114.549 399.994 61.9192 401.321 19.7636 347.694C-16.3699 277.481 -4.69686 199.212 69.2234 123.18C199.299 -10.611 373.854 -11.6758 500.348 13.7702C607.531 35.3316 637.605 133.825 596.052 287.519C554.498 441.212 328.099 398.004 209.46 399.11Z" fill="url(#paint0_linear_7754_15190)"/>
<g clip-path="url(#clip0_7754_15190)">
<ellipse cx="377.5" cy="406.395" rx="129.5" ry="57.5" fill="url(#paint1_linear_7754_15190)"/>
<path d="M348.465 171.256L540 282.059L276.535 435.471L85 324.661L348.465 171.256Z" fill="white"/>
<path d="M540 282.054V282.484L276.535 435.895V435.465L540 282.054Z" fill="#A0A4A6"/>
<path d="M276.535 435.465V435.895L85 325.091V324.661L276.535 435.465Z" fill="#707273"/>
<path d="M467.968 285.369L462.924 288.303L327.572 209.999L332.61 207.065L467.968 285.369Z" fill="url(#paint2_linear_7754_15190)"/>
<path d="M425.928 280.381L420.884 283.32L310.914 219.701L315.958 216.762L425.928 280.381Z" fill="url(#paint3_linear_7754_15190)"/>
<path d="M434.652 304.768L429.607 307.701L294.256 229.403L299.3 226.464L434.652 304.768Z" fill="url(#paint4_linear_7754_15190)"/>
<path d="M392.616 299.784L387.566 302.718L277.596 239.098L282.64 236.165L392.616 299.784Z" fill="url(#paint5_linear_7754_15190)"/>
<path d="M401.333 324.165L396.295 327.098L260.938 248.801L265.982 245.861L401.333 324.165Z" fill="url(#paint6_linear_7754_15190)"/>
<path d="M359.299 319.183L354.255 322.122L244.279 258.503L249.323 255.563L359.299 319.183Z" fill="url(#paint7_linear_7754_15190)"/>
<path d="M368.015 343.563L362.977 346.503L227.625 268.199L232.663 265.266L368.015 343.563Z" fill="url(#paint8_linear_7754_15190)"/>
<path d="M318.391 334.142L313.347 337.082L210.961 277.901L216.011 274.962L318.391 334.142Z" fill="#6D6E71"/>
<path d="M238.257 373.297C219.321 373.297 201.416 368.971 187.839 361.115C173.291 352.704 165.272 341.191 165.254 328.705C165.236 316.291 173.142 304.844 187.511 296.474C201.01 288.612 218.879 284.287 237.816 284.287C256.752 284.287 274.657 288.612 288.24 296.469C302.782 304.88 310.801 316.392 310.819 328.879C310.837 341.293 302.931 352.739 288.556 361.109C275.057 368.971 257.194 373.297 238.251 373.297H238.257ZM237.816 295.041C220.74 295.041 204.79 298.852 192.901 305.776C181.978 312.139 175.968 320.276 175.98 328.693C175.992 337.183 182.11 345.391 193.2 351.807C205.172 358.732 221.169 362.549 238.251 362.549C255.333 362.549 271.277 358.738 283.16 351.819C294.083 345.457 300.093 337.32 300.081 328.902C300.069 320.413 293.958 312.205 282.868 305.788C270.895 298.864 254.892 295.047 237.81 295.047L237.816 295.041Z" fill="url(#paint9_linear_7754_15190)"/>
<path d="M238.155 352.781C227.888 352.781 218.181 350.44 210.829 346.18C202.989 341.646 198.66 335.45 198.654 328.741C198.642 322.074 202.905 315.915 210.651 311.404C217.966 307.145 227.649 304.803 237.917 304.803C248.184 304.803 257.89 307.145 265.248 311.404C273.088 315.939 277.411 322.134 277.423 328.843C277.435 335.516 273.172 341.669 265.421 346.18C258.111 350.44 248.428 352.781 238.155 352.781ZM237.917 310.18C228.579 310.18 219.851 312.264 213.346 316.052C207.324 319.559 204.009 324.064 204.014 328.735C204.02 333.443 207.395 337.989 213.507 341.526C220.059 345.32 228.812 347.405 238.149 347.405C247.486 347.405 256.209 345.32 262.714 341.532C268.736 338.025 272.051 333.521 272.045 328.849C272.039 324.141 268.67 319.595 262.553 316.058C256 312.265 247.248 310.18 237.905 310.18H237.917Z" fill="url(#paint10_linear_7754_15190)"/>
<g style="mix-blend-mode:multiply">
<path d="M523.544 378.005C520.522 373.082 516.068 368.584 510.344 364.653C503.272 359.742 494.496 355.823 484.682 353.242C483.728 352.991 482.78 352.752 481.844 352.531C468.369 349.144 455.997 348.403 444.984 348.869C427.89 349.532 414.445 353.152 404.691 354.377C388.336 356.432 375.988 360.196 350.994 341.682C350.57 341.371 350.141 341.055 349.706 340.744C352.097 327.296 349.473 309.821 333.452 302.975V302.945C330.656 301.756 329.106 301.499 300.802 294.026C290.821 291.391 278.342 293.422 265.684 300.753C240.213 315.503 223.691 346.139 228.777 369.169C231.335 380.759 238.883 388.221 248.995 390.891L277.567 398.437C277.567 398.437 277.513 398.419 277.484 398.413C287.477 401.083 299.992 399.058 312.679 391.71C318.856 388.131 324.509 383.615 329.458 378.501C330.006 378.471 330.555 378.447 331.121 378.411C346.951 377.437 356.944 378.531 364.039 380.831C368.577 382.306 371.933 384.272 374.867 386.512C349.3 386.315 336.219 387.791 332.123 393.311C329.058 397.439 340.637 400.552 344.775 401.065C366.627 403.808 358.977 406.197 358.935 410.881C358.876 417.506 371.623 422.584 385.438 422.704C396.188 422.799 403.945 420.661 409.282 417.506C417.486 423.11 428.009 428.379 442.128 432.012C475.255 440.537 506.898 433.32 522.125 412.47C522.125 412.494 522.125 412.512 522.119 412.536C522.209 412.398 522.292 412.267 522.382 412.13C523.127 411.09 523.831 410.015 524.498 408.904C525.429 406.974 526.174 405.062 526.746 403.174C529.733 394.117 528.273 385.532 523.556 377.999L523.544 378.005Z" fill="url(#paint11_linear_7754_15190)"/>
</g>
<path d="M330.53 226.714C330.9 227.545 334.728 236.165 345.049 245.36C346.992 247.092 354.207 246.901 357.927 244.081C358.41 243.717 371.903 231.685 373.406 230.651C377.955 227.521 376.035 221.678 376.035 221.678C376.035 221.678 390.297 212.543 385.962 207.872C382.003 203.6 374.175 208.995 372.219 211.092C369.071 214.473 352.835 229.97 351.333 228.22C347.726 224.014 340.875 215.417 340.875 215.417C340.875 215.417 337.28 213.953 334.066 216.791C332.051 218.571 328.926 223.166 330.53 226.714Z" fill="#B6762B"/>
<path d="M341.174 216.809C341.174 216.809 340.398 214.682 337.894 216.158C335.39 217.633 332.665 220.465 331.58 223.1C330.745 225.119 330.865 226.177 332.123 226.899C333.417 227.646 337.483 225.376 339.015 223.07C340.542 220.77 342.062 217.861 341.174 216.809Z" fill="#D6EAE9"/>
<path d="M341.173 217.962C341.173 217.962 339.217 212.603 338.549 211.605C336.868 209.078 333.046 207.704 331.365 204.902C330.608 203.642 330.142 202.16 330.142 202.16C330.142 202.16 327.173 202.25 327.692 204.884C328.401 208.493 330.971 209.723 330.971 209.723C330.971 209.723 323.417 208.792 319.661 207.125C316.53 205.739 316.84 204.938 315.785 204.944C314.736 204.956 313.156 206.623 313.376 208.409C313.788 211.814 316.465 215.608 320.889 217.52C325.313 219.432 331.848 220.334 331.848 220.334L337.089 224.402L341.173 217.956V217.962Z" fill="#E7E8E8"/>
<path d="M340.595 215.954C340.595 215.954 341.692 217.292 338.627 221.289C336.833 223.631 334.817 225.812 333.977 226.283C332.462 227.132 331.592 226.475 331.604 226.522C331.627 226.618 333.392 227.902 333.392 227.902C333.392 227.902 337.292 228.494 340.732 222.406C342.652 219.013 342.103 217.77 342.103 217.77L340.589 215.954H340.595Z" fill="white"/>
<mask id="mask0_7754_15190" style="mask-type:luminance" maskUnits="userSpaceOnUse" x="208" y="219" width="135" height="131">
<path d="M342.871 318.179C335.949 325.683 329.027 333.186 322.105 340.69C314.848 348.552 302.459 351.664 286.611 348.163C254.718 341.126 220.893 309.976 211.073 278.594C206.131 262.798 208.206 249.96 215.557 241.996L236.324 219.491C228.978 227.455 226.898 240.299 231.84 256.089C241.66 287.466 275.485 318.615 307.378 325.659C323.225 329.16 335.621 326.047 342.871 318.185V318.179Z" fill="white"/>
</mask>
<g mask="url(#mask0_7754_15190)">
<path d="M342.871 318.179L322.105 340.69C314.848 348.552 302.459 351.664 286.611 348.163C254.718 341.126 220.893 309.976 211.073 278.594C206.131 262.798 208.206 249.96 215.557 241.996L236.324 219.491C228.978 227.455 226.898 240.299 231.84 256.089C241.66 287.466 275.485 318.615 307.378 325.659C323.225 329.16 335.621 326.047 342.871 318.185" fill="url(#paint12_linear_7754_15190)"/>
</g>
<path d="M347.355 281.587C357.175 312.963 339.276 332.696 307.377 325.652C275.484 318.609 241.66 287.465 231.84 256.083C222.02 224.7 239.913 204.967 271.806 212.011C303.704 219.055 337.529 250.204 347.355 281.587Z" fill="url(#paint13_linear_7754_15190)"/>
<path d="M340.849 280.153C349.566 307.999 333.683 325.509 305.373 319.26C277.07 313.011 247.049 285.368 238.338 257.523C229.621 229.671 245.505 212.161 273.809 218.41C302.118 224.659 332.132 252.301 340.849 280.153Z" fill="url(#paint14_linear_7754_15190)"/>
<g style="mix-blend-mode:multiply">
<path d="M274.919 222.657C303.228 228.906 333.243 256.549 341.966 284.401C341.996 284.49 342.013 284.574 342.043 284.664C341.709 283.182 341.31 281.67 340.827 280.123C332.11 252.271 302.095 224.629 273.786 218.38C245.572 212.155 229.706 229.534 238.238 257.224C232.556 232.049 248.196 216.755 274.925 222.657H274.919Z" fill="url(#paint15_linear_7754_15190)"/>
</g>
<g style="mix-blend-mode:multiply" opacity="0.21">
<path d="M269.105 239.696C262.666 257.302 306.018 325.3 306.018 325.3C306.018 325.3 322.159 329.804 334.071 324.38C336.683 323.191 340.38 320.921 342.395 318.704C344.571 316.303 345.656 314.588 345.656 314.588L318.671 267.47C318.671 267.47 272.993 229.05 269.105 239.69V239.696Z" fill="#231F20"/>
</g>
<path d="M449.026 182.385C473.967 154.587 475.38 119.28 449.879 94.0151C422.613 70.6799 387.62 75.053 362.071 102.301C335.878 130.231 336.868 160.89 333.386 177.134C329.904 193.378 330.172 206.778 296.533 220.417C284.184 225.424 276.666 230.627 272.081 235.215C271.634 235.663 271.204 236.105 270.811 236.542C270.632 236.745 270.477 236.936 270.304 237.133C267.448 241.183 267.633 247.331 270.334 254.076C272.951 260.612 277.924 267.715 284.763 274.012C291.602 280.308 299.078 284.676 305.798 286.743C312.756 288.881 318.897 288.541 322.683 285.321C323.041 284.95 323.405 284.574 323.769 284.156C323.977 283.923 324.186 283.672 324.395 283.427C328.568 278.468 333.118 270.517 337.059 257.756C347.797 223.022 361.147 222.162 377.007 217.323C392.866 212.483 423.441 210.894 449.014 182.391L449.026 182.385Z" fill="url(#paint16_linear_7754_15190)"/>
<g opacity="0.27">
<g opacity="0.48">
<path d="M373.513 110.068C390.285 92.1808 413.621 85.878 433.774 87.3477C411.463 80.4654 383.69 82.9925 364.766 103.173C343.665 125.672 340.863 151.361 338.752 168.997C343.45 152.885 352.298 132.686 373.513 110.068Z" fill="#F5F5F5"/>
</g>
<g opacity="0.48">
<path d="M320.138 210.458C314.891 214.604 307.718 218.816 299.443 222.173C290.243 225.907 279.683 231.386 273.214 238.883C270.334 242.97 270.561 248.824 272.976 255.121C273.107 254.912 273.238 254.703 273.381 254.5C280.393 246.369 286.099 239.833 297.696 231.194C312.339 220.286 315.833 217.113 320.138 210.458Z" fill="#F5F5F5"/>
</g>
</g>
<g opacity="0.52">
<path d="M377.091 217.299C392.951 212.454 422.262 211.391 449.099 182.368C473.347 156.141 477.42 115.851 445.497 90.5146C453.767 102.977 451.77 132.113 431.527 163.029C430.102 165.204 428.636 167.295 427.139 169.314C389.719 212.125 372.607 204.204 357.791 198.474C328.891 187.297 338.103 149.217 338.103 149.217C338.02 149.474 337.936 149.731 337.859 149.988C335.581 160.741 334.901 170.222 333.429 177.105C331.437 186.389 330.662 194.752 324.086 202.758C330.334 198.94 338.294 205.267 338.222 221.463C338.169 233.011 332.731 250.838 329.482 256.436C329.464 256.46 329.464 256.472 329.464 256.478C329.172 256.974 328.885 257.469 328.599 257.965C317.849 276.593 307.629 282.603 302.055 285.315C303.349 285.859 304.63 286.331 305.888 286.719C312.221 288.661 319.471 289.091 323.859 284.138C330.131 277.059 334.365 266.741 337.149 257.738C347.887 223.004 361.237 222.144 377.097 217.305L377.091 217.299Z" fill="#202020"/>
</g>
<path d="M363.192 374.814L361.57 378.453C361.57 378.453 346.45 384.576 345.526 385.072C344.464 385.628 342.127 386.619 342.467 388.639C342.545 389.117 342.539 389.427 342.855 389.857C343.981 391.381 346.188 392.026 348.227 392.337C352.669 393.036 361.922 391.494 361.922 391.494C364.617 391.112 369.083 389.672 369.566 389.26C369.566 389.26 371.879 388.525 372.315 389.344C372.476 389.636 372.279 391.005 372.255 391.279L377.973 388.8C378.259 388.639 378.712 385.801 378.808 384.534L378.438 376.23L363.204 374.814H363.192Z" fill="url(#paint17_linear_7754_15190)"/>
<path d="M345.668 390.95C346.837 391.494 348.476 391.751 350.092 391.906C356.561 392.521 366.238 390.114 366.238 390.114C367.204 389.869 370.835 388.889 370.835 388.889C370.835 388.889 372.332 388.746 372.296 389.343C372.296 389.164 372.278 389.325 372.356 389.349C372.505 389.397 372.236 391.279 372.236 391.279L370.656 390.317C370.656 390.317 366.214 391.392 365.439 391.667C365.439 391.667 356.12 393.961 349.609 393.418C347.552 393.244 344.052 392.103 342.77 390.215C342.544 389.875 342.222 388.74 342.448 388.154C342.478 388.262 344.082 390.227 345.668 390.962V390.95Z" fill="url(#paint18_linear_7754_15190)"/>
<path d="M372.303 389.343L378.545 386.362C378.545 386.362 378.104 388.848 378.021 388.806L372.309 391.291C372.321 391.094 372.309 389.863 372.309 389.343H372.303Z" fill="url(#paint19_linear_7754_15190)"/>
<path d="M367.753 280.195L361.212 374.492C360.723 377.712 358.851 378.734 359.733 379.875C363.036 384.129 377.859 388.531 380.124 381.763L389.11 285.453L367.747 280.189L367.753 280.195Z" fill="url(#paint20_linear_7754_15190)"/>
<path d="M413.448 391.727C413.448 391.727 413.663 400.963 413.681 401.178C413.967 405.282 409.477 415.857 403.056 416.335C400.963 416.49 400.277 416.484 398.751 416.066C396.539 415.456 394.386 412.756 395.167 407.355C395.632 404.141 398.798 391.303 398.798 391.303L413.454 391.727H413.448Z" fill="url(#paint21_linear_7754_15190)"/>
<path d="M414.081 389.434C414.081 389.434 413.533 394.727 413.062 401.621C412.776 405.725 408.578 413.199 403.087 414.567C401.477 414.967 400.1 414.77 400.004 414.77C397.572 414.615 394 413.432 395.425 404.967C395.926 401.944 398.013 390.3 398.18 390.294L414.081 389.434Z" fill="url(#paint22_linear_7754_15190)"/>
<path d="M384.877 287.048C385.861 303.758 395.454 395.312 395.454 395.312C395.609 397.66 402.353 400.42 402.353 400.42C410.628 400.169 414.558 395.019 414.593 394.195L414.14 289.533L384.877 287.048Z" fill="url(#paint23_linear_7754_15190)"/>
<path d="M399.943 222.914C399.943 222.914 395.65 215.315 391.721 213.797C387.792 212.286 375.152 212.979 375.152 212.979C375.152 212.979 368.408 227.681 368.349 228.685C368.283 229.689 371.485 256.142 371.485 256.142L388.34 242.724L399.943 222.92V222.914Z" fill="#D7DFE2"/>
<path d="M371.582 213.254C373.526 210.112 377.64 209.944 380.376 210.231C377.014 212.633 372.59 220.447 371.874 231.565C371.498 237.366 372.822 252.218 373.013 251.883C373.192 251.573 384.222 229.874 388.557 225.919C389.171 225.358 395.056 213.905 395.056 213.905C395.056 213.905 412.627 225.274 414.433 229.928C416.24 234.582 414.994 302.228 414.994 302.228C414.761 303.978 415.077 304.588 413.259 305.418C413.259 305.418 403.069 312.187 385.647 312.103C377.187 312.061 363.652 306.362 363.652 306.362C363.419 306.189 363.014 306.039 363.056 305.316L366.186 276.885C365.733 246.751 367.08 220.525 371.576 213.248L371.582 213.254Z" fill="#F4A046"/>
<path d="M370.842 308.913L372.947 275.553L372.41 252.474C372.41 252.474 373.328 250.437 373.692 249.792L373.787 275.368L371.808 309.259C371.784 309.217 370.89 308.937 370.848 308.913H370.842Z" fill="#F09123"/>
<path d="M377.145 218.93C383.196 225.293 389.278 217.634 393.452 212.95L391.717 190.559L378.224 200.87L377.145 218.93Z" fill="#E7E8E8"/>
<path d="M376.327 229.797C376.488 229.181 376.899 228.542 376.774 227.807L376.339 225.573L379.415 221.021L381.013 221.331L381.907 226.487L379.725 228.237C379.23 228.691 378.58 229.605 378.604 230.251L377.018 244.87L373.113 251.035C373.113 251.035 371.712 246.548 371.771 244.893C371.974 239.069 376.327 229.797 376.327 229.797Z" fill="url(#paint24_linear_7754_15190)"/>
<path d="M377.406 213.129L376.44 210.607C376.44 210.607 375.212 211.265 374.937 211.456C373.393 212.507 372.546 214.114 371.938 215.13C370.722 217.167 367.669 223.601 367.669 223.601C367.067 225.077 367.383 226.104 368.2 227.102L370.567 230.113L368.128 232.037C366.542 233.112 367.037 235.364 367.514 236.942C369.207 242.504 373.119 251.041 373.119 251.041C373.119 251.041 372.147 241.04 372.344 235.126C372.779 221.767 377.412 213.135 377.412 213.135L377.406 213.129Z" fill="#B6762B"/>
<path d="M379.815 220.13C380.656 220.895 379.928 221.821 379.416 222.466L376.196 226.451C375.176 227.634 374.831 226.212 374.884 224.897L375.063 215.404C375.534 210.434 377.693 210.063 377.693 210.063C377.693 210.063 377.573 211.264 377.609 212.8C377.669 214.849 377.418 217.943 379.821 220.13H379.815Z" fill="white"/>
<path d="M393.082 207.489C393.082 207.489 393.153 210.871 392.557 212.281C389.612 219.199 381.014 220.423 381.014 220.423C380.012 220.734 380.024 221.224 380.078 222.921L380.692 229.122C380.758 230.741 381.604 230.633 382.284 230C382.284 230 389.087 224.785 391.013 223.01C395.55 218.84 395.872 215.764 394.924 210.022C394.507 207.483 393.07 207.483 393.07 207.483L393.082 207.489Z" fill="white"/>
<path d="M394.863 209.693L398.155 216.223C398.155 216.223 398.751 217.048 398.548 218.756C398.405 219.963 397.803 221.636 397.803 221.636L393.683 230.197C392.979 232.234 392.186 232.879 390.612 232.903L385.049 233.238L386.761 237.246C387.351 238.531 386.874 239.218 385.777 239.959C374.412 247.582 372.469 252.606 372.469 252.606C372.469 252.606 372.439 247.098 382.11 231.78C384.572 227.873 388.8 222.335 391.793 217.854C395.692 212.023 394.869 209.693 394.869 209.693H394.863Z" fill="#B6762B"/>
<path d="M332.205 211.851C329.987 211.062 329.593 207.543 330.315 205.524C330.565 204.819 325.569 201.778 326.785 198.94C326.785 198.94 328.228 199.466 330.732 200.464C330.929 200.542 333.206 200.99 334.256 202.854C337.046 207.794 337.666 208.469 336.951 210.489C336.229 212.508 334.417 212.633 332.205 211.845V211.851Z" fill="#E7E8E8"/>
<path d="M334.204 215.686L336.339 209.867L336.529 207.429L329.106 204.807C329.106 204.807 328.152 204.317 327.186 202.746C326.805 202.124 325.779 200.487 325.779 200.487C325.779 200.487 322.536 198.235 321.755 201.838C321.498 203.002 321.242 204.717 321.242 204.717C320.729 206.205 320.151 208.803 319.68 210.494C318.589 214.395 323.233 215.656 323.233 215.656L327.61 217.311C330.048 218.267 333.226 218.344 334.204 215.686Z" fill="#E7E8E8"/>
<path d="M330.631 212.388C329.546 214.551 329.701 216.355 329.701 216.355C329.701 216.355 329.743 218.715 331.496 219.653C336.743 222.454 360.55 232.861 367.562 235.215C375.259 237.802 396.45 241.518 396.45 241.518C396.33 241.482 411.433 245.365 414.08 236.888C416.298 229.779 410.139 226.511 403.927 224.569C399.037 223.034 371.074 218.368 371.074 218.368L336.868 206.432C336.868 206.432 333.147 207.364 330.631 212.388Z" fill="#F4A046"/>
<path d="M374.42 176.77L386.768 175.426L389.492 197.721C389.492 199.275 389.713 200.649 389.612 201.969C389.492 203.421 389.689 205.44 388.103 206.952C388.103 206.952 386.267 208.308 383.87 210.363C382.379 211.647 380.489 212.997 378.253 213.965C376.781 214.593 373.102 213.41 373.102 213.41C370.711 212.741 371.081 212.717 368.624 206.223C368.624 206.223 364.605 194.334 363.347 190.738C359.776 180.516 363.532 177.714 363.532 177.714L374.414 176.776L374.42 176.77Z" fill="#E7E8E8"/>
<path d="M360.83 182.989C360.931 183.323 362.41 188.712 362.899 189.321C362.899 189.321 360.007 180.479 364.813 181.441C364.902 181.459 368.408 183.287 370.567 184.398C371.783 185.02 374.186 185.707 374.347 185.414C374.544 185.062 373.226 182.648 375.79 182.325C378.991 181.925 381.585 185.534 382.45 190.044C383.117 193.503 383.636 196.365 383.66 196.401C383.904 196.795 387.655 191.717 387.899 191.52C388.334 191.173 389.718 193.163 389.718 193.163C389.634 193.163 392.27 198.844 392.282 198.766C392.52 197.327 395.144 189.471 395.352 188.533C398.798 173.203 385.019 156.989 362.512 175.694C360.705 177.2 359.226 177.863 360.83 182.995V182.989Z" fill="url(#paint25_linear_7754_15190)"/>
<path d="M388.538 187.213C385.008 186.663 385.122 192.106 385.122 192.106L385.593 198.169C385.593 198.169 386.04 200.38 387.483 200.374C389.158 200.368 390.207 199.107 390.917 197.04C390.965 196.927 392.026 193.994 392.074 193.808C392.813 191.239 392.05 187.768 388.538 187.219V187.213Z" fill="#E7E8E8"/>
<path d="M389.588 198.324C389.588 198.324 390.632 202.739 390.632 204.585C390.632 206.431 389.344 207.566 386.863 209.884C384.043 212.531 381.294 214.789 379.732 215.261C377.097 216.062 372.065 214.974 371.003 213.499C370.509 212.818 369.674 209.042 369.674 209.042C369.674 209.042 371.105 211.838 372.035 211.605C372.643 211.45 372.87 210.571 372.87 210.571C372.87 210.571 373.066 209.317 374.193 210.613C375.076 211.617 375.624 212.202 375.94 212.256C378.379 212.686 380.71 211.354 383.024 209.621C385.725 207.59 388.64 204.179 388.807 203.086C389.057 201.485 389.594 198.33 389.594 198.33L389.588 198.324Z" fill="url(#paint26_linear_7754_15190)"/>
</g>
<defs>
<linearGradient id="paint0_linear_7754_15190" x1="314.812" y1="-1.18409" x2="314.812" y2="401.519" gradientUnits="userSpaceOnUse">
<stop stop-color="#E5EDF3" stop-opacity="0.5"/>
<stop offset="1" stop-color="#1F232A" stop-opacity="0"/>
</linearGradient>
<linearGradient id="paint1_linear_7754_15190" x1="377.5" y1="348.895" x2="377.5" y2="463.895" gradientUnits="userSpaceOnUse">
<stop stop-color="#E5EDF3" stop-opacity="0.2"/>
<stop offset="1" stop-color="#1F232A" stop-opacity="0"/>
</linearGradient>
<linearGradient id="paint2_linear_7754_15190" x1="575.5" y1="255.395" x2="199" y2="206.895" gradientUnits="userSpaceOnUse">
<stop stop-color="#E5EDF3"/>
<stop offset="1" stop-color="#1F232A"/>
</linearGradient>
<linearGradient id="paint3_linear_7754_15190" x1="562.5" y1="240.395" x2="212" y2="229.895" gradientUnits="userSpaceOnUse">
<stop stop-color="#E5EDF3"/>
<stop offset="1" stop-color="#1F232A"/>
</linearGradient>
<linearGradient id="paint4_linear_7754_15190" x1="496.5" y1="317.895" x2="186.5" y2="187.895" gradientUnits="userSpaceOnUse">
<stop stop-color="#E5EDF3"/>
<stop offset="1" stop-color="#1F232A"/>
</linearGradient>
<linearGradient id="paint5_linear_7754_15190" x1="370.5" y1="288.895" x2="328.5" y2="268.395" gradientUnits="userSpaceOnUse">
<stop stop-color="#E5EDF3"/>
<stop offset="1" stop-color="#1F232A"/>
</linearGradient>
<linearGradient id="paint6_linear_7754_15190" x1="435.5" y1="344.395" x2="276" y2="256.895" gradientUnits="userSpaceOnUse">
<stop stop-color="#E5EDF3"/>
<stop offset="1" stop-color="#1F232A"/>
</linearGradient>
<linearGradient id="paint7_linear_7754_15190" x1="374" y1="321.895" x2="327" y2="302.895" gradientUnits="userSpaceOnUse">
<stop stop-color="#E5EDF3"/>
<stop offset="1" stop-color="#1F232A"/>
</linearGradient>
<linearGradient id="paint8_linear_7754_15190" x1="475" y1="383.895" x2="298" y2="280.895" gradientUnits="userSpaceOnUse">
<stop stop-color="#E5EDF3"/>
<stop offset="1" stop-color="#1F232A"/>
</linearGradient>
<linearGradient id="paint9_linear_7754_15190" x1="27" y1="372.895" x2="311" y2="321.395" gradientUnits="userSpaceOnUse">
<stop stop-color="#E5EDF3"/>
<stop offset="1" stop-color="#1F232A"/>
</linearGradient>
<linearGradient id="paint10_linear_7754_15190" x1="131.5" y1="346.395" x2="277" y2="312.395" gradientUnits="userSpaceOnUse">
<stop stop-color="#E5EDF3"/>
<stop offset="1" stop-color="#1F232A"/>
</linearGradient>
<linearGradient id="paint11_linear_7754_15190" x1="378.078" y1="292.924" x2="378.078" y2="435.517" gradientUnits="userSpaceOnUse">
<stop stop-color="#E5EDF3" stop-opacity="0.2"/>
<stop offset="1" stop-color="#1F232A" stop-opacity="0"/>
</linearGradient>
<linearGradient id="paint12_linear_7754_15190" x1="194" y1="222.895" x2="316" y2="344.895" gradientUnits="userSpaceOnUse">
<stop stop-color="#E5EDF3"/>
<stop offset="1" stop-color="#1F232A"/>
</linearGradient>
<linearGradient id="paint13_linear_7754_15190" x1="250" y1="224.895" x2="342.5" y2="324.395" gradientUnits="userSpaceOnUse">
<stop stop-color="#E5EDF3"/>
<stop offset="1" stop-color="#1F232A"/>
</linearGradient>
<linearGradient id="paint14_linear_7754_15190" x1="196.5" y1="122.395" x2="297" y2="331.895" gradientUnits="userSpaceOnUse">
<stop stop-color="#E5EDF3"/>
<stop offset="1" stop-color="#1F232A"/>
</linearGradient>
<linearGradient id="paint15_linear_7754_15190" x1="357" y1="354.395" x2="202.5" y2="161.895" gradientUnits="userSpaceOnUse">
<stop stop-color="#E5EDF3"/>
<stop offset="1" stop-color="#1F232A"/>
</linearGradient>
<linearGradient id="paint16_linear_7754_15190" x1="520" y1="-35.1055" x2="293.5" y2="265.895" gradientUnits="userSpaceOnUse">
<stop stop-color="#E5EDF3"/>
<stop offset="1" stop-color="#1F232A"/>
</linearGradient>
<linearGradient id="paint17_linear_7754_15190" x1="364" y1="377.895" x2="361" y2="394.895" gradientUnits="userSpaceOnUse">
<stop stop-color="#1F232A"/>
<stop offset="1" stop-color="#E5EDF3"/>
</linearGradient>
<linearGradient id="paint18_linear_7754_15190" x1="356" y1="382.895" x2="357" y2="393.895" gradientUnits="userSpaceOnUse">
<stop stop-color="#E5EDF3"/>
<stop offset="1" stop-color="#1F232A"/>
</linearGradient>
<linearGradient id="paint19_linear_7754_15190" x1="375" y1="383.895" x2="375.424" y2="391.291" gradientUnits="userSpaceOnUse">
<stop stop-color="#E5EDF3"/>
<stop offset="1" stop-color="#1F232A"/>
</linearGradient>
<linearGradient id="paint20_linear_7754_15190" x1="367" y1="517.895" x2="374" y2="304.395" gradientUnits="userSpaceOnUse">
<stop stop-color="#E5EDF3"/>
<stop offset="1" stop-color="#1F232A"/>
</linearGradient>
<linearGradient id="paint21_linear_7754_15190" x1="395" y1="383.895" x2="404" y2="422.895" gradientUnits="userSpaceOnUse">
<stop stop-color="#E5EDF3"/>
<stop offset="1" stop-color="#1F232A"/>
</linearGradient>
<linearGradient id="paint22_linear_7754_15190" x1="400.5" y1="417.395" x2="404" y2="397.395" gradientUnits="userSpaceOnUse">
<stop stop-color="#E5EDF3"/>
<stop offset="1" stop-color="#1F232A"/>
</linearGradient>
<linearGradient id="paint23_linear_7754_15190" x1="402" y1="479.395" x2="400" y2="305.895" gradientUnits="userSpaceOnUse">
<stop stop-color="#E5EDF3"/>
<stop offset="1" stop-color="#1F232A"/>
</linearGradient>
<linearGradient id="paint24_linear_7754_15190" x1="361.5" y1="287.895" x2="379.5" y2="223.395" gradientUnits="userSpaceOnUse">
<stop stop-color="#E5EDF3"/>
<stop offset="1" stop-color="#1F232A"/>
</linearGradient>
<linearGradient id="paint25_linear_7754_15190" x1="378" y1="82.8945" x2="381" y2="193.395" gradientUnits="userSpaceOnUse">
<stop stop-color="#E5EDF3"/>
<stop offset="1" stop-color="#1F232A"/>
</linearGradient>
<linearGradient id="paint26_linear_7754_15190" x1="381.5" y1="186.895" x2="378.5" y2="234.395" gradientUnits="userSpaceOnUse">
<stop stop-color="#E5EDF3"/>
<stop offset="1" stop-color="#1F232A"/>
</linearGradient>
<clipPath id="clip0_7754_15190">
<rect width="455" height="357" fill="white" transform="translate(85 78.8945)"/>
</clipPath>
</defs>
</svg>
