<svg width="620" height="478" viewBox="0 0 620 478" fill="none" xmlns="http://www.w3.org/2000/svg">
<path opacity="0.4" d="M211.507 430.73C115.669 431.685 62.5243 433.117 19.9568 375.232C-16.5299 299.444 -4.74276 214.959 69.8998 132.89C201.246 -11.5246 377.508 -12.674 505.238 14.7926C613.468 38.0661 643.836 144.381 601.876 310.278C559.917 476.176 331.305 429.536 211.507 430.73Z" fill="url(#paint0_linear_7754_14935)"/>
<g clip-path="url(#clip0_7754_14935)">
<path d="M178.465 341.834L113.544 322.729C105.505 321.574 105.755 339.719 107.822 347.539L110.086 356.105C110.71 358.486 110.55 361.01 109.605 363.284L99.7117 373.539C97.5905 378.675 100.246 396.553 104.988 399.45L118.946 407.98C124.685 411.499 126.111 419.194 121.994 424.508L109.765 425.841C104.81 432.239 108.874 454.951 116.717 457.013L144.543 464.317C145.452 464.566 146.397 464.69 147.359 464.69L192.815 465.01C194.241 465.01 195.649 465.294 196.986 465.827L224.776 477.024C226.79 477.823 228.983 478.054 231.104 477.646L311.212 462.735C312.763 462.451 314.243 461.847 315.544 460.958L354.047 434.674C355.313 433.803 356.382 432.701 357.22 431.404L362.176 423.637C365.028 419.159 370.625 417.257 375.616 419.07L410.216 431.617C411.214 431.972 412.266 432.203 413.335 432.274L463.764 435.633C469.04 435.989 473.871 432.648 475.386 427.6L479.468 413.969C481.072 408.638 486.313 405.261 491.839 406.008L522.018 410.06C522.517 410.131 523.016 410.166 523.533 410.166H548.453C555.334 410.166 560.628 404.106 559.683 397.3L559.79 384.166C559.665 383.26 558.168 385.677 558.275 384.771L562.927 340.732C563.034 339.79 562.999 324.204 562.874 323.263L557.473 301.279C556.831 296.943 553.747 293.37 549.54 292.109L511.697 280.681C511.108 280.504 510.502 280.379 509.878 280.29L498.203 278.762C491.607 277.891 487.169 271.582 488.613 265.096L490.27 257.649C491.019 254.326 490.217 250.825 488.078 248.159L483.122 241.957C480.092 238.154 479.842 232.84 482.481 228.77L501.037 200.282C503.354 196.728 504.709 180.804 502.606 177.126L485.974 161.646C485.743 161.238 485.493 160.864 485.208 160.491L472.908 144.07C468.969 138.81 461.375 137.992 456.402 142.293L448.202 149.366C446.063 151.214 443.3 152.192 440.483 152.121L413.977 151.41C411.588 151.339 409.253 152.032 407.292 153.365L401.018 157.63C398.059 159.638 394.297 160.136 390.91 158.963L350.126 144.834C347.63 143.963 344.921 143.999 342.443 144.923L310.571 156.741C308.022 157.683 305.9 159.514 304.599 161.877L302.3 151.765C299.982 155.959 301.39 173.909 304.581 177.499L318.949 193.6C320.802 195.679 321.836 198.381 321.819 201.171L321.747 214.802C321.712 221.626 327.719 226.922 334.51 226.069C343.708 224.914 350.339 234.635 345.865 242.739L345.188 243.947C344.439 245.316 343.405 246.506 342.158 247.466L335.366 252.655C332.567 254.788 330.927 258.111 330.927 261.63V273.359C330.927 276.007 330 278.567 328.307 280.593L306.025 307.304C304.759 308.832 303.102 309.987 301.248 310.68L252.976 328.487C252.37 328.718 251.746 328.878 251.104 329.003L182.102 341.781C180.889 342.012 179.642 342.029 178.412 341.852L178.465 341.834Z" fill="url(#paint1_linear_7754_14935)"/>
<path d="M178.467 327.208L120.409 318.855C112.37 317.7 105.756 325.093 107.824 332.93L110.088 341.496C110.712 343.878 110.551 346.401 109.607 348.676L100.444 370.908C98.3229 376.044 100.266 381.945 105.008 384.841L118.965 393.372C124.705 396.891 126.131 404.586 122.013 409.9L110.658 424.579C105.703 430.977 108.911 440.342 116.755 442.404L144.58 449.708C145.489 449.957 146.434 450.081 147.397 450.081L192.852 450.401C194.278 450.401 195.686 450.686 197.023 451.219L224.813 462.415C226.828 463.215 229.02 463.446 231.141 463.037L311.25 448.127C312.8 447.842 314.28 447.238 315.581 446.349L354.084 420.065C355.35 419.194 356.42 418.092 357.257 416.795L362.213 409.029C365.065 404.55 370.662 402.649 375.653 404.461L410.253 417.008C411.251 417.364 412.303 417.595 413.372 417.666L463.801 421.025C469.077 421.38 473.908 418.039 475.423 412.992L479.505 399.361C481.11 394.029 486.35 390.653 491.876 391.399L522.055 395.451C522.554 395.522 523.053 395.558 523.57 395.558H548.49C555.371 395.558 560.665 389.498 559.72 382.691L558.348 372.899C558.223 371.992 558.205 371.068 558.294 370.162L562.947 326.124C563.054 325.182 563.018 324.24 562.893 323.298L557.492 286.688C556.851 282.352 553.767 278.78 549.56 277.518L511.716 266.091C511.128 265.913 510.522 265.788 509.898 265.7L498.222 264.171C491.627 263.3 487.188 256.991 488.632 250.505L490.29 243.058C491.038 239.735 490.236 236.234 488.097 233.568L483.142 227.366C480.111 223.563 479.862 218.249 482.5 214.179L501.056 185.691C503.374 182.137 503.499 177.605 501.395 173.926L485.994 147.056C485.762 146.647 485.513 146.274 485.227 145.9L472.928 129.479C468.988 124.219 461.395 123.401 456.421 127.702L448.221 134.775C446.082 136.624 443.319 137.601 440.503 137.53L413.996 136.819C411.608 136.748 409.273 137.441 407.312 138.774L401.037 143.039C398.078 145.047 394.317 145.545 390.93 144.372L350.145 130.243C347.649 129.373 344.94 129.408 342.462 130.332L310.59 142.151C308.041 143.092 305.92 144.923 304.618 147.287L303.157 149.935C300.839 154.129 301.428 159.318 304.618 162.908L318.986 179.009C320.84 181.088 321.874 183.79 321.856 186.58L321.785 200.211C321.749 207.035 327.756 212.331 334.548 211.478C343.746 210.323 350.377 220.044 345.903 228.148L345.225 229.356C344.477 230.725 343.443 231.916 342.195 232.875L335.403 238.065C332.605 240.197 330.965 243.521 330.965 247.039V258.769C330.965 261.417 330.038 263.976 328.344 266.002L306.062 292.713C304.797 294.241 303.139 295.396 301.285 296.089L253.013 313.897C252.407 314.128 251.783 314.288 251.142 314.412L182.139 327.19C180.927 327.421 179.679 327.439 178.449 327.261L178.467 327.208Z" fill="url(#paint2_linear_7754_14935)"/>
<g clip-path="url(#clip1_7754_14935)">
<path d="M394.446 192.202L454.877 157.367L394.446 122.533L334.016 157.367L394.446 192.202Z" fill="url(#paint3_linear_7754_14935)"/>
<path d="M394.759 326.236L455.189 291.39L394.759 256.556L334.328 291.39L394.759 326.236Z" fill="white"/>
<path d="M334.328 157.666V291.389L394.759 326.236V192.513L334.328 157.666Z" fill="#F4A046"/>
<path d="M454.876 157.367V291.09L394.445 325.937V192.201L454.876 157.367Z" fill="#AC7132"/>
<path d="M450.778 166.241V286.433L398.535 316.56V196.357L450.778 166.241Z" fill="url(#paint4_linear_7754_14935)"/>
<path d="M343.387 189.976V193.518L385.687 217.897V214.367L343.387 189.976Z" fill="#AC7132"/>
<path d="M343.387 204.929V208.459L385.687 232.85V229.308L343.387 204.929Z" fill="#AC7132"/>
<path d="M343.387 219.87V223.4L385.687 247.791V244.249L343.387 219.87Z" fill="#AC7132"/>
<path d="M343.387 234.812V238.354L385.687 262.733V259.203L343.387 234.812Z" fill="#AC7132"/>
<path d="M343.387 249.765V253.295L385.687 277.674V274.144L343.387 249.765Z" fill="#AC7132"/>
<path d="M343.387 264.706V268.236L385.687 292.627V289.085L343.387 264.706Z" fill="#AC7132"/>
<path d="M397.152 318.281C397.152 316.749 398.233 314.886 399.558 314.126C400.221 313.746 400.835 313.709 401.265 313.967L402.971 314.96L401.915 314.996C401.952 315.156 401.964 315.327 401.964 315.511C401.964 317.043 400.884 318.906 399.558 319.666C399.386 319.764 399.215 319.838 399.043 319.899L399.534 320.818L397.864 319.85C397.422 319.605 397.152 319.066 397.152 318.293V318.281Z" fill="url(#paint5_linear_7754_14935)"/>
<path d="M398.867 319.286C398.867 320.818 399.947 321.443 401.273 320.671C402.599 319.911 403.679 318.048 403.679 316.516C403.679 314.984 402.599 314.359 401.273 315.131C399.947 315.891 398.867 317.754 398.867 319.286Z" fill="url(#paint6_linear_7754_14935)"/>
<path d="M399.887 318.698C399.887 319.58 400.5 319.936 401.274 319.494C402.035 319.053 402.661 317.987 402.661 317.104C402.661 316.222 402.047 315.866 401.274 316.308C400.513 316.749 399.887 317.815 399.887 318.698Z" fill="#3F21D3"/>
<path d="M447.836 287.186C447.836 285.653 448.916 283.79 450.242 283.03C450.905 282.65 451.518 282.614 451.948 282.871L453.654 283.864L452.599 283.901C452.623 284.06 452.648 284.232 452.648 284.415C452.648 285.948 451.568 287.811 450.242 288.571C450.07 288.669 449.898 288.742 449.726 288.803L450.217 289.723L448.548 288.754C448.106 288.509 447.836 287.97 447.836 287.198V287.186Z" fill="url(#paint7_linear_7754_14935)"/>
<path d="M449.539 288.19C449.539 289.723 450.619 290.348 451.945 289.575C453.271 288.816 454.351 286.952 454.351 285.42C454.351 283.888 453.271 283.263 451.945 284.035C450.619 284.795 449.539 286.658 449.539 288.19Z" fill="url(#paint8_linear_7754_14935)"/>
<path d="M450.57 287.602C450.57 288.485 451.184 288.84 451.957 288.399C452.731 287.957 453.344 286.891 453.344 286.009C453.344 285.126 452.731 284.771 451.957 285.212C451.184 285.653 450.57 286.72 450.57 287.602Z" fill="#3F21D3"/>
<path d="M317.446 212.202L377.877 177.367L317.446 142.533L257.016 177.367L317.446 212.202Z" fill="url(#paint9_linear_7754_14935)"/>
<path d="M315.191 375.472L249.089 337.365C248.34 336.936 247.898 336.164 247.898 335.293C247.898 334.423 248.34 333.663 249.089 333.222L315.203 295.115C316.688 294.257 318.542 294.257 320.027 295.115L386.129 333.222C386.877 333.651 387.319 334.423 387.319 335.293C387.319 336.164 386.877 336.924 386.129 337.365L320.015 375.472C319.266 375.901 318.431 376.121 317.597 376.121C316.762 376.121 315.927 375.901 315.191 375.472ZM316.062 296.623L249.948 334.73C249.654 334.901 249.629 335.171 249.629 335.281C249.629 335.391 249.666 335.673 249.948 335.833L316.05 373.94C316.995 374.491 318.174 374.491 319.119 373.94L385.233 335.833C385.527 335.661 385.552 335.391 385.552 335.281C385.552 335.171 385.515 334.889 385.233 334.73L319.131 296.623C318.652 296.353 318.124 296.218 317.597 296.218C317.069 296.218 316.529 296.353 316.062 296.623Z" fill="url(#paint10_linear_7754_14935)"/>
<g opacity="0.67">
<path d="M317.594 364.809L368.806 335.294L317.594 305.779L266.395 335.294L317.594 364.809Z" fill="url(#paint11_linear_7754_14935)"/>
</g>
<path d="M317.595 345.834L378.025 311L317.607 276.166L257.164 311L317.595 345.834Z" fill="white"/>
<path d="M257.164 177.277V311.001L317.595 345.835V212.112L257.164 177.277Z" fill="#F4A046"/>
<path d="M377.876 177.367V311.09L317.445 345.937V212.201L377.876 177.367Z" fill="#AC7132"/>
<path d="M373.778 186.241V306.433L321.535 336.56V216.357L373.778 186.241Z" fill="url(#paint12_linear_7754_14935)"/>
<path d="M266.234 209.587V213.117L308.534 237.508V233.978L266.234 209.587Z" fill="#AC7132"/>
<path d="M266.234 224.528V228.071L308.534 252.45V248.92L266.234 224.528Z" fill="#AC7132"/>
<path d="M266.234 239.481V243.011L308.534 267.403V263.861L266.234 239.481Z" fill="#AC7132"/>
<path d="M266.234 254.423V257.953L308.534 282.344V278.814L266.234 254.423Z" fill="#AC7132"/>
<path d="M266.234 269.364V272.907L308.534 297.286V293.756L266.234 269.364Z" fill="#AC7132"/>
<path d="M266.234 284.317V287.847L308.534 312.226V308.696L266.234 284.317Z" fill="#AC7132"/>
<path d="M240.446 283.202L300.877 248.367L240.446 213.533L180.016 248.367L240.446 283.202Z" fill="url(#paint13_linear_7754_14935)"/>
<path d="M240.446 416.938L300.877 382.091L240.446 347.257L180.016 382.091L240.446 416.938Z" fill="white"/>
<path d="M180.016 248.367V382.09L240.446 416.937V283.201L180.016 248.367Z" fill="#F4A046"/>
<path d="M300.876 248.367V382.09L240.445 416.937V283.201L300.876 248.367Z" fill="#AC7132"/>
<path d="M296.778 257.241V377.433L244.535 407.56V287.357L296.778 257.241Z" fill="url(#paint14_linear_7754_14935)"/>
<path d="M189.074 280.677V284.207L231.374 308.598V305.068L189.074 280.677Z" fill="#AC7132"/>
<path d="M189.074 295.618V299.16L231.374 323.539V320.009L189.074 295.618Z" fill="#AC7132"/>
<path d="M189.074 310.571V314.101L231.374 338.493V334.95L189.074 310.571Z" fill="#AC7132"/>
<path d="M189.074 325.513V329.043L231.374 353.434V349.904L189.074 325.513Z" fill="#AC7132"/>
<path d="M189.074 340.454V343.996L231.374 368.375V364.845L189.074 340.454Z" fill="#AC7132"/>
<path d="M189.074 355.407V358.937L231.374 383.329V379.786L189.074 355.407Z" fill="#AC7132"/>
<path d="M355.082 231.367L366.412 224.847V222.358L355.082 228.891V231.367Z" fill="#F4A046"/>
<path d="M349.277 234.713L353.365 232.372V229.884L349.277 232.237V234.713Z" fill="#F4A046"/>
<path d="M344.785 237.312L347.547 235.719V233.23L344.785 234.836V237.312Z" fill="#F4A046"/>
<path d="M360.238 234.076L366.413 230.509V228.033L360.238 231.588V234.076Z" fill="#F4A046"/>
<path d="M350.945 239.433L358.507 235.069V232.581L350.945 236.945V239.433Z" fill="#F4A046"/>
<path d="M346.453 242.031L349.215 240.425V237.949L346.453 239.543V242.031Z" fill="#F4A046"/>
<path d="M342.172 244.495L344.934 242.901V240.413L342.172 242.006V244.495Z" fill="#F4A046"/>
<path d="M361.945 238.758L366.413 236.184V233.708L361.945 236.282V238.758Z" fill="#F4A046"/>
<path d="M358.691 240.646L360.214 239.764V237.275L358.691 238.158V240.646Z" fill="#F4A046"/>
<path d="M354.188 243.232L356.962 241.639V239.15L354.188 240.756V243.232Z" fill="#F4A046"/>
<path d="M349.941 251.359L366.415 241.86V239.384L349.941 248.883V251.359Z" fill="#F4A046"/>
<path d="M344.121 254.716L348.209 252.363V249.875L344.121 252.228V254.716Z" fill="#F4A046"/>
<path d="M361.945 250.108L366.413 247.534V245.059L361.945 247.633V250.108Z" fill="#F4A046"/>
<path d="M351.477 256.151L360.216 251.113V248.625L351.477 253.663V256.151Z" fill="#F4A046"/>
<path d="M346.969 258.75L349.743 257.144V254.668L346.969 256.261V258.75Z" fill="#F4A046"/>
<path d="M357.281 258.479L366.414 253.209V250.721L357.281 255.991V258.479Z" fill="#F4A046"/>
<path d="M348.945 263.284L355.549 259.473V256.984L348.945 260.796V263.284Z" fill="#F4A046"/>
<path d="M342.746 266.851L347.214 264.277V261.801L342.746 264.375V266.851Z" fill="#F4A046"/>
<path d="M363.332 260.661L366.413 258.884V256.396L363.332 258.173V260.661Z" fill="#F4A046"/>
<path d="M357.527 264.008L361.603 261.655V259.179L357.527 261.532V264.008Z" fill="#F4A046"/>
<path d="M349.215 268.8L355.794 265.013V262.524L349.215 266.312V268.8Z" fill="#F4A046"/>
<path d="M356.961 270.002L366.413 264.559V262.071L356.961 267.526V270.002Z" fill="#F4A046"/>
<path d="M346.379 276.105L355.229 271.006V268.518L346.379 273.629V276.105Z" fill="#F4A046"/>
<path d="M341.875 278.704L344.649 277.11V274.622L341.875 276.215V278.704Z" fill="#F4A046"/>
<path d="M337.555 281.192L340.329 279.599V277.11L337.555 278.716V281.192Z" fill="#F4A046"/>
<path d="M360.754 273.495L366.413 270.234V267.746L360.754 271.006V273.495Z" fill="#F4A046"/>
<path d="M337.063 241.762L329.219 246.284V243.809L337.063 239.273V241.762Z" fill="#F4A046"/>
<path d="M335.381 248.404L329.219 251.959V249.483L335.381 245.916V248.404Z" fill="#F4A046"/>
<path d="M333.675 255.06L329.219 257.634V255.146L333.675 252.572V255.06Z" fill="#F4A046"/>
<path d="M335.712 259.57L329.219 263.309V260.82L335.712 257.082V259.57Z" fill="#F4A046"/>
<path d="M333.675 266.41L329.219 268.984V266.496L333.675 263.922V266.41Z" fill="#F4A046"/>
<path d="M334.878 271.386L329.219 274.659V272.17L334.878 268.91V271.386Z" fill="#F4A046"/>
<path d="M332.3 278.557L329.219 280.334V277.846L332.3 276.068V278.557Z" fill="#F4A046"/>
<path d="M335.197 282.552L329.219 286.009V283.52L335.197 280.076V282.552Z" fill="#F4A046"/>
<path d="M334.878 288.411L329.219 291.671V289.195L334.878 285.923V288.411Z" fill="#F4A046"/>
<path d="M356.617 275.885L359.023 274.488V272.012L356.617 273.397V275.885Z" fill="#F4A046"/>
<path d="M349.461 280.002L354.887 276.877V274.389L349.461 277.514V280.002Z" fill="#F4A046"/>
<path d="M344.98 299.087L354.125 293.816V291.328L344.98 296.611V299.087Z" fill="#F4A046"/>
<path d="M338.707 302.703L342.316 300.619V298.144L338.707 300.215V302.703Z" fill="#F4A046"/>
<path d="M432.219 211.23L443.549 204.697V202.221L432.219 208.741V211.23Z" fill="#F4A046"/>
<path d="M426.414 214.575L430.489 212.222V209.746L426.414 212.099V214.575Z" fill="#F4A046"/>
<path d="M421.91 217.173L424.684 215.58V213.092L421.91 214.685V217.173Z" fill="#F4A046"/>
<path d="M437.375 213.925L443.549 210.371V207.883L437.375 211.45V213.925Z" fill="#F4A046"/>
<path d="M428.082 219.294L435.644 214.931V212.442L428.082 216.806V219.294Z" fill="#F4A046"/>
<path d="M423.578 221.88L426.352 220.287V217.799L423.578 219.404V221.88Z" fill="#F4A046"/>
<path d="M419.293 224.356L422.067 222.75V220.274L419.293 221.868V224.356Z" fill="#F4A046"/>
<path d="M439.082 218.62L443.55 216.046V213.558L439.082 216.132V218.62Z" fill="#F4A046"/>
<path d="M435.828 220.495L437.35 219.613V217.137L435.828 218.019V220.495Z" fill="#F4A046"/>
<path d="M431.324 223.094L434.098 221.501V219.013L431.324 220.606V223.094Z" fill="#F4A046"/>
<path d="M427.066 231.22L443.552 221.721V219.232L427.066 228.732V231.22Z" fill="#F4A046"/>
<path d="M421.258 234.567L425.333 232.213V229.737L421.258 232.091V234.567Z" fill="#F4A046"/>
<path d="M439.082 229.97L443.55 227.396V224.908L439.082 227.482V229.97Z" fill="#F4A046"/>
<path d="M428.598 236.013L437.35 230.963V228.487L428.598 233.525V236.013Z" fill="#F4A046"/>
<path d="M424.094 238.599L426.868 237.006V234.518L424.094 236.123V238.599Z" fill="#F4A046"/>
<path d="M434.406 238.329L443.551 233.071V230.583L434.406 235.853V238.329Z" fill="#F4A046"/>
<path d="M426.07 243.146L432.674 239.334V236.846L426.07 240.658V243.146Z" fill="#F4A046"/>
<path d="M419.871 246.713L424.339 244.139V241.65L419.871 244.224V246.713Z" fill="#F4A046"/>
<path d="M440.457 240.523L443.55 238.746V236.258L440.457 238.035V240.523Z" fill="#F4A046"/>
<path d="M434.652 243.87L438.728 241.516V239.028L434.652 241.382V243.87Z" fill="#F4A046"/>
<path d="M426.352 248.65L432.919 244.863V242.387L426.352 246.174V248.65Z" fill="#F4A046"/>
<path d="M434.098 249.863L443.55 244.409V241.933L434.098 247.375V249.863Z" fill="#F4A046"/>
<path d="M423.504 255.967L432.367 250.856V248.38L423.504 253.479V255.967Z" fill="#F4A046"/>
<path d="M419 258.565L421.774 256.959V254.483L419 256.077V258.565Z" fill="#F4A046"/>
<path d="M414.68 261.053L417.454 259.46V256.972L414.68 258.565V261.053Z" fill="#F4A046"/>
<path d="M437.879 253.356L443.55 250.083V247.607L437.879 250.868V253.356Z" fill="#F4A046"/>
<path d="M414.2 221.623L406.344 226.146V223.658L414.2 219.135V221.623Z" fill="#F4A046"/>
<path d="M412.518 228.266L406.344 231.821V229.333L412.518 225.778V228.266Z" fill="#F4A046"/>
<path d="M410.812 234.922L406.344 237.496V235.008L410.812 232.434V234.922Z" fill="#F4A046"/>
<path d="M412.837 239.42L406.344 243.171V240.683L412.837 236.944V239.42Z" fill="#F4A046"/>
<path d="M410.812 246.271L406.344 248.845V246.357L410.812 243.783V246.271Z" fill="#F4A046"/>
<path d="M412.003 251.248L406.344 254.508V252.032L412.003 248.76V251.248Z" fill="#F4A046"/>
<path d="M409.425 258.406L406.344 260.183V257.707L409.425 255.93V258.406Z" fill="#F4A046"/>
<path d="M412.322 262.414L406.344 265.858V263.382L412.322 259.926V262.414Z" fill="#F4A046"/>
<path d="M412.003 268.273L406.344 271.534V269.046L412.003 265.785V268.273Z" fill="#F4A046"/>
<path d="M433.742 255.735L436.148 254.349V251.861L433.742 253.259V255.735Z" fill="#F4A046"/>
<path d="M426.598 259.865L432.011 256.739V254.251L426.598 257.376V259.865Z" fill="#F4A046"/>
<path d="M422.105 278.949L431.25 273.679V271.19L422.105 276.461V278.949Z" fill="#F4A046"/>
<path d="M415.844 282.564L419.44 280.48V277.992L415.844 280.076V282.564Z" fill="#42E8E0"/>
<path d="M277.934 303.242L289.264 296.709V294.221L277.934 300.754V303.242Z" fill="#F4A046"/>
<path d="M272.129 306.589L276.204 304.235V301.747L272.129 304.1V306.589Z" fill="#F4A046"/>
<path d="M267.625 309.174L270.399 307.581V305.093L267.625 306.698V309.174Z" fill="#F4A046"/>
<path d="M283.09 305.938L289.264 302.384V299.896L283.09 303.45V305.938Z" fill="#F4A046"/>
<path d="M273.797 311.294L281.358 306.931V304.455L273.797 308.806V311.294Z" fill="#F4A046"/>
<path d="M269.293 313.893L272.067 312.287V309.812L269.293 311.405V313.893Z" fill="#F4A046"/>
<path d="M265.008 316.357L267.782 314.764V312.275L265.008 313.881V316.357Z" fill="#F4A046"/>
<path d="M284.797 310.632L289.265 308.058V305.57L284.797 308.144V310.632Z" fill="#F4A046"/>
<path d="M281.543 312.508L283.065 311.626V309.138L281.543 310.02V312.508Z" fill="#F4A046"/>
<path d="M277.039 315.095L279.813 313.501V311.025L277.039 312.619V315.095Z" fill="#F4A046"/>
<path d="M272.777 323.233L289.263 313.722V311.246L272.777 320.745V323.233Z" fill="#F4A046"/>
<path d="M266.973 326.579L271.048 324.225V321.737L266.973 324.091V326.579Z" fill="#F4A046"/>
<path d="M284.797 321.971L289.265 319.397V316.921L284.797 319.495V321.971Z" fill="#F4A046"/>
<path d="M274.312 328.013L283.065 322.975V320.487L274.312 325.537V328.013Z" fill="#F4A046"/>
<path d="M269.809 330.612L272.583 329.018V326.53L269.809 328.124V330.612Z" fill="#F4A046"/>
<path d="M280.121 330.342L289.266 325.072V322.596L280.121 327.854V330.342Z" fill="#F4A046"/>
<path d="M271.785 335.147L278.389 331.335V328.859L271.785 332.659V335.147Z" fill="#F4A046"/>
<path d="M265.586 338.726L270.054 336.14V333.664L265.586 336.238V338.726Z" fill="#F4A046"/>
<path d="M286.172 332.524L289.265 330.747V328.259L286.172 330.048V332.524Z" fill="#F4A046"/>
<path d="M280.363 335.87L284.439 333.529V331.041L280.363 333.394V335.87Z" fill="#F4A046"/>
<path d="M272.066 340.662L278.634 336.875V334.387L272.066 338.174V340.662Z" fill="#F4A046"/>
<path d="M279.812 341.876L289.264 336.422V333.934L279.812 339.388V341.876Z" fill="#F4A046"/>
<path d="M269.219 347.98L278.081 342.869V340.381L269.219 345.492V347.98Z" fill="#F4A046"/>
<path d="M264.715 350.566L267.489 348.973V346.484L264.715 348.09V350.566Z" fill="#F4A046"/>
<path d="M260.406 353.054L263.168 351.461V348.973L260.406 350.578V353.054Z" fill="#F4A046"/>
<path d="M283.594 345.357L289.265 342.097V339.608L283.594 342.881V345.357Z" fill="#F4A046"/>
<path d="M259.915 313.623L252.059 318.158V315.67L259.915 311.147V313.623Z" fill="#F4A046"/>
<path d="M258.233 320.267L252.059 323.821V321.346L258.233 317.791V320.267Z" fill="#F4A046"/>
<path d="M256.527 326.922L252.059 329.496V327.02L256.527 324.446V326.922Z" fill="#F4A046"/>
<path d="M258.552 331.432L252.059 335.171V332.695L258.552 328.944V331.432Z" fill="#F4A046"/>
<path d="M256.527 338.272L252.059 340.846V338.358L256.527 335.784V338.272Z" fill="#F4A046"/>
<path d="M257.717 343.261L252.059 346.521V344.033L257.717 340.772V343.261Z" fill="#F4A046"/>
<path d="M255.14 350.419L252.059 352.196V349.708L255.14 347.931V350.419Z" fill="#F4A046"/>
<path d="M258.037 354.427L252.059 357.871V355.383L258.037 351.938V354.427Z" fill="#F4A046"/>
<path d="M257.717 360.274L252.059 363.546V361.058L257.717 357.798V360.274Z" fill="#F4A046"/>
<path d="M279.457 347.747L281.863 346.362V343.874L279.457 345.259V347.747Z" fill="#F4A046"/>
<path d="M272.312 351.865L277.726 348.74V346.264L272.312 349.389V351.865Z" fill="#F4A046"/>
<path d="M267.82 370.949L276.978 365.679V363.19L267.82 368.473V370.949Z" fill="#F4A046"/>
<path d="M261.559 374.565L265.155 372.494V370.006L261.559 372.077V374.565Z" fill="#F4A046"/>
<path d="M372.882 389.653C371.875 389.653 370.807 389.408 369.972 388.918L348.073 376.293C347.153 375.766 346.625 375.006 346.625 374.234C346.625 373.548 347.03 372.935 347.754 372.518L453.149 311.76C454.523 310.964 456.819 311.049 458.378 311.944L480.277 324.569C481.197 325.096 481.725 325.856 481.725 326.64C481.725 327.327 481.32 327.939 480.596 328.356L375.202 389.114C374.563 389.482 373.741 389.653 372.882 389.653ZM455.444 312.532C454.818 312.532 454.229 312.655 453.799 312.9L348.405 373.658C348.233 373.756 347.951 373.964 347.951 374.222C347.951 374.442 348.159 374.798 348.736 375.129L370.635 387.753C371.777 388.415 373.569 388.501 374.539 387.937L479.933 327.18C480.105 327.081 480.387 326.873 480.387 326.616C480.387 326.395 480.178 326.04 479.602 325.709L457.703 313.084C457.064 312.716 456.23 312.532 455.444 312.532Z" fill="url(#paint15_linear_7754_14935)"/>
<path d="M437.927 276.473C435.153 278.067 432.538 280.322 430.206 282.982C426.965 272.6 417.096 269.376 405.41 276.118C395.749 281.695 387.316 292.652 382.861 304.26C381.388 304.309 379.743 304.787 378 305.792C371.69 309.432 366.584 318.269 366.584 325.538C366.584 325.697 366.596 325.832 366.608 325.991C364.804 326.114 362.828 326.751 360.728 327.952C352.664 332.598 346.121 343.911 346.121 353.214C346.121 362.517 352.664 366.28 360.728 361.634L437.939 317.129C447.673 311.516 455.566 297.862 455.566 286.634C455.566 275.407 447.673 270.859 437.939 276.473H437.927Z" fill="url(#paint16_linear_7754_14935)"/>
<path d="M437.927 276.473C436.319 277.405 434.772 278.545 433.287 279.868L424.657 274.892C419.919 271.57 413.045 271.705 405.41 276.118C395.749 281.695 387.316 292.652 382.861 304.26C381.388 304.309 379.743 304.787 378 305.792C371.69 309.432 366.584 318.269 366.584 325.538C366.584 325.697 366.596 325.832 366.608 325.991C364.804 326.114 362.828 326.751 360.728 327.952C352.664 332.598 346.121 343.911 346.121 353.214C346.121 357.822 347.729 361.071 350.331 362.615L350.393 362.652C350.393 362.652 350.393 362.652 350.405 362.652L371.555 374.909L376.171 352.724L437.927 317.117C447.661 311.503 455.554 297.849 455.554 286.622C455.554 275.395 447.661 270.847 437.927 276.461V276.473Z" fill="url(#paint17_radial_7754_14935)"/>
<path d="M471.92 287.725L450.5 275.296C447.296 273.397 442.852 273.642 437.942 276.473C436.334 277.405 434.788 278.545 433.302 279.868L424.673 274.892C419.935 271.57 413.061 271.705 405.426 276.118C395.765 281.695 387.332 292.652 382.876 304.26C381.403 304.309 379.758 304.787 378.015 305.792C371.706 309.432 366.599 318.269 366.599 325.538C366.599 325.697 366.612 325.832 366.624 325.991C364.819 326.114 362.843 326.751 360.744 327.952C352.679 332.598 346.137 343.911 346.137 353.214C346.137 357.822 347.745 361.071 350.347 362.615L350.408 362.652C350.408 362.652 350.408 362.652 350.421 362.652L371.571 374.909L376.186 352.724L437.942 317.117C445.835 312.57 452.513 302.74 454.759 293.192L471.92 287.713V287.725Z" fill="url(#paint18_linear_7754_14935)"/>
<path d="M459.153 288.766C456.379 290.36 453.765 292.615 451.432 295.275C448.192 284.893 438.322 281.669 426.637 288.411C416.976 293.988 408.543 304.945 404.087 316.553C402.614 316.602 400.969 317.08 399.226 318.085C392.917 321.725 387.81 330.562 387.81 337.831C387.81 337.99 387.823 338.125 387.835 338.284C386.03 338.407 384.054 339.044 381.955 340.245C373.89 344.891 367.348 356.204 367.348 365.507C367.348 374.81 373.89 378.573 381.955 373.927L459.166 329.422C468.9 323.809 476.793 310.155 476.793 298.927C476.793 287.7 468.9 283.152 459.166 288.766H459.153Z" fill="white"/>
<path d="M359.514 381.754L310.309 411.264L310.998 412.409L360.203 382.899L359.514 381.754Z" fill="url(#paint19_linear_7754_14935)"/>
</g>
</g>
<defs>
<linearGradient id="paint0_linear_7754_14935" x1="317.889" y1="-1.34914" x2="317.889" y2="433.331" gradientUnits="userSpaceOnUse">
<stop stop-color="#E5EDF3" stop-opacity="0.5"/>
<stop offset="1" stop-color="#1F232A" stop-opacity="0"/>
</linearGradient>
<linearGradient id="paint1_linear_7754_14935" x1="330.982" y1="139.53" x2="330.982" y2="477.844" gradientUnits="userSpaceOnUse">
<stop stop-color="#E5EDF3"/>
<stop offset="1" stop-color="#1F232A"/>
</linearGradient>
<linearGradient id="paint2_linear_7754_14935" x1="907" y1="-791.605" x2="46.5" y2="729.395" gradientUnits="userSpaceOnUse">
<stop stop-color="#E5EDF3"/>
<stop offset="1" stop-color="#1F232A"/>
</linearGradient>
<linearGradient id="paint3_linear_7754_14935" x1="401.5" y1="279.395" x2="394" y2="109.895" gradientUnits="userSpaceOnUse">
<stop stop-color="#E5EDF3"/>
<stop offset="1" stop-color="#F4A046"/>
</linearGradient>
<linearGradient id="paint4_linear_7754_14935" x1="434.5" y1="-288.605" x2="420" y2="367.395" gradientUnits="userSpaceOnUse">
<stop stop-color="#E5EDF3"/>
<stop offset="1" stop-color="#1F232A"/>
</linearGradient>
<linearGradient id="paint5_linear_7754_14935" x1="402.971" y1="317.301" x2="397.152" y2="317.301" gradientUnits="userSpaceOnUse">
<stop stop-color="#C0BFF6"/>
<stop offset="0.29" stop-color="#C4C3F6"/>
<stop offset="0.64" stop-color="#D2D2F9"/>
<stop offset="1" stop-color="#E9E9FD"/>
</linearGradient>
<linearGradient id="paint6_linear_7754_14935" x1="403.679" y1="317.901" x2="398.867" y2="317.901" gradientUnits="userSpaceOnUse">
<stop stop-color="#5761D7"/>
<stop offset="0.18" stop-color="#5B65D8"/>
<stop offset="0.39" stop-color="#6A72DE"/>
<stop offset="0.61" stop-color="#8188E8"/>
<stop offset="0.85" stop-color="#A2A6F5"/>
<stop offset="1" stop-color="#BCBEFF"/>
</linearGradient>
<linearGradient id="paint7_linear_7754_14935" x1="453.654" y1="286.205" x2="447.836" y2="286.205" gradientUnits="userSpaceOnUse">
<stop stop-color="#C0BFF6"/>
<stop offset="0.29" stop-color="#C4C3F6"/>
<stop offset="0.64" stop-color="#D2D2F9"/>
<stop offset="1" stop-color="#E9E9FD"/>
</linearGradient>
<linearGradient id="paint8_linear_7754_14935" x1="454.351" y1="286.805" x2="449.551" y2="286.805" gradientUnits="userSpaceOnUse">
<stop stop-color="#5761D7"/>
<stop offset="0.18" stop-color="#5B65D8"/>
<stop offset="0.39" stop-color="#6A72DE"/>
<stop offset="0.61" stop-color="#8188E8"/>
<stop offset="0.85" stop-color="#A2A6F5"/>
<stop offset="1" stop-color="#BCBEFF"/>
</linearGradient>
<linearGradient id="paint9_linear_7754_14935" x1="324.5" y1="299.395" x2="317" y2="129.895" gradientUnits="userSpaceOnUse">
<stop stop-color="#E5EDF3"/>
<stop offset="1" stop-color="#F4A046"/>
</linearGradient>
<linearGradient id="paint10_linear_7754_14935" x1="387.319" y1="335.293" x2="247.886" y2="335.293" gradientUnits="userSpaceOnUse">
<stop stop-color="#F4A046"/>
<stop offset="1" stop-color="#F09123"/>
</linearGradient>
<linearGradient id="paint11_linear_7754_14935" x1="312" y1="330.895" x2="317.6" y2="364.809" gradientUnits="userSpaceOnUse">
<stop stop-color="#E5EDF3" stop-opacity="0.2"/>
<stop offset="1" stop-color="#1F232A" stop-opacity="0"/>
</linearGradient>
<linearGradient id="paint12_linear_7754_14935" x1="357.5" y1="-268.605" x2="343" y2="387.395" gradientUnits="userSpaceOnUse">
<stop stop-color="#E5EDF3"/>
<stop offset="1" stop-color="#1F232A"/>
</linearGradient>
<linearGradient id="paint13_linear_7754_14935" x1="247.5" y1="370.395" x2="240" y2="200.895" gradientUnits="userSpaceOnUse">
<stop stop-color="#E5EDF3"/>
<stop offset="1" stop-color="#F4A046"/>
</linearGradient>
<linearGradient id="paint14_linear_7754_14935" x1="280.5" y1="-197.605" x2="266" y2="458.395" gradientUnits="userSpaceOnUse">
<stop stop-color="#E5EDF3"/>
<stop offset="1" stop-color="#1F232A"/>
</linearGradient>
<linearGradient id="paint15_linear_7754_14935" x1="346.613" y1="350.431" x2="481.713" y2="350.431" gradientUnits="userSpaceOnUse">
<stop stop-color="#F4A046"/>
<stop offset="1" stop-color="#F09123"/>
</linearGradient>
<linearGradient id="paint16_linear_7754_14935" x1="1982.64" y1="-603.149" x2="2092.01" y2="-666.388" gradientUnits="userSpaceOnUse">
<stop stop-color="#5761D7"/>
<stop offset="0.18" stop-color="#5B65D8"/>
<stop offset="0.39" stop-color="#6A72DE"/>
<stop offset="0.61" stop-color="#8188E8"/>
<stop offset="0.85" stop-color="#A2A6F5"/>
<stop offset="1" stop-color="#BCBEFF"/>
</linearGradient>
<radialGradient id="paint17_radial_7754_14935" cx="0" cy="0" r="1" gradientUnits="userSpaceOnUse" gradientTransform="translate(371.837 307.373) scale(52.2061 52.1288)">
<stop stop-color="#2B237C"/>
<stop offset="1" stop-color="#180D5B"/>
</radialGradient>
<linearGradient id="paint18_linear_7754_14935" x1="389.5" y1="234.895" x2="445.5" y2="420.895" gradientUnits="userSpaceOnUse">
<stop stop-color="#E5EDF3"/>
<stop offset="1" stop-color="#1F232A"/>
</linearGradient>
<linearGradient id="paint19_linear_7754_14935" x1="310.334" y1="396.741" x2="360.208" y2="396.741" gradientUnits="userSpaceOnUse">
<stop stop-color="#F09123"/>
<stop offset="1" stop-color="#F4A046"/>
</linearGradient>
<clipPath id="clip0_7754_14935">
<rect width="464" height="383" fill="white" transform="translate(99 94.8945)"/>
</clipPath>
<clipPath id="clip1_7754_14935">
<rect width="301.698" height="299.413" fill="white" transform="translate(180.016 122.832)"/>
</clipPath>
</defs>
</svg>
