<svg width="634" height="476" viewBox="0 0 634 476" fill="none" xmlns="http://www.w3.org/2000/svg">
<path opacity="0.4" d="M211.516 403.453C115.674 404.349 62.527 405.693 19.9576 351.361C-16.5306 280.225 -4.74296 200.926 69.9028 123.894C201.255 -11.6569 377.524 -12.7357 505.259 13.0451C613.494 34.89 643.863 134.679 601.902 290.394C559.941 446.109 331.319 402.333 211.516 403.453Z" fill="url(#paint0_linear_7754_15548)"/>
<path opacity="0.3" d="M308.859 390.049L198.981 370.578C199.987 368.066 200.524 365.46 200.524 362.787C200.524 341.272 166.018 323.819 123.462 323.819C80.9063 323.819 46.3867 341.259 46.3867 362.787C46.3867 384.316 80.8929 401.755 123.449 401.755C149.462 401.755 172.444 395.234 186.41 385.251L305.948 406.94C308.765 407.408 311.623 406.446 313.581 404.388C318.304 399.443 315.607 391.251 308.859 390.049Z" fill="#2A2E39"/>
<path d="M108.531 378.601C73.7423 378.601 45.5469 364.237 45.5469 346.521V362.365C45.5469 380.081 73.7423 394.445 108.531 394.445C143.319 394.445 171.515 380.081 171.515 362.365V346.521C171.515 364.237 143.319 378.601 108.531 378.601Z" fill="url(#paint1_linear_7754_15548)"/>
<path d="M108.277 378.842C143.053 378.842 171.244 364.471 171.244 346.743C171.244 329.015 143.053 314.644 108.277 314.644C73.5016 314.644 45.3105 329.015 45.3105 346.743C45.3105 364.471 73.5016 378.842 108.277 378.842Z" fill="url(#paint2_linear_7754_15548)"/>
<path d="M116.781 322.748C99.3162 311.622 90.5913 294.046 97.2889 283.462C96.8234 284.199 90.9367 293.475 90.6363 293.941C83.9237 304.511 92.6636 322.101 110.128 333.227C127.593 344.353 147.191 344.789 153.903 334.204C154.204 333.738 160.09 324.447 160.556 323.725C153.843 334.294 134.246 333.858 116.781 322.748Z" fill="url(#paint3_linear_7754_15548)"/>
<path d="M322.019 383.037L181.339 300.856L173.2 309.156L169.16 320.056L303.247 412.625C309.93 417.331 319.916 414.264 325.248 405.859C330.579 397.455 329.107 387.096 322.019 383.037Z" fill="url(#paint4_linear_7754_15548)"/>
<path d="M134.273 293.879C148.494 302.93 155.597 317.258 150.146 325.873C144.68 334.488 128.732 334.127 114.495 325.076C100.274 316.025 93.1711 301.697 98.6223 293.082C104.089 284.467 120.037 284.828 134.273 293.879Z" fill="#747474"/>
<path d="M167.712 241.228C150.848 230.493 133.834 232.402 124.673 239.198C120.138 242.566 116.609 242.505 104.43 261.645C96.7415 273.718 96.0207 279.386 94.9995 285.791C93.0173 298.164 97.0268 313.951 114.492 325.076C131.957 336.202 149.376 334.984 158.852 326.805C163.823 322.506 165.655 321.002 175.236 305.967C184.516 291.384 187.249 280.453 187.249 280.453C193.887 269.869 185.177 252.323 167.727 241.228H167.712Z" fill="url(#paint5_linear_7754_15548)"/>
<path d="M136.311 219.657C134.104 223.145 130.635 228.633 128.427 232.121C121.715 242.691 130.455 260.281 147.919 271.407C165.384 282.533 184.982 282.969 191.694 272.384C193.902 268.896 197.371 263.409 199.578 259.921C206.291 249.351 197.551 231.76 180.086 220.635C162.621 209.509 143.024 209.073 136.311 219.657Z" fill="url(#paint6_linear_7754_15548)"/>
<path d="M154.574 261.93C137.109 250.805 128.384 233.229 135.082 222.645C134.616 223.381 128.73 232.658 128.429 233.124C121.717 243.693 130.441 261.284 147.921 272.41C165.386 283.535 184.983 283.971 191.696 273.387C191.996 272.921 197.883 263.629 198.349 262.908C191.636 273.477 172.039 273.041 154.574 261.93Z" fill="url(#paint7_linear_7754_15548)"/>
<path d="M179.403 292.687L160.945 321.772L167.004 325.626L185.462 296.541L179.403 292.687Z" fill="url(#paint8_linear_7754_15548)"/>
<path d="M193.466 301.631L175.008 330.717L186.314 337.909L204.772 308.823L193.466 301.631Z" fill="url(#paint9_linear_7754_15548)"/>
<path d="M258.454 342.962L239.996 372.048L251.302 379.24L269.76 350.154L258.454 342.962Z" fill="url(#paint10_linear_7754_15548)"/>
<path opacity="0.3" d="M438.59 417.731C468.904 417.731 493.478 403.663 493.478 386.308C493.478 368.954 468.904 354.886 438.59 354.886C408.277 354.886 383.703 368.954 383.703 386.308C383.703 403.663 408.277 417.731 438.59 417.731Z" fill="#747474" fill-opacity="0.2"/>
<path d="M438.593 398.093C413.769 398.093 393.646 387.869 393.646 375.24V382.908C393.646 395.522 413.769 405.761 438.593 405.761C463.416 405.761 483.539 395.537 483.539 382.908V375.24C483.539 387.854 463.416 398.093 438.593 398.093Z" fill="url(#paint11_linear_7754_15548)"/>
<path d="M438.593 398.212C463.416 398.212 483.539 387.98 483.539 375.359C483.539 362.737 463.416 352.506 438.593 352.506C413.77 352.506 393.646 362.737 393.646 375.359C393.646 387.98 413.77 398.212 438.593 398.212Z" fill="url(#paint12_linear_7754_15548)"/>
<path d="M486.285 284.526V284.587V287.744C486.285 308.206 508.495 335.554 540.271 335.554C572.048 335.554 594.258 308.206 594.258 287.744V284.587V284.526V281.369H486.285V284.526Z" fill="url(#paint13_linear_7754_15548)"/>
<path d="M540.271 309.452C570.087 309.452 594.258 296.878 594.258 281.367C594.258 265.856 570.087 253.282 540.271 253.282C510.456 253.282 486.285 265.856 486.285 281.367C486.285 296.878 510.456 309.452 540.271 309.452Z" fill="#A1A1A1"/>
<path d="M540.273 307.258C567.75 307.258 590.025 295.667 590.025 281.368C590.025 267.07 567.75 255.479 540.273 255.479C512.796 255.479 490.521 267.07 490.521 281.368C490.521 295.667 512.796 307.258 540.273 307.258Z" fill="url(#paint14_linear_7754_15548)"/>
<path d="M507.428 299.815C516.198 303.424 527.671 306.355 540.27 306.355C552.869 306.355 564.568 303.378 573.368 299.71C562.555 295.681 549.4 291.576 540.27 291.366C530.839 291.155 517.79 295.545 507.428 299.815Z" fill="#2F3137"/>
<path d="M591.269 275.4C585.187 251.569 540.241 181.598 540.241 181.598C540.241 181.598 494.664 251.554 488.582 275.4" stroke="#393939" stroke-width="1.7882" stroke-linecap="round" stroke-linejoin="round"/>
<path d="M535.844 307.98L540.274 181.598L544.208 254.411" stroke="#393939" stroke-width="1.7882" stroke-linecap="round" stroke-linejoin="round"/>
<path d="M429.295 274.076C429.295 275.038 429.295 371.426 429.295 372.389C429.295 375.29 433.455 377.651 438.59 377.651C443.726 377.651 447.901 375.305 447.901 372.404C447.901 371.441 447.901 275.053 447.901 274.091C447.901 271.19 443.741 268.829 438.605 268.829C433.47 268.829 429.295 271.175 429.295 274.076Z" fill="url(#paint15_linear_7754_15548)"/>
<path d="M428.725 273.896C428.725 272.558 428.725 273.745 428.725 277.113C428.725 280.195 433.14 282.691 438.591 282.706C444.042 282.706 448.472 280.21 448.472 277.128C448.472 276.106 448.472 274.918 448.472 273.911C448.472 270.829 444.057 268.844 438.606 268.829C433.155 268.829 428.725 270.814 428.725 273.896Z" fill="#747474"/>
<path d="M434.854 268.738V282.285C434.448 282.194 434.058 282.089 433.697 281.969V269.054C434.088 268.934 434.463 268.828 434.854 268.738Z" fill="#A1A1A1"/>
<path d="M444.642 269.49C446.174 270.167 447.345 271.084 447.976 272.151V278.887C447.345 279.954 446.159 280.872 444.627 281.548V269.505L444.642 269.49Z" fill="#393939"/>
<path d="M428.725 274.272C428.725 275.596 428.725 276.197 428.725 277.114C428.725 278.693 429.896 280.136 431.773 281.143V278.302C429.896 277.279 428.725 275.851 428.725 274.272Z" fill="#A1A1A1"/>
<path d="M438.591 279.849C433.14 279.849 428.71 277.338 428.725 274.256C428.725 274.466 428.725 276.541 428.725 276.676C428.725 279.759 433.14 282.254 438.591 282.269C444.042 282.269 448.472 279.774 448.472 276.691C448.472 276.556 448.472 274.481 448.472 274.271C448.472 277.353 444.042 279.849 438.591 279.849Z" fill="#BBBBBB"/>
<path d="M433.711 281.534V279.113C434.071 279.234 434.462 279.339 434.852 279.429V281.85C434.462 281.759 434.086 281.654 433.711 281.534Z" fill="#D8D8D8"/>
<path d="M442.871 281.729C442.331 281.88 441.775 282 441.189 282.075V279.654C441.775 279.564 442.346 279.444 442.886 279.309V281.729H442.871Z" fill="#AFAFAF"/>
<path d="M432.749 281.188V278.768C430.316 277.745 428.725 276.107 428.725 274.272C428.725 274.483 428.725 276.513 428.725 276.648C428.725 278.497 430.301 280.181 432.749 281.188Z" fill="#D8D8D8"/>
<path d="M438.606 266.845C444.057 266.845 448.487 270.829 448.472 273.911C448.457 276.993 444.042 279.489 438.591 279.489C433.14 279.489 428.71 276.978 428.725 273.896C428.725 270.814 433.155 266.845 438.606 266.845Z" fill="#A1A1A1"/>
<path d="M444.63 278.692C446.162 278.016 447.348 277.099 447.964 276.031V278.452C447.333 279.519 446.162 280.436 444.615 281.113V278.692H444.63Z" fill="#AFAFAF"/>
<path d="M429.31 233.196C429.31 234.159 429.295 272.618 429.295 273.58C429.295 276.481 433.455 278.842 438.59 278.842C443.726 278.842 447.901 276.496 447.901 273.595C447.901 272.633 447.916 234.174 447.916 233.211C447.916 230.31 443.756 227.949 438.621 227.949C433.485 227.949 429.31 230.295 429.31 233.196Z" fill="url(#paint16_linear_7754_15548)"/>
<path d="M428.74 230.115C428.74 228.777 428.74 229.965 428.74 233.332C428.74 236.415 433.155 238.91 438.606 238.925C444.058 238.925 448.488 236.43 448.488 233.347C448.488 232.325 448.488 231.137 448.488 230.13C448.488 227.048 444.073 224.552 438.621 224.537C433.17 224.537 428.74 227.033 428.74 230.115Z" fill="#747474"/>
<path d="M434.883 224.957V238.503C434.477 238.413 434.087 238.308 433.727 238.188V225.273C434.117 225.152 434.492 225.047 434.883 224.957Z" fill="#A1A1A1"/>
<path d="M444.671 225.709C446.203 226.386 447.374 227.303 448.005 228.37V235.106C447.374 236.173 446.188 237.09 444.656 237.767V225.724L444.671 225.709Z" fill="#393939"/>
<path d="M428.74 230.506C428.74 231.829 428.74 232.43 428.74 233.347C428.74 234.941 429.912 236.369 431.789 237.377V234.535C429.912 233.513 428.74 232.085 428.74 230.506Z" fill="#A1A1A1"/>
<path d="M438.624 236.084C433.173 236.084 428.743 233.573 428.758 230.491C428.758 230.702 428.758 232.776 428.758 232.912C428.758 235.994 433.173 238.49 438.624 238.505C444.075 238.505 448.505 236.009 448.505 232.927C448.505 232.792 448.505 230.717 448.505 230.506C448.505 233.588 444.075 236.084 438.624 236.084Z" fill="#BBBBBB"/>
<path d="M433.727 237.766V235.346C434.087 235.466 434.477 235.571 434.868 235.661V238.082C434.477 237.992 434.102 237.887 433.727 237.766Z" fill="#D8D8D8"/>
<path d="M442.901 237.947C442.36 238.097 441.804 238.218 441.219 238.293V235.872C441.804 235.782 442.375 235.662 442.916 235.526V237.947H442.901Z" fill="#AFAFAF"/>
<path d="M432.765 237.407V234.987C430.332 233.964 428.74 232.325 428.74 230.491C428.74 230.702 428.74 232.731 428.74 232.867C428.74 234.716 430.317 236.4 432.765 237.407Z" fill="#D8D8D8"/>
<path d="M438.639 224.553C444.09 224.553 448.52 227.064 448.505 230.146C448.505 233.228 444.075 235.724 438.624 235.724C433.173 235.724 428.743 233.213 428.758 230.131C428.758 227.049 433.188 224.553 438.639 224.553Z" fill="#A1A1A1"/>
<path d="M444.656 234.911C446.187 234.235 447.374 233.317 447.989 232.25V234.671C447.359 235.738 446.187 236.655 444.641 237.332V234.911H444.656Z" fill="#AFAFAF"/>
<path d="M429.343 182.093C429.343 183.055 429.328 228.881 429.328 229.828C429.328 232.73 433.488 235.09 438.624 235.09C443.76 235.09 447.934 232.745 447.934 229.843C447.934 228.881 447.949 183.055 447.949 182.108C447.949 179.206 443.79 176.846 438.654 176.846C433.518 176.846 429.343 179.191 429.343 182.093Z" fill="url(#paint17_linear_7754_15548)"/>
<path d="M283.057 284.526V284.587V287.744C283.057 308.206 305.267 335.554 337.043 335.554C368.819 335.554 391.029 308.206 391.029 287.744V284.587V284.526V281.369H283.057V284.526Z" fill="url(#paint18_linear_7754_15548)"/>
<path d="M336.955 309.452C366.771 309.452 390.941 296.878 390.941 281.367C390.941 265.856 366.771 253.282 336.955 253.282C307.139 253.282 282.969 265.856 282.969 281.367C282.969 296.878 307.139 309.452 336.955 309.452Z" fill="#A1A1A1"/>
<path d="M337.044 307.258C364.521 307.258 386.796 295.667 386.796 281.368C386.796 267.07 364.521 255.479 337.044 255.479C309.567 255.479 287.293 267.07 287.293 281.368C287.293 295.667 309.567 307.258 337.044 307.258Z" fill="url(#paint19_linear_7754_15548)"/>
<path d="M304.199 299.815C312.969 303.424 324.442 306.355 337.042 306.355C349.641 306.355 361.339 303.378 370.139 299.71C359.327 295.681 346.172 291.576 337.042 291.366C327.611 291.155 314.561 295.545 304.199 299.815Z" fill="#2F3137"/>
<path d="M387.954 275.4C381.872 251.569 336.926 181.598 336.926 181.598C336.926 181.598 291.349 251.554 285.268 275.4" stroke="#393939" stroke-width="1.7882" stroke-linecap="round" stroke-linejoin="round"/>
<path d="M332.525 307.98L336.955 181.598L340.89 254.411" stroke="#393939" stroke-width="1.7882" stroke-linecap="round" stroke-linejoin="round"/>
<path fill-rule="evenodd" clip-rule="evenodd" d="M327.885 186.258H438.605H438.606H549.341V179.252L438.606 167.435H438.605L327.885 179.252V186.258Z" fill="url(#paint20_linear_7754_15548)"/>
<path d="M468.423 97.7811C468.423 84.8718 457.966 68.3664 445.068 60.9125C438.205 56.9478 432.034 56.344 427.761 58.5935L418.393 63.9706L422.101 76.4793C423.804 92.0122 430.998 124.282 440.19 137.503L443.049 147.153L451.305 142.601C451.432 142.536 451.556 142.465 451.681 142.394L451.805 142.324V142.321C461.419 136.522 468.425 108.348 468.425 97.7811H468.423ZM445.066 98.4045C444.87 98.2923 444.676 98.1748 444.482 98.0536C440.161 95.3517 437.079 91.0522 435.671 86.1524L434.559 82.2767C432.801 76.1551 439.339 70.9418 444.886 74.0659C444.947 74.0997 445.005 74.1336 445.066 74.1674C451.755 78.0324 457.174 86.5905 457.174 93.2821C457.174 99.9737 451.755 102.269 445.066 98.4045Z" fill="#5A370F"/>
<path d="M437.329 65.219C424.434 57.7669 413.977 62.1876 413.977 75.0969C413.977 88.0063 424.434 139.298 437.329 146.749C450.228 154.202 460.685 114.995 460.685 102.086C460.685 89.1765 450.228 72.6711 437.329 65.2172V65.219ZM437.329 102.711C430.643 98.8478 425.224 90.2897 425.224 83.5981C425.224 76.9065 430.643 74.6107 437.329 78.4739C444.019 82.3389 449.438 90.897 449.438 97.5886C449.438 104.28 444.019 106.576 437.329 102.711Z" fill="url(#paint21_linear_7754_15548)"/>
<defs>
<linearGradient id="paint0_linear_7754_15548" x1="317.902" y1="-2.10596" x2="317.902" y2="405.894" gradientUnits="userSpaceOnUse">
<stop stop-color="#E5EDF3" stop-opacity="0.5"/>
<stop offset="1" stop-color="#1F232A" stop-opacity="0"/>
</linearGradient>
<linearGradient id="paint1_linear_7754_15548" x1="108.531" y1="319.616" x2="124.102" y2="397.38" gradientUnits="userSpaceOnUse">
<stop stop-color="#BBBBBB"/>
<stop offset="1" stop-color="#16171D"/>
</linearGradient>
<linearGradient id="paint2_linear_7754_15548" x1="114.411" y1="355.349" x2="42.1892" y2="355.768" gradientUnits="userSpaceOnUse">
<stop stop-color="#2E3034"/>
<stop offset="1" stop-color="#DADADA"/>
</linearGradient>
<linearGradient id="paint3_linear_7754_15548" x1="124.465" y1="283.462" x2="124.465" y2="341.866" gradientUnits="userSpaceOnUse">
<stop stop-color="#BBBBBB"/>
<stop offset="1" stop-color="#11151A"/>
</linearGradient>
<linearGradient id="paint4_linear_7754_15548" x1="239.541" y1="369.221" x2="256.788" y2="338.55" gradientUnits="userSpaceOnUse">
<stop stop-color="#191B1E"/>
<stop offset="1" stop-color="#9F9F9F"/>
</linearGradient>
<linearGradient id="paint5_linear_7754_15548" x1="172.355" y1="307.004" x2="100.927" y2="262.938" gradientUnits="userSpaceOnUse">
<stop stop-color="#0A0E12"/>
<stop offset="1" stop-color="#DADADA"/>
</linearGradient>
<linearGradient id="paint6_linear_7754_15548" x1="178.621" y1="221.862" x2="134.043" y2="284.871" gradientUnits="userSpaceOnUse">
<stop stop-color="#14171A"/>
<stop offset="1" stop-color="#DADADA"/>
</linearGradient>
<linearGradient id="paint7_linear_7754_15548" x1="129.945" y1="230.073" x2="191.303" y2="277.086" gradientUnits="userSpaceOnUse">
<stop stop-color="#BBBBBB"/>
<stop offset="1" stop-color="#181B1D"/>
</linearGradient>
<linearGradient id="paint8_linear_7754_15548" x1="182.433" y1="294.614" x2="163.944" y2="323.68" gradientUnits="userSpaceOnUse">
<stop stop-color="#BBBBBB"/>
<stop offset="1" stop-color="#555555"/>
</linearGradient>
<linearGradient id="paint9_linear_7754_15548" x1="199.119" y1="305.227" x2="180.63" y2="334.293" gradientUnits="userSpaceOnUse">
<stop stop-color="#BBBBBB"/>
<stop offset="1" stop-color="#555555"/>
</linearGradient>
<linearGradient id="paint10_linear_7754_15548" x1="264.107" y1="346.558" x2="245.618" y2="375.624" gradientUnits="userSpaceOnUse">
<stop stop-color="#BBBBBB"/>
<stop offset="1" stop-color="#555555"/>
</linearGradient>
<linearGradient id="paint11_linear_7754_15548" x1="438.593" y1="375.24" x2="438.593" y2="405.761" gradientUnits="userSpaceOnUse">
<stop stop-color="#BBBBBB"/>
<stop offset="1" stop-color="#555555"/>
</linearGradient>
<linearGradient id="paint12_linear_7754_15548" x1="438.193" y1="402.137" x2="438.193" y2="349.168" gradientUnits="userSpaceOnUse">
<stop stop-color="#A1A1A1"/>
<stop offset="1" stop-color="#0D0D10"/>
</linearGradient>
<linearGradient id="paint13_linear_7754_15548" x1="538.127" y1="351.27" x2="540.653" y2="286.951" gradientUnits="userSpaceOnUse">
<stop stop-color="#494141" stop-opacity="0.06"/>
<stop offset="1" stop-color="#DADADA"/>
</linearGradient>
<linearGradient id="paint14_linear_7754_15548" x1="540.648" y1="299.562" x2="540.648" y2="253.319" gradientUnits="userSpaceOnUse">
<stop stop-color="#4F5154"/>
<stop offset="1" stop-color="#DADADA"/>
</linearGradient>
<linearGradient id="paint15_linear_7754_15548" x1="450.788" y1="327.307" x2="428.954" y2="328.146" gradientUnits="userSpaceOnUse">
<stop stop-color="#393939"/>
<stop offset="1" stop-color="#9F9F9F"/>
</linearGradient>
<linearGradient id="paint16_linear_7754_15548" x1="448.269" y1="260.046" x2="431.053" y2="259.626" gradientUnits="userSpaceOnUse">
<stop stop-color="#393939"/>
<stop offset="1" stop-color="#9F9F9F"/>
</linearGradient>
<linearGradient id="paint17_linear_7754_15548" x1="451.212" y1="205.816" x2="428.956" y2="209.171" gradientUnits="userSpaceOnUse">
<stop stop-color="#393939"/>
<stop offset="1" stop-color="#9F9F9F"/>
</linearGradient>
<linearGradient id="paint18_linear_7754_15548" x1="334.899" y1="351.27" x2="337.424" y2="286.951" gradientUnits="userSpaceOnUse">
<stop stop-color="#494141" stop-opacity="0.06"/>
<stop offset="1" stop-color="#DADADA"/>
</linearGradient>
<linearGradient id="paint19_linear_7754_15548" x1="337.419" y1="299.562" x2="337.419" y2="253.319" gradientUnits="userSpaceOnUse">
<stop stop-color="#4F5154"/>
<stop offset="1" stop-color="#DADADA"/>
</linearGradient>
<linearGradient id="paint20_linear_7754_15548" x1="439.032" y1="167.14" x2="439.032" y2="191.943" gradientUnits="userSpaceOnUse">
<stop stop-color="#373737"/>
<stop offset="1" stop-color="#9D9D9D"/>
</linearGradient>
<linearGradient id="paint21_linear_7754_15548" x1="436.886" y1="98.2287" x2="437.332" y2="147.683" gradientUnits="userSpaceOnUse">
<stop stop-color="#F09123"/>
<stop offset="1" stop-color="#8A5314"/>
</linearGradient>
</defs>
</svg>
