<svg width="441" height="524" viewBox="0 0 441 524" fill="none" xmlns="http://www.w3.org/2000/svg">
<path d="M51.4699 64.4956C51.4699 64.4956 -10.289 113.895 1.49471 182.431C13.2784 250.968 41.0774 229.352 98 273.395C154.923 317.437 188.272 348.601 246.5 314.895C304.728 281.188 364.96 288.001 397.931 227.219C430.903 166.447 452.308 153.563 434.652 90.6747C417.008 27.7973 311.338 -11.9358 206.104 4.68534C100.857 21.3065 51.4699 64.4956 51.4699 64.4956Z" fill="url(#paint0_linear_7754_14593)"/>
<g clip-path="url(#clip0_7754_14593)">
<path d="M125.565 362.544C71.4751 390.076 71.4814 434.713 125.565 462.245C179.655 489.778 267.351 489.778 321.435 462.245C375.525 434.713 375.519 390.076 321.435 362.544C267.345 335.011 179.649 335.011 125.565 362.544Z" fill="url(#paint1_linear_7754_14593)"/>
<path d="M134.01 103.921C133.92 101.621 134.47 100.201 135.5 99.6414C135.5 99.6214 135.48 99.6214 135.48 99.6214L135.62 99.5314C136.71 99.0414 143.92 94.7514 144.95 94.2014C144.95 94.1814 144.93 94.1814 144.93 94.1814L145.07 94.0914C146.16 93.6014 147.77 94.0714 149.69 95.5314C168.93 110.261 195.41 113.851 215.57 104.981C218.34 102.931 220.91 100.591 223.21 97.9114C223.33 97.7714 223.44 97.6314 223.56 97.5214H223.58C224.23 96.8014 224.88 96.2614 225.53 95.9214C225.53 95.9214 234.32 90.8214 234.97 90.4714L235.3 90.2814C237.46 89.2614 239.44 90.3014 240.74 93.5114C259.01 138.901 297.94 184.901 323.9 196.411C325.83 197.271 327.62 198.591 329.01 200.221C330.85 202.341 331.98 204.941 331.89 207.661C331.89 266.021 299.92 359.301 239.34 390.451C235.75 392.791 232.05 394.911 228.23 396.791C144.88 310.831 134.02 173.111 134.02 103.941L134.01 103.921Z" fill="#F09123"/>
<path d="M134.46 103.922C134.46 173.092 145.32 310.812 228.67 396.772C290.34 366.492 322.89 272.002 322.89 213.092C322.98 210.372 321.84 207.772 320.01 205.652C318.62 204.022 316.83 202.702 314.9 201.842C288.94 190.332 250.01 144.342 231.74 98.9421C230.44 95.7321 228.46 94.6921 226.3 95.7121L225.97 95.9021C225.32 96.2521 224.67 96.7821 224.02 97.5021H224C223.88 97.6221 223.77 97.7621 223.65 97.9021C204.27 120.472 166.15 120.452 140.7 100.972C138.77 99.5121 137.17 99.0421 136.07 99.5321L135.93 99.6221C135.93 99.6221 135.95 99.6221 135.95 99.6421C134.93 100.202 134.37 101.622 134.46 103.922Z" fill="#FF8900"/>
<path opacity="0.4" d="M134.026 103.922C134.026 173.092 144.886 310.812 228.236 396.772C289.906 366.492 322.456 272.002 322.456 213.092C322.546 210.372 321.406 207.772 319.576 205.652C318.186 204.022 316.396 202.702 314.466 201.842C288.506 190.332 249.576 144.342 231.306 98.9421C230.006 95.7321 228.026 94.6921 225.866 95.7121L225.536 95.9021C224.886 96.2521 224.236 96.7821 223.586 97.5021H223.566C223.446 97.6221 223.336 97.7621 223.216 97.9021C203.836 120.472 165.716 120.452 140.266 100.972C138.336 99.5121 136.736 99.0421 135.636 99.5321L135.496 99.6221C135.496 99.6221 135.516 99.6221 135.516 99.6421C134.496 100.202 133.936 101.622 134.026 103.922Z" fill="white"/>
<path opacity="0.25" d="M225.916 95.8117C228.076 94.7917 230.056 95.8317 231.356 99.0417C249.626 144.432 288.556 190.432 314.516 201.942C316.446 202.802 318.236 204.122 319.626 205.752C321.466 207.872 322.606 210.472 322.506 213.192C322.506 272.092 289.956 366.592 228.286 396.872C201.986 239.672 225.906 95.8217 225.906 95.8217L225.916 95.8117Z" fill="#F4A046"/>
<path opacity="0.1" d="M301.251 328.125C300.831 327.505 300.051 327.295 299.431 327.715L296.831 329.425L294.941 334.535C294.741 335.085 294.941 335.635 295.401 335.925L300.761 339.015C300.341 338.725 300.171 338.195 300.361 337.655L302.681 331.375C302.931 330.685 302.661 329.755 302.151 329.215C301.831 328.885 301.531 328.525 301.261 328.135L301.251 328.125ZM317.061 335.955C316.871 335.845 316.711 335.645 316.621 335.365L315.461 331.515C315.251 330.805 314.531 330.495 313.841 330.775C313.131 331.075 312.421 331.305 311.731 331.475C311.521 331.525 311.281 331.625 311.061 331.755L311.211 332.255C311.311 332.545 311.461 332.745 311.661 332.845L317.061 335.965V335.955Z" fill="black"/>
<path opacity="0.1" d="M318.25 319.875C313.44 323.655 308.82 323.295 307 319.355C308.78 319.215 310.79 318.355 312.84 316.755C318.41 312.375 322.11 304.085 321.1 298.235C320.95 297.405 320.74 296.695 320.45 296.095C323.51 295.825 325.87 297.665 326.51 301.355C327.52 307.215 323.82 315.495 318.25 319.875Z" fill="black"/>
</g>
<defs>
<linearGradient id="paint0_linear_7754_14593" x1="220.5" y1="0.894531" x2="225.5" y2="257.395" gradientUnits="userSpaceOnUse">
<stop stop-color="#E5EDF3" stop-opacity="0.2"/>
<stop offset="1" stop-color="#1F232A" stop-opacity="0"/>
</linearGradient>
<linearGradient id="paint1_linear_7754_14593" x1="223.5" y1="341.895" x2="223.5" y2="482.895" gradientUnits="userSpaceOnUse">
<stop stop-color="#E5EDF3" stop-opacity="0.2"/>
<stop offset="1" stop-color="#1F232A" stop-opacity="0"/>
</linearGradient>
<clipPath id="clip0_7754_14593">
<rect width="290" height="434" fill="white" transform="translate(72 89.8945)"/>
</clipPath>
</defs>
</svg>
