<svg width="647" height="491" viewBox="0 0 647 491" fill="none" xmlns="http://www.w3.org/2000/svg">
<path opacity="0.4" d="M237.516 403.453C141.674 404.349 88.527 405.693 45.9576 351.361C9.46943 280.225 21.257 200.926 95.9028 123.894C227.255 -11.6569 403.524 -12.7357 531.259 13.0451C639.494 34.89 669.863 134.679 627.902 290.394C585.941 446.109 357.319 402.333 237.516 403.453Z" fill="url(#paint0_linear_7754_15554)"/>
<g opacity="0.8">
<path d="M126.987 321.457C123.696 320.141 108.969 315.698 107.46 314.957C103.292 312.818 106.994 300.806 96.8743 293.813C88.9485 288.328 84.5605 280.813 81.7082 278.948C74.7697 274.451 70.656 275.904 71.2319 279.881C71.8079 283.885 80.5564 297.543 80.5564 297.543C80.5564 297.543 72.6032 297.131 62.8947 298.393C53.1862 299.654 25.4869 294.773 22.2781 296.254C19.0694 297.734 16.6559 302.452 16.6559 302.452C16.6559 302.452 5.0826 300.998 1.98356 304.646C-1.08805 308.293 1.6544 313.175 8.94948 313.943C8.94948 313.943 6.53608 319.51 11.4452 321.43C16.3543 323.322 19.6727 324.063 19.6727 324.063C19.6727 324.063 15.4767 326.476 18.3289 329.218C21.2085 331.988 36.1552 336.349 50.9922 335.773C62.0445 335.334 60.7555 335.609 67.9683 336.239C70.1075 336.431 81.1323 335.663 88.4 336.843C99.7265 338.708 108.996 342.876 115.715 344.055C119.884 336.568 124.464 329.164 126.987 321.43V321.457Z" fill="#FEFEFE"/>
<path d="M333.632 267.87C333.413 264.497 332.892 248.151 332.892 248.151C332.892 248.151 316.437 251.772 295.978 263.098C281.058 271.353 256.074 293.375 245.159 304.126C234.244 314.877 203.144 340.327 203.144 340.327L110.611 313.615C110.611 313.615 111.626 319.237 108.801 327.849C105.565 337.777 101.342 342.878 101.342 342.878C101.342 342.878 204.405 397.262 216.5 391.118C228.594 385.003 284.377 357.907 311.445 330.262C338.514 302.618 333.66 267.87 333.66 267.87H333.632Z" fill="#F09123"/>
<path d="M365.78 276.783C391.285 278.044 402.804 280.622 417.038 252.703C433.41 220.561 386.376 106.583 386.376 106.583L393.397 77.5668C389.037 74.7969 368.632 83.0793 368.632 83.0793C361.036 77.3474 341.207 80.0625 331.992 87.6593C303.278 111.355 307.063 156.167 333.199 166.013C336.024 167.082 352.506 193.877 343.154 223.249C328.372 269.625 333.281 283.749 365.78 276.783Z" fill="#3C434A"/>
<path d="M402.739 304.81C435.896 316.494 517.266 319.812 503.087 253.663C497.191 226.1 475.498 204.325 457.918 184.25C452.104 177.585 446.564 159.074 446.537 153.15C446.454 132.745 444.178 111.683 436.06 97.9704C421.662 73.6444 393.387 77.5661 393.387 77.5661L361.327 97.5865C361.327 97.5865 359.215 132.389 365.825 176.571C369.308 199.91 357.981 289.041 402.739 304.81Z" fill="#3C434A"/>
<path d="M321.179 323.788C315.996 298.256 314.734 282.733 311.58 256.953C317.476 252.867 345.231 243.844 350.88 238.304C366.238 223.33 363.139 185.621 363.139 185.621L403.701 166.012C403.701 166.012 403.728 223.44 410.365 233.313C420.403 248.26 438.394 251.139 438.394 251.139C438.394 251.139 446.1 286.024 420.019 326.174C402.522 353.106 359.026 369.341 332.286 377.103C328.748 359.304 324.826 341.615 321.179 323.788Z" fill="#D4D3D4"/>
<path d="M335.033 102.989C332.976 112.643 328.122 124.161 326.559 142.454C325.791 151.614 326.751 171.004 329.109 181.974C331.468 192.944 343.809 225.113 361.032 223.248C370.192 222.261 381.518 214.472 386.784 210.688C401.484 200.184 407.079 195.988 410.808 185.374C414.538 174.761 414.648 146.129 411.741 125.505C408.834 104.854 396.191 96.0507 381.244 92.5678C366.297 89.0848 335.005 102.989 335.005 102.989H335.033Z" fill="url(#paint1_linear_7754_15554)"/>
<path d="M386.785 104.936C376.638 105.402 362.898 113.273 344.715 122.433C326.532 131.593 318.223 132.69 318.223 132.69L329.11 103.427C329.11 103.427 348.555 85.6283 365.119 87.8771C381.684 90.126 386.785 104.963 386.785 104.963V104.936Z" fill="#3C434A"/>
<path d="M374.876 102.332C374.876 102.332 357.461 128.304 333.162 132.692C333.162 132.692 367.389 131.622 381.759 113.083L374.876 102.332Z" fill="#343B42"/>
<path d="M406.939 145.307C414.618 149.284 417.717 155.043 425.67 158.334C429.784 138.643 430.744 114.481 398.245 92.6784C377.1 78.4996 365.746 100.111 365.746 100.111C385.053 100.549 381.735 132.308 406.911 145.307H406.939Z" fill="#3C434A"/>
<path d="M289.751 365.996C290.602 369.698 291.726 373.236 292.905 377.021C293.975 380.394 296.032 387.168 297.951 396.218C302.833 419.064 307.002 456.526 292.905 491H456.222C452.903 467.962 450.023 425.673 449.475 409.245C449.009 396.054 458.882 373.84 461.816 353.655C468.481 307.965 461.816 259.861 461.816 259.861L411.93 233.341C411.93 233.341 400.22 248.123 372.74 248.123C352.445 248.123 350.909 238.332 350.909 238.332L308.592 257.612C308.592 257.612 306.535 287.176 298.061 310.131C287.119 339.723 286.927 353.655 289.779 366.023L289.751 365.996Z" fill="url(#paint2_linear_7754_15554)"/>
<path d="M346.536 241.267C346.152 237.317 350.047 230.653 352.241 226.484C354.435 222.316 356.821 226.484 365.789 226.484C374.757 226.484 401.853 221.987 405.555 219.354C409.257 216.721 411.561 215.679 413.783 223.331C416.004 230.982 423.518 229.858 418.445 236.796C413.371 243.735 387.838 253.443 370.039 252.154C352.241 250.865 346.948 245.709 346.536 241.267Z" fill="#242D37"/>
<path d="M379.76 441.169L369.119 433.764C369.119 433.764 348.962 432.475 346.576 433.38C344.217 434.257 331.272 440.565 327.707 443.253C324.142 445.913 320.302 447.997 321.783 449.478C323.264 450.959 330.066 450.658 334.207 448.299C338.348 445.941 341.063 443.993 341.063 443.993C341.063 443.993 346.576 442.622 348.989 441.882C351.594 441.086 370.874 443.856 370.874 443.856L379.76 441.196V441.169Z" fill="#FEFEFE"/>
<path d="M407.686 451.509C407.686 451.509 400.583 453.594 394.385 458.009C388.159 462.452 384.649 463.494 381.66 463.22C377.93 462.891 369.73 461.958 367.673 461.958C365.616 461.958 358.76 465.441 357.279 466.895C355.798 468.376 351.355 472.819 347.214 472.819C343.073 472.819 345.431 467.498 345.431 467.498C345.431 467.498 341.29 472.243 337.752 471.639C334.214 471.036 334.214 468.678 334.214 468.678C334.214 468.678 330.375 471.338 327.989 468.074C325.63 464.811 335.695 451.866 339.233 447.999C342.771 444.159 364.958 434.04 369.099 433.738C373.24 433.436 384.896 434.314 390.518 434.314H399.404L407.686 451.482V451.509Z" fill="#FEFEFE"/>
<path d="M457.677 412.755C457.677 412.755 434.42 423.78 425.178 427.208C415.936 430.636 399.371 434.311 399.371 434.311L405.542 451.863C405.542 451.863 444.019 451.616 460.337 450.327C473.912 449.258 478.41 446.625 478.41 446.625C478.41 446.625 485.02 434.201 476.052 422.299C471.143 415.799 457.649 412.728 457.649 412.728L457.677 412.755Z" fill="#FEFEFE"/>
<path d="M461.823 259.861C465.498 261.699 478.278 267.678 486.972 282.569C497.558 300.697 507.952 328.726 516.564 358.948C532.443 414.703 531.264 426.057 526.354 437.494C521.445 448.93 418.464 458.062 418.464 458.062C418.464 458.062 427.405 457.514 417.751 440.017C411.251 428.224 405.547 431.241 405.547 431.241L476.633 399.894C476.633 399.894 458.56 369.26 445.176 343.974C420.96 298.229 461.823 259.834 461.823 259.834V259.861Z" fill="#F09123"/>
<path d="M405.547 431.241L476.633 399.922" stroke="#F09123" stroke-width="2.58804" stroke-miterlimit="10"/>
<path d="M432.064 318.029L476.603 399.921C476.603 399.921 489.52 398.632 498.241 414.73" stroke="#F09123" stroke-width="2.58804" stroke-miterlimit="10"/>
<path d="M414.644 179.534C425.52 179.534 434.336 166.825 434.336 151.149C434.336 135.472 425.52 122.764 414.644 122.764C403.769 122.764 394.953 135.472 394.953 151.149C394.953 166.825 403.769 179.534 414.644 179.534Z" fill="#212932"/>
<path d="M417.04 175.802C412.24 186.114 403.848 197.304 386.79 202.706C379.742 204.928 370.033 205.75 360.379 205.75C360.379 205.75 360.16 208.795 354.456 208.658C347.846 208.52 346.502 206.162 346.53 203.255C346.585 198.894 350.479 198.291 352.947 198.154C356.266 197.962 359.803 199.196 360.023 201.582C360.023 201.582 373.873 202.542 384.431 199.498C395.95 196.152 409.114 185.374 413.831 173.334L417.04 175.83V175.802Z" fill="#F09123"/>
<path d="M418.455 179.534C429.33 179.534 438.146 166.825 438.146 151.149C438.146 135.472 429.33 122.764 418.455 122.764C407.58 122.764 398.764 135.472 398.764 151.149C398.764 166.825 407.58 179.534 418.455 179.534Z" fill="#F09123"/>
<path d="M411.816 151.149C411.816 158.663 416.04 164.752 421.251 164.752C426.461 164.752 430.685 158.663 430.685 151.149C430.685 143.634 426.461 137.546 421.251 137.546C416.04 137.546 411.816 143.634 411.816 151.149Z" fill="white"/>
<path d="M419.091 130.525L412.262 134.172L410.205 133.075C410.205 133.075 410.562 108.941 396.163 94.5428C381.765 80.1447 368.629 83.1066 368.629 83.1066C368.629 83.1066 368.354 81.9821 370.74 81.2691C373.702 80.3915 379.818 79.9253 384.727 80.1447C393.613 80.556 421.203 85.2457 419.091 130.552V130.525Z" fill="#181711"/>
<path d="M421.148 131.622L412.262 134.173C412.262 134.173 412.673 107.077 398.275 92.6785C383.877 78.2803 370.74 81.2422 370.74 81.2422C370.74 81.2422 377.953 77.8415 386.839 78.2803C395.724 78.6917 423.259 86.3158 421.148 131.649V131.622Z" fill="#F09123"/>
</g>
<defs>
<linearGradient id="paint0_linear_7754_15554" x1="343.902" y1="-2.10596" x2="343.902" y2="405.894" gradientUnits="userSpaceOnUse">
<stop stop-color="#E5EDF3" stop-opacity="0.5"/>
<stop offset="1" stop-color="#1F232A" stop-opacity="0"/>
</linearGradient>
<linearGradient id="paint1_linear_7754_15554" x1="370.302" y1="91.8002" x2="370.039" y2="223.326" gradientUnits="userSpaceOnUse">
<stop stop-color="#C6C6C6"/>
<stop offset="0.395" stop-color="white"/>
</linearGradient>
<linearGradient id="paint2_linear_7754_15554" x1="376.641" y1="382.309" x2="376.641" y2="491.072" gradientUnits="userSpaceOnUse">
<stop stop-color="#F09123"/>
<stop offset="0.976979" stop-color="#8A5314" stop-opacity="0"/>
</linearGradient>
</defs>
</svg>
