<svg width="748" height="379" viewBox="0 0 748 379" fill="none" xmlns="http://www.w3.org/2000/svg">
<g clip-path="url(#clip0_7413_14252)">
<path opacity="0.3" d="M277.766 144.515L113.372 150.914C99.9676 151.435 88.957 160.235 88.957 170.558C88.957 180.881 99.9676 188.6 113.372 187.807L277.766 178.079C288.709 177.433 297.473 169.487 297.473 160.328C297.473 151.17 288.709 144.083 277.766 144.512V144.515Z" fill="#3B3938"/>
<path d="M284.436 50.9529L93.7368 47.9341C77.7522 47.6815 64.5723 58.2823 64.5723 71.6205C64.5723 84.9587 77.7522 95.6044 93.7368 95.4093L284.436 93.0589C296.788 92.9054 306.653 83.5005 306.653 72.0458C306.653 60.5912 296.788 51.1511 284.436 50.9529Z" fill="#3B3938"/>
<path d="M220.825 104.845L65.173 109.363C52.5162 109.731 42.125 118.164 42.125 128.192C42.125 138.22 52.5162 145.841 65.173 145.217L220.825 137.549C231.213 137.037 239.538 129.391 239.538 120.463C239.538 111.534 231.213 104.541 220.825 104.841V104.845Z" fill="url(#paint0_linear_7413_14252)" fill-opacity="0.2"/>
<path d="M669.901 95.6864L556.904 97.7235C547.713 97.8897 540.162 106.201 540.162 116.284C540.162 126.367 547.71 134.192 556.904 133.766L669.901 128.547C677.439 128.199 683.479 120.649 683.479 111.682C683.479 102.715 677.439 95.5521 669.901 95.6864Z" fill="#2D2F38"/>
<path opacity="0.5" d="M641.538 143.006L558.451 147.758C551.872 148.135 546.49 154.288 546.49 161.499C546.49 168.71 551.872 174.14 558.451 173.632L641.538 167.198C647.231 166.756 651.807 161.032 651.807 154.41C651.807 147.787 647.231 142.68 641.538 143.003V143.006Z" fill="#3B3938"/>
<path d="M57.1205 71.354C57.1205 84.7466 44.682 95.7696 29.0631 95.9774C13.1394 96.1853 -0.00195312 85.1111 -0.00195312 71.2357C-0.00195312 57.3603 13.1394 46.3373 29.0631 46.6155C44.6788 46.8873 57.1205 57.9615 57.1205 71.354Z" fill="#3B3938"/>
<path d="M289.939 188.012L93.5725 202.438C77.084 203.65 63.4805 215.632 63.4805 229.181C63.4805 242.73 77.084 252.33 93.5725 250.655L289.939 230.7C302.634 229.411 312.772 218.967 312.772 207.356C312.772 195.744 302.634 187.078 289.939 188.009V188.012Z" fill="#3B3938"/>
<g style="mix-blend-mode:soft-light">
<path d="M115.245 224.835C115.245 235.005 105.204 244.234 92.6498 245.471C79.9096 246.728 69.4414 239.293 69.4414 228.849C69.4414 218.405 79.9096 209.137 92.6498 208.159C105.204 207.196 115.245 214.666 115.245 224.835Z" fill="#EEEEEE"/>
</g>
<path d="M655.227 55.9186L598.13 55.0136C593.708 54.9433 590.098 58.9374 590.098 63.9388C590.098 68.9402 593.708 72.9951 598.13 73.0015L655.227 73.075C659.226 73.0814 662.444 69.2664 662.444 64.5592C662.444 59.8519 659.222 55.9826 655.227 55.9186Z" fill="#3B3938"/>
<path d="M679.831 64.6639C679.831 69.2784 676.721 73.0167 672.86 73.0103C668.974 73.0039 665.807 69.2145 665.807 64.5424C665.807 59.8704 668.974 56.1353 672.86 56.196C676.721 56.2568 679.831 60.0494 679.831 64.6639Z" fill="#3B3938"/>
<g opacity="0.5">
<path d="M677.733 77.1624L634.763 77.2551C631.474 77.2615 628.791 80.373 628.791 84.2008C628.791 88.0287 631.471 91.0986 634.763 91.0538L677.733 90.4654C680.776 90.4238 683.231 87.4275 683.231 83.7691C683.231 80.1108 680.776 77.1528 677.733 77.1592V77.1624Z" fill="url(#paint1_linear_7413_14252)"/>
<path d="M696.535 83.6347C696.535 87.2323 694.147 90.1775 691.191 90.2191C688.217 90.2607 685.797 87.3506 685.797 83.7211C685.797 80.0915 688.22 77.1431 691.191 77.1367C694.15 77.1303 696.535 80.0404 696.535 83.6379V83.6347Z" fill="url(#paint2_linear_7413_14252)"/>
</g>
<g style="mix-blend-mode:multiply" opacity="0.3">
<path d="M359.818 183.906L364.924 183.695V139.421L359.818 139.514V183.906Z" fill="url(#paint3_linear_7413_14252)"/>
<path d="M350.672 184.29L355.826 184.072V161.831L350.672 161.988V184.29Z" fill="url(#paint4_linear_7413_14252)"/>
<path d="M341.438 184.673L346.643 184.456V135.525L341.438 135.612V184.673Z" fill="url(#paint5_linear_7413_14252)"/>
<path d="M332.115 185.064L337.372 184.843V142.971L332.115 143.076V185.064Z" fill="url(#paint6_linear_7413_14252)"/>
<path d="M322.703 185.457L328.008 185.236V173.954L322.703 174.143V185.457Z" fill="url(#paint7_linear_7413_14252)"/>
<path d="M313.197 185.853L318.556 185.629V158.984L313.197 159.135V185.853Z" fill="url(#paint8_linear_7413_14252)"/>
<path d="M303.604 186.256L309.011 186.029V147.438L303.604 147.559V186.256Z" fill="url(#paint9_linear_7413_14252)"/>
<path d="M293.91 186.659L299.372 186.432V158.15L293.91 158.301V186.659Z" fill="url(#paint10_linear_7413_14252)"/>
</g>
<path d="M487.845 232.455C495.168 231.988 502.083 227.364 505.058 220.246L547.008 119.84C550.827 110.697 546.52 100.349 537.336 96.6813C528.09 92.9878 513.675 97.3369 509.756 106.579L466.722 208.072C462.666 217.64 467.239 228.103 476.889 231.397C479.267 232.209 485.431 232.609 487.845 232.455Z" fill="#EF942B"/>
<g style="mix-blend-mode:multiply" opacity="0.3">
<path d="M537.333 96.6813C528.087 92.9878 513.672 97.3369 509.753 106.579L470.406 199.38C476.991 197.695 484.786 197.845 492.27 191.305C504.728 180.42 498.598 166.471 508.473 154.047C512.985 148.368 521.338 142.388 538.337 140.591L547.005 119.843C550.824 110.701 546.517 100.352 537.333 96.6845V96.6813Z" fill="#CD7F23"/>
</g>
<path d="M562.586 76.7586C562.226 76.7586 561.867 76.7874 561.514 76.8354L535.584 76.5508V143.737L560.625 143.395C561.27 143.558 561.925 143.645 562.589 143.645C571.475 143.645 578.679 128.672 578.679 110.202C578.679 91.7309 571.475 76.7586 562.589 76.7586H562.586Z" fill="#EF942B"/>
<path d="M535.58 76.5473C545.403 98.9194 545.403 121.212 535.58 143.734L342.692 205.532L340.699 16.9619L535.58 76.5473Z" fill="url(#paint11_linear_7413_14252)"/>
<path style="mix-blend-mode:multiply" opacity="0.3" d="M394.761 150.105C413.102 143.182 418.801 116.668 440.094 115.776C456.8 115.076 461.836 131.241 478.205 129.498C494.963 127.714 497.778 109.71 516.542 103.365C525.075 100.481 533.999 101.015 542.664 103.452C543.829 116.812 541.476 130.218 535.581 143.738L342.693 205.536L354.105 141.509C373.122 152.564 385.872 153.463 394.765 150.105H394.761Z" fill="url(#paint12_linear_7413_14252)"/>
<path d="M333.341 208.014C359.254 208.014 380.261 164.356 380.261 110.502C380.261 56.6478 359.254 12.9902 333.341 12.9902C307.427 12.9902 286.42 56.6478 286.42 110.502C286.42 164.356 307.427 208.014 333.341 208.014Z" fill="url(#paint13_linear_7413_14252)"/>
<path d="M333.339 204.705C327.838 204.705 322.431 202.406 317.271 197.868C312.021 193.25 307.271 186.573 303.154 178.022C294.502 160.041 289.736 136.063 289.736 110.503C289.736 84.9425 294.502 60.9619 303.154 42.9836C307.268 34.4294 312.017 27.7523 317.271 23.1378C322.431 18.6032 327.835 16.3008 333.339 16.3008C338.842 16.3008 344.247 18.6 349.407 23.1378C354.657 27.7555 359.407 34.4326 363.524 42.9836C367.141 50.5017 370.08 59.0687 372.272 68.3617C375.324 81.2938 366.499 94.7918 366.499 109.665C366.499 125.482 375.112 141.528 371.672 155.087C369.551 163.443 366.82 171.169 363.521 178.025C359.407 186.58 354.654 193.257 349.404 197.871C344.243 202.406 338.839 204.708 333.336 204.708L333.339 204.705Z" fill="url(#paint14_linear_7413_14252)"/>
<mask id="mask0_7413_14252" style="mask-type:luminance" maskUnits="userSpaceOnUse" x="289" y="16" width="88" height="189">
<path d="M333.337 204.704C327.836 204.704 322.429 202.405 317.269 197.867C312.019 193.249 307.269 186.572 303.152 178.021C294.5 160.04 289.734 136.062 289.734 110.502C289.734 84.9415 294.5 60.9609 303.152 42.9826C307.266 34.4284 312.015 27.7513 317.269 23.1368C322.429 18.6023 327.833 16.2998 333.337 16.2998C338.84 16.2998 344.245 18.5991 349.405 23.1368C354.655 27.7545 359.405 34.4316 363.522 42.9826C372.174 60.9641 376.939 84.9415 376.939 110.502C376.939 136.062 372.174 160.043 363.522 178.021C359.408 186.575 354.655 193.252 349.405 197.867C344.245 202.402 338.84 204.704 333.337 204.704Z" fill="white"/>
</mask>
<g mask="url(#mask0_7413_14252)">
<path d="M329.477 111.78C329.477 136.484 345.891 156.103 365.858 155.601C385.514 155.108 401.226 135.243 401.226 111.227C401.226 87.2114 385.514 67.5895 365.858 67.4008C345.894 67.2089 329.477 87.0771 329.477 111.78Z" fill="url(#paint15_linear_7413_14252)"/>
<path style="mix-blend-mode:multiply" opacity="0.3" d="M332.633 111.381C332.633 129.727 340.63 144.293 350.36 143.922C359.936 143.557 367.593 128.806 367.593 110.971C367.593 93.1369 359.936 78.5675 350.36 78.4268C340.633 78.2829 332.633 93.0378 332.633 111.384V111.381Z" fill="url(#paint16_linear_7413_14252)"/>
</g>
<path d="M628.957 328.192C629.047 327.703 630.626 327.262 631.409 327.917C631.797 328.24 632.067 328.899 631.839 329.197C631.759 329.305 632.093 329.494 631.772 329.497C630.706 329.51 628.867 328.675 628.954 328.192H628.957Z" fill="url(#paint17_linear_7413_14252)"/>
<path d="M536.529 105.878C536.529 105.878 537.803 108.162 537.119 110.266C536.432 112.37 534.148 108.664 533.949 107.522C533.833 106.863 533.727 106.051 533.657 105.482C533.602 105.044 533.916 104.644 534.356 104.599C535.081 104.526 536.108 104.66 536.532 105.882L536.529 105.878Z" fill="url(#paint18_linear_7413_14252)"/>
<path d="M536.077 102.351C536.077 102.351 535.185 104.554 535.807 105.929C536.118 106.614 536.593 107.234 536.33 107.691C536.154 107.998 535.679 108.152 535.319 108.043C534.636 107.839 534.453 106.697 534.328 105.894C534.138 104.708 534.373 102.287 534.373 102.287L536.077 102.348V102.351Z" fill="url(#paint19_linear_7413_14252)"/>
<path d="M653.829 205.257L539.436 213.638C535.229 213.904 530.297 209.836 530.297 205.883V192.283C530.297 188.33 533.718 184.96 537.925 184.749L653.829 178.99C657.565 178.804 662.901 181.49 662.901 185.193L660.584 198.116C660.584 201.822 657.565 205.017 653.829 205.25V205.257Z" fill="url(#paint20_linear_7413_14252)"/>
<path d="M597.532 217.832L588.393 207.043L599.089 205.428L600.504 218.942L597.532 217.832Z" fill="url(#paint21_linear_7413_14252)"/>
<path d="M656.755 206.495L540.851 213.796C536.644 214.061 533.223 211.075 533.223 207.122V193.522C533.223 189.569 536.644 186.199 540.851 185.988L656.755 180.228C660.49 180.043 663.51 182.895 663.51 186.602V199.355C663.51 203.061 660.49 206.256 656.755 206.489V206.495Z" fill="url(#paint22_linear_7413_14252)"/>
<path d="M600.455 219.066L591.312 208.28L609.515 207.154L600.455 219.066Z" fill="#FD841B"/>
<g style="mix-blend-mode:soft-light">
<path d="M557.199 200.611L546.705 201.212C544.915 201.314 543.461 202.763 543.461 204.452V206.904L560.405 205.891V203.457C560.405 201.784 558.971 200.512 557.202 200.611H557.199Z" fill="white"/>
<path d="M556.002 195.443C556.002 197.547 554.196 199.354 551.965 199.479C549.728 199.604 547.912 197.995 547.912 195.885C547.912 193.774 549.728 191.967 551.965 191.849C554.199 191.731 556.002 193.342 556.002 195.443Z" fill="white"/>
<path d="M565.671 203.381C566.082 203.397 566.451 203.378 567.1 203.298C568.094 203.18 569.105 202.854 569.863 202.316C570.768 201.67 571.371 200.775 571.628 199.755L571.563 199.739C570.941 200.388 570.036 200.788 568.762 200.861C566.387 200.999 564.375 199.531 564.375 196.944C564.375 194.357 566.583 192.019 569.67 191.853C573.264 191.661 574.959 194.187 574.959 197.296C574.959 200.056 574.038 202.134 572.51 203.554C571.175 204.779 569.346 205.524 567.167 205.738C566.605 205.812 566.044 205.824 565.675 205.828V203.384L565.671 203.381ZM567.661 196.576C567.661 197.724 568.309 198.674 569.644 198.597C570.527 198.546 571.153 198.102 571.454 197.616C571.563 197.424 571.628 197.216 571.628 196.829C571.628 195.415 571.069 194.053 569.583 194.133C568.463 194.194 567.642 195.182 567.664 196.576H567.661Z" fill="white"/>
<path d="M585.831 193.758L580.471 194.049L580.173 196.105C580.472 196.047 580.728 196.035 581.068 196.016C582.387 195.942 583.729 196.153 584.708 196.77C585.747 197.384 586.383 198.446 586.383 199.99C586.383 202.45 584.175 204.758 580.449 204.982C578.764 205.085 577.352 204.8 576.582 204.458L577.16 202.095C577.779 202.344 579.04 202.638 580.301 202.565C581.643 202.485 583.071 201.791 583.071 200.387C583.071 198.983 581.941 198.251 579.172 198.407C578.402 198.452 577.869 198.523 577.291 198.638L578.212 191.625L585.834 191.219V193.761L585.831 193.758Z" fill="white"/>
<path d="M617.939 193.249C617.801 190.71 616.042 188.74 613.86 188.693C612.13 188.651 610.596 189.773 609.781 191.414C608.966 189.86 607.426 188.9 605.686 189.124C603.482 189.409 601.697 191.58 601.556 194.154C601.463 195.856 602.079 197.355 603.087 198.308L609.329 202.808C609.601 203.003 609.954 202.984 610.224 202.753L616.424 197.544C617.419 196.482 618.025 194.925 617.932 193.249H617.939Z" fill="white"/>
<path d="M631.878 188.76V190.669L626.432 202.005L623.146 202.2L628.611 191.462V191.424L622.533 191.756V189.259L631.881 188.76H631.878Z" fill="white"/>
<path d="M642.425 190.669L637.358 190.944L637.076 192.943C637.358 192.888 637.599 192.872 637.923 192.856C639.171 192.786 640.439 192.994 641.363 193.595C642.345 194.193 642.948 195.226 642.948 196.729C642.948 199.121 640.862 201.359 637.339 201.57C635.744 201.666 634.412 201.388 633.684 201.056L634.229 198.759C634.816 199.002 636.007 199.29 637.198 199.22C638.468 199.146 639.816 198.472 639.816 197.106C639.816 195.741 638.751 195.028 636.129 195.178C635.404 195.219 634.897 195.287 634.351 195.399L635.221 188.584L642.425 188.2V190.672V190.669Z" fill="white"/>
<path d="M644.648 197.557C644.648 196.016 645.547 194.9 646.965 194.206V194.145C645.707 193.586 645.088 192.572 645.088 191.446C645.088 189.275 647.065 187.727 649.658 187.59C652.681 187.43 653.929 189.093 653.929 190.644C653.929 191.744 653.336 192.86 652.065 193.56V193.618C653.316 194.021 654.427 195.018 654.427 196.668C654.427 198.987 652.463 200.656 649.462 200.838C646.17 201.037 644.652 199.291 644.652 197.551L644.648 197.557ZM651.349 197.071C651.349 195.949 650.515 195.329 649.321 195.082C648.326 195.415 647.745 196.157 647.745 197.084C647.726 198.012 648.442 198.837 649.578 198.769C650.653 198.706 651.349 197.976 651.349 197.071ZM647.944 191.197C647.944 192.064 648.74 192.572 649.777 192.831C650.473 192.594 651.089 191.932 651.089 191.123C651.089 190.314 650.63 189.572 649.517 189.633C648.48 189.691 647.941 190.388 647.941 191.197H647.944Z" fill="white"/>
</g>
</g>
<defs>
<linearGradient id="paint0_linear_7413_14252" x1="83.972" y1="74.3563" x2="284.486" y2="252.122" gradientUnits="userSpaceOnUse">
<stop stop-color="#ABABAB"/>
<stop offset="1" stop-color="#898989"/>
</linearGradient>
<linearGradient id="paint1_linear_7413_14252" x1="647.446" y1="80.5041" x2="700.71" y2="102.686" gradientUnits="userSpaceOnUse">
<stop stop-color="#ABABAB"/>
<stop offset="1" stop-color="#898989"/>
</linearGradient>
<linearGradient id="paint2_linear_7413_14252" x1="653.333" y1="68.0293" x2="704.976" y2="89.5388" gradientUnits="userSpaceOnUse">
<stop stop-color="#ABABAB"/>
<stop offset="1" stop-color="#898989"/>
</linearGradient>
<linearGradient id="paint3_linear_7413_14252" x1="366.92" y1="149.603" x2="331.674" y2="243.235" gradientUnits="userSpaceOnUse">
<stop stop-color="#CDCDCD"/>
<stop offset="1" stop-color="#979797"/>
</linearGradient>
<linearGradient id="paint4_linear_7413_14252" x1="362.732" y1="148.016" x2="327.167" y2="242.493" gradientUnits="userSpaceOnUse">
<stop stop-color="#CDCDCD"/>
<stop offset="1" stop-color="#979797"/>
</linearGradient>
<linearGradient id="paint5_linear_7413_14252" x1="350.25" y1="143.654" x2="314.666" y2="238.186" gradientUnits="userSpaceOnUse">
<stop stop-color="#CDCDCD"/>
<stop offset="1" stop-color="#979797"/>
</linearGradient>
<linearGradient id="paint6_linear_7413_14252" x1="343.376" y1="141.19" x2="307.585" y2="236.262" gradientUnits="userSpaceOnUse">
<stop stop-color="#CDCDCD"/>
<stop offset="1" stop-color="#979797"/>
</linearGradient>
<linearGradient id="paint7_linear_7413_14252" x1="340.546" y1="139.625" x2="304.123" y2="236.378" gradientUnits="userSpaceOnUse">
<stop stop-color="#CDCDCD"/>
<stop offset="1" stop-color="#979797"/>
</linearGradient>
<linearGradient id="paint8_linear_7413_14252" x1="329.615" y1="136.142" x2="293.348" y2="232.478" gradientUnits="userSpaceOnUse">
<stop stop-color="#CDCDCD"/>
<stop offset="1" stop-color="#979797"/>
</linearGradient>
<linearGradient id="paint9_linear_7413_14252" x1="319.29" y1="132.545" x2="282.931" y2="229.134" gradientUnits="userSpaceOnUse">
<stop stop-color="#CDCDCD"/>
<stop offset="1" stop-color="#979797"/>
</linearGradient>
<linearGradient id="paint10_linear_7413_14252" x1="312.68" y1="130.061" x2="276.047" y2="227.37" gradientUnits="userSpaceOnUse">
<stop stop-color="#CDCDCD"/>
<stop offset="1" stop-color="#979797"/>
</linearGradient>
<linearGradient id="paint11_linear_7413_14252" x1="452.419" y1="8.58676" x2="400.446" y2="297.08" gradientUnits="userSpaceOnUse">
<stop stop-color="#EE952D"/>
<stop offset="1" stop-color="#F09123"/>
</linearGradient>
<linearGradient id="paint12_linear_7413_14252" x1="470.327" y1="9.11525" x2="417.704" y2="301.201" gradientUnits="userSpaceOnUse">
<stop stop-color="#979797"/>
<stop offset="1" stop-color="#727272"/>
</linearGradient>
<linearGradient id="paint13_linear_7413_14252" x1="385.463" y1="49.2506" x2="281.648" y2="172.114" gradientUnits="userSpaceOnUse">
<stop stop-color="#FFCA4F"/>
<stop offset="1" stop-color="#898989"/>
</linearGradient>
<linearGradient id="paint14_linear_7413_14252" x1="392.759" y1="108.997" x2="292.272" y2="111.563" gradientUnits="userSpaceOnUse">
<stop stop-color="#402301"/>
<stop offset="1" stop-color="#986933"/>
</linearGradient>
<linearGradient id="paint15_linear_7413_14252" x1="382.366" y1="17.6999" x2="348.431" y2="206.063" gradientUnits="userSpaceOnUse">
<stop stop-color="#BA7F00"/>
<stop offset="1" stop-color="#917F57"/>
</linearGradient>
<linearGradient id="paint16_linear_7413_14252" x1="362.667" y1="41.9586" x2="337.628" y2="180.942" gradientUnits="userSpaceOnUse">
<stop stop-color="#FFC400"/>
<stop offset="1" stop-color="#FF9500"/>
</linearGradient>
<linearGradient id="paint17_linear_7413_14252" x1="628.024" y1="326.704" x2="631.497" y2="329.022" gradientUnits="userSpaceOnUse">
<stop stop-color="#515151"/>
<stop offset="1" stop-color="#2A2A2A"/>
</linearGradient>
<linearGradient id="paint18_linear_7413_14252" x1="537.558" y1="108.139" x2="533.258" y2="107.308" gradientUnits="userSpaceOnUse">
<stop stop-color="#242424"/>
<stop offset="1" stop-color="#4D4D4D"/>
</linearGradient>
<linearGradient id="paint19_linear_7413_14252" x1="537.372" y1="120.549" x2="534.305" y2="97.3053" gradientUnits="userSpaceOnUse">
<stop stop-color="#CDCDCD"/>
<stop offset="1" stop-color="#979797"/>
</linearGradient>
<linearGradient id="paint20_linear_7413_14252" x1="623.747" y1="170.816" x2="556.075" y2="229.473" gradientUnits="userSpaceOnUse">
<stop stop-color="#242424"/>
<stop offset="1" stop-color="#575757"/>
</linearGradient>
<linearGradient id="paint21_linear_7413_14252" x1="618.562" y1="192.237" x2="576.844" y2="228.399" gradientUnits="userSpaceOnUse">
<stop stop-color="#242424"/>
<stop offset="1" stop-color="#575757"/>
</linearGradient>
<linearGradient id="paint22_linear_7413_14252" x1="625.845" y1="172.768" x2="558.845" y2="230.844" gradientUnits="userSpaceOnUse">
<stop stop-color="#FF5500"/>
<stop offset="1" stop-color="#FCBF3C"/>
</linearGradient>
<clipPath id="clip0_7413_14252">
<rect width="748" height="378.257" fill="white"/>
</clipPath>
</defs>
</svg>
