<svg width="605" height="511" viewBox="0 0 605 511" fill="none" xmlns="http://www.w3.org/2000/svg">
<g filter="url(#filter0_d_7416_14628)">
<g clip-path="url(#clip0_7416_14628)">
<rect x="52.75" y="48" width="499.5" height="404.429" fill="#1A1A1A"/>
<rect x="91.9902" y="156.651" width="199.196" height="261.068" rx="12.0725" fill="url(#paint0_linear_7416_14628)" fill-opacity="0.1"/>
<rect x="92.292" y="156.953" width="198.593" height="260.464" rx="11.7707" stroke="white" stroke-opacity="0.3" stroke-width="0.603625"/>
<rect x="315.332" y="156.651" width="199.196" height="261.068" rx="12.0725" fill="url(#paint1_linear_7416_14628)" fill-opacity="0.1"/>
<rect x="315.634" y="156.953" width="198.593" height="260.464" rx="11.7707" stroke="white" stroke-opacity="0.3" stroke-width="0.603625"/>
<rect x="200.639" y="90.2539" width="90.5438" height="48.29" rx="12.0725" fill="#D9D9D9" fill-opacity="0.1"/>
<rect x="200.94" y="90.5557" width="89.9402" height="47.6864" rx="11.7707" stroke="url(#paint2_linear_7416_14628)" stroke-opacity="0.5" stroke-width="0.603625"/>
<path d="M225.834 104.005L227.485 104.459C227.038 105.847 226.504 107.219 225.881 108.575C225.275 109.931 224.613 111.216 223.895 112.428C223.177 113.625 222.42 114.685 221.622 115.611C221.574 115.467 221.494 115.284 221.383 115.06C221.271 114.821 221.151 114.59 221.024 114.366C220.896 114.127 220.784 113.936 220.689 113.792C221.391 112.978 222.061 112.053 222.699 111.016C223.337 109.963 223.919 108.838 224.446 107.642C224.988 106.445 225.451 105.233 225.834 104.005ZM223.895 109.867L225.57 108.216L225.618 108.264V125.901H223.895V109.867ZM234.257 104.483L235.621 105.871C234.855 106.206 233.994 106.525 233.037 106.828C232.095 107.116 231.122 107.387 230.117 107.642C229.112 107.881 228.131 108.097 227.174 108.288C227.142 108.097 227.07 107.865 226.958 107.594C226.847 107.323 226.735 107.092 226.623 106.9C227.533 106.693 228.458 106.461 229.399 106.206C230.356 105.951 231.258 105.672 232.103 105.369C232.949 105.065 233.667 104.77 234.257 104.483ZM226.647 111.303H242.824V112.907H226.647V111.303ZM230.62 106.374H232.319V123.723C232.319 124.234 232.255 124.624 232.127 124.896C232 125.167 231.76 125.382 231.409 125.542C231.09 125.669 230.644 125.749 230.069 125.781C229.511 125.829 228.825 125.853 228.011 125.853C227.979 125.63 227.908 125.35 227.796 125.015C227.684 124.68 227.565 124.393 227.437 124.154C228.059 124.17 228.625 124.178 229.136 124.178C229.646 124.194 229.989 124.194 230.165 124.178C230.34 124.162 230.46 124.122 230.524 124.058C230.588 123.994 230.62 123.883 230.62 123.723V106.374ZM226.456 118.028C227.222 117.852 228.091 117.645 229.064 117.406C230.053 117.166 231.106 116.903 232.223 116.616C233.34 116.313 234.448 116.018 235.549 115.73L235.741 117.334C234.209 117.78 232.662 118.219 231.098 118.65C229.535 119.065 228.155 119.44 226.958 119.775L226.456 118.028ZM235.98 104.148H237.727C237.711 106.414 237.743 108.551 237.823 110.561C237.902 112.572 238.038 114.414 238.229 116.089C238.421 117.764 238.652 119.208 238.923 120.421C239.211 121.617 239.546 122.551 239.928 123.221C240.311 123.875 240.726 124.202 241.173 124.202C241.428 124.202 241.62 123.891 241.747 123.268C241.875 122.646 241.963 121.633 242.01 120.229C242.186 120.421 242.401 120.604 242.656 120.78C242.928 120.955 243.167 121.083 243.374 121.163C243.279 122.375 243.143 123.324 242.968 124.01C242.792 124.712 242.545 125.207 242.226 125.494C241.923 125.781 241.5 125.925 240.957 125.925C240.287 125.925 239.697 125.661 239.187 125.135C238.692 124.609 238.261 123.859 237.894 122.886C237.543 121.912 237.24 120.764 236.985 119.44C236.746 118.099 236.554 116.624 236.411 115.012C236.267 113.385 236.163 111.662 236.1 109.844C236.036 108.009 235.996 106.11 235.98 104.148ZM240.766 114.055L242.393 114.486C241.484 116.704 240.319 118.722 238.899 120.54C237.48 122.343 235.908 123.851 234.185 125.063C234.105 124.936 233.994 124.792 233.85 124.632C233.707 124.473 233.555 124.313 233.396 124.154C233.236 124.01 233.092 123.883 232.965 123.771C234.672 122.702 236.203 121.33 237.559 119.655C238.915 117.964 239.984 116.097 240.766 114.055ZM238.947 105.345L240.287 104.746C240.622 105.225 240.957 105.736 241.292 106.278C241.627 106.804 241.931 107.323 242.202 107.833C242.473 108.344 242.68 108.799 242.824 109.197L241.412 109.915C241.269 109.501 241.061 109.03 240.79 108.503C240.535 107.977 240.248 107.435 239.928 106.876C239.609 106.318 239.282 105.807 238.947 105.345ZM253.162 104.746H266.778V106.35H253.162V104.746ZM252.324 113.888H267.592V115.515H252.324V113.888ZM254.311 117.501H265.965V125.829H264.194V119.105H256.033V125.901H254.311V117.501ZM255.172 123.388H264.912V124.967H255.172V123.388ZM258.187 105.369L259.982 105.56C259.806 106.549 259.591 107.618 259.336 108.767C259.081 109.899 258.825 111 258.57 112.069C258.331 113.122 258.115 114.031 257.924 114.797H256.033C256.209 114.207 256.392 113.521 256.584 112.739C256.791 111.957 256.991 111.144 257.182 110.298C257.374 109.453 257.557 108.607 257.733 107.762C257.908 106.9 258.06 106.102 258.187 105.369ZM254.023 109.054H263.954V110.609H254.023V109.054ZM263.524 109.054H263.691L263.978 108.958L265.247 109.078C265.183 109.971 265.095 110.928 264.983 111.949C264.888 112.97 264.784 113.904 264.672 114.749L262.973 114.63C263.053 114.039 263.125 113.417 263.189 112.763C263.268 112.093 263.332 111.447 263.38 110.825C263.444 110.203 263.492 109.684 263.524 109.269V109.054ZM247.012 105.632L248.16 104.531C248.591 104.882 249.038 105.273 249.501 105.704C249.979 106.134 250.426 106.557 250.841 106.972C251.271 107.387 251.606 107.762 251.846 108.097L250.625 109.389C250.37 109.038 250.043 108.647 249.644 108.216C249.245 107.77 248.815 107.323 248.352 106.876C247.889 106.414 247.443 105.999 247.012 105.632ZM245.743 111.375H250.027V113.122H245.743V111.375ZM249.118 125.183L248.854 123.508L249.381 122.766L253.617 119.966C253.664 120.189 253.736 120.453 253.832 120.756C253.928 121.043 254.015 121.282 254.095 121.474C253.09 122.16 252.276 122.726 251.654 123.173C251.048 123.603 250.569 123.946 250.218 124.202C249.883 124.457 249.636 124.648 249.477 124.776C249.333 124.92 249.213 125.055 249.118 125.183ZM249.118 125.183C249.07 125.023 248.99 124.84 248.878 124.632C248.783 124.441 248.671 124.25 248.543 124.058C248.416 123.867 248.304 123.707 248.208 123.58C248.384 123.452 248.567 123.252 248.759 122.981C248.966 122.694 249.07 122.303 249.07 121.809V111.375H250.745V123.412C250.745 123.412 250.665 123.476 250.506 123.603C250.346 123.715 250.155 123.859 249.931 124.034C249.708 124.226 249.516 124.417 249.357 124.609C249.197 124.816 249.118 125.007 249.118 125.183Z" fill="url(#paint3_linear_7416_14628)" fill-opacity="0.7"/>
<rect x="315.326" y="90.2539" width="90.5438" height="48.29" rx="12.0725" fill="#D9D9D9" fill-opacity="0.1"/>
<rect x="315.628" y="90.5557" width="89.9402" height="47.6864" rx="11.7707" stroke="url(#paint4_linear_7416_14628)" stroke-opacity="0.5" stroke-width="0.603625"/>
<path d="M337.25 108.168H356.538V119.416H354.696V109.915H339.045V119.535H337.25V108.168ZM338.208 116.281H355.772V118.052H338.208V116.281ZM345.913 103.885H347.804V125.877H345.913V103.885ZM376.711 108.838L378.602 109.413C377.597 112.332 376.305 114.853 374.725 116.975C373.162 119.097 371.279 120.883 369.078 122.335C366.892 123.787 364.347 124.983 361.444 125.925C361.38 125.765 361.276 125.582 361.133 125.374C361.005 125.167 360.862 124.952 360.702 124.728C360.558 124.505 360.423 124.329 360.295 124.202C363.135 123.372 365.616 122.287 367.738 120.947C369.859 119.591 371.662 117.924 373.146 115.946C374.629 113.952 375.818 111.582 376.711 108.838ZM365.823 108.982C366.701 111.535 367.881 113.832 369.365 115.874C370.864 117.9 372.699 119.615 374.869 121.019C377.038 122.423 379.567 123.468 382.455 124.154C382.311 124.281 382.151 124.449 381.976 124.656C381.816 124.88 381.657 125.103 381.497 125.326C381.354 125.55 381.234 125.741 381.138 125.901C378.187 125.135 375.611 124.002 373.409 122.503C371.223 120.987 369.365 119.144 367.833 116.975C366.302 114.789 365.041 112.3 364.052 109.509L365.823 108.982ZM360.558 107.953H382.191V109.7H360.558V107.953ZM370.37 103.885H372.212V109.006H370.37V103.885Z" fill="url(#paint5_linear_7416_14628)" fill-opacity="0.7"/>
<g clip-path="url(#clip1_7416_14628)">
<path d="M80.6832 80.9557C81.8263 76.5374 87.0221 77.2344 90.5474 76.8962V76.8945L92.5758 76.8662C97.382 77.3705 102.078 76.278 102.937 82.3942C103.326 85.1574 103.323 88.5097 102.752 91.2429C102.181 93.9692 100.272 94.9899 97.686 95.3187C96.4462 95.4762 95.0359 95.2142 94.2002 96.2751C93.8542 96.7144 91.9705 99.8038 91.7162 99.8586C91.3514 99.5657 91.0354 99.0802 90.7511 98.6898C90.0482 97.7248 89.1362 95.7228 87.9529 95.5079C85.0835 94.9873 81.7193 95.4711 80.714 91.7267C79.9734 88.9661 79.9674 83.7232 80.6832 80.9557Z" fill="url(#paint6_linear_7416_14628)" fill-opacity="0.6"/>
<path d="M103.463 96.4001C103.803 96.1013 104.249 95.4231 104.635 95.3512C105.517 95.186 106.548 95.3855 107.43 95.4189C111.152 95.561 115.941 95.2039 116.916 99.7721C117.48 102.417 117.698 108.861 116.373 111.197C115.133 113.383 113.142 113.646 110.849 113.875C107.249 114.234 102.285 114.297 98.7486 113.591C93.4116 112.527 94.3749 105.647 94.5581 101.591L96.5455 98.7934C97.537 98.5956 98.5568 98.5793 99.5484 98.3798C101.034 98.081 102.331 97.3934 103.463 96.4001Z" fill="url(#paint7_linear_7416_14628)" fill-opacity="0.6"/>
<path d="M84.7546 105.244V108.106C84.7546 108.217 84.9764 108.704 85.0594 108.827C85.9277 110.126 87.7567 109.378 89.0299 109.64C90.7065 109.985 90.6662 112.567 88.7251 112.763C85.5201 113.087 81.5941 111.874 81.5941 108.021V105.243C81.1574 105.546 80.8654 106.059 80.3705 106.283C78.795 106.998 77.3659 105.251 78.5176 103.831C79.0502 103.174 80.904 101.281 81.5513 100.799C82.4906 100.1 83.8547 100.099 84.7966 100.799C85.3506 101.211 87.5511 103.406 87.9587 103.959C88.5992 104.825 88.2507 106.134 87.183 106.434C85.9919 106.767 85.5466 105.905 84.7537 105.243L84.7546 105.244Z" fill="url(#paint8_linear_7416_14628)" fill-opacity="0.6"/>
<path d="M115.927 85.8435C116.386 85.5361 116.677 84.9881 117.176 84.7432C118.512 84.0882 119.892 85.4368 119.302 86.7845C119.068 87.3171 116.477 89.8637 115.918 90.2353C114.923 90.8954 113.707 90.9323 112.725 90.2019C112.103 89.7403 110.145 87.7564 109.649 87.1262C109.043 86.3581 109.098 85.4111 109.907 84.8185C111.022 84.0008 112.011 85.0061 112.767 85.7579V82.8098C112.767 82.7276 112.502 82.2318 112.425 82.1265C111.321 80.6117 108.904 82.0622 107.767 80.9756C106.84 80.0903 107.351 78.442 108.62 78.3187C109.576 78.2262 111.64 78.245 112.529 78.5182C114.26 79.0499 115.927 81.0407 115.927 82.8954V85.8435Z" fill="url(#paint9_linear_7416_14628)" fill-opacity="0.6"/>
<path d="M107.449 99.6832H112.179C112.785 99.6832 113.412 100.336 113.431 100.943C113.47 102.151 112.065 102.308 111.168 102.208C110.452 104.051 109.35 105.721 108.059 107.199L108.126 107.345C109.011 108.141 110.113 108.854 110.967 109.668C112.147 110.793 111.382 112.269 109.817 111.893L106.266 108.985L102.609 111.917C101.374 112.285 100.493 111.08 101.167 110.008L104.419 107.257C103.948 106.516 102.526 105.151 102.454 104.293C102.362 103.202 103.468 102.529 104.373 103.125C104.753 103.374 105.948 105.524 106.267 105.469C107.198 104.517 107.88 103.361 108.511 102.198H100.071C99.5873 102.198 99.0379 101.426 99.047 100.944C99.0584 100.33 99.6912 99.6824 100.298 99.6824H105.029C104.789 97.5796 107.686 97.6009 107.451 99.6824L107.449 99.6832Z" fill="url(#paint10_linear_7416_14628)" fill-opacity="0.6"/>
<path d="M90.9765 78.3812C92.7524 78.0798 93.1848 79.2083 93.7106 80.5612C95.0566 84.0248 96.1441 87.5989 97.4696 91.0719C97.8703 92.9111 95.4445 93.8967 94.4829 92.2655C94.2851 91.9307 94.0814 90.8107 93.7757 90.7508L89.0029 90.7636C88.8496 90.8158 88.5319 92.036 88.3487 92.3306C87.4051 93.8504 84.9365 92.9702 85.4194 90.9383L89.5046 79.6433C89.7247 79.0491 90.348 78.4874 90.9757 78.3812H90.9765ZM92.7927 87.5912L91.3833 83.4879L89.9739 87.5912H92.7927Z" fill="url(#paint11_linear_7416_14628)" fill-opacity="0.8"/>
</g>
<rect x="105.568" y="171.742" width="169.015" height="10.5634" rx="5.28172" fill="url(#paint12_linear_7416_14628)" fill-opacity="0.2"/>
<rect x="105.568" y="189.851" width="169.015" height="10.5634" rx="5.28172" fill="url(#paint13_linear_7416_14628)" fill-opacity="0.2"/>
<rect x="105.568" y="207.96" width="169.015" height="10.5634" rx="5.28172" fill="url(#paint14_linear_7416_14628)" fill-opacity="0.2"/>
<rect x="105.568" y="226.068" width="169.015" height="10.5634" rx="5.28172" fill="url(#paint15_linear_7416_14628)" fill-opacity="0.2"/>
<rect x="105.568" y="244.177" width="169.015" height="10.5634" rx="5.28172" fill="url(#paint16_linear_7416_14628)" fill-opacity="0.2"/>
<rect x="105.568" y="262.286" width="169.015" height="10.5634" rx="5.28172" fill="url(#paint17_linear_7416_14628)" fill-opacity="0.2"/>
<rect x="105.568" y="280.395" width="78.4713" height="10.5634" rx="5.28172" fill="url(#paint18_linear_7416_14628)" fill-opacity="0.2"/>
<rect x="330.422" y="171.742" width="169.015" height="10.5634" rx="5.28172" fill="url(#paint19_linear_7416_14628)" fill-opacity="0.2"/>
<rect x="330.422" y="189.851" width="169.015" height="10.5634" rx="5.28172" fill="url(#paint20_linear_7416_14628)" fill-opacity="0.2"/>
<rect x="330.422" y="207.96" width="169.015" height="10.5634" rx="5.28172" fill="url(#paint21_linear_7416_14628)" fill-opacity="0.2"/>
<rect x="330.422" y="226.068" width="169.015" height="10.5634" rx="5.28172" fill="url(#paint22_linear_7416_14628)" fill-opacity="0.2"/>
<rect x="330.422" y="244.177" width="169.015" height="10.5634" rx="5.28172" fill="url(#paint23_linear_7416_14628)" fill-opacity="0.2"/>
<rect x="330.422" y="262.286" width="169.015" height="10.5634" rx="5.28172" fill="url(#paint24_linear_7416_14628)" fill-opacity="0.2"/>
<rect x="330.422" y="280.395" width="169.015" height="10.5634" rx="5.28172" fill="url(#paint25_linear_7416_14628)" fill-opacity="0.2"/>
<rect x="330.422" y="298.504" width="120.725" height="10.5634" rx="5.28172" fill="url(#paint26_linear_7416_14628)" fill-opacity="0.2"/>
</g>
<rect x="53.5045" y="48.7545" width="497.991" height="403.491" rx="16.7161" stroke="#F09123" stroke-width="1.50906" shape-rendering="crispEdges"/>
</g>
<defs>
<filter id="filter0_d_7416_14628" x="0.338238" y="0.352943" width="604.324" height="509.824" filterUnits="userSpaceOnUse" color-interpolation-filters="sRGB">
<feFlood flood-opacity="0" result="BackgroundImageFix"/>
<feColorMatrix in="SourceAlpha" type="matrix" values="0 0 0 0 0 0 0 0 0 0 0 0 0 0 0 0 0 0 127 0" result="hardAlpha"/>
<feOffset dy="4.76471"/>
<feGaussianBlur stdDeviation="26.2059"/>
<feComposite in2="hardAlpha" operator="out"/>
<feColorMatrix type="matrix" values="0 0 0 0 0.968627 0 0 0 0 0.580392 0 0 0 0 0.113725 0 0 0 0.36 0"/>
<feBlend mode="normal" in2="BackgroundImageFix" result="effect1_dropShadow_7416_14628"/>
<feBlend mode="normal" in="SourceGraphic" in2="effect1_dropShadow_7416_14628" result="shape"/>
</filter>
<linearGradient id="paint0_linear_7416_14628" x1="253.863" y1="156.401" x2="76.2052" y2="451.494" gradientUnits="userSpaceOnUse">
<stop stop-color="white"/>
<stop offset="1" stop-color="#141313"/>
</linearGradient>
<linearGradient id="paint1_linear_7416_14628" x1="472.926" y1="170.704" x2="322.369" y2="446.977" gradientUnits="userSpaceOnUse">
<stop stop-color="white"/>
<stop offset="1" stop-color="#414141"/>
</linearGradient>
<linearGradient id="paint2_linear_7416_14628" x1="245.911" y1="90.2539" x2="245.911" y2="138.544" gradientUnits="userSpaceOnUse">
<stop stop-color="#999999"/>
<stop offset="1" stop-color="white"/>
</linearGradient>
<linearGradient id="paint3_linear_7416_14628" x1="224.446" y1="106.707" x2="261.005" y2="127.387" gradientUnits="userSpaceOnUse">
<stop stop-color="white"/>
<stop offset="1" stop-color="#999999"/>
</linearGradient>
<linearGradient id="paint4_linear_7416_14628" x1="360.598" y1="90.2539" x2="360.598" y2="138.544" gradientUnits="userSpaceOnUse">
<stop stop-color="#999999"/>
<stop offset="1" stop-color="white"/>
</linearGradient>
<linearGradient id="paint5_linear_7416_14628" x1="334.422" y1="103.707" x2="390.277" y2="127.298" gradientUnits="userSpaceOnUse">
<stop stop-color="white"/>
<stop offset="1" stop-color="#999999"/>
</linearGradient>
<linearGradient id="paint6_linear_7416_14628" x1="98.7553" y1="76.8662" x2="98.7553" y2="114.137" gradientUnits="userSpaceOnUse">
<stop stop-color="#7A8E9C"/>
<stop offset="1" stop-color="#4D5558"/>
</linearGradient>
<linearGradient id="paint7_linear_7416_14628" x1="98.7553" y1="76.8662" x2="98.7553" y2="114.137" gradientUnits="userSpaceOnUse">
<stop stop-color="#7A8E9C"/>
<stop offset="1" stop-color="#4D5558"/>
</linearGradient>
<linearGradient id="paint8_linear_7416_14628" x1="85" y1="101.5" x2="80.5" y2="114" gradientUnits="userSpaceOnUse">
<stop stop-color="white"/>
<stop offset="1" stop-color="#657187"/>
</linearGradient>
<linearGradient id="paint9_linear_7416_14628" x1="107" y1="82.5" x2="120" y2="91" gradientUnits="userSpaceOnUse">
<stop stop-color="white"/>
<stop offset="1" stop-color="#4E5B72"/>
</linearGradient>
<linearGradient id="paint10_linear_7416_14628" x1="100" y1="103" x2="114" y2="110" gradientUnits="userSpaceOnUse">
<stop stop-color="white"/>
<stop offset="1" stop-color="#999999"/>
</linearGradient>
<linearGradient id="paint11_linear_7416_14628" x1="80.5" y1="84" x2="103" y2="88" gradientUnits="userSpaceOnUse">
<stop stop-color="white"/>
<stop offset="1" stop-color="#999999"/>
</linearGradient>
<linearGradient id="paint12_linear_7416_14628" x1="190.076" y1="171.742" x2="190.076" y2="182.306" gradientUnits="userSpaceOnUse">
<stop stop-color="white"/>
<stop offset="1" stop-color="#999999"/>
</linearGradient>
<linearGradient id="paint13_linear_7416_14628" x1="190.076" y1="189.851" x2="190.076" y2="200.414" gradientUnits="userSpaceOnUse">
<stop stop-color="white"/>
<stop offset="1" stop-color="#999999"/>
</linearGradient>
<linearGradient id="paint14_linear_7416_14628" x1="190.076" y1="207.96" x2="190.076" y2="218.523" gradientUnits="userSpaceOnUse">
<stop stop-color="white"/>
<stop offset="1" stop-color="#999999"/>
</linearGradient>
<linearGradient id="paint15_linear_7416_14628" x1="190.076" y1="226.068" x2="190.076" y2="236.632" gradientUnits="userSpaceOnUse">
<stop stop-color="white"/>
<stop offset="1" stop-color="#999999"/>
</linearGradient>
<linearGradient id="paint16_linear_7416_14628" x1="190.076" y1="244.177" x2="190.076" y2="254.74" gradientUnits="userSpaceOnUse">
<stop stop-color="white"/>
<stop offset="1" stop-color="#999999"/>
</linearGradient>
<linearGradient id="paint17_linear_7416_14628" x1="190.076" y1="262.286" x2="190.076" y2="272.85" gradientUnits="userSpaceOnUse">
<stop stop-color="white"/>
<stop offset="1" stop-color="#999999"/>
</linearGradient>
<linearGradient id="paint18_linear_7416_14628" x1="144.804" y1="280.395" x2="144.804" y2="290.958" gradientUnits="userSpaceOnUse">
<stop stop-color="white"/>
<stop offset="1" stop-color="#999999"/>
</linearGradient>
<linearGradient id="paint19_linear_7416_14628" x1="414.929" y1="171.742" x2="414.929" y2="182.306" gradientUnits="userSpaceOnUse">
<stop stop-color="white"/>
<stop offset="1" stop-color="#999999"/>
</linearGradient>
<linearGradient id="paint20_linear_7416_14628" x1="414.929" y1="189.851" x2="414.929" y2="200.414" gradientUnits="userSpaceOnUse">
<stop stop-color="white"/>
<stop offset="1" stop-color="#999999"/>
</linearGradient>
<linearGradient id="paint21_linear_7416_14628" x1="414.929" y1="207.96" x2="414.929" y2="218.523" gradientUnits="userSpaceOnUse">
<stop stop-color="white"/>
<stop offset="1" stop-color="#999999"/>
</linearGradient>
<linearGradient id="paint22_linear_7416_14628" x1="414.929" y1="226.068" x2="414.929" y2="236.632" gradientUnits="userSpaceOnUse">
<stop stop-color="white"/>
<stop offset="1" stop-color="#999999"/>
</linearGradient>
<linearGradient id="paint23_linear_7416_14628" x1="414.929" y1="244.177" x2="414.929" y2="254.74" gradientUnits="userSpaceOnUse">
<stop stop-color="white"/>
<stop offset="1" stop-color="#999999"/>
</linearGradient>
<linearGradient id="paint24_linear_7416_14628" x1="414.929" y1="262.286" x2="414.929" y2="272.85" gradientUnits="userSpaceOnUse">
<stop stop-color="white"/>
<stop offset="1" stop-color="#999999"/>
</linearGradient>
<linearGradient id="paint25_linear_7416_14628" x1="414.929" y1="280.395" x2="414.929" y2="290.958" gradientUnits="userSpaceOnUse">
<stop stop-color="white"/>
<stop offset="1" stop-color="#999999"/>
</linearGradient>
<linearGradient id="paint26_linear_7416_14628" x1="390.784" y1="298.504" x2="390.784" y2="309.067" gradientUnits="userSpaceOnUse">
<stop stop-color="white"/>
<stop offset="1" stop-color="#999999"/>
</linearGradient>
<clipPath id="clip0_7416_14628">
<rect x="52.75" y="48" width="499.5" height="405" rx="17.4706" fill="white"/>
</clipPath>
<clipPath id="clip1_7416_14628">
<rect width="49.7991" height="37.7266" fill="white" transform="translate(73.8828 76.6719)"/>
</clipPath>
</defs>
</svg>
