<svg width="621" height="469" viewBox="0 0 621 469" fill="none" xmlns="http://www.w3.org/2000/svg">
<path opacity="0.4" d="M211.516 404.348C115.674 405.244 62.527 406.588 19.9576 352.256C-16.5306 281.119 -4.74296 201.821 69.9028 124.789C201.255 -10.7624 377.524 -11.8412 505.259 13.9396C613.494 35.7846 643.863 135.574 601.902 291.289C559.941 447.004 331.319 403.227 211.516 404.348Z" fill="url(#paint0_linear_7754_14610)"/>
<g clip-path="url(#clip0_7754_14610)">
<path d="M95.3005 409.144C68.2305 424.774 68.2305 450.104 95.3005 465.734C122.371 481.364 166.251 481.364 193.321 465.734C220.391 450.104 220.391 424.774 193.321 409.144C166.251 393.514 122.371 393.514 95.3105 409.144H95.3005Z" fill="url(#paint1_linear_7754_14610)"/>
<path d="M497.494 409.144C524.564 424.774 524.564 450.104 497.494 465.734C470.424 481.364 426.544 481.364 399.474 465.734C372.404 450.104 372.404 424.774 399.474 409.144C426.544 393.514 470.424 393.514 497.484 409.144H497.494Z" fill="url(#paint2_linear_7754_14610)"/>
<path d="M333.391 213.404C332.241 213.884 332.711 214.974 333.831 215.264C336.481 215.944 339.171 213.934 340.961 213.744C341.411 213.744 347.351 214.544 348.161 215.494C346.811 215.754 342.511 216.224 341.181 216.554C340.801 216.654 339.811 217.084 336.821 218.444C336.361 218.654 335.621 218.944 335.341 219.284C335.091 219.604 335.231 220.504 336.281 220.774C338.161 221.244 340.041 219.874 341.921 219.434C342.831 219.204 345.751 218.624 347.411 219.604C344.781 220.494 343.431 221.554 340.281 224.194C339.911 224.504 339.981 224.754 340.181 225.004C340.461 225.354 341.051 225.574 341.631 225.504C342.921 225.344 344.121 224.214 345.741 223.384C347.361 222.554 349.401 222.324 351.221 222.374C351.911 222.394 352.601 222.554 353.231 222.844C354.021 223.214 354.701 223.774 355.451 224.224C358.421 226.004 362.491 225.714 365.171 223.524C365.351 223.384 365.521 223.224 365.591 223.004C365.721 222.624 365.481 222.224 365.241 221.904C362.881 218.764 359.251 216.884 356.011 214.674C354.941 213.944 346.811 208.624 346.481 208.484C346.341 208.424 337.181 211.734 336.921 211.864C336.111 212.284 334.501 212.954 333.391 213.424V213.404Z" fill="#F0997A"/>
<path d="M410.351 187.944C408.501 190.624 394.451 210.204 394.451 210.204C394.451 210.204 374.141 213.094 369.781 213.394C363.771 213.814 360.321 211.654 357.271 209.784C352.901 207.104 352.151 207.324 349.481 207.394C347.831 207.434 343.811 207.114 343.671 207.104C343.061 207.074 342.581 207.334 342.001 207.534C341.711 207.634 340.521 208.104 340.231 208.214C338.571 208.864 337.591 209.354 335.941 210.004C335.431 210.204 334.921 210.404 334.461 210.714C334.361 210.784 334.261 210.854 334.221 210.964C334.141 211.174 334.291 211.404 334.451 211.564C335.231 212.314 336.381 212.554 337.461 212.464C338.531 212.374 339.561 212.004 340.581 211.664C341.211 211.454 341.541 211.294 342.821 210.874C343.141 210.774 343.511 210.714 344.421 210.874C348.771 211.634 349.581 212.144 351.891 212.904C348.921 213.804 347.251 213.954 345.141 213.564C343.031 213.174 342.981 215.594 345.541 216.804C348.491 218.194 350.741 217.114 354.611 219.044C358.471 220.974 358.041 225.744 363.801 225.494C366.241 225.314 369.181 224.654 373.231 225.084C378.791 225.684 396.121 227.504 399.571 227.384C407.111 227.134 407.401 226.364 414.891 213.314C425.461 194.894 427.021 191.294 427.021 191.294L427.721 174.874C422.521 175.364 417.671 177.314 410.351 187.944Z" fill="#FFBDA7"/>
<path d="M428.772 174.154C422.062 174.734 417.022 176.654 410.052 187.224C404.132 196.204 394.442 209.784 394.442 209.784L387.512 210.764C387.512 210.764 389.592 213.224 389.922 218.144C390.232 222.734 388.732 226.834 388.732 226.834C388.732 226.834 389.272 226.884 396.112 227.434C402.952 227.984 405.202 227.024 406.802 226.254C408.402 225.484 410.292 223.754 413.132 220.064C417.532 214.334 427.732 200.874 427.732 200.874L428.772 174.154Z" fill="#37474F"/>
<path d="M351.902 212.894C352.962 212.554 355.432 212.484 355.962 212.544C356.492 212.604 355.682 211.664 353.532 211.564C351.382 211.464 350.262 212.394 349.592 212.124L351.902 212.884V212.894Z" fill="#F0997A"/>
<path d="M434.67 405.734L437.35 389.044L416.98 385.744C416.98 385.744 417.1 399.044 416.66 405.114C416.45 407.974 414.18 413.264 414.18 413.264C414.18 413.264 422.03 417.954 426.31 416.444C430.59 414.934 433.72 408.374 433.68 407.144L434.67 405.734Z" fill="#CDCDCD"/>
<path d="M389.661 432.334C389.371 432.334 389.101 435.004 390.651 436.354C392.441 437.914 398.151 440.954 405.111 440.094C412.071 439.244 415.841 437.114 418.631 434.804C421.421 432.494 425.331 429.234 428.481 428.564C431.401 427.944 435.371 425.604 436.311 424.704C437.251 423.804 437.131 419.794 437.131 419.794L389.661 432.334Z" fill="url(#paint3_linear_7754_14610)"/>
<path d="M434.921 404.135C434.921 404.135 435.291 404.335 435.471 405.265C435.681 406.375 435.901 409.595 436.351 411.415C436.981 413.945 437.391 419.125 437.001 421.175C436.611 423.225 431.051 425.665 428.001 426.805C424.891 427.965 421.281 430.385 418.121 432.965C414.841 435.635 407.961 438.395 403.431 438.325C398.071 438.245 392.041 436.465 390.671 433.975C388.971 430.885 387.741 427.305 395.701 423.675C397.211 422.985 402.501 419.895 404.311 418.775C409.201 415.735 412.641 412.945 414.901 407.535C415.161 406.905 415.441 406.205 416.051 405.885C416.521 405.645 417.081 405.675 417.601 405.755C418.921 405.955 424.201 406.715 425.411 407.295C426.471 407.815 427.991 408.415 427.961 409.785C427.961 410.265 427.811 410.725 427.661 411.175C427.561 411.455 427.491 411.825 427.731 411.995C427.961 412.155 428.271 411.975 428.471 411.795C429.311 411.055 429.921 410.105 430.621 409.235C431.001 408.775 432.201 407.285 432.671 406.925C433.101 406.595 433.651 406.435 434.031 406.055C434.511 405.575 434.901 404.795 434.931 404.155L434.921 404.135Z" fill="url(#paint4_linear_7754_14610)"/>
<path d="M470.731 411.324L466.961 390.464L487.161 388.114L486.671 408.524C486.671 408.524 487.991 414.074 486.781 415.914C485.571 417.754 473.441 419.244 472.381 417.934C471.321 416.634 470.731 411.314 470.731 411.314V411.324Z" fill="#CDCDCD"/>
<path d="M471.441 443.965C471.781 448.625 472.621 451.655 474.501 454.255C476.381 456.845 479.881 457.425 483.411 456.325C486.941 455.225 491.451 452.705 492.431 448.585C493.411 444.465 493.181 441.715 492.341 437.435L471.441 443.975V443.965Z" fill="url(#paint5_linear_7754_14610)"/>
<path d="M486.67 408.524C488.13 408.504 487.59 412.134 488.03 418.414C488.5 425.204 491.3 430.635 492.15 436.095C493.12 442.335 492.78 445.194 490.34 449.215C487.91 453.244 479.2 457.715 474.84 452.595C471.29 448.425 471.1 443.485 471.37 437.155C471.64 430.604 471.9 425.995 471.56 421.065C471.23 416.355 469.47 411.945 470.73 411.315C470.83 412.005 471.88 416.804 472.7 416.754C472.77 416.144 472.75 415.584 472.7 414.974C472.66 414.444 472.7 413.854 473.09 413.414C473.48 412.974 474.89 412.454 475.48 412.304C476.91 411.934 479.46 411.494 480.92 411.264C481.65 411.144 482.37 411.054 483.1 411.004C483.69 410.964 484.39 410.944 484.95 411.084C485.29 411.174 485.61 411.364 485.74 411.664C485.84 411.884 485.82 412.134 485.82 412.384C485.82 412.824 485.89 413.254 486.01 413.664C486.07 413.844 486.21 414.064 486.42 414.004C486.59 413.954 486.65 413.754 486.65 413.604C486.65 412.844 486.69 408.944 486.66 408.544L486.67 408.524Z" fill="url(#paint6_linear_7754_14610)"/>
<path d="M481.122 240.164C483.252 259.874 484.642 270.824 484.152 296.644C483.962 306.434 484.312 317.304 484.412 327.094C484.442 329.874 484.112 333.144 484.572 335.894C485.422 340.974 485.932 344.134 486.812 350.364C487.342 354.134 487.602 358.924 487.862 362.724C488.252 368.424 487.692 374.224 488.892 379.814C489.342 381.914 490.032 383.974 490.232 386.114C490.332 387.264 490.282 388.454 489.972 389.574C489.652 390.704 487.622 393.394 487.272 394.414C486.752 395.904 487.232 398.134 487.232 399.734C487.232 399.734 476.662 404.994 468.602 402.134C468.222 400.714 468.112 398.364 467.312 397.194C466.742 396.354 464.162 394.344 463.452 393.514C462.702 392.644 462.142 391.604 461.852 390.484C461.452 388.934 461.562 387.304 461.412 385.704C461.072 381.934 459.352 378.454 458.132 374.864C454.852 365.204 455.422 354.934 453.392 345.044C450.652 331.694 449.342 323.244 447.792 313.744C446.242 304.234 442.312 332.684 442.312 332.694C442.082 334.314 442.492 336.244 442.562 337.874C442.702 341.254 442.612 344.574 443.052 347.904C444.022 355.304 443.822 362.854 442.442 370.184C441.722 374.044 441.092 376.694 441.302 380.624C441.422 382.934 441.832 384.974 440.932 387.094C440.282 388.624 438.622 391.164 437.812 392.584C437.482 393.164 437.462 397.794 437.102 398.014C437.102 398.014 425.932 404.444 417.532 397.514C417.412 396.164 416.662 393.504 416.102 392.314C414.652 390.784 413.292 387.874 413.132 385.564C412.972 383.394 413.642 381.804 413.652 379.624C413.662 376.954 413.212 374.304 412.922 371.644C412.502 367.854 412.422 364.034 412.482 360.234C412.542 356.924 413.092 353.414 412.582 350.164C411.732 344.764 411.622 339.044 411.452 333.564C410.792 312.024 413.672 268.324 414.952 240.534L481.132 240.154L481.122 240.164Z" fill="url(#paint7_linear_7754_14610)"/>
<path d="M487.461 400.404C483.891 403.324 475.741 405.494 468.501 402.944L466.961 396.784C472.421 398.574 481.271 397.674 487.241 393.824L487.461 400.414V400.404Z" fill="url(#paint8_linear_7754_14610)"/>
<path d="M437.102 398.744C434.682 401.264 423.272 402.454 416.572 398.504L416.102 392.314C421.182 395.154 432.862 395.544 437.812 392.584L437.112 398.734L437.102 398.744Z" fill="url(#paint9_linear_7754_14610)"/>
<path d="M478.562 177.845C478.562 177.845 488.052 184.985 487.002 200.505C486.202 212.385 483.172 225.465 482.872 230.555C482.412 238.355 483.102 257.015 483.102 257.015C471.462 271.205 420.132 267.945 413.902 255.195C413.902 255.195 415.192 214.895 417.782 195.385C419.142 185.165 424.812 177.035 428.582 174.165C428.582 174.165 432.582 173.275 441.332 172.665C446.692 172.295 462.012 173.265 462.012 173.265L478.552 177.855L478.562 177.845Z" fill="#F0F0F0"/>
<path d="M468.74 129.425C468.74 129.425 472.63 129.635 474.44 132.595C476.26 135.555 477.35 140.955 475.01 146.985C472.44 153.615 467.45 160.005 466.36 161.865C465.27 163.725 463.19 164.165 463.19 164.165L463.78 155.985L464.35 150.295C464.35 150.295 459.95 145.905 459.74 141.795C459.48 136.495 461.67 133.605 461.67 133.605L468.73 129.425H468.74Z" fill="url(#paint10_linear_7754_14610)"/>
<path d="M440.31 137.695C442.57 136.745 445.4 136.485 447.82 136.445C450.11 136.405 452.41 136.355 454.7 136.315C457.16 136.265 459.61 136.225 462.07 136.175C462.07 136.175 469.97 135.235 470.22 129.685C470.35 126.955 469.09 125.065 468.82 124.665C467.87 123.225 466.33 121.585 464.93 120.585C461.6 118.215 458.54 116.945 454.38 116.455C451.38 116.105 448.35 116.385 445.36 116.825C443.34 117.125 441.27 117.485 439.27 117.065C437.84 116.765 436.34 115.835 436.16 114.385C434.52 116.195 434.11 119.025 435.18 121.215C433.22 121.035 431.29 122.465 430.69 124.345C430.02 126.445 430.93 128.195 432.11 129.855C431.96 129.655 431.1 131.185 431.03 131.315C430.56 132.215 430.36 133.245 430.51 134.265C430.72 135.705 431.95 136.785 433.23 137.485C435.49 138.715 437.96 138.685 440.3 137.695H440.31Z" fill="url(#paint11_linear_7754_14610)"/>
<path d="M471.149 158.735C466.809 160.595 465.029 157.155 465.029 157.155L463.609 174.005C454.959 184.525 433.419 179.575 442.709 171.825L442.909 167.975C442.909 167.975 441.489 167.915 439.249 167.445C435.519 166.675 432.239 163.175 431.309 159.055C429.939 152.965 430.799 143.705 433.549 133.575C434.079 131.615 435.029 129.495 436.889 128.685C441.499 126.665 445.519 130.075 451.679 132.815C454.229 133.945 460.519 134.685 462.219 133.985C459.919 136.305 459.579 143.945 462.659 147.195C463.179 148.295 463.739 148.955 464.179 149.375C465.499 150.635 466.769 147.605 467.979 146.445C469.199 145.305 473.579 144.425 475.259 148.485C476.959 152.615 475.179 157.005 471.159 158.735H471.149Z" fill="#CDCDCD"/>
<path d="M442.91 167.974C447.84 168.174 452.24 167.774 455.2 166.674C458.16 165.584 460.92 161.774 461.95 157.904C461.8 161.044 460.17 166.544 455.65 168.654C451.14 170.764 446 170.644 442.77 170.564L442.9 167.964L442.91 167.974Z" fill="#A3A3A3"/>
<path d="M331.451 176.344C333.131 175.454 335.571 175.614 338.461 177.284C344.031 180.494 381.071 201.844 381.071 201.844L394.551 194.064C394.551 194.064 357.491 172.704 351.921 169.504C348.941 167.774 346.431 167.664 344.751 168.654C343.331 169.484 333.561 175.084 331.441 176.344H331.451Z" fill="url(#paint12_linear_7754_14610)"/>
<path d="M367.861 280.135C367.881 282.095 367.961 284.225 368.051 286.215C368.121 287.835 368.191 289.345 368.251 290.575C368.321 291.825 368.361 292.795 368.361 293.305C368.361 293.515 368.291 293.665 368.161 293.785C369.081 293.245 381.381 286.165 381.571 286.035C381.731 285.925 381.821 285.755 381.821 285.525C381.821 285.025 381.781 284.045 381.711 282.795C381.661 281.555 381.581 280.045 381.511 278.425C381.421 276.445 381.351 274.315 381.321 272.355C381.281 269.215 381.391 266.525 381.811 265.575C381.941 265.255 382.231 264.775 382.621 264.175C383.171 263.415 383.901 262.445 384.751 261.385C388.551 256.565 394.551 249.765 394.551 249.765V249.715L381.071 257.495V257.565C381.071 257.565 375.091 264.345 371.281 269.155C370.441 270.235 369.701 271.205 369.151 271.965C368.761 272.565 368.471 273.045 368.341 273.365C367.911 274.315 367.801 277.005 367.851 280.145L367.861 280.135Z" fill="url(#paint13_linear_7754_14610)"/>
<path d="M381.582 202.135L394.062 194.925V249.415L381.582 256.625V202.135Z" fill="#455A64"/>
<path d="M393.562 195.794V249.124L382.082 255.754V202.424L393.562 195.794ZM394.562 194.064L381.082 201.844V257.484L394.562 249.704V194.064Z" fill="#455A64"/>
<path d="M381.082 257.485L394.552 249.705V194.055L381.082 201.845V257.485Z" fill="url(#paint14_linear_7754_14610)"/>
<path d="M367.54 293.414C367.45 293.414 367.36 293.414 367.26 293.394C365.11 293.074 360.49 289.914 357.39 284.824C356.32 283.054 355.52 281.254 354.94 279.304C353.65 274.974 352.82 271.134 352.39 267.554C351.75 262.304 352.02 257.644 353.24 252.894L353.34 252.494L327.22 237.434C325.37 236.374 323.71 234.674 322.42 232.514C320.62 229.534 319.82 226.174 319.82 224.154C319.79 219.154 322.62 218.464 323.49 218.374L324.73 218.244L323.79 217.434C323.79 217.434 318.83 213.074 318.83 206.524C318.83 203.944 320.03 201.344 322.72 201.344C323.25 201.344 323.81 201.444 324.4 201.644L325.66 202.064L325.05 200.884C325.05 200.884 323.41 197.674 323.41 193.064C323.41 190.924 325.34 188.444 327.82 188.444C328.5 188.444 329.18 188.634 329.84 189.014L331.03 189.694L330.62 188.384C330.62 188.384 329.55 184.884 329.55 181.144C329.54 179.154 330.26 177.634 331.6 176.864C332.22 176.514 332.94 176.334 333.76 176.334C335.08 176.334 336.62 176.824 338.2 177.734L380.55 202.134V257.324C379.64 258.364 374.33 264.424 370.87 268.794L370.75 268.944C370 269.904 369.29 270.844 368.73 271.624C368.28 272.304 368 272.794 367.86 273.134C367.45 274.044 367.27 276.344 367.33 280.134C367.35 281.824 367.41 283.824 367.52 286.224C367.56 287.264 367.61 288.254 367.65 289.164L367.72 290.594C367.77 291.564 367.83 292.744 367.83 293.294C367.81 293.364 367.73 293.404 367.55 293.404L367.54 293.414Z" fill="url(#paint15_linear_7754_14610)"/>
<path d="M333.751 176.885C334.981 176.885 336.421 177.345 337.931 178.215C343.101 181.195 375.441 199.825 380.011 202.455V257.135C378.801 258.515 373.771 264.275 370.451 268.475L370.221 268.775C369.511 269.675 368.831 270.565 368.271 271.355C367.811 272.055 367.521 272.555 367.371 272.905C367.081 273.545 366.711 274.985 366.781 280.135C366.801 281.825 366.861 283.825 366.971 286.245C367.011 287.295 367.061 288.295 367.101 289.205L367.171 290.625C367.211 291.365 367.251 292.235 367.271 292.835C365.531 292.525 361.071 289.835 357.841 284.535C356.791 282.805 356.011 281.045 355.441 279.135C354.161 274.835 353.331 271.025 352.911 267.475C352.281 262.295 352.541 257.705 353.751 253.015L353.951 252.225L353.241 251.815L327.471 236.955C325.701 235.945 324.111 234.315 322.861 232.225C321.121 229.345 320.341 226.085 320.341 224.145C320.311 219.595 322.771 218.985 323.531 218.905L325.991 218.645L324.121 217.025C324.121 217.025 319.341 212.815 319.341 206.525C319.341 204.385 320.221 201.875 322.691 201.875C323.161 201.875 323.671 201.965 324.201 202.145L326.711 202.975L325.501 200.625C325.501 200.625 323.921 197.515 323.921 193.055C323.921 191.165 325.611 188.975 327.791 188.975C328.381 188.975 328.971 189.145 329.541 189.475L331.911 190.845L331.101 188.225C331.101 188.225 330.051 184.805 330.051 181.135C330.041 179.345 330.671 177.995 331.831 177.325C332.361 177.015 333.001 176.865 333.721 176.865M333.751 175.805C332.821 175.805 332.011 176.015 331.331 176.405C329.851 177.255 329.001 178.955 329.011 181.155C329.011 185.035 330.111 188.555 330.111 188.555C329.341 188.105 328.561 187.915 327.821 187.915C325.111 187.915 322.871 190.545 322.871 193.065C322.871 197.875 324.571 201.125 324.571 201.125C323.911 200.905 323.291 200.805 322.721 200.805C319.921 200.805 318.301 203.295 318.301 206.525C318.301 213.415 323.451 217.845 323.451 217.845C322.061 217.995 319.261 219.115 319.301 224.165C319.301 226.295 320.121 229.725 321.971 232.795C323.161 234.795 324.831 236.685 326.971 237.905L352.731 252.765C351.551 257.355 351.181 262.085 351.861 267.625C352.281 271.175 353.111 275.065 354.421 279.465C355.041 281.565 355.911 283.435 356.931 285.115C360.231 290.535 364.981 293.605 367.181 293.935C367.311 293.955 367.431 293.965 367.541 293.965C368.061 293.965 368.361 293.745 368.361 293.315C368.361 292.815 368.321 291.835 368.251 290.595C368.201 289.355 368.121 287.845 368.051 286.225C367.961 284.235 367.891 282.115 367.861 280.145C367.821 277.005 367.931 274.315 368.351 273.365C368.481 273.045 368.771 272.565 369.161 271.965C369.711 271.205 370.441 270.235 371.291 269.175C375.091 264.355 381.081 257.565 381.081 257.565V201.855C381.081 201.855 344.031 180.505 338.461 177.305C336.701 176.285 335.101 175.825 333.751 175.825V175.805Z" fill="#6F757C"/>
<path d="M387.21 206.614C387.21 205.814 387.49 204.964 387.93 204.184C388.38 203.424 388.99 202.744 389.67 202.344L398.23 197.404C399.59 196.624 401.77 196.624 403.14 197.404H403.16L416.82 205.304C417.5 205.704 418.13 206.384 418.56 207.144C419 207.924 419.28 208.794 419.28 209.574V268.664C419.28 270.234 418.18 272.154 416.82 272.924L408.26 277.864C407.58 278.264 406.69 278.454 405.8 278.454C404.91 278.454 404.04 278.264 403.36 277.884C403.36 277.864 403.34 277.864 403.34 277.864L389.64 269.944C388.28 269.164 387.18 267.274 387.18 265.704V265.684L387.22 206.614H387.21Z" fill="url(#paint16_linear_7754_14610)"/>
<path d="M405.799 214.515V278.455C406.689 278.455 407.579 278.265 408.259 277.865L416.819 272.925C418.179 272.145 419.279 270.235 419.279 268.665V209.575C419.279 208.795 418.999 207.925 418.559 207.145L405.789 214.515H405.799Z" fill="url(#paint17_linear_7754_14610)"/>
<path d="M387.93 204.194L405.8 214.524L418.57 207.154C418.13 206.394 417.51 205.714 416.83 205.314L403.17 197.414H403.15C401.79 196.634 399.61 196.634 398.24 197.414L389.68 202.354C389 202.754 388.39 203.434 387.94 204.194H387.93Z" fill="url(#paint18_linear_7754_14610)"/>
<path d="M479.211 178.585C488.141 180.685 491.351 188.605 488.131 198.545C485.301 207.255 469.581 228.835 467.521 232.465C465.471 236.105 463.551 237.505 457.511 241.015C451.471 244.525 435.161 251.865 430.431 254.125C425.701 256.375 422.931 259.675 418.521 262.465C414.121 265.255 407.611 265.975 404.281 265.865C402.801 265.815 401.221 264.835 399.741 263.465C397.381 263.175 396.951 262.295 396.991 261.485C394.941 261.475 394.011 261.055 394.571 259.565C395.741 256.445 401.241 256.155 406.051 254.395C410.641 252.705 414.081 250.155 412.801 249.695C410.211 248.755 406.441 250.855 402.491 249.265C400.171 248.335 400.291 246.395 401.321 246.285C403.231 246.085 406.791 244.335 411.401 243.515C415.611 242.765 421.141 243.715 424.061 242.045C430.891 238.125 451.061 224.005 451.061 224.005L468.581 194.595C468.581 194.595 471.201 182.885 479.211 178.595V178.585Z" fill="#CDCDCD"/>
<path d="M444.02 228.875L450.74 223.685L467.61 194.555C467.61 194.555 471.48 180.725 478.57 177.835C485.56 179.555 488.48 183.135 489.83 186.175C490.68 188.085 492.92 196.895 488.28 205.445C482.86 215.425 473.77 227.825 470.32 232.335C467.75 235.695 465.55 236.755 461.13 239.225C456.7 241.695 453.39 243.225 453.39 243.225C448.17 239.795 444.72 235.225 444.03 228.865L444.02 228.875Z" fill="#37474F"/>
<path d="M166.129 428.404L169.959 426.774L166.339 425.534L166.129 428.404Z" fill="#263238"/>
<path d="M202.709 437.404C202.709 437.404 159.849 414.944 159.139 417.894C158.979 418.544 158.969 419.134 159.059 419.684C159.029 419.624 158.979 419.574 158.949 419.514L159.449 425.124C159.449 425.124 162.439 428.004 166.129 428.394C166.149 428.124 166.269 426.474 166.339 425.524C167.509 426.094 168.699 426.764 170.099 427.814C172.809 429.854 174.439 433.234 177.219 437.214C179.239 440.114 183.059 441.634 188.769 442.784C194.919 444.024 200.449 443.134 202.079 441.544C203.379 440.274 202.909 437.784 202.709 437.384V437.404Z" fill="url(#paint19_linear_7754_14610)"/>
<path d="M201.569 436.063C201.169 435.593 199.699 433.763 197.689 431.753C195.929 429.993 193.879 427.773 191.649 425.953C190.759 425.223 187.239 421.383 186.609 420.443C184.649 417.523 182.499 414.643 181.209 411.373C180.599 409.823 180.169 407.993 180.529 402.273C181.039 394.293 181.349 392.503 181.729 386.423L159.509 384.943C159.929 388.343 160.869 393.113 161.349 397.723C161.949 403.543 163.829 404.203 161.239 409.883C160.479 411.553 159.389 413.143 159.209 414.973C158.899 417.943 161.079 420.643 163.599 422.253C165.689 423.583 168.139 424.243 170.159 425.643C172.279 427.123 173.879 429.263 175.329 431.363C176.699 433.353 177.759 435.673 179.769 437.123C181.989 438.733 184.159 439.323 186.799 440.023C189.829 440.823 193.769 441.113 196.399 441.053C200.989 440.953 204.479 439.473 201.589 436.053L201.569 436.063Z" fill="#CDCDCD"/>
<path d="M199.22 432.914C197.42 431.204 194.86 428.754 191.76 425.984C191.06 425.574 188.2 424.714 184.9 426.224C178.17 429.314 176.78 434.144 176.78 434.144C176.78 434.144 178 437.534 181.85 439.144C189.21 442.884 202.78 442.604 203.11 439.114C203.32 436.894 201.41 435.004 199.22 432.924V432.914ZM161.72 408.894C161.72 408.894 161.22 410.014 159.94 412.204C158.66 414.394 158.32 416.624 159.62 418.954C161.35 422.034 163.63 423.084 165.98 423.854C168.45 417.334 164.26 410.484 161.72 408.904V408.894Z" fill="url(#paint20_linear_7754_14610)"/>
<path d="M123.95 414.244C125.06 416.254 122.91 426.104 122.8 431.204C122.69 435.844 122.68 444.144 120.79 448.554C118.55 453.784 114.38 459.694 107.97 453.984C103.99 450.444 101.9 446.164 101.85 439.474C101.82 434.824 104.31 428.634 106.46 423.134C108.97 416.714 110.01 413.254 110.01 413.254L123.95 414.244Z" fill="url(#paint21_linear_7754_14610)"/>
<path d="M112.041 381.914C110.691 392.624 110.681 398.744 110.201 405.644C109.871 408.844 109.501 411.784 108.521 416.354C107.581 420.754 105.701 426.654 104.781 429.434C103.491 433.324 102.561 435.764 103.681 440.364C103.771 440.724 103.911 441.074 104.081 441.414C105.851 445.294 110.881 448.564 112.591 448.284C113.001 449.054 114.161 449.604 115.471 449.524C115.661 449.514 115.851 449.484 116.041 449.454C116.231 449.414 116.421 449.364 116.621 449.294C117.781 448.894 118.921 447.934 119.691 446.184C119.821 445.894 119.931 445.574 120.041 445.234C121.711 439.814 121.631 436.254 121.691 434.084C121.761 431.574 122.151 427.194 122.711 423.184C123.271 419.174 126.291 408.204 127.951 402.184C129.321 397.204 132.001 386.974 132.001 386.974L112.041 381.914Z" fill="#CDCDCD"/>
<path d="M103.339 434.524C107.619 433.224 119.939 434.334 121.419 439.954C121.059 445.074 120.509 448.344 116.679 452.464C111.589 457.944 106.069 451.094 104.079 446.894C102.089 442.694 102.559 437.234 103.339 434.534V434.524Z" fill="url(#paint22_linear_7754_14610)"/>
<path d="M127.279 240.424C122.969 250.954 118.889 262.554 118.219 284.854C117.329 314.264 115.959 324.894 115.669 328.434C115.179 334.474 112.579 339.944 109.769 357.294C106.969 374.634 108.449 406.474 108.449 406.474C108.449 406.474 112.549 410.494 119.189 411.474C125.309 412.374 127.999 409.974 127.999 409.974C127.999 409.974 139.639 363.044 142.579 352.664C145.509 342.284 154.269 308.124 154.269 308.124L157.729 336.844C157.729 336.844 154.269 345.894 155.269 361.304C156.269 376.714 161.719 405.554 161.719 405.554C161.719 405.554 164.979 408.044 171.599 407.714C178.239 407.384 180.859 405.104 180.859 405.104C180.859 405.104 186.789 347.914 187.779 330.574C188.769 313.234 191.199 267.594 184.859 240.424H127.269H127.279Z" fill="url(#paint23_linear_7754_14610)"/>
<path d="M264.649 176.704C265.889 176.544 266.019 177.724 265.199 178.534C263.239 180.444 259.909 180.044 258.259 180.774C257.869 180.994 253.119 184.654 252.889 185.884C254.179 185.434 258.149 183.694 259.459 183.314C259.839 183.204 260.909 183.094 264.179 182.774C264.679 182.724 265.469 182.604 265.879 182.774C266.259 182.924 266.589 183.774 265.809 184.524C264.419 185.864 262.099 185.614 260.249 186.184C259.349 186.434 256.529 187.394 255.569 189.074C258.289 188.534 259.989 188.774 264.039 189.494C264.509 189.574 264.579 189.834 264.529 190.144C264.459 190.594 264.059 191.064 263.519 191.294C262.329 191.804 260.719 191.424 258.899 191.504C257.079 191.594 255.199 192.414 253.639 193.364C253.049 193.724 252.529 194.204 252.129 194.774C251.629 195.484 251.319 196.314 250.899 197.084C249.219 200.104 245.539 201.884 242.129 201.324C241.909 201.284 241.669 201.234 241.499 201.084C241.199 200.824 241.209 200.354 241.259 199.964C241.739 196.064 243.939 192.634 245.649 189.084C246.209 187.924 250.599 179.244 250.809 178.964C250.899 178.844 260.489 177.134 260.789 177.124C261.709 177.084 263.429 176.864 264.629 176.714L264.649 176.704Z" fill="#9A4A4D"/>
<path d="M185.899 188.894C188.659 190.634 210.129 204.384 210.129 204.384C210.129 204.384 229.169 196.754 233.099 194.834C238.519 192.194 240.429 188.604 242.139 185.464C244.589 180.964 245.349 180.784 247.699 179.514C249.149 178.724 252.469 176.444 252.589 176.364C253.109 176.034 253.659 176.024 254.249 175.904C254.549 175.844 255.819 175.654 256.119 175.614C257.879 175.354 258.979 175.284 260.729 175.024C261.269 174.944 261.819 174.864 262.359 174.894C262.479 174.894 262.599 174.914 262.689 174.994C262.869 175.134 262.849 175.404 262.779 175.624C262.479 176.654 261.599 177.444 260.629 177.904C259.659 178.364 258.579 178.554 257.519 178.774C256.869 178.904 256.499 178.934 255.189 179.204C254.859 179.274 254.509 179.404 253.799 179.994C250.409 182.824 249.959 183.674 248.339 185.484C251.359 184.784 252.879 184.074 254.519 182.684C256.159 181.294 257.399 183.374 255.789 185.694C253.929 188.374 251.429 188.564 249.049 192.164C246.669 195.764 249.419 199.684 244.299 202.344C242.099 203.414 239.219 204.294 235.919 206.694C231.399 209.984 217.289 220.214 214.239 221.834C207.579 225.384 206.939 224.854 193.939 217.284C175.589 206.594 172.439 204.254 172.439 204.254L169.459 180.574C174.679 182.084 176.609 183.044 185.879 188.894H185.899Z" fill="#CDCDCD"/>
<path d="M167.359 179.374C171.719 179.924 174.579 179.924 183.979 185.944C193.039 191.734 210.099 203.934 210.099 203.934L216.589 201.324C216.589 201.324 216.009 204.494 218.179 208.924C220.199 213.054 223.549 215.864 223.549 215.864C223.549 215.864 223.109 216.184 217.449 220.064C211.799 223.954 209.369 224.244 207.599 224.374C205.829 224.504 203.819 223.134 199.729 220.924C195.639 218.714 172.249 206.884 172.249 206.884L167.359 179.384V179.374Z" fill="url(#paint24_linear_7754_14610)"/>
<path d="M248.36 185.494C247.27 185.724 245.1 186.904 244.67 187.214C244.24 187.534 244.47 186.314 246.29 185.154C248.1 183.994 249.54 184.234 249.98 183.674L248.36 185.484V185.494Z" fill="#9A4A4D"/>
<path d="M121.271 255.434C123.661 245.344 126.741 238.954 126.561 236.754C125.791 227.194 119.051 215.804 117.841 210.304C115.191 198.324 121.541 187.284 124.191 184.704C124.191 184.704 129.271 182.794 132.711 181.714C134.781 181.064 138.471 180.214 141.641 179.544C148.691 178.044 151.661 177.914 154.341 178.004C155.661 178.044 161.951 178.684 161.951 178.684C163.861 178.994 167.341 179.374 167.351 179.384C167.351 179.384 171.891 182.594 176.421 189.504C179.871 194.774 181.941 199.244 183.301 210.954C185.031 225.864 187.141 242.534 187.871 252.974C176.011 261.454 137.921 263.654 121.271 255.444V255.434Z" fill="#F5F5F5"/>
<path d="M126.079 136.044C125.009 137.074 124.189 138.354 123.909 139.794C123.529 141.734 124.129 143.774 123.669 145.694C122.879 148.984 119.169 151.204 119.059 154.584C118.929 158.434 123.599 161.474 122.799 165.234C122.429 166.974 120.899 168.364 120.819 170.144C120.719 172.234 122.599 173.834 124.359 174.974C123.889 173.924 123.779 172.704 124.059 171.594C125.199 173.304 126.589 174.904 128.419 175.834C130.249 176.764 132.569 176.914 134.299 175.804C134.489 175.684 134.699 175.534 134.929 175.544C135.239 175.544 135.479 175.824 135.679 176.054C139.119 179.904 145.199 178.754 149.699 178.524C151.809 178.414 153.939 178.304 155.939 177.634C157.649 177.064 159.199 176.094 160.689 175.084C160.879 174.954 161.079 174.824 161.309 174.774C161.549 174.724 161.789 174.774 162.029 174.814C163.369 175.034 164.749 175.024 166.089 174.774C167.709 174.474 168.529 173.684 169.629 172.574C170.209 171.984 170.699 171.354 170.999 170.574C171.059 170.404 171.509 168.444 171.249 168.454C172.419 168.434 173.619 168.404 174.719 167.984C175.819 167.564 176.799 166.664 176.999 165.514C175.729 166.694 173.459 165.864 172.689 164.304C171.919 162.754 172.279 160.874 172.899 159.264C173.519 157.644 174.399 156.104 174.669 154.394C174.939 152.684 174.409 150.674 172.879 149.874C173.979 149.744 175.129 149.584 176.019 148.934C176.909 148.284 177.409 146.954 176.789 146.034C176.379 146.884 175.069 146.944 174.369 146.314C173.669 145.684 173.499 144.634 173.609 143.704C173.719 142.764 174.069 141.874 174.229 140.944C174.589 138.854 173.999 136.664 172.819 134.894C171.639 133.134 169.909 131.784 168.019 130.824C166.779 130.204 165.439 129.724 164.409 128.794C163.169 127.664 162.399 126.114 161.079 125.064C159.719 123.994 157.949 123.304 156.309 122.794C152.729 121.684 148.829 121.584 145.209 122.564C139.959 123.984 135.359 127.674 132.829 132.494C130.939 133.184 129.029 133.884 127.369 135.034C126.929 135.344 126.499 135.684 126.109 136.064L126.079 136.044Z" fill="url(#paint25_linear_7754_14610)"/>
<path d="M134.19 166.344C131.94 166.924 129.7 165.974 128.21 164.584C124.9 161.494 124.37 158.144 125.64 155.794C126.68 153.864 129.49 152.474 131.61 153.574C133.88 154.754 134.02 155.834 134.95 157.284C135.9 158.774 137.9 157.404 136.76 151.394C140.83 149.144 139.66 142.254 141.73 139.264C144.98 134.574 150.93 135.304 152.92 136.204C154.52 134.724 157.88 133.814 160.88 135.124C163.82 136.404 165.93 139.404 167.71 150.104C169.52 161.014 168.12 168.464 165.7 170.984C164.04 172.714 160.81 174.034 156.86 174.094L157.18 178.234C157.18 178.234 169.38 189.054 154.81 189.044C143.9 189.044 137.74 181.094 137.74 181.094L136.45 164.454C136.45 164.454 136.31 165.794 134.18 166.354L134.19 166.344Z" fill="#CDCDCD"/>
<path d="M156.88 174.105C151.2 174.305 143.46 172.875 141.16 169.425C142.57 173.215 146.71 174.935 149.96 175.575C153.91 176.365 156.99 176.255 156.99 176.255L156.88 174.095V174.105Z" fill="#A3A3A3"/>
<path d="M259.599 157.464C255.189 155.304 248.179 160.364 248.179 162.464L234.689 154.884C234.689 152.724 242.269 147.304 246.639 150.164L259.599 157.454V157.464Z" fill="#FFC78D"/>
<path d="M294.569 169.385V169.405C293.379 168.785 291.709 168.815 289.569 170.065L263.799 184.955C264.989 178.985 265.349 173.855 264.669 169.095L276.109 162.465C278.479 161.085 280.259 161.195 281.489 162.025L294.559 169.375L294.569 169.385Z" fill="#FFC78D"/>
<path d="M235.41 268.634L221.92 260.854V205.204L235.41 212.994V268.634Z" fill="#73522A"/>
<path d="M248.17 182.415C247.09 186.295 235.4 212.985 235.4 212.985L221.92 205.195C221.92 205.195 233.58 178.695 234.72 174.835C235.8 170.965 234.68 157.465 234.68 154.885L248.17 162.465C248.17 165.065 249.31 178.565 248.17 182.415Z" fill="#FFC78D"/>
<path d="M235.909 213.094C236.449 211.854 242.099 198.904 245.699 190.204L245.739 190.114C246.569 188.104 247.289 186.314 247.829 184.934C248.259 183.794 248.529 183.014 248.659 182.554C249.049 181.234 249.219 178.704 249.169 175.064C249.149 173.404 249.089 171.484 248.979 169.184C248.939 168.184 248.889 167.244 248.849 166.384L248.789 165.044C248.739 164.134 248.679 163.024 248.679 162.474C248.679 162.184 248.949 161.604 249.719 160.844C251.399 159.154 254.499 157.454 257.189 157.454C258.009 157.454 258.749 157.614 259.389 157.924C260.379 158.414 261.119 159.234 261.659 160.434C262.939 163.244 263.769 166.104 264.179 169.174C264.819 173.684 264.549 178.664 263.319 184.864L263.099 185.944L289.819 170.504C290.939 169.844 291.969 169.514 292.879 169.514C293.409 169.514 293.899 169.634 294.329 169.854C295.989 170.694 296.729 173.014 296.729 174.954C296.769 180.334 293.369 184.894 292.689 185.754L291.719 186.984L293.219 186.554C293.219 186.554 293.649 186.434 294.229 186.434C295.819 186.434 297.729 187.304 297.729 191.444C297.729 194.964 295.589 200.454 291.629 203.704L291.139 204.104L291.639 204.484C291.639 204.484 293.139 205.754 293.139 210.194C293.139 213.204 289.619 220.624 286.159 222.624L285.759 222.854L285.959 223.274C285.959 223.274 287.009 225.494 287.009 229.194C287.039 233.554 283.349 240.364 277.799 243.554C272.699 246.504 241.179 264.734 235.889 267.784V213.114L235.909 213.094Z" fill="#FDA53E"/>
<path d="M257.18 157.944C257.92 157.944 258.59 158.084 259.16 158.364C260.04 158.804 260.71 159.544 261.2 160.634C262.46 163.394 263.27 166.214 263.68 169.234C264.32 173.684 264.04 178.614 262.82 184.754L262.39 186.924L264.3 185.824L290.07 170.934C291.11 170.324 292.06 170.014 292.88 170.014C293.33 170.014 293.74 170.114 294.11 170.304C295.58 171.044 296.23 173.174 296.23 174.964C296.26 180.174 292.96 184.614 292.29 185.444L290.37 187.864L293.35 187.024C293.35 187.024 293.72 186.924 294.23 186.924C296.22 186.924 297.23 188.444 297.23 191.434C297.23 194.834 295.16 200.154 291.32 203.304L290.32 204.084L291.33 204.854C291.33 204.854 292.66 206.064 292.66 210.184C292.66 213.014 289.2 220.294 285.93 222.184L285.13 222.654L285.53 223.484C285.53 223.484 286.53 225.624 286.53 229.194C286.56 233.414 282.97 240.004 277.57 243.114C272.68 245.944 243.41 262.864 236.41 266.914V213.214C237.15 211.514 242.64 198.934 246.16 190.414L246.23 190.224C246.99 188.394 247.71 186.594 248.29 185.124C248.72 183.974 248.99 183.184 249.12 182.724C249.53 181.324 249.71 178.824 249.65 175.074C249.63 173.414 249.57 171.484 249.46 169.184C249.42 168.184 249.37 167.244 249.33 166.384L249.26 165.034C249.21 164.134 249.15 163.044 249.15 162.494C249.15 162.384 249.33 161.924 250.04 161.214C251.64 159.604 254.6 157.974 257.15 157.974M257.18 156.944C254.28 156.944 251.05 158.774 249.36 160.484C248.63 161.214 248.18 161.944 248.18 162.464C248.18 162.984 248.22 163.884 248.29 165.064C248.34 166.234 248.42 167.664 248.49 169.204C248.58 171.084 248.65 173.124 248.68 175.064C248.72 178.154 248.61 180.974 248.19 182.414C248.06 182.884 247.77 183.694 247.38 184.744C246.83 186.134 246.1 187.954 245.25 189.994C241.45 199.214 235.42 212.984 235.42 212.984V268.634C235.42 268.634 272.51 247.194 278.08 243.964C283.66 240.754 287.57 233.814 287.54 229.174C287.54 225.294 286.44 223.034 286.44 223.034C290.06 220.944 293.67 213.384 293.67 210.174C293.67 205.364 291.97 204.074 291.97 204.074C295.89 200.854 298.25 195.314 298.25 191.424C298.25 186.644 295.77 185.914 294.25 185.914C293.58 185.914 293.09 186.054 293.09 186.054C294.48 184.304 297.28 179.954 297.24 174.944C297.24 172.814 296.42 170.334 294.57 169.404C294.09 169.154 293.52 169.004 292.89 169.004C291.95 169.004 290.85 169.314 289.58 170.064L263.82 184.954C265 178.994 265.37 173.854 264.69 169.094C264.27 166.024 263.44 163.104 262.13 160.214C261.51 158.834 260.64 157.964 259.62 157.464C258.87 157.094 258.05 156.944 257.2 156.944H257.18Z" fill="#FDA53E"/>
<path d="M229.259 217.765C229.259 216.965 228.979 216.115 228.539 215.335C228.089 214.575 227.479 213.895 226.799 213.495L218.239 208.555C216.879 207.775 214.699 207.775 213.329 208.555H213.309L199.649 216.455C198.969 216.855 198.339 217.535 197.909 218.295C197.469 219.075 197.189 219.945 197.189 220.725V279.815C197.189 281.385 198.289 283.305 199.649 284.075L208.209 289.015C208.889 289.415 209.779 289.605 210.669 289.605C211.559 289.605 212.429 289.415 213.109 289.035C213.109 289.015 213.129 289.015 213.129 289.015L226.829 281.095C228.189 280.315 229.289 278.425 229.289 276.855V276.835L229.249 217.765H229.259Z" fill="#FDA53E"/>
<path opacity="0.2" d="M210.679 225.664V289.604C209.789 289.604 208.899 289.414 208.219 289.014L199.659 284.074C198.299 283.294 197.199 281.384 197.199 279.814V220.724C197.199 219.944 197.479 219.074 197.919 218.294L210.689 225.664H210.679Z" fill="black"/>
<path opacity="0.3" d="M228.54 215.335L210.67 225.665L197.9 218.295C198.34 217.535 198.96 216.855 199.64 216.455L213.3 208.555H213.32C214.68 207.775 216.86 207.775 218.23 208.555L226.79 213.495C227.47 213.895 228.08 214.575 228.53 215.335H228.54Z" fill="white"/>
<path d="M123.66 185.544C115.16 188.994 113.2 197.314 117.92 206.644C122.05 214.814 140.92 233.714 143.51 236.984C146.1 240.264 148.21 241.354 154.71 243.894C161.22 246.434 178.47 251.174 183.49 252.674C188.51 254.174 191.76 257.004 196.54 259.084C201.32 261.164 207.86 260.874 211.13 260.254C212.58 259.984 213.99 258.764 215.25 257.184C217.54 256.534 217.83 255.594 217.66 254.804C219.69 254.474 220.54 253.924 219.76 252.534C218.13 249.634 212.64 250.194 207.62 249.194C202.83 248.234 199.03 246.244 200.23 245.584C202.65 244.254 206.69 245.754 210.35 243.574C212.5 242.294 212.08 240.394 211.05 240.444C209.13 240.534 205.35 239.364 200.66 239.264C196.39 239.174 191.07 240.964 187.93 239.754C180.58 236.934 158.47 226.084 158.47 226.084L136.63 199.724C136.63 199.724 132.24 188.554 123.66 185.554V185.544Z" fill="#CDCDCD"/>
<path d="M166.18 229.814L158.74 225.714L137.59 199.534C137.59 199.534 131.63 186.464 124.19 184.704C117.55 187.484 115.22 191.464 114.35 194.684C113.81 196.694 112.94 205.754 118.85 213.484C125.75 222.514 136.64 233.364 140.74 237.284C143.8 240.204 146.13 240.914 150.89 242.684C155.65 244.444 159.15 245.444 159.15 245.444C163.77 241.254 166.49 236.204 166.19 229.814H166.18Z" fill="url(#paint26_linear_7754_14610)"/>
</g>
<defs>
<linearGradient id="paint0_linear_7754_14610" x1="317.902" y1="-1.21143" x2="317.902" y2="406.789" gradientUnits="userSpaceOnUse">
<stop stop-color="#E5EDF3" stop-opacity="0.5"/>
<stop offset="1" stop-color="#1F232A" stop-opacity="0"/>
</linearGradient>
<linearGradient id="paint1_linear_7754_14610" x1="144.311" y1="397.422" x2="144.311" y2="477.457" gradientUnits="userSpaceOnUse">
<stop stop-color="#E5EDF3" stop-opacity="0.2"/>
<stop offset="1" stop-color="#1F232A" stop-opacity="0"/>
</linearGradient>
<linearGradient id="paint2_linear_7754_14610" x1="448.484" y1="397.422" x2="448.484" y2="477.457" gradientUnits="userSpaceOnUse">
<stop stop-color="#E5EDF3" stop-opacity="0.2"/>
<stop offset="1" stop-color="#1F232A" stop-opacity="0"/>
</linearGradient>
<linearGradient id="paint3_linear_7754_14610" x1="413" y1="445.895" x2="402.5" y2="415.395" gradientUnits="userSpaceOnUse">
<stop stop-color="#E5EDF3"/>
<stop offset="1" stop-color="#1F232A"/>
</linearGradient>
<linearGradient id="paint4_linear_7754_14610" x1="396.5" y1="505.895" x2="417" y2="401.395" gradientUnits="userSpaceOnUse">
<stop stop-color="#E5EDF3"/>
<stop offset="1" stop-color="#1F232A"/>
</linearGradient>
<linearGradient id="paint5_linear_7754_14610" x1="489" y1="455.895" x2="482" y2="427.895" gradientUnits="userSpaceOnUse">
<stop stop-color="#E5EDF3"/>
<stop offset="1" stop-color="#1F232A"/>
</linearGradient>
<linearGradient id="paint6_linear_7754_14610" x1="474.5" y1="488.895" x2="477.5" y2="404.395" gradientUnits="userSpaceOnUse">
<stop stop-color="#E5EDF3"/>
<stop offset="1" stop-color="#1F232A"/>
</linearGradient>
<linearGradient id="paint7_linear_7754_14610" x1="451" y1="643.395" x2="436.5" y2="239.895" gradientUnits="userSpaceOnUse">
<stop stop-color="#E5EDF3"/>
<stop offset="1" stop-color="#1F232A"/>
</linearGradient>
<linearGradient id="paint8_linear_7754_14610" x1="479.5" y1="429.895" x2="475.5" y2="390.395" gradientUnits="userSpaceOnUse">
<stop stop-color="#E5EDF3"/>
<stop offset="1" stop-color="#1F232A"/>
</linearGradient>
<linearGradient id="paint9_linear_7754_14610" x1="420.5" y1="431.895" x2="420.5" y2="386.395" gradientUnits="userSpaceOnUse">
<stop stop-color="#E5EDF3"/>
<stop offset="1" stop-color="#1F232A"/>
</linearGradient>
<linearGradient id="paint10_linear_7754_14610" x1="476" y1="26.8945" x2="468" y2="157.395" gradientUnits="userSpaceOnUse">
<stop stop-color="#E5EDF3"/>
<stop offset="1" stop-color="#1F232A"/>
</linearGradient>
<linearGradient id="paint11_linear_7754_14610" x1="342.5" y1="50.3945" x2="476.5" y2="140.895" gradientUnits="userSpaceOnUse">
<stop stop-color="#E5EDF3"/>
<stop offset="1" stop-color="#1F232A"/>
</linearGradient>
<linearGradient id="paint12_linear_7754_14610" x1="314.5" y1="118.895" x2="471" y2="307.395" gradientUnits="userSpaceOnUse">
<stop stop-color="#E5EDF3"/>
<stop offset="1" stop-color="#1F232A"/>
</linearGradient>
<linearGradient id="paint13_linear_7754_14610" x1="381" y1="137.395" x2="381.195" y2="293.785" gradientUnits="userSpaceOnUse">
<stop stop-color="#E5EDF3"/>
<stop offset="1" stop-color="#1F232A"/>
</linearGradient>
<linearGradient id="paint14_linear_7754_14610" x1="388" y1="-9.10547" x2="387.817" y2="257.485" gradientUnits="userSpaceOnUse">
<stop stop-color="#E5EDF3"/>
<stop offset="1" stop-color="#1F232A"/>
</linearGradient>
<linearGradient id="paint15_linear_7754_14610" x1="353.998" y1="175.895" x2="349.998" y2="362.395" gradientUnits="userSpaceOnUse">
<stop stop-color="#E5EDF3"/>
<stop offset="1" stop-color="#1F232A"/>
</linearGradient>
<linearGradient id="paint16_linear_7754_14610" x1="403" y1="77.8945" x2="403.23" y2="278.454" gradientUnits="userSpaceOnUse">
<stop stop-color="#E5EDF3"/>
<stop offset="1" stop-color="#1F232A"/>
</linearGradient>
<linearGradient id="paint17_linear_7754_14610" x1="515" y1="-120.605" x2="412.534" y2="278.455" gradientUnits="userSpaceOnUse">
<stop stop-color="#E5EDF3"/>
<stop offset="1" stop-color="#1F232A"/>
</linearGradient>
<linearGradient id="paint18_linear_7754_14610" x1="403" y1="164.395" x2="404" y2="247.395" gradientUnits="userSpaceOnUse">
<stop stop-color="#E5EDF3"/>
<stop offset="1" stop-color="#1F232A"/>
</linearGradient>
<linearGradient id="paint19_linear_7754_14610" x1="180.954" y1="417.627" x2="195.996" y2="378.395" gradientUnits="userSpaceOnUse">
<stop stop-color="#E5EDF3" stop-opacity="0.2"/>
<stop offset="1" stop-color="#1F232A" stop-opacity="0"/>
</linearGradient>
<linearGradient id="paint20_linear_7754_14610" x1="113.5" y1="498.395" x2="178.5" y2="399.895" gradientUnits="userSpaceOnUse">
<stop stop-color="#E5EDF3"/>
<stop offset="1" stop-color="#1F232A"/>
</linearGradient>
<linearGradient id="paint21_linear_7754_14610" x1="115.498" y1="509.895" x2="110.998" y2="402.895" gradientUnits="userSpaceOnUse">
<stop stop-color="#E5EDF3"/>
<stop offset="1" stop-color="#1F232A"/>
</linearGradient>
<linearGradient id="paint22_linear_7754_14610" x1="111.996" y1="485.395" x2="110.496" y2="430.895" gradientUnits="userSpaceOnUse">
<stop stop-color="#E5EDF3"/>
<stop offset="1" stop-color="#1F232A"/>
</linearGradient>
<linearGradient id="paint23_linear_7754_14610" x1="148.996" y1="756.895" x2="139.996" y2="253.895" gradientUnits="userSpaceOnUse">
<stop stop-color="#E5EDF3"/>
<stop offset="1" stop-color="#1F232A"/>
</linearGradient>
<linearGradient id="paint24_linear_7754_14610" x1="336.996" y1="321.895" x2="156.496" y2="174.395" gradientUnits="userSpaceOnUse">
<stop stop-color="#E5EDF3"/>
<stop offset="1" stop-color="#1F232A"/>
</linearGradient>
<linearGradient id="paint25_linear_7754_14610" x1="234.498" y1="-79.1055" x2="133.498" y2="178.895" gradientUnits="userSpaceOnUse">
<stop stop-color="#E5EDF3"/>
<stop offset="1" stop-color="#1F232A"/>
</linearGradient>
<linearGradient id="paint26_linear_7754_14610" x1="232.998" y1="363.395" x2="120.998" y2="178.395" gradientUnits="userSpaceOnUse">
<stop stop-color="#E5EDF3"/>
<stop offset="1" stop-color="#1F232A"/>
</linearGradient>
<clipPath id="clip0_7754_14610">
<rect width="442.79" height="383.56" fill="white" transform="translate(76 84.8945)"/>
</clipPath>
</defs>
</svg>
