<svg width="621" height="416" viewBox="0 0 621 416" fill="none" xmlns="http://www.w3.org/2000/svg">
<path opacity="0.4" d="M212.114 403.453C116.271 404.349 63.1246 405.693 20.5553 351.361C-15.9329 280.225 -4.1453 200.926 70.5005 123.894C201.852 -11.6569 378.121 -12.7357 505.857 13.0451C614.092 34.89 644.461 134.679 602.5 290.394C560.538 446.109 331.917 402.333 212.114 403.453Z" fill="url(#paint0_linear_7754_14332)"/>
<g clip-path="url(#clip0_7754_14332)">
<path d="M424.121 167.396C430.511 144.738 440.836 119.471 459.885 104.176C463.735 101.086 469.04 97.1777 472.341 93.959C463.331 94.1948 452.793 95.1624 443.797 95.7185C422.087 97.0554 331.355 102.648 307.699 104.105C292.341 105.052 276.984 105.998 261.627 106.945C243.696 108.051 229.308 127.788 221.372 142.04C212.42 158.116 207.275 176.083 203.84 194.065C199.183 218.438 193.959 336.843 192.74 347.807C190.581 367.211 182.932 398.261 158.26 398.473C168.165 398.473 354.504 399.803 369.01 399.79C385.936 399.774 395.902 386.398 401.55 371.984C408.472 354.318 410.295 277.931 411.224 258.129C412.155 238.287 421.238 177.618 424.121 167.396Z" fill="url(#paint1_linear_7754_14332)"/>
<path d="M363.982 413.412C354.341 411.214 347.856 405.404 342.582 397.232C338.674 391.177 335.308 384.668 334.064 377.525C332.806 370.305 334.481 364.986 341.439 361.064C334.401 361.076 133.534 362.848 130.521 362.875C124.292 362.931 121.131 369.166 121.008 374.571C120.885 380.008 122.643 385.502 124.735 390.463C127.723 397.545 132.395 404.187 138.602 408.81C144.081 412.889 151.25 415.323 158.191 415.341C158.191 415.341 370.434 415.848 370.456 415.848C367.827 415.154 366.281 413.935 363.984 413.412H363.982Z" fill="url(#paint2_linear_7754_14332)"/>
<path d="M481.109 99.5559C479.38 95.4295 474.759 92.5778 470.37 94.5153C462.548 97.9787 455.558 103.667 449.371 111.003C435.348 127.63 427.138 149.488 421.58 170.242C416.64 188.676 413.753 207.895 412.033 226.887C410.776 240.77 410.083 254.723 409.586 268.655C408.887 288.252 408.562 307.876 407.543 327.46C406.764 342.439 405.378 358.845 399.63 372.852C392.906 389.237 366.89 412.184 353.827 387.204C350.447 380.738 350.766 373.426 348.319 366.735C347.573 364.697 346.279 362.466 344.222 361.532C338.585 358.974 333.318 365.451 332.545 370.289C330.763 381.458 337.442 395.679 344.741 403.956C349.699 409.58 356.991 413.966 364.368 415.332C370.693 416.504 378.058 415.623 384.054 413.314C398.193 407.873 408.236 395.107 414.107 381.581C418.844 370.668 421.306 358.482 422.665 346.708C425.614 321.161 425.251 295.29 426.165 269.618C426.648 256.02 427.314 242.416 428.535 228.862C430.122 211.249 432.635 193.594 436.739 176.381C440.945 158.741 447.31 139.422 459.081 125.284C464.292 119.024 470.357 114.137 477.435 110.994C482.045 108.947 482.849 103.702 481.111 99.5559H481.109Z" fill="url(#paint3_linear_7754_14332)"/>
<path d="M305.763 161.486C300.151 161.486 295.545 157.001 295.432 151.376C295.316 145.677 299.848 140.961 305.556 140.845L371.419 139.798C377.125 139.693 381.85 144.207 381.966 149.906C382.082 155.604 377.55 160.32 371.842 160.436L305.979 161.484C305.908 161.484 305.834 161.484 305.763 161.484V161.486Z" fill="url(#paint4_linear_7754_14332)"/>
<path d="M282.449 151.446C282.896 143.734 276.996 137.121 269.272 136.675C261.548 136.229 254.924 142.119 254.477 149.831C254.03 157.543 259.93 164.156 267.654 164.603C275.378 165.049 282.002 159.158 282.449 151.446Z" fill="url(#paint5_linear_7754_14332)"/>
<path d="M267.449 199.446C267.896 191.734 261.996 185.121 254.272 184.675C246.548 184.229 239.924 190.119 239.477 197.831C239.03 205.543 244.93 212.156 252.654 212.603C260.378 213.049 267.002 207.158 267.449 199.446Z" fill="url(#paint6_linear_7754_14332)"/>
<path d="M261.449 247.446C261.896 239.734 255.996 233.121 248.272 232.675C240.548 232.229 233.924 238.119 233.477 245.831C233.03 253.543 238.93 260.156 246.654 260.603C254.378 261.049 261.002 255.158 261.449 247.446Z" fill="url(#paint7_linear_7754_14332)"/>
<path d="M260.449 296.446C260.896 288.734 254.996 282.121 247.272 281.675C239.548 281.229 232.924 287.119 232.477 294.831C232.03 302.543 237.93 309.156 245.654 309.603C253.378 310.049 260.002 304.158 260.449 296.446Z" fill="url(#paint8_linear_7754_14332)"/>
<path d="M290.552 209.701C284.942 209.701 280.337 205.218 280.221 199.591C280.105 193.892 284.637 189.178 290.345 189.06L356.206 188.012C361.918 187.883 366.635 192.421 366.753 198.12C366.869 203.819 362.337 208.533 356.629 208.651L290.768 209.698C290.697 209.698 290.626 209.698 290.552 209.698V209.701Z" fill="url(#paint9_linear_7754_14332)"/>
<path d="M284.552 257.701C278.942 257.701 274.337 253.218 274.221 247.591C274.105 241.892 278.637 237.178 284.345 237.06L350.206 236.012C355.918 235.883 360.635 240.421 360.753 246.12C360.869 251.819 356.337 256.533 350.629 256.651L284.768 257.698C284.697 257.698 284.626 257.698 284.552 257.698V257.701Z" fill="url(#paint10_linear_7754_14332)"/>
<path d="M276.552 305.701C270.942 305.701 266.337 301.218 266.221 295.591C266.105 289.892 270.637 285.178 276.345 285.06L342.206 284.012C347.918 283.883 352.635 288.421 352.753 294.12C352.869 299.819 348.337 304.533 342.629 304.651L276.768 305.698C276.697 305.698 276.626 305.698 276.552 305.698V305.701Z" fill="url(#paint11_linear_7754_14332)"/>
<path d="M468.934 345.734C501.008 313.711 501.008 261.792 468.934 229.77C436.861 197.747 384.859 197.747 352.785 229.77C320.712 261.792 320.712 313.711 352.785 345.734C384.859 377.757 436.861 377.757 468.934 345.734Z" fill="url(#paint12_radial_7754_14332)"/>
<path d="M468.934 345.734C501.008 313.711 501.008 261.792 468.934 229.77C436.861 197.747 384.859 197.747 352.785 229.77C320.712 261.792 320.712 313.711 352.785 345.734C384.859 377.757 436.861 377.757 468.934 345.734Z" fill="#F4A046"/>
<path opacity="0.18" d="M351.295 269.191C350.078 272.013 348.407 274.482 345.78 274.18C343.807 273.953 342.532 271.938 342.051 270.014C340.886 265.367 342.61 260.491 344.822 256.242C349.412 247.433 356.167 239.054 364.413 233.426C365.721 232.534 367.16 231.736 368.737 231.595C370.315 231.455 372.053 232.125 372.766 233.537C374.891 237.755 365.928 245.107 363.471 247.916C359.569 252.372 356.285 257.363 353.721 262.7C353.037 264.123 352.331 266.786 351.295 269.193V269.191Z" fill="white"/>
<path d="M402.48 321.574C399.708 321.523 397.068 320.375 395.143 318.382L368.225 290.501C364.217 286.35 364.339 279.741 368.497 275.74C372.656 271.738 379.273 271.86 383.281 276.011L402.946 296.378L443.25 257.588C447.407 253.587 454.026 253.709 458.034 257.86C462.042 262.011 461.92 268.619 457.763 272.621L409.932 318.656C407.936 320.578 405.256 321.628 402.484 321.576L402.48 321.574Z" fill="white"/>
</g>
<defs>
<linearGradient id="paint0_linear_7754_14332" x1="318.5" y1="-2.10596" x2="318.5" y2="405.894" gradientUnits="userSpaceOnUse">
<stop stop-color="#E5EDF3" stop-opacity="0.5"/>
<stop offset="1" stop-color="#1F232A" stop-opacity="0"/>
</linearGradient>
<linearGradient id="paint1_linear_7754_14332" x1="297.998" y1="409.395" x2="283.998" y2="104.395" gradientUnits="userSpaceOnUse">
<stop offset="0.33" stop-color="#E5EDF3"/>
<stop offset="0.99" stop-color="#1F232A" stop-opacity="0.3"/>
</linearGradient>
<linearGradient id="paint2_linear_7754_14332" x1="245.725" y1="349.373" x2="245.725" y2="431.359" gradientUnits="userSpaceOnUse">
<stop stop-color="#E5EDF3"/>
<stop offset="1" stop-color="#1F232A"/>
</linearGradient>
<linearGradient id="paint3_linear_7754_14332" x1="533.533" y1="107.673" x2="306.908" y2="420.226" gradientUnits="userSpaceOnUse">
<stop stop-color="#1F232A" stop-opacity="0.3"/>
<stop offset="0.495" stop-color="#73797F"/>
<stop offset="1" stop-color="#E5EDF3"/>
</linearGradient>
<linearGradient id="paint4_linear_7754_14332" x1="338.699" y1="133.609" x2="338.699" y2="172.955" gradientUnits="userSpaceOnUse">
<stop stop-color="#1F232A" stop-opacity="0"/>
<stop offset="0.9" stop-color="#E5EDF3"/>
</linearGradient>
<linearGradient id="paint5_linear_7754_14332" x1="262" y1="165.895" x2="258.995" y2="140.895" gradientUnits="userSpaceOnUse">
<stop stop-color="#F4A046"/>
<stop offset="1" stop-color="#8E5D29" stop-opacity="0.2"/>
</linearGradient>
<linearGradient id="paint6_linear_7754_14332" x1="247" y1="213.895" x2="243.995" y2="188.895" gradientUnits="userSpaceOnUse">
<stop stop-color="#F4A046"/>
<stop offset="1" stop-color="#8E5D29" stop-opacity="0.7"/>
</linearGradient>
<linearGradient id="paint7_linear_7754_14332" x1="241" y1="261.895" x2="237.995" y2="236.895" gradientUnits="userSpaceOnUse">
<stop stop-color="#F4A046"/>
<stop offset="1" stop-color="#8E5D29" stop-opacity="0.8"/>
</linearGradient>
<linearGradient id="paint8_linear_7754_14332" x1="240" y1="310.895" x2="236.995" y2="285.895" gradientUnits="userSpaceOnUse">
<stop stop-color="#F4A046" stop-opacity="0.9"/>
<stop offset="1" stop-color="#8E5D29" stop-opacity="0.8"/>
</linearGradient>
<linearGradient id="paint9_linear_7754_14332" x1="323.486" y1="177.493" x2="323.486" y2="221.079" gradientUnits="userSpaceOnUse">
<stop offset="0.14" stop-color="#1F232A"/>
<stop offset="0.9" stop-color="#E5EDF3"/>
</linearGradient>
<linearGradient id="paint10_linear_7754_14332" x1="317.486" y1="225.493" x2="317.486" y2="269.079" gradientUnits="userSpaceOnUse">
<stop stop-color="#1F232A"/>
<stop offset="0.779613" stop-color="#E5EDF3"/>
</linearGradient>
<linearGradient id="paint11_linear_7754_14332" x1="309.486" y1="273.493" x2="309.486" y2="317.079" gradientUnits="userSpaceOnUse">
<stop stop-color="#1F232A"/>
<stop offset="0.636121" stop-color="#E5EDF3"/>
</linearGradient>
<radialGradient id="paint12_radial_7754_14332" cx="0" cy="0" r="1" gradientUnits="userSpaceOnUse" gradientTransform="translate(399.945 283.326) rotate(7.18868) scale(106.526 106.362)">
<stop stop-color="#75D982"/>
<stop offset="0.13" stop-color="#70D179"/>
<stop offset="0.47" stop-color="#67BF67"/>
<stop offset="0.74" stop-color="#51AA59"/>
<stop offset="0.84" stop-color="#48A153"/>
<stop offset="0.93" stop-color="#49A254"/>
<stop offset="0.96" stop-color="#50A958"/>
<stop offset="0.99" stop-color="#5CB460"/>
<stop offset="1" stop-color="#67BF67"/>
</radialGradient>
<clipPath id="clip0_7754_14332">
<rect width="372" height="322" fill="white" transform="translate(121 93.8945)"/>
</clipPath>
</defs>
</svg>
