<svg width="508" height="526" viewBox="0 0 508 526" fill="none" xmlns="http://www.w3.org/2000/svg">
<path d="M59.2896 87.6232C59.2896 87.6232 -11.8522 154.986 1.7218 248.445C15.2958 341.904 98.5377 414.082 164.108 474.139C229.679 534.197 322.619 542.444 389.693 496.481C456.767 450.517 420.408 392.403 458.388 309.518C496.369 226.648 521.026 209.079 500.687 123.322C480.363 37.5801 358.639 -16.6014 237.417 6.06382C116.179 28.729 59.2896 87.6232 59.2896 87.6232Z" fill="url(#paint0_linear_7754_14295)"/>
<g clip-path="url(#clip0_7754_14295)">
<path d="M336.997 343.225V355.365C336.997 357.575 338.797 359.365 340.997 359.365H375.257V373.535H379.207V401.485L344.267 412.625V415.385C344.267 417.135 345.677 418.545 347.427 418.545C349.177 418.545 350.587 417.135 350.587 415.385V414.995L379.797 411.595V415.785C379.797 417.305 381.037 418.545 382.567 418.545C384.097 418.545 385.327 417.305 385.327 415.785V411.455L415.727 414.995V415.385C415.727 417.135 417.137 418.545 418.887 418.545C420.637 418.545 422.037 417.135 422.037 415.385V412.625L386.117 401.175L385.917 401.015V373.535H389.867V359.365H427.767C429.977 359.365 431.767 357.575 431.767 355.365V343.225C431.767 341.695 430.917 340.375 429.647 339.695C430.767 316.645 426.977 294.095 434.987 271.645C438.197 262.655 441.877 253.165 444.597 243.765C447.337 234.325 447.797 224.585 449.587 214.965C450.797 208.395 446.907 209.125 446.907 209.125L417.477 209.375C417.477 209.375 415.527 209.125 415.037 210.585C415.037 210.585 409.927 223.485 409.687 228.105C409.447 232.725 410.657 231.995 408.717 238.075C406.767 244.155 401.177 258.505 398.017 270.185C393.757 285.875 392.657 302.535 392.387 318.735C392.347 320.595 391.547 332.565 392.577 339.225H340.997C338.797 339.225 336.997 341.015 336.997 343.225Z" fill="url(#paint1_linear_7754_14295)"/>
<path d="M165.819 343.225V355.365C165.819 357.575 164.019 359.365 161.819 359.365H127.559V373.535H123.609V401.485L158.549 412.625V415.385C158.549 417.135 157.139 418.545 155.389 418.545C153.639 418.545 152.229 417.135 152.229 415.385V414.995L123.019 411.595V415.785C123.019 417.305 121.779 418.545 120.249 418.545C118.719 418.545 117.489 417.305 117.489 415.785V411.455L87.0894 414.995V415.385C87.0894 417.135 85.6794 418.545 83.9294 418.545C82.1794 418.545 80.7794 417.135 80.7794 415.385V412.625L116.699 401.175L116.899 401.015V373.535H112.949V359.365H75.0494C72.8394 359.365 71.0494 357.575 71.0494 355.365V343.225C71.0494 341.695 71.8994 340.375 73.1694 339.695C72.0494 316.645 75.8394 294.095 67.8294 271.645C64.6194 262.655 60.9394 253.165 58.2194 243.765C55.4794 234.325 55.0194 224.585 53.2294 214.965C52.0194 208.395 55.9094 209.125 55.9094 209.125L85.3394 209.375C85.3394 209.375 87.2894 209.125 87.7794 210.585C87.7794 210.585 92.8894 223.485 93.1294 228.105C93.3694 232.725 92.1594 231.995 94.0994 238.075C96.0494 244.155 101.639 258.505 104.799 270.185C109.059 285.875 110.159 302.535 110.429 318.735C110.469 320.595 111.269 332.565 110.239 339.225H161.819C164.019 339.225 165.819 341.015 165.819 343.225Z" fill="url(#paint2_linear_7754_14295)"/>
<path d="M380.078 282.635H142.479V419.195H380.078V282.635Z" fill="url(#paint3_linear_7754_14295)"/>
<path d="M381.839 280.395H137.189V286.365H381.839V280.395Z" fill="url(#paint4_linear_7754_14295)"/>
<path d="M199.039 227.624L206.049 269.374L196.169 271.614L186.289 239.414L199.039 227.624Z" fill="#263238" stroke="#263238" stroke-linecap="round" stroke-linejoin="round"/>
<path d="M196.169 248.025C196.169 248.025 196.809 297.755 197.759 311.135C198.719 324.525 195.209 342.375 192.019 347.475C188.829 352.575 174.809 384.455 175.439 386.365C176.069 388.275 178.949 394.015 178.949 395.605V402.295C178.949 402.295 194.889 412.815 196.159 412.815C197.429 412.815 199.029 415.365 195.839 417.275C192.649 419.185 156.949 419.185 155.359 417.915C153.769 416.645 153.129 414.405 153.129 414.405C153.129 414.405 152.499 410.675 152.819 405.895C153.139 401.115 154.409 386.355 154.409 386.355C154.409 386.355 150.899 364.045 152.179 349.695C153.459 335.345 157.919 318.135 157.919 314.635C157.919 311.135 153.459 287.855 152.819 284.035C152.179 280.205 142.939 269.375 147.079 260.765C151.219 252.155 154.409 238.455 155.689 237.495C156.959 236.535 174.179 235.905 181.189 237.495C188.199 239.085 195.849 239.085 196.169 248.015V248.025Z" fill="url(#paint5_linear_7754_14295)"/>
<path d="M164.569 147.804C164.569 147.804 159.129 152.684 158.189 154.374C157.249 156.064 145.799 172.394 145.609 184.034C145.419 195.674 154.059 230.964 154.059 230.964L141.109 264.034L144.859 265.534L148.609 261.404V267.594C148.609 267.594 152.929 271.534 164.189 275.294C175.449 279.044 189.909 274.734 189.909 274.734L194.229 247.294V274.354L199.299 270.974L199.679 225.894C199.679 225.894 203.809 201.684 203.809 194.924C203.809 188.164 192.359 166.954 187.289 160.764C182.219 154.574 173.779 149.504 171.329 147.624C168.889 145.744 164.569 147.814 164.569 147.814V147.804Z" fill="url(#paint6_linear_7754_14295)"/>
<path d="M185.15 157.385L186.23 158.645L189.62 162.605L191.6 172.775L182.91 164.095C182.91 164.095 184.03 158.875 185.15 157.385Z" fill="white"/>
<path d="M194.978 115.514C194.978 115.514 199.548 119.014 200.108 122.394C200.668 125.774 198.978 129.524 199.168 130.844C199.358 132.164 202.738 135.164 202.548 136.664C202.358 138.164 199.548 138.724 199.548 138.724C199.548 138.724 196.478 149.864 195.728 151.744C194.978 153.624 191.228 153.054 188.408 152.684L183.338 167.704L166.628 147.994L169.258 140.114C169.258 140.114 162.128 131.484 161.558 122.284C160.988 113.084 168.318 106.704 178.828 105.394C189.338 104.084 198.158 109.144 199.288 111.214C200.418 113.274 194.968 115.534 194.968 115.534L194.978 115.514Z" fill="#D9D9D9"/>
<path d="M194.979 115.514C194.979 115.514 200.419 113.264 199.299 111.194C198.169 109.134 189.349 104.064 178.839 105.374C168.329 106.684 161.009 113.074 161.569 122.264C162.129 131.454 169.269 140.094 169.269 140.094L168.869 141.294C172.759 143.184 176.779 140.094 176.779 140.094C176.779 140.094 174.529 141.404 172.279 139.344C170.029 137.284 169.839 130.714 172.659 130.144C175.479 129.584 177.349 130.704 177.349 132.774C177.349 134.844 177.909 133.524 179.409 133.334C180.909 133.144 179.599 128.644 180.539 127.894C181.479 127.144 182.789 126.584 184.479 124.324C186.169 122.074 181.289 120.194 180.729 118.134C180.169 116.074 194.999 115.504 194.999 115.504L194.979 115.514Z" fill="url(#paint7_linear_7754_14295)"/>
<path d="M165.879 144.425L186.909 165.075L185.029 173.895L162.689 149.865L165.879 144.425Z" fill="white"/>
<path d="M246.63 223.374C246.63 223.374 239.23 218.974 238.03 219.374C236.83 219.774 225.23 228.174 226.03 230.174C226.83 232.174 233.03 234.774 236.63 236.174C240.23 237.574 247.63 234.574 247.63 234.574L246.63 223.374Z" fill="white"/>
<path d="M225.039 221.775C225.039 221.775 231.439 218.175 232.439 218.175C233.439 218.175 239.239 223.375 239.239 223.375L236.839 226.975C236.839 226.975 244.439 230.775 243.639 232.175C242.839 233.575 239.839 235.775 236.639 236.175C233.439 236.575 224.439 230.775 224.439 230.775L225.039 221.775Z" fill="#D9D9D9"/>
<path d="M220.639 220.175L226.239 221.175L224.439 230.775L219.639 229.175L220.639 220.175Z" fill="white"/>
<path d="M155.639 164.374C155.639 164.374 150.239 174.774 149.639 179.974C149.039 185.174 171.039 226.574 172.639 227.964C174.239 229.364 221.029 230.764 221.029 230.764L223.029 220.564L183.029 209.164L169.429 167.364" fill="url(#paint8_linear_7754_14295)"/>
<path d="M239.629 220.374C239.629 220.374 236.829 217.974 235.829 220.774C234.829 223.574 228.629 230.374 231.429 230.574C234.229 230.774 239.429 224.974 239.429 224.974" fill="white"/>
<path d="M227.239 231.574C227.239 231.574 226.519 234.954 228.239 236.374C229.439 237.364 230.129 234.574 229.839 232.574C229.539 230.504 227.839 229.974 227.239 231.574Z" fill="white"/>
<path d="M230.028 232.375C230.028 232.375 229.308 235.755 231.028 237.175C232.228 238.165 232.918 235.375 232.628 233.375C232.328 231.305 230.628 230.775 230.028 232.375Z" fill="white"/>
<path d="M232.829 233.574C232.829 233.574 232.109 236.954 233.829 238.374C235.029 239.364 235.719 236.574 235.429 234.574C235.129 232.504 233.429 231.974 232.829 233.574Z" fill="white"/>
<path d="M235.609 235.204C235.609 235.204 234.939 237.484 236.529 238.444C237.639 239.114 238.269 237.224 237.999 235.884C237.719 234.494 236.159 234.134 235.609 235.214V235.204Z" fill="white"/>
<path d="M246.629 223.375L247.229 236.175L251.629 234.975L250.629 223.175L246.629 223.375Z" fill="white"/>
<path d="M249.629 222.175L251.629 237.375L285.029 233.775L285.829 213.975L249.629 222.175Z" fill="#FAB266" stroke="#263238" stroke-linecap="round" stroke-linejoin="round"/>
<path d="M303.269 405.484C303.269 405.484 283.829 413.774 281.589 415.364C279.349 416.954 286.369 419.194 294.979 419.194C303.589 419.194 312.189 418.234 312.189 418.234L315.699 416.324L316.019 418.554H325.259C325.259 418.554 326.849 410.904 326.219 408.994C325.579 407.084 324.629 405.164 324.629 405.164L303.269 405.484Z" fill="#F4A046" stroke="#263238" stroke-linecap="round" stroke-linejoin="round"/>
<path d="M287.02 270.975C287.02 270.975 288.61 316.555 292.44 332.815C296.27 349.075 302.96 388.595 302.96 392.745C302.96 396.895 302 399.755 302 399.755L300.73 403.895C301.05 405.485 301.69 406.765 301.69 406.765C301.69 406.765 309.98 408.675 315.4 408.675C320.82 408.675 325.43 407.165 325.43 407.165C325.43 407.165 325.6 397.195 325.92 392.415C326.24 387.635 324.65 357.035 324.65 349.705C324.65 342.375 322.74 338.225 322.74 329.305C322.74 320.385 321.15 296.475 321.47 292.645C321.79 288.815 326.25 284.675 327.21 279.895C328.17 275.115 329.12 270.015 329.12 270.015L287.04 270.975H287.02Z" fill="#FFC384"/>
<path d="M314.749 151.914C314.749 151.914 318.099 153.664 319.689 155.584C321.279 157.494 323.039 160.844 323.039 160.844C323.039 160.844 336.589 176.464 336.909 178.054C337.229 179.644 329.259 229.854 329.259 229.854L338.339 277.344C338.339 277.344 323.679 285.474 312.519 285.954C304.659 286.294 292.849 283.784 286.559 282.264C283.969 281.644 282.069 279.444 281.829 276.794C281.209 270.124 280.059 256.834 279.379 244.194C278.599 229.544 280.809 200.524 282.409 190.324C283.999 180.124 288.939 166.254 292.769 160.524C296.589 154.784 307.109 148.894 314.759 151.914H314.749Z" fill="#F4A046"/>
<path d="M323.038 160.844C323.038 160.844 321.288 157.494 319.688 155.584C318.098 153.674 314.748 151.914 314.748 151.914C308.398 149.394 300.068 153.044 295.238 157.644C294.608 159.064 289.568 170.564 287.178 179.964C284.628 190.004 284.948 202.594 284.948 202.594C284.948 202.594 293.398 191.754 304.868 179.004C312.498 170.524 319.638 164.514 323.558 161.444C323.228 161.064 323.038 160.844 323.038 160.844Z" fill="#F4A046"/>
<path d="M294.189 165.024C294.189 165.024 289.889 178.534 288.569 182.354C287.259 186.174 287.139 192.154 287.139 192.154C287.139 192.154 293.279 172.004 297.219 167.944C301.159 163.884 316.299 153.544 316.299 153.544L312.829 152.584L294.179 165.014L294.189 165.024Z" fill="white"/>
<path d="M310.309 269.294C310.309 269.294 307.659 275.884 306.869 278.044C306.079 280.204 306.479 288.664 306.579 289.554C306.679 290.444 308.249 290.634 308.249 290.634C308.249 290.634 308.739 297.414 309.329 297.614C309.919 297.814 311.199 297.914 311.199 297.914C311.199 297.914 312.279 301.354 313.659 301.064C315.039 300.774 315.229 299.194 315.229 299.194C315.229 299.194 316.699 299.394 317.589 298.114C318.469 296.834 318.969 295.464 318.969 295.464C318.969 295.464 321.329 294.284 321.529 293.394C321.729 292.514 322.319 289.364 322.319 289.364C322.319 289.364 323.009 289.164 323.009 287.104C323.009 285.044 321.439 272.354 321.439 272.354L310.329 269.304L310.309 269.294Z" fill="white"/>
<path d="M329.728 173.754L336.898 178.054L334.508 227.624L321.758 274.484L309.648 271.294L313.468 234.314L311.558 197.024C311.558 197.024 314.268 188.334 320.488 183.554" fill="url(#paint9_linear_7754_14295)"/>
<path d="M283.07 118.524C283.07 118.524 279.24 129.404 279.6 130.954C279.96 132.504 280.32 134.894 280.32 134.894C280.32 134.894 274.34 142.304 275.06 143.144C275.78 143.984 279.12 144.934 279.12 144.934C279.12 144.934 281.87 156.414 282.94 157.484C284.01 158.554 290.71 156.174 290.71 156.174L297.88 165.254L313.18 153.614L310.79 143.734C310.79 143.734 318.56 130.104 318.44 123.654C318.32 117.204 305.05 108.594 295.61 108.714C286.17 108.834 277.32 112.304 279.11 114.814C280.9 117.324 283.05 118.524 283.05 118.524H283.07Z" fill="white"/>
<path d="M310.799 143.755C310.799 143.755 318.569 130.125 318.449 123.675C318.329 117.225 305.059 108.615 295.619 108.735C286.179 108.855 277.329 112.325 279.119 114.835C280.909 117.345 283.059 118.545 283.059 118.545C283.059 118.545 288.919 121.295 288.919 122.015C288.919 122.735 285.449 126.555 286.649 128.235C287.849 129.905 293.579 131.945 293.579 131.945C293.579 131.945 292.619 135.175 294.059 135.535C295.489 135.895 296.209 134.455 297.169 133.505C298.129 132.545 301.469 131.235 301.949 135.295C302.429 139.355 300.279 143.185 299.799 143.545C299.319 143.905 305.899 148.325 308.759 147.015C309.519 146.665 310.389 146.225 311.269 145.755L310.789 143.785L310.799 143.755Z" fill="url(#paint10_linear_7754_14295)"/>
</g>
<defs>
<linearGradient id="paint0_linear_7754_14295" x1="254" y1="0.894531" x2="254" y2="525.895" gradientUnits="userSpaceOnUse">
<stop stop-color="#E5EDF3" stop-opacity="0.2"/>
<stop offset="1" stop-color="#1F232A" stop-opacity="0"/>
</linearGradient>
<linearGradient id="paint1_linear_7754_14295" x1="393.409" y1="209.101" x2="393.409" y2="418.545" gradientUnits="userSpaceOnUse">
<stop stop-color="#E5EDF3" stop-opacity="0.5"/>
<stop offset="0.435" stop-color="#6B7177" stop-opacity="0.5"/>
<stop offset="1" stop-color="#1F232A" stop-opacity="0.5"/>
</linearGradient>
<linearGradient id="paint2_linear_7754_14295" x1="109.408" y1="209.101" x2="109.408" y2="418.545" gradientUnits="userSpaceOnUse">
<stop stop-color="#E5EDF3" stop-opacity="0.5"/>
<stop offset="0.435" stop-color="#6B7177" stop-opacity="0.5"/>
<stop offset="1" stop-color="#1F232A" stop-opacity="0.5"/>
</linearGradient>
<linearGradient id="paint3_linear_7754_14295" x1="261.279" y1="282.635" x2="261.279" y2="419.195" gradientUnits="userSpaceOnUse">
<stop stop-color="#E5EDF3"/>
<stop offset="1" stop-color="#1F232A"/>
</linearGradient>
<linearGradient id="paint4_linear_7754_14295" x1="137.189" y1="283.38" x2="381.839" y2="283.38" gradientUnits="userSpaceOnUse">
<stop stop-color="#E5EDF3"/>
<stop offset="1" stop-color="#A0A6AD"/>
</linearGradient>
<linearGradient id="paint5_linear_7754_14295" x1="164" y1="538.395" x2="168.5" y2="274.395" gradientUnits="userSpaceOnUse">
<stop stop-color="#E5EDF3"/>
<stop offset="1" stop-color="#1F232A"/>
</linearGradient>
<linearGradient id="paint6_linear_7754_14295" x1="176.5" y1="506.895" x2="172" y2="120.395" gradientUnits="userSpaceOnUse">
<stop stop-color="#E5EDF3"/>
<stop offset="1" stop-color="#1F232A"/>
</linearGradient>
<linearGradient id="paint7_linear_7754_14295" x1="150.5" y1="45.3945" x2="175.5" y2="126.895" gradientUnits="userSpaceOnUse">
<stop stop-color="#E5EDF3"/>
<stop offset="1" stop-color="#1F232A"/>
</linearGradient>
<linearGradient id="paint8_linear_7754_14295" x1="232" y1="309.895" x2="165.5" y2="139.895" gradientUnits="userSpaceOnUse">
<stop stop-color="#E5EDF3"/>
<stop offset="1" stop-color="#1F232A"/>
</linearGradient>
<linearGradient id="paint9_linear_7754_14295" x1="323.273" y1="173.754" x2="323.273" y2="274.484" gradientUnits="userSpaceOnUse">
<stop offset="0.075" stop-color="#F4A046"/>
<stop offset="1" stop-color="#FFC384"/>
</linearGradient>
<linearGradient id="paint10_linear_7754_14295" x1="311.5" y1="40.3945" x2="297.5" y2="130.395" gradientUnits="userSpaceOnUse">
<stop stop-color="#E5EDF3"/>
<stop offset="1" stop-color="#1F232A"/>
</linearGradient>
<clipPath id="clip0_7754_14295">
<rect width="401.92" height="375.3" fill="white" transform="translate(53 44.8945)"/>
</clipPath>
</defs>
</svg>
