<svg width="67" height="67" viewBox="0 0 67 67" fill="none" xmlns="http://www.w3.org/2000/svg">
<g clip-path="url(#clip0_2406_79176)">
<path d="M17.9717 21.9219L15.0069 20.798C14.2528 20.5122 13.4099 20.8918 13.1241 21.6458L8.62237 33.5216C8.33655 34.2756 8.71609 35.1185 9.4701 35.4044L12.435 36.5282C13.189 36.8141 14.0319 36.4345 14.3177 35.6805L18.8195 23.8047C19.1053 23.0507 18.7257 22.2077 17.9717 21.9219Z" stroke="white" stroke-width="2" stroke-linecap="round" stroke-linejoin="round"/>
<path d="M23.6399 40.2612C24.2935 39.4589 24.1735 38.2789 23.3718 37.6258C22.5701 36.9726 21.3903 37.0935 20.7366 37.8959L18.9492 40.0897C18.2956 40.8921 18.4156 42.072 19.2173 42.7252C20.019 43.3783 21.1988 43.2574 21.8525 42.4551L23.6399 40.2612Z" stroke="white" stroke-width="2" stroke-linecap="round" stroke-linejoin="round"/>
<path d="M26.4704 42.7175C27.1241 41.9152 27.0041 40.7352 26.2024 40.0821C25.4007 39.4289 24.2208 39.5498 23.5671 40.3522L21.7798 42.546C21.1261 43.3484 21.2461 44.5283 22.0479 45.1815C22.8496 45.8346 24.0294 45.7137 24.6831 44.9114L26.4704 42.7175Z" stroke="white" stroke-width="2" stroke-linecap="round" stroke-linejoin="round"/>
<path d="M29.425 45.1265C30.0787 44.3241 29.9587 43.1442 29.157 42.491C28.3552 41.8378 27.1754 41.9588 26.5217 42.7611L24.7344 44.955C24.0807 45.7573 24.2007 46.9372 25.0024 47.5904C25.8042 48.2436 26.984 48.1226 27.6377 47.3203L29.425 45.1265Z" stroke="white" stroke-width="2" stroke-linecap="round" stroke-linejoin="round"/>
<path d="M32.4372 47.5788C33.0909 46.7765 32.9709 45.5966 32.1692 44.9434C31.3675 44.2902 30.1876 44.4112 29.5339 45.2135L27.7466 47.4074C27.0929 48.2097 27.2129 49.3896 28.0147 50.0428C28.8164 50.696 29.9962 50.575 30.6499 49.7727L32.4372 47.5788Z" stroke="white" stroke-width="2" stroke-linecap="round" stroke-linejoin="round"/>
<path d="M41.0159 36.187L45.2008 39.5967C46.0023 40.2495 46.1217 41.4298 45.4689 42.2312C44.8161 43.0326 43.6359 43.1521 42.8344 42.4993L39.5034 39.7861" stroke="white" stroke-width="2" stroke-linecap="round" stroke-linejoin="round"/>
<path d="M39.5034 39.7861L42.3332 42.0913C43.1346 42.7441 43.2541 43.9244 42.6013 44.7258C41.9485 45.5273 40.7682 45.6467 39.9668 44.9939L36.6357 42.2808" stroke="white" stroke-width="2" stroke-linecap="round" stroke-linejoin="round"/>
<path d="M36.6387 42.2896L39.4685 44.5947C40.2699 45.2475 40.3894 46.4278 39.7366 47.2293C39.0838 48.0307 37.9035 48.1502 37.1021 47.4974L34.6658 45.5127" stroke="white" stroke-width="2" stroke-linecap="round" stroke-linejoin="round"/>
<path d="M34.6686 45.5156L36.6445 47.1243C37.4459 47.7771 37.5654 48.9574 36.9126 49.7588C36.2598 50.5602 35.0795 50.6797 34.2781 50.0269L32.2002 48.3337" stroke="white" stroke-width="2" stroke-linecap="round" stroke-linejoin="round"/>
<path d="M49.0569 21.8223L46.2761 22.9526C45.4858 23.2738 45.1056 24.1748 45.4268 24.9651L50.1455 36.5741C50.4667 37.3644 51.3677 37.7446 52.158 37.4234L54.9387 36.2931C55.729 35.9719 56.1092 35.0709 55.788 34.2806L51.0693 22.6716C50.7481 21.8813 49.8471 21.5011 49.0569 21.8223Z" stroke="white" stroke-width="2" stroke-linecap="round" stroke-linejoin="round"/>
<path d="M36.6357 24.1771L34.0012 23.5593C32.786 23.2737 31.9263 23.5855 30.4954 24.7979C29.0644 26.0102 23.335 30.5069 23.335 30.5069C22.8949 30.8799 22.857 31.5444 23.2475 31.967C24.6114 33.4299 26.8409 33.6631 28.4787 32.5178L31.9875 30.064C31.9875 30.064 35.9013 35.1056 41.2519 33.6398" stroke="white" stroke-width="2" stroke-linecap="round" stroke-linejoin="round"/>
<path d="M14.187 36.3909L18.8819 39.5529" stroke="white" stroke-width="2" stroke-linecap="round" stroke-linejoin="round"/>
<path d="M19.1704 23.9004C22.3965 26.1036 25.5876 23.9354 29.4053 25.6898" stroke="white" stroke-width="2" stroke-linecap="round" stroke-linejoin="round"/>
<path d="M39.1799 24.6347C40.6546 25.0223 42.4381 25.6285 44.991 24.5269" stroke="white" stroke-width="2" stroke-linecap="round" stroke-linejoin="round"/>
<path d="M49.6452 37.3176C47.1214 38.8185 45.7488 39.5529 45.7488 39.5529" stroke="white" stroke-width="2" stroke-linecap="round" stroke-linejoin="round"/>
<path d="M14.7175 7.64449C20.0215 3.91714 26.4883 1.72852 33.4651 1.72852C42.8694 1.72852 51.3471 5.7065 57.3068 12.0684" stroke="white" stroke-width="2" stroke-linecap="round" stroke-linejoin="round"/>
<path d="M50.2251 11.678L57.3039 12.0685L56.8988 5.62793" stroke="white" stroke-width="2" stroke-linecap="round" stroke-linejoin="round"/>
<path d="M59.3584 14.8953C63.0858 20.2022 65.2744 26.666 65.2744 33.6428C65.2744 43.0472 61.2964 51.5248 54.9346 57.4845" stroke="white" stroke-width="2" stroke-linecap="round" stroke-linejoin="round"/>
<path d="M55.3222 50.4028L54.9316 57.4816L61.3722 57.0765" stroke="white" stroke-width="2" stroke-linecap="round" stroke-linejoin="round"/>
<path d="M7.64449 52.5011C3.91714 47.1942 1.72852 40.7303 1.72852 33.7536C1.72852 24.3492 5.7065 15.8716 12.0684 9.91187" stroke="white" stroke-width="2" stroke-linecap="round" stroke-linejoin="round"/>
<path d="M11.678 16.9936L12.0685 9.91187L5.62793 10.3199" stroke="white" stroke-width="2" stroke-linecap="round" stroke-linejoin="round"/>
<path d="M52.3495 59.5157C47.0426 63.243 40.5787 65.4316 33.6019 65.4316C24.1976 65.4316 15.7199 61.4537 9.76025 55.0918" stroke="white" stroke-width="2" stroke-linecap="round" stroke-linejoin="round"/>
<path d="M16.842 55.4823L9.76318 55.0918L10.1683 61.5323" stroke="white" stroke-width="2" stroke-linecap="round" stroke-linejoin="round"/>
</g>
<defs>
<clipPath id="clip0_2406_79176">
<rect width="67" height="67" fill="white"/>
</clipPath>
</defs>
</svg>
