<svg width="66" height="44" viewBox="0 0 66 44" fill="none" xmlns="http://www.w3.org/2000/svg">
<g clip-path="url(#clip0_4541_13336)">
<path d="M15.3796 31.45C15.0796 33.75 13.1196 35.52 10.7396 35.52C8.35961 35.52 6.39961 33.75 6.09961 31.45" stroke="#F7941D" stroke-width="2" stroke-miterlimit="10" stroke-linecap="round" stroke-linejoin="round"/>
<path d="M28.1198 31.45C27.8198 33.75 25.8598 35.52 23.4798 35.52C21.0998 35.52 19.1398 33.75 18.8398 31.45" stroke="#F7941D" stroke-width="2" stroke-miterlimit="10" stroke-linecap="round" stroke-linejoin="round"/>
<path d="M40.8503 31.45C40.5503 33.75 38.5903 35.52 36.2103 35.52C33.8303 35.52 31.8703 33.75 31.5703 31.45" stroke="#F7941D" stroke-width="2" stroke-miterlimit="10" stroke-linecap="round" stroke-linejoin="round"/>
<path d="M53.5896 31.45C53.2896 33.75 51.3296 35.52 48.9496 35.52C46.5696 35.52 44.6096 33.75 44.3096 31.45" stroke="#F7941D" stroke-width="2" stroke-miterlimit="10" stroke-linecap="round" stroke-linejoin="round"/>
<path d="M6.75031 6.37012H33.4803C34.3903 6.37012 35.2703 6.73012 35.9303 7.37012L42.4403 13.7601C42.9203 14.2301 42.5803 15.0401 41.9203 15.0401H4.07031" stroke="#F7941D" stroke-width="2" stroke-miterlimit="10" stroke-linecap="round" stroke-linejoin="round"/>
<path d="M62.4496 15.3499C49.4896 17.1899 42.8896 6.90991 42.8896 6.90991H52.3997" stroke="#F7941D" stroke-width="2" stroke-miterlimit="10" stroke-linecap="round" stroke-linejoin="round"/>
<path d="M1.15039 27.1599H62.8304" stroke="#F7941D" stroke-width="2" stroke-miterlimit="10" stroke-linecap="round" stroke-linejoin="round"/>
<path d="M1.23 31.38H53.37C55.42 31.38 57.47 30.97 59.29 30.05C64.5 27.42 64.74 22.9 64.03 19.58C63.47 16.95 62.16 14.55 60.38 12.53C54.54 5.88 44.73 2.64 40.53 1.49C39.32 1.17 38.08 1 36.83 1H1" stroke="white" stroke-width="2" stroke-miterlimit="10" stroke-linecap="round" stroke-linejoin="round"/>
<path d="M54.9198 20.1099L56.2998 23.3699C56.4498 23.7099 56.7798 23.9299 57.1498 23.9299H59.5498C60.2398 23.9299 60.6898 23.1999 60.3698 22.5799L58.6498 19.2399C58.4898 18.9199 58.1498 18.7199 57.7898 18.7399L55.7298 18.8199C55.0898 18.8499 54.6598 19.5099 54.9198 20.1099Z" stroke="white" stroke-width="2" stroke-miterlimit="10" stroke-linecap="round" stroke-linejoin="round"/>
<path d="M37.6703 42.71H4.95035C3.11035 42.71 1.61035 41.22 1.61035 39.37C1.61035 37.53 3.10035 36.03 4.95035 36.03H60.9504C62.7904 36.03 64.2904 37.52 64.2904 39.37C64.2904 41.21 62.8004 42.71 60.9504 42.71H56.4604" stroke="white" stroke-width="2" stroke-miterlimit="10" stroke-linecap="round" stroke-linejoin="round"/>
</g>
<defs>
<clipPath id="clip0_4541_13336">
<rect width="65.33" height="43.71" fill="white"/>
</clipPath>
</defs>
</svg>
