<svg width="621" height="473" viewBox="0 0 621 473" fill="none" xmlns="http://www.w3.org/2000/svg">
<g clip-path="url(#clip0_7754_15329)">
<path d="M400 464.895C446.392 464.895 484 456.388 484 445.895C484 435.401 446.392 426.895 400 426.895C353.608 426.895 316 435.401 316 445.895C316 456.388 353.608 464.895 400 464.895Z" fill="url(#paint0_linear_7754_15329)"/>
<path d="M424.143 424.475C423.993 426.837 423.785 429.384 422.275 431.217C420.499 433.372 417.467 433.925 414.699 434.329C410.663 434.916 406.639 435.516 402.604 436.103C402.396 436.703 403.099 437.198 403.687 437.406C406.674 438.42 409.914 437.97 413.05 437.648C416.682 437.267 420.326 437.06 423.97 437.025C425.596 437.014 427.521 436.864 428.34 435.469C428.951 434.432 428.674 433.118 428.524 431.92C428.086 428.255 429.113 424.521 428.594 420.879C428.536 420.453 428.398 419.969 427.994 419.819C427.786 419.738 427.567 419.773 427.348 419.819C424.258 420.441 424.293 421.72 424.12 424.486L424.143 424.475Z" fill="white"/>
<path d="M425.238 433.971C422.228 435.803 419.184 436.299 415.691 435.872C415.483 435.849 414.307 435.584 414.088 435.561C413.961 434.893 414.03 434.236 413.477 434.259C410.951 434.351 408.426 434.57 405.924 434.893C405.128 434.996 402.107 435.066 401.785 435.688C401.496 436.241 401.681 436.944 402.084 437.417C402.488 437.889 403.065 438.177 403.641 438.396C406.501 439.491 409.672 439.353 412.727 439.214C416.498 439.042 420.257 438.857 424.027 438.684C425.307 438.627 426.668 438.546 427.74 437.843C429.331 436.817 429.873 434.743 429.908 432.853C429.977 429.418 426.31 433.325 425.226 433.982L425.238 433.971Z" fill="#F4A046"/>
<path d="M365.152 430.79C364.691 433.118 364.149 435.608 362.419 437.221C360.378 439.134 357.299 439.273 354.498 439.319C350.427 439.376 346.345 439.434 342.275 439.492C341.987 440.056 342.621 440.644 343.186 440.921C346.011 442.315 349.286 442.304 352.434 442.396C356.077 442.5 359.721 442.776 363.342 443.214C364.956 443.41 366.881 443.525 367.885 442.246C368.634 441.289 368.519 439.953 368.542 438.742C368.588 435.055 370.099 431.493 370.064 427.805C370.064 427.379 369.995 426.884 369.614 426.676C369.418 426.572 369.199 426.572 368.98 426.595C365.844 426.803 365.694 428.082 365.163 430.802L365.152 430.79Z" fill="white"/>
<path d="M364.994 440.355C361.777 441.784 358.687 441.865 355.273 440.978C355.066 440.92 353.936 440.517 353.728 440.459C353.694 439.779 353.844 439.134 353.302 439.088C350.788 438.857 348.251 438.73 345.726 438.719C344.919 438.719 341.921 438.385 341.517 438.961C341.16 439.468 341.252 440.194 341.587 440.713C341.921 441.231 342.463 441.588 343.005 441.888C345.703 443.34 348.851 443.628 351.907 443.893C355.666 444.216 359.413 444.527 363.172 444.85C364.452 444.954 365.801 445.057 366.966 444.504C368.672 443.697 369.491 441.704 369.779 439.837C370.298 436.437 366.158 439.837 364.994 440.344V440.355Z" fill="#F4A046"/>
<mask id="mask0_7754_15329" style="mask-type:luminance" maskUnits="userSpaceOnUse" x="199" y="94" width="35" height="28">
<path d="M210.517 121.052L200.001 121.398C199.644 106.773 209.825 94.6954 222.74 94.4073L233.244 94.0615C220.341 94.3496 210.16 106.428 210.517 121.052Z" fill="white"/>
</mask>
<g mask="url(#mask0_7754_15329)">
<path fill-rule="evenodd" clip-rule="evenodd" d="M208.637 100.204L208.637 100.204C212.499 96.6894 217.377 94.5342 222.739 94.419L232.764 94.089C227.591 94.3185 222.889 96.4485 219.141 99.8584L219.142 99.8584C216.709 102.071 214.691 104.826 213.215 107.96L202.711 108.306C204.187 105.171 206.205 102.417 208.637 100.204ZM232.764 94.089L233.243 94.0732C233.083 94.0767 232.923 94.082 232.764 94.089ZM210.517 121.053L200.001 121.399C199.886 116.662 200.878 112.191 202.699 108.307L213.204 107.961C211.37 111.845 210.39 116.316 210.506 121.053H210.517Z" fill="url(#paint1_linear_7754_15329)"/>
</g>
<path d="M217.457 402.014L206.953 402.359L200 121.398L210.516 121.053L217.457 402.014Z" fill="url(#paint2_linear_7754_15329)"/>
<mask id="mask1_7754_15329" style="mask-type:luminance" maskUnits="userSpaceOnUse" x="206" y="402" width="36" height="27">
<path d="M241.499 427.956L230.995 428.302C218.092 428.59 207.322 416.973 206.965 402.359L217.469 402.014C217.827 416.627 228.596 428.244 241.499 427.956Z" fill="white"/>
</mask>
<g mask="url(#mask1_7754_15329)">
<path d="M241.499 427.956L230.995 428.302C218.092 428.59 207.322 416.973 206.965 402.359L217.469 402.014C217.827 416.627 228.596 428.244 241.499 427.956Z" fill="url(#paint3_linear_7754_15329)"/>
</g>
<path d="M335.464 147.271L335.694 156.33L290.828 157.344L290.609 148.274L335.464 147.271Z" fill="#BBBBBB"/>
<path d="M275.712 144.839C280.059 144.747 283.714 148.689 283.841 153.61L284.775 191.399C284.902 196.32 281.443 200.412 277.096 200.515L237.684 201.403C233.337 201.495 229.682 197.565 229.566 192.644L228.632 154.854C228.505 149.933 231.965 145.831 236.312 145.727L275.723 144.839H275.712Z" fill="#F4A046"/>
<path d="M344.976 130.33L351.203 382.422L226.199 385.222L219.973 133.131L344.976 130.33ZM343.27 358.3L340.802 258.692L231.238 261.147L233.706 360.755L343.27 358.3ZM228.621 154.843L229.555 192.633C229.681 197.554 233.337 201.484 237.672 201.391L277.084 200.504C281.431 200.412 284.89 196.309 284.763 191.388L283.829 153.598C283.703 148.677 280.047 144.736 275.712 144.828L236.3 145.716C231.953 145.808 228.494 149.922 228.621 154.843ZM341.955 245.116L341.736 236.046L230.696 238.536L230.915 247.606L341.955 245.116ZM341.54 228.521L341.321 219.451L230.281 221.94L230.5 231.01L341.54 228.521ZM291.013 164.881L291.232 173.951L336.098 172.948L335.879 163.879L291.013 164.881ZM290.609 148.274L290.829 157.344L335.694 156.341L335.475 147.271L290.609 148.274Z" fill="white"/>
<path d="M335.877 163.866L336.097 172.936L291.242 173.95L291.012 164.88L335.877 163.866Z" fill="#BBBBBB"/>
<path d="M287.956 102.06C289.098 102.037 290.066 103.074 290.089 104.376C290.124 105.679 289.213 106.751 288.071 106.774C286.918 106.797 285.961 105.759 285.927 104.469C285.892 103.155 286.803 102.083 287.956 102.06Z" fill="url(#paint4_linear_7754_15329)"/>
<path d="M299.454 113.216C300.169 113.204 300.78 113.85 300.792 114.668C300.815 115.486 300.238 116.166 299.523 116.178L277.096 116.685C276.381 116.696 275.77 116.051 275.758 115.233C275.735 114.415 276.312 113.735 277.027 113.723L299.454 113.216Z" fill="url(#paint5_linear_7754_15329)"/>
<path d="M290.177 389.907C296.517 389.768 301.818 395.479 301.995 402.646C302.173 409.814 297.151 415.753 290.823 415.892C284.483 416.031 279.182 410.32 279.005 403.153C278.827 395.973 283.849 390.034 290.177 389.895V389.907Z" fill="url(#paint6_linear_7754_15329)"/>
<path d="M265.599 112.605C266.937 112.571 268.067 113.792 268.101 115.314C268.136 116.846 267.075 118.091 265.737 118.126C264.4 118.16 263.27 116.95 263.235 115.417C263.201 113.896 264.261 112.64 265.599 112.605Z" fill="url(#paint7_linear_7754_15329)"/>
<path d="M340.814 258.692L343.27 358.3L233.706 360.755L231.25 261.147L340.814 258.692Z" fill="#BBBBBB"/>
<path d="M329.698 91.8949C342.601 91.6068 353.37 103.212 353.728 117.837L360.669 398.798C361.027 413.411 350.857 425.501 337.942 425.789L241.488 427.955C228.585 428.244 217.816 416.627 217.458 402.013L210.517 121.052C210.16 106.439 220.33 94.3497 233.244 94.0615L329.698 91.8949ZM352.01 383.274L345.737 129.442L219.176 132.289L225.449 386.121L352.01 383.274ZM290.897 415.878C297.089 415.739 301.978 409.931 301.805 402.924C301.632 395.905 296.455 390.327 290.263 390.466C284.071 390.604 279.182 396.412 279.355 403.431C279.528 410.438 284.705 416.016 290.897 415.878ZM277.026 113.723C276.311 113.734 275.734 114.414 275.757 115.232C275.78 116.051 276.38 116.696 277.095 116.685L299.522 116.177C300.237 116.166 300.813 115.486 300.79 114.668C300.767 113.849 300.168 113.204 299.453 113.216L277.026 113.723ZM265.599 112.605C264.261 112.639 263.189 113.896 263.235 115.417C263.27 116.95 264.4 118.148 265.737 118.125C267.075 118.091 268.147 116.846 268.101 115.313C268.066 113.792 266.936 112.582 265.599 112.605ZM287.957 102.06C286.804 102.083 285.893 103.166 285.927 104.468C285.962 105.771 286.919 106.796 288.072 106.773C289.214 106.75 290.125 105.667 290.09 104.376C290.055 103.062 289.098 102.037 287.957 102.06Z" fill="url(#paint8_linear_7754_15329)"/>
<path d="M341.321 219.45L341.54 228.52L230.5 231.009L230.27 221.94L341.321 219.45Z" fill="#BBBBBB"/>
<path d="M341.724 236.058L341.954 245.116L230.914 247.617L230.684 238.547L341.724 236.058Z" fill="#BBBBBB"/>
<path d="M433.128 285.175L428.608 251.569C428.608 251.569 399.458 246.66 390.026 234.985C381.217 224.094 376.017 214.667 376.017 214.667L361.465 225.846C361.465 225.846 377.135 264.995 407.345 279.528" fill="#F09123"/>
<path d="M368 181.729L360.194 180.957C359.952 180.934 359.698 180.923 359.444 180.934C359.421 180.934 359.398 180.934 359.375 180.934C359.041 180.946 358.706 180.98 358.372 181.049L327.677 187.515C327.562 187.538 327.435 187.572 327.32 187.595C327.251 187.619 327.193 187.642 327.124 187.665C326.939 187.722 326.743 187.791 326.559 187.861C326.444 187.907 326.328 187.953 326.213 188.01C326.029 188.103 325.832 188.206 325.648 188.31C325.579 188.356 325.498 188.379 325.429 188.425C325.406 188.437 325.383 188.46 325.36 188.483C325.071 188.667 324.783 188.875 324.506 189.105C324.472 189.14 324.437 189.174 324.391 189.209C324.161 189.416 323.93 189.635 323.699 189.866C323.619 189.947 323.538 190.039 323.457 190.131C323.284 190.327 323.111 190.534 322.95 190.753C322.869 190.857 322.8 190.949 322.731 191.053C322.546 191.318 322.362 191.583 322.2 191.871C322.166 191.917 322.131 191.963 322.108 192.009C322.108 192.009 322.097 192.033 322.085 192.044C321.889 192.378 321.705 192.724 321.543 193.093C321.497 193.185 321.462 193.289 321.416 193.392C321.301 193.657 321.186 193.934 321.082 194.222C321.059 194.28 321.036 194.326 321.013 194.384C320.99 194.43 320.99 194.487 320.967 194.545C320.782 195.075 320.621 195.628 320.494 196.204C320.494 196.227 320.482 196.251 320.471 196.262C320.459 196.32 320.459 196.377 320.448 196.435C320.355 196.896 320.275 197.368 320.217 197.852C320.217 197.922 320.194 197.979 320.182 198.048C320.182 198.083 320.182 198.118 320.182 198.141C320.136 198.671 320.113 199.201 320.113 199.743C320.113 199.789 320.113 199.835 320.113 199.892C320.113 200.146 320.125 200.388 320.136 200.641L322.719 242.995C322.742 243.421 322.788 243.825 322.846 244.228C322.846 244.274 322.846 244.332 322.858 244.378C322.869 244.493 322.904 244.597 322.915 244.7C322.938 244.827 322.961 244.954 322.984 245.081C323.019 245.254 323.065 245.426 323.1 245.599C323.134 245.715 323.157 245.841 323.192 245.957C323.238 246.141 323.296 246.314 323.353 246.487C323.388 246.59 323.411 246.694 323.457 246.798C323.526 247.005 323.607 247.201 323.688 247.397C323.711 247.466 323.734 247.524 323.768 247.593C323.884 247.847 323.999 248.1 324.114 248.342C324.149 248.4 324.172 248.446 324.207 248.504C324.299 248.688 324.403 248.861 324.506 249.034C324.553 249.114 324.61 249.195 324.668 249.276C324.76 249.414 324.852 249.552 324.945 249.691C325.002 249.771 325.071 249.852 325.129 249.933C325.221 250.048 325.314 250.175 325.406 250.278C325.475 250.359 325.544 250.44 325.613 250.509C325.706 250.613 325.809 250.716 325.913 250.809C325.994 250.878 326.063 250.947 326.144 251.016C326.248 251.108 326.351 251.2 326.455 251.281C326.536 251.35 326.617 251.408 326.697 251.465C326.801 251.546 326.916 251.615 327.02 251.696C327.101 251.754 327.182 251.811 327.274 251.857C327.389 251.926 327.504 251.984 327.62 252.053C327.7 252.099 327.793 252.145 327.873 252.18C328 252.238 328.127 252.284 328.242 252.341C328.323 252.376 328.404 252.41 328.496 252.434C328.634 252.48 328.784 252.514 328.923 252.56C328.992 252.583 329.061 252.606 329.142 252.618C329.361 252.664 329.568 252.699 329.787 252.722C329.787 252.722 329.788 252.722 329.799 252.722L337.605 253.494C337.386 253.471 337.156 253.436 336.937 253.39C336.867 253.379 336.798 253.355 336.729 253.332C336.579 253.298 336.441 253.252 336.291 253.206C336.21 253.183 336.129 253.137 336.049 253.113C335.922 253.067 335.795 253.01 335.668 252.952C335.587 252.918 335.495 252.871 335.414 252.825C335.299 252.768 335.184 252.699 335.069 252.629C334.988 252.583 334.896 252.526 334.815 252.468C334.7 252.399 334.596 252.318 334.492 252.238C334.411 252.18 334.331 252.111 334.25 252.053C334.146 251.973 334.042 251.88 333.939 251.788C333.858 251.719 333.789 251.65 333.708 251.581C333.604 251.477 333.512 251.385 333.408 251.281C333.339 251.2 333.27 251.131 333.201 251.051C333.108 250.935 333.016 250.82 332.924 250.705C332.855 250.624 332.797 250.543 332.739 250.463C332.647 250.336 332.555 250.198 332.463 250.059C332.405 249.979 332.359 249.898 332.301 249.817C332.197 249.645 332.094 249.46 332.001 249.276C331.967 249.218 331.944 249.172 331.909 249.114C331.782 248.872 331.667 248.619 331.563 248.365C331.54 248.296 331.517 248.239 331.483 248.169C331.402 247.973 331.321 247.778 331.252 247.57C331.217 247.466 331.183 247.363 331.148 247.259C331.09 247.086 331.033 246.913 330.987 246.729C330.952 246.614 330.929 246.487 330.894 246.371C330.848 246.199 330.814 246.026 330.779 245.853C330.756 245.726 330.733 245.599 330.71 245.473C330.687 245.323 330.652 245.161 330.629 245C330.572 244.597 330.525 244.193 330.502 243.767L327.92 201.414C327.896 201.114 327.896 200.814 327.896 200.526C327.896 199.985 327.92 199.454 327.966 198.924C327.966 198.832 327.989 198.728 328 198.636C328.058 198.152 328.127 197.68 328.231 197.219C328.242 197.138 328.254 197.069 328.277 196.988C328.404 196.423 328.565 195.87 328.75 195.329C328.784 195.225 328.819 195.11 328.865 195.006C328.969 194.729 329.084 194.453 329.199 194.176C329.246 194.072 329.28 193.98 329.326 193.876C329.499 193.519 329.672 193.162 329.868 192.828C329.903 192.77 329.937 192.712 329.984 192.655C330.156 192.378 330.329 192.102 330.514 191.837C330.583 191.733 330.664 191.641 330.733 191.537C330.894 191.318 331.067 191.111 331.252 190.915C331.333 190.822 331.413 190.73 331.494 190.65C331.713 190.419 331.944 190.2 332.186 189.993C332.22 189.958 332.255 189.923 332.301 189.889C332.578 189.658 332.866 189.451 333.154 189.267C333.247 189.209 333.35 189.151 333.443 189.094C333.627 188.99 333.812 188.886 334.008 188.794C334.123 188.736 334.238 188.69 334.342 188.644C334.527 188.564 334.711 188.506 334.907 188.448C335.092 188.391 335.276 188.333 335.461 188.287L366.155 181.822C366.49 181.752 366.824 181.718 367.158 181.706C367.435 181.706 367.712 181.706 367.977 181.729H368Z" fill="url(#paint9_linear_7754_15329)"/>
<path d="M366.191 181.834C370.711 180.877 374.735 185.21 375.115 191.468L377.698 233.821C378.079 240.079 374.689 245.969 370.157 246.925L339.463 253.39C334.931 254.347 330.918 250.014 330.538 243.756L327.955 201.402C327.574 195.145 330.964 189.255 335.496 188.299L366.191 181.834Z" fill="url(#paint10_linear_7754_15329)"/>
<path d="M432.298 310.945C432.298 310.945 429.565 338.904 428.539 354.243C427.513 369.594 437.533 402.267 437.187 411.129C436.841 419.992 434.8 425.109 434.8 425.109L413.318 424.913L406.02 313.319L432.298 310.934V310.945Z" fill="url(#paint11_linear_7754_15329)"/>
<path d="M437.144 236.602C441.427 228.218 438.099 217.951 429.711 213.67C421.323 209.389 411.051 212.715 406.767 221.099C402.484 229.483 405.812 239.75 414.2 244.031C422.588 248.312 432.861 244.986 437.144 236.602Z" fill="#F2F2F2"/>
<path d="M417.354 237.059L413.652 255.948L424.088 259.867L428.192 236.356L417.354 237.059Z" fill="#F2F2F2"/>
<path d="M433.195 306.934C433.195 306.934 401.566 309.043 391.523 312.834C386.345 328.623 363.953 419.668 361.785 429.119C365.175 429.868 379.75 432.011 379.75 432.011C379.75 432.011 389.078 422.319 398.187 391.997C407.827 359.924 429.435 324.555 431.073 321.95C433.587 317.963 433.195 306.934 433.195 306.934Z" fill="url(#paint12_linear_7754_15329)"/>
<path d="M331.876 234.616C331.691 233.925 331.461 233.199 330.884 232.772C330.158 232.219 329.12 232.346 328.267 232.692C327.425 233.037 326.652 233.567 325.765 233.798C324.173 234.213 322.294 233.648 320.979 234.628C320.218 235.204 319.849 236.253 320.103 237.175C320.23 237.647 320.507 238.074 320.703 238.523C321.383 240.067 321.268 241.946 322.259 243.306C323.02 244.343 324.266 244.862 325.465 245.334C328.347 246.487 331.23 247.628 334.124 248.78C334.309 248.849 334.528 248.93 334.701 248.838C334.851 248.768 334.931 248.596 334.989 248.446C336.2 245.438 335.681 243.986 334.17 241.554C332.856 239.445 332.487 236.967 331.876 234.605V234.616Z" fill="#F2F2F2"/>
<path d="M329.938 226.871C329.73 226.33 329.43 225.742 328.888 225.558C328.231 225.339 327.505 225.846 327.239 226.48C326.974 227.113 327.032 227.84 327.101 228.531C327.297 230.444 327.493 232.357 327.689 234.27C327.804 235.354 328.047 236.633 329.038 237.082C329.776 237.417 330.71 237.094 331.229 236.472C332.221 235.261 331.563 233.832 331.367 232.484C331.079 230.559 330.664 228.692 329.949 226.871H329.938Z" fill="#F2F2F2"/>
<path d="M429.356 258.773C428.768 254.693 425.217 251.696 421.089 251.835C412.291 252.123 398.984 253.091 396.794 254.255C394.072 255.695 375.6 261.366 369.939 261.366C364.277 261.366 340.789 240.103 340.789 240.103L329.305 252.469C329.305 252.469 350.279 278.779 358.12 281.834C365.961 284.876 390.579 284.703 390.579 284.703L391.709 313.054C391.709 313.054 428.33 320.453 431.812 314.368C435.294 308.271 433.115 285.187 433.115 285.187L429.345 258.784L429.356 258.773Z" fill="#F4A046"/>
<path d="M419.855 222.988C420.5 225.039 419.174 227.736 420.754 229.2C421.63 230.018 422.979 229.96 424.144 230.248C426.254 230.767 427.949 232.68 428.214 234.835C428.479 236.99 427.292 239.261 425.366 240.275C424.79 240.574 424.132 240.793 423.671 241.243C422.783 242.119 422.853 243.582 423.279 244.746C423.706 245.91 424.409 246.982 424.64 248.215C425.043 250.417 423.81 252.549 423.002 254.635C420.42 261.365 422.218 268.983 424.974 275.656C427.061 280.703 429.771 285.636 433.864 289.243C437.958 292.851 443.665 294.971 448.993 293.761C454.32 292.539 458.817 287.434 458.309 281.994C458.125 279.977 457.318 278.064 456.58 276.174C454.481 270.781 452.913 264.65 455.161 259.314C456.361 256.455 458.609 254.012 459.116 250.947C459.785 247.005 457.318 243.11 454.17 240.644C451.022 238.177 447.205 236.737 443.7 234.789C440.206 232.841 436.828 230.098 435.663 226.272C434.833 223.564 435.19 220.568 434.21 217.905C432.884 214.31 429.194 211.924 425.389 211.405C422.334 210.99 414.562 211.601 413.086 215.139C411.391 219.196 418.828 219.703 419.866 222.988H419.855Z" fill="url(#paint13_linear_7754_15329)"/>
<path d="M449.326 241.266C451.194 238.327 451.459 233.96 448.772 231.747C447.654 230.825 446.155 230.387 445.152 229.338C443.56 227.69 443.618 225.12 443.272 222.85C442.615 218.597 440.055 214.667 436.434 212.328C432.814 209.988 428.19 209.262 424.027 210.369C423.036 210.634 422.01 211.037 421.422 211.878C420.488 213.215 421.053 215.14 422.125 216.373C423.197 217.606 424.685 218.401 425.907 219.485C429.159 222.366 430.3 226.86 431.88 230.906C433.829 235.873 436.711 240.46 440.297 244.413C445.221 249.829 446.247 246.084 449.314 241.266H449.326Z" fill="url(#paint14_linear_7754_15329)"/>
<path d="M463.29 262.391C464.605 265.249 464.801 268.568 464.132 271.645C463.532 274.446 462.241 277.096 460.396 279.286C459.566 280.277 458.609 281.188 457.421 281.683C456.06 282.248 454.538 282.225 453.062 282.098C448.024 281.683 442.546 279.92 440.137 275.483C437.381 270.412 438.764 256.49 445.452 254.692C451.356 253.102 460.776 256.928 463.29 262.391Z" fill="url(#paint15_linear_7754_15329)"/>
</g>
<path opacity="0.4" d="M211.516 404.348C115.674 405.244 62.527 406.588 19.9576 352.256C-16.5306 281.119 -4.74296 201.821 69.9028 124.789C201.255 -10.7624 377.524 -11.8412 505.259 13.9396C613.494 35.7846 643.863 135.574 601.902 291.289C559.941 447.004 331.319 403.227 211.516 404.348Z" fill="url(#paint16_linear_7754_15329)"/>
<defs>
<linearGradient id="paint0_linear_7754_15329" x1="400" y1="426.895" x2="400" y2="464.895" gradientUnits="userSpaceOnUse">
<stop stop-color="#E5EDF3" stop-opacity="0.2"/>
<stop offset="1" stop-color="#1F232A" stop-opacity="0"/>
</linearGradient>
<linearGradient id="paint1_linear_7754_15329" x1="216.618" y1="94.0732" x2="216.618" y2="121.399" gradientUnits="userSpaceOnUse">
<stop stop-color="#E5EDF3"/>
<stop offset="1" stop-color="#1F232A"/>
</linearGradient>
<linearGradient id="paint2_linear_7754_15329" x1="373.5" y1="267.395" x2="200" y2="271.895" gradientUnits="userSpaceOnUse">
<stop stop-color="#E5EDF3"/>
<stop offset="1" stop-color="#1F232A"/>
</linearGradient>
<linearGradient id="paint3_linear_7754_15329" x1="325" y1="349.895" x2="207" y2="419.895" gradientUnits="userSpaceOnUse">
<stop stop-color="#E5EDF3"/>
<stop offset="1" stop-color="#1F232A"/>
</linearGradient>
<linearGradient id="paint4_linear_7754_15329" x1="298" y1="64.3945" x2="288.008" y2="106.774" gradientUnits="userSpaceOnUse">
<stop stop-color="#E5EDF3"/>
<stop offset="1" stop-color="#1F232A"/>
</linearGradient>
<linearGradient id="paint5_linear_7754_15329" x1="284" y1="80.8945" x2="288.275" y2="116.685" gradientUnits="userSpaceOnUse">
<stop stop-color="#E5EDF3"/>
<stop offset="1" stop-color="#1F232A"/>
</linearGradient>
<linearGradient id="paint6_linear_7754_15329" x1="304" y1="389.895" x2="270.5" y2="423.395" gradientUnits="userSpaceOnUse">
<stop stop-color="#E5EDF3"/>
<stop offset="1" stop-color="#1F232A"/>
</linearGradient>
<linearGradient id="paint7_linear_7754_15329" x1="272.5" y1="83.8945" x2="265.668" y2="118.126" gradientUnits="userSpaceOnUse">
<stop stop-color="#E5EDF3"/>
<stop offset="1" stop-color="#1F232A"/>
</linearGradient>
<linearGradient id="paint8_linear_7754_15329" x1="-6" y1="213.395" x2="372.5" y2="299.895" gradientUnits="userSpaceOnUse">
<stop stop-color="#E5EDF3"/>
<stop offset="1" stop-color="#1F232A"/>
</linearGradient>
<linearGradient id="paint9_linear_7754_15329" x1="326.5" y1="197.395" x2="391" y2="234.895" gradientUnits="userSpaceOnUse">
<stop stop-color="#E5EDF3"/>
<stop offset="1" stop-color="#1F232A"/>
</linearGradient>
<linearGradient id="paint10_linear_7754_15329" x1="350" y1="179.395" x2="347" y2="255.395" gradientUnits="userSpaceOnUse">
<stop stop-color="#E5EDF3"/>
<stop offset="1" stop-color="#1F232A"/>
</linearGradient>
<linearGradient id="paint11_linear_7754_15329" x1="434.5" y1="494.395" x2="433.5" y2="331.895" gradientUnits="userSpaceOnUse">
<stop stop-color="#E5EDF3"/>
<stop offset="1" stop-color="#1F232A"/>
</linearGradient>
<linearGradient id="paint12_linear_7754_15329" x1="344" y1="504.895" x2="402.5" y2="314.395" gradientUnits="userSpaceOnUse">
<stop stop-color="#E5EDF3"/>
<stop offset="1" stop-color="#1F232A"/>
</linearGradient>
<linearGradient id="paint13_linear_7754_15329" x1="544" y1="146.895" x2="418.5" y2="255.895" gradientUnits="userSpaceOnUse">
<stop stop-color="#E5EDF3"/>
<stop offset="1" stop-color="#1F232A"/>
</linearGradient>
<linearGradient id="paint14_linear_7754_15329" x1="528" y1="170.395" x2="421" y2="233.395" gradientUnits="userSpaceOnUse">
<stop stop-color="#E5EDF3"/>
<stop offset="1" stop-color="#1F232A"/>
</linearGradient>
<linearGradient id="paint15_linear_7754_15329" x1="493.5" y1="178.395" x2="436.5" y2="272.395" gradientUnits="userSpaceOnUse">
<stop stop-color="#E5EDF3"/>
<stop offset="1" stop-color="#1F232A"/>
</linearGradient>
<linearGradient id="paint16_linear_7754_15329" x1="317.902" y1="-1.21143" x2="317.902" y2="406.789" gradientUnits="userSpaceOnUse">
<stop stop-color="#E5EDF3" stop-opacity="0.5"/>
<stop offset="1" stop-color="#1F232A" stop-opacity="0"/>
</linearGradient>
<clipPath id="clip0_7754_15329">
<rect width="284" height="381" fill="white" transform="translate(200 91.8945)"/>
</clipPath>
</defs>
</svg>
