<svg width="58" height="67" viewBox="0 0 58 67" fill="none" xmlns="http://www.w3.org/2000/svg">
<g clip-path="url(#clip0_2493_4964)">
<path d="M15.7887 65.3193H44.435" stroke="white" stroke-width="2" stroke-linecap="round" stroke-linejoin="round"/>
<path d="M13.1152 65.3193H11.0107" stroke="white" stroke-width="2" stroke-linecap="round" stroke-linejoin="round"/>
<path d="M49.5397 65.3193H47.4352" stroke="white" stroke-width="2" stroke-linecap="round" stroke-linejoin="round"/>
<path d="M26.3439 50.4761C26.3439 55.1642 19.7009 61.0258 19.7009 61.0258H40.9746C40.9746 61.0258 34.3317 55.1642 34.3317 50.4761" stroke="white" stroke-width="2" stroke-linecap="round" stroke-linejoin="round"/>
<path d="M8.95244 15.5601H4.94762C3.14259 15.5601 1.6806 17.022 1.6806 18.8271V47.2093C1.6806 49.0143 3.14259 50.4763 4.94762 50.4763H53.4492C55.2542 50.4763 56.7162 49.0143 56.7162 47.2093V18.8271C56.7162 17.022 55.2542 15.5601 53.4492 15.5601H49.9399" stroke="white" stroke-width="2" stroke-linecap="round" stroke-linejoin="round"/>
<path d="M2.2605 45.2627H56.7162" stroke="white" stroke-width="2" stroke-linecap="round" stroke-linejoin="round"/>
<path d="M9.06683 45.2627V4.94768C9.06683 3.14265 10.5288 1.68066 12.3339 1.68066H46.27C48.075 1.68066 49.537 3.14265 49.537 4.94768V45.2627" stroke="white" stroke-width="2" stroke-linecap="round" stroke-linejoin="round"/>
<path d="M35.938 17.2316C35.0015 20.6103 31.906 23.0877 28.2306 23.0877C23.8147 23.0877 20.2346 19.5076 20.2346 15.0917C20.2346 10.6758 23.8147 7.0957 28.2306 7.0957C30.915 7.0957 33.289 8.41884 34.7401 10.4471" stroke="white" stroke-width="2" stroke-linecap="round" stroke-linejoin="round"/>
<path d="M33.2128 12.971L35.2084 14.6127L38.5162 10.8257" stroke="white" stroke-width="2" stroke-linecap="round" stroke-linejoin="round"/>
<path d="M30.3814 12.6009C30.3814 13.9022 29.4448 15.2172 28.2878 15.2172C27.1307 15.2172 26.1942 13.9022 26.1942 12.6009C26.1942 11.2995 27.1307 10.2432 28.2878 10.2432C29.4448 10.2432 30.3814 11.2995 30.3814 12.6009Z" stroke="white" stroke-width="2" stroke-linecap="round" stroke-linejoin="round"/>
<path d="M33.3979 21.193C32.4886 19.2845 30.542 17.9668 28.2877 17.9668C26.0335 17.9668 23.9562 19.3743 23.0905 21.3863" stroke="white" stroke-width="2" stroke-linecap="round" stroke-linejoin="round"/>
<path d="M16.1725 29.6846H42.4339" stroke="white" stroke-width="2" stroke-linecap="round" stroke-linejoin="round"/>
<path d="M22.7665 34.5332H35.84" stroke="white" stroke-width="2" stroke-linecap="round" stroke-linejoin="round"/>
<path d="M26.9728 38.8892H31.6337" stroke="white" stroke-width="2" stroke-linecap="round" stroke-linejoin="round"/>
</g>
<defs>
<clipPath id="clip0_2493_4964">
<rect width="58" height="67" fill="white"/>
</clipPath>
</defs>
</svg>
