<svg width="54" height="65" viewBox="0 0 54 65" fill="none" xmlns="http://www.w3.org/2000/svg">
<g clip-path="url(#clip0_2493_5627)">
<path d="M30.9487 63.7339H8.1372C3.40847 63.7339 0.0646153 59.0407 1.68032 54.596C5.41478 44.3396 15.251 37.0186 26.7977 37.0186C30.359 37.0186 33.7581 37.7142 36.8656 38.9783" stroke="white" stroke-width="2" stroke-miterlimit="10" stroke-linecap="round"/>
<path d="M27.3896 37.0127C37.2607 37.0127 45.2629 29.0105 45.2629 19.1394C45.2629 9.26821 37.2607 1.26605 27.3896 1.26605C17.5184 1.26605 9.51624 9.26821 9.51624 19.1394C9.51624 29.0105 17.5184 37.0127 27.3896 37.0127Z" stroke="white" stroke-width="2" stroke-miterlimit="10"/>
<path d="M42.5167 64.1359C40.4664 64.1359 38.6401 63.7235 37.0376 62.8987C35.4351 62.0739 34.1743 60.872 33.2552 59.2931C32.3361 57.7141 31.8766 55.8171 31.8766 53.6018C31.8766 51.4573 32.3126 49.5484 33.1845 47.8753C34.0564 46.2021 35.2819 44.9059 36.8608 43.9868C38.4633 43.0442 40.325 42.5729 42.446 42.5729C44.4727 42.5729 46.2873 43.0088 47.8898 43.8808C49.4923 44.7527 50.7413 45.9664 51.6368 47.5218C52.5323 49.0536 52.9801 50.7975 52.9801 52.7534C52.9801 54.6152 52.5205 56.1116 51.6015 57.2428C50.6824 58.374 49.4569 58.9396 47.9251 58.9396C47.1003 58.9396 46.3462 58.7157 45.6628 58.2679C44.9794 57.8202 44.6377 57.2899 44.6377 56.6772C44.3313 57.2664 43.8835 57.7141 43.2944 58.0205C42.7052 58.3268 42.0807 58.48 41.4209 58.48C40.1012 58.48 39.0171 58.0087 38.1687 57.0661C37.3439 56.0998 36.9315 54.7448 36.9315 53.0009C36.9315 51.9168 37.179 50.9624 37.6739 50.1376C38.1687 49.3128 38.7932 48.6883 39.5474 48.2641C40.3015 47.8163 41.0792 47.5925 41.8804 47.5925C41.9747 47.5925 42.3753 47.616 43.0823 47.6632L44.1781 47.7692H45.8749V55.0865C45.9927 55.7935 46.2284 56.3237 46.5819 56.6772C46.9589 57.0071 47.4067 57.1721 47.9251 57.1721C48.8678 57.1721 49.5866 56.7479 50.0814 55.8995C50.5999 55.0511 50.8591 53.9907 50.8591 52.7181C50.8591 51.1392 50.5056 49.7252 49.7987 48.4762C49.1152 47.2272 48.1372 46.2492 46.8647 45.5422C45.5921 44.8352 44.131 44.4817 42.4814 44.4817C40.761 44.4817 39.2528 44.8706 37.9566 45.6482C36.6841 46.4259 35.7061 47.4982 35.0227 48.865C34.3392 50.2319 33.9975 51.799 33.9975 53.5665C33.9975 56.2766 34.7634 58.3975 36.2952 59.9293C37.8506 61.4611 40.0305 62.227 42.8348 62.227C44.0367 62.227 45.2268 62.0974 46.4051 61.8382C47.5834 61.5554 48.5614 61.1666 49.3391 60.6717L49.8693 62.4391C48.6439 63.0754 47.3831 63.5114 46.087 63.7471C44.8144 64.0063 43.6243 64.1359 42.5167 64.1359ZM41.3855 56.5712C42.3282 56.5712 43.0941 56.0056 43.6832 54.8744L43.8953 54.3088V49.6781C43.0234 49.5602 42.3753 49.5013 41.9511 49.5013C41.032 49.5013 40.2897 49.8312 39.7241 50.4911C39.1821 51.1274 38.9111 51.9522 38.9111 52.9655C38.9111 55.3693 39.7359 56.5712 41.3855 56.5712Z" fill="white"/>
</g>
<defs>
<clipPath id="clip0_2493_5627">
<rect width="54" height="65" fill="white"/>
</clipPath>
</defs>
</svg>
