<svg width="65" height="65" viewBox="0 0 65 65" fill="none" xmlns="http://www.w3.org/2000/svg">
<g clip-path="url(#clip0_2194_19030)">
<path d="M18.0625 57.8054H46.1465" stroke="white" stroke-width="2" stroke-linecap="round" stroke-linejoin="round" stroke-dasharray="4 4"/>
<path d="M7.04199 47.042L7.04199 18.958" stroke="white" stroke-width="2" stroke-linecap="round" stroke-linejoin="round" stroke-dasharray="4 4"/>
<path d="M18.0625 6.80542H46.1465" stroke="white" stroke-width="2" stroke-linecap="round" stroke-linejoin="round" stroke-dasharray="4 4"/>
<path d="M60.0798 1.02075H53.9918C52.2982 1.02075 50.9253 2.39365 50.9253 4.08721V10.1752C50.9253 11.8688 52.2982 13.2417 53.9918 13.2417H60.0798C61.7733 13.2417 63.1462 11.8688 63.1462 10.1752V4.08721C63.1462 2.39365 61.7733 1.02075 60.0798 1.02075Z" stroke="white" stroke-width="2" stroke-linecap="round" stroke-linejoin="round"/>
<path d="M10.1753 1.02075H4.08725C2.39369 1.02075 1.02079 2.39365 1.02079 4.08721V10.1752C1.02079 11.8688 2.39369 13.2417 4.08725 13.2417H10.1753C11.8688 13.2417 13.2417 11.8688 13.2417 10.1752V4.08721C13.2417 2.39365 11.8688 1.02075 10.1753 1.02075Z" stroke="white" stroke-width="2" stroke-linecap="round" stroke-linejoin="round"/>
<path d="M60.0798 51.7583H53.9918C52.2982 51.7583 50.9253 53.1312 50.9253 54.8248V60.9128C50.9253 62.6063 52.2982 63.9792 53.9918 63.9792H60.0798C61.7733 63.9792 63.1462 62.6063 63.1462 60.9128V54.8248C63.1462 53.1312 61.7733 51.7583 60.0798 51.7583Z" stroke="white" stroke-width="2" stroke-linecap="round" stroke-linejoin="round"/>
<path d="M10.1753 51.7583H4.08725C2.39369 51.7583 1.02079 53.1312 1.02079 54.8248V60.9128C1.02079 62.6063 2.39369 63.9792 4.08725 63.9792H10.1753C11.8688 63.9792 13.2417 62.6063 13.2417 60.9128V54.8248C13.2417 53.1312 11.8688 51.7583 10.1753 51.7583Z" stroke="white" stroke-width="2" stroke-linecap="round" stroke-linejoin="round"/>
<path d="M33.0491 21.8617L35.6705 27.1699C35.8134 27.4557 36.0829 27.6517 36.4014 27.7007L42.2608 28.55C43.0529 28.6643 43.3714 29.6402 42.7957 30.1996L38.5573 34.3317C38.3287 34.5522 38.2266 34.8748 38.2797 35.1892L39.28 41.0241C39.4148 41.8162 38.5859 42.4164 37.8754 42.0448L32.6367 39.2887C32.355 39.1417 32.0161 39.1417 31.7343 39.2887L26.4956 42.0448C25.7852 42.4164 24.9563 41.8162 25.091 41.0241L26.0914 35.1892C26.1445 34.8748 26.0424 34.5563 25.8137 34.3317L21.5754 30.1996C20.9997 29.6402 21.3182 28.6643 22.1103 28.55L27.9697 27.7007C28.2841 27.6558 28.5576 27.4557 28.7006 27.1699L31.3219 21.8617C31.6772 21.1431 32.7021 21.1431 33.0573 21.8617H33.0491Z" stroke="white" stroke-width="2" stroke-linecap="round" stroke-linejoin="round"/>
<path d="M57.042 46.042V17.958" stroke="white" stroke-width="2" stroke-linecap="round" stroke-linejoin="round" stroke-dasharray="4 4"/>
</g>
<defs>
<clipPath id="clip0_2194_19030">
<rect width="64.167" height="65" fill="white"/>
</clipPath>
</defs>
</svg>
