<svg width="60" height="65" viewBox="0 0 60 65" fill="none" xmlns="http://www.w3.org/2000/svg">
<g clip-path="url(#clip0_2493_4582)">
<path d="M37.3931 56.703H6.77159C3.65739 56.703 1.13162 54.1772 1.13162 51.063V6.77159C1.13162 3.65739 3.65739 1.13162 6.77159 1.13162H51.063C54.1772 1.13162 56.703 3.65739 56.703 6.77159V31.5857" stroke="white" stroke-width="2" stroke-linecap="round" stroke-linejoin="round"/>
<path d="M11.9318 11.8458H47.6365" stroke="white" stroke-width="2" stroke-linecap="round" stroke-linejoin="round"/>
<path d="M11.9318 23.352H47.6365" stroke="white" stroke-width="2" stroke-linecap="round" stroke-linejoin="round"/>
<path d="M11.9318 34.8583H35.75" stroke="white" stroke-width="2" stroke-linecap="round" stroke-linejoin="round"/>
<path d="M11.9815 45.9888H28.915" stroke="white" stroke-width="2" stroke-linecap="round" stroke-linejoin="round"/>
<path d="M52.9822 53.6838V63.8684L48.0846 60.6999L43.1915 63.8684V54.2949" stroke="white" stroke-width="2" stroke-linecap="round" stroke-linejoin="round"/>
<path d="M45.3235 35.1706L46.9575 36.4108C47.6999 36.9767 48.7228 36.9948 49.4833 36.4561L51.1626 35.2747C52.6835 34.2019 54.7521 35.4467 54.5212 37.2935L54.2632 39.3304C54.1455 40.2538 54.6435 41.15 55.4899 41.5439L57.3548 42.4039C59.0432 43.1824 59.0024 45.5996 57.2869 46.3193L55.3949 47.1159C54.5348 47.478 54.0098 48.3517 54.0912 49.2841L54.2768 51.3301C54.4443 53.1814 52.3304 54.3537 50.8503 53.2266L49.2162 51.9864C48.4739 51.4206 47.4509 51.4025 46.6905 51.9411L45.0111 53.1225C43.4903 54.1953 41.4217 52.9505 41.6525 51.1037L41.9105 49.0668C42.0282 48.1434 41.5303 47.2472 40.6838 46.8534L38.8189 45.9934C37.1306 45.2148 37.1713 42.7977 38.8868 42.078L40.7789 41.2813C41.6389 40.9192 42.164 40.0456 42.0825 39.1131L41.8969 37.0672C41.7295 35.2159 43.8433 34.0435 45.3235 35.1706Z" stroke="white" stroke-width="2" stroke-linecap="round" stroke-linejoin="round"/>
</g>
<defs>
<clipPath id="clip0_2493_4582">
<rect width="59.7267" height="65" fill="white"/>
</clipPath>
</defs>
</svg>
