<svg width="66" height="67" viewBox="0 0 66 67" fill="none" xmlns="http://www.w3.org/2000/svg">
<path d="M40.186 56.5771C48.4925 56.5771 55.2263 49.8434 55.2263 41.5369C55.2263 33.2303 48.4925 26.4966 40.186 26.4966C31.8795 26.4966 25.1458 33.2303 25.1458 41.5369C25.1458 49.8434 31.8795 56.5771 40.186 56.5771Z" stroke="white" stroke-width="2" stroke-linecap="round" stroke-linejoin="round"/>
<path d="M40.1862 60.5551C50.6897 60.5551 59.2045 52.0403 59.2045 41.5368C59.2045 31.0333 50.6897 22.5186 40.1862 22.5186C29.6827 22.5186 21.168 31.0333 21.168 41.5368C21.168 52.0403 29.6827 60.5551 40.1862 60.5551Z" stroke="white" stroke-width="2" stroke-linecap="round" stroke-linejoin="round"/>
<path d="M56.044 52.3135L63.2902 59.5597C64.6828 60.9523 64.6828 63.2138 63.2902 64.6064C61.8977 65.999 59.6361 65.999 58.2435 64.6064L50.9973 57.3602" stroke="white" stroke-width="2" stroke-linecap="round" stroke-linejoin="round"/>
<path d="M58.6944 55.668L54.5491 59.735" stroke="white" stroke-width="2" stroke-linecap="round" stroke-linejoin="round"/>
<path d="M40.1026 16.7947V5.23853C40.1026 3.44924 38.6533 2 36.864 2H4.23853C2.44924 2 1 3.44924 1 5.23853V47.5688C1 49.3581 2.44924 50.8074 4.23853 50.8074H16.5368" stroke="white" stroke-width="2" stroke-linecap="round" stroke-linejoin="round"/>
<path d="M17.9078 35.1084H1" stroke="white" stroke-width="2" stroke-linecap="round" stroke-linejoin="round"/>
<path d="M5.37744 39.8667H15.5653" stroke="white" stroke-width="2" stroke-linecap="round" stroke-linejoin="round"/>
<path d="M5.37744 44.6245H13.3685" stroke="white" stroke-width="2" stroke-linecap="round" stroke-linejoin="round"/>
<path d="M31.1372 36.5522V47.3015H49.2514" stroke="white" stroke-width="2" stroke-linecap="round" stroke-linejoin="round"/>
<path d="M34.9749 38.4741V47.3018" stroke="white" stroke-width="2" stroke-linecap="round" stroke-linejoin="round"/>
<path d="M40.1943 41.9258V47.3017" stroke="white" stroke-width="2" stroke-linecap="round" stroke-linejoin="round"/>
<path d="M45.106 40.085V47.3015" stroke="white" stroke-width="2" stroke-linecap="round" stroke-linejoin="round"/>
<path d="M24.8382 10.1748C22.8924 12.4904 20.45 14.1069 17.5083 14.1069H10.7749C6.73479 14.1069 7.27725 21.2074 10.7749 21.2074H17.6298C19.7969 21.2074 23.0138 22.6593 24.9002 24.7266" stroke="white" stroke-width="2" stroke-linecap="round" stroke-linejoin="round"/>
<path d="M11.3091 21.207H17.0872V26.6235C17.0872 28.2184 15.7917 29.5112 14.1995 29.5112C12.6045 29.5112 11.3118 28.2158 11.3118 26.6235V21.207H11.3091Z" stroke="white" stroke-width="2" stroke-linecap="round" stroke-linejoin="round"/>
<path d="M16.5366 14.104V21.2072" stroke="white" stroke-width="2" stroke-linecap="round" stroke-linejoin="round"/>
<path d="M25.1055 24.7262V8.37969C25.1055 6.91425 26.2929 5.72949 27.7557 5.72949C29.2211 5.72949 30.4059 6.91695 30.4059 8.37969V20.3461" stroke="white" stroke-width="2" stroke-linecap="round" stroke-linejoin="round"/>
</svg>
