<svg width="60" height="65" viewBox="0 0 60 65" fill="none" xmlns="http://www.w3.org/2000/svg">
<g clip-path="url(#clip0_2493_7270)">
<path d="M54.7168 24.928V42.991C54.7168 47.7604 50.8468 51.6316 46.0696 51.6316H28.9709L17.931 63.0249C16.0085 65.0083 12.6503 63.6486 12.6503 60.8876V51.6316H9.6875C4.9145 51.6316 1.04034 47.7645 1.04034 42.991V18.6908C1.04034 13.9215 4.91034 10.0502 9.6875 10.0502H33.5899" stroke="white" stroke-width="2" stroke-linecap="round" stroke-linejoin="round"/>
<path d="M50.6428 2.1664L52.1659 5.25174C52.4613 5.84635 53.0314 6.26217 53.6889 6.35781L57.097 6.85262C58.7532 7.0938 59.419 9.13128 58.2164 10.2997L55.7487 12.7031C55.2744 13.1688 55.0538 13.8341 55.1662 14.4911L55.7487 17.8842C56.0317 19.5349 54.3006 20.7907 52.815 20.0131L49.7648 18.4122C49.1739 18.1045 48.4706 18.1045 47.8839 18.4122L44.8337 20.0131C43.3523 20.7907 41.617 19.5349 41.9 17.8842L42.4826 14.4911C42.5949 13.8341 42.3785 13.1688 41.9 12.7031L39.4323 10.2997C38.2339 9.13128 38.8955 7.0938 40.5517 6.85262L43.9598 6.35781C44.6173 6.26217 45.1874 5.85051 45.4828 5.25174L47.0059 2.1664C47.7466 0.665317 49.8896 0.665317 50.6304 2.1664H50.6428Z" stroke="white" stroke-width="2" stroke-linecap="round" stroke-linejoin="round"/>
<path d="M11.4685 25.6058H44.2886" stroke="white" stroke-width="2" stroke-linecap="round" stroke-linejoin="round"/>
<path d="M11.4685 36.1758H36.5361" stroke="white" stroke-width="2" stroke-linecap="round" stroke-linejoin="round"/>
</g>
<defs>
<clipPath id="clip0_2493_7270">
<rect width="59.8684" height="65" fill="white"/>
</clipPath>
</defs>
</svg>
