<svg width="70" height="64" viewBox="0 0 70 64" fill="none" xmlns="http://www.w3.org/2000/svg">
<g clip-path="url(#clip0_2463_10079)">
<path d="M47.6118 25.8191V13.8957C47.6118 12.8783 47.1909 11.9078 46.4464 11.2179L37.3762 2.76349L11.0542 11.5687C9.56133 12.0676 8.55569 13.4669 8.55569 15.0416V62.6924" stroke="white" stroke-width="2" stroke-miterlimit="10" stroke-linecap="round"/>
<path d="M19.3877 8.69983V3.18442C19.3877 1.9644 18.3977 0.970459 17.1738 0.970459C15.9538 0.970459 14.9598 1.9605 14.9598 3.18442V10.259" stroke="white" stroke-width="2" stroke-miterlimit="10" stroke-linecap="round"/>
<path d="M37.3762 2.76349V63.2459" stroke="white" stroke-width="2" stroke-miterlimit="10" stroke-linecap="round"/>
<path d="M14.9637 17.3802L37.3762 9.9198" stroke="white" stroke-width="2" stroke-miterlimit="10" stroke-linecap="round"/>
<path d="M14.9637 26.8369L37.3761 19.3804" stroke="white" stroke-width="2" stroke-miterlimit="10" stroke-linecap="round"/>
<path d="M29.8845 31.3315L37.3761 28.8369" stroke="white" stroke-width="2" stroke-miterlimit="10" stroke-linecap="round"/>
<path d="M14.9637 36.2973L26.1699 32.5671" stroke="white" stroke-width="2" stroke-miterlimit="10" stroke-linecap="round"/>
<path d="M14.9637 45.7578L37.3761 38.2974" stroke="white" stroke-width="2" stroke-miterlimit="10" stroke-linecap="round"/>
<path d="M15.3184 63.2459V55.0839C15.3184 54.3628 15.7978 53.7235 16.4916 53.5247L24.681 51.1471C25.7217 50.8469 26.7585 51.6265 26.7585 52.7062V63.2459" stroke="white" stroke-width="2" stroke-miterlimit="10" stroke-linecap="round"/>
<path d="M0.974442 63.2458H64.0255" stroke="white" stroke-width="2" stroke-miterlimit="10" stroke-linecap="round"/>
<path d="M0.974442 63.2459V55.7153C0.974442 52.2969 3.74579 49.5256 7.16418 49.5256H8.5518" stroke="white" stroke-width="2.01607" stroke-miterlimit="10" stroke-linecap="round"/>
<path d="M56.5 39.5C56.5 42.0384 56.5 46 56.5 46L60 49" stroke="white" stroke-width="2" stroke-linecap="round" stroke-linejoin="round"/>
<path d="M45.5669 45C45.5669 42.8244 46.212 40.6977 47.4207 38.8887C48.6294 37.0798 50.3474 35.6699 52.3574 34.8373C54.3674 34.0048 56.5791 33.7869 58.7129 34.2114C60.8467 34.6358 62.8067 35.6834 64.3451 37.2218C65.8834 38.7602 66.9311 40.7202 67.3555 42.854C67.78 44.9878 67.5621 47.1995 66.7296 49.2095C65.897 51.2195 64.4871 52.9375 62.6782 54.1462C60.8692 55.3549 58.7425 56 56.5669 56" stroke="white" stroke-width="2" stroke-linecap="round"/>
<path d="M48.9778 43.0371L45.5091 46.5428L42.4791 43.0371" stroke="white" stroke-width="2" stroke-linecap="round" stroke-linejoin="round"/>
</g>
<defs>
<clipPath id="clip0_2463_10079">
<rect width="70" height="64" fill="white"/>
</clipPath>
</defs>
</svg>
