<svg width="78" height="50" viewBox="0 0 78 50" fill="none" xmlns="http://www.w3.org/2000/svg">
<g clip-path="url(#clip0_2493_7126)">
<path d="M8.31923 2.45678C8.77857 1.24421 10.1333 0.633845 11.3451 1.09349L16.1099 2.90087C17.3217 3.36051 17.9317 4.71611 17.4723 5.92868L10.2376 25.0269C9.77823 26.2395 8.42352 26.8498 7.21174 26.3902L2.44688 24.5828C1.2351 24.1232 0.625134 22.7676 1.08448 21.555L4.70185 12.0059" stroke="white" stroke-width="2" stroke-linecap="round" stroke-linejoin="round"/>
<path d="M25.2228 32.3874C26.2734 31.0971 26.0805 29.1996 24.7921 28.1492C23.5036 27.0988 21.6075 27.2933 20.557 28.5836L17.6845 32.1117C16.634 33.402 16.8268 35.2995 18.1153 36.3499C19.4037 37.4003 21.2999 37.2058 22.3504 35.9155L25.2228 32.3874Z" stroke="white" stroke-width="2" stroke-linecap="round" stroke-linejoin="round"/>
<path d="M29.7692 36.3459C30.8197 35.0556 30.6268 33.1581 29.3384 32.1077C28.0499 31.0573 26.1538 31.2518 25.1033 32.5421L22.2308 36.0702C21.1803 37.3605 21.3732 39.258 22.6616 40.3084C23.9501 41.3588 25.8462 41.1643 26.8967 39.874L29.7692 36.3459Z" stroke="white" stroke-width="2" stroke-linecap="round" stroke-linejoin="round"/>
<path d="M34.5202 40.2165C35.5707 38.9262 35.3779 37.0287 34.0894 35.9783C32.801 34.9279 30.9048 35.1224 29.8543 36.4127L26.9819 39.9408C25.9313 41.2311 26.1242 43.1286 27.4127 44.179C28.7011 45.2294 30.5972 45.0349 31.6478 43.7446L34.5202 40.2165Z" stroke="white" stroke-width="2" stroke-linecap="round" stroke-linejoin="round"/>
<path d="M39.3621 44.1621C40.4127 42.8718 40.2198 40.9743 38.9313 39.9239C37.6429 38.8735 35.7468 39.068 34.6962 40.3583L31.8238 43.8863C30.7732 45.1766 30.9661 47.0741 32.2546 48.1245C33.543 49.1749 35.4391 48.9804 36.4897 47.6901L39.3621 44.1621Z" stroke="white" stroke-width="2" stroke-linecap="round" stroke-linejoin="round"/>
<path d="M53.1443 25.842L59.8699 31.3254C61.1579 32.3752 61.3499 34.2733 60.3008 35.5621C59.2517 36.8509 57.3548 37.0431 56.0669 35.9933L50.7136 31.63" stroke="white" stroke-width="2" stroke-linecap="round" stroke-linejoin="round"/>
<path d="M50.7135 31.6301L55.2613 35.3372C56.5493 36.3871 56.7413 38.2851 55.6922 39.574C54.6431 40.8628 52.7462 41.0549 51.4582 40.0051L46.1049 35.6419" stroke="white" stroke-width="2" stroke-linecap="round" stroke-linejoin="round"/>
<path d="M46.1097 35.6558L50.6574 39.3629C51.9454 40.4127 52.1374 42.3108 51.0883 43.5996C50.0392 44.8884 48.1423 45.0806 46.8544 44.0308L42.9389 40.8392" stroke="white" stroke-width="2" stroke-linecap="round" stroke-linejoin="round"/>
<path d="M42.9435 40.8391L46.119 43.4261C47.407 44.4759 47.599 46.374 46.5499 47.6628C45.5008 48.9517 43.6039 49.1438 42.3159 48.094L38.9766 45.3711" stroke="white" stroke-width="2" stroke-linecap="round" stroke-linejoin="round"/>
<path d="M73.0945 13.4393L69.3028 4.10473C68.7866 2.83387 67.3385 2.2224 66.0685 2.73895L61.5995 4.55663C60.3295 5.07319 59.7184 6.52218 60.2346 7.79303L67.818 26.4622C68.3343 27.7331 69.7823 28.3446 71.0523 27.828L75.5213 26.0103C76.7913 25.4938 77.4024 24.0448 76.8862 22.7739L75.9383 20.4403" stroke="white" stroke-width="2" stroke-linecap="round" stroke-linejoin="round"/>
<path d="M46.1049 6.52859L41.871 5.53502C39.918 5.07573 38.5363 5.5772 36.2367 7.52684C33.9371 9.47647 24.7292 16.7079 24.7292 16.7079C24.022 17.3078 23.9611 18.3764 24.5887 19.0559C26.7806 21.4086 30.3635 21.7835 32.9957 19.9417L38.6347 15.9956C38.6347 15.9956 44.9247 24.1034 53.5237 21.746" stroke="white" stroke-width="2" stroke-linecap="round" stroke-linejoin="round"/>
<path d="M10.0275 26.1655L17.5727 31.2552" stroke="white" stroke-width="2" stroke-linecap="round" stroke-linejoin="round"/>
<path d="M18.0364 6.08325C23.2211 9.62634 28.3496 6.13949 34.485 8.96084" stroke="white" stroke-width="2" stroke-linecap="round" stroke-linejoin="round"/>
<path d="M50.1937 7.26423C52.5636 7.88755 55.4299 8.86236 59.5327 7.09082" stroke="white" stroke-width="2" stroke-linecap="round" stroke-linejoin="round"/>
<path d="M67.0124 27.6604C62.9564 30.074 60.7505 31.255 60.7505 31.255" stroke="white" stroke-width="2" stroke-linecap="round" stroke-linejoin="round"/>
</g>
<defs>
<clipPath id="clip0_2493_7126">
<rect width="78" height="49.7391" fill="white"/>
</clipPath>
</defs>
</svg>
