<svg width="65" height="65" viewBox="0 0 65 65" fill="none" xmlns="http://www.w3.org/2000/svg">
<path d="M35.9189 1.94531H26.9627C23.8516 1.94531 21.3284 4.4745 21.3284 7.59289V27.2983C21.3284 30.4167 23.8516 32.9459 26.9627 32.9459H47.8974L57.5966 40.5668L57.4303 32.9459C60.5413 32.9459 63.0646 30.4167 63.0646 27.2983V7.59289C63.0646 4.4745 60.5413 1.94531 57.4303 1.94531H48.5462" stroke="white" stroke-width="2" stroke-linecap="round" stroke-linejoin="round"/>
<path d="M43.6661 32.9403V49.0771C43.6661 52.1955 41.1428 54.7247 38.0317 54.7247H17.1026L7.40337 62.3456L7.56974 54.7247C4.45866 54.7247 1.93541 52.1955 1.93541 49.0771V29.3717C1.93541 26.2533 4.45866 23.7241 7.56974 23.7241H20.3135" stroke="white" stroke-width="2" stroke-linecap="round" stroke-linejoin="round"/>
<ellipse cx="42.3642" cy="1.8783" rx="1.24601" ry="1.25232" fill="white"/>
<path d="M34.1276 26.4424C43.1226 24.2189 44.9416 15.6475 45.2798 13.2295" stroke="white" stroke-width="2" stroke-linecap="round" stroke-linejoin="round"/>
<path d="M50.1045 26.4424C41.1095 24.2189 39.2906 15.6475 38.9523 13.2295" stroke="white" stroke-width="2" stroke-linecap="round" stroke-linejoin="round"/>
<path d="M33.6396 12.6514H50.6203" stroke="white" stroke-width="2" stroke-linecap="round" stroke-linejoin="round"/>
<path d="M42.1965 8.59912V12.6514" stroke="white" stroke-width="2" stroke-linecap="round" stroke-linejoin="round"/>
<path d="M17.1193 47.0041L22.8202 31.9624L28.4323 47.0041" stroke="white" stroke-width="2" stroke-linecap="round" stroke-linejoin="round"/>
<path d="M19.6259 43.1182H26.2862" stroke="white" stroke-width="2" stroke-linecap="round" stroke-linejoin="round"/>
</svg>
