<svg width="65" height="65" viewBox="0 0 65 65" fill="none" xmlns="http://www.w3.org/2000/svg">
<path d="M35.9188 2.55835H26.9627C23.8516 2.55835 21.3284 5.08753 21.3284 8.20593V27.9113C21.3284 31.0297 23.8516 33.5589 26.9627 33.5589H47.8973L57.5966 41.1798L57.4302 33.5589C60.5413 33.5589 63.0646 31.0297 63.0646 27.9113V8.20593C63.0646 5.08753 60.5413 2.55835 57.4302 2.55835H48.5462" stroke="white" stroke-width="2" stroke-linecap="round" stroke-linejoin="round"/>
<path d="M43.6661 33.5534V49.6901C43.6661 52.8085 41.1428 55.3377 38.0317 55.3377H17.1026L7.40339 62.9586L7.56976 55.3377C4.45867 55.3377 1.93542 52.8085 1.93542 49.6901V29.9847C1.93542 26.8663 4.45867 24.3372 7.56976 24.3372H20.3135" stroke="white" stroke-width="2" stroke-linecap="round" stroke-linejoin="round"/>
<ellipse cx="42.3642" cy="2.49133" rx="1.24601" ry="1.25232" fill="white"/>
<path d="M34.1277 27.0552C43.1227 24.8317 44.9416 16.2603 45.2799 13.8423" stroke="white" stroke-width="2" stroke-linecap="round" stroke-linejoin="round"/>
<path d="M50.1045 27.0552C41.1095 24.8317 39.2906 16.2603 38.9523 13.8423" stroke="white" stroke-width="2" stroke-linecap="round" stroke-linejoin="round"/>
<path d="M33.6396 13.2642H50.6203" stroke="white" stroke-width="2" stroke-linecap="round" stroke-linejoin="round"/>
<path d="M42.1965 9.21191V13.2642" stroke="white" stroke-width="2" stroke-linecap="round" stroke-linejoin="round"/>
<path d="M17.1193 47.6166L22.8201 32.575L28.4323 47.6166" stroke="white" stroke-width="2" stroke-linecap="round" stroke-linejoin="round"/>
<path d="M19.6259 43.7312H26.2861" stroke="white" stroke-width="2" stroke-linecap="round" stroke-linejoin="round"/>
</svg>
