<svg width="67" height="66" viewBox="0 0 67 66" fill="none" xmlns="http://www.w3.org/2000/svg">
<g clip-path="url(#clip0_4255_13538)">
<path d="M31.0303 56.29C31.7303 58.21 33.4003 59.67 35.4403 60.09" stroke="white" stroke-width="2" stroke-miterlimit="10" stroke-linecap="round" stroke-linejoin="round"/>
<path d="M58.3503 60.1801C62.3903 59.8201 65.5503 56.4301 65.5503 52.3001C65.5503 48.4701 62.8303 45.2801 59.2103 44.5401C58.5203 40.8701 55.3103 38.1001 51.4403 38.1001C48.2703 38.1001 45.5403 39.9701 44.2803 42.6701" stroke="white" stroke-width="2" stroke-miterlimit="10" stroke-linecap="round" stroke-linejoin="round"/>
<path d="M39.0703 61.5801V65.2501C39.0703 65.5001 39.2703 65.7001 39.5203 65.7001H55.1503C55.4003 65.7001 55.6003 65.5001 55.6003 65.2501V61.5801C55.6003 61.3301 55.4003 61.1301 55.1503 61.1301H39.5203C39.2703 61.1301 39.0703 61.3301 39.0703 61.5801ZM41.6503 64.5501H40.6503V62.1101H41.6503V64.5501ZM43.7203 64.5501H42.7203V62.1101H43.7203V64.5501ZM52.8703 64.5501C52.2003 64.5501 51.6603 64.0101 51.6603 63.3401C51.6603 62.6701 52.2003 62.1301 52.8703 62.1301C53.5403 62.1301 54.0803 62.6701 54.0803 63.3401C54.0803 64.0101 53.5403 64.5501 52.8703 64.5501Z" fill="#F7941D"/>
<path d="M39.0703 56.2901V59.9601C39.0703 60.2101 39.2703 60.4101 39.5203 60.4101H55.1503C55.4003 60.4101 55.6003 60.2101 55.6003 59.9601V56.2901C55.6003 56.0401 55.4003 55.8401 55.1503 55.8401H39.5203C39.2703 55.8401 39.0703 56.0401 39.0703 56.2901ZM41.6503 59.2701H40.6503V56.8301H41.6503V59.2701ZM43.7203 59.2701H42.7203V56.8301H43.7203V59.2701ZM52.8703 59.2601C52.2003 59.2601 51.6603 58.7201 51.6603 58.0501C51.6603 57.3801 52.2003 56.8401 52.8703 56.8401C53.5403 56.8401 54.0803 57.3801 54.0803 58.0501C54.0803 58.7201 53.5403 59.2601 52.8703 59.2601Z" fill="#F7941D"/>
<path d="M43.1902 53.1501H42.8802C42.1902 53.1501 41.5902 53.0801 41.0802 52.9501C40.5602 52.8101 40.1602 52.6401 39.8702 52.4401C39.5802 52.2401 39.3502 52.0001 39.1702 51.7201C38.9902 51.4401 38.8802 51.1801 38.8202 50.9501C38.7702 50.7101 38.7402 50.4701 38.7402 50.2101V49.9801C38.7402 49.7201 38.7602 49.4701 38.8102 49.2401C38.8602 49.0101 38.9702 48.7601 39.1402 48.4801C39.3102 48.2001 39.5402 47.9701 39.8302 47.7701C40.1202 47.5701 40.5202 47.4101 41.0402 47.2801C41.5602 47.1501 42.1702 47.0801 42.8702 47.0801H43.1802C43.6702 47.0801 44.1102 47.1101 44.5202 47.1701C44.9302 47.2301 45.2702 47.3101 45.5402 47.4101C45.8202 47.5101 46.0602 47.6301 46.2702 47.7701C46.4802 47.9101 46.6502 48.0501 46.7702 48.1901C46.8902 48.3301 46.9902 48.4801 47.0602 48.6401C47.1302 48.8001 47.1902 48.9401 47.2102 49.0701C47.2302 49.2001 47.2502 49.3201 47.2502 49.4401V49.5401H44.9302C44.7502 48.9401 44.1102 48.6401 43.0002 48.6401C41.7002 48.6401 41.0402 49.1001 41.0402 50.0101V50.1001C41.0402 50.2701 41.0702 50.4401 41.1302 50.5901C41.1902 50.7501 41.2902 50.9001 41.4302 51.0601C41.5702 51.2101 41.7702 51.3301 42.0402 51.4201C42.3102 51.5101 42.6302 51.5501 43.0002 51.5501C43.3202 51.5501 43.6102 51.5201 43.8602 51.4601C44.1102 51.4001 44.2902 51.3301 44.4202 51.2601C44.5502 51.1901 44.6502 51.0901 44.7302 50.9801C44.8102 50.8701 44.8602 50.7901 44.8802 50.7401C44.9002 50.6901 44.9102 50.6401 44.9302 50.5801H47.2402V50.7101C47.2402 50.8901 47.2102 51.0701 47.1602 51.2601C47.1102 51.4501 46.9902 51.6601 46.8102 51.8901C46.6302 52.1201 46.4002 52.3301 46.1202 52.5001C45.8402 52.6701 45.4402 52.8201 44.9302 52.9401C44.4502 53.0901 43.8602 53.1501 43.1902 53.1501Z" fill="#F7941D"/>
<path d="M47.7998 47.1902H50.2998L53.6998 50.5202V47.1902H55.9198V53.0402H53.6898L50.0298 49.5002V53.0402H47.7998V47.1902Z" fill="#F7941D"/>
<path d="M30.2103 47.8698H18.0703V41.3298H30.2103" stroke="white" stroke-width="2" stroke-miterlimit="10" stroke-linecap="round" stroke-linejoin="round"/>
<path d="M30.21 47.8699V51.6299L39.06 44.6399L30.21 36.9099V41.3299" stroke="white" stroke-width="2" stroke-miterlimit="10" stroke-linecap="round" stroke-linejoin="round"/>
<path d="M45.6602 6.07007H49.7402" stroke="#F7941D" stroke-width="2" stroke-miterlimit="10" stroke-linecap="round"/>
<path d="M6.92969 6.07007H19.1097" stroke="#F7941D" stroke-width="2" stroke-miterlimit="10" stroke-linecap="round"/>
<path opacity="0.34" d="M64.71 9.33008H1V20.6601H64.71V9.33008Z" fill="white"/>
<path d="M53.9404 6.07007H58.0304" stroke="#F7941D" stroke-width="2" stroke-miterlimit="10" stroke-linecap="round"/>
<path d="M23.3005 27.9901H13.8505C13.2305 27.9901 12.7305 27.4901 12.7305 26.8701V24.4601C12.7305 23.8401 13.2305 23.3401 13.8505 23.3401H23.3005C23.9205 23.3401 24.4205 23.8401 24.4205 24.4601V26.8701C24.4205 27.4901 23.9205 27.9901 23.3005 27.9901Z" fill="#F7941D"/>
<path d="M37.9401 27.9901H28.4901C27.8701 27.9901 27.3701 27.4901 27.3701 26.8701V24.4601C27.3701 23.8401 27.8701 23.3401 28.4901 23.3401H37.9401C38.5601 23.3401 39.0601 23.8401 39.0601 24.4601V26.8701C39.0601 27.4901 38.5601 27.9901 37.9401 27.9901Z" fill="#F7941D"/>
<path d="M52.5905 27.9901H43.1405C42.5205 27.9901 42.0205 27.4901 42.0205 26.8701V24.4601C42.0205 23.8401 42.5205 23.3401 43.1405 23.3401H52.5905C53.2105 23.3401 53.7105 23.8401 53.7105 24.4601V26.8701C53.7005 27.4901 53.2005 27.9901 52.5905 27.9901Z" fill="#F7941D"/>
<path d="M26.8799 30.95H39.5499" stroke="white" stroke-width="2" stroke-miterlimit="10" stroke-linecap="round"/>
<path d="M24.1303 18.72L27.4803 15.45C27.6603 15.27 27.9503 15.28 28.1303 15.46L31.1303 18.64C31.3003 18.83 31.6003 18.83 31.7803 18.65L37.0903 13.45C37.2703 13.28 37.5503 13.28 37.7303 13.46L42.9403 18.72C43.2203 19.01 43.0203 19.49 42.6203 19.49H24.4503C24.0403 19.5 23.8403 19 24.1303 18.72Z" fill="white"/>
<path d="M31.61 14.1101C32.5212 14.1101 33.26 13.3713 33.26 12.4601C33.26 11.5488 32.5212 10.8101 31.61 10.8101C30.6987 10.8101 29.96 11.5488 29.96 12.4601C29.96 13.3713 30.6987 14.1101 31.61 14.1101Z" fill="white"/>
<path d="M1 36.04V4.56C1 2.6 2.6 1 4.56 1H61.14C63.11 1 64.7 2.6 64.7 4.56V34.55" stroke="white" stroke-width="2" stroke-miterlimit="10" stroke-linecap="round" stroke-linejoin="round"/>
</g>
<defs>
<clipPath id="clip0_4255_13538">
<rect width="66.55" height="65.69" fill="white"/>
</clipPath>
</defs>
</svg>
