<svg width="68" height="66" viewBox="0 0 68 66" fill="none" xmlns="http://www.w3.org/2000/svg">
<g clip-path="url(#clip0_4237_13285)">
<path d="M21.8997 50.4101C22.7997 49.3001 22.6397 47.6701 21.5297 46.7701C20.4197 45.8701 18.7897 46.0301 17.8897 47.1401L15.4197 50.1701C14.5197 51.2801 14.6797 52.9101 15.7897 53.8101C16.8997 54.7101 18.5297 54.5501 19.4297 53.4401L21.8997 50.4101Z" stroke="white" stroke-width="2" stroke-linecap="round" stroke-linejoin="round"/>
<path d="M25.8099 53.7999C26.7099 52.6899 26.5499 51.0599 25.4399 50.1599C24.3299 49.2599 22.6999 49.4199 21.7999 50.5299L19.3299 53.5599C18.4299 54.6699 18.5899 56.2999 19.6999 57.1999C20.8099 58.0999 22.4399 57.9399 23.3399 56.8299L25.8099 53.7999Z" stroke="white" stroke-width="2" stroke-linecap="round" stroke-linejoin="round"/>
<path d="M29.8997 57.13C30.7997 56.02 30.6397 54.39 29.5297 53.49C28.4197 52.59 26.7897 52.75 25.8897 53.86L23.4197 56.89C22.5197 58 22.6797 59.63 23.7897 60.53C24.8997 61.43 26.5297 61.27 27.4297 60.16L29.8997 57.13Z" stroke="white" stroke-width="2" stroke-linecap="round" stroke-linejoin="round"/>
<path d="M34.0696 60.5299C34.9696 59.4199 34.8096 57.7899 33.6996 56.8899C32.5896 55.9899 30.9596 56.1499 30.0596 57.2599L27.5896 60.2899C26.6896 61.3999 26.8496 63.0299 27.9596 63.9299C29.0696 64.8299 30.6996 64.6699 31.5996 63.5599L34.0696 60.5299Z" stroke="white" stroke-width="2" stroke-linecap="round" stroke-linejoin="round"/>
<path d="M45.9298 44.77L51.7198 49.49C52.8298 50.39 52.9898 52.03 52.0898 53.13C51.1898 54.24 49.5598 54.4 48.4498 53.5L43.8398 49.75" stroke="white" stroke-width="2" stroke-linecap="round" stroke-linejoin="round"/>
<path d="M43.8401 49.75L47.7501 52.94C48.8601 53.84 49.0201 55.48 48.1201 56.58C47.2201 57.69 45.5801 57.85 44.4801 56.95L39.8701 53.2" stroke="white" stroke-width="2" stroke-linecap="round" stroke-linejoin="round"/>
<path d="M39.8794 53.21L43.7894 56.4C44.8994 57.3 45.0594 58.94 44.1594 60.04C43.2594 61.15 41.6194 61.31 40.5194 60.41L37.1494 57.67" stroke="white" stroke-width="2" stroke-linecap="round" stroke-linejoin="round"/>
<path d="M37.1493 57.6699L39.8793 59.8899C40.9893 60.7899 41.1493 62.4299 40.2493 63.5299C39.3493 64.6399 37.7093 64.7999 36.6093 63.8999L33.7393 61.5599" stroke="white" stroke-width="2" stroke-linecap="round" stroke-linejoin="round"/>
<path d="M39.8699 28.16L36.2299 27.31C34.5499 26.92 33.3599 27.35 31.3799 29.02C29.3999 30.7 21.4799 36.92 21.4799 36.92C20.8699 37.44 20.8199 38.35 21.3599 38.94C23.2499 40.96 26.3299 41.29 28.5899 39.7L33.4399 36.31C33.4399 36.31 38.8499 43.28 46.2499 41.26" stroke="white" stroke-width="2" stroke-linecap="round" stroke-linejoin="round"/>
<path d="M8.83008 45.05L15.3201 49.42" stroke="white" stroke-width="2" stroke-linecap="round" stroke-linejoin="round"/>
<path d="M15.7197 27.78C20.1797 30.83 24.5897 27.83 29.8697 30.25" stroke="white" stroke-width="2" stroke-linecap="round" stroke-linejoin="round"/>
<path d="M43.3896 28.7899C45.4296 29.3299 47.8996 30.1599 51.4296 28.6399" stroke="white" stroke-width="2" stroke-linecap="round" stroke-linejoin="round"/>
<path d="M57.8597 46.3301C54.3697 48.4101 52.4697 49.4201 52.4697 49.4201" stroke="white" stroke-width="2" stroke-linecap="round" stroke-linejoin="round"/>
<path d="M14.0596 25.04L9.95964 23.49C8.91964 23.09 7.74964 23.62 7.35964 24.66L1.12964 41.08C0.729641 42.12 1.25964 43.29 2.29964 43.68L6.39964 45.23C7.43964 45.63 8.60964 45.1 8.99964 44.06L15.2296 27.64C15.6296 26.6 15.0996 25.44 14.0596 25.04Z" stroke="#F7941D" stroke-width="2" stroke-miterlimit="10" stroke-linecap="round" stroke-linejoin="round"/>
<path d="M57.0496 24.91L53.1996 26.47C52.1096 26.91 51.5796 28.16 52.0296 29.25L58.5596 45.3C58.9996 46.39 60.2496 46.92 61.3396 46.47L65.1896 44.91C66.2796 44.47 66.8096 43.22 66.3596 42.13L59.8296 26.08C59.3896 24.99 58.1396 24.46 57.0496 24.91Z" stroke="#F7941D" stroke-width="2" stroke-miterlimit="10" stroke-linecap="round" stroke-linejoin="round"/>
<path d="M18.8798 25.55C17.5098 22.36 16.7998 18.92 16.7998 15.44V8.84C16.7998 7.64 17.6098 6.59 18.7698 6.3L23.6098 5.06C25.8598 4.48 28.0498 3.68 30.1398 2.68L33.8698 1L37.5898 2.67C39.6798 3.68 41.8698 4.48 44.1198 5.05L48.9598 6.29C50.1198 6.59 50.9298 7.63 50.9298 8.83V15.43C50.9298 18.91 50.2198 22.35 48.8498 25.54" stroke="white" stroke-width="2" stroke-miterlimit="10" stroke-linecap="round" stroke-linejoin="round"/>
<path d="M28.2998 17.48L32.4898 21.57L40.9998 13.24" stroke="#F7941D" stroke-width="2" stroke-miterlimit="10" stroke-linecap="round" stroke-linejoin="round"/>
</g>
<defs>
<clipPath id="clip0_4237_13285">
<rect width="67.52" height="65.51" fill="white"/>
</clipPath>
</defs>
</svg>
