<svg width="68" height="45" viewBox="0 0 68 45" fill="none" xmlns="http://www.w3.org/2000/svg">
<g clip-path="url(#clip0_2208_25781)">
<path d="M7.2527 3.04029C7.65315 1.98318 8.83418 1.45106 9.8906 1.85178L14.0446 3.42744C15.101 3.82816 15.6328 5.00996 15.2323 6.06707L8.9251 22.7168C8.52465 23.7739 7.34362 24.306 6.2872 23.9053L2.13322 22.3297C1.0768 21.9289 0.545029 20.7471 0.945482 19.69L4.09909 11.3652" stroke="white" stroke-width="2" stroke-linecap="round" stroke-linejoin="round"/>
<path d="M21.9891 29.1337C22.905 28.0088 22.7368 26.3546 21.6136 25.4388C20.4903 24.5231 18.8373 24.6927 17.9214 25.8175L15.4172 28.8933C14.5014 30.0181 14.6695 31.6724 15.7928 32.5881C16.9161 33.5038 18.5691 33.3343 19.4849 32.2094L21.9891 29.1337Z" stroke="white" stroke-width="2" stroke-linecap="round" stroke-linejoin="round"/>
<path d="M25.9526 32.5846C26.8685 31.4597 26.7003 29.8055 25.5771 28.8898C24.4538 27.974 22.8008 28.1436 21.8849 29.2685L19.3807 32.3442C18.4649 33.4691 18.633 35.1233 19.7563 36.039C20.8796 36.9548 22.5326 36.7852 23.4484 35.6604L25.9526 32.5846Z" stroke="white" stroke-width="2" stroke-linecap="round" stroke-linejoin="round"/>
<path d="M30.0946 35.9589C31.0104 34.834 30.8423 33.1798 29.719 32.264C28.5958 31.3483 26.9427 31.5178 26.0269 32.6427L23.5227 35.7185C22.6069 36.8433 22.775 38.4976 23.8983 39.4133C25.0215 40.329 26.6746 40.1595 27.5904 39.0346L30.0946 35.9589Z" stroke="white" stroke-width="2" stroke-linecap="round" stroke-linejoin="round"/>
<path d="M34.3157 39.3986C35.2315 38.2737 35.0634 36.6195 33.9401 35.7037C32.8168 34.788 31.1638 34.9575 30.248 36.0824L27.7438 39.1582C26.8279 40.283 26.9961 41.9373 28.1193 42.853C29.2426 43.7687 30.8956 43.5992 31.8115 42.4743L34.3157 39.3986Z" stroke="white" stroke-width="2" stroke-linecap="round" stroke-linejoin="round"/>
<path d="M46.3309 23.4275L52.1943 28.2078C53.3171 29.1231 53.4845 30.7778 52.5699 31.9014C51.6553 33.025 50.0016 33.1925 48.8788 32.2773L44.2118 28.4734" stroke="white" stroke-width="2" stroke-linecap="round" stroke-linejoin="round"/>
<path d="M44.2119 28.4734L48.1766 31.7052C49.2994 32.6205 49.4668 34.2752 48.5522 35.3988C47.6376 36.5224 45.9839 36.6899 44.8611 35.7747L40.1941 31.9708" stroke="white" stroke-width="2" stroke-linecap="round" stroke-linejoin="round"/>
<path d="M40.1981 31.9829L44.1628 35.2148C45.2856 36.13 45.4531 37.7847 44.5384 38.9083C43.6238 40.0319 41.9702 40.1994 40.8473 39.2842L37.4338 36.5018" stroke="white" stroke-width="2" stroke-linecap="round" stroke-linejoin="round"/>
<path d="M37.438 36.502L40.2063 38.7573C41.3292 39.6725 41.4966 41.3273 40.582 42.4508C39.6674 43.5744 38.0137 43.7419 36.8909 42.8267L33.9796 40.4529" stroke="white" stroke-width="2" stroke-linecap="round" stroke-linejoin="round"/>
<path d="M63.7234 12.6148L60.4178 4.47691C59.9678 3.36899 58.7054 2.8359 57.5982 3.28624L53.7022 4.87088C52.595 5.32121 52.0622 6.58443 52.5123 7.69236L59.1234 23.9681C59.5735 25.076 60.8359 25.6091 61.9431 25.1587L65.8391 23.5741C66.9463 23.1238 67.4791 21.8606 67.029 20.7526L66.2026 18.7182" stroke="white" stroke-width="2" stroke-linecap="round" stroke-linejoin="round"/>
<path d="M40.1941 6.58986L36.503 5.72368C34.8003 5.32327 33.5958 5.76045 31.591 7.46013C29.5862 9.15981 21.5588 15.4642 21.5588 15.4642C20.9423 15.9871 20.8892 16.9187 21.4363 17.5111C23.3472 19.5622 26.4708 19.8891 28.7655 18.2833L33.6816 14.8431C33.6816 14.8431 39.1652 21.9115 46.6617 19.8564" stroke="white" stroke-width="2" stroke-linecap="round" stroke-linejoin="round"/>
<path d="M8.74194 23.7092L15.3198 28.1464" stroke="white" stroke-width="2" stroke-linecap="round" stroke-linejoin="round"/>
<path d="M15.724 6.20166C20.244 9.29051 24.715 6.25069 30.0639 8.71033" stroke="white" stroke-width="2" stroke-linecap="round" stroke-linejoin="round"/>
<path d="M43.7587 7.2315C45.8247 7.7749 48.3236 8.62474 51.9004 7.08032" stroke="white" stroke-width="2" stroke-linecap="round" stroke-linejoin="round"/>
<path d="M58.421 25.0127C54.8851 27.1169 52.9619 28.1465 52.9619 28.1465" stroke="white" stroke-width="2" stroke-linecap="round" stroke-linejoin="round"/>
</g>
<defs>
<clipPath id="clip0_2208_25781">
<rect width="68" height="43.3623" fill="white" transform="translate(0 0.898438)"/>
</clipPath>
</defs>
</svg>
