<svg width="44" height="28" viewBox="0 0 44 28" fill="none" xmlns="http://www.w3.org/2000/svg">
<g clip-path="url(#clip0_3255_12473)">
<path d="M34.2902 27.7701C34.2902 27.4201 34.2902 27.1301 34.2902 26.8501C34.2902 25.5301 34.2902 24.2201 34.2902 22.9001C34.2902 21.9901 33.7402 21.4401 32.8202 21.4701C32.4502 21.4801 32.0702 21.5801 31.7002 21.6301C31.4702 21.6701 31.3802 21.7901 31.3902 22.0401C31.4002 23.8201 31.4002 25.5901 31.4002 27.3701C31.4002 27.4901 31.4002 27.6101 31.4002 27.7501C30.8502 27.7501 30.3302 27.7501 29.7802 27.7501C29.7702 27.6501 29.7602 27.5501 29.7602 27.4601C29.7502 25.3401 29.7502 23.2301 29.7402 21.1101C29.7402 20.8901 29.8002 20.7701 30.0102 20.6901C31.2502 20.2001 32.5102 19.9001 33.8402 20.2301C34.2302 20.3301 34.6002 20.5301 34.9502 20.7301C35.1202 20.8201 35.2102 20.8201 35.3702 20.7301C36.4502 20.1201 37.6002 19.9201 38.8002 20.2201C39.8902 20.4901 40.4602 21.2501 40.4602 22.3701C40.4602 24.0601 40.4602 25.7401 40.4602 27.4301C40.4602 27.5301 40.4502 27.6301 40.4402 27.7401C39.9102 27.7401 39.4002 27.7401 38.8402 27.7401C38.8302 27.6201 38.8302 27.5101 38.8302 27.3901C38.8302 25.9101 38.8302 24.4401 38.8302 22.9601C38.8302 21.9201 38.1802 21.3601 37.1502 21.4901C37.0602 21.5001 36.9702 21.5101 36.8802 21.5301C36.0202 21.7101 35.9202 21.8401 35.9202 22.7101C35.9202 24.2801 35.9102 25.8401 35.9302 27.4101C35.9302 27.7001 35.8402 27.7901 35.5602 27.7701C35.1502 27.7601 34.7402 27.7701 34.2902 27.7701Z" fill="white"/>
<path d="M17.6299 23.04C17.7399 22.3 17.4199 21.73 16.7499 21.61C16.0899 21.49 15.3999 21.48 14.7299 21.52C14.1099 21.55 13.4899 21.7 12.8399 21.8C12.8399 21.43 12.8299 21.06 12.8499 20.68C12.8499 20.62 12.9399 20.52 12.9999 20.5C14.4199 20.11 15.8599 19.94 17.3199 20.26C18.5999 20.54 19.2299 21.27 19.2799 22.62C19.3299 24.16 19.2999 25.71 19.3099 27.26C19.3099 27.46 19.1799 27.48 19.0499 27.52C17.9199 27.86 16.7599 28.02 15.5899 27.9C14.9299 27.83 14.2599 27.72 13.6399 27.49C12.5299 27.08 12.0599 26.02 12.3699 24.91C12.5199 24.37 12.8699 23.99 13.3399 23.71C14.0699 23.28 14.8799 23.11 15.7099 23.06C16.3399 23.01 16.9799 23.04 17.6299 23.04ZM17.7099 25.34C17.7099 25.04 17.6999 24.74 17.7099 24.44C17.7199 24.24 17.6399 24.17 17.4499 24.17C16.8499 24.19 16.2499 24.16 15.6599 24.25C15.2099 24.32 14.7299 24.45 14.3499 24.69C13.6399 25.12 13.7299 26.02 14.4699 26.38C14.6399 26.46 14.8199 26.52 14.9999 26.57C15.8299 26.76 16.6599 26.69 17.4899 26.52C17.6499 26.49 17.7099 26.42 17.6999 26.26C17.6999 25.96 17.7099 25.65 17.7099 25.34Z" fill="white"/>
<path d="M28.4502 23.9799C28.4102 24.3499 28.3902 24.7199 28.3202 25.0799C27.9502 26.8399 26.7202 27.8499 24.8202 27.9199C24.3102 27.9399 23.7802 27.8999 23.2802 27.7899C21.8702 27.4699 21.0402 26.5499 20.7202 25.1599C20.5402 24.3699 20.5302 23.5699 20.7102 22.7799C21.0202 21.4299 21.8602 20.5699 23.2102 20.2399C24.0802 20.0199 24.9502 20.0299 25.8202 20.2399C27.3502 20.6099 28.3002 21.7799 28.4102 23.3999C28.4202 23.5899 28.4102 23.7799 28.4102 23.9699C28.4202 23.9799 28.4302 23.9799 28.4502 23.9799ZM26.7802 23.9899C26.7602 23.9799 26.7402 23.9699 26.7202 23.9699C26.6802 23.6599 26.6702 23.3499 26.6102 23.0499C26.4002 22.0299 25.7102 21.4099 24.7602 21.3399C23.6302 21.2599 22.8402 21.7099 22.5102 22.6699C22.1802 23.6199 22.2102 24.5799 22.6002 25.5099C22.9402 26.3099 23.6002 26.6799 24.4502 26.6899C25.3302 26.6999 26.0302 26.3699 26.3802 25.5399C26.5802 25.0499 26.6502 24.5099 26.7802 23.9899Z" fill="white"/>
<path d="M0.13 20.2901C0.76 20.2901 1.32 20.2801 1.87 20.3001C1.97 20.3001 2.1 20.4001 2.17 20.4801C2.69 21.1601 3.21 21.8501 3.72 22.5301C3.79 22.6201 3.85 22.7001 3.94 22.8101C4.02 22.7101 4.09 22.6301 4.16 22.5401C4.69 21.8501 5.21 21.1501 5.74 20.4701C5.82 20.3701 5.98 20.2901 6.1 20.2901C6.62 20.2701 7.13 20.2801 7.71 20.2801C7.62 20.4001 7.56 20.4901 7.5 20.5701C6.68 21.6201 5.87 22.6701 5.05 23.7101C4.91 23.8801 4.91 23.9901 5.05 24.1701C5.9 25.2501 6.74 26.3501 7.58 27.4301C7.65 27.5201 7.71 27.6001 7.83 27.7601C7.51 27.7601 7.26 27.7601 7.01 27.7601C6.64 27.7501 6.22 27.8601 5.92 27.7101C5.62 27.5601 5.45 27.1601 5.22 26.8701C4.79 26.3101 4.36 25.7401 3.93 25.1801C3.92 25.1701 3.9 25.1601 3.85 25.1301C3.79 25.2101 3.72 25.2801 3.65 25.3701C3.12 26.1001 2.55 26.8201 2 27.5601C1.88 27.7201 1.75 27.7801 1.55 27.7801C1.05 27.7701 0.56 27.7801 0 27.7801C0.1 27.6401 0.15 27.5501 0.22 27.4701C1.07 26.3801 1.91 25.2901 2.76 24.2101C2.92 24.0101 2.9 23.8901 2.75 23.7001C1.94 22.6601 1.13 21.6201 0.33 20.5801C0.27 20.5001 0.22 20.4201 0.13 20.2901Z" fill="white"/>
<path d="M9.20996 20.3101C9.73996 20.3101 10.25 20.3101 10.8 20.3101C10.81 20.4201 10.82 20.5301 10.82 20.6301C10.82 22.8901 10.82 25.1501 10.83 27.4201C10.83 27.7101 10.74 27.8001 10.46 27.7801C10.05 27.7601 9.64996 27.7701 9.21996 27.7701C9.20996 25.2701 9.20996 22.8001 9.20996 20.3101Z" fill="white"/>
<path d="M42.1001 20.2901C42.5901 20.2901 43.0701 20.2801 43.5501 20.3001C43.6001 20.3001 43.6701 20.4001 43.7001 20.4601C43.7201 20.5101 43.7101 20.5801 43.7101 20.6401C43.7101 22.9001 43.7101 25.1501 43.7201 27.4101C43.7201 27.7001 43.6501 27.8001 43.3501 27.7801C42.9401 27.7601 42.5301 27.7701 42.1001 27.7701C42.1001 25.2801 42.1001 22.8101 42.1001 20.2901Z" fill="white"/>
<path d="M14.4202 7.46C14.4202 5.2 14.4202 2.94 14.4202 0.68C14.4202 0.19 14.6002 0 15.0902 0C19.6002 0 24.1002 0 28.6102 0C29.1002 0 29.2702 0.16 29.2902 0.65C29.2902 0.75 29.2902 0.85 29.2902 0.95C29.2902 5.28 29.2902 9.62 29.2902 13.95C29.2902 14.11 29.2902 14.28 29.2702 14.44C29.2402 14.73 29.0402 14.91 28.7602 14.93C28.7002 14.93 28.6302 14.93 28.5702 14.93C24.0902 14.93 19.6102 14.93 15.1402 14.93C14.5902 14.93 14.4102 14.75 14.4102 14.21C14.4202 11.96 14.4202 9.71 14.4202 7.46ZM17.4902 7.45C17.4902 8.3 17.4902 9.14 17.4902 9.99C17.4902 10.19 17.5502 10.27 17.7602 10.26C18.0702 10.25 18.3802 10.25 18.6902 10.26C18.8402 10.26 18.9102 10.2 18.9002 10.05C18.8902 9.97 18.9002 9.88 18.9002 9.8C18.9002 8.56 18.9002 7.33 18.9002 6.09C18.9002 5.97 18.8902 5.86 19.0602 5.86C19.9302 5.87 20.8002 5.87 21.6702 5.89C22.0002 5.9 22.2302 6.1 22.3302 6.41C22.3802 6.55 22.4002 6.71 22.4002 6.87C22.4102 7.9 22.4002 8.93 22.4002 9.96C22.4002 10.26 22.4002 10.26 22.7102 10.26C22.9602 10.26 23.2202 10.26 23.4702 10.26C23.8002 10.26 23.8002 10.26 23.8002 9.93C23.8002 8.77 23.8002 7.61 23.8002 6.46C23.8002 6.28 23.7902 6.09 23.7602 5.91C23.6002 5.15 22.9402 4.65 22.0802 4.65C20.6502 4.64 19.2302 4.65 17.8002 4.65C17.5202 4.65 17.5002 4.68 17.5002 4.95C17.4902 5.79 17.4902 6.62 17.4902 7.45ZM24.8102 7.45C24.8102 8.3 24.8102 9.16 24.8102 10.01C24.8102 10.19 24.8602 10.27 25.0502 10.26C25.3702 10.25 25.6902 10.25 26.0002 10.26C26.1602 10.26 26.2202 10.2 26.2202 10.05C26.2202 9.89 26.2202 9.73 26.2202 9.56C26.2202 8.02 26.2202 6.48 26.2202 4.94C26.2202 4.67 26.1902 4.64 25.9302 4.64C25.6502 4.64 25.3702 4.64 25.0802 4.64C24.8202 4.64 24.8102 4.66 24.8102 4.92C24.8102 5.77 24.8102 6.61 24.8102 7.45ZM19.9102 8.51C19.9102 9.02 19.9102 9.53 19.9102 10.03C19.9102 10.2 19.9702 10.27 20.1502 10.27C20.4902 10.26 20.8302 10.26 21.1702 10.27C21.3402 10.27 21.4002 10.2 21.4002 10.04C21.4002 9.04 21.4002 8.04 21.4002 7.04C21.4002 6.87 21.3402 6.8 21.1602 6.8C20.8302 6.81 20.5002 6.81 20.1702 6.8C19.9802 6.79 19.9202 6.87 19.9202 7.05C19.9102 7.53 19.9102 8.02 19.9102 8.51Z" fill="#FF6A08"/>
<path d="M17.4902 7.4499C17.4902 6.6199 17.4902 5.7799 17.4902 4.9499C17.4902 4.6699 17.5202 4.6499 17.7902 4.6499C19.2202 4.6499 20.6402 4.6499 22.0702 4.6499C22.9302 4.6499 23.6002 5.1499 23.7502 5.9099C23.7902 6.0899 23.7902 6.2699 23.7902 6.4599C23.7902 7.6199 23.7902 8.7799 23.7902 9.9299C23.7902 10.2499 23.7802 10.2599 23.4602 10.2599C23.2102 10.2599 22.9502 10.2599 22.7002 10.2599C22.3902 10.2599 22.3902 10.2599 22.3902 9.9599C22.3902 8.9299 22.3902 7.8999 22.3902 6.8699C22.3902 6.7199 22.3702 6.5599 22.3202 6.4099C22.2302 6.0999 22.0002 5.8999 21.6802 5.8899C20.8102 5.8699 19.9402 5.8699 19.0702 5.8599C18.9002 5.8599 18.9102 5.9699 18.9102 6.0899C18.9102 7.3299 18.9102 8.5599 18.9102 9.7999C18.9102 9.8799 18.9102 9.9699 18.9102 10.0499C18.9202 10.2099 18.8502 10.2599 18.7002 10.2599C18.3902 10.2499 18.0802 10.2499 17.7702 10.2599C17.5602 10.2699 17.5002 10.1899 17.5002 9.9899C17.5002 9.1499 17.4902 8.2999 17.4902 7.4499Z" fill="white"/>
<path d="M24.8101 7.4499C24.8101 6.6099 24.8101 5.7699 24.8101 4.9299C24.8101 4.6699 24.8301 4.6499 25.0801 4.6499C25.3601 4.6499 25.6401 4.6499 25.9301 4.6499C26.1901 4.6499 26.2201 4.6799 26.2201 4.9499C26.2201 6.4899 26.2201 8.0299 26.2201 9.5699C26.2201 9.7299 26.2201 9.8899 26.2201 10.0599C26.2201 10.2099 26.1601 10.2799 26.0001 10.2699C25.6801 10.2599 25.3601 10.2599 25.0501 10.2699C24.8601 10.2799 24.8101 10.1999 24.8101 10.0199C24.8201 9.1599 24.8101 8.3099 24.8101 7.4499Z" fill="white"/>
<path d="M19.9104 8.50991C19.9104 8.01991 19.9104 7.53991 19.9104 7.04991C19.9104 6.86991 19.9704 6.79991 20.1604 6.79991C20.4904 6.80991 20.8204 6.80991 21.1504 6.79991C21.3304 6.78991 21.3904 6.86991 21.3904 7.03991C21.3904 8.03991 21.3904 9.03991 21.3904 10.0399C21.3904 10.1899 21.3304 10.2699 21.1604 10.2699C20.8204 10.2599 20.4804 10.2599 20.1404 10.2699C19.9604 10.2699 19.9004 10.1999 19.9004 10.0299C19.9104 9.51991 19.9104 9.00991 19.9104 8.50991Z" fill="white"/>
</g>
<defs>
<clipPath id="clip0_3255_12473">
<rect width="43.72" height="27.93" fill="white"/>
</clipPath>
</defs>
</svg>
