<svg width="65" height="56" viewBox="0 0 65 56" fill="none" xmlns="http://www.w3.org/2000/svg">
<g clip-path="url(#clip0_4203_13443)">
<path d="M52.3099 30.2099L62.2199 44.2499C65.3399 48.6799 61.8899 54.5299 56.1499 54.5299H8.24992C2.75992 54.5299 -0.740077 49.1199 1.88992 44.6899L23.7499 7.78986C25.9399 4.08986 31.0699 3.30986 34.4299 5.61986" stroke="white" stroke-width="2" stroke-miterlimit="10" stroke-linecap="round" stroke-linejoin="round"/>
<circle cx="31.3301" cy="45.0198" r="4.5" fill="#2F3743"/>
<path d="M31.3301 18.97V30.83" stroke="#2F3743" stroke-width="9" stroke-miterlimit="10" stroke-linecap="round"/>
<path d="M49.7801 17.19C52.5249 17.19 54.7501 14.9649 54.7501 12.22C54.7501 9.47515 52.5249 7.25 49.7801 7.25C47.0352 7.25 44.8101 9.47515 44.8101 12.22C44.8101 14.9649 47.0352 17.19 49.7801 17.19Z" stroke="#2F3743" stroke-miterlimit="10"/>
<path d="M59.6799 16.5299L57.5999 15.0299C57.6699 14.8299 57.7399 14.6399 57.7899 14.4399C58.0199 13.5799 58.0999 12.7199 58.0699 11.8799L60.4699 11.0299C60.9099 10.8799 61.1299 10.3999 60.9799 9.95991L59.9599 7.06991C59.8099 6.62991 59.3299 6.40991 58.8899 6.55991L56.5399 7.38991C55.6899 6.17991 54.5299 5.18991 53.1299 4.54991L53.4199 2.33991C53.4799 1.87991 53.1599 1.45991 52.6999 1.39991L49.6599 1.00991C49.1999 0.949914 48.7799 1.26991 48.7199 1.72991L48.4499 3.83991C46.9699 4.03991 45.5899 4.63991 44.4199 5.52991L42.6199 4.22991C42.2399 3.95991 41.7199 4.04991 41.4499 4.41991L39.6599 6.90991C39.3899 7.28991 39.4799 7.80991 39.8499 8.07991L41.6199 9.34991C41.5299 9.58991 41.4499 9.82991 41.3899 10.0699C41.1399 10.9999 41.0699 11.9299 41.1299 12.8399L39.0599 13.5699C38.6199 13.7199 38.3999 14.1999 38.5499 14.6399L39.5699 17.5299C39.7199 17.9699 40.1999 18.1899 40.6399 18.0399L42.7599 17.2899C43.6599 18.5099 44.8799 19.4899 46.3499 20.0899L46.0999 22.0699C46.0399 22.5299 46.3599 22.9499 46.8199 23.0099L49.8599 23.3999C50.3199 23.4599 50.7399 23.1399 50.7999 22.6799L51.0699 20.6099C52.4699 20.3599 53.7799 19.7699 54.8799 18.8899L56.9299 20.3699C57.3099 20.6399 57.8299 20.5499 58.0999 20.1799L59.8899 17.6899C60.1399 17.3199 60.0599 16.7999 59.6799 16.5299Z" stroke="white" stroke-width="2" stroke-miterlimit="10" stroke-linecap="round" stroke-linejoin="round"/>
</g>
<defs>
<clipPath id="clip0_4203_13443">
<rect width="64.39" height="55.53" fill="white"/>
</clipPath>
</defs>
</svg>
