<svg width="65" height="40" viewBox="0 0 65 40" fill="none" xmlns="http://www.w3.org/2000/svg">
<g clip-path="url(#clip0_4541_13309)">
<path d="M18.94 33.83H38.5L43.16 4.38C43.44 2.6 42.07 1 40.27 1H3.75L1 15.74" stroke="white" stroke-width="2" stroke-miterlimit="10" stroke-linecap="round" stroke-linejoin="round"/>
<path d="M3.88965 33.8301H7.50965" stroke="white" stroke-width="2" stroke-miterlimit="10" stroke-linecap="round" stroke-linejoin="round"/>
<path d="M55.5897 33.8299H60.5097C62.3197 33.8299 63.7897 32.3599 63.7897 30.5499V20.0299C63.7897 19.6099 63.6997 19.1999 63.5097 18.8199L57.5097 6.3999H43.2197" stroke="white" stroke-width="2" stroke-miterlimit="10" stroke-linecap="round" stroke-linejoin="round"/>
<path d="M38.5 33.8301H43.35" stroke="white" stroke-width="2" stroke-miterlimit="10" stroke-linecap="round" stroke-linejoin="round"/>
<path d="M56.9897 20.6298H45.6797V10.5698H54.4297L57.9897 19.1398C58.2797 19.8498 57.7597 20.6298 56.9897 20.6298Z" stroke="#F7941D" stroke-width="2" stroke-miterlimit="10" stroke-linecap="round" stroke-linejoin="round"/>
<path d="M13.4801 38.69C16.5784 38.69 19.0901 36.1783 19.0901 33.08C19.0901 29.9817 16.5784 27.47 13.4801 27.47C10.3818 27.47 7.87012 29.9817 7.87012 33.08C7.87012 36.1783 10.3818 38.69 13.4801 38.69Z" stroke="#F7941D" stroke-width="2" stroke-miterlimit="10" stroke-linecap="round" stroke-linejoin="round"/>
<path d="M50.07 38.69C53.1683 38.69 55.68 36.1783 55.68 33.08C55.68 29.9817 53.1683 27.47 50.07 27.47C46.9716 27.47 44.46 29.9817 44.46 33.08C44.46 36.1783 46.9716 38.69 50.07 38.69Z" stroke="#F7941D" stroke-width="2" stroke-miterlimit="10" stroke-linecap="round" stroke-linejoin="round"/>
</g>
<defs>
<clipPath id="clip0_4541_13309">
<rect width="64.8" height="39.68" fill="white"/>
</clipPath>
</defs>
</svg>
