<svg width="67" height="49" viewBox="0 0 67 49" fill="none" xmlns="http://www.w3.org/2000/svg">
<g clip-path="url(#clip0_4203_13362)">
<path d="M40.72 21.0601H43.12C43.66 21.0601 44.09 20.6201 44.09 20.0901C44.09 19.5501 43.65 19.1201 43.12 19.1201H40.72C40.18 19.1201 39.75 19.5601 39.75 20.0901C39.75 20.6201 40.19 21.0601 40.72 21.0601Z" fill="#F7941D"/>
<path d="M52.5898 21.0601C53.1298 21.0601 53.5598 20.6201 53.5598 20.0901C53.5598 19.5501 53.1198 19.1201 52.5898 19.1201H46.0198C45.4798 19.1201 45.0498 19.5601 45.0498 20.0901C45.0498 20.6301 45.4898 21.0601 46.0198 21.0601H52.5898Z" fill="#F7941D"/>
<path d="M40.72 25.67H57.9C58.44 25.67 58.87 25.23 58.87 24.7C58.87 24.16 58.43 23.73 57.9 23.73H40.72C40.18 23.73 39.75 24.17 39.75 24.7C39.75 25.24 40.19 25.67 40.72 25.67Z" fill="#F7941D"/>
<path d="M40.72 29.1199H57.9C58.44 29.1199 58.87 28.6799 58.87 28.1499C58.87 27.6099 58.43 27.1799 57.9 27.1799H40.72C40.18 27.1799 39.75 27.6199 39.75 28.1499C39.75 28.6799 40.19 29.1199 40.72 29.1199Z" fill="#F7941D"/>
<path d="M40.72 32.5601H57.9C58.44 32.5601 58.87 32.1201 58.87 31.5901C58.87 31.0501 58.43 30.6201 57.9 30.6201H40.72C40.18 30.6201 39.75 31.0601 39.75 31.5901C39.75 32.1301 40.19 32.5601 40.72 32.5601Z" fill="#F7941D"/>
<path d="M40.72 35.97H49.01C49.55 35.97 49.98 35.53 49.98 35C49.98 34.46 49.54 34.03 49.01 34.03H40.72C40.18 34.03 39.75 34.47 39.75 35C39.75 35.53 40.19 35.97 40.72 35.97Z" fill="#F7941D"/>
<path d="M49.77 9.64H45.53C42.46 9.64 39.58 10.47 37.1 11.92C35 5.03 28.59 0 21.03 0H16.79C7.53 0 0 7.53 0 16.79C0 26.05 7.53 33.58 16.79 33.58H19.7V37.33C19.7 37.85 20.01 38.31 20.49 38.5C20.65 38.56 20.81 38.59 20.97 38.59C21.3 38.59 21.63 38.46 21.87 38.21L27.63 32.32C27.75 32.19 27.9 32.09 28.06 32.02C28.54 31.8 29.01 31.55 29.47 31.28C30.14 33.48 31.26 35.55 32.79 37.33C33.14 37.74 33.75 37.79 34.16 37.44C34.57 37.09 34.62 36.47 34.27 36.07C32.79 34.34 31.74 32.31 31.17 30.15C32.47 29.16 33.62 27.99 34.59 26.67C34.91 26.24 34.81 25.63 34.38 25.31C33.95 24.99 33.34 25.09 33.02 25.52C31.53 27.56 29.53 29.2 27.25 30.26C26.88 30.43 26.54 30.67 26.25 30.97L21.65 35.67V33.4C21.65 32.43 20.86 31.64 19.89 31.64H16.8C8.62 31.64 1.96 24.98 1.96 16.8C1.96 8.62 8.6 1.95 16.79 1.95H21.03C29.21 1.95 35.87 8.61 35.87 16.79C35.87 18.48 35.59 20.13 35.03 21.71C34.85 22.22 35.12 22.77 35.62 22.95C36.13 23.13 36.68 22.86 36.86 22.36C37.49 20.57 37.82 18.69 37.82 16.79C37.82 15.81 37.73 14.85 37.57 13.91C39.87 12.44 42.6 11.59 45.53 11.59H49.77C57.95 11.59 64.61 18.25 64.61 26.43C64.61 34.61 57.95 41.27 49.77 41.27H46.68C45.71 41.27 44.92 42.06 44.92 43.03V45.3L40.32 40.6C40.03 40.3 39.69 40.07 39.32 39.89C38.68 39.59 38.05 39.24 37.45 38.85C37 38.56 36.4 38.68 36.1 39.13C35.81 39.58 35.93 40.18 36.38 40.48C37.05 40.92 37.76 41.31 38.49 41.65C38.65 41.72 38.79 41.83 38.92 41.95L44.68 47.84C44.92 48.09 45.25 48.22 45.59 48.22C45.75 48.22 45.91 48.19 46.07 48.13C46.55 47.93 46.86 47.47 46.86 46.96V43.21H49.76C59.02 43.21 66.55 35.68 66.55 26.42C66.55 17.17 59.02 9.64 49.77 9.64Z" fill="white"/>
<path d="M18.3501 22.3C17.5301 22.3 16.8701 22.98 16.8701 23.8C16.8701 24.6 17.5101 25.3 18.3501 25.3C19.1901 25.3 19.8501 24.6 19.8501 23.8C19.8501 22.98 19.1701 22.3 18.3501 22.3Z" fill="#F7941D"/>
<path d="M20.5698 17.73C21.0898 17.32 22.7498 16 22.7498 14.17C22.7498 12.34 21.0998 10.96 18.6098 10.96C15.9898 10.96 14.7798 12.51 14.7798 13.56C14.7798 14.32 15.4198 14.67 15.9498 14.67C16.9998 14.67 16.5698 13.17 18.5498 13.17C19.5198 13.17 20.2998 13.6 20.2998 14.49C20.2998 15.54 19.2098 16.14 18.5698 16.69C18.0098 17.18 17.2698 17.97 17.2698 19.64C17.2698 20.65 17.5398 20.94 18.3398 20.94C19.2898 20.94 19.4898 20.51 19.4898 20.14C19.4798 19.15 19.4998 18.57 20.5698 17.73Z" fill="#F7941D"/>
</g>
<defs>
<clipPath id="clip0_4203_13362">
<rect width="66.55" height="48.24" fill="white"/>
</clipPath>
</defs>
</svg>
