<svg width="60" height="63" viewBox="0 0 60 63" fill="none" xmlns="http://www.w3.org/2000/svg">
<g clip-path="url(#clip0_4203_13332)">
<path d="M26.4398 42.3899C26.4398 41.8499 26.4398 41.3199 26.4398 40.7699C25.8198 40.7799 25.2098 40.7999 24.5698 40.8099C24.5498 40.3299 24.5198 39.8699 24.4998 39.3899C25.1498 39.3899 25.7998 39.3899 26.4498 39.3899C26.4698 38.9499 26.4898 38.5399 26.4998 38.0999C27.0198 38.1399 27.5398 38.1799 28.0698 38.2199C28.0498 38.5899 28.0298 38.9499 28.0098 39.3299C28.5798 39.3199 29.1398 39.2599 29.6998 39.1899C30.2498 39.1199 30.8098 39.0299 31.3798 38.9399C31.4198 39.4199 31.4698 39.8999 31.5098 40.3899C30.3198 40.5799 29.1298 40.6599 27.9198 40.7199C27.9198 41.1399 27.9198 41.5499 27.9198 41.9499C28.3398 41.9199 28.7698 41.8899 29.2198 41.8599C29.2398 41.7799 29.2698 41.6799 29.2998 41.5599C29.7898 41.6499 30.2698 41.7299 30.7698 41.8199C30.7498 41.9199 30.7198 42.0199 30.6998 42.1199C30.7598 42.1399 30.8098 42.1599 30.8598 42.1799C31.1598 42.2999 31.4398 42.4499 31.6998 42.6499C32.4298 43.2399 32.7098 44.0199 32.6498 44.9299C32.6298 45.1499 32.5998 45.3599 32.5398 45.5699C32.3898 46.1399 32.0698 46.5799 31.5898 46.9199C31.1198 47.2499 30.5998 47.4399 30.0498 47.5699C29.7798 47.6299 29.5098 47.6699 29.2398 47.7199C29.1798 47.7299 29.1298 47.7199 29.0898 47.6699C28.8498 47.3299 28.5998 46.9899 28.3598 46.6499C28.3598 46.6499 28.3598 46.6399 28.3598 46.6199C28.5598 46.5799 28.7598 46.5499 28.9598 46.5099C29.3298 46.4399 29.6798 46.3299 30.0198 46.1599C30.2498 46.0399 30.4698 45.8999 30.6498 45.7099C31.0098 45.3199 31.1398 44.8699 31.0098 44.3599C30.9098 43.9299 30.6098 43.6599 30.2098 43.4599C30.1598 43.5599 30.1098 43.6399 30.0598 43.7299C29.5998 44.5099 29.0498 45.2199 28.4098 45.8499C27.9998 46.2599 27.4798 46.5199 26.9498 46.7399C26.5598 46.8999 26.1498 47.0099 25.7198 47.0399C25.4298 47.0599 25.1498 47.0199 24.8798 46.9099C24.3898 46.6999 24.1098 46.3199 24.0298 45.7999C23.9298 45.1699 24.0798 44.5899 24.3898 44.0499C24.6598 43.5699 25.0398 43.1899 25.4998 42.8899C25.7498 42.7299 26.0198 42.5899 26.2798 42.4499C26.3398 42.4299 26.3898 42.4099 26.4398 42.3899ZM26.5298 43.8099C26.1498 43.9599 25.7198 44.3799 25.5798 44.7499C25.5298 44.8899 25.4998 45.0399 25.4898 45.1799C25.4798 45.4599 25.6198 45.5999 25.8998 45.6099C26.1898 45.6199 26.4598 45.5199 26.7198 45.3899C26.6598 44.8599 26.5898 44.3499 26.5298 43.8099ZM27.9998 44.3099C28.2598 44.0799 28.6898 43.4099 28.7198 43.1899C28.4598 43.2199 28.1998 43.2499 27.9298 43.2899C27.9498 43.6299 27.9698 43.9499 27.9998 44.3099Z" fill="#F7941D"/>
<path d="M38.0097 47.6799C38.6697 47.6799 39.2997 47.6799 39.9597 47.6799C41.0297 50.5499 42.1097 53.4199 43.1797 56.2899C43.0497 56.3299 41.5297 56.3499 41.2197 56.3099C41.0097 55.6899 40.7897 55.0499 40.5697 54.4099C39.4897 54.4099 38.4197 54.4099 37.3297 54.4099C37.1097 55.0399 36.8797 55.6799 36.6597 56.3099C36.0197 56.3099 35.3897 56.3099 34.7397 56.3099C35.8297 53.4299 36.9197 50.5599 38.0097 47.6799ZM38.9897 49.8399C38.9797 49.8399 38.9597 49.8399 38.9497 49.8399C38.5797 50.8799 38.2097 51.9199 37.8397 52.9699C38.5897 52.9699 39.3197 52.9699 40.0697 52.9699C39.6997 51.9199 39.3397 50.8799 38.9897 49.8399Z" fill="#F7941D"/>
<path d="M14.7598 38.98V28.88C14.7598 25.48 17.5198 22.72 20.9198 22.72H47.3298C48.1798 22.72 48.9898 22.89 49.7298 23.2" stroke="white" stroke-width="1.5" stroke-miterlimit="10" stroke-linecap="round" stroke-linejoin="round"/>
<path d="M53.4897 37.95V55.29C53.4897 58.69 50.7297 61.45 47.3297 61.45H22.9297" stroke="white" stroke-width="1.5" stroke-miterlimit="10" stroke-linecap="round" stroke-linejoin="round"/>
<path d="M48.4898 34.1699H14.7598" stroke="white" stroke-width="1.5" stroke-miterlimit="10" stroke-linecap="round" stroke-linejoin="round"/>
<path d="M20.09 29.8599C20.9792 29.8599 21.7 29.1391 21.7 28.2499C21.7 27.3607 20.9792 26.6399 20.09 26.6399C19.2008 26.6399 18.48 27.3607 18.48 28.2499C18.48 29.1391 19.2008 29.8599 20.09 29.8599Z" fill="white"/>
<path d="M25.6198 29.8599C26.5089 29.8599 27.2298 29.1391 27.2298 28.2499C27.2298 27.3607 26.5089 26.6399 25.6198 26.6399C24.7306 26.6399 24.0098 27.3607 24.0098 28.2499C24.0098 29.1391 24.7306 29.8599 25.6198 29.8599Z" fill="white"/>
<path d="M31.1598 29.8599C32.049 29.8599 32.7698 29.1391 32.7698 28.2499C32.7698 27.3607 32.049 26.6399 31.1598 26.6399C30.2706 26.6399 29.5498 27.3607 29.5498 28.2499C29.5498 29.1391 30.2706 29.8599 31.1598 29.8599Z" fill="white"/>
<path d="M40.4099 30.31H38.7499L37.3599 26.75H38.8699L39.6799 29.1L40.3899 26.75H41.9199L42.6399 29.06L43.4199 26.75H44.8099L43.4199 30.31H41.8499L41.1099 28.06L40.4099 30.31Z" fill="#F7941D"/>
<path d="M47.8 30.31H46.14L44.75 26.75H46.26L47.07 29.1L47.78 26.75H49.31L50.03 29.06L50.81 26.75H52.2L50.81 30.31H49.24L48.5 28.06L47.8 30.31Z" fill="#F7941D"/>
<path d="M55.1999 30.31H53.5399L52.1499 26.75H53.6599L54.4699 29.1L55.1799 26.75H56.7099L57.4299 29.06L58.2099 26.75H59.5999L58.2099 30.31H56.6399L55.8999 28.06L55.1999 30.31Z" fill="#F7941D"/>
<path d="M27.53 11.6001C29.4685 11.6001 31.04 10.0286 31.04 8.09008C31.04 6.15156 29.4685 4.58008 27.53 4.58008C25.5915 4.58008 24.02 6.15156 24.02 8.09008C24.02 10.0286 25.5915 11.6001 27.53 11.6001Z" stroke="white" stroke-width="1.5" stroke-miterlimit="10" stroke-linecap="round" stroke-linejoin="round"/>
<path d="M35.1502 8.37C35.1502 12.58 27.5302 18.75 27.5302 18.75C27.5302 18.75 19.9102 12.58 19.9102 8.37C19.9102 4.16 23.3202 0.75 27.5302 0.75C31.7402 0.75 35.1502 4.16 35.1502 8.37Z" stroke="white" stroke-width="1.5" stroke-miterlimit="10" stroke-linecap="round" stroke-linejoin="round"/>
<path d="M1 18.29H22.49" stroke="white" stroke-width="1.5" stroke-miterlimit="10" stroke-linecap="round" stroke-linejoin="round"/>
<path d="M17.5702 2.11011C12.3702 2.11011 8.16016 9.36011 8.16016 18.3001C8.16016 22.2001 8.96016 25.7701 10.3002 28.5701" stroke="white" stroke-width="1.5" stroke-miterlimit="10" stroke-linecap="round" stroke-linejoin="round"/>
<path d="M17.5698 18.29V19.43" stroke="white" stroke-width="1.5" stroke-miterlimit="10" stroke-linecap="round" stroke-linejoin="round"/>
<path d="M17.5698 2.11011V18.2901" stroke="white" stroke-width="1.5" stroke-miterlimit="10" stroke-linecap="round" stroke-linejoin="round"/>
<path d="M8.61 31.8601C4.03 28.9101 1 23.7701 1 17.9101C1 8.76009 8.42 1.34009 17.57 1.34009" stroke="white" stroke-width="1.5" stroke-miterlimit="10" stroke-linecap="round" stroke-linejoin="round"/>
<path d="M34.04 15.98C34.11 16.62 34.15 17.26 34.15 17.92C34.15 18.3 34.14 18.67 34.11 19.05" stroke="white" stroke-width="1.5" stroke-miterlimit="10" stroke-linecap="round" stroke-linejoin="round"/>
<path d="M17.5699 12.5502C12.6199 12.5502 8.1799 10.3802 5.1499 6.9502" stroke="white" stroke-width="1.5" stroke-miterlimit="10" stroke-linecap="round" stroke-linejoin="round"/>
<path d="M4.70996 28.3602C6.45996 26.2002 8.74996 24.5002 11.36 23.4402" stroke="white" stroke-width="1.5" stroke-miterlimit="10" stroke-linecap="round" stroke-linejoin="round"/>
<path d="M10.9398 56.3899C13.3533 56.3899 15.3098 54.4334 15.3098 52.0199C15.3098 49.6064 13.3533 47.6499 10.9398 47.6499C8.52634 47.6499 6.56982 49.6064 6.56982 52.0199C6.56982 54.4334 8.52634 56.3899 10.9398 56.3899Z" stroke="#F7941D" stroke-miterlimit="10"/>
<path d="M19.6499 55.8101L17.8199 54.4901C17.8799 54.3201 17.9399 54.1501 17.9899 53.9701C18.1899 53.2201 18.2699 52.4601 18.2299 51.7201L20.3399 50.9701C20.7199 50.8301 20.9199 50.4101 20.7899 50.0301L19.8899 47.4901C19.7499 47.1101 19.3299 46.9101 18.9499 47.0401L16.8799 47.7701C16.1299 46.7001 15.1099 45.8301 13.8799 45.2701L14.1299 43.3201C14.1799 42.9201 13.8999 42.5501 13.4899 42.5001L10.8199 42.1601C10.4199 42.1101 10.0499 42.3901 9.98987 42.8001L9.74987 44.6601C8.44987 44.8401 7.22987 45.3601 6.19987 46.1501L4.60987 45.0101C4.27987 44.7701 3.81987 44.8501 3.57987 45.1801L1.99987 47.3701C1.75987 47.7001 1.83987 48.1601 2.16987 48.4001L3.72987 49.5201C3.64987 49.7301 3.57987 49.9401 3.52987 50.1601C3.30987 50.9801 3.24987 51.8001 3.29987 52.6001L1.47987 53.2401C1.09987 53.3801 0.899874 53.8001 1.02987 54.1801L1.92987 56.7201C2.06987 57.1001 2.48987 57.3001 2.86987 57.1701L4.73987 56.5101C5.52987 57.5801 6.60987 58.4401 7.89987 58.9701L7.67987 60.7101C7.62987 61.1101 7.90987 61.4801 8.31987 61.5301L10.9999 61.8601C11.3999 61.9101 11.7699 61.6301 11.8199 61.2201L12.0499 59.4001C13.2799 59.1801 14.4299 58.6601 15.3999 57.8901L17.1999 59.1901C17.5299 59.4301 17.9899 59.3501 18.2299 59.0201L19.8099 56.8301C20.0499 56.5101 19.9799 56.0501 19.6499 55.8101Z" stroke="white" stroke-width="2" stroke-miterlimit="10" stroke-linecap="round" stroke-linejoin="round"/>
</g>
<defs>
<clipPath id="clip0_4203_13332">
<rect width="59.62" height="62.87" fill="white"/>
</clipPath>
</defs>
</svg>
