<svg width="49" height="49" viewBox="0 0 49 49" fill="none" xmlns="http://www.w3.org/2000/svg">
<g id="Icons/train">
<path id="Vector" d="M31.4828 30.3096C33.4673 30.3096 35.0804 28.6965 35.0804 26.712C35.0804 24.7274 33.4673 23.1143 31.4828 23.1143C29.4982 23.1143 27.8887 24.7274 27.8887 26.712C27.8887 28.6965 29.5018 30.3096 31.4828 30.3096ZM31.4828 24.922C32.4697 24.922 33.2727 25.725 33.2727 26.712C33.2727 27.6989 32.4697 28.5019 31.4828 28.5019C30.4958 28.5019 29.6928 27.6989 29.6928 26.712C29.6928 25.725 30.4958 24.922 31.4828 24.922Z" fill="white"/>
<path id="Vector_2" d="M16.5547 30.3096C18.5392 30.3096 20.1488 28.6965 20.1488 26.712C20.1488 24.7274 18.5357 23.1143 16.5547 23.1143C14.5737 23.1143 12.957 24.7274 12.957 26.712C12.957 28.6965 14.5701 30.3096 16.5547 30.3096ZM16.5547 24.922C17.5416 24.922 18.3446 25.725 18.3446 26.712C18.3446 27.6989 17.5416 28.5019 16.5547 28.5019C15.5677 28.5019 14.7647 27.6989 14.7647 26.712C14.7647 25.725 15.5677 24.922 16.5547 24.922Z" fill="white"/>
<path id="Vector_3" d="M29.5612 4.10327H18.4782C17.9794 4.10327 17.5762 4.50655 17.5762 5.00533C17.5762 5.50412 17.9794 5.90739 18.4782 5.90739H29.5612C30.06 5.90739 30.4633 5.50412 30.4633 5.00533C30.4633 4.50655 30.06 4.10327 29.5612 4.10327Z" fill="white"/>
<path id="Vector_4" d="M0.451421 47.9225C0.592921 48.0038 0.745037 48.0427 0.897149 48.0427C1.21199 48.0427 1.51621 47.88 1.68247 47.5864L2.81447 45.6054H28.6311C29.1299 45.6054 29.5332 45.2021 29.5332 44.7033C29.5332 44.2046 29.1299 43.8013 28.6311 43.8013H3.84742L5.74706 40.476H12.4152C12.914 40.476 13.3173 40.0728 13.3173 39.574C13.3173 39.0752 12.914 38.6719 12.4152 38.6719H6.77647L9.76919 33.4293C11.2903 34.6285 13.2076 35.3467 15.2912 35.3467H32.7488C34.8324 35.3467 36.7497 34.6285 38.2708 33.4293L41.2635 38.6719H19.1612C18.6625 38.6719 18.2592 39.0752 18.2592 39.574C18.2592 40.0728 18.6625 40.476 19.1612 40.476H42.2929L44.1926 43.8013H35.3807C34.8819 43.8013 34.4786 44.2046 34.4786 44.7033C34.4786 45.2021 34.8819 45.6054 35.3807 45.6054H45.222L46.354 47.5864C46.5203 47.88 46.8245 48.0427 47.1393 48.0427C47.2914 48.0427 47.4435 48.0038 47.585 47.9225C48.0202 47.6748 48.1687 47.123 47.9211 46.6914L39.608 32.124C40.9062 30.571 41.688 28.5759 41.688 26.4003V8.93925C41.688 4.00798 37.6765 0 32.7488 0H15.2912C10.36 0 6.35196 4.01152 6.35196 8.93925V26.3968C6.35196 28.5724 7.13375 30.571 8.43201 32.1205L0.118896 46.6879C-0.128729 47.1194 0.0233876 47.6713 0.454962 47.9189L0.451421 47.9225ZM15.2912 1.80766H32.7488C36.4348 1.80766 39.4771 4.61997 39.845 8.21053H8.19147C8.55937 4.61997 11.6016 1.80766 15.2877 1.80766H15.2912ZM8.15609 10.0147H39.8839V18.4834H8.15609V10.0147ZM8.15609 26.4003V20.2911H39.8839V26.4003C39.8839 28.3035 39.134 30.0298 37.9171 31.3104C37.864 31.3528 37.818 31.4024 37.7791 31.4554C36.4879 32.7395 34.7085 33.5355 32.7488 33.5355H15.2912C13.3315 33.5355 11.5521 32.7395 10.2609 31.4554C10.222 31.4024 10.176 31.3564 10.1229 31.3104C8.90604 30.0298 8.15609 28.3 8.15609 26.4003Z" fill="white"/>
<path id="Vector_5" d="M15.2146 38.6643C14.7158 38.6643 14.3125 39.0676 14.3125 39.5664C14.3125 40.0652 14.7158 40.4684 15.2146 40.4684H15.8478C16.3466 40.4684 16.7498 40.0652 16.7498 39.5664C16.7498 39.0676 16.3466 38.6643 15.8478 38.6643H15.2146Z" fill="white"/>
<path id="Vector_6" d="M31.947 43.7974C31.4482 43.7974 31.0449 44.2006 31.0449 44.6994C31.0449 45.1982 31.4482 45.6015 31.947 45.6015H32.5802C33.079 45.6015 33.4823 45.1982 33.4823 44.6994C33.4823 44.2006 33.079 43.7974 32.5802 43.7974H31.947Z" fill="white"/>
</g>
</svg>
