<svg width="48" height="66" viewBox="0 0 48 66" fill="none" xmlns="http://www.w3.org/2000/svg">
<g clip-path="url(#clip0_4255_13338)">
<path d="M46.08 1H1V64.19H46.08V1Z" stroke="white" stroke-width="2" stroke-miterlimit="10" stroke-linecap="round" stroke-linejoin="round"/>
<path d="M38.7605 30.3501H20.2305V31.9501H38.7605V30.3501Z" fill="white"/>
<path d="M23.0902 35.1602H7.66016V36.7602H23.0902V35.1602Z" fill="#F7941D"/>
<path d="M23.0902 38.3999H7.66016V39.9999H23.0902V38.3999Z" fill="#F7941D"/>
<path d="M23.0902 41.6401H7.66016V43.2401H23.0902V41.6401Z" fill="#F7941D"/>
<path d="M38.7605 46.23H20.2305V47.83H38.7605V46.23Z" fill="white"/>
<path d="M38.7703 27.46H9.82031V29.06H38.7703V27.46Z" fill="white"/>
<path d="M14.1496 60.1499C16.5024 60.1499 18.4096 58.2426 18.4096 55.8899C18.4096 53.5371 16.5024 51.6299 14.1496 51.6299C11.7969 51.6299 9.88965 53.5371 9.88965 55.8899C9.88965 58.2426 11.7969 60.1499 14.1496 60.1499Z" stroke="#F7941D" stroke-miterlimit="10"/>
<path d="M17.6596 13.6899V19.1199H15.5996V13.6899H17.6596Z" fill="#F7941D"/>
<path d="M22.2995 19.2198H22.0195C21.3795 19.2198 20.8295 19.1598 20.3495 19.0298C19.8695 18.8998 19.4995 18.7498 19.2295 18.5598C18.9595 18.3698 18.7495 18.1498 18.5795 17.8898C18.4095 17.6298 18.3095 17.3898 18.2595 17.1698C18.2095 16.9498 18.1895 16.7198 18.1895 16.4798V16.2698C18.1895 16.0298 18.2095 15.7998 18.2595 15.5798C18.3095 15.3698 18.4095 15.1298 18.5695 14.8798C18.7295 14.6298 18.9395 14.4098 19.2095 14.2198C19.4695 14.0398 19.8495 13.8798 20.3295 13.7598C20.8095 13.6398 21.3795 13.5698 22.0295 13.5698H22.3095C22.7595 13.5698 23.1795 13.5998 23.5495 13.6598C23.9295 13.7198 24.2395 13.7898 24.4995 13.8898C24.7595 13.9798 24.9795 14.0898 25.1795 14.2198C25.3795 14.3498 25.5295 14.4798 25.6395 14.6098C25.7495 14.7398 25.8395 14.8798 25.9095 15.0298C25.9795 15.1798 26.0295 15.3098 26.0495 15.4298C26.0695 15.5498 26.0795 15.6598 26.0795 15.7698V15.8598H23.9295C23.7595 15.3098 23.1695 15.0298 22.1395 15.0298C20.9295 15.0298 20.3195 15.4498 20.3195 16.2998V16.3898C20.3195 16.5498 20.3495 16.6998 20.3995 16.8498C20.4595 16.9998 20.5495 17.1398 20.6795 17.2798C20.8095 17.4198 20.9995 17.5298 21.2495 17.6198C21.4995 17.6998 21.7995 17.7398 22.1395 17.7398C22.4395 17.7398 22.7095 17.7098 22.9295 17.6598C23.1495 17.6098 23.3295 17.5398 23.4495 17.4698C23.5695 17.3998 23.6595 17.3198 23.7395 17.2198C23.8195 17.1198 23.8595 17.0498 23.8795 16.9998C23.8895 16.9598 23.9095 16.9098 23.9195 16.8498H26.0595V16.9698C26.0595 17.1398 26.0395 17.2998 25.9895 17.4798C25.9395 17.6498 25.8295 17.8498 25.6695 18.0598C25.4995 18.2798 25.2895 18.4698 25.0295 18.6298C24.7695 18.7898 24.3995 18.9298 23.9295 19.0398C23.4695 19.1598 22.9195 19.2198 22.2995 19.2198Z" fill="#F7941D"/>
<path d="M31.1001 17.4097H28.6501V19.1097H26.5801V13.6797H31.1001C32.8201 13.6797 33.6701 14.2797 33.6701 15.4697V15.5897C33.6701 16.8097 32.8101 17.4097 31.1001 17.4097ZM28.6501 15.0397V16.0497H30.8501C31.3101 16.0497 31.5401 15.8797 31.5401 15.5497V15.5297C31.5401 15.1997 31.3101 15.0297 30.8501 15.0297H28.6501V15.0397Z" fill="#F7941D"/>
<path d="M7.1502 7.52979L5.9802 8.91979L7.3902 10.7198H6.5702L5.3702 9.12979V10.7198H4.7002V7.52979H5.3702V8.73978L6.3402 7.52979H7.1502Z" fill="white"/>
<path d="M8.9298 10.72C7.9898 10.72 7.2998 10.02 7.2998 9.12002C7.2998 8.22002 7.9898 7.52002 8.9298 7.52002C9.8698 7.52002 10.5598 8.22002 10.5598 9.12002C10.5598 10.02 9.8698 10.72 8.9298 10.72ZM8.9298 8.14002C8.3598 8.14002 7.9898 8.57002 7.9898 9.12002C7.9898 9.67002 8.3598 10.1 8.9298 10.1C9.4998 10.1 9.8698 9.67002 9.8698 9.12002C9.8698 8.57002 9.4998 8.14002 8.9298 8.14002Z" fill="white"/>
<path d="M11.3698 7.52979L12.7398 9.10978L14.1098 7.52979H14.4698V10.7198H13.7998V8.75979L12.7398 10.0098L11.6798 8.75979V10.7198H11.0098V7.52979H11.3698Z" fill="white"/>
<path d="M15.4401 7.52979L16.8101 9.10978L18.1801 7.52979H18.5401V10.7198H17.8701V8.75979L16.8101 10.0098L15.7501 8.75979V10.7198H15.0801V7.52979H15.4401Z" fill="white"/>
<path d="M21.4004 7.52979V8.13979H19.8204V8.66979H21.0304V9.27978H19.8204V10.1098H21.4004V10.7298H19.1504V7.52979H21.4004Z" fill="white"/>
<path d="M21.9004 10.7198V7.52979H23.4604C23.7304 7.52979 23.9204 7.57978 24.0704 7.67978C24.3304 7.83978 24.5004 8.11978 24.5004 8.48978C24.5004 8.83978 24.3304 9.12978 24.0704 9.28978C23.9204 9.38978 23.7304 9.43978 23.4604 9.43978H22.5604V10.7298H21.9004V10.7198ZM23.3804 8.81978C23.5104 8.81978 23.5704 8.80978 23.6204 8.78978C23.7404 8.73978 23.8504 8.63978 23.8504 8.47978C23.8504 8.32978 23.7504 8.21979 23.6204 8.16979C23.5704 8.14979 23.5104 8.13979 23.3804 8.13979H22.5704V8.81978H23.3804Z" fill="white"/>
<path d="M27.4005 7.52979V10.7198H26.7305V9.49978C26.5005 9.57978 26.2605 9.60978 26.0105 9.60978C25.5605 9.60978 25.2005 9.46978 24.9905 9.14978C24.8305 8.89978 24.8105 8.64979 24.8105 8.34979V7.52979H25.4805V8.45978C25.4805 8.84978 25.7005 8.99978 26.1005 8.99978C26.3305 8.99978 26.5505 8.95978 26.7305 8.86978V7.52979H27.4005Z" fill="white"/>
<path d="M30.2598 7.52979V8.13979H28.6798V8.66979H29.8898V9.27978H28.6798V10.1098H30.2598V10.7298H28.0098V7.52979H30.2598Z" fill="white"/>
<path d="M33.0097 8.83002C32.8797 8.40002 32.5497 8.13002 32.0997 8.13002C31.5397 8.13002 31.1597 8.56002 31.1597 9.12002C31.1597 9.65002 31.5297 10.11 32.0997 10.11C32.5497 10.11 32.8797 9.85002 33.0197 9.40002L33.6497 9.60002C33.4597 10.27 32.8297 10.72 32.0997 10.72C31.2097 10.72 30.4697 10.04 30.4697 9.12002C30.4697 8.22002 31.1797 7.52002 32.0997 7.52002C32.8097 7.52002 33.4297 7.91002 33.6397 8.62002L33.0097 8.83002Z" fill="white"/>
<path d="M36.5005 7.52979L35.3405 8.91979L36.7505 10.7198H35.9305L34.7305 9.12979V10.7198H34.0605V7.52979H34.7305V8.73978L35.7005 7.52979H36.5005Z" fill="white"/>
<path d="M39.05 10.1898H37.64L37.44 10.7198H36.75L38.02 7.52979H38.68L39.95 10.7198H39.26L39.05 10.1898ZM37.87 9.57978H38.82L38.35 8.29979L37.87 9.57978Z" fill="white"/>
<path d="M42.13 10.72V9.43002H41.53L40.77 10.72H40L40.81 9.36002L40.78 9.35002C40.61 9.29002 40.46 9.19002 40.35 9.03002C40.25 8.88002 40.19 8.69002 40.19 8.48002C40.19 8.11002 40.36 7.83002 40.62 7.67002C40.77 7.57002 40.96 7.52002 41.23 7.52002H42.79V10.71H42.13V10.72ZM42.13 8.82002V8.14002H41.32C41.19 8.14002 41.13 8.15002 41.07 8.17002C40.94 8.22002 40.84 8.33002 40.84 8.48002C40.84 8.63002 40.94 8.73002 41.07 8.78002C41.13 8.80002 41.19 8.81002 41.31 8.81002H42.13V8.82002Z" fill="white"/>
<path d="M29.0898 57.6999C30.2098 56.9299 31.2198 55.9999 32.0698 54.9399C31.7698 55.7799 31.6998 56.6999 31.8698 57.5699C31.8898 57.6899 31.9298 57.8099 32.0198 57.8799C32.1198 57.9499 32.2498 57.9399 32.3698 57.9199C33.0198 57.7999 33.6298 57.4299 34.0198 56.8999C34.4198 57.1799 34.3998 57.7699 34.6698 58.1699C34.9898 58.6299 35.6598 58.7199 36.1798 58.5299C36.6998 58.3399 37.1198 57.9399 37.5198 57.5499C38.7698 56.3299 40.0098 55.1099 41.2598 53.8799" stroke="white" stroke-miterlimit="10" stroke-linecap="round" stroke-linejoin="round"/>
</g>
<defs>
<clipPath id="clip0_4255_13338">
<rect width="47.08" height="65.19" fill="white"/>
</clipPath>
</defs>
</svg>
