<svg width="64" height="26" viewBox="0 0 64 26" fill="none" xmlns="http://www.w3.org/2000/svg">
<g clip-path="url(#clip0_4541_13434)">
<path d="M19.1504 12.7899C19.1704 11.4899 19.2204 10.2399 19.3804 8.98989C19.5804 7.46989 19.9104 5.98989 20.5304 4.57989C20.9904 3.53989 21.5704 2.58989 22.3904 1.78989C23.4404 0.759892 24.7004 0.169892 26.1704 0.0398925C27.5204 -0.0801075 28.7904 0.149892 29.9804 0.829892C31.0004 1.41989 31.7704 2.24989 32.3904 3.23989C33.0904 4.34989 33.5404 5.56989 33.8504 6.83989C34.1204 7.95989 34.2804 9.08989 34.3704 10.2399C34.4704 11.4999 34.4904 12.7699 34.4404 14.0299C34.3804 15.8899 34.1604 17.7299 33.6204 19.5199C33.2404 20.7699 32.7104 21.9399 31.9104 22.9799C30.9604 24.2099 29.7704 25.0699 28.2304 25.3699C25.6804 25.8599 23.5204 25.1699 21.8404 23.1399C20.9804 22.0999 20.4304 20.8899 20.0304 19.6099C19.7104 18.5699 19.5104 17.5099 19.3704 16.4299C19.2104 15.1899 19.1704 13.9699 19.1504 12.7899ZM31.9104 12.6499C31.9104 12.0299 31.8804 11.3099 31.8304 10.5899C31.7604 9.60989 31.6304 8.62989 31.4004 7.66989C31.1504 6.57989 30.7804 5.53989 30.1804 4.58989C29.9404 4.19989 29.6804 3.82989 29.3404 3.52989C28.5304 2.79989 27.5704 2.49989 26.4904 2.58989C25.4404 2.66989 24.5904 3.11989 23.9204 3.92989C23.2704 4.71989 22.8404 5.62989 22.5304 6.59989C22.0204 8.15989 21.8204 9.76989 21.7504 11.3899C21.7004 12.6799 21.7104 13.9599 21.8204 15.2499C21.9204 16.3399 22.0804 17.4199 22.3804 18.4699C22.6404 19.3899 23.0004 20.2699 23.5304 21.0799C23.8704 21.5999 24.2704 22.0599 24.8104 22.3999C25.6904 22.9499 26.6504 23.0799 27.6504 22.8699C28.5304 22.6899 29.2404 22.2199 29.7804 21.5099C30.2004 20.9699 30.5204 20.3799 30.7904 19.7499C31.2904 18.5699 31.5504 17.3299 31.7104 16.0699C31.8504 14.9599 31.9104 13.8599 31.9104 12.6499Z" fill="white"/>
<path d="M4.24032 22.9498C4.33032 22.9498 4.42032 22.9498 4.50032 22.9498C7.64032 22.9498 10.7903 22.9498 13.9303 22.9498C14.3003 22.9498 14.6303 23.0398 14.9003 23.2998C15.3003 23.6898 15.4103 24.1598 15.2303 24.6798C15.0603 25.1698 14.5903 25.4998 14.0603 25.5198C14.0203 25.5198 13.9803 25.5198 13.9403 25.5198C9.75032 25.5198 5.56032 25.5198 1.36032 25.5198C1.01032 25.5198 0.690319 25.4398 0.420319 25.1998C-0.119681 24.7098 -0.169681 23.9298 0.310319 23.3798C0.660319 22.9798 1.02032 22.5898 1.38032 22.1898C3.91032 19.3898 6.44032 16.5898 8.97032 13.7898C9.79032 12.8798 10.6203 11.9698 11.4403 11.0698C12.2003 10.2298 12.6203 9.24979 12.7103 8.10979C12.9303 5.54979 11.3603 3.73978 9.70032 2.99978C9.04032 2.69978 8.35032 2.56978 7.63032 2.57978C5.48032 2.59978 3.95032 3.65979 2.99032 5.58979C2.68032 6.21979 2.57032 6.89979 2.57032 7.60979C2.57032 7.98979 2.45032 8.31979 2.17032 8.58979C1.77032 8.95979 1.29032 9.03979 0.800319 8.83979C0.300319 8.63979 0.0203193 8.23979 0.0103193 7.68979C-0.00968071 5.80978 0.580319 4.12979 1.82032 2.69978C2.81032 1.55979 3.99032 0.729785 5.45032 0.309785C6.40032 0.0397849 7.37032 -0.0302151 8.35032 0.0397849C11.7403 0.279785 14.1503 2.85978 14.9003 5.13978C15.2603 6.21978 15.3603 7.31979 15.2603 8.43979C15.1003 10.2398 14.3303 11.7498 13.0903 13.0498C12.3003 13.8698 11.5603 14.7398 10.7903 15.5898C9.32032 17.2198 7.85032 18.8498 6.38032 20.4898C5.68032 21.2598 4.99032 22.0398 4.29032 22.8098C4.28032 22.8398 4.24032 22.8598 4.24032 22.9498Z" fill="#F09224"/>
<path d="M60.2402 11.34C60.5102 11.53 60.7602 11.7 60.9902 11.89C62.3302 12.99 63.2702 14.35 63.6402 16.06C64.1102 18.25 63.8202 20.33 62.5102 22.19C61.4702 23.67 60.1102 24.74 58.3502 25.22C56.1202 25.82 53.9702 25.59 52.0202 24.3C50.3202 23.17 49.1702 21.62 48.7202 19.6C48.5902 19.03 48.5502 18.44 48.5402 17.86C48.5302 17.27 49.0302 16.61 49.8102 16.6C50.5002 16.59 51.0802 17.15 51.0902 17.85C51.1002 18.52 51.1802 19.18 51.4502 19.79C52.2302 21.54 53.5402 22.65 55.4602 22.92C58.3602 23.33 60.3202 21.47 60.9502 19.7C62.1102 16.46 60.1002 13.64 57.5402 12.96C57.0902 12.84 56.6302 12.78 56.1702 12.79C55.7602 12.79 55.4202 12.62 55.1702 12.3C54.8502 11.89 54.8002 11.43 55.0202 10.97C55.2402 10.51 55.6102 10.25 56.1402 10.24C57.0302 10.23 57.8402 9.97999 58.5402 9.40999C59.2702 8.80999 59.7702 8.05999 59.9402 7.10999C60.3802 4.64999 58.5302 2.90999 56.8602 2.63999C54.4402 2.23999 52.7702 3.97999 52.4502 5.53999C52.3902 5.81999 52.3702 6.09999 52.3602 6.38999C52.3502 6.74999 52.2402 7.06999 51.9702 7.31999C51.5702 7.68999 51.1002 7.78999 50.6002 7.58999C50.0802 7.37999 49.8002 6.96999 49.8002 6.39999C49.8002 5.04999 50.1602 3.80999 50.9602 2.71999C51.8202 1.54999 52.9102 0.68999 54.3302 0.28999C57.4502 -0.59001 60.4702 0.73999 61.9402 3.61999C62.4902 4.70999 62.6402 5.86999 62.5202 7.07999C62.3802 8.47999 61.7802 9.66999 60.8602 10.72C60.6802 10.91 60.4702 11.12 60.2402 11.34Z" fill="#F09224"/>
<path d="M42.1301 3.1099C42.0101 3.0699 41.9301 3.1299 41.8501 3.1499C41.2401 3.3499 40.6201 3.5599 40.0101 3.7599C39.3101 3.9899 38.6001 3.6299 38.3701 2.9499C38.1501 2.2799 38.5101 1.5599 39.1901 1.3299C40.3101 0.949903 41.4201 0.579903 42.5401 0.209903C42.7501 0.139903 42.9601 0.0499027 43.1801 0.00990273C44.0201 -0.150097 44.7101 0.559903 44.6801 1.2199C44.6801 1.2799 44.6801 1.3399 44.6801 1.3999C44.6801 8.9699 44.6801 16.5499 44.6801 24.1199C44.6801 24.4699 44.6101 24.7699 44.3801 25.0399C44.0301 25.4399 43.5001 25.5899 43.0001 25.4199C42.5001 25.2499 42.1501 24.7799 42.1301 24.2499C42.1301 24.1499 42.1301 24.0499 42.1301 23.9499C42.1301 17.0899 42.1301 10.2299 42.1301 3.3799C42.1301 3.2999 42.1301 3.1999 42.1301 3.1099Z" fill="white"/>
</g>
<defs>
<clipPath id="clip0_4541_13434">
<rect width="63.85" height="25.53" fill="white"/>
</clipPath>
</defs>
</svg>
