<svg width="48" height="58" viewBox="0 0 48 58" fill="none" xmlns="http://www.w3.org/2000/svg">
<path d="M13.7543 32.89H34.2467C41.2877 32.89 47.001 38.6033 47.001 45.6443V53.4445C47.001 54.8884 45.8268 56.0626 44.3829 56.0626H3.61808C2.17419 56.0626 1 54.8884 1 53.4445V45.6443C1 38.6033 6.7133 32.89 13.7543 32.89Z" stroke="white" stroke-width="2" stroke-linecap="round" stroke-linejoin="round"/>
<path d="M24.0016 32.558C32.7161 32.558 39.7806 25.4935 39.7806 16.779C39.7806 8.0645 32.7161 1 24.0016 1C15.2871 1 8.22266 8.0645 8.22266 16.779C8.22266 25.4935 15.2871 32.558 24.0016 32.558Z" stroke="white" stroke-width="2" stroke-linecap="round" stroke-linejoin="round"/>
<path d="M18.1543 22.4633C21.8652 22.4634 30.198 22.4633 30.198 22.4633" stroke="white" stroke-width="2" stroke-linecap="round" stroke-linejoin="round"/>
<path d="M29.187 9.84277H29.1843C28.28 9.84277 27.5469 10.5759 27.5469 11.4802V12.7103C27.5469 13.6146 28.28 14.3477 29.1843 14.3477H29.187C30.0913 14.3477 30.8244 13.6146 30.8244 12.7103V11.4802C30.8244 10.5759 30.0913 9.84277 29.187 9.84277Z" stroke="white" stroke-width="2" stroke-linecap="round" stroke-linejoin="round"/>
<path d="M18.982 9.84277H18.9792C18.0749 9.84277 17.3418 10.5759 17.3418 11.4802V12.7103C17.3418 13.6146 18.0749 14.3477 18.9792 14.3477H18.982C19.8863 14.3477 20.6193 13.6146 20.6193 12.7103V11.4802C20.6193 10.5759 19.8863 9.84277 18.982 9.84277Z" stroke="white" stroke-width="2" stroke-linecap="round" stroke-linejoin="round"/>
</svg>
