<svg width="62" height="66" viewBox="0 0 62 66" fill="none" xmlns="http://www.w3.org/2000/svg">
<g clip-path="url(#clip0_4480_13492)">
<path d="M30.4301 65.36C29.8701 65.11 29.2701 64.99 28.6901 64.79C22.6701 62.66 17.3201 59.46 12.8501 54.87C8.84012 50.75 6.10012 45.9 4.64012 40.33C4.49012 39.76 4.67012 39.37 5.15012 39.24C5.60012 39.12 5.97012 39.38 6.11012 39.93C6.84012 42.71 7.92012 45.34 9.38012 47.82C11.6101 51.61 14.5301 54.78 18.0401 57.42C21.6901 60.17 25.7101 62.24 30.0701 63.63C30.4901 63.76 30.8801 63.78 31.3001 63.64C37.8101 61.52 43.5101 58.11 48.1601 53.04C51.6101 49.27 53.9701 44.9 55.2701 39.96C55.4101 39.43 55.7301 39.16 56.1401 39.22C56.6401 39.29 56.9001 39.73 56.7601 40.27C56.2901 42.08 55.6701 43.84 54.9001 45.55C52.1301 51.65 47.7901 56.38 42.2501 60.06C38.8101 62.35 35.1101 64.11 31.1401 65.28C31.0801 65.3 30.9801 65.28 30.9501 65.37C30.7701 65.36 30.6001 65.36 30.4301 65.36Z" fill="#F7941D"/>
<path d="M18.92 23.7999C19.55 23.9999 20.18 24.1799 20.8 24.3999C21.21 24.5499 21.58 24.5 21.96 24.29C22.54 23.96 23.14 23.6699 23.73 23.3399C25.24 22.5099 26.85 22.3899 28.52 22.6299C28.95 22.6899 29.37 22.7999 29.78 22.9399C29.88 22.9799 29.99 23.0099 30.09 22.9699C31.32 22.4799 32.54 22.6499 33.78 22.9599C35.39 23.3599 37 23.7099 38.61 24.0899C39.12 24.2099 39.61 24.2399 40.12 24.1299C40.88 23.9699 41.64 23.8299 42.4 23.6799C42.67 24.1599 42.98 24.61 43.19 25.12C42.49 25.25 41.78 25.3399 41.09 25.5099C39.99 25.7799 38.93 25.7799 37.82 25.4899C36 25.0199 34.17 24.6099 32.33 24.2299C31.48 24.0499 30.65 24.2199 29.97 24.8199C28.45 26.1499 26.94 27.4899 25.42 28.8299C25.32 28.9199 25.26 29.0199 25.22 29.1399C24.63 31.2199 24.04 33.3099 23.44 35.3899C23.38 35.5899 23.42 35.6799 23.61 35.7499C24.26 36.0099 24.9 35.9799 25.53 35.7099C26.34 35.3599 26.77 34.6799 27.1 33.9099C27.56 32.8299 28.04 31.7499 28.5 30.6599C28.64 30.3299 28.87 30.14 29.21 30.04C30.05 29.82 30.89 29.5799 31.73 29.3399C32.06 29.2399 32.35 29.2899 32.63 29.4899C33.87 30.3599 35.12 31.2299 36.37 32.0899C39.11 33.9899 41.86 35.89 44.6 37.79C44.8 37.93 45.01 38.0099 45.24 38.0499C45.71 38.1399 46.15 38.04 46.58 37.86C47.74 37.3899 48.63 36.5899 49.31 35.5499C49.67 35.9199 50.07 36.24 50.48 36.54C49.39 38.09 48.01 39.2199 46.09 39.5699C45.96 39.5899 45.95 39.6399 45.96 39.7599C46.17 41.4699 45.35 42.6199 43.67 42.9599C43.45 42.9999 43.43 43.1099 43.45 43.2899C43.58 44.99 42.19 46.6199 40.57 46.7799C40.41 46.7999 40.39 46.8599 40.38 46.9999C40.27 48.7499 38.8 50.0399 37.06 49.9199C36.9 49.9099 36.8 49.9099 36.74 50.1199C36.27 52.0099 34.44 52.8099 32.73 51.8799C32.59 51.7999 32.48 51.7199 32.29 51.8199C30.9 52.5699 29.25 51.8699 28.59 50.4999C28.51 50.3399 28.46 50.2799 28.26 50.3399C26.79 50.7999 25.18 50.03 24.6 48.58C24.51 48.35 24.43 48.3199 24.19 48.3599C22.6 48.6699 21 47.5999 20.66 45.9999C20.61 45.7699 20.54 45.6799 20.28 45.6799C18.75 45.7199 17.43 44.6099 17.21 43.0899C17.17 42.8299 17.07 42.7199 16.84 42.6199C15.67 42.0799 14.65 41.33 13.68 40.49C12.59 39.5399 11.6 38.5199 10.79 37.3199C10.68 37.1499 10.59 36.9699 10.49 36.7999C10.93 36.5399 11.33 36.2399 11.73 35.9199C12.48 37.2499 13.53 38.3099 14.66 39.3099C15.46 40.0199 16.29 40.6799 17.2 41.2299C17.46 41.3899 17.62 41.3899 17.8 41.0899C18.16 40.4899 18.63 39.9799 19.3 39.7099C20.6 39.1899 22.15 39.7299 22.94 40.9699C23.01 41.09 23.04 41.2499 23.26 41.1099C24.77 40.1399 26.73 40.9399 27.45 42.3599C27.55 42.5499 27.64 42.5799 27.84 42.5099C29.45 41.9299 31.36 42.9799 31.7 44.65C31.78 45.0299 31.87 45.2499 32.26 45.4799C33.66 46.2999 35.01 47.2199 36.37 48.1099C36.72 48.3399 37.07 48.4399 37.48 48.4099C38.09 48.3499 38.68 47.8599 38.83 47.2699C38.95 46.7899 38.75 46.4099 38.15 45.9999C35.45 44.1599 32.76 42.3199 30.06 40.4799C29.59 40.1599 29.48 39.7399 29.75 39.3399C30.01 38.9599 30.47 38.91 30.93 39.2199C31.61 39.6799 32.28 40.1399 32.96 40.5999C35.1 42.0599 37.25 43.5199 39.39 44.9799C40.64 45.8299 41.81 44.7099 41.94 43.74C42.02 43.08 41.71 42.6299 41.18 42.2799C39.19 40.9499 37.21 39.6099 35.22 38.2799C34.72 37.9399 34.21 37.6099 33.71 37.2599C33.31 36.9799 33.21 36.5399 33.45 36.1799C33.7 35.8099 34.13 35.73 34.54 35.99C34.65 36.06 34.75 36.13 34.86 36.2C37.25 37.8099 39.64 39.4099 42.03 41.0199C42.37 41.2499 42.72 41.44 43.13 41.49C43.96 41.6 44.63 40.9299 44.48 40.1099C44.41 39.7299 44.19 39.4299 43.88 39.1999C43.16 38.6799 42.43 38.16 41.69 37.65C38.51 35.44 35.33 33.24 32.16 31.03C32 30.92 31.87 30.8999 31.69 30.9599C31.16 31.1199 30.63 31.2799 30.1 31.4099C29.9 31.4599 29.8 31.5599 29.72 31.7399C29.31 32.7199 28.88 33.6899 28.46 34.6699C28.24 35.1699 27.97 35.6299 27.62 36.0499C26.22 37.7199 23.66 37.9599 22.08 36.5699C21.79 36.3099 21.7 36.0099 21.81 35.6599C22.5 33.2499 23.19 30.8399 23.87 28.4299C23.93 28.2099 24.05 28.0299 24.22 27.8799C25.36 26.8899 26.49 25.8899 27.62 24.8899C27.88 24.6599 28.13 24.4299 28.41 24.1799C26.49 23.9099 25.4 24.1499 24.14 24.8799C23.64 25.1699 23.13 25.42 22.62 25.6899C22 25.9999 21.36 26.15 20.68 25.95C19.84 25.7 19 25.4099 18.16 25.1499C18.38 24.6799 18.64 24.2399 18.92 23.7999ZM27.34 48.9599C27.86 48.9499 28.21 48.7299 28.45 48.3499C28.98 47.5399 29.5 46.7299 30.01 45.9099C30.17 45.6499 30.26 45.3699 30.2 45.0599C30.09 44.4699 29.64 44.0199 29 43.8899C28.51 43.7799 28 44.0099 27.69 44.5299C27.22 45.3299 26.7 46.0899 26.2 46.8599C25.92 47.2899 25.86 47.7299 26.11 48.1799C26.4 48.6699 26.84 48.9099 27.34 48.9599ZM26.23 43.6799C26.23 43.0499 25.82 42.5199 25.19 42.2999C24.61 42.0999 24.06 42.2599 23.7 42.7699C23.24 43.4199 22.79 44.0799 22.37 44.7599C21.94 45.4499 22.15 46.2099 22.86 46.65C23.55 47.08 24.3 46.9299 24.75 46.2499C25.19 45.5899 25.62 44.91 26.05 44.24C26.17 44.07 26.24 43.8699 26.23 43.6799ZM20.35 41.0399C20.08 41.0399 19.84 41.1099 19.63 41.2699C19.26 41.5499 18.99 41.9299 18.82 42.3499C18.61 42.8599 18.73 43.3299 19.13 43.7099C19.82 44.3599 20.7 44.2899 21.28 43.5299C21.36 43.4199 21.44 43.2999 21.52 43.1899C21.81 42.7699 21.92 42.3199 21.67 41.8499C21.39 41.3299 20.93 41.08 20.35 41.0399ZM31.32 47.8599C30.64 47.8599 29.87 48.6399 29.87 49.3399C29.87 49.9699 30.45 50.5899 31.07 50.6099C31.73 50.6199 32.52 49.82 32.54 49.1299C32.55 48.4599 31.97 47.8599 31.32 47.8599ZM34.07 48.4299C34.05 48.4399 34.02 48.4499 34 48.4599C34.16 49.1799 34.05 49.8499 33.68 50.4799C33.6 50.6199 33.71 50.6399 33.79 50.6699C34.19 50.7999 34.57 50.7599 34.88 50.4599C35.21 50.1499 35.35 49.76 35.28 49.3099C35.27 49.25 35.23 49.1899 35.18 49.1599C34.81 48.9099 34.44 48.6699 34.07 48.4299Z" fill="white"/>
<path d="M56.8101 13.31C56.8101 14.8 56.8101 16.29 56.8101 17.78C56.8101 18.29 56.5701 18.6 56.1601 18.65C55.6501 18.7099 55.2901 18.3699 55.2801 17.7999C55.2701 16.5599 55.2801 15.3099 55.2801 14.07C55.2801 12.61 55.2801 11.16 55.2801 9.69995C55.2801 9.50995 55.2701 9.39995 55.0201 9.37995C51.4201 9.04995 47.8601 8.45995 44.3501 7.56995C41.1201 6.74995 37.9801 5.69995 34.9801 4.23995C33.5601 3.54995 32.2001 2.76995 30.9101 1.86995C30.7901 1.78995 30.7001 1.70995 30.5201 1.82995C26.7901 4.40995 22.6301 6.02995 18.2901 7.23995C14.9401 8.15995 11.5301 8.79995 8.08007 9.19995C7.52007 9.26995 6.96007 9.33995 6.40007 9.37995C6.17007 9.39995 6.10007 9.45995 6.10007 9.68995C6.11007 11.16 6.10007 12.63 6.10007 14.09C6.10007 15.2 6.10007 16.2999 6.10007 17.41C6.10007 17.5 6.10007 17.58 6.10007 17.67C6.08007 18.17 5.77007 18.51 5.33007 18.51C4.88007 18.51 4.57007 18.16 4.57007 17.6299C4.57007 15.9199 4.57007 14.21 4.57007 12.49C4.57007 11.2999 4.57007 10.11 4.57007 8.91995C4.57007 8.21995 4.81007 7.95995 5.50007 7.90995C8.12007 7.71995 10.7201 7.34995 13.2901 6.83995C16.9101 6.12995 20.4601 5.14995 23.8601 3.70995C26.0801 2.76995 28.1901 1.64995 30.1401 0.219951C30.5301 -0.0600493 30.8101 -0.0800492 31.1601 0.179951C34.3101 2.47995 37.8201 3.99995 41.5001 5.17995C44.8901 6.25995 48.3501 6.99995 51.8701 7.48995C53.2501 7.67995 54.6301 7.83995 56.0201 7.93995C56.5401 7.96995 56.8001 8.26995 56.8101 8.82995C56.8101 10.3099 56.8101 11.81 56.8101 13.31Z" fill="#F7941D"/>
<path d="M18.9201 23.7999C18.6401 24.2299 18.3801 24.6799 18.1601 25.1399C18.1001 25.2299 18.0401 25.3099 17.9901 25.3999C16.4801 28.0499 14.9601 30.7099 13.4501 33.3599C12.9401 34.2499 12.4701 35.1699 11.7201 35.8999C11.3301 36.2199 10.9201 36.5199 10.4801 36.7799C9.79007 37.0899 9.08007 37.3399 8.32007 37.4099C7.18007 37.5299 6.09007 37.3399 5.08007 36.7899C3.52007 35.9299 1.97007 35.0399 0.430073 34.1499C-0.0499274 33.8699 -0.129927 33.4799 0.170073 32.9499C1.78007 30.1399 3.39007 27.3199 5.00007 24.4999C6.21007 22.3799 7.42007 20.2599 8.63007 18.1299C9.02007 17.4399 9.35007 17.3499 10.0301 17.7399C12.8401 19.3399 15.6601 20.9499 18.4701 22.5499C19.0701 22.8899 19.1701 23.1699 18.9201 23.7999ZM7.83007 35.9399C9.33007 35.8699 10.6201 35.2199 11.4301 33.7999C13.3401 30.4799 15.2301 27.1399 17.1301 23.8099C17.2401 23.6299 17.1801 23.5699 17.0301 23.4799C14.6701 22.1399 12.3001 20.7999 9.95007 19.4399C9.75007 19.3299 9.68007 19.3599 9.57007 19.5499C7.03007 24.0199 4.49007 28.4799 1.94007 32.9399C1.83007 33.1399 1.86007 33.2099 2.05007 33.3199C3.23007 33.9899 4.41007 34.6599 5.59007 35.3399C6.25007 35.7199 6.96007 35.9199 7.83007 35.9399Z" fill="white"/>
<path d="M43.19 25.12C42.98 24.61 42.6701 24.16 42.4001 23.68C42.2401 23.12 42.35 22.87 42.85 22.58C45.71 20.95 48.57 19.32 51.43 17.69C52 17.36 52.37 17.47 52.7 18.04C55.53 23 58.35 27.97 61.18 32.93C61.5201 33.53 61.4201 33.89 60.8301 34.22C59.3901 35.04 57.96 35.88 56.51 36.68C54.57 37.75 52.62 37.72 50.68 36.65C50.62 36.61 50.55 36.58 50.48 36.55C50.07 36.25 49.6701 35.93 49.3101 35.56C48.97 35.14 48.6701 34.69 48.4001 34.22C46.7401 31.29 45.06 28.36 43.39 25.43C43.34 25.32 43.3 25.2 43.19 25.12ZM53.52 35.94C54.4 35.93 55.12 35.73 55.79 35.35C56.96 34.68 58.1301 34.01 59.3101 33.35C59.5401 33.22 59.54 33.13 59.42 32.92C58.26 30.9 57.11 28.88 55.96 26.86C54.58 24.43 53.2001 22.01 51.8101 19.58C51.7401 19.45 51.71 19.28 51.47 19.42C49.09 20.79 46.69 22.15 44.3 23.5C44.16 23.58 44.1301 23.64 44.2201 23.79C46.14 27.15 48.03 30.51 49.97 33.86C50.7801 35.24 52.06 35.87 53.52 35.94Z" fill="white"/>
<path d="M51.67 14.5301C51.67 14.8301 51.68 15.1301 51.67 15.4201C51.65 15.9201 51.33 16.2601 50.89 16.2601C50.45 16.2601 50.14 15.9101 50.13 15.4101C50.12 15.1201 50.12 14.8301 50.13 14.5501C50.14 14.3401 50.06 14.2701 49.86 14.2501C48.51 14.1401 47.18 13.9601 45.85 13.7201C41 12.8901 36.3 11.5901 32.02 9.06006C31.63 8.83006 31.25 8.57006 30.87 8.32006C30.75 8.24006 30.66 8.22006 30.53 8.31006C26.93 10.7401 22.9 12.1301 18.7 13.1001C16.35 13.6401 13.97 14.0401 11.56 14.2501C11.33 14.2701 11.21 14.3301 11.24 14.5901C11.26 14.8501 11.25 15.1201 11.23 15.3901C11.2 15.8001 10.89 16.0801 10.5 16.0901C10.12 16.1001 9.77998 15.8401 9.73998 15.4601C9.66998 14.7901 9.67998 14.1201 9.73998 13.4501C9.76998 13.0901 10.03 12.8601 10.4 12.8301C11.37 12.7301 12.35 12.6601 13.32 12.5201C17.88 11.9001 22.32 10.8601 26.49 8.88006C27.77 8.27006 28.99 7.56006 30.13 6.73006C30.51 6.45006 30.81 6.43006 31.16 6.67006C33.77 8.57006 36.69 9.81006 39.75 10.7501C42.5 11.5901 45.3 12.1601 48.15 12.5301C49 12.6401 49.86 12.7301 50.72 12.8001C51.44 12.8501 51.66 13.1001 51.67 13.8401C51.67 14.0601 51.67 14.3001 51.67 14.5301Z" fill="#F7941D"/>
<path d="M30.3601 58.9201C29.4601 58.8301 28.5701 58.5601 27.6901 58.2401C24.1701 56.9901 21.0501 55.0801 18.2501 52.6201C17.8801 52.2901 17.8301 51.8301 18.1301 51.4901C18.4201 51.1601 18.8901 51.1501 19.2701 51.4801C20.7701 52.8101 22.3901 53.9801 24.1401 54.9501C26.0501 56.0101 28.0301 56.8901 30.1801 57.3501C30.3101 57.3801 30.4301 57.3801 30.5501 57.3401C37.1401 55.3201 42.6301 51.7401 46.6401 46.0401C47.0901 45.4001 47.4901 44.7201 47.8801 44.0401C48.0601 43.7301 48.3301 43.6001 48.6801 43.6501C49.0101 43.7001 49.2001 43.9101 49.2901 44.2301C49.3601 44.4701 49.2601 44.6901 49.1401 44.9001C47.8001 47.3101 46.1201 49.4501 44.1101 51.3301C40.3201 54.8901 35.8901 57.3501 30.9201 58.8501C30.8401 58.8701 30.7601 58.9001 30.6701 58.9101C30.5901 58.9201 30.5001 58.9201 30.3601 58.9201Z" fill="#F7941D"/>
</g>
<defs>
<clipPath id="clip0_4480_13492">
<rect width="61.38" height="65.36" fill="white"/>
</clipPath>
</defs>
</svg>
