<svg width="66" height="41" viewBox="0 0 66 41" fill="none" xmlns="http://www.w3.org/2000/svg">
<g clip-path="url(#clip0_4480_13358)">
<path d="M31.6001 29.21V32.26C31.6001 32.26 21.7501 31.86 8.11011 35.09" stroke="white" stroke-width="1.5" stroke-miterlimit="10" stroke-linecap="round" stroke-linejoin="round"/>
<path d="M53.3201 7.6001C45.6501 8.7001 38.2201 9.0801 31.6001 9.0901V11.3301" stroke="white" stroke-width="1.5" stroke-miterlimit="10" stroke-linecap="round" stroke-linejoin="round"/>
<path d="M8.21997 7.54004C11.88 8.05004 19.19 8.90004 28.4 9.06004" stroke="white" stroke-width="1.5" stroke-miterlimit="10" stroke-linecap="round" stroke-linejoin="round"/>
<path d="M56.2799 3.5C30.0399 7.87 5.66992 3.5 5.66992 3.5V39.57C23.7599 33.04 39.2099 34.81 48.1499 36.97" stroke="white" stroke-width="1.5" stroke-miterlimit="10" stroke-linecap="round" stroke-linejoin="round"/>
<path d="M34.79 32.4199C37.58 32.5699 43.01 32.9699 48.99 33.9999" stroke="white" stroke-width="1.5" stroke-miterlimit="10" stroke-linecap="round"/>
<path d="M5.67 3.5H0.75V39.53H5.67V3.5Z" stroke="white" stroke-width="1.5" stroke-miterlimit="10" stroke-linejoin="round"/>
<path d="M61.19 21.42V3.5H56.28V21.4" stroke="white" stroke-width="1.5" stroke-miterlimit="10" stroke-linecap="round" stroke-linejoin="round"/>
<path d="M63.4 26.04H51.5V39.49H63.4V26.04Z" stroke="#F7941D" stroke-width="1.2" stroke-miterlimit="10" stroke-linecap="round" stroke-linejoin="round"/>
<path d="M63.4 29.8799H51.5V33.7199H63.4V29.8799Z" stroke="#F7941D" stroke-width="1.2" stroke-miterlimit="10" stroke-linecap="round" stroke-linejoin="round"/>
<path d="M49.8999 25.8201H64.8399" stroke="#F7941D" stroke-width="1.2" stroke-miterlimit="10" stroke-linecap="round" stroke-linejoin="round"/>
<path d="M14.44 0.909912L10.5 2.12991V3.95991" stroke="white" stroke-width="1.5" stroke-miterlimit="10" stroke-linecap="round" stroke-linejoin="round"/>
<path d="M47.5901 0.909912L51.5301 2.12991V3.95991" stroke="white" stroke-width="1.5" stroke-miterlimit="10" stroke-linecap="round" stroke-linejoin="round"/>
<path d="M29.45 0.75H32.3699" stroke="white" stroke-width="1.5" stroke-miterlimit="10" stroke-linecap="round" stroke-linejoin="round"/>
<path d="M30.8401 0.76001V4.84001" stroke="white" stroke-width="1.5" stroke-miterlimit="10" stroke-linecap="round" stroke-linejoin="round"/>
<path d="M17.16 14.8401C17.82 14.8401 18.42 14.9501 18.97 15.1701C19.52 15.3901 20 15.7101 20.41 16.1101C20.82 16.5201 21.14 17.0001 21.36 17.5501C21.59 18.1001 21.7 18.7001 21.7 19.3601C21.7 20.0201 21.59 20.6201 21.36 21.1701C21.14 21.7201 20.82 22.2001 20.41 22.6101C20 23.0201 19.52 23.3301 18.97 23.5501C18.42 23.7701 17.82 23.8801 17.16 23.8801C16.39 23.8801 15.7 23.7501 15.07 23.4801C14.44 23.2101 13.92 22.8301 13.51 22.3301L14.8 21.1301C15.11 21.4701 15.45 21.7301 15.83 21.9001C16.21 22.0701 16.62 22.1601 17.07 22.1601C17.45 22.1601 17.8 22.0901 18.11 21.9601C18.42 21.8301 18.7 21.6301 18.93 21.3901C19.16 21.1401 19.34 20.8401 19.46 20.5001C19.58 20.1601 19.64 19.7801 19.64 19.3601C19.64 18.9401 19.58 18.5601 19.46 18.2201C19.34 17.8801 19.16 17.5801 18.93 17.3301C18.7 17.0801 18.42 16.8901 18.11 16.7601C17.8 16.6301 17.45 16.5601 17.07 16.5601C16.62 16.5601 16.21 16.6501 15.83 16.8201C15.45 17.0001 15.1 17.2601 14.8 17.6001L13.51 16.4001C13.93 15.8901 14.45 15.5001 15.07 15.2401C15.7 14.9701 16.39 14.8401 17.16 14.8401ZM16.01 20.0901V18.5401H20.34V20.0901H16.01Z" fill="#F7941D"/>
<path d="M22.25 23.74L26 18.55V20.03L22.41 14.99H24.7L27.19 18.49L26.21 18.51L28.69 14.98H30.88L27.3 19.93V18.48L31.09 23.73H28.75L26.17 20.02H27.1L24.56 23.73H22.25V23.74Z" fill="#F7941D"/>
<path d="M32.1599 23.74V14.99H35.9499C36.7299 14.99 37.4099 15.12 37.9799 15.37C38.5499 15.62 38.9799 15.99 39.2899 16.46C39.5999 16.94 39.7499 17.5 39.7499 18.15C39.7499 18.81 39.5999 19.37 39.2899 19.84C38.9799 20.31 38.5399 20.68 37.9799 20.93C37.4099 21.19 36.7399 21.32 35.9499 21.32H33.2699L34.1999 20.41V23.74H32.1599ZM34.1999 20.64L33.2699 19.68H35.8299C36.4499 19.68 36.9099 19.55 37.2299 19.28C37.5499 19.01 37.7099 18.64 37.7099 18.16C37.7099 17.68 37.5499 17.3 37.2299 17.04C36.9099 16.78 36.4499 16.65 35.8299 16.65H33.2699L34.1999 15.69V20.64Z" fill="#F7941D"/>
<path d="M45.55 23.8901C44.86 23.8901 44.22 23.7801 43.64 23.5501C43.06 23.3301 42.55 23.0101 42.11 22.6001C41.68 22.1901 41.34 21.7101 41.1 21.1601C40.86 20.6101 40.74 20.0101 40.74 19.3601C40.74 18.7001 40.86 18.1001 41.1 17.5501C41.34 17.0001 41.67 16.5301 42.11 16.1201C42.54 15.7101 43.05 15.3901 43.63 15.1701C44.21 14.9501 44.84 14.8301 45.54 14.8301C46.23 14.8301 46.87 14.9401 47.45 15.1601C48.03 15.3801 48.54 15.7001 48.97 16.1001C49.4 16.5101 49.74 16.9901 49.98 17.5401C50.22 18.0901 50.34 18.6901 50.34 19.3501C50.34 20.0001 50.22 20.6001 49.98 21.1601C49.74 21.7101 49.41 22.2001 48.97 22.6001C48.54 23.0101 48.03 23.3201 47.45 23.5401C46.87 23.7801 46.24 23.8901 45.55 23.8901ZM45.54 22.1801C45.93 22.1801 46.29 22.1101 46.62 21.9701C46.95 21.8301 47.24 21.6401 47.49 21.3801C47.74 21.1301 47.93 20.8301 48.07 20.4901C48.21 20.1501 48.28 19.7801 48.28 19.3601C48.28 18.9401 48.21 18.5701 48.07 18.2301C47.93 17.8901 47.74 17.6001 47.49 17.3401C47.24 17.0901 46.95 16.8901 46.62 16.7501C46.29 16.6101 45.93 16.5401 45.54 16.5401C45.15 16.5401 44.79 16.6101 44.45 16.7501C44.12 16.8901 43.83 17.0801 43.58 17.3401C43.33 17.5901 43.14 17.8901 43 18.2301C42.86 18.5701 42.79 18.9401 42.79 19.3601C42.79 19.7801 42.86 20.1501 43 20.4901C43.14 20.8301 43.33 21.1201 43.58 21.3801C43.83 21.6301 44.12 21.8301 44.45 21.9701C44.79 22.1101 45.15 22.1801 45.54 22.1801Z" fill="#F7941D"/>
</g>
<defs>
<clipPath id="clip0_4480_13358">
<rect width="65.44" height="40.32" fill="white"/>
</clipPath>
</defs>
</svg>
