<svg width="70" height="64" viewBox="0 0 70 64" fill="none" xmlns="http://www.w3.org/2000/svg">
<g clip-path="url(#clip0_4271_13332)">
<path d="M45.5797 26.28C50.1997 25.87 53.8196 21.98 53.8196 17.26C53.8196 12.87 50.6996 9.22 46.5696 8.38C45.7696 4.18 42.0996 1 37.6696 1C34.0396 1 30.9096 3.14 29.4696 6.23C28.8696 6.06 28.2296 5.96 27.5696 5.96C23.8496 5.96 20.8296 8.93 20.7396 12.64H20.7296C16.9496 12.64 13.8896 15.7 13.8896 19.48C13.8896 22.79 16.2296 25.54 19.3496 26.18" stroke="white" stroke-width="2" stroke-miterlimit="10" stroke-linecap="round" stroke-linejoin="round"/>
<path d="M23.5098 23.3801V27.5801C23.5098 27.8601 23.7398 28.0901 24.0198 28.0901H41.9098C42.1898 28.0901 42.4198 27.8601 42.4198 27.5801V23.3801C42.4198 23.1001 42.1898 22.8701 41.9098 22.8701H24.0198C23.7298 22.8701 23.5098 23.0901 23.5098 23.3801ZM26.4598 26.7901H25.3198V24.0001H26.4598V26.7901ZM28.8298 26.7901H27.6898V24.0001H28.8298V26.7901ZM39.3098 26.7801C38.5398 26.7801 37.9198 26.1601 37.9198 25.3901C37.9198 24.6201 38.5398 24.0001 39.3098 24.0001C40.0798 24.0001 40.6998 24.6201 40.6998 25.3901C40.6998 26.1601 40.0798 26.7801 39.3098 26.7801Z" fill="#F7941D"/>
<path d="M14.1396 39.62V34.48H55.2996V40.93" stroke="white" stroke-width="2" stroke-miterlimit="10" stroke-linecap="round" stroke-linejoin="round"/>
<path d="M29.11 59.1999H2.86C1.83 59.1999 1 58.3699 1 57.3399V42.7899C1 41.7599 1.83 40.9299 2.86 40.9299H29.11C30.14 40.9299 30.97 41.7599 30.97 42.7899V57.3399C30.97 58.3699 30.14 59.1999 29.11 59.1999Z" stroke="white" stroke-width="2" stroke-miterlimit="10" stroke-linecap="round" stroke-linejoin="round"/>
<path d="M6.5498 62.74H22.8298" stroke="white" stroke-width="2" stroke-miterlimit="10" stroke-linecap="round" stroke-linejoin="round"/>
<path d="M14.9697 62.74V59.2" stroke="white" stroke-width="2" stroke-miterlimit="10" stroke-linecap="round" stroke-linejoin="round"/>
<path d="M66.5797 59.1999H40.3297C39.2997 59.1999 38.4697 58.3699 38.4697 57.3399V42.7899C38.4697 41.7599 39.2997 40.9299 40.3297 40.9299H66.5797C67.6097 40.9299 68.4397 41.7599 68.4397 42.7899V57.3399C68.4397 58.3699 67.6097 59.1999 66.5797 59.1999Z" stroke="white" stroke-width="2" stroke-miterlimit="10" stroke-linecap="round" stroke-linejoin="round"/>
<path d="M44.0303 62.74H60.3003" stroke="white" stroke-width="2" stroke-miterlimit="10" stroke-linecap="round" stroke-linejoin="round"/>
<path d="M52.4502 62.74V59.2" stroke="white" stroke-width="2" stroke-miterlimit="10" stroke-linecap="round" stroke-linejoin="round"/>
<path d="M32.96 34.4799V30.1799" stroke="white" stroke-width="2" stroke-miterlimit="10" stroke-linecap="round" stroke-linejoin="round"/>
<path d="M34.9401 18.55H34.7101C34.2001 18.55 33.7501 18.5 33.3601 18.4C32.9701 18.3 32.6701 18.17 32.4601 18.02C32.2401 17.87 32.0701 17.69 31.9401 17.48C31.8101 17.27 31.7201 17.08 31.6801 16.9C31.6401 16.72 31.6201 16.54 31.6201 16.35V16.18C31.6201 15.98 31.6401 15.8 31.6801 15.63C31.7201 15.46 31.8001 15.27 31.9301 15.06C32.0601 14.85 32.2301 14.68 32.4401 14.53C32.6501 14.38 32.9501 14.26 33.3401 14.16C33.7301 14.06 34.1801 14.01 34.7101 14.01H34.9401C35.3001 14.01 35.6401 14.03 35.9401 14.08C36.2401 14.13 36.5001 14.19 36.7001 14.26C36.9101 14.33 37.0901 14.42 37.2501 14.53C37.4101 14.63 37.5301 14.74 37.6201 14.84C37.7101 14.95 37.7801 15.06 37.8401 15.18C37.9001 15.3 37.9301 15.41 37.9501 15.5C37.9701 15.59 37.9801 15.69 37.9801 15.78V15.86H36.2501C36.1201 15.41 35.6401 15.19 34.8101 15.19C33.8401 15.19 33.3501 15.53 33.3501 16.21V16.28C33.3501 16.41 33.3701 16.53 33.4201 16.65C33.4701 16.77 33.5401 16.88 33.6401 17C33.7401 17.11 33.9001 17.2 34.1001 17.27C34.3001 17.34 34.5401 17.37 34.8201 17.37C35.0601 17.37 35.2801 17.35 35.4601 17.3C35.6401 17.26 35.7801 17.21 35.8801 17.15C35.9701 17.1 36.0501 17.03 36.1101 16.94C36.1701 16.86 36.2101 16.8 36.2201 16.76C36.2301 16.72 36.2401 16.69 36.2601 16.64H37.9901V16.73C37.9901 16.86 37.9701 17 37.9301 17.14C37.8901 17.28 37.8001 17.44 37.6701 17.61C37.5401 17.78 37.3701 17.94 37.1601 18.07C36.9501 18.2 36.6601 18.31 36.2701 18.4C35.8801 18.51 35.4401 18.55 34.9401 18.55Z" fill="white"/>
<path d="M38.3799 14.1001H40.2499L42.7899 16.5801V14.1001H44.4499V18.4701H42.7799L40.0399 15.8201V18.4701H38.3799V14.1001Z" fill="white"/>
</g>
<defs>
<clipPath id="clip0_4271_13332">
<rect width="69.44" height="63.74" fill="white"/>
</clipPath>
</defs>
</svg>
