<svg width="52" height="62" viewBox="0 0 52 62" fill="none" xmlns="http://www.w3.org/2000/svg">
<g clip-path="url(#clip0_3480_12450)">
<path d="M25.2648 33.9798C34.4194 33.9798 41.8406 26.602 41.8406 17.501C41.8406 8.40003 34.4194 1.02222 25.2648 1.02222C16.1102 1.02222 8.68896 8.40003 8.68896 17.501C8.68896 26.602 16.1102 33.9798 25.2648 33.9798Z" stroke="white" stroke-width="2" stroke-miterlimit="10"/>
<path d="M39.2594 38.6312C35.2286 36.1164 30.5397 34.675 25.5319 34.675C15.4034 34.675 6.58078 40.5633 1.90212 49.2831C-0.709705 54.1593 2.85842 60.0577 8.4214 60.0577H26.8276" stroke="white" stroke-width="2" stroke-miterlimit="10" stroke-linecap="round" stroke-linejoin="round"/>
<path d="M51.2288 56.5105V44.1411C51.2288 42.9144 50.2211 41.9126 48.9872 41.9126H41.2339L37.3882 45.4803V58.9945C37.3882 60.2213 38.3959 61.2231 39.6298 61.2231H48.9769C50.2108 61.2231 51.2185 60.2213 51.2185 58.9945V54.2819" stroke="white" stroke-width="1.5" stroke-miterlimit="10" stroke-linecap="round" stroke-linejoin="round"/>
<path d="M37.3779 45.8586H41.2443V42.0251" stroke="white" stroke-width="1.5" stroke-miterlimit="10" stroke-linecap="round" stroke-linejoin="round"/>
<path d="M40.2983 49.7942H46.6839" stroke="white" stroke-width="1.5" stroke-miterlimit="10" stroke-linecap="round" stroke-linejoin="round"/>
<path d="M40.4834 53.9343H45.306" stroke="white" stroke-width="1.5" stroke-miterlimit="10" stroke-linecap="round" stroke-linejoin="round"/>
<path d="M40.4834 58.2993H47.5579" stroke="white" stroke-width="1.5" stroke-miterlimit="10" stroke-linecap="round" stroke-linejoin="round"/>
<path d="M21.0386 37.6702L26.2931 40.7165L31.5373 37.6702" stroke="white" stroke-width="2" stroke-miterlimit="10" stroke-linecap="round" stroke-linejoin="round"/>
<path d="M26.2931 41.1561L22.9615 43.9366L18.0669 39.1934" stroke="white" stroke-width="2" stroke-miterlimit="10" stroke-linecap="round" stroke-linejoin="round"/>
<path d="M26.293 40.7165L29.0899 43.9366L34.8688 39.1934" stroke="white" stroke-width="2" stroke-miterlimit="10" stroke-linecap="round" stroke-linejoin="round"/>
<path d="M26.293 47.3716V55.5701" stroke="white" stroke-width="2" stroke-miterlimit="10" stroke-linecap="round" stroke-linejoin="round"/>
</g>
<defs>
<clipPath id="clip0_3480_12450">
<rect width="52" height="62" fill="white"/>
</clipPath>
</defs>
</svg>
