<svg width="64" height="29" viewBox="0 0 64 29" fill="none" xmlns="http://www.w3.org/2000/svg">
<g clip-path="url(#clip0_4480_13346)">
<path d="M56.4899 28.3801C55.2199 28.3601 54.0199 28.0501 52.8099 27.7401C51.3699 27.3601 49.8999 27.3201 48.4499 27.6301C46.7199 28.0001 44.9799 28.1401 43.2299 28.0201C41.6299 27.9201 40.5199 27.0401 39.8399 25.6201C39.2699 24.4301 39.0399 23.1701 39.3999 21.8601C39.6499 20.9601 40.1099 20.1801 40.7599 19.5201C41.2899 18.9901 41.8799 18.5101 42.4599 18.0301C43.9999 16.7201 45.4899 15.3601 46.5699 13.6001C47.1599 12.6301 48.0899 12.0201 49.1899 11.7201C51.0399 11.2101 52.5299 11.8701 53.7199 13.2701C54.3499 14.0101 54.8899 14.8301 55.5099 15.5801C56.7099 17.0201 58.0599 18.3101 59.5199 19.4701C60.5399 20.2701 61.2299 21.2401 61.4399 22.5301C61.6099 23.5901 61.4399 24.6101 61.0699 25.6101C60.7799 26.3701 60.3599 27.0401 59.6799 27.5001C59.1199 27.8801 58.4999 28.1301 57.8199 28.2201C57.3899 28.2801 56.9399 28.3301 56.4899 28.3801ZM47.5999 18.6401C47.0099 18.6401 46.4799 18.6501 45.9499 18.6401C44.7599 18.6201 43.8499 19.1601 43.1799 20.1001C42.2399 21.4301 42.3099 22.8601 43.0399 24.2301C43.5499 25.1701 44.4599 25.7201 45.5299 25.7901C46.7499 25.8701 47.9899 25.8101 49.2099 25.8101C49.4399 25.8101 49.5299 25.7401 49.5299 25.5001C49.5199 25.0101 49.5299 24.5101 49.5299 24.0201C49.5299 21.5001 49.5299 18.9801 49.5199 16.4601C49.5199 16.0501 49.5199 16.0501 49.0999 16.0501C48.7299 16.0501 48.3599 16.0701 47.9999 16.0401C47.6699 16.0101 47.5899 16.1401 47.5999 16.4501C47.6199 17.1701 47.5999 17.8801 47.5999 18.6401ZM54.8999 24.0101C54.2899 24.0101 53.7299 24.0101 53.1599 24.0101C52.6499 24.0101 52.3699 23.7201 52.3699 23.2101C52.3699 21.8801 52.3599 20.5401 52.3699 19.2101C52.3699 18.9301 52.2799 18.8301 51.9999 18.8501C51.5899 18.8801 51.1799 18.9001 50.7799 18.8901C50.4799 18.8801 50.4099 18.9901 50.4099 19.2701C50.4199 20.7501 50.4099 22.2301 50.4099 23.7101C50.4099 24.8201 51.3799 25.7901 52.4999 25.7901C53.8599 25.7901 55.2299 25.7901 56.5899 25.7901C56.6999 25.7901 56.8099 25.7801 56.9199 25.7701C56.9299 25.7001 56.9499 25.6601 56.9499 25.6201C56.9499 23.4701 56.9499 21.3201 56.9599 19.1701C56.9599 18.9501 56.8599 18.9001 56.6699 18.9101C56.1799 18.9201 55.6799 18.9201 55.1899 18.9101C54.9499 18.9001 54.8799 18.9901 54.8799 19.2201C54.8899 20.5001 54.8799 21.7801 54.8899 23.0601C54.8999 23.3401 54.8999 23.6501 54.8999 24.0101Z" fill="#F7941D"/>
<path d="M12.4 19.04C12.66 19.21 12.91 19.36 13.14 19.53C14.38 20.45 14.81 21.71 14.71 23.21C14.57 25.35 13.14 26.6 11.21 26.92C10.66 27.01 10.1 27.05 9.54999 27.05C6.67999 27.06 3.81999 27.06 0.94999 27.05C0.48999 27.05 0.48999 27.05 0.48999 26.6C0.48999 21.54 0.48999 16.48 0.48999 11.42C0.48999 10.97 0.48999 10.97 0.92999 10.97C3.57999 10.97 6.22999 10.96 8.87999 10.97C9.90999 10.97 10.92 11.18 11.85 11.63C13.08 12.23 13.88 13.17 14.07 14.57C14.26 15.9 14.09 17.16 13.23 18.24C13.02 18.54 12.7 18.76 12.4 19.04ZM6.88999 24.07C7.69999 24.07 8.49999 24.08 9.30999 24.07C9.89999 24.07 10.41 23.86 10.77 23.39C11.17 22.87 11.32 22.27 11.03 21.66C10.7 20.96 10.07 20.61 9.32999 20.59C7.65999 20.56 5.98999 20.59 4.31999 20.58C4.05999 20.58 3.99999 20.68 3.99999 20.93C4.00999 21.85 4.00999 22.77 3.99999 23.69C3.99999 23.97 4.08999 24.07 4.36999 24.07C5.20999 24.06 6.04999 24.07 6.88999 24.07ZM6.86999 14.1C6.02999 14.1 5.18999 14.11 4.34999 14.1C4.10999 14.1 3.99999 14.17 3.99999 14.43C4.00999 15.32 4.00999 16.2 3.99999 17.09C3.99999 17.36 4.09999 17.44 4.35999 17.44C5.95999 17.43 7.55999 17.45 9.15999 17.42C9.50999 17.41 9.88999 17.27 10.21 17.09C11.1 16.61 11.2 14.8 10.32 14.38C10.01 14.23 9.65999 14.13 9.31999 14.12C8.49999 14.07 7.67999 14.1 6.86999 14.1Z" stroke="white" stroke-miterlimit="10"/>
<path d="M28.3301 26.92C28.1801 26.92 28.0601 26.92 27.9401 26.92C25.1601 26.92 22.3901 26.92 19.6101 26.92C18.0001 26.92 16.5601 25.48 16.4901 23.87C16.4301 22.42 16.9401 21.27 18.1301 20.44C18.6301 20.09 19.1901 19.89 19.8201 19.89C21.4701 19.9 23.1201 19.89 24.7701 19.9C25.0601 19.9 25.1601 19.83 25.1601 19.52C25.1501 18.43 24.4901 17.74 23.3801 17.74C21.5501 17.73 19.7201 17.74 17.8901 17.74C17.4101 17.74 17.4101 17.74 17.4101 17.25C17.4101 16.7 17.4201 16.16 17.4101 15.61C17.4101 15.4 17.4801 15.31 17.7001 15.31C19.9901 15.32 22.2801 15.25 24.5601 15.36C26.3001 15.45 27.7501 16.55 28.3001 18.37C28.3501 18.54 28.3601 18.73 28.3601 18.91C28.3601 21.46 28.3601 24 28.3601 26.55C28.3501 26.66 28.3401 26.77 28.3301 26.92ZM22.8101 24.66C23.4701 24.66 24.1301 24.65 24.7901 24.66C25.0701 24.67 25.1701 24.59 25.1601 24.3C25.1401 23.71 25.1401 23.12 25.1601 22.53C25.1701 22.22 25.0501 22.15 24.7601 22.15C23.5301 22.16 22.3101 22.17 21.0801 22.14C20.5801 22.13 20.2401 22.34 19.9301 22.68C19.6201 23.03 19.4901 23.43 19.7201 23.87C19.9501 24.33 20.3101 24.65 20.8601 24.65C21.5201 24.66 22.1601 24.66 22.8101 24.66Z" stroke="white" stroke-miterlimit="10"/>
<path d="M63.5 12.8299C63.4 13.4799 63.37 14.1499 63.2 14.7799C62.91 15.8599 62.23 16.5799 61.08 16.7599C60.28 16.8899 59.49 16.8599 58.72 16.5799C57.69 16.1999 57.2 15.3899 57.05 14.3699C56.87 13.1399 56.89 11.9099 57.22 10.6899C57.57 9.39992 58.56 8.66992 59.88 8.61992C62.17 8.52992 63.37 10.4999 63.42 12.0999C63.43 12.3399 63.42 12.5799 63.42 12.8199C63.45 12.8299 63.48 12.8299 63.5 12.8299Z" fill="#F7941D"/>
<path d="M37.4899 10.7799C37.5599 9.7399 37.8299 8.54991 38.6199 7.52991C39.4199 6.48991 40.8699 6.2299 41.9699 6.9399C43.2299 7.7399 43.9399 8.86991 43.9999 10.3899C44.0299 11.2599 43.9899 12.1099 43.6899 12.9299C43.2199 14.2099 42.1799 14.9499 40.7599 15.0099C39.5899 15.0599 38.4999 14.3399 37.9699 13.1599C37.6599 12.4599 37.4799 11.7499 37.4899 10.7799Z" fill="#F7941D"/>
<path d="M51.8 5.40008C51.82 3.75008 52.5901 2.49008 53.7401 1.44008C54.8201 0.460078 55.9 0.460078 57 1.44008C57.97 2.30008 58.58 3.39008 58.48 4.70008C58.35 6.38008 57.67 7.82008 56.14 8.71008C54.78 9.51008 52.6001 8.95008 52.0801 7.03008C51.9301 6.51008 51.88 5.95008 51.8 5.40008Z" fill="#F7941D"/>
<path d="M50.1801 4.42C50.1401 5.66 49.8701 6.88 48.9601 7.86C47.7901 9.12 46.0901 9 45.0601 7.62C44.0901 6.31 43.9001 4.82 44.1501 3.25C44.3001 2.32 44.6601 1.48 45.3301 0.8C46.4901 -0.379999 48.1101 -0.25 49.1601 1.11C49.9001 2.07 50.1601 3.18 50.1801 4.42Z" fill="#F7941D"/>
<path d="M31.0901 15.3101C32.1401 15.3101 33.1601 15.3101 34.1901 15.3201C34.2601 15.3201 34.3401 15.4501 34.3801 15.5301C34.4101 15.6001 34.3901 15.6901 34.3901 15.7701C34.3901 19.3201 34.3901 22.8701 34.4001 26.4201C34.4001 26.8601 34.4001 26.8601 33.9601 26.8701C33.1501 26.8701 32.3401 26.8701 31.5401 26.8701C31.0901 26.8701 31.0901 26.8701 31.0901 26.4301C31.0901 23.2201 31.0801 20.0101 31.0801 16.8101C31.0801 16.4301 31.0801 16.0601 31.0801 15.6801C31.0601 15.5601 31.0801 15.4501 31.0901 15.3101Z" stroke="white" stroke-miterlimit="10"/>
<path d="M31.1201 9.97998C32.1901 9.97998 33.2601 9.97998 34.3801 9.97998C34.3801 10.62 34.3801 11.24 34.3801 11.86C34.3801 12.1 34.3701 12.34 34.3801 12.58C34.3901 12.79 34.3301 12.89 34.1001 12.89C33.1801 12.88 32.2601 12.89 31.3401 12.88C31.2501 12.88 31.0801 12.75 31.0701 12.68C31.0601 11.81 31.0701 10.93 31.0801 10.06C31.0801 10.03 31.1101 10.01 31.1201 9.97998Z" stroke="white" stroke-miterlimit="10"/>
<path d="M47.5901 20.2901C47.5901 20.4401 47.5901 20.5601 47.5901 20.6701C47.5901 21.7201 47.5801 22.7701 47.6001 23.8101C47.6001 24.0801 47.5201 24.1601 47.2601 24.1401C46.9501 24.1201 46.6301 24.1401 46.3201 24.1401C45.4201 24.1401 44.9201 23.8001 44.6301 22.9401C44.3301 22.0501 44.6701 20.7601 45.7301 20.3701C45.8301 20.3301 45.9301 20.3001 46.0301 20.3001C46.5301 20.2801 47.0301 20.2901 47.5901 20.2901Z" fill="#F7941D"/>
</g>
<defs>
<clipPath id="clip0_4480_13346">
<rect width="63.5" height="28.38" fill="white"/>
</clipPath>
</defs>
</svg>
